<svg width="9" height="6" viewBox="0 0 9 6" fill="#000" xmlns="http://www.w3.org/2000/svg">
<path fill-rule="evenodd" clip-rule="evenodd" d="M0.504547 1.19653C0.502725 1.38988 0.574164 1.57672 0.704529 1.71951L4.01755 5.25851C4.07867 5.32608 4.15326 5.38009 4.23654 5.41705C4.31982 5.45401 4.40993 5.47311 4.50104 5.47311C4.59215 5.47311 4.68226 5.45401 4.76553 5.41705C4.84881 5.38009 4.9234 5.32608 4.98453 5.25851L8.29755 1.71951C8.42691 1.57663 8.49854 1.39078 8.49854 1.19803C8.49854 1.00528 8.42691 0.819398 8.29755 0.676514C8.23649 0.608483 8.16178 0.554094 8.07831 0.516846C7.99483 0.479597 7.90443 0.460327 7.81302 0.460327C7.72161 0.460327 7.63124 0.479597 7.54776 0.516846C7.46428 0.554094 7.38958 0.608483 7.32852 0.676514L4.49753 3.69952L1.66754 0.676513C1.60649 0.608482 1.53178 0.554094 1.4483 0.516845C1.36483 0.479597 1.27445 0.460327 1.18304 0.460327C1.09163 0.460327 1.00123 0.479597 0.917755 0.516845C0.834278 0.554094 0.759601 0.608482 0.698547 0.676513C0.571488 0.819704 0.502325 1.00511 0.504547 1.19653Z" fill="black"/>
</svg>
