<svg width="13" height="16" viewBox="0 0 13 16" fill="none" xmlns="http://www.w3.org/2000/svg">
<path fill-rule="evenodd" clip-rule="evenodd" d="M10.14 10.262C10.1405 10.1333 10.09 10.0096 9.99944 9.91812C9.90889 9.82663 9.78574 9.77478 9.65702 9.77399H2.89702C2.77128 9.77968 2.65258 9.83363 2.56562 9.92462C2.47866 10.0156 2.43012 10.1366 2.43012 10.2625C2.43012 10.3884 2.47866 10.5094 2.56562 10.6004C2.65258 10.6914 2.77128 10.7453 2.89702 10.751H9.65702C9.72084 10.7506 9.78396 10.7376 9.84278 10.7129C9.90159 10.6881 9.95494 10.6519 9.9998 10.6065C10.0446 10.5611 10.0801 10.5073 10.1042 10.4482C10.1282 10.3891 10.1404 10.3258 10.14 10.262ZM2.89702 12.217C2.77128 12.2227 2.65258 12.2767 2.56562 12.3676C2.47866 12.4586 2.43012 12.5796 2.43012 12.7055C2.43012 12.8314 2.47866 12.9524 2.56562 13.0434C2.65258 13.1344 2.77128 13.1883 2.89702 13.194H6.76002C6.88575 13.1883 7.00445 13.1344 7.09142 13.0434C7.17838 12.9524 7.22691 12.8314 7.22691 12.7055C7.22691 12.5796 7.17838 12.4586 7.09142 12.3676C7.00445 12.2767 6.88575 12.2227 6.76002 12.217H2.89702ZM12.072 10.751C12.1358 10.7506 12.199 10.7376 12.2578 10.7129C12.3166 10.6881 12.3699 10.6519 12.4148 10.6065C12.4596 10.5611 12.4951 10.5073 12.5192 10.4482C12.5432 10.3891 12.5554 10.3258 12.555 10.262V1.46201C12.5558 1.07626 12.4038 0.705893 12.1323 0.431915C11.8607 0.157937 11.4918 0.00264306 11.106 0H1.44902C1.06259 0.00264417 0.692988 0.158476 0.421332 0.433319C0.149676 0.708162 -0.00184613 1.07957 1.69803e-05 1.466V14.172C-0.00184613 14.5584 0.149676 14.9298 0.421332 15.2047C0.692988 15.4795 1.06259 15.6354 1.44902 15.638H9.17502C9.3036 15.6372 9.42661 15.5854 9.51702 15.494L12.417 12.563C12.4847 12.4947 12.5309 12.408 12.5497 12.3138C12.5684 12.2195 12.5591 12.1217 12.5227 12.0327C12.4864 11.9437 12.4246 11.8673 12.3452 11.8131C12.2658 11.759 12.1722 11.7294 12.076 11.728H9.17602C9.1122 11.7284 9.04907 11.7414 8.99026 11.7661C8.93145 11.7909 8.87809 11.8271 8.83324 11.8725C8.78839 11.9179 8.75292 11.9717 8.72886 12.0308C8.7048 12.0899 8.69262 12.1532 8.69302 12.217V14.661H1.44902C1.3202 14.66 1.19706 14.6079 1.10653 14.5162C1.01601 14.4246 0.965484 14.3008 0.966018 14.172V1.466C0.965484 1.33719 1.01601 1.21341 1.10653 1.12177C1.19706 1.03012 1.3202 0.978047 1.44902 0.97699H11.106C11.2348 0.978047 11.358 1.03012 11.4485 1.12177C11.539 1.21341 11.5896 1.33719 11.589 1.466V10.266C11.5893 10.3942 11.6402 10.5171 11.7307 10.6079C11.8211 10.6988 11.9438 10.7502 12.072 10.751ZM9.65802 12.706H10.907L9.65802 13.969V12.706Z" fill="black"/>
</svg>
