<svg width="12" height="16" viewBox="0 0 12 16" fill="none" xmlns="http://www.w3.org/2000/svg">
<path d="M9.5 8.00293H2.5C2.36739 8.00293 2.24021 7.95025 2.14645 7.85648C2.05268 7.76271 2 7.63554 2 7.50293C2 7.37032 2.05268 7.24314 2.14645 7.14938C2.24021 7.05561 2.36739 7.00293 2.5 7.00293H9.5C9.63261 7.00293 9.75979 7.05561 9.85355 7.14938C9.94732 7.24314 10 7.37032 10 7.50293C10 7.63554 9.94732 7.76271 9.85355 7.85648C9.75979 7.95025 9.63261 8.00293 9.5 8.00293Z" fill="black"/>
<path d="M9.5 10.0029H2.5C2.36739 10.0029 2.24021 9.95025 2.14645 9.85648C2.05268 9.76272 2 9.63554 2 9.50293C2 9.37032 2.05268 9.24314 2.14645 9.14938C2.24021 9.05561 2.36739 9.00293 2.5 9.00293H9.5C9.63261 9.00293 9.75979 9.05561 9.85355 9.14938C9.94732 9.24314 10 9.37032 10 9.50293C10 9.63554 9.94732 9.76272 9.85355 9.85648C9.75979 9.95025 9.63261 10.0029 9.5 10.0029Z" fill="black"/>
<path d="M9.5 14.0029H7.5C7.36739 14.0029 7.24021 13.9503 7.14645 13.8565C7.05268 13.7627 7 13.6355 7 13.5029C7 13.3703 7.05268 13.2431 7.14645 13.1494C7.24021 13.0556 7.36739 13.0029 7.5 13.0029H9.5C9.63261 13.0029 9.75979 13.0556 9.85355 13.1494C9.94732 13.2431 10 13.3703 10 13.5029C10 13.6355 9.94732 13.7627 9.85355 13.8565C9.75979 13.9503 9.63261 14.0029 9.5 14.0029Z" fill="black"/>
<path d="M10.5 16.0029H1.5C1.10218 16.0029 0.720644 15.8449 0.43934 15.5636C0.158035 15.2823 0 14.9008 0 14.5029L0 1.50293C0 1.1051 0.158035 0.723574 0.43934 0.44227C0.720644 0.160965 1.10218 0.00292969 1.5 0.00292969L8.5 0.00292969C8.63261 0.00292969 8.75979 0.0556081 8.85355 0.149376C8.94732 0.243144 9 0.370321 9 0.50293C9 0.635538 8.94732 0.762715 8.85355 0.856483C8.75979 0.950251 8.63261 1.00293 8.5 1.00293H1.5C1.36739 1.00293 1.24021 1.05561 1.14645 1.14938C1.05268 1.24314 1 1.37032 1 1.50293V14.5029C1 14.6355 1.05268 14.7627 1.14645 14.8565C1.24021 14.9503 1.36739 15.0029 1.5 15.0029H10.5C10.6326 15.0029 10.7598 14.9503 10.8536 14.8565C10.9473 14.7627 11 14.6355 11 14.5029V5.50293C11 5.37032 11.0527 5.24314 11.1464 5.14938C11.2402 5.05561 11.3674 5.00293 11.5 5.00293C11.6326 5.00293 11.7598 5.05561 11.8536 5.14938C11.9473 5.24314 12 5.37032 12 5.50293V14.5029C12 14.9008 11.842 15.2823 11.5607 15.5636C11.2794 15.8449 10.8978 16.0029 10.5 16.0029Z" fill="black"/>
<path d="M11.5 4.00291H8.50001C8.3674 4.00291 8.24022 3.95023 8.14645 3.85646C8.05269 3.76269 8.00001 3.63552 8.00001 3.50291V0.502908C7.99943 0.403596 8.02844 0.306361 8.08334 0.223601C8.13824 0.140841 8.21655 0.0763058 8.30827 0.0382224C8.39999 0.000139054 8.50097 -0.00976669 8.59835 0.00976814C8.69572 0.029303 8.78507 0.0773933 8.85501 0.147908L11.855 3.14791C11.9255 3.21784 11.9736 3.30719 11.9931 3.40457C12.0127 3.50194 12.0028 3.60293 11.9647 3.69465C11.9266 3.78637 11.8621 3.86467 11.7793 3.91957C11.6966 3.97447 11.5993 4.00349 11.5 4.00291ZM9.00001 3.00291H10.295L9.00001 1.70791V3.00291Z" fill="black"/>
</svg>
