<svg width="19" height="24" viewBox="0 0 19 24" fill="none" xmlns="http://www.w3.org/2000/svg">
<path d="M15.676 12.72C15.6872 11.8521 15.9177 11.001 16.3462 10.2461C16.7746 9.49119 17.3871 8.85692 18.1266 8.4023C17.6568 7.7314 17.0371 7.17928 16.3166 6.78979C15.5962 6.40029 14.7948 6.18416 13.9762 6.15854C12.2299 5.97524 10.537 7.20346 9.64718 7.20346C8.74011 7.20346 7.37005 6.17674 5.89471 6.20709C4.94042 6.23792 4.0104 6.51542 3.19524 7.01256C2.38009 7.50969 1.70762 8.20949 1.24334 9.04379C-0.767773 12.5258 0.732338 17.6432 2.65885 20.4578C3.62273 21.836 4.74922 23.3755 6.22323 23.3209C7.66563 23.2611 8.20434 22.4012 9.94543 22.4012C11.6704 22.4012 12.1758 23.3209 13.6797 23.2862C15.2275 23.2611 16.2026 21.9019 17.1327 20.5106C17.8252 19.5286 18.3582 18.4432 18.7117 17.2947C17.8125 16.9144 17.0451 16.2778 16.5053 15.4643C15.9655 14.6508 15.677 13.6963 15.676 12.72Z" fill="black"/>
<path d="M12.8354 4.3075C13.6793 3.29443 14.0951 1.99229 13.9944 0.677612C12.7051 0.813027 11.5142 1.42923 10.6589 2.40343C10.2407 2.87936 9.9204 3.43304 9.71632 4.03282C9.51225 4.6326 9.42838 5.26672 9.46953 5.89893C10.1144 5.90557 10.7524 5.76579 11.3354 5.49013C11.9184 5.21447 12.4313 4.81011 12.8354 4.3075Z" fill="black"/>
</svg>
