<svg width="8" height="6" viewBox="0 0 8 6" fill="none" xmlns="http://www.w3.org/2000/svg">
<path fill-rule="evenodd" clip-rule="evenodd" d="M9.20606e-05 1.22003C-0.00187642 1.4131 0.0696229 1.59969 0.200097 1.74202L3.51509 5.27103C3.57629 5.33829 3.65087 5.39203 3.73404 5.4288C3.81721 5.46558 3.90715 5.48457 3.99809 5.48457C4.08903 5.48457 4.17897 5.46558 4.26215 5.4288C4.34532 5.39203 4.41989 5.33829 4.48109 5.27103L7.79509 1.74202C7.92425 1.59963 7.99579 1.41427 7.99579 1.22203C7.99579 1.02979 7.92425 0.844421 7.79509 0.702026C7.73378 0.634249 7.65895 0.580076 7.57541 0.542999C7.49187 0.505922 7.40148 0.486755 7.31009 0.486755C7.21869 0.486755 7.12832 0.505922 7.04479 0.542999C6.96125 0.580076 6.8864 0.634249 6.82509 0.702026L3.9941 3.71703L1.16309 0.702026C1.10178 0.634249 1.02694 0.580076 0.943406 0.542999C0.859869 0.505922 0.769489 0.486755 0.678093 0.486755C0.586698 0.486755 0.496318 0.505922 0.412781 0.542999C0.329245 0.580076 0.254406 0.634249 0.193093 0.702026C0.0660194 0.844346 -0.00287602 1.02926 9.20606e-05 1.22003Z" fill="#58BE48"/>
</svg>
