<svg width="9" height="6" viewBox="0 0 9 6" fill="none" xmlns="http://www.w3.org/2000/svg">
<path fill-rule="evenodd" clip-rule="evenodd" d="M0.500092 1.22003C0.498124 1.4131 0.569623 1.59969 0.700097 1.74202L4.01509 5.27103C4.07629 5.33829 4.15087 5.39203 4.23404 5.4288C4.31721 5.46558 4.40715 5.48457 4.49809 5.48457C4.58903 5.48457 4.67897 5.46558 4.76215 5.4288C4.84532 5.39203 4.91989 5.33829 4.98109 5.27103L8.29509 1.74202C8.42425 1.59963 8.49579 1.41427 8.49579 1.22203C8.49579 1.02979 8.42425 0.844421 8.29509 0.702026C8.23378 0.634249 8.15895 0.580076 8.07541 0.542999C7.99187 0.505922 7.90148 0.486755 7.81009 0.486755C7.71869 0.486755 7.62832 0.505922 7.54479 0.542999C7.46125 0.580076 7.3864 0.634249 7.32509 0.702026L4.4941 3.71703L1.66309 0.702026C1.60178 0.634249 1.52694 0.580076 1.44341 0.542999C1.35987 0.505922 1.26949 0.486755 1.17809 0.486755C1.0867 0.486755 0.996318 0.505922 0.912781 0.542999C0.829245 0.580076 0.754406 0.634249 0.693093 0.702026C0.566019 0.844346 0.497124 1.02926 0.500092 1.22003Z" fill="#4B4F54"/>
</svg>
