<?xml version="1.0" encoding="UTF-8"?>
<svg width="6px" height="11px" viewBox="0 0 6 11" version="1.1" xmlns="http://www.w3.org/2000/svg" xmlns:xlink="http://www.w3.org/1999/xlink">
    <!-- Generator: Sketch 53.2 (72643) - https://sketchapp.com -->
    <title>arrow</title>
    <desc>Created with Sketch.</desc>
    <g id="Home" stroke="none" stroke-width="1" fill="none" fill-rule="evenodd">
        <g id="TBS_Home_MegaNav_Domestic" transform="translate(-544.000000, -3875.000000)" fill="#000" fill-rule="nonzero">
            <g id="MORE-FROM-THE-BEER-STORE" transform="translate(135.000000, 3346.000000)">
                <g id="beer-cards" transform="translate(110.000000, 111.000000)">
                    <g id="button" transform="translate(225.000000, 418.000000)">
                        <path d="M79.9996507,5.32168413 C80.0055146,5.51320042 79.937454,5.70873662 79.803096,5.84420769 C79.6109621,6.03447384 79.4188283,6.22819939 79.2266944,6.41846554 C78.3964016,7.24871786 77.5626778,8.07897018 76.732385,8.9092225 C76.2108787,9.4281302 75.6893725,9.95049729 75.1678662,10.469405 C74.8968202,10.7426964 74.4748119,10.7219401 74.196904,10.469405 C73.925858,10.2168699 73.9430128,9.74639359 74.196904,9.49039913 C74.3890379,9.30013297 74.5811717,9.10640743 74.7733056,8.91614127 C75.6035984,8.08588895 76.4373222,7.25563663 77.267615,6.42538431 C77.6328789,6.06194049 77.9981427,5.69679963 78.3634066,5.33233894 C78.3278186,5.29693385 78.2922307,5.26160341 78.2566428,5.22639152 C77.4261821,4.3966804 76.5922898,3.56696927 75.7618291,2.73725814 C75.2402175,2.21868869 74.7186058,1.69666211 74.1969942,1.17809265 C73.9224617,0.904979405 73.9464833,0.476295323 74.1969942,0.199724947 C74.447505,-0.0768454281 74.9142102,-0.0561026499 75.1681527,0.199724947 C75.3603254,0.389867081 75.5524981,0.583466344 75.7446709,0.773608477 C76.5751315,1.6033196 77.4090239,2.43303073 78.2394845,3.26274186 C78.7610962,3.78131131 79.2827078,4.30333789 79.8043195,4.82190735 C79.9429242,4.96154093 80.0052829,5.14183966 79.9996507,5.32168413 Z" id="arrow"/>
                    </g>
                </g>
            </g>
        </g>
    </g>
</svg>