<svg width="5" height="8" viewBox="0 0 5 8" fill="none" xmlns="http://www.w3.org/2000/svg">
<path fill-rule="evenodd" clip-rule="evenodd" d="M0.711792 7.98001C0.905136 7.98183 1.09198 7.91039 1.23477 7.78003L4.77377 4.46701C4.84134 4.40589 4.89535 4.33129 4.93231 4.24802C4.96927 4.16474 4.98837 4.07463 4.98837 3.98352C4.98837 3.89241 4.96927 3.8023 4.93231 3.71902C4.89535 3.63575 4.84134 3.56116 4.77377 3.50003L1.23477 0.187012C1.09189 0.0576449 0.906035 -0.0139771 0.713287 -0.0139771C0.52054 -0.0139771 0.334657 0.0576449 0.191772 0.187012C0.123741 0.248066 0.0693527 0.322773 0.0321045 0.40625C-0.00514372 0.489727 -0.0244141 0.580129 -0.0244141 0.671539C-0.0244141 0.762949 -0.00514372 0.853321 0.0321045 0.936798C0.0693527 1.02027 0.123741 1.09498 0.191772 1.15604L3.21478 3.98703L0.191772 6.81702C0.123741 6.87807 0.0693527 6.95278 0.0321045 7.03625C-0.00514372 7.11973 -0.0244141 7.2101 -0.0244141 7.30151C-0.0244141 7.39292 -0.00514372 7.48333 0.0321045 7.5668C0.0693527 7.65028 0.123741 7.72496 0.191772 7.78601C0.334963 7.91307 0.520369 7.98223 0.711792 7.98001Z" fill="white"/>
</svg>
