<svg width="16" height="16" viewBox="0 0 16 16" fill="none" xmlns="http://www.w3.org/2000/svg">
<path d="M12.895 4.79C11.625 3.55 9.79496 3.16 8.82496 3.04L8.69496 3.02L8.61496 0L8.11496 0.18L8.18496 3.02L8.05496 3.04C4.33496 3.58 3.28496 5.68 3.01496 6.57C2.96496 6.71 3.04496 6.86 3.18496 6.9H3.21496L3.42496 6.95L3.39496 7.1C3.19496 7.98 2.99496 9.63 3.86496 10.82L3.89496 10.85C3.89496 10.85 3.95496 10.89 3.98496 10.9L4.07496 10.93V11.02C4.12496 11.32 4.35496 12.83 5.24496 13.7C5.40496 13.86 5.57496 13.98 5.75496 14.08C5.83496 14.12 5.93496 14.12 6.01496 14.07L6.16496 13.92L6.26496 14.1C6.49496 14.53 6.77496 14.92 7.11496 15.28C7.47496 15.65 7.91496 15.9 8.42496 16C8.44496 16 8.46496 16 8.49496 15.99H8.58496C9.67496 15.8 10.375 14.7 10.695 14.07L10.785 13.88L10.935 14.03C11.015 14.06 11.105 14.05 11.175 14.01C12.365 13.35 12.705 11.63 12.795 10.92V10.82L12.895 10.79C12.945 10.78 12.985 10.75 13.025 10.71C13.855 9.51 13.625 7.87 13.415 7.01L13.375 6.85L13.535 6.83C13.645 6.81 13.715 6.79 13.735 6.79C13.885 6.76 13.985 6.62 13.945 6.47V6.45C13.725 5.83 13.355 5.25 12.875 4.79H12.895ZM4.17496 10.37L4.11496 10.27C3.51496 9.19 3.77496 7.71 3.91496 7.12L3.94496 7H4.07496C4.31496 7.02 4.57496 7.01 4.82496 7L4.97496 6.98V7.14C5.03496 7.89 5.23496 8.63 5.58496 9.3L5.63496 9.38L5.57496 9.46C5.24496 9.88 4.80496 10.18 4.27496 10.33L4.16496 10.36L4.17496 10.37ZM9.21496 9.44L9.44496 9.66V9.74C9.33496 10.35 9.02496 10.92 8.54496 11.33L8.44496 11.41L8.34496 11.34C8.28496 11.28 8.21496 11.23 8.15496 11.17C7.77496 10.79 7.51496 10.3 7.40496 9.76V9.67L7.45496 9.62C7.79496 9.31 8.06496 8.95 8.27496 8.54L8.40496 8.27L8.53496 8.53C8.71496 8.86 8.93496 9.16 9.20496 9.44H9.21496ZM8.78496 7.7L8.86496 7.64C9.28496 7.32 9.61496 6.89 9.84496 6.41L9.91496 6.26L10.055 6.34C10.395 6.53 10.765 6.67 11.155 6.75L11.285 6.78V6.91C11.235 7.68 11.055 8.77 10.415 9.48L10.335 9.57L10.225 9.51C9.99496 9.38 9.78496 9.22 9.59496 9.04C9.24496 8.69 8.98496 8.27 8.83496 7.79L8.80496 7.69L8.78496 7.7ZM8.03496 7.7C7.83496 8.49 7.34496 9.16 6.63496 9.57L6.53496 9.63L6.45496 9.54C5.76496 8.8 5.58496 7.64 5.52496 7.02V6.89L5.64496 6.87C6.08496 6.78 6.49496 6.62 6.89496 6.39L7.03496 6.31L7.10496 6.45C7.32496 6.87 7.62496 7.24 7.98496 7.56L8.05496 7.62L8.02496 7.71L8.03496 7.7ZM5.95496 13.44L5.85496 13.51L5.76496 13.44C5.71496 13.4 5.66496 13.36 5.61496 13.31C5.26496 12.96 5.02496 12.46 4.86496 11.99C4.70496 11.53 4.63496 11.11 4.60496 10.91V10.78L4.70496 10.74C5.15496 10.58 5.56496 10.3 5.89496 9.94L6.00496 9.82L6.33496 10.15C6.39496 10.2 6.49496 10.22 6.58496 10.19C6.64496 10.17 6.71496 10.14 6.78496 10.1L6.94496 10.02L6.99496 10.2C7.10496 10.58 7.27496 10.93 7.50496 11.26L7.53496 11.31V11.38C7.35496 12.3 6.27496 13.19 5.95496 13.44V13.44ZM10.295 13.65C10.125 14.02 9.50496 15.23 8.52496 15.43H8.48496H8.47496C8.13496 15.37 7.80496 15.18 7.47496 14.87C7.04496 14.45 6.75496 13.9 6.65496 13.69L6.60496 13.58L6.69496 13.51C7.21496 13.07 7.64496 12.5 7.93496 11.88L8.02496 11.69L8.17496 11.84C8.17496 11.84 8.25496 11.88 8.28496 11.9H8.31496C8.31496 11.9 8.38496 11.93 8.43496 11.93C8.50496 11.94 8.55496 11.93 8.60496 11.91C8.64496 11.88 8.69496 11.86 8.73496 11.84C8.75496 11.83 8.76496 11.82 8.78496 11.81L8.92496 11.72L8.99496 11.87C9.22496 12.36 9.54496 12.8 9.94496 13.17L10.345 13.56L10.295 13.65V13.65ZM12.265 10.78C12.215 11.61 11.895 12.8 11.185 13.37L11.145 13.41H11.035L10.995 13.38C10.765 13.21 10.535 13.02 10.325 12.82C9.96496 12.45 9.49496 11.89 9.35496 11.32L9.33496 11.25L9.37496 11.2C9.59496 10.87 9.75496 10.51 9.85496 10.12L9.90496 9.95L10.065 10.03C10.135 10.06 10.205 10.08 10.275 10.11C10.355 10.13 10.455 10.11 10.525 10.05C10.585 9.99 10.655 9.92 10.725 9.85L10.825 9.73L11.045 9.94C11.365 10.24 11.735 10.47 12.155 10.61L12.265 10.65V10.77V10.78ZM12.725 10.15L12.675 10.26L12.555 10.23C12.145 10.12 11.765 9.91 11.445 9.6C11.375 9.54 11.305 9.46 11.245 9.38L11.185 9.31L11.225 9.22C11.565 8.54 11.755 7.8 11.795 7.04V6.88L11.955 6.89C12.205 6.91 12.455 6.92 12.705 6.91H12.825L12.855 7.02C13.005 7.6 13.295 9.07 12.715 10.16L12.725 10.15ZM13.075 6.35C13.075 6.35 13.005 6.35 12.975 6.36C12.095 6.42 10.875 6.36 9.97496 5.67C9.91496 5.62 9.84496 5.61 9.77496 5.61C9.70496 5.62 9.63496 5.66 9.59496 5.71C9.57496 5.74 9.56496 5.76 9.55496 5.79C9.36496 6.33 9.03496 6.83 8.58496 7.21L8.49496 7.28L8.40496 7.22C8.31496 7.16 8.23496 7.09 8.16496 7.02C7.83496 6.67 7.58496 6.26 7.40496 5.81C7.37496 5.74 7.32496 5.69 7.26496 5.66C7.19496 5.63 7.12496 5.63 7.06496 5.65C7.03496 5.66 7.00496 5.68 6.98496 5.69C5.92496 6.52 4.42496 6.48 3.82496 6.42L3.60496 6.4L3.70496 6.21C4.81496 3.99 7.84496 3.57 8.44496 3.51C8.46496 3.5 8.49496 3.5 8.52496 3.5C9.06496 3.5 11.165 3.85 12.515 5.17C12.815 5.47 13.055 5.79 13.225 6.14L13.355 6.39L13.085 6.36L13.075 6.35Z" fill="black"/>
</svg>
