<svg width="21" height="17" viewBox="0 0 21 17" fill="none" xmlns="http://www.w3.org/2000/svg">
<path fill-rule="evenodd" clip-rule="evenodd" d="M19.8902 7.68999H1.71019L8.53018 0.859992C8.59275 0.800855 8.63864 0.726277 8.66321 0.643766C8.68779 0.561256 8.6902 0.473727 8.67019 0.389992C8.64908 0.296215 8.60239 0.210123 8.53531 0.141277C8.46823 0.0724308 8.38338 0.0235255 8.29018 -8.09319e-06C8.20645 -0.0200187 8.11892 -0.0176142 8.03641 0.00696329C7.9539 0.0315408 7.87932 0.0774237 7.82019 0.139992L0.150185 7.84999C0.0579358 7.94514 0.00634766 8.07246 0.00634766 8.20499C0.00634766 8.33752 0.0579358 8.46484 0.150185 8.55999L7.82019 16.26C7.86483 16.308 7.91904 16.3462 7.97931 16.372C8.03959 16.3979 8.10461 16.4108 8.17019 16.41H8.29018C8.3849 16.3828 8.47039 16.3303 8.53737 16.258C8.60435 16.1857 8.65028 16.0965 8.67019 16C8.6902 15.9163 8.68779 15.8287 8.66321 15.7462C8.63864 15.6637 8.59275 15.5891 8.53018 15.53L1.71019 8.70999H19.8902C20.0328 8.70795 20.1691 8.65058 20.2702 8.54999C20.3523 8.45163 20.3982 8.32809 20.4002 8.19999C20.4004 8.06977 20.3508 7.9444 20.2616 7.84957C20.1723 7.75475 20.0502 7.69765 19.9202 7.68999H19.8902Z" fill="white"/>
</svg>
