<svg width="21" height="17" viewBox="0 0 21 17" fill="none" xmlns="http://www.w3.org/2000/svg">
<path fill-rule="evenodd" clip-rule="evenodd" d="M19.8899 7.68999H1.70994L8.52994 0.859992C8.59251 0.800855 8.63839 0.726277 8.66297 0.643766C8.68755 0.561256 8.68995 0.473727 8.66994 0.389992C8.64884 0.296215 8.60215 0.210123 8.53507 0.141277C8.46799 0.0724308 8.38314 0.0235255 8.28994 -8.09319e-06C8.20621 -0.0200187 8.11868 -0.0176142 8.03617 0.00696329C7.95366 0.0315408 7.87908 0.0774237 7.81994 0.139992L0.149941 7.84999C0.0576916 7.94514 0.00610352 8.07246 0.00610352 8.20499C0.00610352 8.33752 0.0576916 8.46484 0.149941 8.55999L7.81994 16.26C7.86459 16.308 7.91879 16.3462 7.97907 16.372C8.03935 16.3979 8.10437 16.4108 8.16994 16.41H8.28994C8.38466 16.3828 8.47014 16.3303 8.53712 16.258C8.60411 16.1857 8.65004 16.0965 8.66994 16C8.68995 15.9163 8.68755 15.8287 8.66297 15.7462C8.63839 15.6637 8.59251 15.5891 8.52994 15.53L1.70994 8.70999H19.8899C20.0326 8.70795 20.1688 8.65058 20.2699 8.54999C20.352 8.45163 20.3979 8.32809 20.3999 8.19999C20.4002 8.06977 20.3506 7.9444 20.2613 7.84957C20.1721 7.75475 20.0499 7.69765 19.9199 7.68999H19.8899Z" fill="white"/>
</svg>
