<svg width="12" height="17" viewBox="0 0 12 17" fill="none" xmlns="http://www.w3.org/2000/svg">
<path fill-rule="evenodd" clip-rule="evenodd" d="M5.93995 0C5.33434 0.00264462 4.75443 0.245079 4.32713 0.674251C3.89984 1.10342 3.65994 1.68438 3.65995 2.29V2.92H2.33995C1.93906 2.92388 1.55423 3.07813 1.26163 3.3522C0.969039 3.62628 0.789998 4.00022 0.759949 4.4L-5.12879e-05 14.6C-0.017847 14.8063 0.00534825 15.0141 0.0681988 15.2114C0.131049 15.4087 0.232313 15.5917 0.366159 15.7497C0.500005 15.9077 0.663788 16.0377 0.848076 16.1321C1.03236 16.2266 1.23352 16.2836 1.43995 16.3H10.2999C10.5195 16.2998 10.7367 16.2545 10.938 16.1667C11.1393 16.079 11.3204 15.9507 11.4699 15.79C11.6188 15.6321 11.7323 15.4443 11.803 15.2391C11.8737 15.0339 11.8999 14.8161 11.8799 14.6L11.1299 4.4C11.1022 3.99938 10.9238 3.6241 10.6307 3.34957C10.3376 3.07503 9.95153 2.92156 9.54995 2.92H8.22995V2.29C8.22995 1.68265 7.98868 1.10018 7.55922 0.670725C7.12977 0.241267 6.54729 0 5.93995 0V0ZM4.37995 2.29C4.36267 2.07396 4.3903 1.85669 4.46111 1.65186C4.53191 1.44702 4.64436 1.25907 4.79138 1.09983C4.93839 0.940585 5.11678 0.813505 5.31531 0.726588C5.51384 0.639671 5.72822 0.5948 5.94495 0.5948C6.16167 0.5948 6.37605 0.639671 6.57459 0.726588C6.77312 0.813505 6.95151 0.940585 7.09852 1.09983C7.24553 1.25907 7.35798 1.44702 7.42879 1.65186C7.4996 1.85669 7.52723 2.07396 7.50995 2.29V2.92H4.37995V2.29ZM9.53995 3.64C9.7593 3.64405 9.96943 3.72897 10.13 3.87846C10.2906 4.02796 10.3903 4.23149 10.4099 4.45L11.1599 14.66C11.1679 14.7783 11.1516 14.897 11.1121 15.0088C11.0725 15.1205 11.0106 15.223 10.9299 15.31C10.8502 15.3973 10.7528 15.4665 10.6441 15.5131C10.5355 15.5596 10.4181 15.5825 10.2999 15.58H1.58995C1.4782 15.5787 1.36797 15.554 1.26635 15.5075C1.16473 15.461 1.07398 15.3937 0.999949 15.31C0.919342 15.223 0.85736 15.1205 0.817808 15.0088C0.778257 14.897 0.76197 14.7783 0.769949 14.66L1.47995 4.45C1.49963 4.23149 1.59933 4.02796 1.7599 3.87846C1.92047 3.72897 2.1306 3.64405 2.34995 3.64H3.65995V4.92C3.65995 5.01548 3.69788 5.10705 3.76539 5.17456C3.8329 5.24207 3.92447 5.28 4.01995 5.28C4.11543 5.28 4.20699 5.24207 4.27451 5.17456C4.34202 5.10705 4.37995 5.01548 4.37995 4.92V3.64H7.52995V4.92C7.52995 5.01548 7.56788 5.10705 7.63539 5.17456C7.7029 5.24207 7.79447 5.28 7.88995 5.28C7.98543 5.28 8.07699 5.24207 8.14451 5.17456C8.21202 5.10705 8.24995 5.01548 8.24995 4.92V3.64H9.53995Z" fill="black"/>
</svg>
