<svg width="19" height="25" viewBox="0 0 19 25" fill="none" xmlns="http://www.w3.org/2000/svg">
<path fill-rule="evenodd" clip-rule="evenodd" d="M6.49996 3.59001V0.44001C6.49735 0.325056 6.44984 0.215693 6.3676 0.135327C6.28537 0.0549619 6.17494 0.00998008 6.05996 0.0100098H2.84996C2.73498 0.00998008 2.62455 0.0549619 2.54232 0.135327C2.46008 0.215693 2.41257 0.325056 2.40996 0.44001V3.59001L0.00996071 12.01C0.0051433 12.0499 0.0051433 12.0902 0.00996071 12.13V22.92C0.00996071 23.2489 0.140603 23.5643 0.373148 23.7968C0.605693 24.0294 0.921092 24.16 1.24996 24.16H7.66996C7.99802 24.1574 8.3119 24.0259 8.54388 23.7939C8.77587 23.562 8.90735 23.2481 8.90996 22.92V12.08C8.91478 12.0402 8.91478 11.9999 8.90996 11.96L6.49996 3.59001ZM5.64996 3.77001L5.71996 4.01001H3.19996L3.26996 3.76001C3.27478 3.72015 3.27478 3.67986 3.26996 3.64001V2.48001H5.62996V3.65001C5.62664 3.69105 5.63351 3.73227 5.64996 3.77001ZM3.28996 1.61001V0.87001H5.62996V1.60001H3.28996V1.61001ZM8.00996 12.14V22.92C8.01 23.0164 7.97239 23.1091 7.90515 23.1782C7.83791 23.2473 7.74635 23.2874 7.64996 23.29H1.24996C1.15183 23.29 1.05772 23.251 0.988331 23.1816C0.918943 23.1122 0.879961 23.0181 0.879961 22.92V12.14L2.94996 4.89001H6.00996L8.00996 12.14ZM18.5 9.07001L17.7 7.47001C17.6621 7.3982 17.6062 7.33744 17.5379 7.29362C17.4696 7.24981 17.391 7.22445 17.31 7.22001H13.47L12.01 5.75001C11.9275 5.66818 11.8161 5.62226 11.7 5.62226C11.5838 5.62226 11.4724 5.66818 11.39 5.75001C11.3497 5.78997 11.3178 5.83749 11.2961 5.88984C11.2743 5.94218 11.2631 5.99832 11.2631 6.05501C11.2631 6.1117 11.2743 6.16784 11.2961 6.22018C11.3178 6.27253 11.3497 6.32005 11.39 6.36001L12.25 7.22001H10.88C10.7984 7.2224 10.719 7.24693 10.6503 7.29097C10.5816 7.33501 10.5262 7.39689 10.49 7.47001L9.68996 9.07001C9.67529 9.13587 9.67529 9.20415 9.68996 9.27001V22.92C9.6921 23.0332 9.73882 23.141 9.81996 23.22L10.62 24.02C10.6591 24.0629 10.7071 24.0967 10.7606 24.1192C10.8142 24.1416 10.872 24.1521 10.93 24.15H17.35C17.4513 24.1382 17.5443 24.0881 17.61 24.01L18.41 23.21C18.4911 23.131 18.5378 23.0232 18.54 22.91V9.27001C18.5421 9.20116 18.5284 9.13274 18.5 9.07001ZM17.67 22.15V22.74L17.12 23.28H11.06L10.51 22.74V22.15H17.67ZM10.51 10.01V9.37001L11.15 8.10001H17.01L17.65 9.37001V10.01H10.51ZM17.67 10.88V21.28H10.51V10.91L17.67 10.88Z" fill="black"/>
</svg>
