<svg width="115" height="20" viewBox="0 0 115 20" fill="none" xmlns="http://www.w3.org/2000/svg">
<path d="M13.0751 19.6588H22.778C22.9137 19.6588 22.972 19.6005 22.972 19.4655V16.8583C22.972 16.7425 22.9333 16.6649 22.778 16.6649H16.277V13.2853H21.4197C21.5554 13.2853 21.6137 13.227 21.6137 13.0918V10.5811C21.6137 10.465 21.575 10.3881 21.4197 10.3881H16.277V7.10499H22.778C22.9137 7.10499 22.9724 7.04695 22.9724 6.91152V4.40081C22.9724 4.28498 22.9333 4.20759 22.778 4.20759H13.0753C13.0491 4.2043 13.0225 4.20702 12.9975 4.21556C12.9725 4.22409 12.9498 4.2382 12.9311 4.25683C12.9123 4.27545 12.8981 4.2981 12.8895 4.32305C12.8808 4.348 12.8779 4.37459 12.8811 4.40081L12.8809 19.4655C12.8777 19.4918 12.8806 19.5183 12.8892 19.5433C12.8979 19.5682 12.9121 19.5909 12.9308 19.6095C12.9496 19.6281 12.9723 19.6423 12.9973 19.6508C13.0223 19.6593 13.0489 19.662 13.0751 19.6588Z" fill="white"/>
<path d="M3.5973 13.2444H7.09061C7.16848 13.2379 7.24683 13.2485 7.32022 13.2753C7.3936 13.3022 7.46028 13.3446 7.51562 13.3998C7.57097 13.455 7.61366 13.5215 7.64073 13.5948C7.66781 13.6681 7.67862 13.7464 7.67243 13.8243V16.2385C7.68359 16.3174 7.67622 16.3978 7.65089 16.4734C7.62555 16.5489 7.58296 16.6175 7.52649 16.6737C7.47002 16.7299 7.40122 16.7722 7.32556 16.7972C7.2499 16.8222 7.16946 16.8292 7.09061 16.8177H3.5973V13.2444ZM3.5973 7.16108H7.09061C7.16946 7.14951 7.24993 7.15649 7.32561 7.18147C7.40129 7.20644 7.4701 7.24872 7.52658 7.30495C7.58306 7.36117 7.62565 7.4298 7.65097 7.50536C7.67629 7.58093 7.68364 7.66136 7.67243 7.74026V9.96125C7.67243 10.3859 7.47849 10.5407 7.1097 10.5407H3.5973V7.16108ZM0.395379 4.26369C0.369178 4.26039 0.342571 4.26311 0.317579 4.27165C0.292587 4.28018 0.269869 4.29429 0.25115 4.31292C0.232431 4.33155 0.218203 4.35419 0.209548 4.37914C0.200894 4.40409 0.198039 4.43068 0.201202 4.4569V19.5216C0.198062 19.5478 0.200932 19.5744 0.209595 19.5994C0.218257 19.6243 0.232485 19.6469 0.251199 19.6656C0.269913 19.6842 0.292622 19.6983 0.317603 19.7068C0.342584 19.7154 0.369182 19.7181 0.395379 19.7148H7.57545C9.7298 19.7148 11.068 18.7301 11.068 16.2385V14.5967C11.068 13.1479 10.7771 12.3757 9.41907 11.8928C10.7387 11.5063 11.068 10.753 11.068 9.24662V7.74026C11.068 5.24842 9.7298 4.26368 7.57545 4.26368L0.395379 4.26369Z" fill="url(#paint0_linear_543_382)"/>
<path d="M25.1862 19.6587H34.8882C35.0243 19.6587 35.0826 19.6005 35.0826 19.4655V16.8583C35.0826 16.7425 35.0439 16.6649 34.8882 16.6649H28.3879V13.2852H33.5304C33.666 13.2852 33.7241 13.227 33.7241 13.0918V10.5811C33.7241 10.465 33.6851 10.3881 33.5304 10.3881H28.3879V7.10498H34.8882C35.0243 7.10498 35.0826 7.04694 35.0826 6.91152V4.4008C35.0826 4.28497 35.0439 4.20759 34.8882 4.20759H25.1862C25.1599 4.20422 25.1333 4.2069 25.1083 4.2154C25.0832 4.2239 25.0605 4.23801 25.0417 4.25665C25.023 4.27529 25.0087 4.29796 25.0001 4.32294C24.9914 4.34793 24.9886 4.37456 24.9918 4.4008V19.4655C24.9886 19.4918 24.9914 19.5184 25 19.5434C25.0087 19.5684 25.023 19.591 25.0417 19.6097C25.0605 19.6283 25.0832 19.6424 25.1083 19.6509C25.1333 19.6594 25.1599 19.6621 25.1862 19.6587Z" fill="white"/>
<path d="M44.5013 10.7744C44.5013 11.1991 44.288 11.3536 43.9192 11.3536H40.4262V7.10484H43.9192C44.288 7.10484 44.5013 7.25937 44.5013 7.68426V10.7744ZM48.1883 19.3689L46.0344 13.7876C47.3734 13.2271 47.8976 12.4549 47.8976 10.3882V7.49081C47.8198 5.13464 46.52 4.20745 44.4043 4.20745H37.2245C37.1983 4.20418 37.1716 4.20693 37.1466 4.21548C37.1216 4.22404 37.0989 4.23817 37.0801 4.25681C37.0614 4.27546 37.0472 4.29812 37.0385 4.32309C37.0298 4.34806 37.0269 4.37467 37.0301 4.40091V19.4654C37.0269 19.4917 37.0297 19.5183 37.0384 19.5433C37.0471 19.5683 37.0613 19.5909 37.0801 19.6096C37.0988 19.6283 37.1216 19.6424 37.1466 19.6509C37.1716 19.6595 37.1983 19.6622 37.2245 19.6589H40.2322C40.2584 19.6621 40.285 19.6594 40.31 19.6508C40.335 19.6422 40.3577 19.6281 40.3764 19.6095C40.3951 19.5908 40.4093 19.5681 40.4179 19.5432C40.4265 19.5182 40.4294 19.4916 40.4262 19.4654V14.2505H42.8511L44.6178 19.3689C44.7144 19.6589 44.812 19.6589 45.1034 19.6589H47.9944C48.0913 19.6589 48.2079 19.6199 48.2079 19.485C48.2082 19.4454 48.2016 19.4061 48.1883 19.3689" fill="white"/>
<path d="M0.187531 2.42758H10.1066C10.1317 2.42894 10.1568 2.4249 10.1802 2.41573C10.2036 2.40656 10.2247 2.39248 10.2422 2.37443C10.2597 2.35639 10.2731 2.3348 10.2815 2.31113C10.2899 2.28746 10.2932 2.26226 10.291 2.23723V0.83069C10.2906 0.610311 10.2027 0.399108 10.0468 0.243389C9.89085 0.0876695 9.67952 0.000142851 9.45914 2.99626e-08H0.832402C0.612209 -5.90337e-05 0.40098 0.0872058 0.245033 0.242658C0.0890864 0.398111 0.00115193 0.609063 0.000512455 0.829255V2.23723C-0.00140841 2.26243 0.00208471 2.28775 0.0107573 2.31149C0.0194299 2.33523 0.0330813 2.35684 0.0507949 2.37487C0.0685085 2.3929 0.0898745 2.40694 0.113458 2.41603C0.137042 2.42512 0.162298 2.42906 0.187531 2.42758Z" fill="white"/>
<path d="M76.2892 4.44733H65.894C65.8616 4.44428 65.829 4.4484 65.7983 4.4594C65.7677 4.4704 65.7399 4.48801 65.7168 4.51098C65.6938 4.53394 65.6761 4.5617 65.6649 4.59229C65.6538 4.62287 65.6496 4.65552 65.6525 4.68793V7.23043C65.6496 7.26283 65.6539 7.29547 65.665 7.32604C65.6761 7.35661 65.6938 7.38436 65.7169 7.40732C65.7399 7.43028 65.7677 7.44789 65.7983 7.4589C65.829 7.46991 65.8616 7.47405 65.894 7.47103H69.3724V19.4946C69.3694 19.527 69.3736 19.5597 69.3847 19.5902C69.3957 19.6208 69.4134 19.6486 69.4364 19.6716C69.4595 19.6946 69.4873 19.7123 69.5179 19.7233C69.5485 19.7343 69.5812 19.7385 69.6136 19.7355H72.5693C72.6018 19.7386 72.6345 19.7345 72.6652 19.7235C72.6959 19.7125 72.7238 19.6948 72.7469 19.6718C72.77 19.6488 72.7878 19.621 72.7989 19.5904C72.8101 19.5598 72.8144 19.5271 72.8115 19.4946V7.47103H76.2892C76.3217 7.47441 76.3545 7.47052 76.3853 7.45964C76.416 7.44876 76.444 7.43116 76.4671 7.40812C76.4902 7.38508 76.508 7.35718 76.519 7.32644C76.5299 7.29571 76.534 7.26291 76.5307 7.23043V4.68793C76.5336 4.65552 76.5294 4.62287 76.5183 4.59228C76.5072 4.5617 76.4894 4.53393 76.4664 4.51097C76.4433 4.488 76.4155 4.47039 76.3849 4.45939C76.3543 4.44839 76.3216 4.44427 76.2892 4.44733" fill="white"/>
<path d="M84.1651 17.0518H82.5437C82.3828 17.0744 82.2188 17.0595 82.0646 17.0081C81.9104 16.9568 81.7703 16.8703 81.6551 16.7557C81.54 16.641 81.4529 16.5012 81.4009 16.3473C81.3489 16.1933 81.3332 16.0294 81.3552 15.8684V8.29496C81.3331 8.13395 81.3487 7.97001 81.4008 7.81604C81.4528 7.66207 81.5398 7.52227 81.655 7.40761C81.7702 7.29296 81.9104 7.20658 82.0646 7.15526C82.2188 7.10395 82.3828 7.08909 82.5437 7.11187H84.1651C84.3256 7.09161 84.4885 7.10822 84.6415 7.16044C84.7945 7.21265 84.9337 7.29909 85.0482 7.41318C85.1628 7.52727 85.2499 7.666 85.3027 7.8188C85.3556 7.9716 85.3729 8.13446 85.3534 8.29496V15.8684C85.3754 16.0294 85.3597 16.1933 85.3077 16.3472C85.2557 16.5012 85.1687 16.641 85.0536 16.7556C84.9385 16.8703 84.7983 16.9567 84.6442 17.0081C84.49 17.0595 84.326 17.0744 84.1651 17.0518ZM87.4928 5.1834C86.6953 4.50597 85.5112 4.16272 83.9746 4.16272H82.7345C81.2079 4.16272 80.019 4.53404 79.2009 5.26461C78.3478 6.02748 77.9158 7.16771 77.9158 8.6551V15.8684C77.9158 17.2833 78.3632 18.3523 79.2462 19.0454C80.0537 19.6791 81.2275 20 82.7345 20H83.9746C85.482 20 86.6548 19.6791 87.4626 19.0454C88.3457 18.3523 88.7928 17.2833 88.7928 15.8684V8.57962C88.7928 7.05841 88.3559 5.91547 87.4928 5.18339" fill="white"/>
<path d="M98.6297 7.91534V10.9532C98.6297 11.3155 98.4739 11.471 98.1089 11.471H94.7263V7.3964H98.1089C98.4739 7.3964 98.6297 7.55157 98.6297 7.91534ZM100.253 13.9413C100.829 13.7373 101.318 13.3429 101.64 12.8231C101.976 12.1226 102.124 11.3468 102.069 10.5719V7.72334C101.996 5.51897 100.857 4.44727 98.5853 4.44727H91.5281C91.4957 4.44421 91.463 4.44833 91.4324 4.45932C91.4017 4.47032 91.3739 4.48792 91.3508 4.51088C91.3277 4.53384 91.31 4.5616 91.2988 4.59219C91.2877 4.62278 91.2834 4.65545 91.2863 4.68787V19.4945C91.2834 19.527 91.2877 19.5596 91.2988 19.5903C91.3099 19.6209 91.3277 19.6486 91.3507 19.6716C91.3738 19.6946 91.4017 19.7122 91.4323 19.7233C91.463 19.7343 91.4957 19.7385 91.5281 19.7354H94.4845C94.5169 19.7385 94.5496 19.7343 94.5803 19.7233C94.6109 19.7123 94.6388 19.6947 94.6619 19.6717C94.685 19.6487 94.7027 19.6209 94.7138 19.5903C94.725 19.5597 94.7292 19.527 94.7263 19.4945V14.4201H97.023L98.7465 19.4151C98.854 19.7354 98.9844 19.7354 99.2718 19.7354H102.113C102.274 19.7354 102.374 19.6503 102.374 19.5129C102.374 19.4679 102.367 19.4231 102.351 19.3807L100.253 13.9413Z" fill="white"/>
<path d="M114.144 4.45026H104.607C104.575 4.44719 104.543 4.45122 104.512 4.46208C104.482 4.47293 104.454 4.49034 104.431 4.51306C104.409 4.53578 104.391 4.56326 104.38 4.59354C104.369 4.62381 104.365 4.65614 104.368 4.68822V19.5C104.365 19.5321 104.369 19.5645 104.38 19.5947C104.391 19.625 104.409 19.6525 104.431 19.6753C104.454 19.698 104.482 19.7154 104.512 19.7263C104.543 19.7372 104.575 19.7413 104.607 19.7383H114.144C114.176 19.7433 114.209 19.7405 114.241 19.7303C114.272 19.7201 114.3 19.7027 114.323 19.6795C114.347 19.6563 114.364 19.628 114.374 19.5968C114.385 19.5656 114.388 19.5325 114.383 19.5V16.9367C114.388 16.9042 114.385 16.871 114.375 16.8397C114.364 16.8085 114.347 16.7801 114.324 16.7568C114.3 16.7336 114.272 16.7161 114.241 16.7058C114.21 16.6955 114.176 16.6926 114.144 16.6975H107.803V13.4719H112.809C112.841 13.4768 112.874 13.474 112.906 13.4637C112.937 13.4535 112.965 13.4361 112.988 13.4129C113.011 13.3897 113.029 13.3614 113.039 13.3302C113.049 13.2991 113.052 13.266 113.047 13.2336V10.7641C113.052 10.7317 113.049 10.6987 113.039 10.6676C113.029 10.6365 113.011 10.6082 112.988 10.5851C112.965 10.5619 112.937 10.5445 112.905 10.5343C112.874 10.5241 112.841 10.5213 112.809 10.5262H107.803V7.39504H114.144C114.176 7.40002 114.209 7.3973 114.241 7.38711C114.272 7.37693 114.3 7.35955 114.323 7.3364C114.347 7.31324 114.364 7.28495 114.374 7.2538C114.385 7.22266 114.388 7.18953 114.383 7.15708V4.68824C114.388 4.65579 114.385 4.62264 114.374 4.59146C114.364 4.56029 114.347 4.53198 114.323 4.50881C114.3 4.48564 114.272 4.46827 114.241 4.4581C114.209 4.44794 114.176 4.44526 114.144 4.45028" fill="white"/>
<path d="M60.7634 10.8011L58.2873 9.94737C57.4215 9.66107 57.0846 9.22257 57.0846 8.38392V8.29031C57.0625 8.12949 57.0781 7.96576 57.13 7.81197C57.1819 7.65818 57.2688 7.51852 57.3838 7.40397C57.4988 7.28942 57.6388 7.20311 57.7928 7.1518C57.9468 7.10049 58.1106 7.0856 58.2713 7.10829H59.9854C60.1461 7.08557 60.31 7.10044 60.464 7.15174C60.618 7.20303 60.758 7.28934 60.8731 7.40389C60.9881 7.51844 61.075 7.6581 61.127 7.81191C61.1789 7.96571 61.1945 8.12947 61.1724 8.29031V8.85836C61.1694 8.89074 61.1736 8.92338 61.1846 8.95396C61.1957 8.98454 61.2133 9.01231 61.2363 9.03529C61.2593 9.05828 61.2871 9.0759 61.3177 9.08693C61.3483 9.09795 61.381 9.10209 61.4133 9.09906H64.2701C64.3025 9.10209 64.3351 9.09795 64.3657 9.08693C64.3963 9.07591 64.4241 9.05828 64.4471 9.0353C64.4701 9.01231 64.4877 8.98454 64.4988 8.95396C64.5098 8.92338 64.514 8.89074 64.511 8.85836V8.55516C64.511 5.64057 62.8926 4.1629 59.6995 4.1629H58.4618C56.9333 4.1629 55.7436 4.53557 54.9267 5.27063C54.0799 6.03287 53.6503 7.16929 53.6503 8.65089C53.7086 11.2451 54.8301 12.0801 57.493 13.0776L59.9685 13.9292C60.8349 14.2373 61.1724 14.6758 61.1724 15.4939V15.8729C61.1944 16.0337 61.1788 16.1974 61.1269 16.3512C61.0749 16.505 60.988 16.6446 60.873 16.7591C60.758 16.8737 60.6179 16.9599 60.4639 17.0112C60.3099 17.0625 60.1461 17.0773 59.9854 17.0546H58.0814C57.9207 17.0774 57.7568 17.0625 57.6028 17.0113C57.4488 16.96 57.3087 16.8738 57.1937 16.7592C57.0786 16.6447 56.9917 16.5051 56.9397 16.3513C56.8877 16.1975 56.8721 16.0337 56.8941 15.8729V15.0197C56.897 14.9874 56.8928 14.9547 56.8818 14.9241C56.8707 14.8936 56.853 14.8658 56.8299 14.8429C56.8069 14.8199 56.7791 14.8023 56.7485 14.7913C56.7179 14.7804 56.6852 14.7763 56.6529 14.7793H53.7964C53.7641 14.7763 53.7314 14.7805 53.7009 14.7915C53.6703 14.8025 53.6425 14.8201 53.6195 14.843C53.5964 14.8659 53.5788 14.8937 53.5677 14.9242C53.5565 14.9548 53.5523 14.9874 53.5552 15.0197V15.5129C53.5552 17.0633 53.9875 18.2239 54.8394 18.9641C55.6425 19.6614 56.796 20 58.3667 20H59.7946C61.337 20 62.5209 19.6518 63.3149 18.9641C64.172 18.2224 64.6064 17.0612 64.6064 15.5129C64.6064 12.7034 63.5996 11.8361 60.7634 10.8011" fill="white"/>
<defs>
<linearGradient id="paint0_linear_543_382" x1="3.57496" y1="4.59582" x2="12.2559" y2="36.2557" gradientUnits="userSpaceOnUse">
<stop stop-color="#E28D29"/>
<stop offset="0.472137" stop-color="#FFE68F"/>
</linearGradient>
</defs>
</svg>
