<svg width="52" height="48" viewBox="0 0 52 48" fill="none" xmlns="http://www.w3.org/2000/svg">
<g clip-path="url(#clip0_2465_3647)">
<path d="M47.2356 7.52598H42.7385C42.7385 3.38652 39.3827 0.0307921 35.2433 0.0307921C33.6174 0.03409 32.0376 0.570701 30.7462 1.55828C29.4547 0.570701 27.8749 0.03409 26.2491 0.0307921C23.7879 -0.0605143 21.3335 0.343252 19.0312 1.21802C17.6186 0.296407 15.9365 -0.121915 14.2568 0.0307921C10.1193 0.0357389 6.76651 3.38853 6.76156 7.52598C6.76156 8.35392 7.43267 9.02502 8.2606 9.02502C9.08853 9.02502 9.75964 8.35392 9.75964 7.52598C9.75964 5.04229 11.7731 3.02887 14.2568 3.02887C16.2205 3.02887 17 3.24927 17.5951 3.97776C18.06 4.54556 18.8675 4.69343 19.5034 4.32708C21.6079 3.33685 23.9273 2.89054 26.2491 3.02887C27.5454 3.02969 28.7764 3.59832 29.6174 4.5849C29.6389 4.60768 29.661 4.62992 29.6839 4.65141C30.3073 5.23807 31.2883 5.20824 31.8749 4.5849C32.7159 3.59832 33.9469 3.02968 35.2433 3.02887C37.727 3.02887 39.7404 5.04229 39.7404 7.52598C39.7404 10.0097 37.727 12.0231 35.2433 12.0231C33.9469 12.0224 32.7159 11.4536 31.8749 10.4672C31.8534 10.4443 31.8313 10.422 31.8084 10.4006C31.185 9.81389 30.2041 9.84372 29.6174 10.4672C28.7764 11.4536 27.5454 12.0224 26.2491 12.0231C25.3069 12.0301 24.3654 11.9801 23.4294 11.8732C22.6373 11.8007 21.9265 12.3592 21.8098 13.146C21.6883 13.9649 22.2537 14.7273 23.0726 14.8488C24.127 14.9693 25.1877 15.0268 26.2491 15.0212C27.8749 15.0179 29.4547 14.4813 30.7462 13.4937C32.0376 14.4813 33.6175 15.0179 35.2433 15.0212C36.9386 15.0212 38.4847 14.4372 39.7404 13.4882V39.0058C39.7404 41.6231 37.5593 45.0019 35.2433 45.0019H13.8253C11.5093 45.0019 9.32815 41.6231 9.32815 39.0058V34.5087C9.32815 33.6808 8.65705 33.0096 7.82912 33.0096C7.00118 33.0096 6.33008 33.6808 6.33008 34.5087V39.0058C6.33008 43.1641 9.60548 48 13.8253 48H35.2433C39.4631 48 42.7385 43.1641 42.7385 39.0058V37.438C49.807 36.7745 51.7327 31.4267 51.7327 28.5125V12.0231C51.7352 11.9379 51.7352 11.8527 51.7327 11.7676C51.6622 9.3544 49.6486 7.45544 47.2356 7.52598ZM48.7346 28.502C48.7346 29.0663 48.4778 33.7159 42.7385 34.413V10.5241H47.2176C47.31 10.5142 47.4031 10.5136 47.4955 10.5224C48.2521 10.5947 48.8069 11.2665 48.7346 12.0231V28.502Z" fill="#231F20"/>
<path d="M26.2491 40.5048V19.5183C26.2491 18.6904 25.5779 18.0192 24.75 18.0192C23.9221 18.0192 23.251 18.6904 23.251 19.5183V40.5048C23.251 41.3327 23.9221 42.0038 24.75 42.0038C25.5779 42.0038 26.2491 41.3327 26.2491 40.5048Z" fill="#231F20"/>
<path d="M33.7442 40.5048V19.5183C33.7442 18.6904 33.0731 18.0192 32.2451 18.0192C31.4172 18.0192 30.7461 18.6904 30.7461 19.5183V40.5048C30.7461 41.3327 31.4172 42.0038 32.2451 42.0038C33.0731 42.0038 33.7442 41.3327 33.7442 40.5048Z" fill="#231F20"/>
<path d="M13.7462 25.2155L9.42917 20.8985L13.7462 16.5822C14.2849 16.042 14.345 15.1666 13.8692 14.5268L13.7462 14.3834C13.1402 13.7773 12.155 13.7773 11.5489 14.3834L7.23331 18.7026L2.91626 14.3856C2.34973 13.8198 1.28108 13.8227 0.72041 14.3856C0.114349 14.9909 0.114349 15.9768 0.72041 16.5822L5.03746 20.8985L0.72041 25.2155C0.426163 25.509 0.265137 25.8992 0.265137 26.3142C0.265137 26.7285 0.426163 27.1186 0.72041 27.4121C1.32647 28.0182 2.31021 28.0182 2.91626 27.4121L7.23331 23.0951L11.5504 27.4121V27.4128C11.8446 27.7056 12.234 27.8666 12.6483 27.8666C13.0626 27.8666 13.452 27.7056 13.7477 27.4114C14.039 27.1171 14.2 26.7277 14.2 26.3142C14.2 25.8999 14.039 25.5105 13.7462 25.2155Z" fill="black"/>
</g>
<defs>
<clipPath id="clip0_2465_3647">
<rect width="51.4694" height="48" fill="white" transform="translate(0.265137)"/>
</clipPath>
</defs>
</svg>
