<svg width="46" height="48" viewBox="0 0 46 48" fill="none" xmlns="http://www.w3.org/2000/svg">
<path d="M37.3247 15.255L28.3247 9.255C28.0798 9.09371 27.793 9.00775 27.4997 9.00775C27.2065 9.00775 26.9197 9.09371 26.6747 9.255L22.9997 11.7V9C22.9997 8.60218 22.8417 8.22064 22.5604 7.93934C22.2791 7.65804 21.8976 7.5 21.4997 7.5C21.1019 7.5 20.7204 7.65804 20.4391 7.93934C20.1578 8.22064 19.9997 8.60218 19.9997 9V13.695L17.6747 15.195C17.4908 15.2937 17.3295 15.4296 17.2011 15.5942C17.0728 15.7587 16.9801 15.9483 16.9292 16.1507C16.8782 16.353 16.8701 16.5639 16.9052 16.7696C16.9404 16.9753 17.0181 17.1714 17.1334 17.3454C17.2487 17.5194 17.399 17.6674 17.5748 17.78C17.7505 17.8925 17.9478 17.9672 18.1541 17.9991C18.3603 18.0311 18.571 18.0197 18.7726 17.9656C18.9741 17.9115 19.1622 17.8159 19.3247 17.685L19.9997 17.25V24C19.9997 24.3978 20.1578 24.7794 20.4391 25.0607C20.7204 25.342 21.1019 25.5 21.4997 25.5H33.4997C33.8976 25.5 34.2791 25.342 34.5604 25.0607C34.8417 24.7794 34.9997 24.3978 34.9997 24V17.31C35.4165 17.6893 35.9405 17.9303 36.4997 18C36.8202 17.9975 37.1315 17.8925 37.3879 17.7002C37.6443 17.508 37.8324 17.2387 37.9247 16.9318C38.0169 16.6249 38.0085 16.2965 37.9005 15.9947C37.7925 15.693 37.5908 15.4337 37.3247 15.255ZM31.9997 22.5H28.9997V21C28.9997 20.6022 28.8417 20.2206 28.5604 19.9393C28.2791 19.658 27.8976 19.5 27.4997 19.5C27.1019 19.5 26.7204 19.658 26.4391 19.9393C26.1578 20.2206 25.9997 20.6022 25.9997 21V22.5H22.9997V15.3L27.4997 12.3L31.9997 15.3V22.5Z" fill="black"/>
<path d="M41 0H14C12.8065 0 11.6619 0.474106 10.818 1.31802C9.97411 2.16193 9.5 3.30653 9.5 4.5V13.5C9.5 13.8978 9.65804 14.2794 9.93934 14.5607C10.2206 14.842 10.6022 15 11 15C11.3978 15 11.7794 14.842 12.0607 14.5607C12.342 14.2794 12.5 13.8978 12.5 13.5V4.5C12.5 4.10218 12.658 3.72064 12.9393 3.43934C13.2206 3.15804 13.6022 3 14 3H41C41.3978 3 41.7794 3.15804 42.0607 3.43934C42.342 3.72064 42.5 4.10218 42.5 4.5V42C42.5 42.7957 42.1839 43.5587 41.6213 44.1213C41.0587 44.6839 40.2957 45 39.5 45H11.66C12.2053 44.094 12.4956 43.0574 12.5 42V19.5C12.5 19.1022 12.342 18.7206 12.0607 18.4393C11.7794 18.158 11.3978 18 11 18C10.6022 18 10.2206 18.158 9.93934 18.4393C9.65804 18.7206 9.5 19.1022 9.5 19.5V31.5H5C3.80653 31.5 2.66193 31.9741 1.81802 32.818C0.974106 33.6619 0.5 34.8065 0.5 36V42C0.5 43.5913 1.13214 45.1174 2.25736 46.2426C3.38258 47.3679 4.9087 48 6.5 48H39.5C41.0913 48 42.6174 47.3679 43.7426 46.2426C44.8679 45.1174 45.5 43.5913 45.5 42V4.5C45.5 3.30653 45.0259 2.16193 44.182 1.31802C43.3381 0.474106 42.1935 0 41 0V0ZM3.5 42V36C3.5 35.6022 3.65804 35.2206 3.93934 34.9393C4.22064 34.658 4.60218 34.5 5 34.5H9.5V42C9.5 42.7957 9.18393 43.5587 8.62132 44.1213C8.05871 44.6839 7.29565 45 6.5 45C5.70435 45 4.94129 44.6839 4.37868 44.1213C3.81607 43.5587 3.5 42.7957 3.5 42Z" fill="black"/>
<path d="M18.5 33H36.5C36.8978 33 37.2794 32.842 37.5607 32.5607C37.842 32.2794 38 31.8978 38 31.5C38 31.1022 37.842 30.7206 37.5607 30.4393C37.2794 30.158 36.8978 30 36.5 30H18.5C18.1022 30 17.7206 30.158 17.4393 30.4393C17.158 30.7206 17 31.1022 17 31.5C17 31.8978 17.158 32.2794 17.4393 32.5607C17.7206 32.842 18.1022 33 18.5 33Z" fill="black"/>
<path d="M18.5 40.5H36.5C36.8978 40.5 37.2794 40.342 37.5607 40.0607C37.842 39.7794 38 39.3978 38 39C38 38.6022 37.842 38.2206 37.5607 37.9393C37.2794 37.658 36.8978 37.5 36.5 37.5H18.5C18.1022 37.5 17.7206 37.658 17.4393 37.9393C17.158 38.2206 17 38.6022 17 39C17 39.3978 17.158 39.7794 17.4393 40.0607C17.7206 40.342 18.1022 40.5 18.5 40.5Z" fill="black"/>
</svg>
