<svg width="5" height="14" viewBox="0 0 5 14" fill="none" xmlns="http://www.w3.org/2000/svg">
<path fill-rule="evenodd" clip-rule="evenodd" d="M4.43282 5.70529L4.03864 5.03159C3.92488 4.8365 3.85304 4.6184 3.82797 4.3921L3.46758 1.12148C3.58672 1.00509 3.65788 0.84574 3.66627 0.676536C3.67466 0.507331 3.61963 0.341294 3.51263 0.212934C3.45699 0.146494 3.38824 0.0931186 3.311 0.0563936C3.23376 0.0196687 3.14981 0.000440211 3.06479 0H1.83323C1.75275 0.00133778 1.67331 0.0190411 1.59946 0.0521103C1.52561 0.0851795 1.45878 0.132964 1.4028 0.192729C1.34681 0.252493 1.30277 0.32306 1.27318 0.400418C1.2436 0.477776 1.22905 0.560415 1.23036 0.643585C1.22983 0.7333 1.2472 0.822155 1.2814 0.904618C1.31559 0.98708 1.36588 1.06137 1.42911 1.12284L1.06872 4.39348C1.04365 4.61978 0.971803 4.83786 0.858045 5.03295L0.463865 5.70667C0.158999 6.23016 -0.00137684 6.82992 0.00012516 7.44091V12.9182C-0.00412767 13.2004 0.10015 13.4728 0.290065 13.6757C0.479981 13.8785 0.740011 13.9951 1.01307 14H3.88693C4.15999 13.9951 4.42002 13.8785 4.60994 13.6757C4.79985 13.4728 4.90413 13.2004 4.89987 12.9182V7.44091C4.90062 6.82913 4.73908 6.22883 4.43282 5.70529ZM1.83323 0.410781H3.06412C3.12184 0.414015 3.17616 0.440003 3.2159 0.483368C3.25565 0.526733 3.2778 0.584188 3.2778 0.64392C3.2778 0.703652 3.25565 0.761106 3.2159 0.804471C3.17616 0.847837 3.12184 0.873804 3.06412 0.877037H1.83323C1.77551 0.873804 1.72119 0.847837 1.68145 0.804471C1.6417 0.761106 1.61955 0.703652 1.61955 0.64392C1.61955 0.584188 1.6417 0.526733 1.68145 0.483368C1.72119 0.440003 1.77551 0.414015 1.83323 0.410781ZM0.383704 10.0522H1.83323C1.88594 10.0522 1.93649 10.0306 1.97376 9.99206C2.01103 9.95354 2.03197 9.9013 2.03197 9.84682C2.03197 9.79235 2.01103 9.74011 1.97376 9.70159C1.93649 9.66307 1.88594 9.64143 1.83323 9.64143H0.384367V9.17518H0.807696C0.860407 9.17518 0.910958 9.15352 0.94823 9.115C0.985503 9.07648 1.00644 9.02424 1.00644 8.96977C1.00644 8.91529 0.985503 8.86305 0.94823 8.82453C0.910958 8.78601 0.860407 8.76438 0.807696 8.76438H0.384367V7.86061H2.44934C2.50808 7.86169 2.56402 7.88681 2.60488 7.93044C2.64573 7.97408 2.66818 8.03268 2.6673 8.0934V11.5996C2.66818 11.6603 2.64573 11.7189 2.60488 11.7625C2.56402 11.8062 2.50808 11.8313 2.44934 11.8323H0.384367V10.0522H0.383704ZM4.51431 12.9141C4.51697 13.0892 4.45224 13.2583 4.33435 13.3841C4.21646 13.5099 4.05505 13.5822 3.88561 13.5851H1.0124C0.842961 13.5822 0.681557 13.5099 0.563667 13.3841C0.445777 13.2583 0.381047 13.0892 0.383704 12.9141V12.2425H2.44868C2.61115 12.2396 2.76588 12.1702 2.87891 12.0495C2.99193 11.9289 3.05402 11.7668 3.05154 11.5989V8.0934C3.05402 7.92541 2.99195 7.76327 2.87895 7.6425C2.76594 7.52173 2.61121 7.45218 2.44868 7.44912H0.383704V7.43886C0.383104 6.90419 0.523996 6.37953 0.791134 5.92165L1.18531 5.24862C1.32856 5.00152 1.41893 4.72557 1.45031 4.43934L1.79811 1.28648H3.09857L3.44638 4.43934C3.47772 4.72558 3.56809 5.00154 3.71137 5.24862L4.10357 5.92096C4.37083 6.37878 4.51173 6.90348 4.511 7.43817L4.51431 12.9141ZM1.83323 10.5178H1.42248C1.36977 10.5178 1.31922 10.5394 1.28195 10.578C1.24468 10.6165 1.22374 10.6687 1.22374 10.7232C1.22374 10.7777 1.24468 10.8299 1.28195 10.8684C1.31922 10.9069 1.36977 10.9286 1.42248 10.9286H1.83323C1.88594 10.9286 1.93649 10.9069 1.97376 10.8684C2.01103 10.8299 2.03197 10.7777 2.03197 10.7232C2.03197 10.6687 2.01103 10.6165 1.97376 10.578C1.93649 10.5394 1.88594 10.5178 1.83323 10.5178ZM3.10984 4.96381C3.06286 4.81131 3.03025 4.65447 3.01245 4.49549C3.01037 4.46902 3.00323 4.44325 2.99147 4.41964C2.9797 4.39603 2.96352 4.37506 2.94388 4.35794C2.92424 4.34082 2.90151 4.32789 2.87701 4.31989C2.85251 4.31189 2.82671 4.30898 2.80112 4.31132C2.74963 4.31818 2.70278 4.34558 2.67059 4.38767C2.6384 4.42977 2.62343 4.48321 2.62887 4.53656V4.54342C2.64948 4.72934 2.68742 4.91278 2.74216 5.09116C2.74886 5.1165 2.7604 5.14018 2.77609 5.16084C2.79178 5.18151 2.81131 5.19872 2.83353 5.21147C2.85575 5.22423 2.8802 5.23227 2.90547 5.23512C2.93073 5.23798 2.95629 5.23558 2.98065 5.22808C3.03076 5.21225 3.0728 5.17662 3.09762 5.12892C3.12243 5.08122 3.12801 5.02531 3.11315 4.97338L3.10917 4.96107L3.10984 4.96381ZM2.03793 12.7094H1.0124C0.959694 12.7094 0.909141 12.731 0.871869 12.7696C0.834597 12.8081 0.813658 12.8603 0.813658 12.9148C0.813658 12.9693 0.834597 13.0215 0.871869 13.06C0.909141 13.0986 0.959694 13.1202 1.0124 13.1202H2.04058C2.06673 13.12 2.09258 13.1145 2.11667 13.104C2.14075 13.0935 2.1626 13.0782 2.18096 13.059C2.19933 13.0397 2.21384 13.017 2.22369 12.9919C2.23353 12.9669 2.23851 12.9401 2.23834 12.9131C2.23816 12.8861 2.23284 12.8593 2.22267 12.8345C2.21251 12.8096 2.1977 12.787 2.17909 12.768C2.16048 12.749 2.13844 12.734 2.11422 12.7239C2.09 12.7137 2.06408 12.7085 2.03793 12.7087V12.7094ZM3.2695 12.7094H2.85875C2.80604 12.7094 2.75549 12.731 2.71822 12.7696C2.68095 12.8081 2.66001 12.8603 2.66001 12.9148C2.66001 12.9693 2.68095 13.0215 2.71822 13.06C2.75549 13.0986 2.80604 13.1202 2.85875 13.1202H3.27215C3.32486 13.1202 3.37541 13.0986 3.41268 13.06C3.44995 13.0215 3.47089 12.9693 3.47089 12.9148C3.47089 12.8603 3.44995 12.8081 3.41268 12.7696C3.37541 12.731 3.32486 12.7094 3.27215 12.7094H3.2695ZM3.43247 5.65121C3.41875 5.62938 3.40096 5.6106 3.38012 5.59599C3.35928 5.58138 3.33583 5.57123 3.31114 5.56613C3.28644 5.56103 3.26101 5.56107 3.23634 5.56628C3.21167 5.57148 3.18825 5.58173 3.16747 5.59643C3.12673 5.62656 3.09819 5.67117 3.08731 5.72171C3.07643 5.77225 3.08398 5.82515 3.10851 5.87029L3.41259 6.38928C3.59801 6.70682 3.69584 7.07072 3.69548 7.4416V7.65727C3.69394 7.68437 3.69777 7.71151 3.70675 7.73702C3.71572 7.76254 3.72965 7.78589 3.74767 7.80564C3.76569 7.82539 3.78743 7.84113 3.81155 7.85188C3.83567 7.86264 3.86166 7.86818 3.88793 7.86818C3.91419 7.86818 3.94019 7.86264 3.96431 7.85188C3.98842 7.84113 4.01016 7.82539 4.02818 7.80564C4.0462 7.78589 4.06013 7.76254 4.06911 7.73702C4.07808 7.71151 4.08192 7.68437 4.08038 7.65727V7.43886C4.08106 6.99125 3.96306 6.55199 3.7392 6.1688L3.43247 5.65121Z" fill="black"/>
</svg>
