<svg width="14" height="42" viewBox="0 0 14 42" fill="none" xmlns="http://www.w3.org/2000/svg">
<path fill-rule="evenodd" clip-rule="evenodd" d="M13.459 15.377C13.459 13.936 11.346 11.394 10.438 10.368L10.404 10.33L10.089 6.22997L9.78904 2.94902L9.88904 2.89898C10.1231 2.79183 10.3223 2.62098 10.4637 2.40593C10.6052 2.19089 10.6833 1.94032 10.689 1.68297V1.39501C10.6896 1.21157 10.6537 1.02983 10.5833 0.860401C10.513 0.690971 10.4097 0.537222 10.2795 0.40807C10.1492 0.278917 9.99455 0.176935 9.82452 0.108082C9.65449 0.039229 9.47247 0.0048861 9.28904 0.0070076H4.28904C3.91986 -0.00489973 3.56093 0.129537 3.29046 0.381092C3.01999 0.632647 2.85989 0.980891 2.84504 1.34996V1.66698C2.85483 1.92054 2.9348 2.16644 3.07604 2.37725C3.21729 2.58805 3.41426 2.75552 3.64504 2.86101L3.74504 2.911L3.05704 10.335L3.02404 10.373C2.31504 11.173 0.00203948 13.902 0.00203948 15.381V38.893C-0.0233332 39.2558 0.0310701 39.6197 0.161421 39.9592C0.291773 40.2987 0.494908 40.6056 0.756548 40.8581C1.01819 41.1107 1.33198 41.3029 1.67586 41.4213C2.01975 41.5396 2.38538 41.5811 2.74704 41.543H10.728C12.446 41.543 13.473 40.553 13.473 38.513L13.459 15.377ZM4.11804 1.135H9.46004V1.83501H4.09404L4.11804 1.135ZM8.79004 5.713H4.70004L4.93204 2.91301H8.57604L8.79004 5.713ZM4.10004 10.867C4.18892 10.7697 4.24369 10.6462 4.25604 10.515L4.61104 6.80901H8.88004L9.23404 10.509C9.24581 10.6411 9.30102 10.7656 9.39104 10.863C10.62 12.195 12.441 14.613 12.441 15.563L12.42 22.04H10.966C10.495 21.3544 9.86427 20.7938 9.12819 20.4064C8.39211 20.0191 7.57282 19.8166 6.74104 19.8166C5.90926 19.8166 5.08997 20.0191 4.35389 20.4064C3.61781 20.7938 2.98704 21.3544 2.51604 22.04H1.04204V15.563C1.04204 14.579 2.91904 12.163 4.10304 10.863L4.10004 10.867ZM12.416 30.271H11.516C12.0286 29.3299 12.3354 28.2906 12.416 27.222V30.271ZM12.416 23.23V25.93C12.3392 24.9149 12.0589 23.9256 11.592 23.021H12.417V23.221L12.416 23.23ZM11.441 26.576C11.441 29.759 9.33204 32.349 6.74104 32.349C4.15004 32.349 2.04104 29.759 2.04104 26.576C2.04104 23.393 4.15004 20.802 6.74104 20.802C9.33204 20.802 11.441 23.392 11.441 26.576ZM1.04104 23.025H1.88804C1.35277 24.0645 1.06301 25.213 1.04104 26.382V23.025ZM1.04104 26.76C1.06221 27.9877 1.37954 29.1922 1.96604 30.271H1.04204V26.76H1.04104ZM10.714 40.492H2.74004C2.51619 40.5297 2.28665 40.5148 2.06951 40.4487C1.85237 40.3825 1.65356 40.2668 1.48874 40.1107C1.32393 39.9546 1.19761 39.7624 1.11975 39.5492C1.04188 39.336 1.0146 39.1076 1.04004 38.882V31.258H2.63004C3.1039 31.9025 3.72272 32.4265 4.43652 32.7877C5.15032 33.1489 5.93907 33.337 6.73904 33.337C7.53901 33.337 8.32776 33.1489 9.04156 32.7877C9.75536 32.4265 10.3742 31.9025 10.848 31.258H12.413V38.892C12.4398 39.1175 12.4133 39.346 12.3357 39.5594C12.2582 39.7727 12.1316 39.9649 11.9663 40.1205C11.801 40.2761 11.6015 40.3907 11.3838 40.4552C11.1662 40.5198 10.9364 40.5323 10.713 40.492" fill="black"/>
</svg>
