<svg width="17" height="41" viewBox="0 0 17 41" fill="none" xmlns="http://www.w3.org/2000/svg">
<path fill-rule="evenodd" clip-rule="evenodd" d="M13.5854 31.1393C18.584 25.0243 16.9549 14.4866 15.7609 6.76951C15.3794 4.71251 15.1326 2.62732 15.0222 0.530405C15.025 0.460898 15.015 0.391493 14.9927 0.326499C14.9704 0.261504 14.9364 0.202308 14.8928 0.152584C14.8491 0.102859 14.7968 0.0636686 14.739 0.0374441C14.6812 0.0112197 14.6192 -0.00147881 14.5568 0.000136926H2.4143C2.30258 0.0168345 2.20038 0.0791466 2.12748 0.175016C2.05458 0.270885 2.01617 0.393496 2.01967 0.519122C1.89189 2.62106 1.62812 4.70995 1.23041 6.76951C0.0465202 14.5205 -1.5826 25.0356 3.41606 31.1393L2.6268 39.24C2.61312 39.69 2.75977 40.1277 3.0347 40.4575C3.30964 40.7873 3.69049 40.9824 4.09401 41H12.8973C13.3008 40.9824 13.6817 40.7873 13.9566 40.4575C14.2316 40.1277 14.3782 39.69 14.3645 39.24L13.5854 31.1393ZM2.16134 6.98388C2.50375 5.0183 2.75034 3.03346 2.9 1.03811H14.1014C14.194 2.51444 14.3629 3.98358 14.6074 5.4382H5.87491C5.75051 5.43817 5.63106 5.49249 5.54215 5.58951C5.45325 5.68652 5.40198 5.81852 5.39933 5.95719C5.39933 6.09483 5.44837 6.22684 5.53566 6.32417C5.62295 6.4215 5.74134 6.47617 5.86479 6.47617H14.7693C14.7693 6.63413 14.7693 6.7808 14.8401 6.93875C16.0038 14.5205 17.6126 24.9002 12.7557 30.6316C12.7095 30.6849 12.6747 30.749 12.6537 30.8193C12.6326 30.8896 12.626 30.9642 12.6342 31.0377L13.2717 37.6717H3.71962L4.3571 31.0377C4.36533 30.9642 4.35869 30.8896 4.33768 30.8193C4.31667 30.749 4.28181 30.6849 4.23568 30.6316C-0.611197 24.9114 1.0078 14.5543 2.15122 6.98388H2.16134ZM12.8973 40.0184H4.09401C3.94287 39.9986 3.80423 39.9151 3.70643 39.7851C3.60863 39.6551 3.55906 39.4883 3.56784 39.3189L3.62855 38.6871H13.3729L13.4336 39.3189C13.4424 39.4883 13.3928 39.6551 13.295 39.7851C13.1972 39.9151 13.0586 39.9986 12.9074 40.0184H12.8973ZM5.11601 34.8399C5.10753 34.9075 5.11136 34.9763 5.12729 35.0422C5.14321 35.1081 5.17089 35.1698 5.20867 35.2235C5.24646 35.2772 5.29357 35.3219 5.34719 35.3548C5.40082 35.3878 5.45985 35.4083 5.52076 35.4153H5.58147C5.69699 35.4223 5.81074 35.3812 5.90054 35.2999C5.99033 35.2185 6.04974 35.1028 6.06717 34.9753L6.54275 29.8982C6.55172 29.8247 6.54544 29.7498 6.52439 29.6794C6.50334 29.609 6.46808 29.5449 6.42132 29.4921C1.55421 23.7607 3.03155 14.543 4.21544 6.98388C4.41781 5.66385 4.61007 4.4228 4.75173 3.31713C4.76068 3.1805 4.72285 3.04516 4.64586 2.93839C4.56888 2.83162 4.45847 2.76135 4.33686 2.74173C4.21684 2.72844 4.09677 2.76649 4.00095 2.84818C3.90514 2.92988 3.84075 3.04911 3.82081 3.18174C3.67915 4.30997 3.49701 5.5059 3.29463 6.81464C2.10062 14.5092 0.582814 23.896 5.57135 29.9998L5.11601 34.8399Z" fill="black"/>
</svg>
