<svg width="8" height="21" viewBox="0 0 8 21" fill="none" xmlns="http://www.w3.org/2000/svg">
<path fill-rule="evenodd" clip-rule="evenodd" d="M6.68582 8.33102L6.09082 7.34705C5.9191 7.0621 5.81065 6.74355 5.77282 6.41302L5.22882 1.63605C5.40865 1.46606 5.51606 1.23331 5.52873 0.986176C5.54139 0.73904 5.45833 0.496532 5.29682 0.309052C5.21283 0.212011 5.10905 0.134053 4.99246 0.0804138C4.87587 0.0267744 4.74915 -0.00131017 4.62082 -0.00195312H2.76182C2.64034 8.03731e-07 2.52044 0.0258578 2.40896 0.0741577C2.29748 0.122458 2.1966 0.192251 2.1121 0.279541C2.02759 0.366831 1.96112 0.469899 1.91646 0.582886C1.8718 0.695873 1.84983 0.816572 1.85182 0.938049C1.85101 1.06908 1.87724 1.19886 1.92885 1.31931C1.98047 1.43975 2.05637 1.54825 2.15182 1.63803L1.60782 6.41504C1.56998 6.74556 1.46153 7.06409 1.28982 7.34903L0.694817 8.33304C0.234632 9.09764 -0.00744939 9.97363 -0.00518217 10.866V18.866C-0.0116017 19.2782 0.145802 19.6761 0.432472 19.9723C0.719143 20.2686 1.11165 20.4389 1.52382 20.446H5.86182C6.27398 20.4389 6.66649 20.2686 6.95316 19.9723C7.23983 19.6761 7.39724 19.2782 7.39082 18.866V10.866C7.39194 9.97247 7.14811 9.0957 6.68582 8.33102ZM2.76182 0.598022H4.61982C4.70693 0.602745 4.78893 0.640702 4.84892 0.704041C4.90892 0.767379 4.94236 0.851294 4.94236 0.938538C4.94236 1.02578 4.90892 1.1097 4.84892 1.17303C4.78893 1.23637 4.70693 1.2743 4.61982 1.27902H2.76182C2.6747 1.2743 2.59271 1.23637 2.53271 1.17303C2.47271 1.1097 2.43928 1.02578 2.43928 0.938538C2.43928 0.851294 2.47271 0.767379 2.53271 0.704041C2.59271 0.640702 2.6747 0.602745 2.76182 0.598022ZM0.573816 14.68H2.76182C2.84138 14.68 2.91769 14.6484 2.97395 14.5922C3.03021 14.5359 3.06182 14.4596 3.06182 14.38C3.06182 14.3005 3.03021 14.2242 2.97395 14.1679C2.91769 14.1116 2.84138 14.08 2.76182 14.08H0.574818V13.399H1.21382C1.29338 13.399 1.36969 13.3674 1.42595 13.3112C1.48221 13.2549 1.51382 13.1786 1.51382 13.099C1.51382 13.0195 1.48221 12.9432 1.42595 12.8869C1.36969 12.8306 1.29338 12.799 1.21382 12.799H0.574818V11.479H3.69182C3.78049 11.4806 3.86492 11.5173 3.9266 11.581C3.98827 11.6448 4.02215 11.7304 4.02082 11.819V16.94C4.02215 17.0287 3.98827 17.1143 3.9266 17.178C3.86492 17.2418 3.78049 17.2785 3.69182 17.28H0.574818V14.68H0.573816ZM6.80882 18.86C6.81283 19.1158 6.71512 19.3627 6.53717 19.5465C6.35922 19.7302 6.11559 19.8358 5.85982 19.84H1.52282C1.26705 19.8358 1.02342 19.7302 0.845465 19.5465C0.667514 19.3627 0.569806 19.1158 0.573816 18.86V17.879H3.69082C3.93607 17.8748 4.16963 17.7735 4.34024 17.5973C4.51085 17.421 4.60456 17.1843 4.60082 16.939V11.819C4.60457 11.5737 4.51088 11.3369 4.3403 11.1605C4.16972 10.9841 3.93616 10.8825 3.69082 10.878H0.573816V10.863C0.57291 10.0821 0.785582 9.3158 1.18882 8.64703L1.78382 7.66403C2.00005 7.30313 2.13645 6.90007 2.18382 6.48203L2.70882 1.87704H4.67182L5.19682 6.48203C5.24413 6.90009 5.38053 7.30315 5.59682 7.66403L6.18882 8.64603C6.59224 9.31471 6.80493 10.0811 6.80382 10.862L6.80882 18.86ZM2.76182 15.36H2.14182C2.06225 15.36 1.98595 15.3916 1.92969 15.4479C1.87342 15.5042 1.84182 15.5805 1.84182 15.66C1.84182 15.7396 1.87342 15.8159 1.92969 15.8722C1.98595 15.9284 2.06225 15.96 2.14182 15.96H2.76182C2.84138 15.96 2.91769 15.9284 2.97395 15.8722C3.03021 15.8159 3.06182 15.7396 3.06182 15.66C3.06182 15.5805 3.03021 15.5042 2.97395 15.4479C2.91769 15.3916 2.84138 15.36 2.76182 15.36ZM4.68882 7.24805C4.61791 7.02531 4.56869 6.79623 4.54182 6.56403C4.53867 6.52537 4.5279 6.48773 4.51014 6.45325C4.49238 6.41877 4.46796 6.38813 4.43831 6.36313C4.40866 6.33812 4.37436 6.31924 4.33737 6.30756C4.30039 6.29587 4.26145 6.29162 4.22282 6.29504C4.14509 6.30506 4.07438 6.34507 4.02579 6.40656C3.9772 6.46804 3.9546 6.54609 3.96282 6.62402V6.63403C3.99392 6.90558 4.05119 7.17351 4.13382 7.43405C4.14394 7.47105 4.16136 7.50565 4.18504 7.53583C4.20873 7.56601 4.2382 7.59114 4.27174 7.60977C4.30528 7.6284 4.34219 7.64015 4.38033 7.64432C4.41847 7.64848 4.45705 7.64498 4.49382 7.63403C4.56946 7.61092 4.63292 7.55886 4.67037 7.4892C4.70783 7.41953 4.71625 7.33787 4.69382 7.26202L4.68782 7.24405L4.68882 7.24805ZM3.07082 18.561H1.52282C1.44325 18.561 1.36695 18.5926 1.31068 18.6489C1.25442 18.7052 1.22282 18.7815 1.22282 18.861C1.22282 18.9406 1.25442 19.0169 1.31068 19.0732C1.36695 19.1294 1.44325 19.161 1.52282 19.161H3.07482C3.11428 19.1608 3.15331 19.1527 3.18966 19.1374C3.22602 19.122 3.259 19.0997 3.28672 19.0716C3.31443 19.0435 3.33635 19.0103 3.35121 18.9737C3.36607 18.9371 3.37358 18.898 3.37332 18.8586C3.37305 18.8191 3.36502 18.78 3.34968 18.7437C3.33433 18.7073 3.31198 18.6744 3.28389 18.6466C3.2558 18.6189 3.22253 18.597 3.18597 18.5822C3.14941 18.5673 3.11028 18.5598 3.07082 18.56V18.561ZM4.92982 18.561H4.30982C4.23025 18.561 4.15395 18.5926 4.09769 18.6489C4.04143 18.7052 4.00982 18.7815 4.00982 18.861C4.00982 18.9406 4.04143 19.0169 4.09769 19.0732C4.15395 19.1294 4.23025 19.161 4.30982 19.161H4.93382C5.01338 19.161 5.08969 19.1294 5.14595 19.0732C5.20221 19.0169 5.23382 18.9406 5.23382 18.861C5.23382 18.7815 5.20221 18.7052 5.14595 18.6489C5.08969 18.5926 5.01338 18.561 4.93382 18.561H4.92982ZM5.17582 8.25204C5.15512 8.22016 5.12825 8.19273 5.0968 8.17139C5.06535 8.15004 5.02994 8.13523 4.99267 8.12778C4.9554 8.12032 4.91701 8.12039 4.87977 8.12799C4.84253 8.13559 4.80719 8.15056 4.77582 8.17203C4.71432 8.21604 4.67124 8.2812 4.65481 8.35501C4.63839 8.42882 4.64978 8.50609 4.68682 8.57202L5.14582 9.33005C5.4257 9.79383 5.57336 10.3253 5.57282 10.867V11.182C5.5705 11.2216 5.57628 11.2613 5.58983 11.2985C5.60338 11.3358 5.6244 11.3699 5.65161 11.3987C5.67881 11.4276 5.71162 11.4506 5.74803 11.4663C5.78443 11.482 5.82366 11.4901 5.86332 11.4901C5.90297 11.4901 5.9422 11.482 5.97861 11.4663C6.01501 11.4506 6.04782 11.4276 6.07503 11.3987C6.10223 11.3699 6.12325 11.3358 6.1368 11.2985C6.15035 11.2613 6.15614 11.2216 6.15382 11.182V10.863C6.15485 10.2093 5.97673 9.5677 5.63882 9.00803L5.17582 8.25204Z" fill="black"/>
</svg>
