<svg width="7" height="16" viewBox="0 0 7 16" fill="none" xmlns="http://www.w3.org/2000/svg">
<path fill-rule="evenodd" clip-rule="evenodd" d="M6.06 6.95001L4.89502 3.96552L4.70502 0.549988C4.76195 0.53243 4.81166 0.496963 4.8468 0.448853C4.88194 0.400742 4.90062 0.342562 4.90002 0.28299C4.9015 0.247394 4.89594 0.211881 4.88367 0.178436C4.87139 0.144991 4.85264 0.114296 4.82849 0.0881042C4.80434 0.0619121 4.77526 0.0407311 4.74292 0.0257874C4.71058 0.0108436 4.67561 0.00242263 4.64001 0.00100708H2.67004C2.59913 0.00539458 2.5327 0.0373576 2.48505 0.0900574C2.43739 0.142757 2.41229 0.211992 2.41504 0.28299C2.41311 0.342632 2.43125 0.401216 2.46661 0.44928C2.50198 0.497343 2.55253 0.532108 2.61005 0.548004L2.42505 3.97198L1.26001 6.9025H0.809998C0.764918 6.90384 0.72099 6.91685 0.682434 6.94025C0.643878 6.96364 0.612038 6.99665 0.590027 7.03601L0.0350342 8.03101C0.0175455 8.06942 0.00572045 8.11019 0 8.15201V14.76C0.00392229 14.8003 0.0158542 14.8394 0.0350342 14.875L0.590027 15.8695C0.608416 15.9077 0.636602 15.9402 0.671753 15.9639C0.706903 15.9875 0.747762 16.0014 0.790039 16.004H5.05499C5.19893 16.013 5.34312 15.9902 5.47723 15.9372C5.61135 15.8842 5.73216 15.8022 5.83099 15.6972C5.92982 15.5921 6.00423 15.4666 6.04901 15.3295C6.09379 15.1924 6.10781 15.0471 6.09003 14.904V7.08051C6.09132 7.03516 6.08096 6.99024 6.06 6.95001ZM1.21503 15.015C1.22495 15.1656 1.26044 15.3133 1.32001 15.452H0.955017L0.710022 15.015H1.21503ZM0.710022 7.89749L0.955017 7.45999H1.21002V7.89749H0.710022ZM1.21002 8.45499V14.455H0.515015V8.45499H1.21002ZM5.57501 13.7155V14.9C5.5882 14.9726 5.58393 15.0473 5.5625 15.1179C5.54107 15.1885 5.5031 15.253 5.45178 15.306C5.40047 15.3591 5.33726 15.3991 5.2674 15.4228C5.19753 15.4466 5.12304 15.4533 5.05005 15.4425H2.245C2.17552 15.4523 2.10479 15.4458 2.03821 15.4237C1.97163 15.4016 1.91105 15.3644 1.86121 15.3151C1.81136 15.2657 1.77354 15.2055 1.75079 15.1391C1.72804 15.0728 1.72097 15.0021 1.73004 14.9325V13.712H5.57501V13.7155ZM3.06 1.34451L3.125 0.558502H4.19L4.25 1.34451H3.06ZM1.73004 8.65201V7.15701L2.90503 4.17151C2.92329 4.13851 2.93353 4.10168 2.935 4.064L3.03003 1.896H4.29504L4.39001 4.06049C4.39039 4.09818 4.40077 4.13512 4.42004 4.16751L5.58502 7.14951L5.57501 8.64951H1.73004V8.65201ZM5.57501 9.202V13.195H1.73004V9.20001H5.57501V9.202Z" fill="black"/>
</svg>
