<svg width="15" height="16" viewBox="0 0 15 16" fill="none" xmlns="http://www.w3.org/2000/svg">
<path fill-rule="evenodd" clip-rule="evenodd" d="M14.5522 11.4816C14.6181 11.4825 14.6836 11.4704 14.7448 11.4459C14.806 11.4214 14.8618 11.385 14.9089 11.3389C14.956 11.2927 14.9934 11.2377 15.0192 11.177C15.0449 11.1163 15.0583 11.0511 15.0587 10.9852V2.4447C15.0585 2.24736 15.0193 2.05207 14.9435 1.86988C14.8676 1.68769 14.7567 1.52213 14.6168 1.38287C14.477 1.24362 14.3111 1.13333 14.1286 1.05824C13.9461 0.983153 13.7506 0.944797 13.5533 0.94533H11.5453V0.43878C11.5289 0.317283 11.469 0.205834 11.3767 0.125154C11.2843 0.0444731 11.1659 0 11.0433 0C10.9207 0 10.8023 0.0444731 10.71 0.125154C10.6176 0.205834 10.5577 0.317283 10.5413 0.43878V0.94533H4.51742V0.43878C4.50101 0.317283 4.44107 0.205834 4.34876 0.125154C4.25645 0.0444731 4.13803 0 4.01543 0C3.89283 0 3.77439 0.0444731 3.68208 0.125154C3.58977 0.205834 3.52983 0.317283 3.51342 0.43878V0.94533H1.50546C1.30812 0.944797 1.11261 0.983153 0.930119 1.05824C0.747623 1.13333 0.581725 1.24362 0.441902 1.38287C0.30208 1.52213 0.19107 1.68769 0.115245 1.86988C0.0394189 2.05207 0.000265596 2.24736 0 2.4447V14.4905C0.000265739 14.8901 0.158834 15.2732 0.44099 15.5561C0.723147 15.8391 1.1059 15.9987 1.50546 16H13.5533C13.9528 15.9987 14.3356 15.8391 14.6177 15.5561C14.8999 15.2732 15.0585 14.8901 15.0587 14.4905V12.9911C15.0684 12.9195 15.0627 12.8466 15.0419 12.7774C15.0211 12.7082 14.9857 12.6443 14.9381 12.5899C14.8906 12.5355 14.832 12.4919 14.7662 12.4621C14.7004 12.4322 14.629 12.4167 14.5567 12.4167C14.4845 12.4167 14.4131 12.4322 14.3473 12.4621C14.2815 12.4919 14.2229 12.5355 14.1753 12.5899C14.1278 12.6443 14.0924 12.7082 14.0716 12.7774C14.0508 12.8466 14.0451 12.9195 14.0548 12.9911V14.4905C14.0548 14.624 14.0021 14.7521 13.9082 14.8469C13.8143 14.9418 13.6867 14.9957 13.5533 14.997H1.50039C1.36604 14.997 1.23721 14.9436 1.14221 14.8486C1.04722 14.7536 0.99384 14.6248 0.99384 14.4905V4.95717H14.0446V10.9852C14.045 11.0512 14.0585 11.1165 14.0843 11.1773C14.1101 11.238 14.1476 11.2931 14.1948 11.3393C14.242 11.3854 14.2979 11.4218 14.3593 11.4462C14.4206 11.4707 14.4862 11.4827 14.5522 11.4816ZM0.99891 3.95421V2.4447C0.999305 2.37877 1.01275 2.3136 1.03847 2.25289C1.06419 2.19218 1.10169 2.13716 1.14878 2.09101C1.19587 2.04485 1.25163 2.0084 1.31285 1.98391C1.37406 1.95942 1.43953 1.94735 1.50546 1.94829H3.50432V2.4447C3.49465 2.5163 3.5004 2.58909 3.5212 2.65828C3.542 2.72747 3.57735 2.79148 3.62489 2.84588C3.67244 2.90028 3.73107 2.94389 3.79686 2.97376C3.86264 3.00363 3.93406 3.01902 4.00631 3.01902C4.07856 3.01902 4.14996 3.00363 4.21574 2.97376C4.28153 2.94389 4.34016 2.90028 4.3877 2.84588C4.43525 2.79148 4.47062 2.72747 4.49142 2.65828C4.51221 2.58909 4.51797 2.5163 4.5083 2.4447V1.94829H10.5322V2.4447C10.5225 2.5163 10.5283 2.58909 10.5491 2.65828C10.5699 2.72747 10.6052 2.79148 10.6528 2.84588C10.7003 2.90028 10.759 2.94389 10.8247 2.97376C10.8905 3.00363 10.9619 3.01902 11.0342 3.01902C11.1064 3.01902 11.1779 3.00363 11.2436 2.97376C11.3094 2.94389 11.3681 2.90028 11.4156 2.84588C11.4631 2.79148 11.4985 2.72747 11.5193 2.65828C11.5401 2.58909 11.5458 2.5163 11.5362 2.4447V1.94829H13.5441C13.6764 1.94775 13.8035 1.99967 13.8976 2.09274C13.9916 2.1858 14.0448 2.31241 14.0456 2.4447V3.95421H0.99891ZM5.01485 6.96309C5.01445 6.89716 5.00101 6.83199 4.97529 6.77128C4.94957 6.71057 4.91207 6.65555 4.86498 6.6094C4.81788 6.56325 4.76212 6.52691 4.7009 6.50242C4.63968 6.47793 4.57423 6.46574 4.5083 6.46668H2.50032C2.43439 6.46574 2.36894 6.47793 2.30772 6.50242C2.2465 6.52691 2.19073 6.56325 2.14364 6.6094C2.09655 6.65555 2.05907 6.71057 2.03334 6.77128C2.00762 6.83199 1.99416 6.89716 1.99377 6.96309V8.96914C1.99377 9.10348 2.04715 9.23229 2.14214 9.32728C2.23714 9.42228 2.36598 9.47569 2.50032 9.47569H4.51742C4.65176 9.47569 4.7806 9.42228 4.8756 9.32728C4.97059 9.23229 5.02397 9.10348 5.02397 8.96914V6.96309H5.01485ZM4.01087 8.4726H3.00687V7.46964H4.01087V8.4726ZM9.02977 6.96309C9.02937 6.89716 9.01593 6.83199 8.99021 6.77128C8.96449 6.71057 8.92699 6.65555 8.87989 6.6094C8.8328 6.56325 8.77705 6.52691 8.71583 6.50242C8.65461 6.47793 8.58914 6.46574 8.52322 6.46668H6.51525C6.44932 6.46574 6.38386 6.47793 6.32264 6.50242C6.26142 6.52691 6.20565 6.56325 6.15856 6.6094C6.11147 6.65555 6.07398 6.71057 6.04826 6.77128C6.02254 6.83199 6.0091 6.89716 6.0087 6.96309V8.96914C6.0087 9.10348 6.06206 9.23229 6.15706 9.32728C6.25206 9.42228 6.38091 9.47569 6.51525 9.47569H8.52322C8.65756 9.47569 8.7864 9.42228 8.88139 9.32728C8.97639 9.23229 9.02977 9.10348 9.02977 8.96914V6.96309ZM8.02578 8.4726H7.02281V7.46964H8.02578V8.4726ZM4.51235 10.4786H2.50439C2.37004 10.4786 2.24119 10.5319 2.14619 10.6269C2.0512 10.7219 1.99784 10.8509 1.99784 10.9852V12.9911C1.99823 13.0571 2.01167 13.1222 2.03739 13.1829C2.06312 13.2436 2.1006 13.2987 2.14769 13.3448C2.19478 13.391 2.25055 13.4273 2.31177 13.4518C2.37299 13.4763 2.43846 13.4885 2.50439 13.4875H4.51742C4.58335 13.4885 4.6488 13.4763 4.71002 13.4518C4.77124 13.4273 4.827 13.391 4.8741 13.3448C4.92119 13.2987 4.95867 13.2436 4.98439 13.1829C5.01012 13.1222 5.02357 13.0571 5.02397 12.9911V10.9852C5.02397 10.8509 4.97059 10.7219 4.8756 10.6269C4.7806 10.5319 4.65176 10.4786 4.51742 10.4786H4.51235ZM4.0058 12.4846H3.00182V11.4816H4.01087V12.4846H4.0058ZM8.52322 10.4786H6.51525C6.38091 10.4786 6.25206 10.5319 6.15706 10.6269C6.06206 10.7219 6.0087 10.8509 6.0087 10.9852V12.9911C6.0091 13.0571 6.02254 13.1222 6.04826 13.1829C6.07398 13.2436 6.11147 13.2987 6.15856 13.3448C6.20565 13.391 6.26142 13.4273 6.32264 13.4518C6.38386 13.4763 6.44932 13.4885 6.51525 13.4875H8.52322C8.58914 13.4885 8.65461 13.4763 8.71583 13.4518C8.77705 13.4273 8.8328 13.391 8.87989 13.3448C8.92699 13.2987 8.96449 13.2436 8.99021 13.1829C9.01593 13.1222 9.02937 13.0571 9.02977 12.9911V10.9852C9.02977 10.8517 8.97711 10.7236 8.8832 10.6288C8.7893 10.5339 8.66175 10.48 8.52829 10.4786H8.52322ZM8.01666 12.4846H7.01369V11.4816H8.01666V12.4846ZM10.5271 10.4786C10.3928 10.4786 10.2639 10.5319 10.1689 10.6269C10.074 10.7219 10.0206 10.8509 10.0206 10.9852V12.9911C10.021 13.0571 10.0344 13.1222 10.0601 13.1829C10.0859 13.2436 10.1234 13.2987 10.1704 13.3448C10.2175 13.391 10.2733 13.4273 10.3345 13.4518C10.3957 13.4763 10.4612 13.4885 10.5271 13.4875H12.5351C12.601 13.4885 12.6665 13.4763 12.7277 13.4518C12.7889 13.4273 12.8447 13.391 12.8918 13.3448C12.9389 13.2987 12.9764 13.2436 13.0021 13.1829C13.0278 13.1222 13.0413 13.0571 13.0417 12.9911V10.9852C13.0417 10.8509 12.9883 10.7219 12.8933 10.6269C12.7983 10.5319 12.6694 10.4786 12.5351 10.4786H10.5271ZM12.0326 12.4846H11.0286V11.4816H12.0326V12.4846Z" fill="black"/>
</svg>
