<svg width="15" height="16" viewBox="0 0 15 16" fill="none" xmlns="http://www.w3.org/2000/svg">
<g clip-path="url(#clip0_55_1636)">
<path fill-rule="evenodd" clip-rule="evenodd" d="M14.0463 11.137C14.1749 11.137 14.2983 11.0859 14.3892 10.9949C14.4802 10.9039 14.5313 10.7806 14.5313 10.652V2.41196C14.531 2.02632 14.3778 1.65657 14.1052 1.38379C13.8326 1.11101 13.4629 0.9575 13.0773 0.95697H11.1383V0.472961C11.1383 0.344331 11.0872 0.220991 10.9962 0.130035C10.9053 0.0390803 10.7819 -0.0120239 10.6533 -0.0120239C10.5247 -0.0120239 10.4013 0.0390803 10.3103 0.130035C10.2194 0.220991 10.1683 0.344331 10.1683 0.472961V0.95697H4.35129V0.472961C4.35426 0.407484 4.34393 0.342106 4.32092 0.280731C4.29792 0.219357 4.26272 0.163263 4.21744 0.115875C4.17215 0.0684877 4.11773 0.0307736 4.05746 0.00500488C3.9972 -0.0207639 3.93234 -0.0340576 3.86679 -0.0340576C3.80125 -0.0340576 3.73638 -0.0207639 3.67612 0.00500488C3.61585 0.0307736 3.56143 0.0684877 3.51614 0.115875C3.47086 0.163263 3.43563 0.219357 3.41263 0.280731C3.38962 0.342106 3.37932 0.407484 3.38229 0.472961V0.95697H1.44327C1.05754 0.957499 0.68779 1.11098 0.415039 1.38373C0.142288 1.65648 -0.0111896 2.02623 -0.0117188 2.41196V14.046C-0.0111891 14.4316 0.142321 14.8013 0.4151 15.0739C0.687879 15.3465 1.05763 15.4997 1.44327 15.5H13.0773C13.4628 15.4997 13.8325 15.3464 14.1051 15.0738C14.3778 14.8012 14.531 14.4315 14.5313 14.046V12.591C14.5313 12.4623 14.4802 12.339 14.3892 12.248C14.2983 12.1571 14.1749 12.106 14.0463 12.106C13.9177 12.106 13.7943 12.1571 13.7033 12.248C13.6124 12.339 13.5613 12.4623 13.5613 12.591V14.046C13.5613 14.1744 13.5103 14.2976 13.4196 14.3885C13.3288 14.4795 13.2057 14.5307 13.0773 14.531H1.44327C1.31464 14.531 1.1913 14.4799 1.10034 14.3889C1.00939 14.298 0.958282 14.1746 0.958282 14.046V4.83496H13.5583V10.652C13.5583 10.7159 13.5709 10.7792 13.5955 10.8383C13.6201 10.8973 13.656 10.9509 13.7014 10.996C13.7467 11.041 13.8006 11.0767 13.8598 11.1009C13.919 11.1251 13.9824 11.1374 14.0463 11.137ZM0.958282 3.86597V2.41196C0.958282 2.28333 1.00939 2.15999 1.10034 2.06903C1.1913 1.97808 1.31464 1.92697 1.44327 1.92697H3.38229V2.41196C3.38796 2.53665 3.44147 2.65437 3.53171 2.7406C3.62195 2.82683 3.74197 2.87494 3.86679 2.87494C3.99161 2.87494 4.1116 2.82683 4.20184 2.7406C4.29208 2.65437 4.34562 2.53665 4.35129 2.41196V1.92697H10.1683V2.41196C10.1683 2.54059 10.2194 2.66396 10.3103 2.75491C10.4013 2.84587 10.5247 2.89697 10.6533 2.89697C10.7819 2.89697 10.9053 2.84587 10.9962 2.75491C11.0872 2.66396 11.1383 2.54059 11.1383 2.41196V1.92697H13.0773C13.2057 1.92724 13.3288 1.97844 13.4196 2.06937C13.5103 2.16029 13.5613 2.2835 13.5613 2.41196V3.86597H0.961273H0.958282Z" fill="black"/>
</g>
<defs>
<clipPath id="clip0_55_1636">
<rect width="14.531" height="15.5" fill="white"/>
</clipPath>
</defs>
</svg>
