<svg width="49" height="48" viewBox="0 0 49 48" fill="none" xmlns="http://www.w3.org/2000/svg">
<path d="M19.6887 47.52C19.4917 47.4806 19.3044 47.4028 19.1375 47.291C18.9706 47.1792 18.8274 47.0357 18.7159 46.8685C18.6045 46.7014 18.5271 46.5139 18.4881 46.3169C18.4491 46.1198 18.4493 45.917 18.4887 45.72C18.5281 45.523 18.6059 45.3357 18.7177 45.1688C18.8295 45.0019 18.973 44.8586 19.1402 44.7472C19.3073 44.6358 19.4948 44.5584 19.6919 44.5194C19.8889 44.4804 20.0917 44.4806 20.2887 44.52C25.494 45.5785 30.9071 44.625 35.4374 41.8517C39.9678 39.0784 43.2789 34.6913 44.7037 29.5741C46.1285 24.4569 45.5612 18.9899 43.1161 14.2743C40.6709 9.55876 36.5296 5.94499 31.5263 4.16097C26.523 2.37696 21.0295 2.55526 16.1525 4.65997C11.2754 6.76468 7.37713 10.6394 5.2429 15.5036C3.10868 20.3679 2.89709 25.8601 4.65075 30.8741C6.40442 35.8882 9.99303 40.0513 14.6937 42.525C14.8813 42.6092 15.0496 42.7311 15.1881 42.8831C15.3266 43.0351 15.4324 43.214 15.4989 43.4086C15.5654 43.6032 15.5911 43.8094 15.5745 44.0144C15.558 44.2193 15.4994 44.4187 15.4025 44.6001C15.3057 44.7815 15.1725 44.941 15.0114 45.0688C14.8502 45.1966 14.6645 45.2898 14.4658 45.3428C14.2671 45.3958 14.0597 45.4074 13.8563 45.3768C13.6529 45.3462 13.458 45.2741 13.2837 45.165C7.91737 42.3282 3.82527 37.5634 1.83154 31.8302C-0.162187 26.0969 0.0905656 19.8212 2.5389 14.2668C4.98723 8.71249 9.44926 4.29218 15.0263 1.89613C20.6034 -0.499914 26.8813 -0.693704 32.5955 1.35379C38.3098 3.40129 43.036 7.53797 45.8222 12.9307C48.6085 18.3235 49.2478 24.5717 47.6115 30.417C45.9752 36.2623 42.1848 41.2704 37.0036 44.4328C31.8225 47.5952 25.6355 48.6769 19.6887 47.46V47.52Z" fill="#BF1332"/>
<path d="M25 28.5C23.8065 28.5 22.6619 28.0259 21.818 27.182C20.9741 26.3381 20.5 25.1935 20.5 24V12C20.5 10.8065 20.9741 9.66193 21.818 8.81802C22.6619 7.97411 23.8065 7.5 25 7.5C26.1935 7.5 27.3381 7.97411 28.182 8.81802C29.0259 9.66193 29.5 10.8065 29.5 12V24C29.5 25.1935 29.0259 26.3381 28.182 27.182C27.3381 28.0259 26.1935 28.5 25 28.5ZM25 10.5C24.6022 10.5 24.2206 10.658 23.9393 10.9393C23.658 11.2206 23.5 11.6022 23.5 12V24C23.5 24.3978 23.658 24.7794 23.9393 25.0607C24.2206 25.342 24.6022 25.5 25 25.5C25.3978 25.5 25.7794 25.342 26.0607 25.0607C26.342 24.7794 26.5 24.3978 26.5 24V12C26.5 11.6022 26.342 11.2206 26.0607 10.9393C25.7794 10.658 25.3978 10.5 25 10.5Z" fill="#BF1332"/>
<path d="M25 40.5C24.11 40.5 23.24 40.2361 22.4999 39.7416C21.7599 39.2472 21.1831 38.5443 20.8425 37.7221C20.5019 36.8998 20.4128 35.995 20.5865 35.1221C20.7601 34.2492 21.1887 33.4474 21.818 32.818C22.4474 32.1887 23.2492 31.7601 24.1221 31.5865C24.995 31.4128 25.8998 31.5019 26.7221 31.8425C27.5443 32.1831 28.2472 32.7599 28.7416 33.4999C29.2361 34.24 29.5 35.11 29.5 36C29.5 37.1935 29.0259 38.3381 28.182 39.182C27.3381 40.0259 26.1935 40.5 25 40.5ZM25 34.5C24.7033 34.5 24.4133 34.588 24.1666 34.7528C23.92 34.9176 23.7277 35.1519 23.6142 35.426C23.5007 35.7001 23.4709 36.0017 23.5288 36.2926C23.5867 36.5836 23.7296 36.8509 23.9393 37.0607C24.1491 37.2704 24.4164 37.4133 24.7074 37.4712C24.9983 37.5291 25.2999 37.4994 25.574 37.3858C25.8481 37.2723 26.0824 37.08 26.2472 36.8334C26.412 36.5867 26.5 36.2967 26.5 36C26.5 35.6022 26.342 35.2206 26.0607 34.9393C25.7794 34.658 25.3978 34.5 25 34.5Z" fill="#BF1332"/>
</svg>
