<svg width="7" height="13" viewBox="0 0 7 13" fill="none" xmlns="http://www.w3.org/2000/svg">
<path fill-rule="evenodd" clip-rule="evenodd" d="M6.94644 3.09206C6.94644 3.03702 6.94644 2.98198 6.89288 2.98198L6.14495 1.66081C6.11962 1.62757 6.08729 1.60049 6.05034 1.58156C6.01338 1.56262 5.97273 1.5523 5.93135 1.55136H3.26164L3.3152 1.05596C3.33885 0.940848 3.33955 0.822085 3.31725 0.706694C3.29496 0.591304 3.25012 0.481607 3.18539 0.38411C3.12067 0.286613 3.03736 0.203288 2.94039 0.139039C2.84343 0.0747898 2.73477 0.0309437 2.62083 0.0100606C2.50392 -0.00776945 2.38468 -0.00186417 2.27005 0.0274923C2.15541 0.0568487 2.04766 0.109058 1.95304 0.181057C1.85843 0.253056 1.77884 0.343423 1.71889 0.446919C1.65894 0.550415 1.61983 0.664958 1.60383 0.783931V1.0592L1.65739 1.5546H1.01658C0.974224 1.54837 0.931003 1.55553 0.892789 1.57511C0.854575 1.59469 0.823219 1.62575 0.80298 1.66405L0.0550531 2.93016C0.0346985 2.95198 0.0193434 2.9781 0.0100843 3.00664C0.000825223 3.03519 -0.00210883 3.06547 0.00149334 3.0953V11.5144C0.00149334 11.5694 0.00149311 11.6244 0.0550531 11.6244L0.80298 12.8905C0.828317 12.9238 0.860643 12.9509 0.897598 12.9698C0.934552 12.9887 0.975203 12.9991 1.01658 13H5.98491C6.02629 12.9991 6.06694 12.9887 6.1039 12.9698C6.14085 12.9509 6.17318 12.9238 6.19851 12.8905L6.94644 11.6244C6.95211 11.5828 6.9709 11.5442 7 11.5144L6.94644 3.09206ZM2.19172 0.670605C2.22488 0.631668 2.2659 0.600427 2.312 0.57902C2.35809 0.557613 2.40819 0.546568 2.45888 0.546568C2.50956 0.546568 2.55966 0.557613 2.60576 0.57902C2.65186 0.600427 2.69288 0.631668 2.72604 0.670605V0.670605C2.78545 0.771254 2.82205 0.884089 2.83316 1.0009L2.72604 1.55136H2.19235L2.08523 1.0009C2.07387 0.941135 2.07775 0.879411 2.0965 0.821601C2.11525 0.76379 2.14825 0.71181 2.19235 0.670605H2.19172ZM5.77131 12.5059H1.1237L0.696498 11.7352H6.25207L5.77131 12.5059ZM6.41212 10.1939C5.89206 10.1219 5.42091 9.84461 5.10089 9.42208C4.78086 8.99956 4.63777 8.46591 4.70266 7.93692C4.74781 7.48959 4.9418 7.07127 5.25259 6.75101C5.56337 6.43075 5.97239 6.22769 6.41212 6.17537V10.1939ZM6.41212 5.62491C5.75521 5.70237 5.15547 6.04162 4.74476 6.56808C4.33404 7.09453 4.14597 7.76506 4.22189 8.43231C4.27466 9.00737 4.52154 9.54624 4.9207 9.95756C5.31987 10.3689 5.84676 10.6274 6.41212 10.6893V11.1847H0.482258V10.414C0.825627 10.3496 1.13615 10.1656 1.3604 9.89377C1.58465 9.62191 1.70861 9.27916 1.71095 8.92451V8.42911C1.70969 8.29266 1.73498 8.15725 1.78536 8.03075C1.83575 7.90425 1.91024 7.78911 2.00456 7.69192C2.09888 7.59474 2.21116 7.51747 2.33498 7.46448C2.45879 7.4115 2.59169 7.38385 2.72604 7.38317C2.924 7.38207 3.1198 7.34133 3.30221 7.26321C3.48462 7.18509 3.65005 7.07113 3.78902 6.92793C3.92799 6.78474 4.03777 6.61512 4.11205 6.42874C4.18633 6.24237 4.22366 6.0429 4.22189 5.84184V5.56661C4.22063 5.43015 4.24592 5.29479 4.29631 5.16829C4.34669 5.04179 4.42118 4.92664 4.5155 4.82946C4.60982 4.73228 4.72211 4.65496 4.84592 4.60198C4.96973 4.54899 5.10263 4.52138 5.23698 4.52071H6.41212V5.62167V5.62491ZM6.41212 4.08357H5.18342C4.98546 4.08467 4.78966 4.12546 4.60725 4.20358C4.42484 4.2817 4.25941 4.39562 4.12044 4.53881C3.98147 4.68201 3.8717 4.85167 3.79741 5.03804C3.72313 5.22442 3.6858 5.42385 3.68757 5.62491V5.90014C3.69237 6.16716 3.59472 6.42561 3.41527 6.62081C3.23582 6.816 2.98865 6.93263 2.72604 6.94604V6.94604C2.52808 6.94714 2.33228 6.98792 2.14987 7.06604C1.96746 7.14416 1.80203 7.25808 1.66305 7.40128C1.52408 7.54447 1.41431 7.71413 1.34003 7.90051C1.26575 8.08689 1.22842 8.28632 1.23019 8.48738V8.98281C1.22557 9.20732 1.15055 9.42448 1.01603 9.60269C0.881516 9.78089 0.694522 9.91084 0.482258 9.97365V3.30966H1.49735V2.81422H0.696498L1.1237 2.04356H5.77131L6.19851 2.81422H3.68821V3.30966H6.41275V4.08033L6.41212 4.08357Z" fill="black"/>
</svg>
