<svg width="11" height="21" viewBox="0 0 11 21" fill="none" xmlns="http://www.w3.org/2000/svg">
<path fill-rule="evenodd" clip-rule="evenodd" d="M10.8792 4.78897C10.8792 4.70397 10.8792 4.61899 10.7952 4.61899L9.62221 2.57895C9.58247 2.52762 9.53177 2.48581 9.47382 2.45657C9.41586 2.42734 9.3521 2.4114 9.2872 2.40994H5.1002L5.1842 1.64499C5.22129 1.46724 5.22239 1.28386 5.18743 1.10568C5.15246 0.927507 5.08214 0.758123 4.98063 0.607576C4.87911 0.457029 4.74846 0.328366 4.59639 0.229158C4.44431 0.12995 4.2739 0.062246 4.09521 0.0300001C3.91185 0.00246839 3.72484 0.0115868 3.54506 0.0569166C3.36527 0.102246 3.19627 0.182864 3.04789 0.294038C2.8995 0.405213 2.77467 0.54475 2.68066 0.704561C2.58664 0.864371 2.5253 1.04124 2.50021 1.22495V1.65L2.58421 2.41495H1.57921C1.51277 2.40533 1.44499 2.41639 1.38506 2.44663C1.32512 2.47686 1.27595 2.52481 1.24421 2.58396L0.071205 4.53897C0.0392821 4.57266 0.0152002 4.61299 0.000678854 4.65708C-0.0138425 4.70116 -0.0184441 4.74791 -0.0127947 4.79398V17.794C-0.0127947 17.879 -0.012795 17.964 0.071205 17.964L1.24421 19.919C1.28394 19.9703 1.33464 20.0121 1.3926 20.0414C1.45055 20.0706 1.51431 20.0865 1.57921 20.088H9.3712C9.4361 20.0865 9.49986 20.0706 9.55782 20.0414C9.61577 20.0121 9.66647 19.9703 9.70621 19.919L10.8792 17.964C10.8881 17.8997 10.9176 17.8401 10.9632 17.794L10.8792 4.78897ZM3.42221 1.04996C3.47421 0.989834 3.53855 0.941595 3.61085 0.90854C3.68315 0.875485 3.76171 0.85843 3.84121 0.85843C3.9207 0.85843 3.99927 0.875485 4.07156 0.90854C4.14386 0.941595 4.2082 0.989834 4.2602 1.04996C4.35338 1.20537 4.41078 1.3796 4.42821 1.55997L4.2602 2.40994H3.42321L3.25521 1.55997C3.23739 1.46769 3.24347 1.37238 3.27288 1.28311C3.30228 1.19385 3.35403 1.11358 3.42321 1.04996H3.42221ZM9.03621 19.325H1.74721L1.07721 18.135H9.79021L9.03621 19.325ZM10.0412 15.755C9.22559 15.6439 8.48667 15.2157 7.98476 14.5633C7.48285 13.9108 7.25844 13.0868 7.36021 12.27C7.43102 11.5793 7.73525 10.9333 8.22268 10.4388C8.7101 9.9443 9.35157 9.63074 10.0412 9.54996V15.755ZM10.0412 8.69998C9.01095 8.81959 8.07037 9.34344 7.42623 10.1563C6.7821 10.9692 6.48714 12.0046 6.6062 13.0349C6.68896 13.9229 7.07615 14.755 7.70217 15.3901C8.32819 16.0252 9.15455 16.4244 10.0412 16.52V17.2849H0.741205V16.0949C1.27972 15.9954 1.76672 15.7114 2.11842 15.2916C2.47012 14.8718 2.66453 14.3426 2.66821 13.795V13.03C2.66623 12.8193 2.70589 12.6102 2.78491 12.4149C2.86393 12.2196 2.98076 12.0418 3.12868 11.8917C3.2766 11.7416 3.45271 11.6223 3.64689 11.5405C3.84107 11.4587 4.0495 11.416 4.2602 11.4149C4.57067 11.4132 4.87775 11.3503 5.16383 11.2297C5.44991 11.1091 5.70937 10.9331 5.92732 10.712C6.14527 10.4909 6.31744 10.229 6.43393 9.94119C6.55043 9.65341 6.60897 9.3454 6.6062 9.03494V8.60996C6.60423 8.39925 6.64389 8.19024 6.72291 7.9949C6.80193 7.79957 6.91876 7.62177 7.06668 7.47171C7.2146 7.32165 7.39071 7.20227 7.58489 7.12045C7.77907 7.03864 7.9875 6.99601 8.19821 6.99497H10.0412V8.69498V8.69998ZM10.0412 6.31998H8.1142C7.80374 6.32168 7.49666 6.38465 7.21058 6.50528C6.9245 6.62591 6.66504 6.80181 6.44709 7.02292C6.22914 7.24403 6.05698 7.50601 5.94048 7.79379C5.82398 8.08158 5.76544 8.38952 5.76821 8.69998V9.12497C5.77574 9.53728 5.62259 9.93636 5.34115 10.2378C5.05971 10.5392 4.67206 10.7193 4.2602 10.74C3.94974 10.7417 3.64266 10.8046 3.35658 10.9253C3.0705 11.0459 2.81104 11.2218 2.59309 11.4429C2.37514 11.664 2.20298 11.926 2.08648 12.2138C1.96998 12.5016 1.91144 12.8095 1.91421 13.12V13.885C1.90697 14.2316 1.78931 14.567 1.57834 14.8421C1.36738 15.1173 1.07411 15.318 0.741205 15.4149V5.12497H2.33321V4.35996H1.07721L1.74721 3.16995H9.03621L9.70621 4.35996H5.76921V5.12497H10.0422V6.31497L10.0412 6.31998Z" fill="black"/>
</svg>
