<svg width="40" height="23" viewBox="0 0 40 23" fill="none" xmlns="http://www.w3.org/2000/svg">
<path fill-rule="evenodd" clip-rule="evenodd" d="M29.5892 4.638C29.5534 4.63827 29.5177 4.63355 29.4832 4.62399C29.377 4.59451 29.2866 4.52434 29.2318 4.42868C29.1769 4.33302 29.162 4.2196 29.1902 4.11301L30.0462 0.837006H7.62023C7.51278 0.831751 7.41146 0.785367 7.33727 0.707458C7.26308 0.62955 7.22169 0.526086 7.22169 0.418503C7.22169 0.31092 7.26308 0.207455 7.33727 0.129547C7.41146 0.0516389 7.51278 0.00525421 7.62023 0H31.1202L29.9882 4.327C29.9656 4.4159 29.914 4.49473 29.8415 4.55104C29.7691 4.60735 29.68 4.63795 29.5882 4.638H29.5892ZM17.2432 3.589H5.08223C4.97478 3.58375 4.87346 3.53737 4.79927 3.45946C4.72508 3.38155 4.6837 3.27808 4.6837 3.1705C4.6837 3.06292 4.72508 2.95945 4.79927 2.88155C4.87346 2.80364 4.97478 2.75725 5.08223 2.752H17.2442C17.3517 2.75725 17.453 2.80364 17.5272 2.88155C17.6014 2.95945 17.6428 3.06292 17.6428 3.1705C17.6428 3.27808 17.6014 3.38155 17.5272 3.45946C17.453 3.53737 17.3517 3.58375 17.2442 3.589H17.2432ZM17.4322 5.922H7.04423C6.93678 5.91674 6.83546 5.87036 6.76127 5.79245C6.68708 5.71454 6.64569 5.61108 6.64569 5.50349C6.64569 5.39591 6.68708 5.29246 6.76127 5.21455C6.83546 5.13665 6.93678 5.09026 7.04423 5.08501H17.4322C17.5397 5.09026 17.641 5.13665 17.7152 5.21455C17.7894 5.29246 17.8308 5.39591 17.8308 5.50349C17.8308 5.61108 17.7894 5.71454 17.7152 5.79245C17.641 5.87036 17.5397 5.91674 17.4322 5.922ZM13.8102 8.39999H4.10023C3.99278 8.39474 3.89146 8.34836 3.81727 8.27045C3.74308 8.19254 3.70169 8.08909 3.70169 7.98151C3.70169 7.87392 3.74308 7.77046 3.81727 7.69255C3.89146 7.61464 3.99278 7.56826 4.10023 7.563H13.8102C13.9177 7.56826 14.019 7.61464 14.0932 7.69255C14.1674 7.77046 14.2088 7.87392 14.2088 7.98151C14.2088 8.08909 14.1674 8.19254 14.0932 8.27045C14.019 8.34836 13.9177 8.39474 13.8102 8.39999ZM2.49723 8.39999H0.411232C0.303777 8.39474 0.202461 8.34836 0.128269 8.27045C0.0540774 8.19254 0.0126953 8.08909 0.0126953 7.98151C0.0126953 7.87392 0.0540774 7.77046 0.128269 7.69255C0.202461 7.61464 0.303777 7.56826 0.411232 7.563H2.50023C2.60769 7.56826 2.709 7.61464 2.7832 7.69255C2.85739 7.77046 2.89877 7.87392 2.89877 7.98151C2.89877 8.08909 2.85739 8.19254 2.7832 8.27045C2.709 8.34836 2.60769 8.39474 2.50023 8.39999H2.49723ZM26.2582 16.976C26.1522 16.9499 26.0401 16.9669 25.9465 17.023C25.8528 17.0792 25.7852 17.1702 25.7582 17.276L25.2212 19.33H11.4882C11.4837 18.6994 11.2615 18.0897 10.8592 17.604C10.601 17.3012 10.2785 17.0596 9.91528 16.8968C9.55206 16.7341 9.15716 16.6542 8.75923 16.663C7.97802 16.6932 7.2257 16.9664 6.60711 17.4445C5.98852 17.9225 5.53446 18.5817 5.30823 19.33H3.10023L5.40023 10.538C5.42876 10.4313 5.41398 10.3176 5.3591 10.2217C5.30423 10.1258 5.21371 10.0555 5.10723 10.026C5.00117 9.99994 4.88911 10.0169 4.79546 10.073C4.70181 10.1292 4.63415 10.2202 4.60723 10.326L2.03323 20.17H5.17323C5.13712 20.8596 5.36124 21.5377 5.80123 22.07C6.05928 22.3731 6.38168 22.6149 6.74496 22.7777C7.10824 22.9404 7.50325 23.0202 7.90123 23.011C8.71294 22.9796 9.49265 22.6862 10.1236 22.1746C10.7546 21.6629 11.2028 20.9607 11.4012 20.173H25.8482L26.5482 17.497C26.5768 17.3903 26.562 17.2766 26.5071 17.1807C26.4522 17.0848 26.3617 17.0145 26.2552 16.985L26.2582 16.976ZM7.90023 22.161C7.62281 22.1686 7.34717 22.1143 7.09328 22.0023C6.83939 21.8902 6.61359 21.7231 6.43223 21.513C6.2512 21.2883 6.12114 21.027 6.05104 20.7471C5.98094 20.4672 5.97247 20.1755 6.02623 19.892C6.13996 19.2391 6.47389 18.6448 6.97243 18.2082C7.47097 17.7715 8.10403 17.5187 8.76623 17.492C9.04359 17.4843 9.31919 17.5383 9.57309 17.6502C9.82699 17.7621 10.0528 17.9291 10.2342 18.139C10.415 18.3638 10.5449 18.6251 10.6148 18.905C10.6847 19.1849 10.6931 19.4766 10.6392 19.76C10.5255 20.4129 10.1916 21.0072 9.69304 21.4438C9.1945 21.8805 8.56143 22.1333 7.89923 22.16L7.90023 22.161ZM40.0002 15.225L36.7002 11.791L34.4562 3.95799H31.5622C31.4548 3.96325 31.3535 4.00965 31.2793 4.08755C31.2051 4.16546 31.1637 4.26891 31.1637 4.3765C31.1637 4.48408 31.2051 4.58754 31.2793 4.66545C31.3535 4.74336 31.4548 4.78974 31.5622 4.795H33.8312L35.9602 12.226L39.0602 15.448L37.8222 19.324L35.6572 19.342C35.6573 18.7045 35.4348 18.087 35.0282 17.596C34.77 17.293 34.4476 17.0514 34.0844 16.8886C33.7211 16.7259 33.3262 16.6461 32.9282 16.655C32.1346 16.6858 31.371 16.9671 30.7471 17.4586C30.1232 17.9501 29.6709 18.6266 29.4552 19.391L27.3802 19.408C27.2728 19.4133 27.1715 19.4596 27.0973 19.5376C27.0231 19.6155 26.9817 19.7189 26.9817 19.8265C26.9817 19.9341 27.0231 20.0375 27.0973 20.1154C27.1715 20.1934 27.2728 20.2397 27.3802 20.245L29.3312 20.229C29.3128 20.8941 29.5363 21.5432 29.9602 22.056C30.2183 22.3591 30.5407 22.6009 30.904 22.7637C31.2672 22.9264 31.6623 23.0062 32.0602 22.997C32.8693 22.9667 33.6469 22.6761 34.2775 22.1683C34.9081 21.6606 35.358 20.9629 35.5602 20.179L38.4232 20.157L40.0002 15.225ZM32.0672 22.161C31.7898 22.1685 31.5142 22.1142 31.2603 22.0022C31.0064 21.8901 30.7806 21.723 30.5992 21.513C30.4185 21.2886 30.2886 21.0276 30.2185 20.7481C30.1484 20.4686 30.1398 20.1772 30.1932 19.894L30.2052 19.833C30.3314 19.1939 30.669 18.616 31.1637 18.1922C31.6584 17.7684 32.2814 17.5235 32.9322 17.497C33.2096 17.4893 33.4852 17.5434 33.7391 17.6553C33.9929 17.7672 34.2188 17.9341 34.4002 18.144C34.5695 18.3535 34.6939 18.5956 34.7658 18.8551C34.8377 19.1147 34.8555 19.3863 34.8182 19.653L34.8102 19.718C34.8102 19.718 34.8102 19.757 34.8102 19.767C34.6965 20.4199 34.3626 21.0142 33.864 21.4509C33.3655 21.8875 32.7324 22.1403 32.0702 22.167L32.0672 22.161ZM27.3122 10.467H25.8552L25.8302 8.41499L24.7902 10.467H23.3722L23.1722 6.254H24.8872L24.7362 8.66701L25.8262 6.254H27.2332L27.1472 8.66701L28.1662 6.254H29.4382L27.3122 10.467ZM32.9252 7.492H31.0252L30.9342 7.905H32.1602L31.9602 8.82201H30.7262L30.6352 9.23399H32.5352L32.2682 10.467H28.7482L29.6722 6.255H33.1942L32.9252 7.492ZM8.43523 15.552H6.32223L7.25123 11.34H8.88623C9.12007 11.3235 9.35478 11.356 9.57531 11.4355C9.79583 11.5151 9.9973 11.6398 10.1668 11.8017C10.3363 11.9637 10.47 12.1593 10.5595 12.376C10.6489 12.5927 10.6921 12.8256 10.6862 13.06C10.7172 13.6895 10.497 14.3057 10.074 14.7729C9.65099 15.2402 9.05976 15.5204 8.43023 15.552H8.43523ZM8.79823 12.383H8.63823L8.16923 14.5H8.35023C8.82923 14.5 9.14223 13.606 9.14223 12.872C9.14223 12.528 9.01123 12.379 8.79923 12.379L8.79823 12.383ZM14.7152 12.574H12.8152L12.7242 12.986H13.9502L13.7502 13.904H12.5212L12.4302 14.316H14.3302L14.0632 15.548H10.5422L11.4662 11.336H14.9882L14.7152 12.574ZM17.7652 15.548H14.5152L15.4392 11.336H17.0602L16.4192 14.242H18.0542L17.7652 15.548ZM19.7162 15.548H18.1002L19.0242 11.336H20.6402L19.7162 15.548ZM22.6972 15.548H21.3812L20.8412 11.336H22.4862L22.6932 13.674L23.9392 11.336H25.1702L22.6972 15.548ZM28.6492 12.574H26.7492L26.6582 12.986H27.8842L27.6842 13.904H26.4552L26.3642 14.316H28.2642L28.0002 15.546H24.4772L25.4002 11.334H28.9222L28.6492 12.574ZM31.8562 13.462C31.9568 13.4668 32.0553 13.4926 32.1454 13.5377C32.2354 13.5828 32.315 13.6462 32.3792 13.7239C32.4433 13.8016 32.4905 13.8918 32.5177 13.9888C32.5449 14.0857 32.5516 14.1873 32.5372 14.287C32.5372 14.482 32.4622 14.855 32.4622 15.027C32.4575 15.0916 32.4722 15.1561 32.5044 15.2122C32.5367 15.2684 32.585 15.3136 32.6432 15.342L32.6082 15.497C32.3223 15.6092 32.0143 15.654 31.7082 15.628C31.1082 15.628 30.8402 15.485 30.8402 15.021C30.8402 14.872 30.9312 14.396 30.9312 14.247C30.9415 14.2069 30.9423 14.1649 30.9335 14.1244C30.9247 14.0839 30.9066 14.046 30.8806 14.0137C30.8545 13.9815 30.8213 13.9558 30.7836 13.9386C30.7459 13.9215 30.7046 13.9134 30.6632 13.915H30.4242L30.0662 15.548H28.4512L29.3802 11.336H31.8372C31.9742 11.3145 32.1143 11.3232 32.2475 11.3617C32.3807 11.4002 32.5039 11.4674 32.6083 11.5587C32.7127 11.6499 32.7958 11.763 32.8518 11.8899C32.9078 12.0168 32.9352 12.1544 32.9322 12.293C32.9309 12.5868 32.8199 12.8694 32.6211 13.0856C32.4222 13.3019 32.1498 13.4361 31.8572 13.462H31.8562ZM31.0572 12.419H30.7572L30.5712 13.268H30.8792C30.948 13.2612 31.0147 13.2407 31.0755 13.2077C31.1362 13.1748 31.1898 13.13 31.233 13.0761C31.2762 13.0222 31.3082 12.9601 31.3272 12.8937C31.3461 12.8272 31.3516 12.7576 31.3432 12.689C31.3482 12.6513 31.3442 12.613 31.3316 12.5771C31.319 12.5412 31.2981 12.5088 31.2707 12.4825C31.2432 12.4562 31.2099 12.4368 31.1735 12.4257C31.1372 12.4147 31.0987 12.4124 31.0612 12.419" fill="black"/>
</svg>
