<svg width="40" height="11" viewBox="0 0 40 11" fill="none" xmlns="http://www.w3.org/2000/svg">
<path fill-rule="evenodd" clip-rule="evenodd" d="M2.00557 0.0105712L-0.0126953 4.68663H1.30182L1.67383 3.74987H3.83975L4.20985 4.68663H5.55216L3.53868 0.0105712H2.00461H2.00557ZM2.75247 1.09881L3.41308 2.73451H2.0909L2.75247 1.09881ZM5.69214 4.68567V0.00960557L7.55987 0.0163354L8.64715 3.03174L9.70758 0.00960557H11.56V4.68567H10.3864V1.24073L9.13997 4.68663H8.11022L6.86379 1.24073V4.68663H5.69022L5.69214 4.68567ZM12.3634 4.68567V0.00960557H16.1929V1.05565H13.5485V1.8553H16.1306V2.84H13.5485V3.67031H16.1929V4.68567H12.3634ZM16.8698 0.0105712V4.68663H18.0433V3.02504H18.5381L19.9446 4.68663H21.3828L19.8382 2.96078C20.194 2.92598 20.5238 2.75887 20.7622 2.49253C21.0007 2.2262 21.1305 1.88005 21.1259 1.52259C21.1267 1.31251 21.0839 1.10455 21.0001 0.9119C20.9163 0.71925 20.7934 0.546129 20.6391 0.403505C20.4849 0.260882 20.3027 0.151865 20.104 0.0833996C19.9054 0.0149342 19.6947 -0.0115037 19.4854 0.00577249H16.8736L16.8698 0.0105712ZM18.0433 1.05662H19.3857C19.5238 1.05144 19.6586 1.09963 19.7622 1.19122C19.8657 1.2828 19.93 1.41075 19.9418 1.54848C19.9322 1.68394 19.8709 1.81054 19.7706 1.90209C19.6703 1.99364 19.5387 2.04314 19.4029 2.04035H18.0443V1.05662H18.0433ZM22.799 4.68567H21.6014V0.00960557H22.799V4.68567ZM25.6408 4.68567H25.3839C25.0943 4.68089 24.8089 4.61518 24.5464 4.49284C24.2838 4.3705 24.05 4.19427 23.8601 3.97558C23.6701 3.75689 23.5284 3.50066 23.444 3.22357C23.3596 2.94647 23.3346 2.65472 23.3704 2.3673C23.3379 2.05193 23.3757 1.73329 23.481 1.43425C23.5864 1.13522 23.7566 0.863206 23.9795 0.637791C24.2025 0.412376 24.4726 0.23915 24.7704 0.130538C25.0683 0.0219252 25.3865 -0.0193912 25.7022 0.00960557H26.9995V1.11704H25.6571C25.4997 1.12019 25.3447 1.15629 25.202 1.22305C25.0594 1.28982 24.9324 1.38576 24.8291 1.50465C24.7258 1.62355 24.6486 1.76276 24.6025 1.91333C24.5564 2.0639 24.5423 2.22246 24.5612 2.3788C24.5398 2.5511 24.5577 2.72602 24.6134 2.89044C24.6692 3.05486 24.7615 3.20451 24.8833 3.3282C25.0052 3.45189 25.1535 3.5464 25.317 3.60465C25.4806 3.6629 25.6552 3.68338 25.8278 3.66455H26.1365L25.6408 4.68567ZM28.1941 0.0105712L26.1749 4.68663H27.4932L27.8662 3.74987H30.0321L30.4022 4.68663H31.7445L29.7311 0.0105712H28.197H28.1941ZM28.941 1.09881L29.6016 2.73451H28.2794L28.941 1.09881ZM31.8788 4.68567V0.00960557H33.3707L35.2758 2.94738V0.00960557H36.4494V4.68567H35.0054L33.0523 1.6712V4.68567H31.8788ZM8.5321 10.6302V5.95318H12.3615V6.99923H9.71716V7.79982H12.2992V8.78451H9.71716V9.61483H12.3615V10.6369H8.5321V10.6302ZM27.2957 10.6302V5.95318H31.1252V6.99923H28.4818V7.79982H31.0513V8.78451H28.4818V9.61483H31.1252V10.6369H27.3015L27.2957 10.6302ZM12.5101 10.6302L14.374 8.32048L12.4651 5.95318H13.9435L15.0807 7.41727L16.2216 5.95318H17.6416L15.7585 8.29168L17.6282 10.6369H16.1497L15.0461 9.19872L13.9742 10.6369H12.5168L12.5101 10.6302ZM17.7653 5.95415V10.6369H18.9695V9.15942H20.2064C20.4374 9.19063 20.6725 9.1716 20.8955 9.10365C21.1185 9.0357 21.3243 8.9204 21.4987 8.76567C21.6731 8.61093 21.812 8.42038 21.906 8.20703C22.0001 7.99369 22.0469 7.76258 22.0434 7.52946C22.0487 7.31179 22.0078 7.09546 21.9235 6.89472C21.8392 6.69398 21.7133 6.51338 21.5542 6.36476C21.3951 6.21614 21.2063 6.10289 21.0003 6.03245C20.7943 5.96201 20.5756 5.93599 20.3588 5.95608H17.7701L17.7653 5.95415ZM18.9695 7.00883H20.2706C20.3447 7.00235 20.4193 7.01155 20.4896 7.03584C20.5599 7.06013 20.6243 7.09897 20.6786 7.14981C20.7329 7.20065 20.7758 7.26234 20.8047 7.3309C20.8335 7.39945 20.8475 7.47333 20.8459 7.54769C20.8459 7.62219 20.8304 7.69588 20.8005 7.76412C20.7706 7.83237 20.7269 7.89366 20.6722 7.94419C20.6174 7.99472 20.5528 8.03336 20.4824 8.05769C20.4119 8.08202 20.3372 8.0915 20.263 8.08555H18.9657V7.00883H18.9695ZM22.5526 5.95415V10.6369H23.7261V8.97532H24.2199L25.6293 10.6369H27.0675L25.5239 8.91109C25.8797 8.87628 26.2094 8.70918 26.4479 8.44284C26.6863 8.17651 26.8161 7.83035 26.8115 7.4729C26.8124 7.26278 26.7695 7.05476 26.6858 6.86206C26.602 6.66937 26.4791 6.49619 26.3248 6.35349C26.1706 6.21079 25.9884 6.1017 25.7898 6.03312C25.5912 5.96455 25.3805 5.93798 25.171 5.95512H22.5593L22.5526 5.95415ZM23.7261 7.0002H25.0684C25.2067 6.99527 25.3415 7.0437 25.445 7.13544C25.5486 7.22718 25.6128 7.35521 25.6245 7.49303C25.6148 7.6284 25.5534 7.75487 25.4532 7.84637C25.3529 7.93788 25.2214 7.98745 25.0857 7.98489H23.7271V7.0002H23.7261ZM31.6707 10.6369V9.62156H34.0198C34.0788 9.6329 34.1395 9.63141 34.1979 9.6172C34.2563 9.60298 34.311 9.57635 34.3582 9.53916C34.4054 9.50196 34.444 9.45506 34.4715 9.40161C34.499 9.34816 34.5146 9.28944 34.5174 9.22941C34.5141 9.16944 34.4981 9.11084 34.4705 9.05748C34.443 9.00412 34.4044 8.95718 34.3574 8.91978C34.3104 8.88238 34.256 8.85534 34.1978 8.84046C34.1396 8.82557 34.0789 8.82317 34.0198 8.83341H32.9584C32.7681 8.85269 32.5758 8.83008 32.3952 8.7671C32.2145 8.70413 32.0499 8.60234 31.9128 8.46891C31.7757 8.33548 31.6695 8.17365 31.6017 7.99478C31.5339 7.81591 31.506 7.62435 31.5202 7.43357C31.5202 6.68379 31.99 5.95991 33.3611 5.95991H35.6468L35.1521 7.01457H33.176C33.1196 7.00143 33.0609 7.00067 33.0041 7.01228C32.9473 7.0239 32.8937 7.04765 32.8469 7.08189C32.8001 7.11614 32.7613 7.16009 32.7331 7.21073C32.7048 7.26136 32.6879 7.31749 32.6833 7.37529C32.6788 7.43308 32.6868 7.49119 32.7068 7.54561C32.7268 7.60003 32.7583 7.64949 32.7991 7.69062C32.84 7.73175 32.8893 7.76357 32.9435 7.7839C32.9978 7.80424 33.0559 7.81261 33.1137 7.80845H34.2259C34.4147 7.78011 34.6075 7.79421 34.7902 7.84968C34.973 7.90515 35.141 8.0006 35.2822 8.12914C35.4235 8.25768 35.5343 8.41609 35.6066 8.5928C35.679 8.76951 35.711 8.96013 35.7005 9.15079C35.7135 9.35355 35.6823 9.55669 35.6092 9.74623C35.536 9.93578 35.4226 10.1072 35.2767 10.2487C35.1309 10.3902 34.9561 10.4983 34.7644 10.5656C34.5727 10.633 34.3687 10.658 34.1665 10.6388H31.665L31.6707 10.6369ZM35.9776 10.6369V9.62156H38.3267C38.3857 9.6329 38.4464 9.63141 38.5048 9.6172C38.5632 9.60298 38.6179 9.57635 38.6651 9.53916C38.7123 9.50196 38.7509 9.45506 38.7784 9.40161C38.8059 9.34816 38.8215 9.28944 38.8243 9.22941C38.821 9.16944 38.805 9.11084 38.7774 9.05748C38.7499 9.00412 38.7113 8.95718 38.6643 8.91978C38.6173 8.88238 38.5629 8.85534 38.5047 8.84046C38.4465 8.82557 38.3859 8.82317 38.3267 8.83341H37.2653C37.075 8.85269 36.8827 8.83008 36.7021 8.7671C36.5215 8.70413 36.3568 8.60234 36.2197 8.46891C36.0826 8.33548 35.9764 8.17365 35.9086 7.99478C35.8408 7.81591 35.813 7.62435 35.8271 7.43357C35.8271 6.68379 36.2979 5.95991 37.668 5.95991H39.9576L39.4638 7.01457H37.4868C37.4303 7.00146 37.3716 7.00074 37.3148 7.0124C37.258 7.02406 37.2044 7.04785 37.1576 7.08216C37.1108 7.11646 37.072 7.16045 37.0438 7.21114C37.0157 7.26182 36.9988 7.31802 36.9943 7.37584C36.9898 7.43366 36.9979 7.49175 37.018 7.54616C37.038 7.60058 37.0696 7.65004 37.1105 7.69112C37.1515 7.7322 37.2008 7.76394 37.2551 7.7842C37.3095 7.80445 37.3676 7.81272 37.4254 7.80845H38.5366C38.7255 7.78011 38.9183 7.79421 39.101 7.84968C39.2837 7.90515 39.4518 8.0006 39.593 8.12914C39.7342 8.25768 39.845 8.41609 39.9174 8.5928C39.9897 8.76951 40.0218 8.96013 40.0113 9.15079C40.0243 9.35355 39.9931 9.55669 39.9199 9.74623C39.8468 9.93578 39.7333 10.1072 39.5875 10.2487C39.4417 10.3902 39.2669 10.4983 39.0752 10.5656C38.8835 10.633 38.6795 10.658 38.4772 10.6388H35.9757L35.9776 10.6369Z" fill="#016FD0"/>
</svg>
