<svg width="16" height="12" viewBox="0 0 16 12" fill="none" xmlns="http://www.w3.org/2000/svg">
<path fill-rule="evenodd" clip-rule="evenodd" d="M14.201 0H1.578C1.15983 0.000528584 0.758924 0.166801 0.463135 0.462402C0.167346 0.758004 0.000793672 1.15882 0 1.577V9.991C0.000529691 10.4093 0.167014 10.8102 0.46286 11.1059C0.758706 11.4015 1.15975 11.5677 1.578 11.568H14.198C14.6166 11.5683 15.0182 11.4023 15.3145 11.1066C15.6108 10.8109 15.7775 10.4096 15.778 9.991V1.577C15.7772 1.15899 15.6108 0.758342 15.3152 0.462769C15.0197 0.167195 14.619 0.000792926 14.201 0ZM1.05502 3.681H14.726V5.258H1.05502V3.681ZM1.58102 1.052H14.201C14.3402 1.05227 14.4736 1.10766 14.572 1.20605C14.6704 1.30445 14.7257 1.43784 14.726 1.577V2.629H1.05502V1.577C1.05528 1.43818 1.11041 1.3051 1.20837 1.20676C1.30634 1.10841 1.43919 1.05279 1.578 1.052H1.58102ZM14.201 10.516H1.578C1.43867 10.516 1.30504 10.4607 1.20642 10.3623C1.10781 10.2639 1.05227 10.1303 1.052 9.991V6.31H14.723V9.991C14.7228 10.1296 14.6678 10.2626 14.57 10.3609C14.4723 10.4592 14.3397 10.5149 14.201 10.516ZM5.26102 8.41599H2.63202C2.49252 8.41599 2.35872 8.47142 2.26007 8.57007C2.16143 8.66871 2.10602 8.80248 2.10602 8.94199C2.10602 9.08149 2.16143 9.21529 2.26007 9.31393C2.35872 9.41258 2.49252 9.46799 2.63202 9.46799H5.26102C5.40092 9.46799 5.53508 9.41243 5.634 9.31351C5.73293 9.21458 5.78851 9.08039 5.78851 8.94049C5.78851 8.80059 5.73293 8.66643 5.634 8.5675C5.53508 8.46858 5.40092 8.41299 5.26102 8.41299V8.41599Z" fill="black"/>
</svg>
