<svg width="40" height="13" viewBox="0 0 40 13" fill="none" xmlns="http://www.w3.org/2000/svg">
<path d="M15.1874 0.219956L9.95057 12.2562H6.53392L3.95685 2.65073C3.8004 2.05909 3.66436 1.84234 3.18852 1.59308C2.41165 1.18709 1.12874 0.806175 0 0.569762L0.0766661 0.219958H5.57643C6.27747 0.219958 6.90767 0.669506 7.06684 1.44718L8.42787 8.41196L11.7916 0.219758H15.1874V0.219956ZM28.5744 8.32647C28.5882 5.14973 24.0145 4.97473 24.0459 3.55564C24.0557 3.12375 24.4826 2.66457 25.417 2.54737C25.8801 2.48897 27.1561 2.44442 28.6034 3.08602L29.1711 0.533638C28.3934 0.261702 27.3928 0 26.1478 0C22.953 0 20.7047 1.63603 20.6857 3.9787C20.6651 5.71146 22.2905 6.67839 23.5151 7.25418C24.7749 7.84381 25.1976 8.22271 25.1928 8.75013C25.1838 9.55751 24.188 9.91393 23.2574 9.92798C21.6328 9.95206 20.6901 9.50452 19.9386 9.16796L19.3528 11.8048C20.108 12.1386 21.502 12.4298 22.9472 12.4444C26.3428 12.4444 28.564 10.8287 28.5744 8.32647ZM37.0106 12.2562H40L37.3906 0.219955H34.6315C34.0111 0.219955 33.4877 0.567954 33.2561 1.103L28.4059 12.2562H31.7998L32.4736 10.4584H36.6204L37.0106 12.2562ZM33.4042 7.99151L35.1054 3.47235L36.0846 7.99151H33.4042ZM19.8055 0.219956L17.1328 12.2562H13.9008L16.5745 0.219958H19.8055V0.219956Z" fill="#1434CB"/>
</svg>
