<svg width="50" height="32" viewBox="0 0 50 32" fill="none" xmlns="http://www.w3.org/2000/svg">
<g clip-path="url(#clip0_6822_8142)">
<path d="M44.3291 0H3.47062C1.55385 0 0 1.55385 0 3.47062V25.5596C0 27.4764 1.55385 29.0302 3.47062 29.0302H44.3291C46.2459 29.0302 47.7998 27.4764 47.7998 25.5596V3.47062C47.7998 1.55385 46.2459 0 44.3291 0Z" fill="#D1DCE5"/>
<path d="M47.7998 5.25546H0V11.2617H47.7998V5.25546Z" fill="#5D5D5D"/>
<path d="M44.1398 14.9374H3.69141V24.854H44.1398V14.9374Z" fill="white"/>
<path d="M49.0263 20.2797C49.0263 23.0131 48.0337 25.5128 46.3864 27.439C44.3631 29.807 41.3559 31.3071 37.9989 31.3071C34.6401 31.3071 31.6329 29.807 29.6114 27.439C27.964 25.5128 26.9697 23.0131 26.9697 20.2797C26.9697 17.7004 27.8549 15.3289 29.3377 13.4512C31.3557 10.8927 34.4859 9.25052 37.9989 9.25052C41.5118 9.25052 44.6403 10.8927 46.6601 13.4512C48.1428 15.3289 49.0263 17.7004 49.0263 20.2797Z" fill="#E6EEF4"/>
<path d="M49.0263 20.2797C49.0263 23.0132 48.0337 25.5128 46.3864 27.439H29.6114C27.964 25.5128 26.9697 23.0132 26.9697 20.2797C26.9697 17.7004 27.8549 15.3289 29.3377 13.4512H46.6601C48.1428 15.3289 49.0263 17.7004 49.0263 20.2797Z" fill="white"/>
<path d="M47.4635 13.0219C45.224 10.1848 41.8688 8.55762 38.2587 8.55762C34.6465 8.55762 31.2915 10.1848 29.0538 13.0219C27.407 15.1071 26.5366 17.6168 26.5366 20.2797C26.5366 23.0695 27.5337 25.772 29.3441 27.8888C31.5747 30.5015 34.8238 32 38.2587 32C41.6915 32 44.9406 30.5017 47.1726 27.8893C48.9823 25.7732 49.979 23.0708 49.979 20.2797C49.979 17.6152 49.1091 15.1054 47.4635 13.0219ZM38.2587 30.6142C35.2301 30.6142 32.3648 29.2929 30.3976 26.9887C28.8016 25.1221 27.9224 22.7395 27.9224 20.2797C27.9224 17.9316 28.6897 15.7188 30.1415 13.8804C32.115 11.3783 35.0735 9.94341 38.2587 9.94341C41.442 9.94341 44.4007 11.3784 46.3761 13.8806C47.8266 15.7174 48.5932 17.9301 48.5932 20.2797C48.5932 22.7407 47.7147 25.1234 46.1194 26.9889C44.1508 29.2929 41.2858 30.6142 38.2587 30.6142Z" fill="#EC6250"/>
<path d="M8.72803 21.6932V18.4313H10.6849V21.6932H8.72803ZM10.0327 19.0838H9.3802V21.0407H10.0327V19.0838Z" fill="#8E8E8E"/>
<path d="M12.5765 21.6932V19.0838H11.9243V18.4313H13.229V21.6932H12.5765Z" fill="#8E8E8E"/>
<path d="M14.4873 21.6932V18.4313H16.4442V21.6932H14.4873ZM15.792 19.0838H15.1395V21.0407H15.792V19.0838Z" fill="#8E8E8E"/>
<path d="M18.3362 21.6932V19.0838H17.6841V18.4313H18.9888V21.6932H18.3362Z" fill="#8E8E8E"/>
<path d="M20.2466 21.6932V18.4313H22.2034V21.6932H20.2466ZM21.5513 19.0838H20.8987V21.0407H21.5513V19.0838Z" fill="#8E8E8E"/>
<path d="M24.095 21.6932V19.0838H23.4429V18.4313H24.7476V21.6932H24.095Z" fill="#8E8E8E"/>
<path d="M31.9002 23.0914V18.2451H30.689V17.0332H33.1121V23.0914H31.9002Z" fill="black"/>
<path d="M35.4487 23.0914V19.457H37.8719V18.2451H35.4487V17.0332H39.0831V20.6689H36.66V21.8794H39.0831V23.0914H35.4487Z" fill="black"/>
<path d="M41.3076 23.0914V21.8794H43.7307V20.6689H42.5188V19.457H43.7307V18.2451H41.3076V17.0332H44.942V23.0914H41.3076Z" fill="black"/>
</g>
<defs>
<clipPath id="clip0_6822_8142">
<rect width="49.9789" height="32" fill="white"/>
</clipPath>
</defs>
</svg>
