<svg width="49" height="48" viewBox="0 0 49 48" fill="none" xmlns="http://www.w3.org/2000/svg">
<g clip-path="url(#clip0_5280_7240)">
<path d="M48.5 12C48.4797 9.3595 47.4652 6.82361 45.6587 4.89764C43.8523 2.97168 41.3865 1.79706 38.7527 1.60785C36.1189 1.41864 33.5105 2.22874 31.4473 3.87671C29.3841 5.52468 28.0176 7.88952 27.62 10.5H15.5C15.1022 10.5 14.7206 10.658 14.4393 10.9393C14.158 11.2206 14 11.6022 14 12C14 12.3978 14.158 12.7794 14.4393 13.0607C14.7206 13.342 15.1022 13.5 15.5 13.5H27.62C27.9927 16.1242 29.344 18.5103 31.4028 20.1796C33.4616 21.8489 36.0755 22.6778 38.72 22.5L37.04 30.345C36.9668 30.6861 36.777 30.9911 36.5032 31.2074C36.2294 31.4237 35.8888 31.5378 35.54 31.53H12.365L9.77 5.55C9.65807 4.43614 9.13498 3.404 8.30289 2.65512C7.4708 1.90623 6.38945 1.49439 5.27 1.5H2C1.60218 1.5 1.22064 1.65803 0.93934 1.93934C0.658035 2.22064 0.5 2.60217 0.5 3C0.5 3.39782 0.658035 3.77935 0.93934 4.06066C1.22064 4.34196 1.60218 4.5 2 4.5H5.285C5.65815 4.49813 6.0186 4.63541 6.29596 4.88504C6.57333 5.13466 6.74769 5.47871 6.785 5.85L9.38 31.8C8.37027 32.1811 7.53116 32.9125 7.01565 33.8606C6.50014 34.8088 6.34258 35.9107 6.57169 36.9654C6.80081 38.02 7.40134 38.9572 8.26379 39.6061C9.12624 40.2549 10.1932 40.5722 11.27 40.5C11.0233 41.1797 10.944 41.9088 11.0389 42.6257C11.1338 43.3425 11.4 44.0259 11.815 44.618C12.23 45.2102 12.7816 45.6936 13.423 46.0273C14.0645 46.361 14.7769 46.5353 15.5 46.5353C16.2231 46.5353 16.9355 46.361 17.577 46.0273C18.2184 45.6936 18.77 45.2102 19.185 44.618C19.6 44.0259 19.8662 43.3425 19.9611 42.6257C20.056 41.9088 19.9767 41.1797 19.73 40.5H26.27C26.0233 41.1797 25.944 41.9088 26.0389 42.6257C26.1338 43.3425 26.4 44.0259 26.815 44.618C27.23 45.2102 27.7816 45.6936 28.423 46.0273C29.0645 46.361 29.7769 46.5353 30.5 46.5353C31.2231 46.5353 31.9355 46.361 32.577 46.0273C33.2184 45.6936 33.77 45.2102 34.185 44.618C34.6 44.0259 34.8662 43.3425 34.9611 42.6257C35.056 41.9088 34.9767 41.1797 34.73 40.5H38C38.3978 40.5 38.7794 40.342 39.0607 40.0607C39.342 39.7794 39.5 39.3978 39.5 39C39.5 38.6022 39.342 38.2206 39.0607 37.9393C38.7794 37.658 38.3978 37.5 38 37.5H11C10.6022 37.5 10.2206 37.342 9.93934 37.0607C9.65804 36.7794 9.5 36.3978 9.5 36C9.5 35.6022 9.65804 35.2206 9.93934 34.9393C10.2206 34.658 10.6022 34.5 11 34.5H35.57C36.6011 34.5024 37.6018 34.1506 38.4045 33.5034C39.2073 32.8563 39.7635 31.9531 39.98 30.945L41.945 21.72C43.8803 20.9354 45.5378 19.5915 46.7054 17.86C47.8731 16.1286 48.4979 14.0883 48.5 12ZM17 42C17 42.2967 16.912 42.5867 16.7472 42.8334C16.5824 43.08 16.3481 43.2723 16.074 43.3858C15.7999 43.4993 15.4983 43.5291 15.2074 43.4712C14.9164 43.4133 14.6491 43.2704 14.4393 43.0607C14.2296 42.8509 14.0867 42.5836 14.0288 42.2926C13.9709 42.0017 14.0006 41.7001 14.1142 41.426C14.2277 41.1519 14.42 40.9176 14.6666 40.7528C14.9133 40.588 15.2033 40.5 15.5 40.5C15.8978 40.5 16.2794 40.658 16.5607 40.9393C16.842 41.2206 17 41.6022 17 42ZM32 42C32 42.2967 31.912 42.5867 31.7472 42.8334C31.5824 43.08 31.3481 43.2723 31.074 43.3858C30.7999 43.4993 30.4983 43.5291 30.2074 43.4712C29.9164 43.4133 29.6491 43.2704 29.4393 43.0607C29.2296 42.8509 29.0867 42.5836 29.0288 42.2926C28.9709 42.0017 29.0006 41.7001 29.1142 41.426C29.2277 41.1519 29.42 40.9176 29.6666 40.7528C29.9133 40.588 30.2033 40.5 30.5 40.5C30.8978 40.5 31.2794 40.658 31.5607 40.9393C31.842 41.2206 32 41.6022 32 42ZM38 19.5C36.5166 19.5 35.0666 19.0601 33.8332 18.236C32.5999 17.4119 31.6386 16.2406 31.0709 14.8701C30.5032 13.4997 30.3547 11.9917 30.6441 10.5368C30.9335 9.08196 31.6478 7.74559 32.6967 6.69669C33.7456 5.6478 35.082 4.9335 36.5368 4.64411C37.9917 4.35472 39.4997 4.50324 40.8701 5.0709C42.2406 5.63856 43.4119 6.59985 44.236 7.83322C45.0601 9.06659 45.5 10.5166 45.5 12C45.5 13.9891 44.7098 15.8968 43.3033 17.3033C41.8968 18.7098 39.9891 19.5 38 19.5Z" fill="black"/>
<path d="M41 10.5H39.5V9C39.5 8.60218 39.342 8.22064 39.0607 7.93934C38.7794 7.65804 38.3978 7.5 38 7.5C37.6022 7.5 37.2206 7.65804 36.9393 7.93934C36.658 8.22064 36.5 8.60218 36.5 9V10.5H35C34.6022 10.5 34.2206 10.658 33.9393 10.9393C33.658 11.2206 33.5 11.6022 33.5 12C33.5 12.3978 33.658 12.7794 33.9393 13.0607C34.2206 13.342 34.6022 13.5 35 13.5H36.5V15C36.5 15.3978 36.658 15.7794 36.9393 16.0607C37.2206 16.342 37.6022 16.5 38 16.5C38.3978 16.5 38.7794 16.342 39.0607 16.0607C39.342 15.7794 39.5 15.3978 39.5 15V13.5H41C41.3978 13.5 41.7794 13.342 42.0607 13.0607C42.342 12.7794 42.5 12.3978 42.5 12C42.5 11.6022 42.342 11.2206 42.0607 10.9393C41.7794 10.658 41.3978 10.5 41 10.5Z" fill="black"/>
</g>
<defs>
<clipPath id="clip0_5280_7240">
<rect width="48" height="48" fill="white" transform="translate(0.5)"/>
</clipPath>
</defs>
</svg>
