<svg width="21" height="20" viewBox="0 0 21 20" fill="none" xmlns="http://www.w3.org/2000/svg">
<path fill-rule="evenodd" clip-rule="evenodd" d="M20.021 4.034C19.9494 3.9311 19.854 3.84706 19.7429 3.78907C19.6318 3.73107 19.5083 3.70086 19.383 3.701L5.65399 3.726L5.38901 1.646C5.33032 1.1919 5.1086 0.774594 4.76514 0.47179C4.42168 0.168986 3.97988 0.00131622 3.522 0H0.5C0.367392 0 0.240222 0.052678 0.146454 0.146446C0.0526857 0.240214 0 0.367392 0 0.5C0 0.632608 0.0526857 0.759786 0.146454 0.853554C0.240222 0.947322 0.367392 1 0.5 1H3.522C3.73705 1.00064 3.94454 1.07939 4.10587 1.22158C4.26719 1.36378 4.37135 1.55973 4.39899 1.773L5.73401 12.235C5.79247 12.6893 6.01409 13.1068 6.35757 13.4098C6.70106 13.7128 7.14295 13.8807 7.60098 13.882H15.407C15.7906 13.8805 16.1647 13.7623 16.4796 13.5431C16.7945 13.324 17.0353 13.0142 17.17 12.655L20.114 4.75C20.1577 4.63205 20.1721 4.50526 20.1559 4.38053C20.1397 4.2558 20.0934 4.13687 20.021 4.034ZM19.064 4.702L16.233 12.302C16.1693 12.4706 16.0559 12.6159 15.9079 12.7187C15.7599 12.8216 15.5842 12.8771 15.404 12.878H7.59799C7.38289 12.8776 7.17529 12.7989 7.01392 12.6567C6.85255 12.5144 6.74844 12.3183 6.72101 12.105L5.78 4.723L19.064 4.702ZM15.464 15.255C15.055 15.2542 14.655 15.3748 14.3145 15.6014C13.9741 15.828 13.7085 16.1506 13.5515 16.5282C13.3944 16.9058 13.3529 17.3216 13.4322 17.7228C13.5115 18.124 13.7081 18.4927 13.997 18.7822C14.2859 19.0716 14.6542 19.2689 15.0553 19.349C15.4563 19.4291 15.8722 19.3884 16.2501 19.232C16.628 19.0757 16.9511 18.8108 17.1784 18.4708C17.4057 18.1308 17.527 17.731 17.527 17.322C17.5271 17.0504 17.4737 16.7814 17.3698 16.5305C17.266 16.2795 17.1137 16.0515 16.9216 15.8594C16.7295 15.6674 16.5015 15.515 16.2505 15.4112C15.9996 15.3073 15.7306 15.2539 15.459 15.254L15.464 15.255ZM16.529 17.322C16.5286 17.5326 16.4658 17.7383 16.3485 17.9131C16.2313 18.088 16.0648 18.2242 15.8702 18.3045C15.6755 18.3848 15.4615 18.4056 15.255 18.3643C15.0485 18.323 14.859 18.2214 14.7102 18.0724C14.5615 17.9233 14.4602 17.7336 14.4193 17.527C14.3784 17.3205 14.3996 17.1065 14.4803 16.912C14.5609 16.7175 14.6974 16.5513 14.8725 16.4343C15.0476 16.3174 15.2534 16.255 15.464 16.255C15.7453 16.2571 16.0145 16.3701 16.213 16.5696C16.4114 16.769 16.5232 17.0386 16.524 17.32L16.529 17.322ZM7.29199 15.255C6.88301 15.2542 6.48299 15.3748 6.14255 15.6014C5.80211 15.828 5.53655 16.1506 5.37949 16.5282C5.22243 16.9058 5.18092 17.3216 5.26022 17.7228C5.33953 18.124 5.53607 18.4927 5.82498 18.7822C6.1139 19.0716 6.4822 19.2689 6.88327 19.349C7.28434 19.4291 7.70014 19.3884 8.07806 19.232C8.45599 19.0757 8.77908 18.8108 9.00638 18.4708C9.23368 18.1308 9.35501 17.731 9.35501 17.322C9.35501 16.7735 9.13712 16.2475 8.7493 15.8597C8.36147 15.4719 7.83545 15.254 7.28699 15.254L7.29199 15.255ZM8.35699 17.322C8.3566 17.5326 8.29381 17.7383 8.17654 17.9131C8.05928 18.088 7.89282 18.2242 7.69818 18.3045C7.50354 18.3848 7.28947 18.4056 7.08301 18.3643C6.87655 18.323 6.68698 18.2214 6.53824 18.0724C6.3895 17.9233 6.28825 17.7336 6.24731 17.527C6.20638 17.3205 6.22759 17.1065 6.30826 16.912C6.38892 16.7175 6.52544 16.5513 6.70053 16.4343C6.87563 16.3174 7.08144 16.255 7.29199 16.255C7.57334 16.2571 7.84248 16.3701 8.04095 16.5696C8.23943 16.769 8.35121 17.0386 8.35199 17.32L8.35699 17.322Z" fill="white"/>
</svg>
