<svg width="14" height="17" viewBox="0 0 14 17" fill="none" xmlns="http://www.w3.org/2000/svg">
<path d="M11.3582 10.9967V7.13265C11.3628 7.11386 11.3661 7.09473 11.3661 7.07454C11.3661 7.05452 11.3628 7.03521 11.3582 7.01661V2.61181C11.3582 2.60777 11.3572 2.60391 11.357 2.59969C11.3565 2.59144 11.3558 2.58302 11.3544 2.57476C11.3531 2.56721 11.3517 2.56002 11.3498 2.55265C11.3479 2.54509 11.3456 2.53772 11.343 2.53035C11.3401 2.5228 11.3372 2.51561 11.3337 2.5084C11.3303 2.50173 11.327 2.49524 11.3229 2.48891C11.3186 2.48154 11.314 2.4747 11.3085 2.46785C11.3063 2.46468 11.3045 2.461 11.3019 2.45784C11.0903 2.20714 10.5805 1.54791 10.3647 1.06776C10.5679 0.985242 10.7115 0.786515 10.7115 0.554594C10.7115 0.248768 10.4627 0 10.1569 0H4.20136C3.89553 0 3.64676 0.248767 3.64676 0.554594C3.64676 0.786515 3.79037 0.985242 3.99314 1.06776C3.77773 1.54792 3.26773 2.20714 3.05635 2.45784C3.05354 2.461 3.05196 2.46469 3.04951 2.46785C3.04424 2.4747 3.0395 2.48154 3.03493 2.48892C3.03125 2.49524 3.02756 2.50173 3.02458 2.50841C3.02089 2.51561 3.01808 2.5228 3.01527 2.53035C3.01264 2.53772 3.01018 2.54509 3.00825 2.55265C3.00632 2.56002 3.00492 2.56721 3.00369 2.57477C3.00246 2.58302 3.00158 2.59144 3.00123 2.59969C3.00105 2.60391 3 2.60777 3 2.61181V14.8357C3 14.8503 3.00175 14.8643 3.00421 14.8782L3.00474 14.8827C3.00843 14.9012 3.01457 14.9187 3.0223 14.9354L3.02388 14.9398L3.47155 15.8652C3.51141 15.9475 3.59497 16 3.68644 16H10.6716C10.7633 16 10.8468 15.9475 10.8865 15.8652L11.3344 14.9398L11.3359 14.9354C11.3435 14.9187 11.3498 14.9012 11.3533 14.8827L11.3538 14.8782C11.3565 14.8643 11.3582 14.8503 11.3582 14.8357V11.1128C11.3628 11.094 11.3661 11.0748 11.3661 11.0547C11.3661 11.0346 11.3628 11.0153 11.3582 10.9967M9.86632 1.10902C10.017 1.52404 10.3646 2.02842 10.6249 2.37305H9.50747C9.37563 2.37305 9.26854 2.47997 9.26854 2.61181C9.26854 2.74383 9.37563 2.85075 9.50747 2.85075H10.8805V6.83578H9.19077C8.69358 6.1762 7.97589 5.76118 7.17902 5.76118C6.38233 5.76118 5.66465 6.1762 5.16729 6.83578H3.47752V2.85075H8.16883C8.30068 2.85075 8.40759 2.74383 8.40759 2.61181C8.40759 2.47997 8.30068 2.37305 8.16883 2.37305H3.73331C3.99367 2.02842 4.34128 1.52404 4.49191 1.10902H9.86632V1.10902ZM4.94029 9.02992C4.94029 7.4908 5.94466 6.23887 7.17902 6.23887C8.41356 6.23887 9.41794 7.4908 9.41794 9.02992C9.41794 10.5689 8.41356 11.8208 7.17902 11.8208C5.94466 11.8208 4.94029 10.5689 4.94029 9.02992ZM4.90588 10.8159H3.47752V7.31348H4.86866C4.61164 7.8126 4.46259 8.40055 4.46259 9.02992C4.46259 9.68863 4.62604 10.302 4.90588 10.8159M9.48957 7.31348H10.8805V10.8159H9.45235C9.73219 10.302 9.89546 9.68863 9.89546 9.02992C9.89546 8.40055 9.74659 7.8126 9.48957 7.31348ZM3.47752 11.2936H5.22224C5.71696 11.9123 6.41095 12.2985 7.17903 12.2985C7.9471 12.2985 8.64127 11.9123 9.13582 11.2936H10.8805V14.5969H3.47752V11.2936ZM4.20136 0.47753H10.1569C10.1994 0.47753 10.2338 0.512108 10.2338 0.554594C10.2338 0.596909 10.1994 0.631487 10.1569 0.631487H4.20136C4.15887 0.631487 4.12446 0.596909 4.12446 0.554594C4.12446 0.512108 4.15887 0.47753 4.20136 0.47753M10.5219 15.5223H3.83637L3.61973 15.0746H10.7385L10.5219 15.5223Z" fill="black"/>
</svg>
