<svg width="20" height="40" viewBox="0 0 20 40" fill="none" xmlns="http://www.w3.org/2000/svg">
<g clip-path="url(#clip0_15736_15684)">
<path d="M13.4747 18.0626C11.4926 16.392 8.52139 16.6451 6.85086 18.6272C6.64447 18.8706 6.46534 19.1354 6.31349 19.4138C6.20056 19.6202 6.24923 19.8772 6.42641 20.0311L12.6764 25.3739C12.7698 25.4537 12.8847 25.4946 12.9996 25.4946C13.1067 25.4946 13.2138 25.4595 13.3033 25.3914C13.5701 25.1869 13.8173 24.9514 14.0374 24.6905C14.8474 23.7306 15.2328 22.5137 15.1277 21.2617C15.0226 20.0059 14.4346 18.8708 13.4747 18.0627L13.4747 18.0626ZM13.2761 24.0439C13.1884 24.1471 13.0969 24.2445 13.0015 24.336L7.39804 19.5482C7.46424 19.4528 7.53628 19.3593 7.61221 19.2698C8.9284 17.7082 11.2707 17.5097 12.8324 18.8258C13.5878 19.4644 14.0512 20.3581 14.135 21.3434C14.2187 22.3266 13.915 23.2865 13.2763 24.0439L13.2761 24.0439Z" fill="black"/>
<path d="M12.2226 20.339C12.3998 20.1287 12.3745 19.8133 12.1642 19.6361C11.9539 19.4589 11.6385 19.4862 11.4613 19.6964L11.1809 20.0294C11.0037 20.2397 11.029 20.5551 11.2393 20.7323C11.3328 20.8102 11.4476 20.8491 11.5606 20.8491C11.7027 20.8491 11.8429 20.7888 11.9422 20.6719L12.2226 20.339Z" fill="black"/>
<path d="M10.4217 19.231C10.3652 18.9623 10.1004 18.7909 9.82975 18.8474C9.56106 18.9058 9.38972 19.1706 9.44618 19.4393L9.57664 20.0546C9.62726 20.2882 9.83364 20.4498 10.0634 20.4498C10.0984 20.4498 10.1335 20.4459 10.1685 20.4381C10.4372 20.3797 10.6086 20.1149 10.5521 19.8462L10.4217 19.231Z" fill="black"/>
<path d="M12.8436 21.2696L12.2575 21.2404C11.985 21.2189 11.7494 21.439 11.7357 21.7135C11.7221 21.988 11.9343 22.2217 12.2089 22.2353L12.7949 22.2645H12.8202C13.085 22.2645 13.3051 22.0581 13.3187 21.7894C13.3304 21.5169 13.1201 21.2832 12.8436 21.2696H12.8436Z" fill="black"/>
<path d="M10.6689 26.0591C10.5716 25.8449 10.336 25.7281 10.1082 25.7787C9.77716 25.8527 9.45395 25.9618 9.14631 26.1019C6.79232 27.1865 5.75845 29.9844 6.84491 32.3404C7.63733 34.0597 9.34295 35.0741 11.1206 35.0741C11.7787 35.0741 12.4466 34.9359 13.0813 34.6419C13.3694 34.5095 13.6459 34.3459 13.901 34.159C14.0918 34.0188 14.158 33.7657 14.0606 33.5515L10.6689 26.0591ZM12.6646 33.7341C10.8091 34.5889 8.60505 33.775 7.75028 31.9195C6.89555 30.0659 7.70939 27.8599 9.56296 27.0051C9.68562 26.9487 9.81023 26.9 9.93679 26.8572L12.9761 33.5707C12.8749 33.631 12.7698 33.6836 12.6646 33.7342V33.7341Z" fill="black"/>
<path d="M9.33902 30.6249L8.94377 30.8079C8.69455 30.9228 8.58552 31.2207 8.70039 31.4699C8.78411 31.6529 8.96519 31.76 9.1521 31.76C9.2222 31.76 9.29229 31.7444 9.36044 31.7132L9.75569 31.5302C10.0049 31.4153 10.1139 31.1175 9.99907 30.8682C9.88614 30.619 9.58824 30.51 9.33903 30.6249H9.33902Z" fill="black"/>
<path d="M10.476 33.1759C10.5149 33.1856 10.5519 33.1895 10.5889 33.1895C10.8148 33.1895 11.0211 33.0337 11.0737 32.804L11.2158 32.1926C11.2782 31.9239 11.1107 31.6572 10.844 31.5949C10.5753 31.5287 10.3085 31.7 10.2443 31.9668L10.1022 32.5781C10.0418 32.8449 10.2092 33.1136 10.476 33.1759L10.476 33.1759Z" fill="black"/>
<path d="M9.76169 29.0946L9.24376 28.8201C9.00038 28.6916 8.69856 28.7851 8.57007 29.0265C8.44156 29.2699 8.53502 29.5717 8.77645 29.7002L9.29438 29.9747C9.36837 30.0136 9.4482 30.0331 9.52803 30.0331C9.70716 30.0331 9.88044 29.9358 9.96806 29.7683C10.0985 29.5249 10.0051 29.2231 9.76167 29.0946H9.76169Z" fill="black"/>
<path d="M6.20436 0.0214814C4.77717 0.177245 3.57587 1.22477 3.21371 2.62664C3.10467 3.05499 3.07547 3.49503 3.12803 3.92728C2.87881 3.92922 2.6257 3.95453 2.38037 4.02463C1.3309 4.31668 0.565739 5.24347 0.476169 6.32798C0.415813 7.06203 0.665034 7.79215 1.16153 8.32952C1.4127 8.60211 1.71644 8.81434 2.04935 8.95841L3.31689 28.8318C3.41424 30.4556 3.34999 32.0912 3.12803 33.6663L2.35504 37.5487C2.26353 38.199 2.44461 38.861 2.8418 39.3166C3.15528 39.6768 3.56998 39.8754 4.012 39.8754H16.335C16.7789 39.8754 17.1956 39.6768 17.5091 39.3128C17.9063 38.8532 18.0854 38.1913 17.9861 37.5098L17.2423 33.9369C17.0067 32.3151 16.9386 30.6581 17.0359 29.0148L18.3074 8.90368C18.6111 8.76738 18.8876 8.58437 19.1212 8.34293C19.643 7.79973 19.9156 7.04813 19.8844 6.2265C19.8416 5.06024 19.0998 4.04581 18.0386 3.63305C17.9841 2.76078 17.6064 1.95858 16.9659 1.36279C16.3019 0.747517 15.4433 0.42044 14.5398 0.461312C13.6247 0.496359 12.7875 0.889663 12.1819 1.55943C11.3603 1.13303 10.3283 1.14276 9.5106 1.58085C8.79798 0.490505 7.53437 -0.124772 6.20453 0.0212712L6.20436 0.0214814ZM17.0046 37.6833C17.0572 38.0474 16.9618 38.4212 16.7554 38.6607C16.6678 38.76 16.5256 38.8788 16.3348 38.8788H4.01184C3.82103 38.8788 3.67889 38.7619 3.59322 38.6626C3.38684 38.4251 3.28948 38.0512 3.33622 37.7164L4.1092 33.834C4.34674 32.1634 4.41294 30.4617 4.31169 28.7698L3.50756 16.1547C5.60645 15.9522 7.10766 15.6037 8.55429 15.261C10.7545 14.7431 12.8436 14.2544 16.9715 14.2213L16.0408 28.9548C15.9376 30.6682 16.0096 32.3932 16.2608 34.1127L17.0046 37.6833ZM17.0338 13.2247C12.7445 13.2559 10.4957 13.7816 8.32652 14.2917C6.85652 14.6383 5.45659 14.9634 3.44528 15.1601L3.06366 9.17079C3.0695 9.17079 3.07729 9.17274 3.08313 9.17274H5.39426C5.45072 9.17274 5.49745 9.21947 5.49745 9.27982V10.892C5.49745 12.0018 6.32885 12.9519 7.38804 13.0532C7.45424 13.059 7.52044 13.0629 7.58859 13.0629C8.10846 13.0629 8.61274 12.8702 9.00018 12.5197C9.43826 12.1225 9.68942 11.554 9.68942 10.9621V9.28178C9.68942 9.22337 9.73615 9.1747 9.79261 9.1747H17.0415C17.1271 9.1747 17.207 9.15912 17.2907 9.15328L17.0338 13.2247ZM11.9951 2.61737C12.1041 2.69914 12.2423 2.73614 12.3767 2.71083C12.511 2.68941 12.6298 2.61348 12.7077 2.50054C13.1399 1.86777 13.8214 1.48811 14.5788 1.4589C15.2154 1.43943 15.8191 1.66139 16.2844 2.09362C16.7517 2.5278 17.0204 3.11776 17.0437 3.75637C17.0457 3.83036 17.0437 3.90435 17.0398 3.97639C17.0262 4.21782 17.1898 4.43394 17.4254 4.48844C18.2529 4.68119 18.8545 5.41135 18.8856 6.26608C18.9071 6.81517 18.7338 7.30972 18.4008 7.65434C18.0718 7.99702 17.6025 8.17616 17.0418 8.17616H9.79292C9.18542 8.17616 8.69286 8.67071 8.69286 9.28011V10.9604C8.69286 11.2719 8.56046 11.5718 8.33071 11.7801C8.09901 11.9904 7.79917 12.0877 7.4857 12.0605C6.93078 12.0079 6.49659 11.4939 6.49659 10.8922V9.28006C6.49659 8.67256 6.00204 8.17611 5.39653 8.17611H3.0854C2.6298 8.17611 2.20924 7.99115 1.89771 7.65429C1.58619 7.31551 1.43432 6.87353 1.47326 6.40819C1.52777 5.74621 2.01257 5.16208 2.65123 4.98294C2.79531 4.94205 2.93939 4.92258 3.08347 4.92258C3.26455 4.92258 3.44562 4.95374 3.62473 5.01799C3.80775 5.08419 4.01025 5.03746 4.14655 4.89922C4.28284 4.76098 4.32762 4.55654 4.25948 4.37546C4.0784 3.8848 4.05114 3.38052 4.1816 2.8743C4.44055 1.87158 5.29726 1.12392 6.31358 1.01292C7.4117 0.894149 8.4378 1.49189 8.87588 2.49853C8.93818 2.64261 9.06669 2.74775 9.21856 2.78474C9.37237 2.81979 9.53397 2.78085 9.65274 2.6796C10.3069 2.13052 11.3077 2.09936 11.995 2.61729L11.9951 2.61737Z" fill="black"/>
</g>
<defs>
<clipPath id="clip0_15736_15684">
<rect width="20" height="40" fill="white"/>
</clipPath>
</defs>
</svg>
