<svg width="14" height="14" viewBox="0 0 14 14" fill="none" xmlns="http://www.w3.org/2000/svg">
<circle cx="7" cy="7" r="7" fill="#58BE48"/>
<path fill-rule="evenodd" clip-rule="evenodd" d="M6.52188 8.86293C6.47783 8.90504 6.42479 8.93869 6.36594 8.96185C6.3071 8.98502 6.24366 8.99722 6.17945 8.99773C6.11524 8.99823 6.05158 8.98704 5.99229 8.96481C5.933 8.94258 5.87931 8.90977 5.83445 8.86837V8.86837L4.15203 7.29228C4.1039 7.24977 4.06566 7.19904 4.03955 7.14305C4.01345 7.08705 4 7.02693 4 6.96619C4 6.90546 4.01345 6.84533 4.03955 6.78934C4.06566 6.73335 4.1039 6.68261 4.15203 6.64011C4.24119 6.56078 4.36143 6.5163 4.48671 6.5163C4.61199 6.5163 4.73222 6.56078 4.82138 6.64011L6.17213 7.92271L9.18721 5.1238C9.27637 5.04448 9.3966 5 9.52188 5C9.64716 5 9.7674 5.04448 9.85656 5.1238V5.1238C9.94611 5.20782 9.99612 5.3198 9.99612 5.4363C9.99612 5.5528 9.94611 5.66479 9.85656 5.7488L6.52188 8.86293Z" fill="white"/>
</svg>
