<svg width="20" height="20" viewBox="0 0 20 20" fill="none" xmlns="http://www.w3.org/2000/svg">
<rect x="1" y="1" width="18" height="18" fill="white" stroke="#4B4F54" stroke-width="2"/>
<g clip-path="url(#clip0_78_2229)">
<path fill-rule="evenodd" clip-rule="evenodd" d="M9.16015 13.12C9.0871 13.1975 8.99914 13.2594 8.90155 13.302C8.80396 13.3446 8.69877 13.3671 8.59228 13.368C8.4858 13.369 8.38022 13.3484 8.2819 13.3075C8.18358 13.2665 8.09455 13.2062 8.02015 13.13L5.23015 10.23C5.15033 10.1518 5.08691 10.0584 5.04362 9.95541C5.00033 9.85238 4.97803 9.74175 4.97803 9.63C4.97803 9.51825 5.00033 9.40762 5.04362 9.30459C5.08691 9.20157 5.15033 9.10821 5.23015 9.03C5.378 8.88405 5.57739 8.80221 5.78515 8.80221C5.99291 8.80221 6.1923 8.88405 6.34015 9.03L8.58015 11.39L13.5802 6.24C13.728 6.09405 13.9274 6.01221 14.1351 6.01221C14.3429 6.01221 14.5423 6.09405 14.6902 6.24C14.8387 6.39459 14.9216 6.60064 14.9216 6.815C14.9216 7.02936 14.8387 7.23541 14.6902 7.39L9.16015 13.12Z" fill="#B95804"/>
</g>
<defs>
<clipPath id="clip0_78_2229">
<rect width="9.95" height="7.36" fill="white" transform="translate(5 6)"/>
</clipPath>
</defs>
</svg>
