<svg width="49" height="48" viewBox="0 0 49 48" fill="none" xmlns="http://www.w3.org/2000/svg">
<path d="M17.82 33.435L11.685 27.315C10.8112 26.433 10.3209 25.2416 10.3209 24C10.3209 22.7584 10.8112 21.567 11.685 20.685C12.578 19.8323 13.7653 19.3564 15 19.3564C16.2348 19.3564 17.4221 19.8323 18.315 20.685L21 23.385L29.6851 14.685C30.578 13.8323 31.7653 13.3564 33 13.3564C34.2348 13.3564 35.4221 13.8323 36.3151 14.685C37.1889 15.567 37.6792 16.7584 37.6792 18C37.6792 19.2416 37.1889 20.433 36.3151 21.315L24.1801 33.435C23.3363 34.2777 22.1926 34.7511 21 34.7511C19.8075 34.7511 18.6638 34.2777 17.82 33.435ZM15 22.32C14.6686 22.3212 14.345 22.4203 14.0698 22.605C13.7946 22.7897 13.5801 23.0516 13.4535 23.3579C13.3268 23.6642 13.2935 24.001 13.3579 24.3262C13.4222 24.6513 13.5813 24.9501 13.815 25.185L19.935 31.32C20.0745 31.4606 20.2404 31.5722 20.4232 31.6484C20.606 31.7245 20.802 31.7637 21 31.7637C21.1981 31.7637 21.3941 31.7245 21.5769 31.6484C21.7597 31.5722 21.9256 31.4606 22.065 31.32L34.1851 19.185C34.342 19.0301 34.4666 18.8456 34.5516 18.6422C34.6366 18.4388 34.6804 18.2205 34.6804 18C34.6804 17.7795 34.6366 17.5613 34.5516 17.3578C34.4666 17.1544 34.342 16.9699 34.1851 16.815C33.8683 16.5054 33.443 16.332 33 16.332C32.5571 16.332 32.1318 16.5054 31.815 16.815L22.065 26.565C21.9256 26.7056 21.7597 26.8172 21.5769 26.8934C21.3941 26.9695 21.1981 27.0087 21 27.0087C20.802 27.0087 20.606 26.9695 20.4232 26.8934C20.2404 26.8172 20.0745 26.7056 19.935 26.565L16.185 22.815C16.0301 22.6582 15.8456 22.5336 15.6422 22.4487C15.4388 22.3637 15.2205 22.32 15 22.32Z" fill="black"/>
<path d="M19.7 47.5201C19.503 47.4807 19.3157 47.4029 19.1488 47.2911C18.9819 47.1793 18.8386 47.0357 18.7272 46.8686C18.6158 46.7014 18.5384 46.514 18.4994 46.3169C18.4604 46.1199 18.4606 45.917 18.5 45.7201C18.5394 45.5231 18.6172 45.3358 18.729 45.1689C18.8408 45.002 18.9843 44.8587 19.1515 44.7473C19.3186 44.6358 19.5061 44.5584 19.7031 44.5194C19.9002 44.4805 20.103 44.4807 20.3 44.5201C25.5053 45.5785 30.9183 44.6251 35.4487 41.8518C39.9791 39.0784 43.2902 34.6913 44.715 29.5742C46.1398 24.457 45.5725 18.99 43.1274 14.2744C40.6822 9.55882 36.5409 5.94505 31.5376 4.16103C26.5343 2.37702 21.0408 2.55533 16.1638 4.66004C11.2867 6.76475 7.38842 10.6395 5.25419 15.5037C3.11997 20.3679 2.90838 25.8602 4.66204 30.8742C6.41571 35.8882 10.0043 40.0514 14.705 42.5251C14.8926 42.6093 15.0609 42.7312 15.1994 42.8832C15.3379 43.0352 15.4437 43.214 15.5102 43.4086C15.5767 43.6032 15.6024 43.8094 15.5858 44.0144C15.5693 44.2194 15.5107 44.4188 15.4138 44.6002C15.3169 44.7816 15.1838 44.9411 15.0227 45.0689C14.8615 45.1966 14.6758 45.2899 14.4771 45.3429C14.2784 45.3959 14.0709 45.4074 13.8676 45.3768C13.6642 45.3462 13.4693 45.2742 13.295 45.1651C7.92866 42.3283 3.83656 37.5634 1.84283 31.8302C-0.150896 26.097 0.101857 19.8212 2.55019 14.2669C4.99852 8.71255 9.46055 4.29224 15.0376 1.8962C20.6147 -0.499853 26.8926 -0.693643 32.6068 1.35386C38.3211 3.40135 43.0473 7.53803 45.8335 12.9308C48.6198 18.3235 49.2591 24.5717 47.6228 30.417C45.9865 36.2623 42.1961 41.2705 37.0149 44.4329C31.8338 47.5952 25.6468 48.6769 19.7 47.4601V47.5201Z" fill="black"/>
</svg>
