<svg width="16" height="16" viewBox="0 0 16 16" fill="none" xmlns="http://www.w3.org/2000/svg">
<path fill-rule="evenodd" clip-rule="evenodd" d="M3.72966 14.7598C3.6746 14.7246 3.62691 14.6787 3.5893 14.6247C3.55169 14.5707 3.5249 14.5097 3.51047 14.4451C3.49605 14.3806 3.49429 14.3136 3.50525 14.2484C3.51621 14.1831 3.53969 14.1208 3.57436 14.0648C3.64683 13.9516 3.7603 13.8723 3.89004 13.8439C4.01977 13.8156 4.15521 13.8407 4.26685 13.9137C5.31941 14.583 6.52749 14.9561 7.76788 14.995C9.00826 15.0339 10.2366 14.7372 11.3277 14.1351C12.4187 13.533 13.3334 12.647 13.9785 11.5676C14.6236 10.4881 14.976 9.25386 14.9998 7.99049C14.9805 6.11886 14.2326 4.3315 12.9203 3.0208C11.6081 1.71009 9.83864 0.983091 8.0005 0.999472C6.65538 0.977963 5.3337 1.35947 4.1998 2.09658C3.06589 2.83369 2.16974 3.89393 1.62277 5.14541C1.0758 6.3969 0.90214 7.78451 1.12335 9.13568C1.34456 10.4868 1.95092 11.742 2.86701 12.7451C2.9115 12.7928 2.94617 12.8491 2.96897 12.9106C2.99176 12.9722 3.00222 13.0377 2.99973 13.1034C2.99724 13.1692 2.98186 13.2337 2.95447 13.2933C2.92709 13.3529 2.88826 13.4063 2.84029 13.4503C2.74353 13.5421 2.61523 13.5913 2.48307 13.5876C2.35091 13.5838 2.22551 13.5273 2.13394 13.4302C0.76361 11.9628 -0.000394087 10.0153 1.525e-07 7.99049C0.0403549 5.85724 0.900946 3.82519 2.39684 2.33108C3.89274 0.83696 5.90455 0 7.99999 0C10.0954 0 12.1073 0.83696 13.6032 2.33108C15.0991 3.82519 15.9596 5.85724 16 7.99049C15.9724 9.43463 15.5692 10.8455 14.8315 12.0793C14.0939 13.313 13.0481 14.3255 11.8009 15.0136C10.5536 15.7017 9.14949 16.0407 7.73162 15.9961C6.31374 15.9515 4.93283 15.5249 3.72966 14.7598ZM8.00642 2.99411C7.90884 2.99292 7.81381 2.96226 7.73325 2.90619C7.65269 2.85013 7.59023 2.77108 7.5537 2.67895C7.51717 2.58682 7.5082 2.4858 7.52795 2.3885C7.5477 2.2912 7.59527 2.20195 7.66468 2.13212C7.73409 2.06228 7.82223 2.01494 7.91802 1.99599C8.0138 1.97704 8.11298 1.98734 8.20302 2.02563C8.29306 2.06392 8.36996 2.12849 8.42405 2.21118C8.47814 2.29388 8.50701 2.39108 8.50702 2.49044C8.50702 2.5571 8.49402 2.62298 8.46879 2.68448C8.44356 2.74599 8.40661 2.80179 8.36004 2.84864C8.31348 2.89549 8.25826 2.93252 8.19756 2.95747C8.13686 2.98242 8.07187 2.99491 8.00642 2.99411ZM13.507 8.49416C13.4091 8.49416 13.3135 8.46466 13.2321 8.40931C13.1508 8.35397 13.0874 8.27521 13.05 8.18318C13.0125 8.09115 13.0027 7.98994 13.0218 7.89224C13.0409 7.79454 13.088 7.70482 13.1572 7.63438C13.2264 7.56394 13.3145 7.51597 13.4104 7.49653C13.5064 7.4771 13.6059 7.48706 13.6962 7.52519C13.7866 7.56331 13.8639 7.62779 13.9182 7.71062C13.9726 7.79345 14.0016 7.89087 14.0016 7.99049C14.0016 8.12407 13.9495 8.25214 13.8567 8.3466C13.764 8.44106 13.6382 8.49416 13.507 8.49416ZM8.00642 13.9841C7.87573 13.986 7.74964 13.9352 7.65566 13.8427C7.56167 13.7502 7.50745 13.6236 7.50485 13.4905C7.50616 13.3561 7.55965 13.2278 7.65363 13.1334C7.74761 13.0391 7.87442 12.9863 8.00642 12.9869C8.07656 12.9767 8.14804 12.982 8.216 13.0024C8.28397 13.0228 8.34686 13.0578 8.40038 13.105C8.4539 13.1523 8.4968 13.2108 8.52622 13.2765C8.55563 13.3421 8.57087 13.4134 8.57087 13.4855C8.57087 13.5576 8.55563 13.629 8.52622 13.6947C8.4968 13.7603 8.4539 13.8187 8.40038 13.866C8.34686 13.9132 8.28397 13.9482 8.216 13.9686C8.14804 13.989 8.07656 13.9943 8.00642 13.9841ZM2.50689 8.49416C2.40906 8.49416 2.31344 8.46466 2.23209 8.40931C2.15075 8.35397 2.08733 8.27521 2.04989 8.18318C2.01245 8.09115 2.00266 7.98994 2.02175 7.89224C2.04084 7.79454 2.08795 7.70482 2.15713 7.63438C2.2263 7.56394 2.31445 7.51597 2.4104 7.49653C2.50635 7.4771 2.6058 7.48706 2.69619 7.52519C2.78657 7.56331 2.86383 7.62779 2.91818 7.71062C2.97254 7.79345 3.00154 7.89087 3.00154 7.99049C3.00154 8.12407 2.94942 8.25214 2.85665 8.3466C2.76389 8.44106 2.63808 8.49416 2.50689 8.49416ZM5.99717 10.4887C5.89976 10.4887 5.80451 10.4594 5.72339 10.4044C5.64227 10.3495 5.57888 10.2715 5.54116 10.18C5.50344 10.0886 5.49307 9.98786 5.51136 9.89045C5.52965 9.79303 5.57578 9.70329 5.64396 9.63246L7.49694 7.78895V4.49504C7.50267 4.36391 7.55785 4.23999 7.65101 4.14926C7.74416 4.05853 7.86811 4.00797 7.99703 4.00797C8.12594 4.00797 8.24989 4.05853 8.34305 4.14926C8.4362 4.23999 8.49138 4.36391 8.49711 4.49504V7.99049C8.49722 8.05626 8.48432 8.12137 8.45916 8.18195C8.43401 8.24253 8.39713 8.2973 8.35072 8.34304L6.35034 10.3476C6.25387 10.4376 6.128 10.4879 5.99717 10.4887Z" fill="black"/>
</svg>
