<svg width="12" height="12" viewBox="0 0 12 12" fill="none" xmlns="http://www.w3.org/2000/svg">
<path d="M6.00001 0.00013443C4.47564 0.00325939 3.00993 0.585766 1.90001 1.63021V0.630214C1.90001 0.353958 1.67626 0.130214 1.40001 0.130214C1.12375 0.130214 0.900006 0.353958 0.900006 0.630214V2.87517C0.900006 3.00767 0.952506 3.13517 1.04626 3.22892C1.14001 3.32267 1.2675 3.37517 1.4 3.37517H3.64496C3.92122 3.37517 4.14496 3.15142 4.14496 2.87517C4.14496 2.59891 3.92122 2.37517 3.64496 2.37517H2.56496C3.6887 1.31267 5.24128 0.830176 6.76928 1.06829C8.29803 1.30642 9.62992 2.23829 10.3774 3.59197C11.1249 4.94634 11.2037 6.57005 10.5906 7.99005C9.97744 9.41005 8.74176 10.4664 7.24368 10.8513C5.74555 11.2357 4.15376 10.9057 2.93248 9.95632C1.71061 9.00757 0.99744 7.54688 1 6C1 5.72374 0.776256 5.5 0.5 5.5C0.223744 5.5 0 5.72374 0 6C0 7.59125 0.631872 9.11744 1.75744 10.2426C2.88243 11.3682 4.40864 12 6 12C7.59136 12 9.11744 11.3681 10.2426 10.2426C11.3682 9.11757 12 7.59136 12 6C12 4.40864 11.3681 2.88256 10.2426 1.75744C9.11757 0.631808 7.59136 0 6 0L6.00001 0.00013443Z" fill="black"/>
<path d="M5.99999 3.50006C5.72373 3.50006 5.49999 3.7238 5.49999 4.00006V6.56502C5.49499 6.80627 5.66373 7.01689 5.89999 7.06502L8.56495 7.60003H8.66495C8.9412 7.62753 9.18744 7.42628 9.21495 7.15003C9.24245 6.87377 9.0412 6.62753 8.76495 6.60003L6.49999 6.15503V3.99999C6.49999 3.86749 6.44749 3.73999 6.35374 3.64625C6.25999 3.5525 6.13249 3.5 5.99999 3.5L5.99999 3.50006Z" fill="black"/>
</svg>
