<svg width="7" height="7" viewBox="0 0 7 7" fill="none" xmlns="http://www.w3.org/2000/svg">
<path fill-rule="evenodd" clip-rule="evenodd" d="M6.12711 0.171997C6.07476 0.119146 6.01244 0.0771844 5.94379 0.0485535C5.87513 0.0199225 5.80147 0.00518799 5.72708 0.00518799C5.65269 0.00518799 5.57906 0.0199225 5.51041 0.0485535C5.44175 0.0771844 5.37944 0.119146 5.32709 0.171997L3.13809 2.36198L0.949097 0.172989C0.84301 0.0669023 0.699132 0.00730896 0.549103 0.00730896C0.399074 0.00730896 0.255165 0.0669023 0.149078 0.172989C0.0429918 0.279076 -0.0166016 0.422969 -0.0166016 0.572998C-0.0166016 0.723027 0.0429918 0.866905 0.149078 0.972992L2.3381 3.16199L0.149078 5.34999C0.0429918 5.45608 -0.0166016 5.59996 -0.0166016 5.74998C-0.0166016 5.90001 0.0429918 6.04391 0.149078 6.14999C0.255165 6.25608 0.399074 6.31567 0.549103 6.31567C0.699132 6.31567 0.84301 6.25608 0.949097 6.14999L3.13809 3.96199L5.32709 6.14999C5.43317 6.25608 5.57705 6.31567 5.72708 6.31567C5.87711 6.31567 6.02102 6.25608 6.12711 6.14999C6.23319 6.04391 6.29279 5.90001 6.29279 5.74998C6.29279 5.59996 6.23319 5.45608 6.12711 5.34999L3.93808 3.16199L6.12711 0.972992C6.17996 0.920644 6.22189 0.858345 6.25052 0.789688C6.27915 0.721032 6.29388 0.647385 6.29388 0.572998C6.29388 0.498611 6.27915 0.424949 6.25052 0.356293C6.22189 0.287636 6.17996 0.225337 6.12711 0.172989V0.171997Z" fill="black"/>
</svg>
