<svg width="14" height="14" viewBox="0 0 14 14" fill="none" xmlns="http://www.w3.org/2000/svg">
<path d="M8.58064 7L13.6613 1.95729C13.8871 1.73148 14 1.43071 14 1.12903C14 0.828258 13.8492 0.564516 13.6613 0.376645C13.1717 -0.0370324 12.4573 -0.0370324 12.0806 0.376645L7 5.41935L1.95729 0.33871C1.73148 0.112903 1.43071 0 1.12903 0C0.828258 0 0.564516 0.150832 0.376645 0.33871C0.188767 0.564516 0.0758711 0.828258 0.0758711 1.12903C0.0758711 1.46774 0.188774 1.73148 0.414581 1.91935L5.41935 7L0.33871 12.0427C0.112903 12.2685 0 12.5693 0 12.871C0 13.1717 0.150832 13.4355 0.33871 13.6234C0.564516 13.8112 0.828258 13.9241 1.12903 13.9241C1.42981 13.9241 1.73148 13.8112 1.91935 13.5854L7 8.58064L12.0427 13.6613C12.2685 13.8871 12.5323 14 12.833 14H12.871C13.1717 14 13.4355 13.8492 13.6233 13.6613C14.037 13.2097 14.037 12.4943 13.6613 12.0806L8.58064 7Z" fill="black"/>
</svg>
