<svg width="30" height="30" viewBox="0 0 30 30" fill="none" xmlns="http://www.w3.org/2000/svg">
<rect x="0.5" y="0.5" width="29" height="29" rx="4.5" fill="white" stroke="#E8E8E8"/>
<g clip-path="url(#clip0_76_1630)">
<path fill-rule="evenodd" clip-rule="evenodd" d="M20.1931 10.133C20.1491 10.0889 20.0968 10.0539 20.0392 10.03C19.9817 10.0061 19.92 9.99384 19.8576 9.99384C19.7953 9.99384 19.7336 10.0061 19.676 10.03C19.6185 10.0539 19.5662 10.0889 19.5221 10.133L15.1631 14.493L10.8031 10.133C10.7142 10.044 10.5935 9.99403 10.4676 9.99403C10.3418 9.99403 10.2211 10.044 10.1321 10.133C10.0432 10.222 9.99316 10.3427 9.99316 10.4685C9.99316 10.5943 10.0432 10.715 10.1321 10.804L14.4921 15.163L10.1321 19.523C10.0881 19.5671 10.0533 19.6194 10.0295 19.6769C10.0057 19.7344 9.99347 19.7961 9.99352 19.8584C9.99357 19.9206 10.0059 19.9823 10.0297 20.0398C10.0536 20.0973 10.0886 20.1495 10.1326 20.1935C10.1767 20.2375 10.229 20.2724 10.2865 20.2962C10.3441 20.32 10.4057 20.3322 10.468 20.3321C10.5302 20.3321 10.5919 20.3198 10.6494 20.2959C10.7069 20.272 10.7591 20.2371 10.8031 20.193L15.1631 15.834L19.5221 20.193C19.611 20.282 19.7315 20.332 19.8573 20.3321C19.983 20.3322 20.1037 20.2824 20.1926 20.1935C20.2816 20.1047 20.3317 19.9841 20.3317 19.8584C20.3318 19.7326 20.282 19.612 20.1931 19.523L15.8331 15.163L20.1931 10.804C20.2372 10.76 20.2722 10.7077 20.2961 10.6501C20.32 10.5925 20.3323 10.5308 20.3323 10.4685C20.3323 10.4062 20.32 10.3445 20.2961 10.2869C20.2722 10.2293 20.2372 10.177 20.1931 10.133Z" fill="black"/>
</g>
<defs>
<clipPath id="clip0_76_1630">
<rect width="10.344" height="10.343" fill="white" transform="translate(10 10)"/>
</clipPath>
</defs>
</svg>
