<svg width="42" height="49" viewBox="0 0 42 49" fill="none" xmlns="http://www.w3.org/2000/svg">
<path fill-rule="evenodd" clip-rule="evenodd" d="M39.3776 13.227C39.2758 12.0931 38.7547 11.0379 37.9162 10.2679C37.0777 9.49777 35.9821 9.06815 34.8436 9.063H30.0496C30.0496 6.64953 29.0908 4.33492 27.3843 2.62834C25.6777 0.921761 23.3631 -0.0369873 20.9496 -0.0369873C18.5361 -0.0369873 16.2215 0.921761 14.5149 2.62834C12.8083 4.33492 11.8496 6.64953 11.8496 9.063H7.05561C5.91728 9.0677 4.82168 9.49706 3.98326 10.267C3.14485 11.037 2.62397 12.0922 2.5226 13.226L-0.00640624 43.489C-0.0575333 44.1152 0.0216903 44.7453 0.226245 45.3393C0.430799 45.9334 0.756244 46.4787 1.18207 46.9407C1.6079 47.4027 2.12485 47.7714 2.70032 48.0236C3.27579 48.2758 3.8973 48.406 4.52561 48.406H8.81259C9.21387 48.406 9.59871 48.2466 9.88245 47.9629C10.1662 47.6791 10.3256 47.2943 10.3256 46.893C10.3256 46.4917 10.1662 46.1069 9.88245 45.8232C9.59871 45.5394 9.21387 45.38 8.81259 45.38H4.52561C4.31594 45.3804 4.10847 45.3373 3.91632 45.2534C3.72418 45.1696 3.55153 45.0467 3.40932 44.8926C3.26711 44.7386 3.15841 44.5567 3.09012 44.3584C3.02183 44.1602 2.99545 43.95 3.01261 43.741L5.5426 13.477C5.57624 13.0992 5.7497 12.7476 6.02901 12.4911C6.30832 12.2345 6.67335 12.0915 7.0526 12.09H11.8436V16.629C11.8436 17.0313 12.0034 17.4172 12.2879 17.7017C12.5724 17.9862 12.9583 18.146 13.3606 18.146C13.7629 18.146 14.1488 17.9862 14.4333 17.7017C14.7178 17.4172 14.8776 17.0313 14.8776 16.629V12.09H27.0136V16.629C27.0136 17.0313 27.1734 17.4172 27.4579 17.7017C27.7424 17.9862 28.1283 18.146 28.5306 18.146C28.9329 18.146 29.3188 17.9862 29.6033 17.7017C29.8878 17.4172 30.0476 17.0313 30.0476 16.629V12.09H34.8436C35.2228 12.0919 35.5877 12.2351 35.8671 12.4915C36.1465 12.748 36.3203 13.0993 36.3546 13.477L38.8826 43.742C38.8999 43.9509 38.8736 44.161 38.8055 44.3592C38.7373 44.5574 38.6287 44.7393 38.4865 44.8932C38.3444 45.0472 38.1718 45.17 37.9797 45.2538C37.7876 45.3376 37.5802 45.3806 37.3706 45.38H14.8796C14.4783 45.38 14.0935 45.5394 13.8097 45.8232C13.526 46.1069 13.3666 46.4917 13.3666 46.893C13.3666 47.2943 13.526 47.6791 13.8097 47.9629C14.0935 48.2466 14.4783 48.406 14.8796 48.406H37.3706C37.999 48.4064 38.6207 48.2766 39.1964 48.0246C39.7721 47.7726 40.2893 47.404 40.7154 46.9421C41.1415 46.4801 41.4671 45.9348 41.6718 45.3407C41.8765 44.7465 41.9558 44.1164 41.9046 43.49L39.3776 13.227ZM14.8776 9.063C14.8776 7.45367 15.5169 5.91025 16.6549 4.77228C17.7928 3.63431 19.3363 2.99501 20.9456 2.99501C22.5549 2.99501 24.0984 3.63431 25.2363 4.77228C26.3743 5.91025 27.0136 7.45367 27.0136 9.063H14.8796H14.8776ZM19.7426 35.857L28.8426 26.778C29.1159 26.4915 29.2661 26.1093 29.2612 25.7134C29.2562 25.3175 29.0964 24.9392 28.816 24.6596C28.5357 24.38 28.157 24.2213 27.761 24.2175C27.3651 24.2136 26.9834 24.3649 26.6976 24.639L18.6686 32.648L15.1896 29.178C15.0503 29.032 14.8832 28.9154 14.6981 28.8349C14.5131 28.7544 14.3138 28.7117 14.112 28.7092C13.9103 28.7068 13.71 28.7447 13.5231 28.8207C13.3362 28.8967 13.1663 29.0093 13.0235 29.1518C12.8806 29.2944 12.7677 29.464 12.6914 29.6508C12.615 29.8376 12.5768 30.0378 12.5788 30.2396C12.5809 30.4414 12.6232 30.6407 12.7034 30.8259C12.7835 31.0111 12.8999 31.1784 13.0456 31.318L17.5956 35.857C17.8805 36.1418 18.2668 36.3018 18.6696 36.3018C19.0724 36.3018 19.4587 36.1418 19.7436 35.857H19.7426Z" fill="black"/>
</svg>
