<svg width="16" height="17" viewBox="0 0 16 17" fill="none" xmlns="http://www.w3.org/2000/svg">
<path fill-rule="evenodd" clip-rule="evenodd" d="M11.0603 10.586C10.8911 10.4093 10.68 10.2784 10.4465 10.2055C10.2131 10.1326 9.96492 10.12 9.72529 10.169L8.25428 10.469C8.03265 10.5141 7.82442 10.6098 7.64578 10.7486C7.46714 10.8873 7.32291 11.0654 7.22429 11.269L6.67429 12.395C5.93961 12.1794 5.2727 11.7785 4.73755 11.2309C4.2024 10.6833 3.81698 10.0074 3.61829 9.26798L4.71829 8.70499C4.92092 8.60064 5.09712 8.45146 5.23348 8.26883C5.36985 8.0862 5.4628 7.87491 5.50528 7.65097L5.79929 6.14499C5.84803 5.90224 5.8371 5.65126 5.76743 5.41367C5.69775 5.17608 5.57142 4.95896 5.39929 4.78098L3.76729 3.111C3.61878 2.95765 3.43838 2.83878 3.23885 2.76291C3.03932 2.68704 2.82554 2.65598 2.61267 2.67191C2.3998 2.68784 2.19303 2.75041 2.00702 2.85514C1.82101 2.95987 1.6603 3.10424 1.53628 3.27799C0.881375 4.19297 0.422777 5.23348 0.189306 6.3342C-0.0441661 7.43493 -0.0474657 8.57205 0.179614 9.67411C0.406695 10.7762 0.859247 11.8194 1.50884 12.7381C2.15843 13.6569 2.99101 14.4314 3.95429 15.013C4.00956 15.0462 4.0709 15.0681 4.13472 15.0774C4.19854 15.0867 4.26358 15.0832 4.32603 15.0671C4.38849 15.0509 4.44711 15.0226 4.49849 14.9836C4.54986 14.9446 4.59297 14.8958 4.62529 14.8399C4.69086 14.7245 4.70884 14.5881 4.67541 14.4596C4.64199 14.3312 4.55979 14.2208 4.44628 14.152C3.60305 13.6436 2.87408 12.9664 2.3052 12.1628C1.73632 11.3591 1.33982 10.4465 1.14062 9.48227C0.941422 8.51803 0.943837 7.52305 1.14771 6.55979C1.35158 5.59653 1.75251 4.68584 2.32529 3.88498C2.36688 3.82738 2.42063 3.77963 2.48272 3.74509C2.54482 3.71055 2.61374 3.69005 2.68462 3.68509C2.7555 3.68013 2.8266 3.69079 2.8929 3.71634C2.95919 3.7419 3.01907 3.78173 3.06829 3.83298L4.70029 5.50296C4.75774 5.56233 4.79994 5.63472 4.82328 5.71396C4.84661 5.79321 4.85039 5.87696 4.83429 5.95798L4.54029 7.45798C4.52626 7.53271 4.49536 7.60322 4.44996 7.66422C4.40456 7.72522 4.34585 7.77508 4.27829 7.80997L2.83029 8.55094C2.73331 8.60154 2.65529 8.68215 2.60789 8.78074C2.56049 8.87932 2.54625 8.99065 2.56729 9.098C2.76165 10.1717 3.27313 11.1625 4.03579 11.9428C4.79846 12.7231 5.77735 13.2571 6.84629 13.476C6.95249 13.4962 7.0624 13.4807 7.15895 13.4321C7.25551 13.3835 7.33331 13.3043 7.38028 13.2069L8.10429 11.7249C8.13689 11.6567 8.1848 11.597 8.2443 11.5503C8.30379 11.5037 8.37326 11.4714 8.44729 11.456L9.91828 11.156C9.99793 11.14 10.0803 11.1443 10.1579 11.1684C10.2354 11.1925 10.3057 11.2357 10.3623 11.294L11.9963 12.969C12.0466 13.0203 12.0855 13.0817 12.1105 13.1491C12.1354 13.2165 12.1459 13.2884 12.1412 13.3601C12.1365 13.4319 12.1167 13.5018 12.0831 13.5653C12.0495 13.6289 12.0029 13.6847 11.9463 13.729C11.1144 14.3552 10.1494 14.7812 9.12617 14.9741C8.10295 15.1669 7.04905 15.1214 6.04629 14.841C5.98351 14.8239 5.91798 14.8195 5.85348 14.828C5.78899 14.8364 5.72681 14.8576 5.67055 14.8902C5.61429 14.9229 5.56505 14.9664 5.5257 15.0182C5.48635 15.07 5.45766 15.129 5.44129 15.192C5.42311 15.2552 5.41756 15.3213 5.42497 15.3866C5.43237 15.4519 5.45258 15.5151 5.48444 15.5726C5.5163 15.6301 5.55918 15.6807 5.61063 15.7217C5.66208 15.7626 5.72109 15.7929 5.78429 15.8109C6.93009 16.1312 8.13429 16.183 9.30338 15.9624C10.4725 15.7418 11.575 15.2548 12.5253 14.539C12.6963 14.4069 12.8376 14.2402 12.9397 14.0498C13.0418 13.8594 13.1026 13.6495 13.118 13.434C13.1334 13.2185 13.103 13.0021 13.029 12.799C12.9549 12.596 12.8388 12.411 12.6883 12.256L11.0603 10.586ZM11.3253 -0.00802206C10.425 -0.0286928 9.53889 0.219378 8.78019 0.704563C8.02149 1.18975 7.42459 1.89002 7.06568 2.71598C6.70676 3.54193 6.60212 4.45614 6.76511 5.34183C6.9281 6.22753 7.35132 7.04456 7.98076 7.68863C8.61019 8.33271 9.41728 8.77461 10.299 8.95792C11.1807 9.14123 12.097 9.05763 12.931 8.71781C13.765 8.37798 14.4788 7.79736 14.9813 7.05002C15.4838 6.30268 15.7522 5.42251 15.7523 4.52195C15.7646 3.33458 15.3054 2.19083 14.4754 1.34159C13.6455 0.492349 12.5126 0.00700891 11.3253 -0.00802206ZM11.3253 8.04496C10.625 8.06106 9.93587 7.86811 9.34578 7.49076C8.75568 7.11341 8.29142 6.56877 8.01226 5.92637C7.7331 5.28396 7.65171 4.573 7.77848 3.88413C7.90525 3.19526 8.23443 2.55975 8.72399 2.05881C9.21355 1.55787 9.84129 1.21419 10.5271 1.07163C11.2128 0.929072 11.9255 0.994127 12.5742 1.25846C13.2228 1.52279 13.778 1.97442 14.1688 2.5557C14.5596 3.13697 14.7683 3.82151 14.7683 4.52195C14.7776 5.44532 14.4204 6.33474 13.775 6.99515C13.1296 7.65557 12.2486 8.03309 11.3253 8.04496ZM11.3353 6.03098C11.2361 6.02939 11.1386 6.05734 11.0554 6.1113C10.9721 6.16527 10.9068 6.24281 10.8677 6.33402C10.8286 6.42523 10.8176 6.526 10.8359 6.62351C10.8543 6.72102 10.9013 6.81084 10.9709 6.88157C11.0405 6.95229 11.1296 7.00071 11.2268 7.02066C11.324 7.04061 11.4249 7.03122 11.5167 6.99363C11.6086 6.95603 11.6871 6.89193 11.7424 6.80954C11.7977 6.72716 11.8273 6.63021 11.8273 6.53098C11.8273 6.3994 11.7754 6.27314 11.683 6.17954C11.5905 6.08594 11.4649 6.03256 11.3333 6.03098H11.3353ZM11.3253 2.00498C9.86229 2.00498 9.40329 4.01798 10.3413 4.01798C10.4725 4.01588 10.5976 3.96229 10.6897 3.86875C10.7817 3.77521 10.8333 3.64921 10.8333 3.51798C10.8333 3.38675 10.8848 3.26075 10.9769 3.16721C11.0689 3.07367 11.1941 3.02008 11.3253 3.01798C11.4433 3.02084 11.5566 3.06499 11.6455 3.14273C11.7344 3.22048 11.7932 3.3269 11.8118 3.44352C11.8303 3.56013 11.8074 3.67956 11.747 3.78104C11.6867 3.88252 11.5926 3.95966 11.4813 3.999C10.6733 4.274 10.6213 5.53397 11.3253 5.53397C11.4565 5.53187 11.5816 5.47828 11.6737 5.38474C11.7657 5.2912 11.8173 5.1652 11.8173 5.03397L11.7913 4.95694C12.1314 4.84344 12.4201 4.61305 12.6063 4.30668C12.7925 4.0003 12.864 3.63779 12.8081 3.28366C12.7522 2.92954 12.5725 2.60672 12.301 2.37259C12.0295 2.13846 11.6838 2.00821 11.3253 2.00498Z" fill="black"/>
</svg>
