<?xml version="1.0" encoding="UTF-8"?>
<svg width="33px" height="29px" viewBox="0 0 33 29" version="1.1" xmlns="http://www.w3.org/2000/svg" xmlns:xlink="http://www.w3.org/1999/xlink">
    <!-- Generator: Sketch 53.2 (72643) - https://sketchapp.com -->
    <title>corporate</title>
    <desc>Created with Sketch.</desc>
    <g id="About-Us" stroke="none" stroke-width="1" fill="none" fill-rule="evenodd">
        <g id="TBS_Contact" transform="translate(-1000.000000, -633.000000)" fill="#58595B">
            <g id="MAIN-CONTENT" transform="translate(555.000000, 440.000000)">
                <g id="CONTACT" transform="translate(0.000000, 169.000000)">
                    <g id="contact-details">
                        <g id="corporate" transform="translate(420.000000, 0.000000)">
                            <path d="M54.4390189,30.4320945 L50.7262217,30.4320945 L50.7262217,26.1857775 C50.7262217,24.9805616 49.7456601,24 48.5404441,24 L33.6158262,24 C32.4106102,24 31.4300487,24.9805616 31.4300487,26.1857775 L31.4300487,30.4320945 L27.7172514,30.4320945 C26.2183204,30.4320945 25.0001106,31.650249 25.0001106,33.1492353 L25.0001106,41.2208703 C25.0001106,41.6658055 25.3586509,42.0243292 25.8035695,42.0243292 C26.2484881,42.0243292 26.6070284,41.665789 26.6070284,41.2208703 L26.6070284,38.7650983 L36.2528478,41.8105122 L36.2528478,43.2144503 C36.2528478,44.145359 37.0088103,44.9034778 37.9418753,44.9034778 L44.2142844,44.9034778 C45.1451931,44.9034778 45.9033119,44.1475154 45.9033119,43.2144503 L45.9033119,41.8105122 L55.5491314,38.7650983 L55.5491314,50.2272845 C55.5491314,50.8385458 55.0502028,51.3374523 54.4389637,51.3374523 L27.7170855,51.3352903 C27.1058242,51.3352903 26.6069178,50.8385182 26.6069178,50.2251226 L26.6069178,45.7066547 C26.6069178,45.2617195 26.2483775,44.9031958 25.8034589,44.9031958 C25.3585403,44.9031958 25,45.2617361 25,45.7066547 L25,50.2251226 C25,51.7240536 26.2203109,52.9422634 27.7171408,52.9422634 L54.4368072,52.9422634 C55.9357383,52.9422634 57.1539481,51.7241089 57.1539481,50.2251226 L57.15611,33.1490639 C57.15611,31.6501329 55.9357991,30.4319231 54.4389692,30.4319231 L54.4390189,30.4320945 Z M33.0390676,26.1857775 C33.0390676,25.8682755 33.2982523,25.6069178 33.6157709,25.6069178 L48.5381771,25.6069178 C48.8556791,25.6069178 49.1170369,25.8661025 49.1170369,26.1857775 L49.1170369,30.4320945 L33.0390123,30.4320945 L33.0390676,26.1857775 Z M44.2142844,43.293906 L37.8622538,43.2139914 L37.9421684,40.0778421 L44.2919873,40.1577567 L44.2142844,43.293906 Z M45.8989991,40.1253552 C45.8795637,39.2095967 45.134411,38.4708856 44.2142844,38.4708856 L37.9418753,38.4708856 C37.0217488,38.4708856 36.2766237,39.2095414 36.2571607,40.1253552 L26.6069178,37.0777849 L26.6069178,33.1489589 C26.6069178,32.5269155 27.0950477,32.0387911 27.7170855,32.0387911 L54.4389637,32.0387911 C55.061007,32.0387911 55.5491314,32.526921 55.5491314,33.1489589 L55.5491314,37.0777849 L45.8989991,40.1253552 Z"></path>
                        </g>
                    </g>
                </g>
            </g>
        </g>
    </g>
</svg>