<svg width="49" height="42" viewBox="0 0 49 42" fill="none" xmlns="http://www.w3.org/2000/svg">
<path d="M41 0H5C3.80653 0 2.66193 0.474106 1.81802 1.31802C0.974106 2.16193 0.5 3.30653 0.5 4.5L0.5 28.5C0.5 29.6935 0.974106 30.8381 1.81802 31.682C2.66193 32.5259 3.80653 33 5 33H23C23.3978 33 23.7794 32.842 24.0607 32.5607C24.342 32.2794 24.5 31.8978 24.5 31.5C24.5 31.1022 24.342 30.7206 24.0607 30.4393C23.7794 30.158 23.3978 30 23 30H5C4.60218 30 4.22064 29.842 3.93934 29.5607C3.65804 29.2794 3.5 28.8978 3.5 28.5V18H42.5V24C42.5 24.3978 42.658 24.7794 42.9393 25.0607C43.2206 25.342 43.6022 25.5 44 25.5C44.3978 25.5 44.7794 25.342 45.0607 25.0607C45.342 24.7794 45.5 24.3978 45.5 24V4.5C45.5 3.30653 45.0259 2.16193 44.182 1.31802C43.3381 0.474106 42.1935 0 41 0ZM5 3H41C41.3978 3 41.7794 3.15804 42.0607 3.43934C42.342 3.72064 42.5 4.10218 42.5 4.5V7.5H3.5V4.5C3.5 4.10218 3.65804 3.72064 3.93934 3.43934C4.22064 3.15804 4.60218 3 5 3ZM3.5 15V10.5H42.5V15H3.5Z" fill="#BF1332"/>
<path d="M8 24C7.60218 24 7.22064 24.158 6.93934 24.4393C6.65804 24.7206 6.5 25.1022 6.5 25.5C6.5 25.8978 6.65804 26.2794 6.93934 26.5607C7.22064 26.842 7.60218 27 8 27H15.5C15.8978 27 16.2794 26.842 16.5607 26.5607C16.842 26.2794 17 25.8978 17 25.5C17 25.1022 16.842 24.7206 16.5607 24.4393C16.2794 24.158 15.8978 24 15.5 24H8Z" fill="#BF1332"/>
<path d="M38 42C35.9233 42 33.8932 41.3842 32.1665 40.2304C30.4398 39.0767 29.094 37.4368 28.2993 35.5182C27.5045 33.5996 27.2966 31.4884 27.7018 29.4516C28.1069 27.4148 29.1069 25.5438 30.5754 24.0754C32.0438 22.6069 33.9148 21.6069 35.9516 21.2018C37.9884 20.7966 40.0996 21.0045 42.0182 21.7993C43.9368 22.594 45.5767 23.9398 46.7304 25.6665C47.8842 27.3932 48.5 29.4233 48.5 31.5C48.5 34.2848 47.3938 36.9555 45.4246 38.9246C43.4555 40.8938 40.7848 42 38 42ZM38 24C36.5166 24 35.0666 24.4399 33.8332 25.264C32.5999 26.0881 31.6386 27.2594 31.0709 28.6299C30.5033 30.0003 30.3547 31.5083 30.6441 32.9632C30.9335 34.418 31.6478 35.7544 32.6967 36.8033C33.7456 37.8522 35.082 38.5665 36.5368 38.8559C37.9917 39.1453 39.4997 38.9968 40.8701 38.4291C42.2406 37.8614 43.4119 36.9002 44.236 35.6668C45.0601 34.4334 45.5 32.9834 45.5 31.5C45.5 29.5109 44.7098 27.6032 43.3033 26.1967C41.8968 24.7902 39.9891 24 38 24Z" fill="#BF1332"/>
<path d="M40.1148 31.5L41.3148 30.315C41.5972 30.0325 41.7559 29.6494 41.7559 29.25C41.7559 28.8505 41.5972 28.4674 41.3148 28.185C41.0323 27.9025 40.6492 27.7438 40.2498 27.7438C39.8503 27.7438 39.4672 27.9025 39.1848 28.185L37.9998 29.385L36.8148 28.185C36.5323 27.9025 36.1492 27.7438 35.7498 27.7438C35.3503 27.7438 34.9672 27.9025 34.6848 28.185C34.4023 28.4674 34.2437 28.8505 34.2437 29.25C34.2437 29.6494 34.4023 30.0325 34.6848 30.315L35.8848 31.5L34.6848 32.685C34.4023 32.9674 34.2437 33.3505 34.2437 33.75C34.2437 34.1494 34.4023 34.5325 34.6848 34.815C34.9672 35.0974 35.3503 35.2561 35.7498 35.2561C36.1492 35.2561 36.5323 35.0974 36.8148 34.815L37.9998 33.615L39.1848 34.815C39.4672 35.0974 39.8503 35.2561 40.2498 35.2561C40.6492 35.2561 41.0323 35.0974 41.3148 34.815C41.5972 34.5325 41.7559 34.1494 41.7559 33.75C41.7559 33.3505 41.5972 32.9674 41.3148 32.685L40.1148 31.5Z" fill="#BF1332"/>
</svg>
