<svg width="17" height="16" viewBox="0 0 17 16" fill="none" xmlns="http://www.w3.org/2000/svg">
<path fill-rule="evenodd" clip-rule="evenodd" d="M15.8183 0.20538C15.6999 0.0883274 15.5402 0.0226779 15.3737 0.0226779C15.2072 0.0226779 15.0475 0.0883274 14.9291 0.20538L8.01294 6.77571L1.07705 0.18562C0.96044 0.0677021 0.801765 0.000936219 0.635931 9.77097e-06C0.470097 -0.000916677 0.310687 0.0640722 0.192769 0.18068C0.0748517 0.297287 0.00808578 0.455961 0.00715933 0.621795C0.00623288 0.787629 0.0712218 0.947039 0.187829 1.06496L7.10397 7.57601L0.187829 14.0969C0.0707765 14.2153 0.00512695 14.3751 0.00512695 14.5415C0.00512695 14.708 0.0707765 14.8678 0.187829 14.9862C0.245785 15.0453 0.31496 15.0923 0.391305 15.1244C0.467649 15.1565 0.549627 15.173 0.632438 15.173C0.715249 15.173 0.797227 15.1565 0.873571 15.1244C0.949916 15.0923 1.01909 15.0453 1.07705 14.9862L7.99318 8.4257L14.9093 14.9862C15.0294 15.1038 15.1908 15.1697 15.3589 15.1697C15.527 15.1697 15.6884 15.1038 15.8084 14.9862C15.8676 14.9282 15.9146 14.859 15.9466 14.7827C15.9787 14.7063 15.9952 14.6244 15.9952 14.5415C15.9952 14.4587 15.9787 14.3768 15.9466 14.3004C15.9146 14.2241 15.8676 14.1549 15.8084 14.0969L8.90216 7.60565L15.8183 1.0946C15.8774 1.03664 15.9244 0.967467 15.9565 0.891122C15.9886 0.814778 16.0051 0.7328 16.0051 0.649989C16.0051 0.567178 15.9886 0.4852 15.9565 0.408856C15.9244 0.332511 15.8774 0.263335 15.8183 0.20538Z" fill="white"/>
</svg>
