<svg width="17" height="16" viewBox="0 0 17 16" fill="none" xmlns="http://www.w3.org/2000/svg">
<path fill-rule="evenodd" clip-rule="evenodd" d="M16.0049 0.20787C15.8851 0.0893984 15.7234 0.0229529 15.5549 0.0229529C15.3864 0.0229529 15.2247 0.0893984 15.1049 0.20787L8.10492 6.85787L1.08492 0.18787C0.966896 0.068523 0.806298 0.000947571 0.638453 9.88945e-06C0.470608 -0.000927792 0.309265 0.0648491 0.189918 0.18287C0.0705702 0.300892 0.0029947 0.46149 0.00205702 0.629335C0.00111934 0.79718 0.0668963 0.958523 0.184918 1.07787L7.18492 7.66787L0.184918 14.2679C0.0664456 14.3877 0 14.5494 0 14.7179C0 14.8864 0.0664456 15.0481 0.184918 15.1679C0.243576 15.2277 0.31359 15.2753 0.39086 15.3078C0.46813 15.3402 0.551103 15.357 0.634918 15.357C0.718732 15.357 0.801705 15.3402 0.878975 15.3078C0.956245 15.2753 1.02626 15.2277 1.08492 15.1679L8.08492 8.52787L15.0849 15.1679C15.2064 15.287 15.3698 15.3537 15.5399 15.3537C15.7101 15.3537 15.8734 15.287 15.9949 15.1679C16.0548 15.1092 16.1023 15.0392 16.1348 14.9619C16.1673 14.8847 16.184 14.8017 16.184 14.7179C16.184 14.6341 16.1673 14.5511 16.1348 14.4738C16.1023 14.3965 16.0548 14.3265 15.9949 14.2679L9.00492 7.69787L16.0049 1.10787C16.0648 1.04921 16.1123 0.979198 16.1448 0.901928C16.1773 0.824658 16.194 0.741685 16.194 0.65787C16.194 0.574056 16.1773 0.491083 16.1448 0.413813C16.1123 0.336543 16.0648 0.266529 16.0049 0.20787Z" fill="white"/>
</svg>
