<svg width="14" height="14" viewBox="0 0 14 14" fill="none" xmlns="http://www.w3.org/2000/svg">
<circle cx="7" cy="7" r="7" fill="#B02E2F"/>
<g clip-path="url(#clip0_4875_672)">
<path fill-rule="evenodd" clip-rule="evenodd" d="M9.43997 4.18C9.32399 4.0658 9.16775 4.00179 9.00497 4.00179C8.8422 4.00179 8.68596 4.0658 8.56997 4.18L6.80997 5.93L5.04997 4.18C4.93399 4.0658 4.77775 4.00179 4.61497 4.00179C4.4522 4.00179 4.29596 4.0658 4.17997 4.18C4.06514 4.29767 4.00086 4.45558 4.00086 4.62C4.00086 4.78442 4.06514 4.94232 4.17997 5.06L5.92997 6.81L4.17997 8.57C4.11054 8.62396 4.05339 8.69207 4.01229 8.76981C3.9712 8.84755 3.94712 8.93314 3.94164 9.0209C3.93615 9.10866 3.9494 9.19658 3.98051 9.27883C4.01161 9.36108 4.05985 9.43577 4.12202 9.49795C4.1842 9.56013 4.25889 9.60837 4.34114 9.63947C4.42339 9.67057 4.51131 9.68382 4.59907 9.67834C4.68683 9.67286 4.77243 9.64877 4.85017 9.60768C4.9279 9.56659 4.99601 9.50943 5.04997 9.44L6.80997 7.69L8.56997 9.44C8.62393 9.50943 8.69204 9.56659 8.76978 9.60768C8.84752 9.64877 8.93311 9.67286 9.02087 9.67834C9.10863 9.68382 9.19656 9.67057 9.27881 9.63947C9.36105 9.60837 9.43575 9.56013 9.49792 9.49795C9.5601 9.43577 9.60834 9.36108 9.63944 9.27883C9.67054 9.19658 9.68379 9.10866 9.67831 9.0209C9.67283 8.93314 9.64875 8.84755 9.60765 8.76981C9.56656 8.69207 9.5094 8.62396 9.43997 8.57L7.68997 6.81L9.44997 5.06C9.56481 4.94232 9.62909 4.78442 9.62909 4.62C9.62909 4.45558 9.56481 4.29767 9.44997 4.18H9.43997Z" fill="white"/>
</g>
<defs>
<clipPath id="clip0_4875_672">
<rect width="5.63" height="5.63" fill="white" transform="translate(4 4)"/>
</clipPath>
</defs>
</svg>
