<svg width="16" height="16" viewBox="0 0 16 16" fill="none" xmlns="http://www.w3.org/2000/svg">
<path fill-rule="evenodd" clip-rule="evenodd" d="M12.8637 1.66077C10.623 0.383455 5.25832 0.383468 2.95915 1.66717L2.8261 1.74062V1.89388C2.8261 3.13341 4.76335 4.03284 6.07793 4.03284H9.78213C11.0754 4.03284 13.0021 3.13341 13.0021 1.89388V1.74698L12.8637 1.66077ZM9.78213 3.49319H6.07793C5.44067 3.47508 4.81753 3.30114 4.26305 2.98654C4.06094 2.89721 3.87895 2.76793 3.72804 2.60651C3.57714 2.44508 3.46041 2.25484 3.38488 2.04717C5.551 0.960916 10.325 0.960916 12.4432 2.04717C12.2729 2.80025 10.8519 3.49319 9.78213 3.49319ZM12.3687 8.13146L12.3208 7.99149C12.0845 7.16699 11.7121 6.38773 11.2191 5.68591C11.1069 5.53075 10.9599 5.40408 10.7898 5.31608C10.6197 5.22809 10.4313 5.18123 10.2398 5.17926H5.62023C5.42874 5.18123 5.24036 5.22809 5.07028 5.31608C4.9002 5.40408 4.75313 5.53075 4.6409 5.68591C4.14903 6.38609 3.77677 7.16304 3.53925 7.98509L3.49137 8.13146L3.59246 8.2512C3.81253 8.47024 3.97227 8.74245 4.0562 9.0414C4.14012 9.34035 4.14539 9.6559 4.07146 9.95748L4.05015 10.0038L4.18853 10.4104C4.21653 10.5008 4.25397 10.5881 4.30028 10.6707C4.33753 10.7436 4.3695 10.8101 4.40143 10.8702C4.60899 11.2134 4.90738 11.4924 5.26362 11.6765C5.30736 11.7053 5.35369 11.7298 5.402 11.75C5.4499 11.7702 5.49245 11.7835 5.50842 11.7899C5.75123 11.8833 6.00934 11.9308 6.26952 11.9299H9.59054C9.8435 11.9348 10.0949 11.8896 10.3303 11.7968C10.3684 11.7861 10.4058 11.7727 10.4421 11.7569C10.4846 11.7367 10.5432 11.7101 10.5751 11.6898C10.812 11.5675 11.0263 11.4055 11.2085 11.2108C11.2372 11.177 11.2638 11.1414 11.2883 11.1044C11.3932 10.9858 11.4778 10.8505 11.5385 10.7042C11.5746 10.6452 11.6048 10.5828 11.6289 10.5179C11.6428 10.4903 11.6535 10.4612 11.6609 10.4312L11.7886 10.0644L11.7939 9.97131L11.7833 9.92447C11.7138 9.62709 11.7224 9.31684 11.8082 9.02376C11.894 8.73068 12.0541 8.46473 12.2729 8.25172L12.3687 8.13146ZM5.73197 11.2838C5.7118 11.2791 5.69219 11.2723 5.67344 11.2635C5.65876 11.2608 5.64442 11.2564 5.63082 11.2502C5.26653 11.0856 4.96975 10.801 4.78994 10.4439C4.75556 10.377 4.72532 10.3081 4.69944 10.2374L4.6782 10.1571V9.33106H6.16836V9.65041H5.73197V11.2832V11.2838ZM5.83839 8.93774V7.99149H8.09498V9.65093H6.56752V8.93774H5.83839ZM8.40371 11.3769H6.26952C6.2196 11.3759 6.16979 11.3714 6.12048 11.3636V10.0442H8.40371V11.3748V11.3769ZM8.48881 9.65093V8.72432C8.52607 9.03088 8.5421 9.34437 8.55274 9.65093H8.48881ZM11.2351 9.9974L11.1552 10.2438C11.1483 10.2718 11.1376 10.2986 11.1233 10.3236C11.0717 10.4602 10.9999 10.5883 10.9104 10.7037C10.8891 10.7239 10.8732 10.7505 10.8466 10.7771C10.6791 10.9816 10.4657 11.1436 10.2238 11.2502C10.2068 11.2588 10.189 11.2655 10.1706 11.2704C10.0809 11.305 9.98826 11.3318 9.89387 11.3503C9.79397 11.3699 9.69231 11.3788 9.59054 11.3769H8.82944C8.97846 10.356 8.97846 9.31892 8.82944 8.29804H11.5704C11.4045 8.54487 11.2894 8.82224 11.2319 9.114C11.1743 9.40576 11.1754 9.70607 11.2351 9.9974ZM8.48881 7.89832V7.59817H5.44988V8.93774H4.57704C4.47605 8.60208 4.31363 8.28808 4.09803 8.01169C4.31888 7.29944 4.64737 6.62516 5.07203 6.01218C5.13418 5.92444 5.21626 5.8527 5.31157 5.80292C5.40688 5.75314 5.5127 5.72672 5.62023 5.72584H10.2398C10.3473 5.72672 10.4531 5.75314 10.5484 5.80292C10.6437 5.8527 10.7259 5.92444 10.788 6.01218C11.1871 6.59292 11.4991 7.2289 11.7141 7.89995H8.48881V7.89832ZM13.7099 15.4484C13.7714 15.3148 13.8041 15.1697 13.8057 15.0226V14.8028H14.5348L14.785 13.6367H14.8009V13.5499L14.8115 13.5164C14.8374 13.4051 14.85 13.2911 14.8488 13.1769V12.6633C14.8476 12.2913 14.7178 11.9313 14.4816 11.6441V9.41834C14.4823 8.95838 14.3266 8.51187 14.0399 8.15222L13.7524 7.81851L13.7205 7.76527L12.9009 5.33944L13.7099 2.97374L13.7152 2.96737C13.9986 2.59059 14.1534 2.13273 14.1569 1.66129V1.50803L14.0399 1.43459C11.2617 -0.478196 4.62495 -0.478196 1.78824 1.43459L1.66584 1.50803V1.66129C1.66779 2.1053 1.81137 2.53713 2.07565 2.89392L2.08098 2.90084L2.91653 5.37988L2.11288 7.76527L2.08098 7.81211L1.79356 8.15222C1.50428 8.5108 1.34653 8.95762 1.34652 9.41834V11.6441C1.24118 11.771 1.1584 11.915 1.10172 12.0698C1.02281 12.2575 0.982921 12.4592 0.984586 12.6627V13.1763C0.987918 13.2901 0.998615 13.4035 1.01655 13.5159L1.03253 13.5691V13.6361H1.04312L1.3039 14.8022H2.05434V15.022C2.05596 15.1691 2.08864 15.3142 2.15017 15.4478H0V15.9944H15.9611V15.4478H13.7099V15.4484ZM13.6088 8.49814C13.8215 8.75748 13.9381 9.08239 13.9388 9.41782V9.47743H12.7572C12.7993 9.25235 12.8961 9.04107 13.039 8.86215C13.1819 8.68323 13.3666 8.54214 13.5768 8.4513L13.6088 8.49814ZM2.57591 2.66027L2.56532 2.65335C2.52806 2.60013 2.49609 2.54691 2.46416 2.49369C2.33188 2.2862 2.24821 2.05152 2.21936 1.80714C4.90705 0.128004 10.9796 0.127992 13.6035 1.80075C13.5716 2.04606 13.4881 2.28185 13.3586 2.49262C13.3267 2.55276 13.2841 2.61237 13.2469 2.67251C13.24 2.6777 13.2345 2.68445 13.2309 2.6922C12.865 3.14049 12.4073 3.50515 11.8886 3.76157C11.3699 4.01799 10.8022 4.16023 10.2238 4.17869H5.63615C4.82149 4.14278 4.03367 3.87708 3.36364 3.4123C3.05793 3.21112 2.79102 2.95634 2.57591 2.66027ZM12.853 3.79974L12.5231 4.75242C12.3767 4.62517 12.2012 4.53595 12.0121 4.49268L11.7034 4.41924C12.1157 4.27297 12.5034 4.06481 12.853 3.80188V3.79974ZM4.13533 4.41924L3.81601 4.49268C3.62147 4.53738 3.44181 4.63163 3.29445 4.76626L2.95915 3.77953C3.31819 4.04857 3.71437 4.26404 4.13533 4.41924ZM1.89472 9.41782C1.89593 9.08339 2.01035 8.75921 2.21936 8.49814L2.26192 8.44493C2.47297 8.53641 2.65818 8.67854 2.80115 8.85874C2.94412 9.03894 3.04045 9.25162 3.08155 9.47795H1.89472V9.41834V9.41782ZM1.52746 12.6643C1.52833 12.5315 1.55547 12.4002 1.6073 12.2779C1.65618 12.1554 1.72647 12.0426 1.81487 11.9448L1.89472 11.8649V10.0256H3.65632V9.75257C3.65707 9.39077 3.5581 9.03576 3.37033 8.7265C3.18256 8.41724 2.91324 8.16568 2.59189 7.99945L3.43809 5.52733L3.46473 5.45388C3.47045 5.42966 3.48137 5.40697 3.49669 5.38735C3.53772 5.29812 3.59899 5.2197 3.67568 5.15834C3.75237 5.09699 3.84235 5.0544 3.93841 5.03396L5.23166 4.73433H10.5486L11.8897 5.03396C11.9818 5.04977 12.0688 5.08776 12.143 5.1447C12.2172 5.20164 12.2764 5.2758 12.3155 5.36075C12.3298 5.37599 12.3407 5.39413 12.3474 5.41396L12.39 5.53369L13.2202 7.99945L13.2309 8.01328C12.9139 8.1798 12.6487 8.42996 12.4639 8.73657C12.279 9.04319 12.1817 9.39455 12.1824 9.75257V10.0256H13.9388V11.8649L14.0185 11.9384C14.2017 12.1359 14.3043 12.3949 14.306 12.6643V13.0842H10.4102V13.0443C10.4112 12.9773 10.3988 12.9107 10.3738 12.8485C10.3488 12.7863 10.3118 12.7297 10.2647 12.682C10.2177 12.6343 10.1616 12.5964 10.0998 12.5705C10.0379 12.5446 9.97155 12.5313 9.90453 12.5313H5.93422C5.86692 12.5312 5.80024 12.5444 5.73808 12.5702C5.67592 12.596 5.61951 12.6338 5.57202 12.6815C5.52454 12.7292 5.48697 12.7858 5.46145 12.8481C5.43592 12.9104 5.42296 12.977 5.42331 13.0443V13.0842H1.52746V12.6643ZM9.8673 13.0842V13.5377H5.97144V13.0842H9.8673ZM1.73503 14.2439L1.6073 13.6378H5.42857C5.44487 13.7606 5.50504 13.8735 5.59794 13.9555C5.69085 14.0376 5.81027 14.0833 5.93422 14.0843H9.90453C10.0279 14.0832 10.1466 14.0372 10.2387 13.9551C10.3307 13.873 10.3898 13.7602 10.4048 13.6378H14.2208L14.0931 14.2439H1.73503ZM3.34766 15.0236C3.34629 15.1236 3.3061 15.2192 3.23559 15.2901C3.16508 15.361 3.06972 15.4017 2.96974 15.4037C2.91996 15.4036 2.87069 15.3937 2.82473 15.3745C2.77878 15.3554 2.73705 15.3274 2.70194 15.2921C2.66684 15.2568 2.6391 15.2149 2.62021 15.1688C2.60132 15.1228 2.59168 15.0734 2.59189 15.0236V14.8038H3.34766V15.0236ZM3.78405 15.4494C3.85208 15.3179 3.88684 15.1717 3.8852 15.0236V14.8038H11.9749V15.0236C11.9724 15.1724 12.0091 15.3193 12.0813 15.4494H3.78405ZM13.2682 15.0236C13.2682 15.1238 13.2283 15.22 13.1575 15.2908C13.0866 15.3617 12.9905 15.4015 12.8902 15.4015C12.79 15.4015 12.694 15.3617 12.6231 15.2908C12.5522 15.22 12.5124 15.1238 12.5124 15.0236V14.8038H13.2682V15.0236Z" fill="black"/>
</svg>
