<svg width="24" height="24" viewBox="0 0 24 24" fill="none" xmlns="http://www.w3.org/2000/svg">
<path fill-rule="evenodd" clip-rule="evenodd" d="M7.72265 18.2431C7.9404 18.2406 8.14861 18.1534 8.30322 18C8.45783 17.8467 8.54671 17.6392 8.55105 17.4215V10.7322C8.55609 10.6202 8.53837 10.5083 8.49897 10.4033C8.45957 10.2983 8.39931 10.2024 8.32181 10.1214C8.24431 10.0403 8.15119 9.97578 8.04807 9.93171C7.94495 9.88763 7.83396 9.86487 7.72182 9.86487C7.60967 9.86487 7.49868 9.88763 7.39556 9.93171C7.29244 9.97578 7.19932 10.0403 7.12182 10.1214C7.04433 10.2024 6.98406 10.2983 6.94466 10.4033C6.90526 10.5083 6.88754 10.6202 6.89258 10.7322V17.4181C6.89607 17.6367 6.9848 17.8453 7.13986 17.9994C7.29492 18.1535 7.50404 18.241 7.72265 18.2431V18.2431ZM11.7104 18.2431C11.9284 18.241 12.137 18.154 12.292 18.0006C12.447 17.8472 12.5361 17.6395 12.5404 17.4215V10.7322C12.5404 10.5123 12.4531 10.3014 12.2976 10.1459C12.142 9.99036 11.9311 9.903 11.7112 9.903C11.4913 9.903 11.2803 9.99036 11.1248 10.1459C10.9693 10.3014 10.882 10.5123 10.882 10.7322V17.4181C10.8854 17.6364 10.9739 17.8448 11.1286 17.9988C11.2833 18.1529 11.492 18.2406 11.7104 18.2431V18.2431ZM15.6997 18.2431C15.9192 18.2432 16.13 18.1572 16.2868 18.0035C16.4435 17.8499 16.5338 17.6409 16.5382 17.4215V10.7322C16.5432 10.6202 16.5255 10.5083 16.4861 10.4033C16.4467 10.2983 16.3865 10.2024 16.309 10.1214C16.2315 10.0403 16.1383 9.97578 16.0352 9.93171C15.9321 9.88763 15.8211 9.86487 15.709 9.86487C15.5968 9.86487 15.4858 9.88763 15.3827 9.93171C15.2796 9.97578 15.1865 10.0403 15.109 10.1214C15.0315 10.2024 14.9712 10.2983 14.9318 10.4033C14.8924 10.5083 14.8747 10.6202 14.8797 10.7322V17.4181C14.8831 17.635 14.9705 17.8421 15.1234 17.996C15.2763 18.1498 15.4829 18.2384 15.6997 18.2431V18.2431ZM21.683 4.02965H16.3755L15.693 1.73392C15.5427 1.23555 15.2368 0.798367 14.8201 0.486371C14.4034 0.174374 13.8978 0.0039494 13.3772 0H10.0485C9.52828 0.00430592 9.02304 0.174912 8.60668 0.486882C8.19032 0.798853 7.88466 1.23582 7.73439 1.73392L7.05021 4.02458H1.73942C1.53564 4.04882 1.34782 4.14697 1.21154 4.30042C1.07527 4.45387 1 4.65198 1 4.85721C1 5.06243 1.07527 5.2605 1.21154 5.41394C1.34782 5.56739 1.53564 5.66554 1.73942 5.68978H2.72713V21.7144C2.73022 22.3197 2.9723 22.8994 3.40068 23.3271C3.82906 23.7549 4.40906 23.9961 5.01444 23.9983H18.4298C19.0376 23.9961 19.6198 23.7531 20.0488 23.3225C20.4779 22.8919 20.7187 22.3088 20.7187 21.701V5.66798H21.6779C21.9003 5.66798 22.1136 5.57963 22.2708 5.42239C22.4281 5.26515 22.5164 5.05189 22.5164 4.82952C22.516 4.721 22.4938 4.61365 22.4511 4.51387C22.4085 4.41409 22.3462 4.32392 22.268 4.24868C22.1898 4.17344 22.0972 4.11469 21.9959 4.07591C21.8945 4.03713 21.7864 4.01908 21.6779 4.0229L21.683 4.02965ZM9.33752 2.21016C9.38417 2.05656 9.47758 1.92137 9.60473 1.82338C9.73188 1.72539 9.88644 1.66949 10.0469 1.66351H13.4007C13.5649 1.66212 13.7249 1.7154 13.8554 1.81499C13.986 1.91457 14.0797 2.05482 14.1218 2.21354L14.6601 4.02458H8.76402L9.33752 2.21016ZM19.0636 21.8888H19.0066C18.964 22.0131 18.8842 22.1213 18.778 22.1986C18.6718 22.276 18.5444 22.3189 18.413 22.3214H5.01444C4.84585 22.3188 4.68506 22.2499 4.56678 22.1298C4.4485 22.0096 4.38222 21.8478 4.38224 21.6792V5.66798H19.0653V21.8888H19.0636Z" fill="black"/>
</svg>
