<svg width="15" height="16" viewBox="0 0 15 16" fill="none" xmlns="http://www.w3.org/2000/svg">
<g clip-path="url(#clip0_1160_1880)">
<path fill-rule="evenodd" clip-rule="evenodd" d="M4.48382 12.1649C4.62932 12.1622 4.76826 12.1039 4.87219 12.0021C4.97613 11.9002 5.03719 11.7625 5.04287 11.6171V7.14465C5.04601 6.99713 4.99186 6.85414 4.89177 6.74572C4.79169 6.63729 4.65348 6.57189 4.50618 6.56324C4.43331 6.56025 4.36057 6.57184 4.29223 6.59733C4.22389 6.62282 4.16134 6.6617 4.10822 6.71169C4.05511 6.76168 4.01252 6.82177 3.98293 6.88844C3.95335 6.9551 3.93738 7.02701 3.93595 7.09993V11.5723C3.92976 11.6479 3.93934 11.724 3.96408 11.7957C3.98883 11.8675 4.0282 11.9333 4.07971 11.989C4.13121 12.0447 4.19373 12.0891 4.26329 12.1194C4.33285 12.1497 4.40795 12.1652 4.48382 12.1649ZM7.1449 12.1649C7.29039 12.1622 7.42934 12.1039 7.53327 12.0021C7.6372 11.9002 7.69826 11.7625 7.70394 11.6171V7.14465C7.70102 6.99833 7.64083 6.85899 7.5363 6.75655C7.43178 6.65412 7.29125 6.59676 7.1449 6.59679C7.00754 6.61083 6.88054 6.67622 6.78933 6.77988C6.69811 6.88353 6.6494 7.01781 6.65293 7.15584V11.6282C6.65293 11.7735 6.71065 11.9129 6.8134 12.0156C6.91614 12.1184 7.0555 12.1761 7.2008 12.1761L7.1449 12.1649ZM9.80597 12.1649C9.95147 12.1622 10.0904 12.1039 10.1943 12.0021C10.2983 11.9002 10.3593 11.7625 10.365 11.6171V7.14465C10.3682 6.99713 10.314 6.85414 10.2139 6.74572C10.1138 6.63729 9.97563 6.57189 9.82833 6.56324C9.75546 6.56025 9.68272 6.57184 9.61438 6.59733C9.54605 6.62282 9.48349 6.6617 9.43038 6.71169C9.37726 6.76168 9.33467 6.82177 9.30509 6.88844C9.2755 6.9551 9.25953 7.02701 9.2581 7.09993V11.5723C9.2581 11.7176 9.31582 11.857 9.41857 11.9597C9.52131 12.0625 9.66067 12.1202 9.80597 12.1202V12.1649ZM13.7976 2.68344H10.2532L9.80597 1.1181C9.6968 0.794535 9.48956 0.513008 9.21304 0.312633C8.93653 0.112259 8.60447 0.0029869 8.26299 0L6.0268 0C5.68642 0.0019749 5.35529 0.111032 5.08036 0.311713C4.80543 0.512395 4.60063 0.79452 4.495 1.1181L4.03658 2.68344H0.503386C0.355116 2.68344 0.21292 2.74234 0.108078 2.84718C0.00323565 2.95202 -0.0556641 3.09422 -0.0556641 3.24249C-0.0556641 3.39076 0.00323565 3.53295 0.108078 3.6378C0.21292 3.74264 0.355116 3.80154 0.503386 3.80154H1.15188V14.5353C1.15772 14.9387 1.32133 15.3238 1.60765 15.608C1.89398 15.8922 2.28024 16.053 2.68368 16.0559H11.6285C11.8291 16.0559 12.0278 16.0162 12.213 15.9391C12.3982 15.862 12.5663 15.749 12.7077 15.6066C12.849 15.4642 12.9608 15.2952 13.0366 15.1095C13.1123 14.9237 13.1506 14.7247 13.1491 14.5241V3.77918H13.7976C13.9439 3.77625 14.0832 3.71606 14.1857 3.61153C14.2881 3.50701 14.3455 3.36648 14.3455 3.22013C14.3455 3.07779 14.2889 2.94128 14.1883 2.84063C14.0876 2.73998 13.9511 2.68344 13.8088 2.68344H13.7976ZM5.53483 1.47589C5.56703 1.36883 5.63397 1.27554 5.72508 1.21075C5.81619 1.14596 5.92628 1.11336 6.03798 1.1181H8.27417C8.38352 1.119 8.4896 1.1555 8.57635 1.22208C8.6631 1.28865 8.7258 1.38168 8.75496 1.48707L9.11275 2.68344H5.17704L5.53483 1.47589ZM12.0198 14.5912C11.9923 14.674 11.94 14.7462 11.87 14.7983C11.8 14.8503 11.7157 14.8795 11.6285 14.8819H2.68368C2.57099 14.8819 2.46293 14.8371 2.38325 14.7575C2.30357 14.6778 2.2588 14.5697 2.2588 14.457V3.77918H12.0534V14.5912H12.0198Z" fill="black"/>
</g>
<defs>
<clipPath id="clip0_1160_1880">
<rect width="14.3452" height="16" fill="white"/>
</clipPath>
</defs>
</svg>
