<svg width="20" height="16" viewBox="0 0 20 16" fill="none" xmlns="http://www.w3.org/2000/svg">
<path fill-rule="evenodd" clip-rule="evenodd" d="M14.8 5.41761C14.7448 5.41761 14.6918 5.39468 14.6527 5.3539C14.6136 5.31311 14.5917 5.25781 14.5917 5.20013C14.5924 5.181 14.5952 5.16203 14.6001 5.14358L15.0291 3.43498H3.81344C3.75819 3.43498 3.7052 3.41207 3.66613 3.37129C3.62706 3.3305 3.60512 3.27517 3.60512 3.21749C3.60512 3.15981 3.62706 3.1045 3.66613 3.06372C3.7052 3.02293 3.75819 3 3.81344 3H15.5624L15 5.25622C14.9878 5.30214 14.9618 5.34274 14.9258 5.37203C14.8897 5.40132 14.8457 5.41777 14.8 5.41892V5.41761ZM8.62554 4.87127H2.54269C2.48744 4.87127 2.43447 4.84836 2.39541 4.80758C2.35634 4.76679 2.33438 4.71146 2.33438 4.65378C2.33438 4.5961 2.35634 4.5408 2.39541 4.50001C2.43447 4.45922 2.48744 4.43629 2.54269 4.43629H8.62554C8.68079 4.43341 8.73486 4.45356 8.77588 4.49231C8.8169 4.53106 8.84149 4.58524 8.84426 4.64292C8.84702 4.7006 8.82774 4.75705 8.79062 4.79988C8.75351 4.8427 8.70161 4.86838 8.64637 4.87127H8.62554ZM8.71719 6.08922H3.52596C3.47072 6.08922 3.41772 6.06629 3.37865 6.0255C3.33959 5.98472 3.31765 5.92941 3.31765 5.87173C3.31765 5.81405 3.33959 5.75872 3.37865 5.71794C3.41772 5.67715 3.47072 5.65424 3.52596 5.65424H8.71719C8.77243 5.65424 8.82543 5.67715 8.8645 5.71794C8.90356 5.75872 8.9255 5.81405 8.9255 5.87173C8.9255 5.92941 8.90356 5.98472 8.8645 6.0255C8.82543 6.06629 8.77243 6.08922 8.71719 6.08922ZM6.90902 7.37891H2.05399C2.02664 7.38031 1.99927 7.37607 1.97348 7.36643C1.9477 7.35679 1.924 7.34196 1.90371 7.32276C1.88342 7.30355 1.86695 7.28035 1.85524 7.2545C1.84353 7.22865 1.8368 7.20065 1.83546 7.17209C1.83411 7.14353 1.83818 7.11496 1.84741 7.08804C1.85664 7.06112 1.87087 7.03635 1.88926 7.01516C1.90766 6.99398 1.92988 6.97678 1.95464 6.96456C1.9794 6.95234 2.00622 6.94533 2.03357 6.94393H6.90818C6.96343 6.94393 7.0164 6.96686 7.05546 7.00765C7.09453 7.04844 7.11649 7.10374 7.11649 7.16142C7.11649 7.2191 7.09453 7.27443 7.05546 7.31522C7.0164 7.35601 6.96343 7.37891 6.90818 7.37891H6.90902ZM1.25323 7.37891H0.208316C0.153067 7.37891 0.100072 7.35601 0.0610047 7.31522C0.0219378 7.27443 0 7.2191 0 7.16142C0 7.10374 0.0219378 7.04844 0.0610047 7.00765C0.100072 6.96686 0.153067 6.94393 0.208316 6.94393H1.25323C1.30848 6.94393 1.36145 6.96686 1.40051 7.00765C1.43958 7.04844 1.46154 7.10374 1.46154 7.16142C1.46154 7.2191 1.43958 7.27443 1.40051 7.31522C1.36145 7.35601 1.30848 7.37891 1.25323 7.37891ZM13.1272 11.8513C13.0743 11.8381 13.0185 11.847 12.9718 11.8762C12.9251 11.9054 12.8911 11.9525 12.8773 12.0075L12.6065 13.0788H5.74868C5.74398 12.75 5.63232 12.4327 5.43204 12.1789C5.3027 12.0211 5.14145 11.8953 4.95989 11.8104C4.77834 11.7256 4.58101 11.6838 4.38214 11.6882C3.9917 11.7043 3.61575 11.8471 3.30656 12.0965C2.99737 12.3459 2.77031 12.6898 2.65687 13.0801H1.55194L2.70185 8.49507C2.71632 8.43965 2.70918 8.38048 2.68202 8.33052C2.65485 8.28057 2.60985 8.24386 2.55686 8.22842C2.53163 8.22086 2.50524 8.2186 2.47917 8.22173C2.4531 8.22486 2.42789 8.23332 2.40497 8.24666C2.38205 8.26 2.36188 8.27793 2.34562 8.29944C2.32936 8.32094 2.31733 8.3456 2.31022 8.37197C2.31022 8.37632 2.30772 8.38023 2.30689 8.38458L1.01534 13.5173H2.58518C2.56863 13.877 2.68093 14.2302 2.90018 14.5082C3.02948 14.6663 3.1909 14.7924 3.37273 14.8773C3.55456 14.9622 3.75223 15.0037 3.95134 14.9988C4.35674 14.9822 4.74612 14.8292 5.06146 14.5627C5.37679 14.2962 5.60117 13.9304 5.70118 13.5199H12.9256L13.2755 12.1245C13.2896 12.0691 13.2822 12.0102 13.2549 11.9605C13.2276 11.9109 13.1826 11.8744 13.1297 11.8592H13.1256L13.1272 11.8513ZM3.95134 14.566C3.81209 14.5704 3.67364 14.5424 3.54608 14.4839C3.41851 14.4255 3.30504 14.3381 3.2139 14.2281C3.12317 14.111 3.05795 13.9747 3.02277 13.8287C2.98759 13.6827 2.98328 13.5304 3.01016 13.3824C3.06714 13.0417 3.23423 12.7317 3.48357 12.504C3.73291 12.2763 4.04945 12.1447 4.38046 12.131C4.51901 12.127 4.65669 12.1552 4.78351 12.2136C4.91034 12.2719 5.02314 12.359 5.11374 12.4686C5.20407 12.5858 5.26937 12.7219 5.3053 12.8677C5.34122 13.0134 5.34694 13.1655 5.32205 13.3137C5.26448 13.6542 5.09715 13.9639 4.84785 14.1915C4.59855 14.4192 4.28224 14.551 3.95134 14.5651V14.566ZM20 10.9483L18.346 9.15752L17.2252 5.07267H15.7795C15.7243 5.07267 15.6713 5.0956 15.6322 5.13638C15.5932 5.17717 15.5712 5.23247 15.5712 5.29015C15.5712 5.34784 15.5932 5.40316 15.6322 5.44395C15.6713 5.48474 15.7243 5.50764 15.7795 5.50764H16.9169L17.9793 9.38284L19.5292 11.0632L18.9084 13.0845L17.8294 13.0941C17.8284 12.7621 17.7181 12.4407 17.5169 12.1837C17.3873 12.0262 17.226 11.9005 17.0445 11.8156C16.863 11.7307 16.6658 11.6887 16.467 11.6926C16.0701 11.7083 15.6882 11.8549 15.3761 12.1113C15.0639 12.3677 14.8376 12.7207 14.7296 13.1197L13.688 13.1284C13.6328 13.1296 13.5802 13.1536 13.5419 13.1952C13.5037 13.2368 13.4828 13.2926 13.4839 13.3503C13.485 13.408 13.508 13.4628 13.5478 13.5028C13.5877 13.5427 13.6411 13.5646 13.6964 13.5634L14.6713 13.5556C14.6616 13.9024 14.7726 14.2411 14.9837 14.509C15.1131 14.6668 15.2744 14.7926 15.456 14.8774C15.6375 14.9623 15.8348 15.004 16.0337 14.9997C16.4375 14.9838 16.8258 14.8321 17.1403 14.5672C17.4549 14.3022 17.6791 13.9382 17.7794 13.5295L19.2084 13.5182L20 10.9483ZM16.0337 14.5651C15.8951 14.5693 15.7574 14.5411 15.6305 14.4827C15.5037 14.4243 15.3909 14.3372 15.3004 14.2276C15.2097 14.1107 15.1446 13.9746 15.1093 13.8287C15.0741 13.6828 15.0696 13.5307 15.0962 13.3829L15.1046 13.3511C15.1672 13.0176 15.3357 12.716 15.583 12.4949C15.8302 12.2739 16.1417 12.1464 16.467 12.1332C16.6055 12.1291 16.7432 12.1572 16.8701 12.2156C16.9969 12.274 17.1097 12.3611 17.2002 12.4707C17.2847 12.58 17.3467 12.7063 17.3826 12.8416C17.4184 12.977 17.4273 13.1186 17.4086 13.2576L17.4044 13.2911V13.3168C17.3474 13.6576 17.1803 13.9677 16.9308 14.1955C16.6814 14.4233 16.3648 14.555 16.0337 14.5686V14.5651ZM13.6547 8.46722H12.9298L12.9131 7.39717L12.3965 8.46722H11.684L11.5882 6.27015H12.4465L12.3715 7.52854L12.9131 6.27015H13.6214L13.5756 7.52854L14.0838 6.27015H14.7213L13.6547 8.46722ZM16.4586 6.91566H15.5087L15.467 7.13315H16.0754L15.9753 7.61164H15.3671L15.3212 7.82607H16.2712L16.1336 8.4694H14.3755L14.8338 6.27278H16.5961L16.4586 6.91566ZM4.21756 11.1132H3.1639L3.63012 8.91656H4.44253C4.55281 8.90736 4.66376 8.921 4.76897 8.95671C4.87418 8.99241 4.97159 9.04948 5.05561 9.12463C5.13962 9.19977 5.20859 9.29151 5.25853 9.39457C5.30848 9.49764 5.33843 9.60998 5.34664 9.72516C5.35004 9.75402 5.35141 9.7831 5.35079 9.81216C5.36483 10.1412 5.25351 10.4627 5.04114 10.7062C4.82877 10.9498 4.53266 11.0957 4.21756 11.1119V11.1132ZM4.40505 9.45896H4.32589L4.08841 10.5642H4.18005C4.41753 10.5642 4.57586 10.0979 4.57586 9.71603C4.57586 9.53638 4.50921 9.45896 4.40505 9.45896ZM7.36313 9.56074H6.40905L6.36323 9.77823H6.97984L6.87985 10.2567H6.26322L6.21739 10.4742H7.16733L7.034 11.1167H5.2758L5.73828 8.92004H7.50063L7.36313 9.56074ZM8.88802 11.1114H7.26314L7.7256 8.91481H8.53387L8.21308 10.4303H9.02966L8.88802 11.1114ZM9.86292 11.1114H9.05466L9.51711 8.91481H10.3254L9.86292 11.1114ZM11.3545 11.1114H10.692L10.4254 8.91481H11.2503L11.3503 10.1327L11.9753 8.91481H12.5877L11.3545 11.1114ZM14.3292 9.56074H13.3793L13.3335 9.77823H13.9459L13.8459 10.2567H13.2293L13.1835 10.4742H14.1376L14.0042 11.1167H12.2461L12.7044 8.92004H14.4625L14.3292 9.56074ZM15.9333 10.0236C16.0287 10.028 16.1187 10.0716 16.1834 10.1449C16.2482 10.2183 16.2825 10.3153 16.279 10.415C16.2756 10.427 16.2742 10.4395 16.2749 10.452C16.2749 10.5538 16.2332 10.7482 16.2332 10.8378C16.2316 10.8716 16.2394 10.9051 16.2556 10.9343C16.2719 10.9635 16.296 10.9871 16.3249 11.0023L16.3082 11.0832C16.1653 11.1417 16.0113 11.1651 15.8582 11.1515C15.5583 11.1515 15.425 11.0766 15.425 10.8348C15.425 10.7574 15.4708 10.509 15.4708 10.4311C15.4761 10.4102 15.4766 10.3882 15.4723 10.3671C15.468 10.3459 15.459 10.326 15.446 10.3091C15.4331 10.2922 15.4165 10.2787 15.3977 10.2697C15.3788 10.2607 15.3582 10.2564 15.3375 10.2571H15.2125L15.0375 11.1088H14.2292L14.6959 8.91221H15.9249C15.986 8.90195 16.0485 8.90443 16.1087 8.91954C16.1689 8.93464 16.2257 8.96207 16.2756 9.00022C16.3256 9.03836 16.3678 9.08648 16.3999 9.14178C16.4319 9.19708 16.4532 9.25847 16.4624 9.32239C16.4762 9.40521 16.4731 9.49014 16.4533 9.57163C16.4335 9.65312 16.3974 9.72931 16.3475 9.79525C16.2976 9.86119 16.2349 9.91538 16.1635 9.95428C16.0921 9.99317 16.0136 10.0159 15.9333 10.021V10.0236ZM15.5291 9.47725H15.3792L15.2833 9.9196H15.4375C15.5069 9.91266 15.5709 9.87728 15.6154 9.82119C15.6599 9.7651 15.6813 9.69288 15.6749 9.62035V9.62122C15.6781 9.58746 15.6686 9.55374 15.6484 9.52719C15.6282 9.50063 15.5988 9.48333 15.5666 9.47897C15.5542 9.47701 15.5416 9.47701 15.5291 9.47897" fill="black"/>
</svg>
