<svg width="16" height="16" viewBox="0 0 16 16" fill="none" xmlns="http://www.w3.org/2000/svg">
<g clip-path="url(#clip0_5511_614)">
<path fill-rule="evenodd" clip-rule="evenodd" d="M14.41 4H9.94C9.80739 4 9.68021 4.05268 9.58645 4.14644C9.49268 4.24021 9.44 4.36739 9.44 4.5C9.44 4.63261 9.49268 4.75978 9.58645 4.85355C9.68021 4.94732 9.80739 5 9.94 5H12.34L1 13V5.47C1 5.33739 1.05268 5.21021 1.14645 5.11644C1.24021 5.02268 1.36739 4.97 1.5 4.97H1.93C2.66734 6.34041 3.56351 7.61922 4.6 8.78C4.69515 8.87225 4.82247 8.92384 4.955 8.92384C5.08753 8.92384 5.21485 8.87225 5.31 8.78C5.63 8.42 8.42 5.26 8.42 3.48C8.42014 2.56735 8.06174 1.69117 7.42204 1.04024C6.78233 0.38931 5.91252 0.0157334 5 -1.97708e-06C4.54574 -0.00661268 4.09467 0.0768219 3.67283 0.245485C3.25099 0.414148 2.86674 0.664698 2.54226 0.982671C2.21778 1.30064 1.9595 1.67974 1.78232 2.09808C1.60515 2.51641 1.51259 2.9657 1.51 3.42C1.5101 3.6144 1.52683 3.80844 1.56 4C1.16608 3.98626 0.782406 4.12709 0.490922 4.39242C0.199438 4.65774 0.0232534 5.02653 0 5.42L0 14.42C0.00264058 14.8134 0.160787 15.1899 0.439931 15.4671C0.719074 15.7444 1.09655 15.9 1.49 15.9H14.41C14.8052 15.9 15.1842 15.743 15.4636 15.4636C15.743 15.1842 15.9 14.8052 15.9 14.41V5.47C15.8922 5.07912 15.7321 4.70674 15.4538 4.43216C15.1755 4.15759 14.8009 4.00253 14.41 4ZM5 0.999998C5.6517 1.01046 6.27332 1.27605 6.7314 1.73973C7.18947 2.20341 7.44747 2.82821 7.45 3.48C7.45 4.43 6.05 6.4 4.97 7.69C3.88 6.4 2.48 4.43 2.48 3.48C2.48791 2.81778 2.75722 2.18553 3.22924 1.721C3.70126 1.25647 4.33774 0.997312 5 0.999998ZM14.94 11.23L13.57 9.88L14.91 8.88V11.18L14.94 11.23ZM9.26 13L11.26 15H6.53L9.26 13ZM14.41 15H12.63L9.63 12H9.58L9.5 11.94H9.41H9.32H9.22H9.13H9.04H8.99L4.77 14.94H1.49C1.35739 14.94 1.23021 14.8873 1.13645 14.7936C1.04268 14.6998 0.99 14.5726 0.99 14.44V14.19C1.89 13.59 4.7 11.59 14.07 5H14.41C14.5426 5 14.6698 5.05268 14.7636 5.14644C14.8573 5.24021 14.91 5.36739 14.91 5.5V7.69L12.51 9.4L12.43 9.52C12.4205 9.57627 12.4205 9.63373 12.43 9.69C12.4205 9.74627 12.4205 9.80373 12.43 9.86C12.4475 9.89707 12.4711 9.93089 12.5 9.96L14.96 12.42V14.4C14.9604 14.4701 14.946 14.5395 14.9178 14.6036C14.8896 14.6678 14.8482 14.7253 14.7963 14.7725C14.7445 14.8196 14.6833 14.8553 14.6167 14.8773C14.5502 14.8993 14.4797 14.907 14.41 14.9V15ZM6.46 3.47C6.45204 3.17587 6.35718 2.89069 6.18738 2.6504C6.01758 2.41011 5.78043 2.22547 5.50584 2.11976C5.23125 2.01406 4.93151 1.99202 4.64441 2.05642C4.35732 2.12082 4.09571 2.26878 3.89259 2.48165C3.68946 2.69451 3.5539 2.96276 3.50301 3.25255C3.45211 3.54235 3.48815 3.84073 3.60659 4.11007C3.72503 4.37941 3.92057 4.60766 4.16854 4.76603C4.41651 4.9244 4.70582 5.00581 5 5C5.19568 4.9961 5.38868 4.95368 5.56796 4.87518C5.74725 4.79667 5.90931 4.68361 6.04489 4.54246C6.18047 4.40131 6.28692 4.23483 6.35814 4.05253C6.42937 3.87023 6.46398 3.67568 6.46 3.48V3.47ZM4.46 3.47C4.47025 3.33644 4.53264 3.21227 4.63368 3.12433C4.73472 3.03639 4.8663 2.99173 5 3C5.13261 3 5.25979 3.05268 5.35355 3.14644C5.44732 3.24021 5.5 3.36739 5.5 3.5C5.5 3.63261 5.44732 3.75978 5.35355 3.85355C5.25979 3.94732 5.13261 4 5 4C4.86739 4 4.74021 3.94732 4.64645 3.85355C4.55268 3.75978 4.5 3.63261 4.5 3.5L4.46 3.47Z" fill="black"/>
</g>
<defs>
<clipPath id="clip0_5511_614">
<rect width="15.9" height="15.9" fill="white"/>
</clipPath>
</defs>
</svg>
