<svg width="49" height="35" viewBox="0 0 49 35" fill="none" xmlns="http://www.w3.org/2000/svg">
<path d="M48.35 15.87C48.11 15.345 49.28 17.7 43.175 5.49C42.8008 4.74053 42.2249 4.11037 41.512 3.67046C40.7992 3.23055 39.9777 2.99835 39.14 3H28.73C28.4205 2.12468 27.8479 1.3665 27.0906 0.829408C26.3333 0.292318 25.4284 0.00260927 24.5 0H14C13.6022 0 13.2206 0.158036 12.9393 0.43934C12.658 0.720645 12.5 1.10218 12.5 1.5C12.5 1.89782 12.658 2.27936 12.9393 2.56066C13.2206 2.84196 13.6022 3 14 3H24.5C24.8978 3 25.2794 3.15804 25.5607 3.43934C25.842 3.72064 26 4.10217 26 4.5V27H19.79C19.4446 25.7289 18.6905 24.6069 17.6441 23.8069C16.5977 23.0069 15.3172 22.5735 14 22.5735C12.6828 22.5735 11.4023 23.0069 10.3559 23.8069C9.3095 24.6069 8.55542 25.7289 8.21 27H5C4.60218 27 4.22064 26.842 3.93934 26.5607C3.65804 26.2794 3.5 25.8978 3.5 25.5V4.5C3.5 4.10217 3.65804 3.72064 3.93934 3.43934C4.22064 3.15804 4.60218 3 5 3H8C8.39782 3 8.77936 2.84196 9.06066 2.56066C9.34196 2.27936 9.5 1.89782 9.5 1.5C9.5 1.10218 9.34196 0.720645 9.06066 0.43934C8.77936 0.158036 8.39782 0 8 0H5C3.80653 0 2.66193 0.474106 1.81802 1.31802C0.974106 2.16193 0.5 3.30653 0.5 4.5L0.5 25.5C0.5 26.6935 0.974106 27.8381 1.81802 28.682C2.66193 29.5259 3.80653 30 5 30H8.21C8.55542 31.2711 9.3095 32.3931 10.3559 33.1931C11.4023 33.9931 12.6828 34.4265 14 34.4265C15.3172 34.4265 16.5977 33.9931 17.6441 33.1931C18.6905 32.3931 19.4446 31.2711 19.79 30H30.71C31.0554 31.2711 31.8095 32.3931 32.8559 33.1931C33.9023 33.9931 35.1828 34.4265 36.5 34.4265C37.8172 34.4265 39.0977 33.9931 40.1441 33.1931C41.1905 32.3931 41.9446 31.2711 42.29 30H47C47.3978 30 47.7794 29.842 48.0607 29.5607C48.342 29.2794 48.5 28.8978 48.5 28.5C48.5 15.405 48.5 16.32 48.35 15.87ZM14 31.5C13.4067 31.5 12.8266 31.3241 12.3333 30.9944C11.8399 30.6648 11.4554 30.1962 11.2284 29.648C11.0013 29.0999 10.9419 28.4967 11.0576 27.9147C11.1734 27.3328 11.4591 26.7982 11.8787 26.3787C12.2982 25.9591 12.8328 25.6734 13.4147 25.5576C13.9967 25.4419 14.5999 25.5013 15.1481 25.7284C15.6962 25.9554 16.1648 26.3399 16.4944 26.8333C16.8241 27.3266 17 27.9067 17 28.5C17 29.2956 16.6839 30.0587 16.1213 30.6213C15.5587 31.1839 14.7956 31.5 14 31.5ZM36.5 31.5C35.9067 31.5 35.3266 31.3241 34.8333 30.9944C34.3399 30.6648 33.9554 30.1962 33.7284 29.648C33.5013 29.0999 33.4419 28.4967 33.5576 27.9147C33.6734 27.3328 33.9591 26.7982 34.3787 26.3787C34.7982 25.9591 35.3328 25.6734 35.9147 25.5576C36.4967 25.4419 37.0999 25.5013 37.6481 25.7284C38.1962 25.9554 38.6648 26.3399 38.9944 26.8333C39.3241 27.3266 39.5 27.9067 39.5 28.5C39.5 29.2956 39.1839 30.0587 38.6213 30.6213C38.0587 31.1839 37.2957 31.5 36.5 31.5ZM42.29 27C41.9446 25.7289 41.1905 24.6069 40.1441 23.8069C39.0977 23.0069 37.8172 22.5735 36.5 22.5735C35.1828 22.5735 33.9023 23.0069 32.8559 23.8069C31.8095 24.6069 31.0554 25.7289 30.71 27H29V6H39.14C39.4195 5.99805 39.6941 6.07427 39.9326 6.22004C40.1712 6.36581 40.3642 6.57535 40.49 6.825L44.57 15H33.5C33.1022 15 32.7206 15.158 32.4393 15.4393C32.158 15.7206 32 16.1022 32 16.5C32 16.8978 32.158 17.2794 32.4393 17.5607C32.7206 17.842 33.1022 18 33.5 18H45.5V27H42.29Z" fill="#BF1332"/>
<path d="M17.5462 14.9246L16.4856 13.864L17.5462 12.8033C17.8275 12.522 17.9856 12.1405 17.9856 11.7426C17.9856 11.3448 17.8275 10.9633 17.5462 10.682C17.2649 10.4007 16.8834 10.2426 16.4856 10.2426C16.0878 10.2426 15.7062 10.4007 15.4249 10.682L14.3643 11.7426L13.3036 10.682C13.0223 10.4007 12.6408 10.2426 12.2429 10.2426C11.8451 10.2426 11.4636 10.4007 11.1823 10.682C10.901 10.9633 10.7429 11.3448 10.7429 11.7426C10.7429 12.1405 10.901 12.522 11.1823 12.8033L12.2429 13.864L11.1823 14.9246C10.901 15.2059 10.7429 15.5875 10.7429 15.9853C10.7429 16.3831 10.901 16.7646 11.1823 17.0459C11.4636 17.3272 11.8451 17.4853 12.2429 17.4853C12.6408 17.4853 13.0223 17.3272 13.3036 17.0459L14.3643 15.9853L15.4249 17.0459C15.7062 17.3272 16.0878 17.4853 16.4856 17.4853C16.8834 17.4853 17.2649 17.3272 17.5462 17.0459C17.8275 16.7646 17.9856 16.3831 17.9856 15.9853C17.9856 15.5875 17.8275 15.2059 17.5462 14.9246Z" fill="#BF1332"/>
</svg>
