<svg width="42" height="42" viewBox="0 0 42 42" fill="none" xmlns="http://www.w3.org/2000/svg">
<path fill-rule="evenodd" clip-rule="evenodd" d="M27.4631 15.377C27.4631 13.936 25.3501 11.394 24.4421 10.368L24.4081 10.33L24.0931 6.22998L23.7931 2.94903L23.8931 2.89898C24.1271 2.79184 24.3263 2.62099 24.4678 2.40594C24.6092 2.19089 24.6873 1.94033 24.6931 1.68298V1.39502C24.6936 1.21158 24.6577 1.02984 24.5874 0.860409C24.5171 0.690979 24.4138 0.53723 24.2835 0.408077C24.1532 0.278925 23.9986 0.176942 23.8285 0.108089C23.6585 0.0392367 23.4765 0.00489373 23.2931 0.00701523H18.2931C17.9239 -0.0048921 17.565 0.129545 17.2945 0.3811C17.024 0.632655 16.8639 0.980898 16.8491 1.34997V1.66699C16.8589 1.92055 16.9388 2.16645 17.0801 2.37725C17.2213 2.58806 17.4183 2.75553 17.6491 2.86102L17.7491 2.91101L17.0611 10.335L17.0281 10.373C16.3191 11.173 14.0061 13.902 14.0061 15.381V38.893C13.9807 39.2558 14.0351 39.6197 14.1654 39.9592C14.2958 40.2987 14.4989 40.6056 14.7606 40.8582C15.0222 41.1107 15.336 41.3029 15.6799 41.4213C16.0238 41.5396 16.3894 41.5812 16.7511 41.543H24.7321C26.4501 41.543 27.4771 40.553 27.4771 38.513L27.4631 15.377ZM18.1221 1.13501H23.4641V1.83502H18.0981L18.1221 1.13501ZM22.7941 5.71301H18.7041L18.9361 2.91302H22.5801L22.7941 5.71301ZM18.1041 10.867C18.1929 10.7697 18.2477 10.6462 18.2601 10.515L18.6151 6.80902H22.8841L23.2381 10.509C23.2498 10.6411 23.305 10.7656 23.3951 10.863C24.6241 12.195 26.4451 14.613 26.4451 15.563L26.4241 22.04H24.9701C24.4991 21.3544 23.8683 20.7938 23.1322 20.4064C22.3961 20.0191 21.5768 19.8166 20.7451 19.8166C19.9133 19.8166 19.094 20.0191 18.3579 20.4064C17.6218 20.7938 16.9911 21.3544 16.5201 22.04H15.0461V15.563C15.0461 14.579 16.9231 12.163 18.1071 10.863L18.1041 10.867ZM26.4201 30.271H25.5201C26.0327 29.3299 26.3394 28.2906 26.4201 27.222V30.271ZM26.4201 23.23V25.93C26.3432 24.9149 26.063 23.9256 25.5961 23.021H26.4211V23.221L26.4201 23.23ZM25.4451 26.576C25.4451 29.759 23.3361 32.349 20.7451 32.349C18.1541 32.349 16.0451 29.759 16.0451 26.576C16.0451 23.393 18.1541 20.802 20.7451 20.802C23.3361 20.802 25.4451 23.392 25.4451 26.576ZM15.0451 23.025H15.8921C15.3568 24.0646 15.067 25.213 15.0451 26.382V23.025ZM15.0451 26.76C15.0662 27.9877 15.3836 29.1922 15.9701 30.271H15.0461V26.76H15.0451ZM24.7181 40.492H16.7441C16.5202 40.5297 16.2907 40.5148 16.0735 40.4487C15.8564 40.3825 15.6576 40.2668 15.4928 40.1107C15.328 39.9546 15.2016 39.7624 15.1238 39.5492C15.0459 39.336 15.0186 39.1076 15.0441 38.882V31.258H16.6341C17.1079 31.9025 17.7268 32.4266 18.4406 32.7877C19.1543 33.1489 19.9431 33.337 20.7431 33.337C21.543 33.337 22.3318 33.1489 23.0456 32.7877C23.7594 32.4266 24.3782 31.9025 24.8521 31.258H26.4171V38.892C26.4438 39.1175 26.4173 39.346 26.3398 39.5594C26.2622 39.7727 26.1357 39.9649 25.9703 40.1205C25.805 40.2761 25.6055 40.3907 25.3879 40.4553C25.1702 40.5198 24.9405 40.5324 24.7171 40.492" fill="black"/>
</svg>
