<svg width="9" height="6" viewBox="0 0 9 6" fill="none" xmlns="http://www.w3.org/2000/svg">
<path fill-rule="evenodd" clip-rule="evenodd" d="M0.0159472 0.737732C0.013166 0.930352 0.0848041 1.11664 0.215944 1.25775L3.53095 4.78772C3.59147 4.8561 3.66582 4.91087 3.74909 4.94836C3.83235 4.98586 3.92263 5.00525 4.01395 5.00525C4.10527 5.00525 4.19555 4.98586 4.27881 4.94836C4.36207 4.91087 4.43643 4.8561 4.49695 4.78772L7.81095 1.25775C7.9401 1.11536 8.01164 0.929975 8.01164 0.737732C8.01164 0.545489 7.9401 0.360107 7.81095 0.217712C7.75006 0.149235 7.67536 0.0944769 7.59177 0.0569458C7.50817 0.0194147 7.41758 0 7.32594 0C7.23431 0 7.14373 0.0194147 7.06014 0.0569458C6.97654 0.0944769 6.90183 0.149235 6.84094 0.217712L4.00995 3.22772L1.17896 0.217712C1.11807 0.149235 1.04336 0.0944769 0.959764 0.0569458C0.876171 0.0194147 0.785589 0 0.693956 0C0.602324 0 0.511727 0.0194147 0.428133 0.0569458C0.344539 0.0944769 0.269844 0.149235 0.208956 0.217712C0.082426 0.361152 0.0136414 0.546475 0.0159472 0.737732Z" fill="#4B4F54"/>
</svg>
