<svg width="23" height="16" viewBox="0 0 23 16" fill="none" xmlns="http://www.w3.org/2000/svg">
<path fill-rule="evenodd" clip-rule="evenodd" d="M8.93214 8.5353H8.78825C8.82538 8.50818 8.85569 8.47281 8.87681 8.43196C8.89794 8.39111 8.9093 8.34591 8.90998 8.29992C8.90926 8.21961 8.87687 8.14284 8.81986 8.08631C8.76286 8.02979 8.68589 7.99805 8.60565 7.99805H6.76827L6.23147 7.51513C6.17561 7.46394 6.10245 7.43582 6.02671 7.43647H5.28515C5.68021 7.27532 6.00702 6.98181 6.20972 6.60614C6.41242 6.23047 6.47842 5.79597 6.39637 5.377C6.31433 4.95803 6.08939 4.58062 5.76 4.30931C5.43061 4.03799 5.01722 3.88963 4.59061 3.88963C4.164 3.88963 3.75061 4.03799 3.42122 4.30931C3.09183 4.58062 2.86689 4.95803 2.78485 5.377C2.7028 5.79597 2.76874 6.23047 2.97144 6.60614C3.17414 6.98181 3.50101 7.27532 3.89607 7.43647H3.15451C3.07676 7.43607 3.00169 7.46493 2.94421 7.51733L2.32439 8.09334C2.29354 8.1215 2.26876 8.15567 2.25163 8.19378C2.2345 8.23188 2.22534 8.27308 2.22474 8.31486V9.55215C2.22546 9.61479 2.24551 9.67567 2.28217 9.72644C2.31883 9.77721 2.37031 9.81539 2.4295 9.83573L3.60828 10.2572H1.10129V2.8789H7.01181V6.29113C7.01173 6.33102 7.01954 6.37054 7.03484 6.40738C7.05015 6.44421 7.07266 6.47763 7.10098 6.50571C7.12929 6.53379 7.16287 6.55598 7.19981 6.57095C7.23676 6.58593 7.27628 6.5934 7.31614 6.59296C7.39639 6.59296 7.47343 6.56126 7.53043 6.50473C7.58743 6.4482 7.61982 6.37143 7.62055 6.29113V2.8789H7.89172C7.97197 2.8789 8.049 2.8472 8.106 2.79067C8.16301 2.73414 8.19539 2.65737 8.19612 2.57706V0.301319C8.19539 0.221062 8.16296 0.144355 8.10594 0.087915C8.04892 0.0314746 7.97192 -0.00012457 7.89172 2.49505e-05H0.304406C0.264572 -0.000489079 0.225019 0.00694442 0.188076 0.0218622C0.151132 0.0367801 0.117498 0.0588986 0.089174 0.0869347C0.0608505 0.114971 0.0384153 0.148362 0.0231046 0.185169C0.00779393 0.221975 -7.61221e-05 0.261451 5.54943e-07 0.301319V2.57706C-7.51483e-05 2.61696 0.00780054 2.65648 0.0231046 2.69331C0.0384086 2.73015 0.0608581 2.76357 0.089174 2.79165C0.11749 2.81973 0.151061 2.84191 0.188008 2.85689C0.224955 2.87187 0.264546 2.87934 0.304406 2.8789H0.492549V14.781C0.492473 14.8209 0.500349 14.8604 0.515653 14.8972C0.530957 14.9341 0.553406 14.9675 0.581722 14.9956C0.610038 15.0236 0.64361 15.0458 0.680556 15.0608C0.717503 15.0758 0.757094 15.0833 0.796955 15.0828C0.802489 15.0828 0.807977 15.079 0.819045 15.0784C0.830114 15.0779 0.83013 15.0823 0.835664 15.0823H7.35492C7.39475 15.0828 7.43431 15.0754 7.47125 15.0605C7.50819 15.0455 7.54176 15.0234 7.57009 14.9954C7.59841 14.9673 7.62091 14.934 7.63622 14.8971C7.65153 14.8603 7.65934 14.8208 7.65926 14.781V10.5557C7.65926 10.5452 7.65379 10.5363 7.65379 10.5263V9.67398C7.65386 9.63409 7.64599 9.5946 7.63068 9.55776C7.61538 9.52093 7.59293 9.48747 7.56461 9.45939C7.5363 9.43131 7.50266 9.40916 7.46571 9.39419C7.42876 9.37921 7.38924 9.37171 7.34938 9.37215C7.26913 9.37214 7.1921 9.40384 7.13509 9.46037C7.07809 9.5169 7.0457 9.59367 7.04497 9.67398V10.2539H6.81258C6.84962 10.2271 6.87988 10.192 6.90101 10.1514C6.92215 10.1108 6.93355 10.0659 6.93432 10.0201V9.66955C6.93432 9.58876 6.90223 9.51131 6.84515 9.45419C6.78806 9.39706 6.71064 9.36495 6.62991 9.36495C6.54919 9.36495 6.47176 9.39706 6.41468 9.45419C6.3576 9.51131 6.32557 9.58876 6.32557 9.66955V10.0218C6.32634 10.0676 6.33775 10.1125 6.35888 10.153C6.38001 10.1936 6.41028 10.2287 6.44731 10.2555H4.01227C4.0595 10.2203 4.09596 10.1725 4.11745 10.1176C4.14448 10.042 4.1404 9.95867 4.10617 9.886C4.07193 9.81332 4.0103 9.7572 3.93478 9.72993L2.83349 9.33614V8.44169L3.27071 8.03682H5.91051L6.44177 8.52036C6.4983 8.57045 6.57103 8.59837 6.64653 8.59898H8.23483L8.02453 11.0265L8.60011 10.9334L9.14798 11.0292L8.93214 8.5353ZM3.35927 5.74614C3.35752 5.50193 3.42826 5.26271 3.56262 5.05884C3.69697 4.85497 3.88887 4.69562 4.11387 4.60107C4.33887 4.50652 4.58686 4.48101 4.82638 4.52778C5.06589 4.57455 5.28612 4.6915 5.45911 4.86376C5.63209 5.03602 5.75004 5.25582 5.79797 5.49528C5.84589 5.73475 5.8216 5.98307 5.72825 6.20871C5.63489 6.43435 5.47664 6.62715 5.2736 6.76262C5.07055 6.89809 4.83187 6.97011 4.58784 6.96957C4.42687 6.97008 4.26736 6.93885 4.11846 6.87762C3.96957 6.81639 3.83419 6.7264 3.72009 6.61277C3.60598 6.49914 3.51537 6.36411 3.45345 6.2154C3.39153 6.0667 3.35956 5.90724 3.35927 5.74614ZM0.608745 0.603153H7.58738V2.27577H0.608745V0.603153ZM7.05605 11.8035V14.4791H1.14007V10.8592H7.04497V11.7742C7.04627 11.7847 7.05008 11.7948 7.05605 11.8035ZM8.60565 10.6172L8.37319 10.6538L8.5337 8.84933H8.64435L8.79933 10.651L8.60565 10.6172ZM22.6403 11.7969V9.62138C22.6381 9.1712 22.4796 8.73578 22.192 8.38964L21.8821 8.018L21.052 5.59108C20.9837 5.40038 20.8682 5.23015 20.7162 5.09636C20.5642 4.96258 20.3808 4.8696 20.1831 4.8262C19.2783 4.62424 18.3541 4.52247 17.4271 4.52271H14.8205C13.8935 4.52247 12.9693 4.62424 12.0645 4.8262C11.8668 4.8698 11.6834 4.9629 11.5314 5.09677C11.3795 5.23063 11.2639 5.4009 11.1956 5.59162L10.3655 8.018L10.0556 8.38964C9.76932 8.73617 9.61272 9.17176 9.61283 9.62138V11.7969C9.50826 11.9202 9.4242 12.0595 9.36382 12.2095C9.28686 12.3923 9.24736 12.5888 9.24763 12.7871V13.2856C9.24755 13.3958 9.25864 13.5056 9.2808 13.6135L9.29188 13.732H9.3085L9.55751 14.8646H10.3046V15.0861C10.3046 15.3285 10.4008 15.561 10.5721 15.7323C10.7433 15.9037 10.9756 16 11.2178 16C11.4599 16 11.6922 15.9037 11.8635 15.7323C12.0347 15.561 12.1309 15.3285 12.1309 15.0861V14.8646H20.1444V15.0861C20.1444 15.3285 20.2406 15.561 20.4118 15.7323C20.5831 15.9037 20.8153 16 21.0575 16C21.2997 16 21.532 15.9037 21.7032 15.7323C21.8744 15.561 21.9707 15.3285 21.9707 15.0861V14.8646H22.6901L22.9391 13.7397H22.9557V13.6611L22.9668 13.6102C22.9889 13.5025 23.0001 13.3928 23 13.2828V12.7844C22.9986 12.4233 22.8714 12.0741 22.6403 11.7969ZM21.4282 14.8674V15.0861C21.4282 15.1846 21.3892 15.2789 21.3197 15.3485C21.2502 15.4181 21.1558 15.4572 21.0575 15.4572C20.9592 15.4572 20.8649 15.4181 20.7953 15.3485C20.7258 15.2789 20.6867 15.1846 20.6867 15.0861V14.8674H21.4282ZM11.5886 14.8674V15.0861C11.5886 15.1846 11.5495 15.2789 11.4799 15.3485C11.4104 15.4181 11.3161 15.4572 11.2178 15.4572C11.1194 15.4572 11.0251 15.4181 10.9556 15.3485C10.886 15.2789 10.8469 15.1846 10.8469 15.0861V14.8674H11.5886ZM10.1496 9.68176V9.62138C10.1497 9.46046 10.1778 9.30078 10.2327 9.14951C10.289 8.99687 10.3714 8.8552 10.4762 8.73082L10.5149 8.68042C10.723 8.76733 10.9066 8.90411 11.0494 9.07873C11.1922 9.25335 11.2899 9.46044 11.3339 9.68176H10.1496ZM18.0967 12.6559H14.1509C14.0188 12.6559 13.8921 12.7084 13.7986 12.8019C13.7052 12.8954 13.6528 13.0222 13.6528 13.1544V13.1959H9.78996V12.786C9.78887 12.6573 9.81332 12.5297 9.86191 12.4105C9.91345 12.2833 9.99065 12.1681 10.0888 12.0721L10.1496 12.0073V10.2173H11.8984V9.94924C11.8968 9.59551 11.7978 9.24909 11.6123 8.94797C11.4269 8.64686 11.162 8.4027 10.8469 8.24232L11.7103 5.76277C11.7463 5.65902 11.8086 5.56637 11.891 5.49386C11.9735 5.42136 12.0733 5.37147 12.1807 5.34905C13.0474 5.15618 13.9326 5.05887 14.8205 5.05884H17.4271C18.315 5.05856 19.2002 5.15588 20.0669 5.34905C20.1743 5.37147 20.2741 5.42136 20.3565 5.49386C20.439 5.56637 20.5012 5.65902 20.5373 5.76277L21.384 8.23566L21.3951 8.25449C21.085 8.41617 20.8247 8.65941 20.6424 8.95801C20.46 9.25662 20.3625 9.5993 20.3602 9.94924V10.2173H22.0979V11.9298L22.1145 12.0245L22.1699 12.0838C22.3546 12.2707 22.458 12.5231 22.4577 12.786V13.1959H18.5948V13.1544C18.5948 13.0222 18.5423 12.8954 18.4489 12.8019C18.3555 12.7084 18.2288 12.6559 18.0967 12.6559ZM18.058 13.1926V13.6312H14.1896V13.1926H18.058ZM13.6528 13.7342C13.6696 13.8544 13.7293 13.9644 13.8208 14.044C13.9123 14.1236 14.0296 14.1674 14.1509 14.1673H18.0967C18.2173 14.167 18.3337 14.1229 18.4243 14.0433C18.5148 13.9637 18.5734 13.8539 18.5892 13.7342H22.3857L22.2529 14.3307H9.99473L9.86191 13.7342H13.6528ZM20.9302 9.68176C20.9739 9.46322 21.0697 9.25847 21.2094 9.08491C21.3491 8.91135 21.5286 8.77411 21.7327 8.68484L21.7714 8.73024C21.9808 8.97982 22.0964 9.29493 22.0979 9.62084V9.68118H20.9302V9.68176ZM20.4266 7.97591L20.3768 7.85297C20.133 7.12549 19.7722 6.44267 19.3087 5.83143C19.2257 5.7406 19.0929 5.58885 16.1376 5.58885C13.1824 5.58885 13.0496 5.7406 12.9666 5.83143C12.4958 6.45686 12.1295 7.15454 11.8818 7.89728L11.8653 8.04348L11.9593 8.13709C12.6123 8.79505 15.3241 8.84599 16.1376 8.84599C16.9512 8.84599 19.6629 8.79063 20.3491 8.1022L20.4266 7.97591ZM19.7957 7.85019C19.3364 8.08336 18.058 8.30932 16.1376 8.30932C14.2173 8.30932 12.9389 8.08336 12.4796 7.85019C12.6844 7.26992 12.9734 6.72294 13.3373 6.22686C15.2018 6.09505 17.0733 6.09505 18.9379 6.22686C19.302 6.72279 19.5911 7.2698 19.7957 7.85019Z" fill="black"/>
</svg>
