<svg width="10" height="10" viewBox="0 0 10 10" fill="none" xmlns="http://www.w3.org/2000/svg">
<path d="M9.99999 2.61964C10.0004 2.55383 9.98776 2.4886 9.96288 2.42768C9.93799 2.36677 9.90133 2.31136 9.85499 2.26464L7.73499 0.144642C7.68827 0.0983013 7.63287 0.0616387 7.57195 0.0367565C7.51103 0.0118742 7.4458 -0.0007383 7.38 -0.000357854C7.31419 -0.0007383 7.24896 0.0118742 7.18804 0.0367565C7.12712 0.0616387 7.07172 0.0983013 7.025 0.144642L5.61 1.55964L0.145008 7.02463C0.0986675 7.07135 0.0620049 7.12676 0.0371227 7.18768C0.0122404 7.2486 -0.000372089 7.31383 8.35713e-06 7.37963V9.49963C8.35713e-06 9.63223 0.0526867 9.75941 0.146455 9.85318C0.240223 9.94695 0.367399 9.99963 0.500007 9.99963H2.62C2.68997 10.0034 2.75995 9.99249 2.82541 9.96751C2.89088 9.94253 2.95036 9.90407 3 9.85462L8.43499 4.38963L9.85499 2.99964C9.90063 2.95118 9.93781 2.8954 9.96499 2.83464C9.96981 2.79478 9.96981 2.75449 9.96499 2.71464C9.96733 2.69136 9.96733 2.66791 9.96499 2.64464L9.99999 2.61964ZM2.415 8.99963H1.00001V7.58463L5.965 2.61964L7.38 4.03464L2.415 8.99963ZM8.08499 3.32964L6.67 1.91464L7.38 1.20964L8.78999 2.61964L8.08499 3.32964Z" fill="black"/>
</svg>
