<svg width="8" height="16" viewBox="0 0 8 16" fill="none" xmlns="http://www.w3.org/2000/svg">
<g clip-path="url(#clip0_5511_1563)">
<path fill-rule="evenodd" clip-rule="evenodd" d="M7.06 6.94998L5.89502 3.96548L5.70502 0.549957C5.76195 0.5324 5.81166 0.496933 5.8468 0.448822C5.88194 0.400711 5.90062 0.342532 5.90002 0.282959C5.9015 0.247364 5.89594 0.211851 5.88367 0.178406C5.87139 0.144961 5.85264 0.114266 5.82849 0.0880737C5.80434 0.0618815 5.77526 0.0407006 5.74292 0.0257568C5.71058 0.0108131 5.67561 0.00239211 5.64001 0.000976562H3.67004C3.59913 0.00536407 3.5327 0.0373271 3.48505 0.0900269C3.43739 0.142727 3.41229 0.211962 3.41504 0.282959C3.41311 0.342601 3.43125 0.401186 3.46661 0.449249C3.50198 0.497313 3.55253 0.532077 3.61005 0.547974L3.42505 3.97195L2.26001 6.90247H1.81C1.76492 6.90381 1.72099 6.91682 1.68243 6.94022C1.64388 6.96361 1.61204 6.99662 1.59003 7.03598L1.03503 8.03098C1.01755 8.06939 1.00572 8.11016 1 8.15198V14.76C1.00392 14.8003 1.01585 14.8393 1.03503 14.875L1.59003 15.8695C1.60842 15.9076 1.6366 15.9402 1.67175 15.9638C1.7069 15.9875 1.74776 16.0013 1.79004 16.004H6.05499C6.19893 16.013 6.34312 15.9902 6.47723 15.9372C6.61135 15.8841 6.73216 15.8022 6.83099 15.6971C6.92982 15.5921 7.00423 15.4666 7.04901 15.3295C7.09379 15.1924 7.10781 15.0471 7.09003 14.904V7.08047C7.09132 7.03513 7.08096 6.99021 7.06 6.94998ZM2.21503 15.015C2.22495 15.1656 2.26044 15.3133 2.32001 15.452H1.95502L1.71002 15.015H2.21503ZM1.71002 7.89746L1.95502 7.45996H2.21002V7.89746H1.71002ZM2.21002 8.45496V14.455H1.51501V8.45496H2.21002ZM6.57501 13.7155V14.9C6.5882 14.9726 6.58393 15.0473 6.5625 15.1179C6.54107 15.1885 6.5031 15.253 6.45178 15.306C6.40047 15.359 6.33726 15.3991 6.2674 15.4228C6.19753 15.4465 6.12304 15.4533 6.05005 15.4425H3.245C3.17552 15.4522 3.10479 15.4458 3.03821 15.4237C2.97163 15.4016 2.91105 15.3644 2.86121 15.315C2.81136 15.2657 2.77354 15.2055 2.75079 15.1391C2.72804 15.0727 2.72097 15.002 2.73004 14.9325V13.712H6.57501V13.7155ZM4.06 1.34448L4.125 0.558472H5.19L5.25 1.34448H4.06ZM2.73004 8.65198V7.15698L3.90503 4.17148C3.92329 4.13848 3.93353 4.10165 3.935 4.06396L4.03003 1.89597H5.29504L5.39001 4.06046C5.39039 4.09815 5.40077 4.13509 5.42004 4.16748L6.58502 7.14948L6.57501 8.64948H2.73004V8.65198ZM6.57501 9.20197V13.195H2.73004V9.19998H6.57501V9.20197Z" fill="black"/>
</g>
<defs>
<clipPath id="clip0_5511_1563">
<rect width="8" height="16" fill="white"/>
</clipPath>
</defs>
</svg>
