<svg width="17" height="15" viewBox="0 0 17 15" fill="none" xmlns="http://www.w3.org/2000/svg">
<path fill-rule="evenodd" clip-rule="evenodd" d="M15.9615 4.75619C15.8249 3.75936 15.3323 2.84053 14.5693 2.15959C13.8063 1.47865 12.8213 1.0787 11.7856 1.02934C11.1801 1.00443 10.5758 1.10202 10.0113 1.31589C9.44671 1.52976 8.93422 1.85524 8.50641 2.27162C7.89589 1.66875 7.11387 1.25612 6.2603 1.08649C5.40674 0.916859 4.5204 0.997922 3.71459 1.31932C2.90877 1.64072 2.22008 2.18785 1.73653 2.89079C1.25299 3.59372 0.996566 4.42053 1.00003 5.26552V5.26552C1.09466 6.35746 1.54303 7.39238 2.28099 8.22216C3.99293 10.2137 5.86933 12.0667 7.89155 13.7627C8.06769 13.9155 8.29572 14 8.53203 14C8.76834 14 8.99637 13.9155 9.17251 13.7627C11.3297 11.9193 13.3461 9.92637 15.2058 7.79978C15.8375 6.91096 16.1068 5.82647 15.9615 4.75619V4.75619Z" fill="#B02E2F"/>
<path fill-rule="evenodd" clip-rule="evenodd" d="M8.2765 14.5732C7.92052 14.5713 7.57735 14.4402 7.31084 14.2042C5.63862 12.7125 2.6553 9.98828 1.65039 8.48877C0.881168 7.55338 0.425287 6.39995 0.347154 5.19142C0.347152 3.906 0.857246 2.67311 1.76544 1.76344C2.67364 0.853774 3.9057 0.341685 5.19112 0.339605C6.34059 0.329873 7.45522 0.733925 8.33145 1.47798C9.00063 0.917147 9.80894 0.547612 10.6709 0.408461C11.5328 0.26931 12.4164 0.365717 13.228 0.687484C14.0397 1.00925 14.7493 1.54441 15.2818 2.23636C15.8143 2.92831 16.1498 3.75131 16.2529 4.61831V4.61831C16.3943 5.83477 16.0719 7.05981 15.3501 8.04912C14.1646 9.70565 10.7181 12.9009 9.2814 14.1963C9.00726 14.4463 8.64743 14.5813 8.2765 14.5732ZM5.19112 1.32096C4.16461 1.32096 3.18014 1.72874 2.45429 2.45459C1.72844 3.18044 1.32066 4.16491 1.32066 5.19142C1.40978 6.19995 1.80724 7.1566 2.45903 7.93136C3.47179 9.39947 6.64352 12.2964 7.95461 13.4741C8.043 13.5503 8.15584 13.5923 8.27257 13.5923C8.3893 13.5923 8.50215 13.5503 8.59053 13.4741C9.99583 12.1944 13.3874 9.06188 14.5101 7.48386C15.0799 6.68806 15.3319 5.70806 15.2166 4.73607C15.0998 3.83131 14.6714 2.99549 14.0052 2.37226C13.339 1.74903 12.4765 1.3773 11.566 1.32096C11.026 1.29823 10.4873 1.39001 9.98534 1.59027C9.48335 1.79053 9.02941 2.09472 8.65334 2.48288L8.30005 2.83617L7.95461 2.48288C7.59657 2.11229 7.16704 1.81823 6.69203 1.61851C6.21701 1.41879 5.7064 1.31756 5.19112 1.32096V1.32096ZM8.2765 14.6203C7.90762 14.6219 7.55166 14.4845 7.27944 14.2356C5.60721 12.7439 2.64745 10.0197 1.61114 8.51232C0.839125 7.56879 0.380791 6.40786 0.300049 5.19142C0.304189 3.8955 0.820826 2.65384 1.73718 1.73749C2.65354 0.821128 3.8952 0.304491 5.19112 0.30035C6.3386 0.286236 7.45299 0.684633 8.33145 1.42302C9.06014 0.832217 9.94336 0.463433 10.8758 0.360635C11.8083 0.257838 12.7506 0.425363 13.5905 0.843239C14.4304 1.26112 15.1324 1.91171 15.6128 2.71746C16.0932 3.52321 16.3318 4.45013 16.3 5.38769C16.2587 6.35862 15.9309 7.29559 15.3579 8.08053C14.1646 9.7449 10.7103 12.9323 9.2814 14.2277C9.00673 14.4787 8.64857 14.6186 8.2765 14.6203ZM5.19112 0.39456C3.91955 0.396636 2.70066 0.902685 1.80152 1.80182C0.902384 2.70096 0.396335 3.91985 0.394259 5.19142C0.478118 6.38779 0.930671 7.52877 1.68965 8.45737C2.72596 9.95688 5.67787 12.6733 7.3658 14.1649C7.62439 14.3945 7.95818 14.5213 8.30397 14.5213C8.64977 14.5213 8.98356 14.3945 9.24215 14.1649C10.671 12.8695 14.1175 9.6821 15.303 8.02557C16.0188 7.04858 16.3385 5.83698 16.198 4.63401C16.0563 3.49882 15.5175 2.45039 14.6769 1.67444C13.8363 0.898484 12.7481 0.445089 11.6052 0.39456C10.4121 0.346826 9.24423 0.74731 8.33145 1.51723V1.51723C7.4566 0.772576 6.33978 0.37331 5.19112 0.39456V0.39456ZM8.2765 13.6468C8.14884 13.6464 8.02583 13.5988 7.93106 13.5133C6.58072 12.3278 3.44038 9.43087 2.41192 7.96276C1.75817 7.17703 1.36088 6.20983 1.27355 5.19142C1.27355 4.15033 1.68712 3.15189 2.42328 2.41573C3.15944 1.67957 4.15788 1.266 5.19897 1.266C5.72019 1.26357 6.23651 1.36664 6.71683 1.56903C7.19716 1.77141 7.63156 2.06892 7.99387 2.44363L8.3079 2.76551L8.62193 2.44363C9.17745 1.88598 9.88779 1.50822 10.6607 1.35939C11.4337 1.21057 12.2335 1.29755 12.9564 1.60904C13.6792 1.92054 14.2918 2.44216 14.7144 3.10618C15.1371 3.77021 15.3504 4.54597 15.3265 5.33274C15.2876 6.11729 15.0141 6.87211 14.5415 7.49957C13.4109 9.06973 10.0194 12.2101 8.61408 13.4976C8.51651 13.5836 8.39089 13.6311 8.2608 13.6311L8.2765 13.6468ZM5.19112 1.36806C4.1771 1.36806 3.20462 1.77088 2.4876 2.4879C1.77058 3.20492 1.36776 4.1774 1.36776 5.19142C1.46139 6.18798 1.85565 7.13255 2.49828 7.89996C3.50319 9.36806 6.67493 12.2572 7.99387 13.4348C8.07077 13.506 8.17171 13.5455 8.2765 13.5455C8.38129 13.5455 8.48222 13.506 8.55913 13.4348C9.96443 12.163 13.3481 9.03048 14.4787 7.45246C15.0674 6.67577 15.3365 5.70326 15.231 4.73442C15.1254 3.76557 14.6531 2.87385 13.911 2.24217C13.1688 1.61049 12.2131 1.28674 11.2398 1.33734C10.2665 1.38794 9.34953 1.80905 8.67689 2.51429L8.2922 2.90683L7.91536 2.51429C7.56059 2.1513 7.13683 1.86291 6.66899 1.66607C6.20115 1.46923 5.69868 1.36791 5.19112 1.36806V1.36806Z" fill="#B02E2F"/>
<path fill-rule="evenodd" clip-rule="evenodd" d="M9.2421 14.1649C9.23883 14.1678 9.23555 14.1707 9.23226 14.1736V14.1736C8.9751 14.3976 8.64525 14.5213 8.30393 14.5213C8.29514 14.5213 8.28636 14.5212 8.27759 14.521V14.521L8.27602 14.521V14.521C7.94022 14.5144 7.61738 14.3883 7.36575 14.1649C7.36204 14.1617 7.35832 14.1584 7.3546 14.1551V14.1551L7.35373 14.1543L7.35271 14.1534C5.66397 12.6605 2.7278 9.95723 1.69201 8.46086L1.69006 8.45804V8.45804L1.68917 8.45685C1.6878 8.45518 1.68643 8.4535 1.68506 8.45181C0.92888 7.52431 0.477978 6.3856 0.394231 5.19173V5.19173L0.394216 5.18839L0.394224 5.18518C0.397947 3.91587 0.903809 2.6995 1.80147 1.80183L1.80265 1.80065C2.70167 0.902254 3.92006 0.396648 5.19107 0.394573V0.394573L5.19223 0.394551C6.32026 0.37396 7.41753 0.758912 8.28499 1.47825C8.29402 1.48574 8.30303 1.49326 8.31201 1.50083C8.31849 1.50628 8.32495 1.51175 8.3314 1.51724C8.33783 1.51182 8.34427 1.50642 8.35072 1.50104C8.35946 1.49375 8.36821 1.48649 8.377 1.47927C9.04168 0.93257 9.83719 0.578902 10.6772 0.447863C10.7453 0.437239 10.8137 0.428078 10.8824 0.420396C11.121 0.393694 11.3626 0.384865 11.6052 0.394573C12.159 0.419057 12.7 0.538138 13.2061 0.742678C13.3264 0.791287 13.4447 0.844722 13.5608 0.902861C13.9642 1.10494 14.3403 1.36386 14.6768 1.67445C14.8785 1.86061 15.0628 2.06245 15.2284 2.2774C15.3459 2.42985 15.4539 2.5889 15.5521 2.75363C15.891 3.3222 16.1123 3.95847 16.1968 4.62484V4.62484C16.1972 4.62785 16.1976 4.63101 16.1979 4.63402C16.2272 4.88456 16.2365 5.13548 16.2264 5.38457V5.38457C16.1881 6.32839 15.8715 7.24665 15.3081 8.01853V8.01853C15.3065 8.02075 15.3046 8.02336 15.3029 8.02558C15.3006 8.02882 15.2983 8.03207 15.296 8.03533V8.03533C14.1053 9.69239 10.6776 12.8633 9.24812 14.1595V14.1595C9.24618 14.1612 9.24403 14.1632 9.2421 14.1649ZM15.3452 8.05585V8.05585C15.3429 8.05906 15.3403 8.06275 15.338 8.06598V8.06598C14.1412 9.72728 10.7132 12.9054 9.28135 14.1963C9.27939 14.1981 9.27741 14.1999 9.27544 14.2017V14.2017C9.27232 14.2045 9.26881 14.2077 9.26567 14.2104V14.2104C9.00042 14.4453 8.65806 14.5745 8.30393 14.5735C8.29477 14.5735 8.28561 14.5734 8.27645 14.5732V14.5732C7.92561 14.5713 7.58702 14.4439 7.32222 14.2142V14.2142C7.31843 14.2109 7.31455 14.2075 7.3108 14.2042L7.30932 14.2029V14.2029C5.6369 12.711 2.65545 9.98826 1.65064 8.48922V8.48922L1.64854 8.48659V8.48659L1.64614 8.48366C0.880153 7.55004 0.425921 6.39985 0.347318 5.19472L0.347115 5.19158L0.347106 5.18831C0.34793 3.90455 0.857503 2.67342 1.76424 1.76461L1.76539 1.76345C2.67335 0.854027 3.905 0.341967 5.19005 0.339619V0.339619L5.19107 0.339617C6.29339 0.330395 7.36412 0.701699 8.22278 1.38846C8.25019 1.41039 8.27739 1.43263 8.30436 1.4552C8.3134 1.46276 8.32242 1.47036 8.3314 1.47799C8.34025 1.47057 8.34912 1.4632 8.35801 1.45585C8.38516 1.43343 8.41253 1.41132 8.44012 1.38952C9.08732 0.878233 9.85506 0.540171 10.6708 0.408473C10.7397 0.397353 10.8087 0.387737 10.8779 0.37962C11.1205 0.351125 11.3642 0.341107 11.607 0.349341V0.349341C12.1604 0.368129 12.709 0.481741 13.228 0.687497C13.3505 0.736064 13.4707 0.789493 13.5883 0.847589C14.0019 1.05193 14.3836 1.31402 14.7221 1.62537C14.925 1.81195 15.1123 2.01623 15.2817 2.23637C15.4009 2.39121 15.5102 2.55261 15.6092 2.71959C15.9527 3.29885 16.1728 3.94533 16.2529 4.61832C16.2532 4.62123 16.2536 4.62413 16.2539 4.62704V4.62704C16.2829 4.88057 16.2918 5.13489 16.2811 5.3869V5.3869C16.2405 6.34101 15.9196 7.26853 15.35 8.04914C15.3484 8.05137 15.3468 8.05361 15.3452 8.05585ZM15.3702 8.06358V8.06358C15.3687 8.06574 15.367 8.0681 15.3654 8.07026V8.07026C15.3631 8.07346 15.3602 8.07735 15.3579 8.08054C14.1689 9.73886 10.7353 12.9092 9.29703 14.2135V14.2135C9.29507 14.2153 9.29301 14.2172 9.29106 14.2189V14.2189C9.288 14.2217 9.28439 14.225 9.28135 14.2277C9.01345 14.4725 8.66612 14.6117 8.30393 14.6199C8.29478 14.6201 8.28562 14.6202 8.27645 14.6203V14.6203L8.27542 14.6203C7.91288 14.6216 7.5629 14.4887 7.29269 14.2476V14.2476C7.28897 14.2443 7.28507 14.2408 7.28138 14.2374V14.2374L7.27939 14.2356C5.60934 12.7459 2.65511 10.0268 1.61515 8.51823V8.51823L1.61239 8.51422L1.61109 8.51233V8.51233C0.840687 7.57058 0.382382 6.41187 0.30044 5.19801L0.300202 5.19447L0.3 5.19143V5.19143C0.304181 3.89557 0.820814 2.65382 1.73714 1.7375L1.73826 1.73637C2.6541 0.821127 3.89457 0.304964 5.18933 0.300369L5.19074 0.300364V0.300364C6.26059 0.287204 7.30201 0.632629 8.14994 1.27786C8.16287 1.2877 8.17576 1.29761 8.18859 1.30759C8.23685 1.34509 8.28446 1.38358 8.3314 1.42303C8.37704 1.38603 8.42327 1.34991 8.47009 1.31466C8.48535 1.30317 8.50068 1.29178 8.51606 1.28048C9.15078 0.814197 9.88892 0.507994 10.6676 0.388136C10.7367 0.377499 10.8061 0.368331 10.8758 0.360648C11.1197 0.333755 11.3643 0.325363 11.6076 0.335113V0.335113C12.1633 0.357415 12.7124 0.474413 13.2302 0.681822C13.3521 0.730641 13.4723 0.784469 13.5904 0.843251C14.0053 1.04964 14.3865 1.31281 14.7239 1.6234C14.9273 1.81056 15.1148 2.01494 15.2842 2.23449C15.4028 2.38827 15.5126 2.5495 15.6128 2.71747C15.9607 3.30104 16.1818 3.94817 16.2652 4.61686V4.61686C16.2655 4.61973 16.2659 4.62263 16.2663 4.6255V4.6255C16.2972 4.87711 16.3086 5.13228 16.3 5.3877C16.259 6.35165 15.9356 7.28212 15.3702 8.06358ZM15.601 8.25638C16.2084 7.42382 16.5559 6.43014 16.5997 5.40046L16.5998 5.39785C16.6335 4.40278 16.3803 3.41901 15.8704 2.56384C15.3605 1.70867 14.6155 1.01817 13.7241 0.574659C12.8327 0.131152 11.8325 -0.0466487 10.8429 0.0624542C9.93387 0.162669 9.06893 0.501062 8.33469 1.04147C7.43345 0.354579 6.32643 -0.0133203 5.18875 0.000368669C3.81409 0.00512071 2.49706 0.553304 1.525 1.52537C0.552619 2.49775 0.00439502 3.81532 1.52788e-06 5.19047C-2.06451e-05 5.19742 0.000198521 5.20437 0.000658699 5.2113C0.0852608 6.48589 0.564214 7.7025 1.37099 8.69261C1.90951 9.47237 2.92407 10.5438 3.99689 11.5942C5.07956 12.6542 6.24077 13.7111 7.07837 14.4583C7.40603 14.7573 7.83413 14.9222 8.27774 14.9203C8.72385 14.9183 9.15335 14.7507 9.48285 14.45C10.1985 13.8012 11.4225 12.6776 12.6179 11.5068C13.8071 10.3421 14.9868 9.11268 15.601 8.25638ZM5.19104 1.26602C4.15292 1.26819 3.15745 1.68152 2.42323 2.41574L2.41931 2.41967C1.6856 3.15545 1.2735 4.1522 1.2735 5.19143L1.27386 5.19556L1.27426 5.20021C1.36302 6.21438 1.7592 7.17737 2.40992 7.96042L2.41187 7.96278V7.96278L2.4155 7.96795L2.41608 7.96877C3.4472 9.43638 6.57239 12.3201 7.92447 13.5076V13.5076L7.92557 13.5085L7.92692 13.5097L7.93101 13.5133C7.94437 13.5254 7.95829 13.5367 7.97271 13.5472C8.05241 13.6054 8.14724 13.6397 8.24604 13.6458C8.25093 13.6461 8.25583 13.6463 8.26074 13.6465C8.26466 13.6466 8.26859 13.6467 8.27252 13.6468L8.27645 13.6468L8.26075 13.6311C8.26468 13.6311 8.2686 13.631 8.27252 13.631L8.27645 13.6309V13.6309C8.282 13.6307 8.28759 13.6304 8.29312 13.6301C8.38771 13.6244 8.47885 13.5936 8.55728 13.5413C8.57638 13.5285 8.59473 13.5145 8.61219 13.4992V13.4992L8.61403 13.4976L8.61506 13.4967V13.4967C10.0201 12.2094 13.4049 9.07506 14.5382 7.50405V7.50405L14.5412 7.4999V7.4999L14.5424 7.49821C15.0144 6.87102 15.2875 6.11674 15.3265 5.33275C15.3326 5.12956 15.323 4.9271 15.298 4.72712V4.72712L15.2978 4.7256C15.2258 4.15176 15.0276 3.5983 14.7144 3.1062C14.5288 2.81462 14.3066 2.5505 14.0545 2.31957C14.0153 2.28364 13.9753 2.24852 13.9347 2.21422C13.6417 1.96691 13.3124 1.76249 12.9563 1.60905C12.5143 1.41859 12.0435 1.31207 11.5677 1.29206V1.29206C11.458 1.28746 11.3474 1.28745 11.2374 1.29209C11.0446 1.30022 10.8518 1.3226 10.6607 1.3594C10.4246 1.40486 10.1944 1.47167 9.97259 1.55844C9.46827 1.75577 9.00773 2.05631 8.62188 2.44364L8.30785 2.76552L7.99449 2.44432L7.99145 2.4412V2.4412C7.62975 2.06796 7.19578 1.77086 6.71678 1.56904L6.71338 1.56761L6.71082 1.56654C6.23219 1.36581 5.71798 1.26359 5.19892 1.26602C5.1963 1.26602 5.19365 1.26602 5.19104 1.26602ZM7.95456 2.48289L7.95141 2.47964V2.47964C7.59491 2.11161 7.16749 1.81899 6.69534 1.61994L6.69198 1.61852L6.6894 1.61744C6.21761 1.41948 5.71078 1.31864 5.19918 1.32093V1.32093C5.19656 1.32094 5.19369 1.32095 5.19107 1.32097V1.32097C4.16642 1.32097 3.18364 1.72728 2.45817 2.45068L2.45424 2.4546C1.72934 3.1795 1.32168 4.16234 1.32061 5.18739L1.32061 5.19143L1.321 5.19582C1.41071 6.20075 1.80657 7.15396 2.45513 7.92679L2.45656 7.9285L2.45813 7.93037L2.45898 7.93137L2.45962 7.9323C3.47308 9.4007 6.64375 12.2967 7.95456 13.4741L7.95619 13.4755V13.4755L7.96082 13.4794V13.4794C7.97013 13.4871 7.98018 13.4949 7.98999 13.5019C8.06899 13.5582 8.16327 13.5898 8.26076 13.5921C8.26468 13.5922 8.2686 13.5923 8.27252 13.5923L8.27645 13.5922V13.5922C8.28438 13.5922 8.29247 13.5919 8.30036 13.5915C8.31196 13.5908 8.32352 13.5897 8.33499 13.5882C8.40956 13.5786 8.48093 13.5518 8.54342 13.5099C8.55975 13.499 8.57547 13.487 8.59048 13.4741L8.59156 13.4731V13.4731L8.59274 13.472V13.472C9.99967 12.1908 13.3881 9.06089 14.51 7.48388L14.5133 7.47932L14.5142 7.47799C14.8764 6.97025 15.1094 6.38789 15.2005 5.78066C15.2255 5.63202 15.2417 5.48167 15.249 5.3304L15.2491 5.3289C15.2584 5.13173 15.2526 4.933 15.2309 4.73443C15.1683 4.15997 14.9767 3.61244 14.6764 3.13035C14.4977 2.8434 14.2804 2.57957 14.0289 2.3469C13.9904 2.31125 13.951 2.27634 13.9109 2.24218C13.6174 1.99238 13.2905 1.79074 12.9424 1.64136C12.661 1.52065 12.3658 1.43406 12.0631 1.38377C11.8996 1.35241 11.7336 1.33135 11.5659 1.32097C11.4568 1.31638 11.3477 1.31646 11.2389 1.32118C11.0465 1.32952 10.8551 1.35236 10.6665 1.38941C10.4343 1.43501 10.2062 1.50214 9.98529 1.59028C9.48521 1.78978 9.03281 2.09242 8.65758 2.47847V2.47847L8.65329 2.48289L8.64909 2.4871L8.3 2.83618L7.95456 2.48289ZM7.91877 2.5179L7.91531 2.5143C7.56203 2.15284 7.14035 1.86535 6.67485 1.66857L6.67152 1.66717L6.66894 1.66608C6.20366 1.47031 5.70413 1.36903 5.1994 1.36808V1.36808C5.19688 1.36808 5.19389 1.36808 5.19138 1.36808V1.36808C4.17921 1.36808 3.20812 1.76942 2.49148 2.48399L2.48755 2.48791C1.77243 3.20303 1.36986 4.17225 1.36772 5.18335L1.36772 5.18727L1.36771 5.19143C1.46112 6.18568 1.85377 7.12819 2.49377 7.89464L2.49744 7.89902L2.49823 7.89997L2.4993 7.90153L2.50025 7.90291C3.50659 9.3708 6.67089 12.2535 7.99077 13.4321L7.9916 13.4328L7.99382 13.4348L7.99721 13.4379L7.99823 13.4388C8.00455 13.4445 8.01103 13.45 8.01765 13.4553C8.08693 13.5103 8.17209 13.5419 8.26077 13.5452C8.26468 13.5454 8.2686 13.5455 8.27252 13.5455L8.27645 13.5455V13.5455C8.30236 13.5455 8.32837 13.5431 8.3535 13.5383C8.3675 13.5357 8.38133 13.5323 8.39493 13.5283C8.43873 13.5153 8.48024 13.4951 8.5177 13.4684C8.53126 13.4588 8.54429 13.4483 8.55671 13.437L8.55767 13.4361V13.4361L8.55884 13.435V13.435C9.96236 12.1648 13.3395 9.03842 14.4743 7.45847V7.45847L14.4777 7.45372L14.4786 7.45247V7.45247C14.8537 6.95755 15.0992 6.38299 15.2005 5.78066C15.2228 5.63175 15.2366 5.48135 15.2417 5.33018L15.2418 5.32854C15.2483 5.1318 15.24 4.93378 15.2166 4.73608V4.73608C15.1432 4.1682 14.9471 3.62739 14.6466 3.14935C14.4683 2.8658 14.2532 2.6043 14.0052 2.37227C13.9671 2.33665 13.9284 2.30184 13.889 2.26787C13.6003 2.01854 13.2785 1.81413 12.9346 1.65935C12.6566 1.53422 12.3642 1.44153 12.0631 1.38377C11.899 1.35652 11.7328 1.33992 11.5654 1.33433V1.33433C11.4573 1.33073 11.3485 1.3317 11.2398 1.33735C11.0473 1.34736 10.857 1.37185 10.6704 1.41016C10.4388 1.45772 10.2129 1.52656 9.99532 1.61541C9.50541 1.81549 9.05814 2.11704 8.68527 2.50548V2.50548L8.6811 2.50984V2.50984L8.67684 2.5143L8.29215 2.90684L7.91877 2.5179ZM5.19107 1.56602V1.56602L5.19116 1.66808C5.65874 1.66793 6.12162 1.76127 6.55259 1.9426C6.98316 2.12376 7.3732 2.3891 7.69983 2.72303L8.07573 3.1146C8.13193 3.17314 8.20945 3.20642 8.2906 3.20684C8.37175 3.20725 8.44961 3.17478 8.50641 3.11682L8.8911 2.72428L8.89393 2.72135C9.51368 2.07157 10.3586 1.68357 11.2553 1.63695C11.5096 1.62373 11.7626 1.63824 12.0102 1.67911C12.6778 1.80789 13.2991 2.1226 13.8002 2.59136C14.4152 3.16661 14.8107 3.93796 14.9189 4.773C14.9569 5.09497 14.9513 5.41788 14.9042 5.73354C14.8106 6.28759 14.5846 6.81595 14.2395 7.27126L14.2347 7.27776C13.6869 8.04243 12.5768 9.2029 11.4119 10.3442C10.2529 11.4797 9.05889 12.5778 8.35777 13.2124L8.3553 13.2146C8.33385 13.2345 8.30568 13.2455 8.27645 13.2455C8.24721 13.2455 8.21905 13.2345 8.19759 13.2146L8.19362 13.211C7.53548 12.6234 6.41638 11.6099 5.33735 10.5612C4.25138 9.50571 3.22877 8.43612 2.74579 7.73052C2.74032 7.72252 2.73446 7.71479 2.72824 7.70736C2.12767 6.99019 1.75805 6.10827 1.66774 5.17744C1.67143 4.24804 2.04222 3.3575 2.69968 2.70004C3.36044 2.03929 4.25671 1.66808 5.19116 1.66808L5.19107 1.56602Z" fill="#B02E2F"/>
</svg>
