<svg width="12" height="12" viewBox="0 0 12 12" fill="none" xmlns="http://www.w3.org/2000/svg">
<path fill-rule="evenodd" clip-rule="evenodd" d="M10.9744 4.60044C10.8833 3.91033 10.5549 3.27421 10.0462 2.80279C9.53754 2.33137 8.88086 2.05448 8.19043 2.02031C7.78673 2.00307 7.38388 2.07063 7.00751 2.21869C6.63114 2.36676 6.28948 2.59209 6.00427 2.88035C5.59726 2.46298 5.07591 2.17732 4.50687 2.05988C3.93783 1.94244 3.34693 1.99856 2.80972 2.22107C2.27251 2.44358 1.81338 2.82236 1.49102 3.30901C1.16866 3.79566 0.997711 4.36806 1.00002 4.95306V4.95306C1.0631 5.70901 1.36202 6.42549 1.85399 6.99996C2.99529 8.37873 4.24622 9.66156 5.59437 10.8357C5.71179 10.9415 5.86381 11 6.02135 11C6.1789 11 6.33091 10.9415 6.44834 10.8357C7.88647 9.55949 9.23073 8.1798 10.4705 6.70754C10.8917 6.0922 11.0712 5.3414 10.9744 4.60044V4.60044Z" fill="#B02E2F"/>
<path fill-rule="evenodd" clip-rule="evenodd" d="M5.98193 11.5331C5.72464 11.5317 5.47661 11.437 5.28399 11.2664C4.07535 10.1883 1.9191 8.21926 1.19278 7.13546C0.636812 6.45939 0.307315 5.62573 0.250843 4.75224C0.250842 3.82317 0.619522 2.93208 1.27594 2.2746C1.93235 1.61712 2.82285 1.247 3.75191 1.24549C4.58272 1.23846 5.38834 1.53049 6.02165 2.06827C6.50531 1.66292 7.08954 1.39583 7.71253 1.29526C8.33552 1.19468 8.97412 1.26437 9.56076 1.49693C10.1474 1.72949 10.6603 2.11629 11.0451 2.61641C11.43 3.11653 11.6725 3.71137 11.7471 4.33801V4.33801C11.8492 5.21723 11.6162 6.10266 11.0945 6.8177C10.2377 8.01498 7.74665 10.3244 6.70825 11.2607C6.5101 11.4414 6.25003 11.5389 5.98193 11.5331ZM3.75191 1.95478C3.00998 1.95478 2.29844 2.24952 1.77382 2.77414C1.24919 3.29876 0.954462 4.01031 0.954462 4.75224C1.01888 5.48117 1.30615 6.17261 1.77724 6.73258C2.50923 7.79369 4.80167 9.88752 5.74928 10.7387C5.81317 10.7938 5.89472 10.8241 5.97909 10.8241C6.06346 10.8241 6.14502 10.7938 6.20891 10.7387C7.22461 9.81375 9.67593 7.54969 10.4874 6.40914C10.8992 5.83396 11.0814 5.12565 10.9981 4.42313C10.9136 3.76919 10.604 3.16509 10.1225 2.71463C9.64097 2.26418 9.01759 1.99551 8.35948 1.95478C7.9692 1.93836 7.57986 2.0047 7.21703 2.14943C6.85421 2.29417 6.52611 2.51404 6.2543 2.79459L5.99895 3.04993L5.74928 2.79459C5.4905 2.52674 5.18005 2.3142 4.83672 2.16985C4.4934 2.02549 4.12434 1.95233 3.75191 1.95478V1.95478ZM5.98193 11.5671C5.71532 11.5683 5.45804 11.469 5.26129 11.2891C4.05265 10.211 1.91343 8.24196 1.16441 7.15248C0.606424 6.47053 0.275155 5.63145 0.216797 4.75224C0.219789 3.81559 0.593199 2.91815 1.25551 2.25584C1.91783 1.59352 2.81526 1.22011 3.75191 1.21712C4.58128 1.20692 5.38673 1.49487 6.02165 2.02855C6.54833 1.60154 7.18669 1.33499 7.86064 1.26069C8.53459 1.18639 9.21568 1.30748 9.82273 1.6095C10.4298 1.91153 10.9372 2.38176 11.2844 2.96414C11.6316 3.54651 11.804 4.21645 11.7811 4.8941C11.7512 5.59585 11.5143 6.27307 11.1002 6.8404C10.2377 8.04336 7.74098 10.3471 6.70825 11.2834C6.50973 11.4648 6.25085 11.5659 5.98193 11.5671ZM3.75191 1.28521C2.83286 1.28671 1.95188 1.65247 1.30201 2.30234C0.652146 2.95221 0.28639 3.83319 0.284889 4.75224C0.3455 5.61694 0.672592 6.4416 1.22116 7.11276C1.97017 8.19656 4.10372 10.1599 5.32371 11.238C5.51061 11.4039 5.75186 11.4956 6.00179 11.4956C6.25172 11.4956 6.49297 11.4039 6.67988 11.238C7.71261 10.3017 10.2036 7.99796 11.0605 6.80068C11.5778 6.09453 11.8089 5.21883 11.7073 4.34936C11.605 3.52887 11.2155 2.7711 10.6079 2.21027C10.0004 1.64943 9.21389 1.32173 8.38785 1.28521C7.52546 1.25071 6.68138 1.54017 6.02165 2.09664V2.09664C5.38934 1.55843 4.58213 1.26985 3.75191 1.28521V1.28521ZM5.98193 10.8635C5.88967 10.8632 5.80076 10.8289 5.73226 10.767C4.75627 9.91022 2.48653 7.81638 1.7432 6.75528C1.27068 6.18737 0.983531 5.48831 0.920416 4.75224C0.920416 3.99977 1.21933 3.27813 1.7514 2.74605C2.28348 2.21398 3.00512 1.91506 3.75759 1.91506C4.13431 1.9133 4.50749 1.9878 4.85465 2.13408C5.20182 2.28036 5.51579 2.49539 5.77766 2.76622L6.00463 2.99886L6.2316 2.76622C6.63312 2.36316 7.14653 2.09013 7.70518 1.98256C8.26383 1.875 8.84192 1.93786 9.36439 2.163C9.88686 2.38814 10.3296 2.76515 10.6351 3.24509C10.9406 3.72503 11.0947 4.28572 11.0775 4.85438C11.0493 5.42143 10.8516 5.96699 10.5101 6.42049C9.69295 7.55536 7.24164 9.8251 6.22593 10.7557C6.15541 10.8179 6.06461 10.8522 5.97058 10.8522L5.98193 10.8635ZM3.75191 1.98883C3.01901 1.98883 2.31613 2.27997 1.79789 2.79821C1.27965 3.31645 0.988508 4.01934 0.988508 4.75224C1.05618 5.47252 1.34114 6.15523 1.80561 6.70989C2.53193 7.77099 4.82437 9.85915 5.77766 10.7103C5.83324 10.7617 5.90619 10.7903 5.98193 10.7903C6.05767 10.7903 6.13062 10.7617 6.18621 10.7103C7.20192 9.79105 9.64756 7.52699 10.4647 6.38645C10.8902 5.82508 11.0847 5.12218 11.0084 4.42193C10.9321 3.72168 10.5907 3.07716 10.0543 2.6206C9.51794 2.16405 8.82717 1.93005 8.12372 1.96662C7.42028 2.0032 6.75749 2.30756 6.27132 2.81729L5.99328 3.101L5.72091 2.81729C5.46449 2.55493 5.15821 2.34649 4.82007 2.20422C4.48193 2.06195 4.11876 1.98872 3.75191 1.98883V1.98883Z" fill="#B02E2F"/>
<path fill-rule="evenodd" clip-rule="evenodd" d="M6.67991 11.238C6.67755 11.2401 6.67518 11.2422 6.6728 11.2442C6.67275 11.2443 6.67285 11.2442 6.6728 11.2442C6.48693 11.4061 6.24853 11.4955 6.00183 11.4955C5.99547 11.4955 5.98913 11.4955 5.98279 11.4954C5.98258 11.4954 5.983 11.4954 5.98279 11.4954C5.98262 11.4954 5.98183 11.4954 5.98166 11.4953C5.98165 11.4953 5.98166 11.4953 5.98166 11.4953C5.73895 11.4906 5.50561 11.3994 5.32374 11.238C5.32106 11.2356 5.31837 11.2332 5.31568 11.2309C5.31544 11.2306 5.31456 11.2299 5.31431 11.2297C4.09374 10.1506 1.97157 8.19679 1.22293 7.11526C1.22246 7.11458 1.22199 7.1139 1.22152 7.11322C1.22141 7.11306 1.22163 7.11338 1.22152 7.11322C1.22142 7.11309 1.22098 7.11248 1.22088 7.11236C1.21989 7.11114 1.2189 7.10993 1.21791 7.10872C0.671367 6.43834 0.345468 5.61532 0.284938 4.75243C0.284933 4.75236 0.284943 4.7525 0.284938 4.75243C0.28494 4.75169 0.284926 4.75074 0.284927 4.75001C0.284929 4.74924 0.284931 4.74846 0.284933 4.74769C0.287624 3.83027 0.653246 2.95111 1.30205 2.30231C1.30233 2.30203 1.30262 2.30174 1.3029 2.30146C1.95269 1.65212 2.8333 1.28668 3.75195 1.28519C4.56726 1.2703 5.36117 1.54852 5.98814 2.06843C5.99467 2.07385 6.00118 2.07929 6.00767 2.08475C6.01235 2.08869 6.01702 2.09265 6.02169 2.09662C6.02633 2.0927 6.03098 2.08879 6.03565 2.0849C6.04196 2.07963 6.04829 2.07439 6.05464 2.06917C6.53505 1.67403 7.11002 1.41841 7.71716 1.3237C7.76638 1.31602 7.81582 1.3094 7.86543 1.30385C8.0379 1.28455 8.21251 1.27817 8.38789 1.28519C8.78816 1.30288 9.17914 1.38895 9.54498 1.53679C9.63192 1.57192 9.71744 1.61054 9.80133 1.65256C10.0929 1.79862 10.3648 1.98575 10.608 2.21024C10.7537 2.34479 10.8869 2.49067 11.0066 2.64604C11.0915 2.75622 11.1696 2.87118 11.2406 2.99024C11.4855 3.40119 11.6455 3.86106 11.7065 4.3427C11.7065 4.34273 11.7065 4.34266 11.7065 4.3427C11.7068 4.34487 11.7071 4.34716 11.7074 4.34933C11.7285 4.53041 11.7353 4.71177 11.728 4.89181C11.728 4.89196 11.728 4.89165 11.728 4.89181C11.7003 5.57397 11.4714 6.23766 11.0642 6.79555C11.0642 6.79564 11.0643 6.79546 11.0642 6.79555C11.0631 6.79716 11.0617 6.79904 11.0605 6.80065C11.0588 6.80299 11.0571 6.80534 11.0555 6.80769C11.0554 6.80782 11.0555 6.80756 11.0555 6.80769C10.1949 8.00537 7.71748 10.2972 6.68426 11.234C6.68421 11.2341 6.68431 11.234 6.68426 11.234C6.68286 11.2353 6.68131 11.2367 6.67991 11.238ZM11.0911 6.82252C11.0912 6.82241 11.091 6.82264 11.0911 6.82252C11.0894 6.82485 11.0875 6.82752 11.0858 6.82985C11.0858 6.82981 11.0858 6.82989 11.0858 6.82985C10.2208 8.03058 7.74314 10.3276 6.70828 11.2607C6.70686 11.262 6.70543 11.2633 6.704 11.2646C6.7041 11.2645 6.70391 11.2646 6.704 11.2646C6.70175 11.2666 6.69921 11.2689 6.69694 11.2709C6.69696 11.2709 6.69693 11.2709 6.69694 11.2709C6.50523 11.4406 6.25778 11.534 6.00183 11.5333C5.99521 11.5333 5.98859 11.5332 5.98197 11.5331C5.98201 11.5331 5.98192 11.5331 5.98197 11.5331C5.72839 11.5317 5.48367 11.4396 5.29228 11.2736C5.2923 11.2736 5.29225 11.2736 5.29228 11.2736C5.28954 11.2712 5.28674 11.2688 5.28402 11.2664C5.28367 11.266 5.28331 11.2657 5.28295 11.2654C5.28305 11.2655 5.28285 11.2653 5.28295 11.2654C4.07418 10.1871 1.91928 8.21921 1.19303 7.13575C1.1931 7.13586 1.19296 7.13565 1.19303 7.13575C1.1926 7.13522 1.19195 7.13438 1.19151 7.13385C1.19162 7.13398 1.19141 7.13372 1.19151 7.13385C1.19104 7.13327 1.19025 7.13231 1.18978 7.13173C0.636148 6.45694 0.307843 5.62562 0.251031 4.75459C0.250982 4.75383 0.250933 4.75307 0.250884 4.75232C0.250884 4.75158 0.250877 4.75069 0.250878 4.74995C0.251474 3.82209 0.619777 2.93227 1.27514 2.2754C1.27542 2.27513 1.2757 2.27485 1.27597 2.27457C1.93221 1.61726 2.82242 1.24716 3.75121 1.24547C4.54794 1.2388 5.32256 1.50717 5.94317 2.00354C5.96299 2.01938 5.98265 2.03546 6.00214 2.05177C6.00868 2.05724 6.01519 2.06273 6.02169 2.06824C6.02808 2.06289 6.03449 2.05755 6.04092 2.05224C6.06054 2.03604 6.08032 2.02006 6.10026 2.0043C6.56804 1.63476 7.12294 1.39042 7.71256 1.29523C7.76235 1.28719 7.81223 1.28024 7.86218 1.27438C8.03755 1.25378 8.21372 1.24654 8.3892 1.25249C8.38915 1.25249 8.38924 1.25249 8.3892 1.25249C8.78915 1.26607 9.18566 1.34819 9.56079 1.4969C9.64934 1.532 9.73621 1.57062 9.82121 1.61261C10.1202 1.76031 10.3961 1.94973 10.6407 2.17477C10.7873 2.30962 10.9227 2.45727 11.0452 2.61638C11.1313 2.72829 11.2103 2.84495 11.2819 2.96564C11.5302 3.38431 11.6892 3.85157 11.7471 4.33798C11.7473 4.34008 11.7476 4.34218 11.7478 4.34428C11.7478 4.34418 11.7478 4.34439 11.7478 4.34428C11.7688 4.52753 11.7752 4.71134 11.7675 4.89349C11.7675 4.89345 11.7674 4.89353 11.7675 4.89349C11.7381 5.58309 11.5062 6.25348 11.0946 6.81767C11.0934 6.81929 11.0922 6.8209 11.0911 6.82252ZM11.1091 6.82811C11.1092 6.82806 11.1091 6.82815 11.1091 6.82811C11.108 6.82968 11.1068 6.83138 11.1056 6.83294C11.1058 6.83278 11.1055 6.83311 11.1056 6.83294C11.104 6.83525 11.1019 6.83806 11.1002 6.84037C10.2409 8.03895 7.75916 10.3304 6.71961 11.2731C6.71964 11.2731 6.71959 11.2731 6.71961 11.2731C6.71819 11.2744 6.71671 11.2757 6.7153 11.277C6.71543 11.2769 6.71516 11.2771 6.7153 11.277C6.71309 11.279 6.71048 11.2814 6.70828 11.2834C6.51465 11.4603 6.26361 11.5609 6.00183 11.5668C5.99521 11.567 5.98859 11.5671 5.98197 11.5671C5.71994 11.568 5.46623 11.472 5.27094 11.2977C5.27098 11.2978 5.27089 11.2977 5.27094 11.2977C5.26825 11.2953 5.26543 11.2928 5.26276 11.2904C5.26279 11.2904 5.26273 11.2903 5.26276 11.2904C5.26231 11.29 5.26177 11.2895 5.26132 11.2891C4.05426 10.2123 1.91903 8.24706 1.16738 7.15672C1.16743 7.1568 1.16733 7.15664 1.16738 7.15672C1.16677 7.15583 1.16599 7.15471 1.16538 7.15382C1.16507 7.15337 1.16476 7.15291 1.16445 7.15246C1.16453 7.15257 1.16436 7.15235 1.16445 7.15246C0.607623 6.47179 0.276374 5.6343 0.217149 4.75696C0.217091 4.75611 0.217034 4.75526 0.216977 4.7544C0.216928 4.75367 0.216879 4.75294 0.216831 4.75221C0.216831 4.75225 0.216831 4.75217 0.216831 4.75221C0.219853 3.8156 0.593259 2.9181 1.25555 2.25581C1.25582 2.25554 1.25609 2.25527 1.25636 2.25499C1.9183 1.59349 2.81488 1.22042 3.75069 1.2171C3.75103 1.2171 3.75137 1.21709 3.75171 1.21709C3.75166 1.21709 3.75175 1.21709 3.75171 1.21709C4.52496 1.20758 5.27767 1.45725 5.89053 1.9236C5.89988 1.93071 5.90919 1.93788 5.91847 1.94509C5.95335 1.97219 5.98776 2.00001 6.02169 2.02852C6.05467 2.00178 6.08809 1.97567 6.12193 1.9502C6.13296 1.94189 6.14403 1.93366 6.15515 1.92549C6.61391 1.58848 7.14741 1.36716 7.71019 1.28053C7.76013 1.27285 7.8103 1.26622 7.86067 1.26067C8.03698 1.24123 8.21378 1.23516 8.38961 1.24221C8.38955 1.24221 8.38967 1.24221 8.38961 1.24221C8.7913 1.25833 9.18813 1.34289 9.56242 1.4928C9.65051 1.52809 9.73737 1.56699 9.82276 1.60948C10.1226 1.75865 10.3981 1.94886 10.642 2.17334C10.789 2.30862 10.9245 2.45633 11.0469 2.61502C11.1327 2.72617 11.212 2.8427 11.2844 2.96411C11.5359 3.38589 11.6957 3.85361 11.756 4.33693C11.756 4.33692 11.756 4.33693 11.756 4.33693C11.7562 4.339 11.7565 4.3411 11.7568 4.34317C11.7567 4.34304 11.7568 4.3433 11.7568 4.34317C11.7791 4.52503 11.7874 4.70946 11.7811 4.89407C11.7515 5.59078 11.5177 6.2633 11.1091 6.82811ZM11.2759 6.96746C11.7149 6.36571 11.9661 5.64751 11.9978 4.90329L11.9979 4.9014C12.0222 4.1822 11.8392 3.47116 11.4707 2.85307C11.1021 2.23497 10.5636 1.7359 9.91935 1.41535C9.27507 1.09479 8.5522 0.966284 7.83691 1.04514C7.1799 1.11757 6.55475 1.36215 6.02406 1.75274C5.37267 1.25628 4.57255 0.990372 3.75027 1.00027C2.75671 1.0037 1.8048 1.39991 1.10223 2.10249C0.399417 2.8053 0.00317658 3.7576 1.1043e-06 4.75152C-1.49216e-05 4.75654 0.000143485 4.76156 0.000476088 4.76657C0.0616239 5.68781 0.407797 6.56713 0.990908 7.28276C1.38014 7.84635 2.11343 8.62077 2.88883 9.37995C3.67135 10.1461 4.51064 10.91 5.11603 11.45C5.35286 11.6661 5.66227 11.7853 5.9829 11.7839C6.30533 11.7825 6.61576 11.6614 6.85392 11.444C7.37114 10.9751 8.25584 10.163 9.11981 9.31679C9.97938 8.47492 10.832 7.58637 11.2759 6.96746ZM3.75193 1.91504C3.0016 1.91661 2.28211 2.21535 1.75144 2.74603C1.75049 2.74697 1.74955 2.74792 1.7486 2.74887C1.2183 3.28066 0.92045 4.00108 0.92045 4.75221C0.920535 4.75321 0.920621 4.7542 0.920707 4.7552C0.920804 4.75632 0.920902 4.75744 0.921 4.75856C0.985153 5.49157 1.2715 6.18758 1.74181 6.75355C1.74229 6.75412 1.74276 6.75469 1.74323 6.75525C1.74335 6.75543 1.74311 6.75508 1.74323 6.75525C1.74398 6.75632 1.7451 6.75792 1.74585 6.75899C1.74599 6.75919 1.74571 6.7588 1.74585 6.75899C2.49111 7.81974 4.75033 9.90461 5.72756 10.7629C5.72773 10.763 5.7274 10.7627 5.72756 10.7629C5.72767 10.763 5.72826 10.7635 5.72837 10.7636C5.72869 10.7639 5.72902 10.7641 5.72934 10.7644C5.73033 10.7653 5.73131 10.7662 5.7323 10.767C5.74195 10.7757 5.75201 10.7839 5.76243 10.7915C5.82004 10.8335 5.88858 10.8583 5.95998 10.8628C5.96352 10.863 5.96706 10.8632 5.97061 10.8633C5.97345 10.8634 5.97629 10.8634 5.97913 10.8635C5.98007 10.8635 5.98102 10.8635 5.98197 10.8635L5.97062 10.8521C5.97346 10.8521 5.97629 10.8521 5.97913 10.852C5.98007 10.852 5.98102 10.852 5.98197 10.852C5.98198 10.852 5.98195 10.852 5.98197 10.852C5.98598 10.8519 5.99002 10.8517 5.99402 10.8514C6.06238 10.8473 6.12826 10.825 6.18495 10.7872C6.19875 10.778 6.21201 10.7679 6.22463 10.7568C6.22479 10.7567 6.22447 10.757 6.22463 10.7568C6.22491 10.7566 6.22568 10.7559 6.22596 10.7557C6.22621 10.7554 6.22646 10.7552 6.22671 10.755C6.22687 10.7548 6.22654 10.7551 6.22671 10.755C7.2422 9.82457 9.68867 7.55918 10.5078 6.4237C10.5078 6.42368 10.5077 6.42372 10.5078 6.4237C10.5085 6.42272 10.5092 6.42168 10.5099 6.4207C10.51 6.42062 10.5099 6.42078 10.5099 6.4207C10.5102 6.42037 10.5106 6.41981 10.5108 6.41948C10.852 5.96617 11.0494 5.42099 11.0775 4.85435C11.082 4.70749 11.075 4.56116 11.0569 4.41662C11.0569 4.41646 11.0569 4.41678 11.0569 4.41662C11.0569 4.41642 11.0568 4.41572 11.0568 4.41552C11.0048 4.00077 10.8615 3.60074 10.6351 3.24506C10.501 3.03432 10.3404 2.84342 10.1582 2.67651C10.1298 2.65055 10.1009 2.62516 10.0716 2.60037C9.85979 2.42162 9.62178 2.27387 9.36442 2.16297C9.04496 2.02531 8.7047 1.94832 8.36081 1.93386C8.36067 1.93386 8.36095 1.93387 8.36081 1.93386C8.28149 1.93054 8.20155 1.93053 8.12205 1.93388C7.98268 1.93976 7.84335 1.95594 7.70521 1.98254C7.53458 2.01539 7.36818 2.06368 7.20789 2.1264C6.84338 2.26902 6.51052 2.48624 6.23164 2.76619L6.00466 2.99884L5.77817 2.76668C5.7776 2.7661 5.77655 2.76501 5.77598 2.76442C5.77582 2.76426 5.77614 2.76459 5.77598 2.76442C5.51456 2.49466 5.20089 2.27993 4.85469 2.13406C4.85387 2.13371 4.85305 2.13337 4.85223 2.13302C4.85161 2.13276 4.851 2.1325 4.85038 2.13224C4.50444 1.98716 4.13278 1.91328 3.75762 1.91504C3.75573 1.91504 3.75382 1.91504 3.75193 1.91504ZM5.74932 2.79456C5.74872 2.79394 5.74764 2.79283 5.74704 2.79221C5.74712 2.79228 5.74697 2.79213 5.74704 2.79221C5.48937 2.52621 5.18044 2.31471 4.83919 2.17084C4.83838 2.1705 4.83757 2.17016 4.83676 2.16982C4.83614 2.16956 4.83552 2.1693 4.8349 2.16904C4.4939 2.02596 4.12758 1.95307 3.75781 1.95473C3.75787 1.95473 3.75775 1.95473 3.75781 1.95473C3.75592 1.95473 3.75384 1.95475 3.75195 1.95476C3.75195 1.95476 3.75194 1.95476 3.75195 1.95476C3.01136 1.95476 2.30104 2.24843 1.77669 2.77128C1.77574 2.77222 1.7748 2.77317 1.77385 2.77411C1.24991 3.29805 0.955269 4.00841 0.954497 4.74929C0.954496 4.75026 0.954496 4.75124 0.954496 4.75221C0.954589 4.75327 0.954683 4.75432 0.954778 4.75538C1.01962 5.48172 1.30574 6.17067 1.77449 6.72924C1.77484 6.72965 1.77518 6.73007 1.77553 6.73048C1.77591 6.73093 1.77629 6.73138 1.77667 6.73183C1.77646 6.73159 1.77687 6.73207 1.77667 6.73183C1.77682 6.73206 1.77759 6.73301 1.77774 6.73323C2.51024 7.79454 4.8019 9.88767 5.74932 10.7386C5.74971 10.739 5.7501 10.7393 5.75049 10.7397C5.75031 10.7395 5.75068 10.7398 5.75049 10.7397C5.75142 10.7404 5.7529 10.7417 5.75384 10.7425C5.75372 10.7424 5.75395 10.7426 5.75384 10.7425C5.76057 10.7481 5.76783 10.7537 5.77492 10.7587C5.83202 10.7994 5.90016 10.8223 5.97063 10.824C5.97346 10.824 5.97629 10.8241 5.97913 10.8241C5.98007 10.8241 5.98102 10.8241 5.98197 10.8241C5.98192 10.8241 5.98201 10.8241 5.98197 10.8241C5.9877 10.824 5.99355 10.8238 5.99925 10.8235C6.00764 10.823 6.01599 10.8222 6.02428 10.8212C6.07818 10.8142 6.12976 10.7948 6.17493 10.7646C6.18673 10.7567 6.19809 10.748 6.20894 10.7386C6.2092 10.7384 6.20946 10.7382 6.20972 10.7379C6.20961 10.738 6.20983 10.7378 6.20972 10.7379C6.20989 10.7378 6.2104 10.7373 6.21057 10.7372C6.21047 10.7372 6.21067 10.7371 6.21057 10.7372C7.22746 9.81113 9.67648 7.54894 10.4874 6.40912C10.4882 6.40802 10.489 6.40692 10.4898 6.40582C10.4899 6.40565 10.4903 6.40504 10.4904 6.40486C10.7522 6.03788 10.9206 5.61697 10.9865 5.17809C11.0045 5.07065 11.0163 4.96199 11.0215 4.85265C11.0215 4.85229 11.0216 4.85193 11.0216 4.85157C11.0283 4.70906 11.0241 4.56543 11.0084 4.4219C10.9632 4.0067 10.8247 3.61096 10.6077 3.26252C10.4785 3.05512 10.3215 2.86444 10.1397 2.69627C10.1118 2.6705 10.0834 2.64527 10.0544 2.62058C9.84226 2.44003 9.606 2.29429 9.35436 2.18632C9.15102 2.09908 8.93763 2.0365 8.71883 2.00015C8.60068 1.97748 8.48069 1.96226 8.35952 1.95476C8.28062 1.95144 8.20176 1.9515 8.12315 1.95491C7.98406 1.96094 7.84575 1.97744 7.70939 2.00423C7.5416 2.03718 7.37676 2.0857 7.21707 2.14941C6.85562 2.2936 6.52864 2.51234 6.25744 2.79136C6.25753 2.79127 6.25735 2.79145 6.25744 2.79136C6.25649 2.79234 6.25528 2.79358 6.25433 2.79456L6.2513 2.7976L5.99899 3.04991L5.74932 2.79456ZM5.72344 2.81986L5.72095 2.81726C5.46561 2.55601 5.16083 2.34822 4.82438 2.20599C4.82358 2.20565 4.82278 2.20532 4.82198 2.20498C4.82135 2.20472 4.82073 2.20445 4.82011 2.20419C4.48382 2.0627 4.12277 1.98949 3.75797 1.98881C3.75808 1.98881 3.75785 1.98881 3.75797 1.98881C3.75615 1.98881 3.75399 1.9888 3.75217 1.9888C3.75225 1.9888 3.7521 1.9888 3.75217 1.9888C3.02061 1.9888 2.31873 2.27889 1.80076 2.79535C1.79982 2.7963 1.79887 2.79724 1.79792 2.79819C1.28106 3.31505 0.99009 4.01558 0.988548 4.74637C0.988546 4.74731 0.988545 4.74826 0.988544 4.7492C0.988543 4.7502 0.988542 4.75121 0.988542 4.75221C1.05606 5.47082 1.33985 6.15204 1.80242 6.706C1.80331 6.70706 1.80419 6.70812 1.80507 6.70917C1.80488 6.70894 1.80526 6.7094 1.80507 6.70917C1.80533 6.70955 1.80616 6.71061 1.80642 6.71099C1.80665 6.71132 1.80687 6.71165 1.8071 6.71198C2.53446 7.77293 4.82151 9.85648 5.77549 10.7083C5.77529 10.7081 5.77569 10.7085 5.77549 10.7083C5.77602 10.7088 5.77716 10.7098 5.77769 10.7103C5.7785 10.711 5.77932 10.7118 5.78014 10.7125C5.7799 10.7123 5.78039 10.7127 5.78014 10.7125C5.78471 10.7166 5.79013 10.7212 5.79492 10.725C5.84499 10.7648 5.90654 10.7877 5.97064 10.7901C5.97346 10.7902 5.97629 10.7903 5.97913 10.7903C5.98007 10.7903 5.98102 10.7903 5.98197 10.7903C5.98189 10.7903 5.98205 10.7903 5.98197 10.7903C6.00069 10.7903 6.01949 10.7885 6.03766 10.7851C6.04777 10.7832 6.05777 10.7808 6.0676 10.7778C6.09926 10.7684 6.12926 10.7539 6.15634 10.7346C6.16614 10.7276 6.17556 10.72 6.18453 10.7118C6.18481 10.7116 6.1858 10.7107 6.18607 10.7104C6.18601 10.7105 6.18613 10.7104 6.18607 10.7104C7.20049 9.79235 9.6414 7.53269 10.4616 6.39076C10.4616 6.39078 10.4616 6.39073 10.4616 6.39076C10.4624 6.38964 10.4633 6.38844 10.4641 6.38732C10.4643 6.38702 10.4645 6.38672 10.4647 6.38642C10.4647 6.38645 10.4647 6.38639 10.4647 6.38642C10.7358 6.0287 10.9132 5.61343 10.9865 5.17809C11.0026 5.07046 11.0126 4.96175 11.0162 4.85249C11.0163 4.8521 11.0163 4.8517 11.0163 4.85131C11.021 4.70911 11.015 4.56598 10.9981 4.4231C10.9981 4.42312 10.9981 4.42308 10.9981 4.4231C10.9451 4.01265 10.8033 3.62177 10.5861 3.27626C10.4572 3.07131 10.3018 2.88231 10.1225 2.71461C10.095 2.68886 10.067 2.6637 10.0386 2.63915C9.82989 2.45894 9.59732 2.3112 9.34876 2.19932C9.14783 2.10889 8.93646 2.0419 8.71883 2.00015C8.60027 1.98045 8.48012 1.96846 8.35911 1.96441C8.35917 1.96442 8.35905 1.96441 8.35911 1.96441C8.28101 1.96181 8.20237 1.96251 8.12376 1.9666C7.98466 1.97383 7.84715 1.99153 7.71228 2.01922C7.54488 2.05359 7.38156 2.10335 7.22431 2.16757C6.87022 2.31218 6.54695 2.53013 6.27745 2.81089C6.27761 2.81073 6.2773 2.81105 6.27745 2.81089C6.2766 2.81178 6.27529 2.81315 6.27444 2.81404C6.27454 2.81393 6.27433 2.81414 6.27444 2.81404C6.27351 2.815 6.27228 2.81629 6.27136 2.81726L5.99331 3.10098L5.72344 2.81986ZM3.75195 2.13187C3.75193 2.13187 3.75196 2.13187 3.75195 2.13187L3.75202 2.20563C4.08996 2.20553 4.42452 2.27299 4.73602 2.40405C5.04722 2.53499 5.32913 2.72677 5.56521 2.96813L5.8369 3.25114C5.87752 3.29345 5.93354 3.3175 5.9922 3.3178C6.05085 3.31811 6.10712 3.29463 6.14818 3.25274L6.42622 2.96902L6.42826 2.96691C6.8762 2.49727 7.48688 2.21683 8.13501 2.18314C8.31882 2.17358 8.50169 2.18407 8.68064 2.21361C9.16316 2.30669 9.61222 2.53415 9.97439 2.87295C10.4188 3.28873 10.7047 3.84624 10.7829 4.44978C10.8104 4.68249 10.8064 4.91588 10.7723 5.14403C10.7046 5.54448 10.5413 5.92636 10.2919 6.25544L10.2884 6.26014C9.89248 6.81283 9.09012 7.65158 8.2482 8.47645C7.41052 9.29717 6.54749 10.0909 6.04074 10.5495L6.03896 10.5511C6.02345 10.5655 6.0031 10.5735 5.98197 10.5735C5.96083 10.5735 5.94048 10.5655 5.92497 10.5511L5.9221 10.5485C5.44641 10.1238 4.63756 9.39129 3.85768 8.63331C3.07277 7.87044 2.33366 7.09737 1.98458 6.58738C1.98062 6.5816 1.97639 6.57602 1.97189 6.57065C1.53781 6.0523 1.27067 5.41487 1.20539 4.74209C1.20806 4.07035 1.47606 3.4267 1.95125 2.95151C2.42882 2.47393 3.07662 2.20563 3.75202 2.20563L3.75195 2.13187Z" fill="#B02E2F"/>
</svg>
