<svg width="14" height="16" viewBox="0 0 14 16" fill="none" xmlns="http://www.w3.org/2000/svg">
<path d="M13.1544 4.375C13.123 3.99922 12.9512 3.64907 12.6732 3.39426C12.3952 3.13945 12.0315 2.99869 11.6544 3H10.0794C10.0794 2.20435 9.76332 1.44129 9.20071 0.878679C8.6381 0.31607 7.87504 0 7.07939 0C6.28374 0 5.52068 0.31607 4.95808 0.878679C4.39547 1.44129 4.0794 2.20435 4.0794 3H2.4994C2.12231 2.99869 1.75857 3.13945 1.48059 3.39426C1.20262 3.64907 1.03082 3.99922 0.999397 4.375L0.164398 14.375C0.147067 14.5822 0.173016 14.7908 0.240599 14.9875C0.308181 15.1841 0.41592 15.3646 0.556974 15.5174C0.698028 15.6702 0.869316 15.792 1.05996 15.8751C1.2506 15.9582 1.45644 16.0007 1.6644 16H3.0794C3.212 16 3.33918 15.9473 3.43295 15.8535C3.52672 15.7598 3.5794 15.6326 3.5794 15.5C3.5794 15.3674 3.52672 15.2402 3.43295 15.1464C3.33918 15.0527 3.212 15 3.0794 15H1.6644C1.59523 15.0002 1.52677 14.9861 1.46334 14.9585C1.39992 14.9309 1.34291 14.8904 1.29591 14.8397C1.24892 14.7889 1.21297 14.729 1.19033 14.6636C1.16769 14.5983 1.15886 14.5289 1.1644 14.46L1.9944 4.46C2.00447 4.33444 2.06157 4.21731 2.15427 4.13203C2.24696 4.04675 2.36844 3.99959 2.4944 4H4.0794V5.5C4.0794 5.63261 4.13207 5.75978 4.22584 5.85355C4.31961 5.94732 4.44679 6 4.5794 6C4.712 6 4.83918 5.94732 4.93295 5.85355C5.02672 5.75978 5.0794 5.63261 5.0794 5.5V4H9.07939V5.5C9.07939 5.63261 9.13207 5.75978 9.22584 5.85355C9.31961 5.94732 9.44678 6 9.57939 6C9.712 6 9.83918 5.94732 9.93295 5.85355C10.0267 5.75978 10.0794 5.63261 10.0794 5.5V4H11.6594C11.7854 3.99959 11.9068 4.04675 11.9995 4.13203C12.0922 4.21731 12.1493 4.33444 12.1594 4.46L12.9894 14.46C12.9949 14.5289 12.9861 14.5983 12.9635 14.6636C12.9408 14.729 12.9049 14.7889 12.8579 14.8397C12.8109 14.8904 12.7539 14.9309 12.6904 14.9585C12.627 14.9861 12.5586 15.0002 12.4894 15H5.0794C4.94679 15 4.81961 15.0527 4.72584 15.1464C4.63207 15.2402 4.5794 15.3674 4.5794 15.5C4.5794 15.6326 4.63207 15.7598 4.72584 15.8535C4.81961 15.9473 4.94679 16 5.0794 16H12.4944C12.7023 16.0007 12.9082 15.9582 13.0988 15.8751C13.2895 15.792 13.4608 15.6702 13.6018 15.5174C13.7429 15.3646 13.8506 15.1841 13.9182 14.9875C13.9858 14.7908 14.0117 14.5822 13.9944 14.375L13.1544 4.375ZM5.0794 3C5.0794 2.46957 5.29011 1.96086 5.66518 1.58579C6.04025 1.21071 6.54896 0.999999 7.07939 0.999999C7.60983 0.999999 8.11853 1.21071 8.49361 1.58579C8.86868 1.96086 9.07939 2.46957 9.07939 3H5.0794Z" fill="black"/>
</svg>
