<svg width="17" height="15" viewBox="0 0 17 15" fill="none" xmlns="http://www.w3.org/2000/svg">
<path fill-rule="evenodd" clip-rule="evenodd" d="M8.06133 14.425C7.70105 14.4257 7.35331 14.2928 7.08533 14.052C5.01584 12.2916 3.10054 10.3575 1.36033 8.27101C0.58338 7.32407 0.12155 6.15814 0.0393286 4.93602C0.0411803 3.63702 0.558024 2.39178 1.47655 1.47325C2.39508 0.554721 3.64034 0.0378743 4.93933 0.0360226C6.09047 0.0325202 7.2053 0.438746 8.08433 1.18202C8.7613 0.61554 9.57872 0.242458 10.4502 0.102185C11.3217 -0.0380886 12.2149 0.0596667 13.0355 0.385113C13.856 0.710559 14.5734 1.2516 15.1118 1.95109C15.6502 2.65058 15.9897 3.48253 16.0943 4.35902C16.2402 5.59002 15.9136 6.83054 15.1803 7.83003C13.2939 10.0531 11.2432 12.1313 9.04533 14.047C8.77554 14.2907 8.42485 14.4254 8.06133 14.425ZM4.93733 1.02101C3.8995 1.02233 2.90458 1.43529 2.17082 2.16923C1.43706 2.90318 1.02439 3.89819 1.02333 4.93602C1.11147 5.95641 1.51159 6.92492 2.16933 7.71C3.8717 9.72558 5.73445 11.6 7.73933 13.315C7.82709 13.3946 7.94134 13.4387 8.05983 13.4387C8.17832 13.4387 8.29257 13.3946 8.38033 13.315C10.5244 11.446 12.5275 9.42115 14.3733 7.25703C14.9606 6.45635 15.2241 5.46357 15.1113 4.47703C14.9954 3.55517 14.558 2.70375 13.876 2.07267C13.1941 1.4416 12.3114 1.07131 11.3833 1.02702C10.8374 1.00311 10.2927 1.09508 9.78489 1.29692C9.27711 1.49875 8.81784 1.80586 8.43733 2.19801L8.08433 2.55903L7.73133 2.19801C7.36871 1.824 6.93436 1.52702 6.45428 1.32478C5.9742 1.12254 5.45826 1.01921 4.93733 1.02101ZM8.05833 14.475C7.68594 14.475 7.32665 14.3376 7.04933 14.089C4.97679 12.326 3.05881 10.3889 1.31633 8.29902C0.533297 7.34406 0.0682895 6.16824 -0.0136719 4.93602C-0.013143 3.62272 0.508522 2.36332 1.43678 1.43431C2.36505 0.505294 3.62404 -0.0173806 4.93733 -0.0189701C6.08651 -0.0252585 7.20076 0.375789 8.08233 1.11302C9.01964 0.338004 10.2101 -0.0636677 11.4253 -0.0149723C12.5992 0.0409999 13.7156 0.509205 14.5783 1.30726C15.4409 2.10532 15.9944 3.18206 16.1413 4.348C16.2888 5.59139 15.9589 6.84443 15.2183 7.85402C13.3297 10.0798 11.2766 12.1607 9.07633 14.079C8.79871 14.3322 8.43703 14.4733 8.06133 14.475H8.05833ZM4.93733 0.0810055C3.65081 0.0825937 2.41746 0.594455 1.50785 1.50425C0.598236 2.41405 0.0866512 3.64752 0.0853281 4.93403C0.168072 6.14599 0.626694 7.30196 1.39733 8.24101C3.13549 10.3243 5.04845 12.2553 7.11533 14.013C7.37593 14.2468 7.71406 14.3756 8.06418 14.3743C8.41429 14.373 8.75146 14.2418 9.01033 14.006C11.2057 12.0928 13.2541 10.0173 15.1383 7.79701C15.8643 6.80766 16.1878 5.57962 16.0433 4.361C15.8992 3.21835 15.3567 2.16315 14.5113 1.38102C13.6659 0.598899 12.5717 0.13996 11.4213 0.0850033C10.2165 0.0365544 9.03712 0.439932 8.11433 1.21602L8.08233 1.24302L8.05033 1.21602C7.18167 0.477775 6.0773 0.0751117 4.93733 0.0810055ZM8.05833 13.481C7.92833 13.4812 7.8029 13.433 7.70633 13.346C5.69855 11.6283 3.83312 9.7508 2.12833 7.73201C1.46473 6.93954 1.06144 5.96187 0.973329 4.93202C0.974387 3.8812 1.39222 2.8737 2.13517 2.13057C2.87812 1.38743 3.88551 0.969353 4.93633 0.968029C5.46347 0.96648 5.98552 1.07123 6.47125 1.27604C6.95699 1.48085 7.39644 1.7815 7.76333 2.16002L8.08033 2.48402L8.39833 2.16002C8.7838 1.76185 9.24936 1.45 9.76426 1.24504C10.2792 1.04008 10.8317 0.946683 11.3853 0.97102C12.1048 0.998864 12.803 1.22232 13.4049 1.61735C14.0068 2.01238 14.4897 2.56402 14.8015 3.21296C15.1133 3.86191 15.2423 4.58358 15.1746 5.30037C15.1069 6.01715 14.8451 6.70192 14.4173 7.28102C12.5695 9.44779 10.5641 11.475 8.41733 13.346C8.32059 13.4361 8.1935 13.4864 8.06133 13.487L8.05833 13.481ZM4.93733 1.07103C3.91277 1.07235 2.93056 1.48 2.20618 2.20457C1.48179 2.92914 1.07439 3.91145 1.07333 4.93602C1.1622 5.94637 1.55947 6.90499 2.21133 7.68202C3.91167 9.69559 5.77207 11.5684 7.77433 13.282C7.85306 13.3534 7.95554 13.393 8.06183 13.393C8.16811 13.393 8.27059 13.3534 8.34933 13.282C10.491 11.4156 12.4918 9.39341 14.3353 7.23201C14.7522 6.66768 15.0074 6.00043 15.0736 5.30195C15.1397 4.60348 15.0143 3.90017 14.7107 3.26762C14.4072 2.63507 13.9371 2.0972 13.3508 1.71177C12.7646 1.32634 12.0844 1.10794 11.3833 1.08003C10.8433 1.05552 10.3043 1.14619 9.80209 1.34602C9.29985 1.54585 8.84588 1.85026 8.47033 2.23903L8.08233 2.63902L7.69433 2.23903C7.33706 1.86879 6.90871 1.57449 6.43497 1.37379C5.96122 1.17309 5.45183 1.07012 4.93733 1.07103Z" fill="black"/>
</svg>
