<svg width="12" height="12" viewBox="0 0 12 12" fill="none" xmlns="http://www.w3.org/2000/svg">
<path fill-rule="evenodd" clip-rule="evenodd" d="M11.8401 3.76995C11.7334 2.96754 11.3488 2.22791 10.7532 1.67977C10.1575 1.13163 9.38856 0.809688 8.58006 0.769953C8.10732 0.749906 7.63559 0.828461 7.19486 1.00062C6.75412 1.17278 6.35404 1.43478 6.02006 1.76995C5.54345 1.28466 4.93295 0.95251 4.26659 0.815961C3.60024 0.679412 2.90831 0.744666 2.27923 1.00338C1.65015 1.2621 1.11251 1.70252 0.735024 2.26836C0.357538 2.83421 0.157354 3.49976 0.160061 4.17995C0.233929 5.05893 0.583961 5.892 1.16006 6.55995C2.49653 8.16309 3.96137 9.65469 5.54006 11.02C5.67757 11.1429 5.85558 11.2109 6.04006 11.2109C6.22455 11.2109 6.40256 11.1429 6.54006 11.02C8.22412 9.53601 9.79825 7.93179 11.2501 6.21995C11.7432 5.50448 11.9534 4.6315 11.8401 3.76995Z" fill="#B02E2F"/>
</svg>
