<svg width="21" height="20" viewBox="0 0 21 20" fill="none" xmlns="http://www.w3.org/2000/svg">
<path fill-rule="evenodd" clip-rule="evenodd" d="M20.985 10.035C20.9791 8.12473 20.4262 6.25613 19.3916 4.65023C18.3571 3.04434 16.8843 1.76837 15.1473 0.973258C13.4104 0.178149 11.482 -0.102821 9.59044 0.163586C7.69884 0.429994 5.92311 1.23263 4.47335 2.47654C3.02358 3.72046 1.96043 5.3536 1.40968 7.18275C0.858925 9.01191 0.843612 10.9605 1.36555 12.7981C1.88749 14.6357 2.92484 16.2854 4.35488 17.5519C5.78492 18.8185 7.54781 19.6489 9.435 19.945V12.945H6.895V10.035H9.435V7.855C9.33692 6.92303 9.61237 5.99019 10.201 5.261C10.7896 4.5318 11.6433 4.06574 12.575 3.965C12.7879 3.945 13.0021 3.945 13.215 3.965C13.9656 3.97655 14.7143 4.0434 15.455 4.165V6.615H14.195C13.8139 6.5693 13.43 6.67448 13.1254 6.90806C12.8209 7.14164 12.6197 7.48508 12.565 7.865C12.555 7.97143 12.555 8.07857 12.565 8.185V10.035H15.335L14.895 12.935H12.565V19.935C14.9178 19.5585 17.0588 18.3544 18.6025 16.5393C20.1462 14.7243 20.9911 12.4177 20.985 10.035Z" fill="#1877F2"/>
</svg>
