<svg width="77" height="20" viewBox="0 0 77 20" fill="none" xmlns="http://www.w3.org/2000/svg">
<rect width="77" height="20" rx="10" fill="#406325"/>
<path d="M10.84 13H12.38V10.29H15.72V8.89H12.38V7.4H16.17V6H10.84V13ZM17.4025 13H22.7325V11.63H18.9325V10.16H22.2325V8.79H18.9325V7.37H22.6825V6H17.4025V13ZM23.5017 13H25.0717L25.7117 11.43H28.6717L29.3117 13H30.9217L27.9217 5.95H26.5017L23.5017 13ZM26.2617 10.07L27.1917 7.8L28.1217 10.07H26.2617ZM32.7337 13H34.2737V7.42H36.4037V6H30.6037V7.42H32.7337V13ZM40.508 13.11C42.388 13.11 43.578 12.07 43.578 9.95V6H42.038V10.01C42.038 11.12 41.468 11.69 40.528 11.69C39.588 11.69 39.018 11.1 39.018 9.96V6H37.478V10C37.478 12.06 38.628 13.11 40.508 13.11ZM45.1466 13H46.6866V10.76H47.8966L49.3966 13H51.1966L49.4866 10.5C50.3766 10.17 50.9866 9.46 50.9866 8.33V8.31C50.9866 7.65 50.7766 7.1 50.3866 6.71C49.9266 6.25 49.2366 6 48.3466 6H45.1466V13ZM46.6866 9.4V7.39H48.2166C48.9666 7.39 49.4266 7.73 49.4266 8.39V8.41C49.4266 9 48.9966 9.4 48.2466 9.4H46.6866ZM52.3732 13H57.7032V11.63H53.9032V10.16H57.2032V8.79H53.9032V7.37H57.6532V6H52.3732V13ZM59.0724 13H61.8024C64.0024 13 65.5224 11.47 65.5224 9.5V9.48C65.5224 7.51 64.0024 6 61.8024 6H59.0724V13ZM61.8024 7.39C63.0624 7.39 63.9124 8.26 63.9124 9.5V9.52C63.9124 10.76 63.0624 11.61 61.8024 11.61H60.6124V7.39H61.8024Z" fill="white"/>
</svg>
