<svg width="15" height="12" viewBox="0 0 15 12" fill="none" xmlns="http://www.w3.org/2000/svg">
<path fill-rule="evenodd" clip-rule="evenodd" d="M4.99047 4.6095C4.73541 4.60911 4.48624 4.53282 4.27468 4.39035C4.06312 4.24788 3.89874 4.04569 3.80247 3.80949C3.70518 3.57308 3.67976 3.31322 3.72939 3.06242C3.77901 2.81163 3.90148 2.58104 4.08147 2.39949C4.26037 2.21864 4.48916 2.09529 4.73856 2.04523C4.98797 1.99517 5.24665 2.02067 5.48148 2.11848C5.75711 2.23357 5.98449 2.4404 6.12508 2.70393C6.26568 2.96747 6.31085 3.2715 6.25295 3.56453C6.19505 3.85756 6.03764 4.12157 5.80738 4.31183C5.57712 4.50208 5.28816 4.60689 4.98947 4.60849L4.99047 4.6095ZM4.99047 0.909485C4.45315 0.909564 3.93188 1.09262 3.51247 1.4285C3.09194 1.7656 2.79711 2.23443 2.67548 2.75949H0.93647C0.790601 2.75949 0.650707 2.81743 0.547562 2.92058C0.444417 3.02372 0.386475 3.16363 0.386475 3.30949C0.386475 3.45536 0.444417 3.59525 0.547562 3.69839C0.650707 3.80154 0.790601 3.8595 0.93647 3.8595H2.67847C2.75965 4.20649 2.91746 4.53091 3.14034 4.80898C3.36321 5.08704 3.64548 5.31171 3.96647 5.46649C4.28627 5.62094 4.63683 5.70117 4.99197 5.70117C5.34712 5.70117 5.69767 5.62094 6.01747 5.46649C6.33842 5.31165 6.62067 5.08697 6.84353 4.80891C7.06639 4.53085 7.22423 4.20646 7.30547 3.8595H14.0675C14.2133 3.8595 14.3532 3.80154 14.4564 3.69839C14.5595 3.59525 14.6175 3.45536 14.6175 3.30949C14.6175 3.16363 14.5595 3.02372 14.4564 2.92058C14.3532 2.81743 14.2133 2.75949 14.0675 2.75949H7.30647C7.18484 2.23443 6.89001 1.7656 6.46947 1.4285C6.05034 1.09284 5.52945 0.909791 4.99247 0.909485H4.99047ZM10.0295 9.96748C9.77455 9.96703 9.52554 9.89072 9.31415 9.74825C9.10276 9.60577 8.93857 9.40361 8.84248 9.1675C8.74506 8.93117 8.71947 8.67136 8.76892 8.42058C8.81837 8.16979 8.94065 7.93915 9.12048 7.75749C9.29948 7.57681 9.52832 7.45364 9.77773 7.40376C10.0271 7.35388 10.2857 7.37956 10.5205 7.47749C10.7963 7.59204 11.024 7.79846 11.1649 8.06174C11.3059 8.32501 11.3514 8.62893 11.2939 8.92197C11.2363 9.215 11.0791 9.4791 10.849 9.66948C10.619 9.85986 10.3301 9.9648 10.0315 9.96649L10.0295 9.96748ZM10.0295 6.2795C9.49158 6.28144 8.97017 6.46531 8.55004 6.80119C8.12991 7.13708 7.83577 7.60522 7.71547 8.12949H0.93647C0.790601 8.12949 0.650707 8.18744 0.547562 8.29059C0.444417 8.39373 0.386475 8.53362 0.386475 8.67949C0.386475 8.82536 0.444417 8.96526 0.547562 9.06841C0.650707 9.17155 0.790601 9.22949 0.93647 9.22949H7.69847C7.77972 9.57646 7.93755 9.90085 8.16042 10.1789C8.38328 10.457 8.66552 10.6816 8.98647 10.8365C9.30641 10.9904 9.65691 11.0704 10.012 11.0704C10.367 11.0704 10.7175 10.9904 11.0375 10.8365C11.3586 10.6818 11.641 10.4571 11.8641 10.1791C12.0871 9.90101 12.2451 9.57655 12.3265 9.22949H14.0685C14.2143 9.22949 14.3542 9.17155 14.4574 9.06841C14.5605 8.96526 14.6185 8.82536 14.6185 8.67949C14.6185 8.53362 14.5605 8.39373 14.4574 8.29059C14.3542 8.18744 14.2143 8.12949 14.0685 8.12949H12.3265C12.2052 7.60792 11.9131 7.14188 11.4965 6.8055C11.0814 6.46995 10.5652 6.28458 10.0315 6.2795H10.0295Z" fill="black"/>
</svg>
