<svg width="15" height="12" viewBox="0 0 15 12" fill="none" xmlns="http://www.w3.org/2000/svg">
<path fill-rule="evenodd" clip-rule="evenodd" d="M4.99072 4.6095C4.73566 4.60911 4.48649 4.53282 4.27493 4.39035C4.06336 4.24788 3.89899 4.04569 3.80272 3.80949C3.70543 3.57308 3.68 3.31322 3.72963 3.06242C3.77925 2.81163 3.90172 2.58104 4.08172 2.39949C4.26061 2.21864 4.4894 2.09529 4.73881 2.04523C4.98822 1.99517 5.24689 2.02067 5.48172 2.11848C5.75735 2.23357 5.98473 2.4404 6.12533 2.70393C6.26593 2.96747 6.3111 3.2715 6.2532 3.56453C6.1953 3.85756 6.03789 4.12157 5.80762 4.31183C5.57736 4.50208 5.28841 4.60689 4.98972 4.60849L4.99072 4.6095ZM4.99072 0.909485C4.4534 0.909564 3.93212 1.09262 3.51272 1.4285C3.09218 1.7656 2.79735 2.23443 2.67572 2.75949H0.936714C0.790845 2.75949 0.650951 2.81743 0.547806 2.92058C0.444661 3.02372 0.386719 3.16363 0.386719 3.30949C0.386719 3.45536 0.444661 3.59525 0.547806 3.69839C0.650951 3.80154 0.790845 3.8595 0.936714 3.8595H2.67872C2.7599 4.20649 2.91771 4.53091 3.14058 4.80898C3.36345 5.08704 3.64572 5.31171 3.96671 5.46649C4.28651 5.62094 4.63707 5.70117 4.99222 5.70117C5.34736 5.70117 5.69792 5.62094 6.01772 5.46649C6.33867 5.31165 6.62091 5.08697 6.84377 4.80891C7.06664 4.53085 7.22447 4.20646 7.30572 3.8595H14.0677C14.2136 3.8595 14.3535 3.80154 14.4566 3.69839C14.5598 3.59525 14.6177 3.45536 14.6177 3.30949C14.6177 3.16363 14.5598 3.02372 14.4566 2.92058C14.3535 2.81743 14.2136 2.75949 14.0677 2.75949H7.30672C7.18508 2.23443 6.89026 1.7656 6.46972 1.4285C6.05058 1.09284 5.52969 0.909791 4.99271 0.909485H4.99072ZM10.0297 9.96748C9.7748 9.96703 9.52578 9.89072 9.31439 9.74825C9.103 9.60577 8.93881 9.40361 8.84272 9.1675C8.7453 8.93117 8.71972 8.67136 8.76917 8.42058C8.81861 8.16979 8.94089 7.93915 9.12072 7.75749C9.29973 7.57681 9.52857 7.45364 9.77797 7.40376C10.0274 7.35388 10.286 7.37956 10.5207 7.47749C10.7965 7.59204 11.0242 7.79846 11.1652 8.06174C11.3061 8.32501 11.3517 8.62893 11.2941 8.92197C11.2365 9.215 11.0794 9.4791 10.8493 9.66948C10.6192 9.85986 10.3303 9.9648 10.0317 9.96649L10.0297 9.96748ZM10.0297 6.2795C9.49183 6.28144 8.97042 6.46531 8.55029 6.80119C8.13016 7.13708 7.83602 7.60522 7.71571 8.12949H0.936714C0.790845 8.12949 0.650951 8.18744 0.547806 8.29059C0.444661 8.39373 0.386719 8.53362 0.386719 8.67949C0.386719 8.82536 0.444661 8.96526 0.547806 9.06841C0.650951 9.17155 0.790845 9.22949 0.936714 9.22949H7.69872C7.77996 9.57646 7.9378 9.90085 8.16066 10.1789C8.38352 10.457 8.66577 10.6816 8.98672 10.8365C9.30666 10.9904 9.65716 11.0704 10.0122 11.0704C10.3673 11.0704 10.7178 10.9904 11.0377 10.8365C11.3589 10.6818 11.6413 10.4571 11.8643 10.1791C12.0874 9.90101 12.2454 9.57655 12.3267 9.22949H14.0687C14.2146 9.22949 14.3545 9.17155 14.4576 9.06841C14.5608 8.96526 14.6187 8.82536 14.6187 8.67949C14.6187 8.53362 14.5608 8.39373 14.4576 8.29059C14.3545 8.18744 14.2146 8.12949 14.0687 8.12949H12.3267C12.2055 7.60792 11.9133 7.14188 11.4967 6.8055C11.0817 6.46995 10.5654 6.28458 10.0317 6.2795H10.0297Z" fill="black"/>
</svg>
