<svg width="80" height="216" viewBox="0 0 80 216" fill="none" xmlns="http://www.w3.org/2000/svg">
<path d="M25.305 95.8169H50.7121C53.2493 95.8169 54.9433 97.3623 54.9433 100.032V117.571C54.9433 120.655 53.2493 121.779 50.7121 121.779H25.305V95.8169ZM25.305 51.6191H50.7121C53.2493 51.6191 54.9433 52.7411 54.9433 55.8281V71.9655C54.9433 75.051 53.5329 76.1752 50.8516 76.1752H25.305L25.305 51.6191ZM2.01804 30.5668C1.1733 30.5668 0.60611 30.988 0.60611 31.9736V141.424C0.60611 142.265 1.03078 142.829 2.01804 142.829H54.2381C69.905 142.829 79.6407 135.672 79.6407 117.571V105.642C79.6407 95.1162 77.5228 89.5058 67.6454 85.9968C77.2422 83.1901 79.6407 77.7175 79.6407 66.7732V55.8281C79.6407 37.7227 69.905 30.5668 54.2381 30.5668H2.01804Z" fill="url(#paint0_linear_2776_5994)"/>
<path d="M1.98246 17.6368H74.1218C74.9153 17.6368 75.4636 17.1169 75.4636 16.2534V6.03389C75.4597 4.43284 74.8206 2.89864 73.6863 1.76759C72.5519 0.636531 71.015 0.000892732 69.4124 1.01429e-07H6.67225C5.0714 -0.00029273 3.53574 0.633489 2.40187 1.76243C1.268 2.89136 0.628423 4.42335 0.623328 6.0226V16.2534C0.609329 16.4364 0.634678 16.6203 0.697672 16.7928C0.760666 16.9652 0.85985 17.1222 0.988569 17.2533C1.11729 17.3843 1.27257 17.4863 1.44399 17.5524C1.6154 17.6186 1.799 17.6473 1.98246 17.6368Z" fill="white"/>
<path d="M5.67437 182.457H11.1484C11.2704 182.447 11.3932 182.463 11.5082 182.505C11.6232 182.547 11.7277 182.614 11.8144 182.7C11.9011 182.787 11.968 182.891 12.0104 183.005C12.0529 183.12 12.0698 183.243 12.0601 183.365V187.144C12.0601 187.808 11.6952 188.051 11.1484 188.051H5.67437V182.457ZM5.67437 172.934H11.1484C11.6952 172.934 12.0601 173.175 12.0601 173.841V177.317C12.0601 177.982 11.7562 178.224 11.1783 178.224H5.67437V172.934ZM0.656955 168.398C0.615897 168.393 0.574202 168.397 0.53504 168.411C0.495877 168.424 0.460277 168.446 0.430943 168.475C0.40161 168.504 0.379315 168.54 0.365753 168.579C0.352192 168.618 0.347719 168.66 0.352676 168.701V192.284C0.347757 192.325 0.352256 192.366 0.365832 192.405C0.379407 192.444 0.401702 192.48 0.431027 192.509C0.460352 192.538 0.495936 192.56 0.535081 192.574C0.574226 192.587 0.615904 192.591 0.656955 192.586H11.9082C15.284 192.586 17.381 191.044 17.381 187.144V184.574C17.381 182.306 16.9252 181.097 14.7971 180.341C16.8649 179.736 17.381 178.557 17.381 176.199V173.841C17.381 169.94 15.284 168.398 11.9082 168.398H0.656955Z" fill="white"/>
<path d="M20.8439 192.586H36.0485C36.2611 192.586 36.3524 192.495 36.3524 192.284V188.202C36.3524 188.021 36.2917 187.899 36.0485 187.899H25.8613V182.609H33.92C34.1326 182.609 34.2239 182.517 34.2239 182.306V178.375C34.2239 178.194 34.1633 178.073 33.92 178.073H25.8613V172.934H36.0485C36.2611 172.934 36.3531 172.843 36.3531 172.631V168.701C36.3531 168.519 36.2917 168.398 36.0485 168.398H20.8443C20.8032 168.393 20.7615 168.397 20.7224 168.411C20.6832 168.424 20.6476 168.446 20.6183 168.475C20.5889 168.504 20.5666 168.54 20.5531 168.579C20.5395 168.618 20.535 168.659 20.54 168.701L20.5396 192.284C20.5347 192.325 20.5391 192.366 20.5527 192.405C20.5663 192.444 20.5886 192.48 20.6179 192.509C20.6472 192.538 20.6828 192.56 20.722 192.574C20.7611 192.587 20.8028 192.591 20.8439 192.586" fill="white"/>
<path d="M39.8219 192.586H55.025C55.2383 192.586 55.3296 192.495 55.3296 192.284V188.202C55.3296 188.021 55.269 187.899 55.025 187.899H44.839V182.609H52.8973C53.1099 182.609 53.2008 182.517 53.2008 182.306V178.375C53.2008 178.194 53.1398 178.073 52.8973 178.073H44.839V172.934H55.025C55.2383 172.934 55.3296 172.843 55.3296 172.631V168.701C55.3296 168.519 55.269 168.398 55.025 168.398H39.8219C39.7808 168.393 39.7391 168.397 39.6998 168.41C39.6606 168.424 39.6249 168.446 39.5955 168.475C39.5662 168.504 39.5438 168.54 39.5303 168.579C39.5167 168.618 39.5122 168.659 39.5172 168.701V192.284C39.5122 192.325 39.5167 192.366 39.5303 192.405C39.5438 192.445 39.5662 192.48 39.5955 192.509C39.6249 192.538 39.6606 192.56 39.6998 192.574C39.7391 192.587 39.7808 192.591 39.8219 192.586" fill="white"/>
<path d="M70.089 178.678C70.089 179.343 69.7547 179.585 69.1769 179.585H63.7032V172.934H69.1769C69.7547 172.934 70.0889 173.175 70.0889 173.841L70.089 178.678ZM75.8665 192.132L72.4914 183.395C74.5895 182.518 75.411 181.309 75.411 178.073V173.538C75.289 169.849 73.2523 168.398 69.937 168.398H58.6862C58.6451 168.393 58.6033 168.397 58.5642 168.41C58.525 168.424 58.4893 168.446 58.46 168.475C58.4306 168.504 58.4083 168.54 58.3947 168.579C58.3811 168.618 58.3766 168.66 58.3815 168.701V192.283C58.3765 192.324 58.381 192.366 58.3946 192.405C58.4082 192.444 58.4305 192.48 58.4598 192.509C58.4892 192.538 58.5249 192.56 58.5641 192.574C58.6033 192.587 58.6451 192.591 58.6862 192.586H63.3993C63.4404 192.591 63.4821 192.587 63.5212 192.574C63.5604 192.56 63.5959 192.538 63.6252 192.509C63.6545 192.48 63.6768 192.444 63.6903 192.405C63.7038 192.366 63.7082 192.324 63.7032 192.283V184.12H67.5032L70.2716 192.132C70.4228 192.586 70.5759 192.586 71.0325 192.586H75.5626C75.7146 192.586 75.8972 192.525 75.8972 192.314C75.8978 192.252 75.8874 192.191 75.8665 192.132" fill="white"/>
<path d="M28.1846 196.078H15.2971C15.2569 196.074 15.2164 196.079 15.1785 196.093C15.1405 196.107 15.106 196.129 15.0774 196.157C15.0488 196.185 15.0269 196.22 15.0131 196.258C14.9993 196.296 14.9941 196.336 14.9977 196.376V199.525C14.9941 199.565 14.9994 199.606 15.0132 199.644C15.027 199.681 15.0489 199.716 15.0775 199.744C15.1061 199.773 15.1406 199.794 15.1785 199.808C15.2165 199.822 15.2569 199.827 15.2971 199.823H19.6094V214.715C19.6057 214.755 19.6109 214.795 19.6247 214.833C19.6384 214.871 19.6603 214.905 19.6889 214.934C19.7174 214.962 19.7519 214.984 19.7898 214.998C19.8278 215.011 19.8683 215.017 19.9084 215.013H23.5729C23.6131 215.017 23.6537 215.012 23.6917 214.998C23.7298 214.984 23.7644 214.963 23.793 214.934C23.8217 214.906 23.8437 214.871 23.8575 214.833C23.8714 214.795 23.8767 214.755 23.873 214.715V199.823H28.1846C28.2248 199.827 28.2655 199.822 28.3037 199.809C28.3418 199.795 28.3765 199.774 28.4052 199.745C28.4338 199.717 28.4558 199.682 28.4694 199.644C28.4831 199.606 28.488 199.565 28.484 199.525V196.376C28.4876 196.336 28.4824 196.296 28.4686 196.258C28.4548 196.22 28.4328 196.185 28.4043 196.157C28.3757 196.129 28.3412 196.107 28.3032 196.093C28.2653 196.079 28.2247 196.074 28.1846 196.078" fill="white"/>
<path d="M37.9489 211.689H35.9387C34.9611 211.689 34.4652 211.195 34.4652 210.223V200.844C34.4652 199.871 34.9611 199.378 35.9387 199.378H37.9489C38.6215 199.378 39.422 199.632 39.422 200.844V210.223C39.422 211.195 38.9265 211.689 37.9489 211.689V211.689ZM42.0744 196.99C41.0856 196.151 39.6177 195.726 37.7127 195.726H36.1752C34.2826 195.726 32.8087 196.186 31.7945 197.09C30.7368 198.035 30.2012 199.447 30.2012 201.29V210.223C30.2012 211.976 30.7559 213.3 31.8506 214.158C32.8518 214.943 34.3069 215.34 36.1752 215.34H37.7127C39.5814 215.34 41.0355 214.943 42.037 214.158C43.1317 213.3 43.686 211.976 43.686 210.223V201.196C43.686 199.312 43.1445 197.896 42.0744 196.99" fill="white"/>
<path d="M55.8813 200.373V204.136C55.8813 204.584 55.6882 204.777 55.2357 204.777H51.042V199.731H55.2357C55.6882 199.731 55.8813 199.923 55.8813 200.373L55.8813 200.373ZM57.8934 207.837C58.7433 207.473 59.2748 207.044 59.6135 206.452C59.981 205.81 60.1453 204.95 60.1453 203.664V200.135C60.0544 197.405 58.643 196.078 55.8263 196.078H47.0771C47.0369 196.074 46.9964 196.079 46.9584 196.093C46.9204 196.107 46.8858 196.128 46.8572 196.157C46.8286 196.185 46.8066 196.22 46.7928 196.257C46.779 196.295 46.7737 196.336 46.7773 196.376V214.714C46.7737 214.755 46.779 214.795 46.7928 214.833C46.8066 214.871 46.8286 214.905 46.8572 214.934C46.8858 214.962 46.9203 214.984 46.9583 214.998C46.9963 215.011 47.0369 215.016 47.0771 215.013H50.7422C50.7825 215.017 50.823 215.011 50.861 214.998C50.899 214.984 50.9336 214.962 50.9622 214.934C50.9908 214.905 51.0128 214.871 51.0266 214.833C51.0404 214.795 51.0457 214.755 51.042 214.714V208.43H53.8895L56.0261 214.616C56.1594 215.013 56.3211 215.013 56.6774 215.013H60.2003C60.3998 215.013 60.5233 214.907 60.5233 214.737C60.5236 214.681 60.5141 214.626 60.4953 214.573L57.8934 207.837Z" fill="white"/>
<path d="M75.1152 196.082H63.2917C63.252 196.078 63.2119 196.083 63.1743 196.096C63.1367 196.11 63.1025 196.131 63.0742 196.159C63.0459 196.187 63.0241 196.221 63.0105 196.259C62.9969 196.296 62.9917 196.337 62.9953 196.376V214.714C62.9917 214.754 62.9969 214.794 63.0105 214.832C63.0242 214.869 63.0459 214.903 63.0742 214.931C63.1025 214.959 63.1367 214.981 63.1743 214.994C63.2118 215.008 63.2519 215.013 63.2917 215.009H75.1152C75.1554 215.015 75.1965 215.012 75.2351 214.999C75.2738 214.987 75.3089 214.965 75.3377 214.936C75.3665 214.908 75.3882 214.873 75.401 214.834C75.4137 214.795 75.4172 214.754 75.4112 214.714V211.541C75.4173 211.5 75.4138 211.459 75.4011 211.421C75.3884 211.382 75.3668 211.347 75.338 211.318C75.3092 211.289 75.274 211.268 75.2353 211.255C75.1966 211.242 75.1555 211.238 75.1152 211.245H67.2537V207.251H73.4601C73.5003 207.257 73.5414 207.254 73.58 207.241C73.6186 207.228 73.6537 207.207 73.6824 207.178C73.7111 207.149 73.7327 207.114 73.7454 207.076C73.7581 207.037 73.7615 206.996 73.7554 206.956V203.899C73.7614 203.859 73.758 203.818 73.7452 203.779C73.7325 203.741 73.7109 203.706 73.6822 203.677C73.6535 203.648 73.6184 203.627 73.5798 203.614C73.5413 203.601 73.5003 203.598 73.4601 203.604H67.2537V199.727H75.1152C75.1553 199.734 75.1964 199.73 75.2351 199.718C75.2737 199.705 75.3089 199.684 75.3377 199.655C75.3665 199.626 75.3882 199.591 75.4009 199.553C75.4137 199.514 75.4172 199.473 75.4112 199.433V196.376C75.4173 196.336 75.4138 196.295 75.4011 196.256C75.3883 196.218 75.3667 196.183 75.3378 196.154C75.309 196.125 75.2738 196.104 75.2352 196.091C75.1965 196.079 75.1554 196.075 75.1152 196.082Z" fill="white"/>
<path d="M8.93637 203.944L5.86663 202.887C4.79324 202.533 4.37556 201.99 4.37556 200.952V200.836C4.37556 199.865 4.87071 199.372 5.8468 199.372H7.97189C8.94835 199.372 9.44351 199.865 9.44351 200.836V201.539C9.43979 201.579 9.44497 201.62 9.45867 201.658C9.47237 201.695 9.49426 201.73 9.52278 201.758C9.5513 201.787 9.58574 201.809 9.62366 201.822C9.66158 201.836 9.70204 201.841 9.74217 201.837H13.2838C13.324 201.841 13.3644 201.836 13.4024 201.822C13.4403 201.809 13.4747 201.787 13.5032 201.758C13.5318 201.73 13.5536 201.695 13.5673 201.658C13.581 201.62 13.5862 201.579 13.5825 201.539V201.164C13.5825 197.555 11.5761 195.726 7.61745 195.726H6.08296C4.18805 195.726 2.71306 196.187 1.7003 197.097C0.650485 198.041 0.117903 199.448 0.117903 201.282C0.190137 204.494 1.58054 205.528 4.88195 206.763L7.95093 207.817C9.02507 208.199 9.4435 208.742 9.4435 209.754V210.224C9.4435 211.195 8.94835 211.687 7.97189 211.687H5.61138C4.63455 211.687 4.1394 211.195 4.1394 210.224V209.167C4.14306 209.127 4.13783 209.087 4.12408 209.049C4.11033 209.011 4.0884 208.977 4.05985 208.948C4.0313 208.92 3.99682 208.898 3.95889 208.885C3.92095 208.871 3.88048 208.866 3.84036 208.87H0.299048C0.258939 208.866 0.218496 208.871 0.180587 208.885C0.142678 208.898 0.108233 208.92 0.0796944 208.949C0.0511558 208.977 0.0292229 209.011 0.0154515 209.049C0.00168007 209.087 -0.00359249 209.127 7.78632e-06 209.167V209.778C7.78632e-06 211.698 0.53596 213.134 1.59214 214.051C2.58769 214.914 4.01776 215.333 5.96507 215.333H7.73535C9.64747 215.333 11.1153 214.902 12.0997 214.051C13.1622 213.133 13.7008 211.695 13.7008 209.778C13.7008 206.3 12.4526 205.226 8.93637 203.944Z" fill="white"/>
<defs>
<linearGradient id="paint0_linear_2776_5994" x1="-10.3504" y1="42.2339" x2="78.5776" y2="131.25" gradientUnits="userSpaceOnUse">
<stop stop-color="#E08727"/>
<stop offset="0.52021" stop-color="#F9C048"/>
<stop offset="1" stop-color="#FFF0A5"/>
</linearGradient>
</defs>
</svg>
