<svg width="33" height="48" viewBox="0 0 33 48" fill="none" xmlns="http://www.w3.org/2000/svg">
<g clip-path="url(#clip0_8191_7880)">
<path d="M27.0578 29.2849C27.0578 26.9943 28.0007 24.9617 29.093 22.6077C31.2665 17.9229 33.9715 12.0924 30.934 1.07853C30.7592 0.443993 30.177 0.000833484 29.5188 0.000833484H11.868C11.0588 0.000833484 10.4004 0.659293 10.4004 1.46867C10.4004 2.27825 11.0588 2.93671 11.868 2.93671H28.386C28.7634 4.45977 29.0332 5.9316 29.1893 7.3185C26.3836 6.67319 22.534 7.58005 18.0996 8.62367C12.4421 9.95535 6.03572 11.4625 2.96807 8.95858C3.07951 6.75233 3.47881 4.42847 4.18752 1.859C4.40262 1.07873 3.94291 0.268763 3.16264 0.0536535C2.78485 -0.0510065 2.38894 -0.00136651 2.04784 0.192213C1.70695 0.385783 1.46174 0.700563 1.35748 1.07854C-1.67987 12.0914 1.02476 17.9219 3.19831 22.6077C4.29037 24.9611 5.23351 26.9935 5.23351 29.2849V29.5169C5.23471 32.9498 5.2375 40.9886 3.59163 46.0806C3.4475 46.526 3.52604 47.0176 3.80135 47.3958C4.07646 47.7742 4.52022 48 4.9883 48H27.3032C27.771 48 28.2148 47.7742 28.4901 47.3958C28.7654 47.0174 28.844 46.5256 28.6998 46.0806C27.0544 40.9903 27.0568 32.9508 27.0578 29.5173V29.2849V29.2849ZM24.1219 29.2849V29.5165C24.1209 32.5722 24.1189 39.6654 25.3786 45.0641H6.91267C7.06119 44.4278 7.19814 43.742 7.32154 43.0174L7.67798 40.4898L7.67858 40.4846C8.17078 36.2047 8.16999 31.8578 8.16959 29.5161V29.2849C8.16959 26.3468 7.04882 23.9311 5.86167 21.3722C4.65757 18.7774 3.41381 16.0965 3.0442 12.3923C4.39462 12.9654 5.98546 13.2445 7.89328 13.2445C8.25331 13.2445 8.63308 13.2339 9.02182 13.2132C12.1279 13.0452 15.5034 12.2509 18.7724 11.4816C21.4003 10.863 23.8826 10.2787 25.921 10.0995C27.529 9.95856 28.6821 10.0943 29.3537 10.502C29.2915 15.203 27.837 18.3388 26.4298 21.3722C25.2428 23.9301 24.1219 26.346 24.1219 29.2849L24.1219 29.2849Z" fill="black"/>
<path d="M8.0032 2.93673H8.55581C9.36499 2.93673 10.0234 2.27826 10.0234 1.46869C10.0234 0.659314 9.36499 0.000854492 8.55581 0.000854492H8.0032C7.19363 0.000854492 6.53516 0.659314 6.53516 1.46869C6.53516 2.27827 7.19363 2.93673 8.0032 2.93673Z" fill="black"/>
</g>
<defs>
<clipPath id="clip0_8191_7880">
<rect width="32.2915" height="48" fill="white"/>
</clipPath>
</defs>
</svg>
