<svg width="20" height="20" viewBox="0 0 20 20" fill="none" xmlns="http://www.w3.org/2000/svg">
<g clip-path="url(#clip0_1894_366)">
<path d="M19.8 8.03684H18.9947V7.99999H9.98948V12H15.6474C15.2537 13.1215 14.5364 14.1012 13.586 14.8151C12.6357 15.5289 11.495 15.945 10.3082 16.0107C9.12142 16.0764 7.94179 15.7887 6.91846 15.1841C5.89514 14.5794 5.07406 13.685 4.55905 12.6137C4.04403 11.5425 3.85819 10.3426 4.02502 9.16574C4.19186 7.98889 4.70388 6.88794 5.49635 6.00205C6.28882 5.11617 7.32616 4.48514 8.47722 4.18874C9.62828 3.89234 10.8414 3.94388 11.9632 4.33684C12.6987 4.59911 13.3775 4.99924 13.9632 5.51579L16.7947 2.68947C15.1106 1.12533 12.9391 0.189077 10.6456 0.0382673C8.35216 -0.112542 6.07674 0.531301 4.20231 1.86144C2.32788 3.19158 0.968865 5.12683 0.353981 7.34148C-0.260904 9.55613 -0.0941256 11.915 0.826252 14.0211C1.74663 16.1272 3.36442 17.852 5.40736 18.9051C7.4503 19.9583 9.79367 20.2756 12.0431 19.8036C14.2926 19.3316 16.3107 18.0991 17.758 16.3135C19.2053 14.528 19.9933 12.2984 19.9895 9.99999C19.9886 9.34057 19.9216 8.68289 19.7895 8.03684" fill="#FFC107"/>
<path d="M1.13158 5.3421L4.41579 7.75263C5.00888 6.27693 6.16361 5.09708 7.62621 4.47237C9.0888 3.84766 10.7396 3.8292 12.2158 4.42105C12.8636 4.6812 13.4605 5.05357 13.9789 5.52105L16.8105 2.68947C15.6878 1.64015 14.3383 0.863704 12.8668 0.420431C11.3954 -0.0228431 9.84158 -0.121021 8.32604 0.13352C6.8105 0.388062 5.37402 0.988473 4.12812 1.88814C2.88223 2.7878 1.86044 3.96251 1.14211 5.32105" fill="#FF3D00"/>
<path d="M9.98421 20C12.4673 19.9989 14.8612 19.074 16.7 17.4053L13.6 14.7737C12.8494 15.3407 11.9761 15.7233 11.0504 15.8907C10.1247 16.058 9.17267 16.0053 8.2711 15.7369C7.36954 15.4685 6.54371 14.9918 5.86029 14.3454C5.17688 13.699 4.65502 12.901 4.33684 12.0158L1.07368 14.5263C1.90911 16.1721 3.18374 17.5546 4.75643 18.5207C6.32911 19.4868 8.13849 19.9988 9.98421 20Z" fill="#4CAF50"/>
<path d="M19.8 8.03684H18.9947V7.99474H9.98421V12H15.6421C15.2462 13.1067 14.5366 14.0741 13.6 14.7842L16.6947 17.4158C17.7498 16.4951 18.592 15.3558 19.1627 14.0771C19.7335 12.7984 20.0192 11.4107 20 10.0105C19.9991 9.35284 19.9321 8.69691 19.8 8.05263" fill="#1976D2"/>
</g>
<defs>
<clipPath id="clip0_1894_366">
<rect width="20" height="20" fill="white"/>
</clipPath>
</defs>
</svg>
