<svg width="30" height="24" viewBox="0 0 30 24" fill="none" xmlns="http://www.w3.org/2000/svg">
<g clip-path="url(#clip0_15861_15990)">
<path d="M29.4087 23.0235V23.0835H29.4646C29.4751 23.0836 29.4855 23.081 29.4946 23.0758C29.4983 23.0732 29.5012 23.0698 29.5032 23.0658C29.5051 23.0618 29.5061 23.0573 29.5059 23.0529C29.5061 23.0485 29.5051 23.0441 29.5032 23.0402C29.5012 23.0363 29.4982 23.033 29.4946 23.0305C29.4856 23.0251 29.4752 23.0224 29.4646 23.0229H29.4087V23.0235ZM29.4652 22.981C29.4892 22.9795 29.513 22.9864 29.5324 23.0005C29.5402 23.0069 29.5464 23.015 29.5505 23.0243C29.5546 23.0335 29.5565 23.0435 29.556 23.0536C29.5563 23.0623 29.5548 23.0709 29.5516 23.079C29.5483 23.087 29.5434 23.0943 29.5371 23.1003C29.5221 23.1133 29.5032 23.1212 29.4834 23.1226L29.5584 23.2081H29.5006L29.4316 23.1232H29.4093V23.2081H29.361V22.9812H29.466L29.4652 22.981ZM29.4502 23.2864C29.4756 23.2867 29.5007 23.2815 29.5239 23.2714C29.5463 23.2618 29.5666 23.248 29.5839 23.2308C29.6012 23.2136 29.615 23.1932 29.6245 23.1708C29.6442 23.1232 29.6442 23.0698 29.6245 23.0223C29.6148 22.9999 29.601 22.9796 29.5839 22.9623C29.5666 22.9451 29.5463 22.9313 29.5239 22.9216C29.5005 22.912 29.4755 22.9073 29.4502 22.9075C29.4245 22.9073 29.3991 22.9121 29.3752 22.9216C29.3523 22.9311 29.3315 22.9449 29.3139 22.9623C29.2873 22.9895 29.2694 23.0239 29.2623 23.0612C29.2552 23.0986 29.2592 23.1372 29.2738 23.1723C29.283 23.1948 29.2966 23.2152 29.3139 23.2323C29.3315 23.2496 29.3523 23.2635 29.3752 23.2729C29.3989 23.283 29.4245 23.2881 29.4502 23.2879M29.4502 22.8529C29.5161 22.8529 29.5795 22.8787 29.6265 22.9249C29.6491 22.9471 29.6672 22.9736 29.6796 23.0028C29.6924 23.0328 29.699 23.065 29.699 23.0976C29.699 23.1303 29.6924 23.1625 29.6796 23.1925C29.6669 23.2216 29.6489 23.248 29.6265 23.2704C29.6035 23.2924 29.5767 23.3102 29.5474 23.3229C29.5167 23.3359 29.4836 23.3426 29.4502 23.3424C29.4164 23.3426 29.383 23.336 29.3518 23.3229C29.3222 23.3105 29.2952 23.2927 29.2722 23.2704C29.2498 23.2472 29.232 23.2199 29.2198 23.19C29.207 23.16 29.2004 23.1277 29.2004 23.0951C29.2004 23.0625 29.207 23.0302 29.2198 23.0002C29.2322 22.971 29.2503 22.9446 29.2729 22.9224C29.2956 22.8997 29.3227 22.8818 29.3526 22.8699C29.3837 22.8568 29.4172 22.8501 29.451 22.8504M6.48222 21.9765C6.48222 21.5437 6.76572 21.1882 7.22907 21.1882C7.67187 21.1882 7.97067 21.5284 7.97067 21.9765C7.97067 22.4245 7.67187 22.7647 7.22907 22.7647C6.76572 22.7647 6.48222 22.4092 6.48222 21.9765ZM8.47542 21.9765V20.745H7.94007V21.045C7.77027 20.8233 7.51272 20.6842 7.16247 20.6842C6.47247 20.6842 5.93097 21.2254 5.93097 21.9771C5.93097 22.7287 6.47217 23.2699 7.16247 23.2699C7.51257 23.2699 7.77027 23.1307 7.94007 22.9092V23.2081H8.47482V21.9765H8.47542ZM26.5642 21.9765C26.5642 21.5437 26.8477 21.1882 27.3112 21.1882C27.7545 21.1882 28.0528 21.5284 28.0528 21.9765C28.0528 22.4245 27.7545 22.7647 27.3112 22.7647C26.8479 22.7647 26.5642 22.4092 26.5642 21.9765ZM28.558 21.9765V19.7565H28.0222V21.045C27.8524 20.8233 27.5949 20.6842 27.2446 20.6842C26.5546 20.6842 26.0131 21.2254 26.0131 21.9771C26.0131 22.7287 26.5543 23.2699 27.2446 23.2699C27.5949 23.2699 27.8524 23.1307 28.0222 22.9092V23.2081H28.558V21.9765ZM15.1198 21.1629C15.4648 21.1629 15.6864 21.3792 15.7429 21.76H14.4655C14.5227 21.4045 14.7385 21.1629 15.12 21.1629M15.1306 20.6829C14.4091 20.6829 13.9044 21.2079 13.9044 21.9757C13.9044 22.7586 14.4294 23.2686 15.1665 23.2686C15.5373 23.2686 15.8769 23.176 16.1757 22.9236L15.9133 22.5268C15.7069 22.6918 15.4441 22.7844 15.1971 22.7844C14.8521 22.7844 14.538 22.6246 14.4607 22.1814H16.2888C16.294 22.1148 16.2994 22.0476 16.2994 21.9756C16.294 21.208 15.8194 20.6827 15.1303 20.6827M21.5938 21.9756C21.5938 21.5428 21.8773 21.1873 22.3407 21.1873C22.7835 21.1873 23.0823 21.5275 23.0823 21.9756C23.0823 22.4236 22.7835 22.7638 22.3407 22.7638C21.8773 22.7638 21.5937 22.4083 21.5937 21.9756M23.5869 21.9756V20.745H23.0518V21.045C22.8814 20.8233 22.6245 20.6842 22.2742 20.6842C21.5842 20.6842 21.0427 21.2254 21.0427 21.9771C21.0427 22.7287 21.5839 23.2699 22.2742 23.2699C22.6245 23.2699 22.8814 23.1307 23.0518 22.9092V23.2081H23.587V21.9765L23.5869 21.9756ZM18.5706 21.9756C18.5706 22.7224 19.0905 23.2684 19.884 23.2684C20.2548 23.2684 20.5018 23.1859 20.769 22.9749L20.5119 22.5421C20.3109 22.6866 20.0998 22.7638 19.8669 22.7638C19.4395 22.7586 19.1253 22.4496 19.1253 21.9756C19.1253 21.5016 19.4395 21.1927 19.8669 21.1873C20.0992 21.1873 20.3103 21.2646 20.5119 21.409L20.769 20.9763C20.5014 20.7652 20.2543 20.6827 19.884 20.6827C19.0905 20.6827 18.5706 21.2286 18.5706 21.9756ZM25.4721 20.6827C25.1632 20.6827 24.9621 20.8272 24.823 21.0435V20.745H24.2925V23.2068H24.8284V21.8268C24.8284 21.4194 25.0035 21.193 25.3534 21.193C25.468 21.1914 25.5818 21.2124 25.6882 21.255L25.8532 20.7504C25.7347 20.7037 25.5802 20.6832 25.4718 20.6832M11.1222 20.9407C10.8646 20.7709 10.5097 20.6832 10.1182 20.6832C9.49452 20.6832 9.09297 20.9821 9.09297 21.4713C9.09297 21.8727 9.39192 22.1203 9.94242 22.1976L10.1953 22.2336C10.4889 22.2748 10.6275 22.3521 10.6275 22.4911C10.6275 22.6815 10.4325 22.7901 10.0663 22.7901C9.69552 22.7901 9.42792 22.6716 9.24747 22.5325L8.99592 22.95C9.28947 23.1663 9.66027 23.2695 10.0618 23.2695C10.7728 23.2695 11.1849 22.9347 11.1849 22.4659C11.1849 22.0332 10.8606 21.8068 10.3248 21.7296L10.0725 21.693C9.84072 21.663 9.65502 21.6163 9.65502 21.4513C9.65502 21.2713 9.83007 21.163 10.1238 21.163C10.438 21.163 10.7422 21.2815 10.8913 21.3741L11.1231 20.9413L11.1222 20.9407ZM18.0298 20.6836C17.721 20.6836 17.5198 20.8281 17.3814 21.0444V20.745H16.8508V23.2068H17.3862V21.8268C17.3862 21.4194 17.5612 21.193 17.9112 21.193C18.0258 21.1914 18.1396 21.2124 18.246 21.255L18.411 20.7504C18.2925 20.7037 18.138 20.6832 18.0295 20.6832M13.4614 20.745H12.586V19.9981H12.0448V20.745H11.5455V21.2343H12.0448V22.3573C12.0448 22.9285 12.2665 23.2687 12.8998 23.2687C13.1322 23.2687 13.3998 23.1967 13.5696 23.0784L13.4149 22.62C13.2552 22.7125 13.0801 22.7592 12.9409 22.7592C12.6733 22.7592 12.586 22.5942 12.586 22.3471V21.2347H13.4614V20.745ZM5.45757 23.2074V21.6624C5.45757 21.0805 5.08677 20.689 4.48902 20.6838C4.17477 20.6785 3.85062 20.7763 3.62367 21.1218C3.45387 20.8488 3.18627 20.6838 2.81007 20.6838C2.54712 20.6838 2.29017 20.761 2.08902 21.0493V20.745H1.55322V23.2068H2.09322V21.8418C2.09322 21.4144 2.33022 21.1873 2.69622 21.1873C3.05172 21.1873 3.23157 21.4191 3.23157 21.8364V23.2065H3.77277V21.8415C3.77277 21.4141 4.01982 21.187 4.37517 21.187C4.74072 21.187 4.91517 21.4188 4.91517 21.8361V23.2062L5.45757 23.2074Z" fill="#231F20"/>
<path d="M29.714 15.0183V14.6583H29.6202L29.5118 14.9054L29.4039 14.6583H29.3099V15.0183H29.3765V14.7471L29.4779 14.9811H29.5469L29.6483 14.7465V15.0183H29.7143H29.714ZM29.1192 15.0183V14.72H29.2392V14.6592H28.9326V14.72H29.0526V15.0183H29.1186H29.1192Z" fill="#F79410"/>
<path d="M19.0587 16.5622H10.9458V1.98224H19.0589L19.0587 16.5622Z" fill="#FF5F00"/>
<path d="M11.46 9.27256C11.46 6.31501 12.8448 3.68041 15.0012 1.98256C13.3689 0.695481 11.35 -0.00306131 9.27135 1.00852e-05C4.1508 1.00852e-05 0 4.15141 0 9.27256C0 14.3937 4.1508 18.5451 9.27135 18.5451C11.3501 18.5482 13.369 17.8497 15.0014 16.5626C12.8451 14.865 11.46 12.2303 11.46 9.27256Z" fill="#EB001B"/>
<path d="M30.0036 9.27256C30.0036 14.3937 25.8528 18.5451 20.7322 18.5451C18.6533 18.5482 16.6341 17.8496 15.0015 16.5626C17.1585 14.8647 18.5433 12.2303 18.5433 9.27256C18.5433 6.31486 17.1585 3.68041 15.0015 1.98256C16.6341 0.695519 18.6532 -0.00300747 20.7321 9.73343e-06C25.8526 9.73343e-06 30.0034 4.15141 30.0034 9.27256" fill="#F79E1B"/>
</g>
<defs>
<clipPath id="clip0_15861_15990">
<rect width="30" height="23.34" fill="white"/>
</clipPath>
</defs>
</svg>
