<svg width="13" height="12" viewBox="0 0 13 12" fill="none" xmlns="http://www.w3.org/2000/svg">
<path fill-rule="evenodd" clip-rule="evenodd" d="M12.2325 3.76995C12.1259 2.96754 11.7413 2.22791 11.1456 1.67977C10.55 1.13163 9.78101 0.809688 8.97252 0.769953C8.49978 0.749906 8.02804 0.828461 7.58731 1.00062C7.14658 1.17278 6.7465 1.43478 6.41252 1.76995C5.9359 1.28466 5.3254 0.95251 4.65905 0.815961C3.9927 0.679412 3.30076 0.744666 2.67168 1.00338C2.04261 1.2621 1.50497 1.70252 1.12748 2.26836C0.749994 2.83421 0.54981 3.49976 0.552517 4.17995C0.626385 5.05893 0.976417 5.892 1.55252 6.55995C2.88898 8.16309 4.35383 9.65469 5.93252 11.02C6.07002 11.1429 6.24804 11.2109 6.43252 11.2109C6.617 11.2109 6.79501 11.1429 6.93252 11.02C8.61658 9.53601 10.1907 7.93179 11.6425 6.21995C12.1357 5.50448 12.3459 4.6315 12.2325 3.76995Z" fill="#B02E2F"/>
</svg>
