<svg width="35" height="32" viewBox="0 0 35 32" fill="none" xmlns="http://www.w3.org/2000/svg">
<g filter="url(#filter0_d_1474_1288)">
<path d="M4.63281 14C4.63281 7.37258 10.0054 2 16.6328 2H18.1518C24.7792 2 30.1518 7.37258 30.1518 14C30.1518 20.6274 24.7792 26 18.1518 26H16.6328C10.0054 26 4.63281 20.6274 4.63281 14Z" fill="white"/>
<g clip-path="url(#clip0_1474_1288)">
<path fill-rule="evenodd" clip-rule="evenodd" d="M23.2323 11.77C23.1256 10.9675 22.741 10.2279 22.1454 9.67977C21.5497 9.13163 20.7808 8.80969 19.9723 8.76995C19.4995 8.74991 19.0278 8.82846 18.5871 9.00062C18.1463 9.17278 17.7463 9.43478 17.4123 9.76995C16.9357 9.28466 16.3252 8.95251 15.6588 8.81596C14.9925 8.67941 14.3005 8.74467 13.6714 9.00338C13.0424 9.2621 12.5047 9.70252 12.1272 10.2684C11.7497 10.8342 11.5496 11.4998 11.5523 12.18C11.6261 13.0589 11.9762 13.892 12.5523 14.56C13.8887 16.1631 15.3536 17.6547 16.9323 19.02C17.0698 19.1429 17.2478 19.2109 17.4323 19.2109C17.6168 19.2109 17.7948 19.1429 17.9323 19.02C19.6163 17.536 21.1905 15.9318 22.6423 14.22C23.1354 13.5045 23.3457 12.6315 23.2323 11.77Z" fill="#B02E2F"/>
<path fill-rule="evenodd" clip-rule="evenodd" d="M17.4122 19.5C17.1376 19.5009 16.873 19.3972 16.6722 19.21C15.0775 17.8593 13.6021 16.3738 12.2622 14.77C11.6667 14.0477 11.3164 13.1546 11.2622 12.22C11.2701 11.235 11.6663 10.2929 12.3646 9.59828C13.063 8.90365 14.0072 8.51258 14.9922 8.50997C15.8782 8.50409 16.7369 8.81635 17.4122 9.38997C17.925 8.96156 18.5435 8.67879 19.2031 8.57121C19.8626 8.46363 20.5389 8.53519 21.1613 8.77843C21.7837 9.02166 22.3293 9.42763 22.7411 9.95388C23.1529 10.4801 23.4158 11.1074 23.5022 11.77C23.6178 12.7104 23.3671 13.6593 22.8022 14.42C21.3628 16.1177 19.7984 17.7055 18.1222 19.17C17.9324 19.3611 17.6806 19.4781 17.4122 19.5ZM14.9922 9.26997C14.1966 9.26997 13.4335 9.58604 12.8709 10.1487C12.3083 10.7113 11.9922 11.4743 11.9922 12.27C12.0632 13.0497 12.3701 13.7892 12.8722 14.39C14.1711 15.9289 15.5924 17.3602 17.1222 18.67C17.1908 18.7278 17.2775 18.7595 17.3672 18.7595C17.4569 18.7595 17.5437 18.7278 17.6122 18.67C19.249 17.2465 20.7767 15.7022 22.1822 14.05C22.6303 13.4355 22.8335 12.6761 22.7522 11.92C22.67 11.2132 22.3392 10.5587 21.819 10.0733C21.2988 9.58787 20.623 9.30315 19.9122 9.26997C19.4948 9.25147 19.0781 9.32218 18.6902 9.47737C18.3022 9.63256 17.9517 9.86868 17.6622 10.17L17.4122 10.45L17.1422 10.17C16.8648 9.88037 16.5308 9.651 16.1609 9.49616C15.791 9.34131 15.3932 9.26432 14.9922 9.26997ZM17.4122 19.53C17.1286 19.5316 16.8543 19.4283 16.6422 19.24C15.0625 17.8936 13.6005 16.4149 12.2722 14.82C11.6787 14.0887 11.329 13.19 11.2722 12.25C11.2747 11.2585 11.6655 10.3075 12.3609 9.60092C13.0563 8.89428 14.0009 8.48828 14.9922 8.46997C15.8764 8.46481 16.7337 8.77304 17.4122 9.33997C18.1261 8.74684 19.0349 8.44031 19.9622 8.47997C20.9632 8.51901 21.9078 8.95379 22.5884 9.6888C23.269 10.4238 23.6301 11.3989 23.5922 12.4C23.5646 13.1511 23.3101 13.8763 22.8622 14.48C21.4219 16.1802 19.854 17.7682 18.1722 19.23C17.9679 19.4256 17.6951 19.5334 17.4122 19.53ZM15.0322 8.52997C14.0509 8.52997 13.1098 8.91979 12.4159 9.61368C11.722 10.3076 11.3322 11.2487 11.3322 12.23C11.3919 13.1573 11.7418 14.0424 12.3322 14.76C13.66 16.3459 15.1184 17.8178 16.6922 19.16C16.8918 19.3378 17.1499 19.436 17.4172 19.436C17.6846 19.436 17.9426 19.3378 18.1422 19.16C19.8183 17.6989 21.3826 16.1145 22.8222 14.42C23.3802 13.6877 23.6451 12.7738 23.5653 11.8567C23.4854 10.9395 23.0666 10.0851 22.3905 9.46028C21.7144 8.83544 20.8297 8.48508 19.9091 8.47763C18.9886 8.47018 18.0983 8.80617 17.4122 9.41997C16.7456 8.85963 15.9031 8.55165 15.0322 8.54997V8.52997ZM17.4122 18.77C17.3127 18.7723 17.2162 18.7365 17.1422 18.67C15.6124 17.3602 14.1911 15.9289 12.8922 14.39C12.3818 13.7865 12.074 13.0379 12.0122 12.25C12.0002 11.6444 12.1717 11.0494 12.5042 10.5432C12.8368 10.037 13.3148 9.64326 13.8753 9.41385C14.4358 9.18443 15.0527 9.13006 15.6447 9.25788C16.2368 9.3857 16.7762 9.68973 17.1922 10.13L17.4322 10.38L17.6722 10.13C18.0982 9.69479 18.6466 9.39956 19.2444 9.28352C19.8422 9.16748 20.4612 9.23612 21.0191 9.48032C21.5769 9.72453 22.0473 10.1327 22.3676 10.6507C22.6879 11.1686 22.8429 11.7718 22.8122 12.38C22.7881 12.9833 22.5825 13.5654 22.2222 14.05C20.8133 15.7055 19.2823 17.2532 17.6422 18.68C17.5777 18.7347 17.4968 18.7664 17.4122 18.77ZM14.9922 9.30997C14.2053 9.32309 13.455 9.64494 12.9031 10.2061C12.3513 10.7673 12.0421 11.5229 12.0422 12.31C12.1118 13.0822 12.4153 13.8148 12.9122 14.41C14.213 15.9408 15.6306 17.3684 17.1522 18.68C17.2127 18.7341 17.291 18.764 17.3722 18.764C17.4534 18.764 17.5317 18.7341 17.5922 18.68C19.2266 17.254 20.7541 15.7098 22.1622 14.06C22.3933 13.7496 22.5609 13.3967 22.6553 13.0215C22.7498 12.6463 22.7692 12.2561 22.7126 11.8733C22.6559 11.4906 22.5242 11.1228 22.3251 10.791C22.126 10.4592 21.8633 10.17 21.5522 9.93997C21.0807 9.57102 20.5095 9.35161 19.9122 9.30997C19.5005 9.29448 19.0901 9.3657 18.7076 9.51902C18.3252 9.67234 17.9792 9.90434 17.6922 10.2L17.3922 10.5L17.0922 10.2C16.8203 9.91696 16.4943 9.69145 16.1335 9.53685C15.7728 9.38225 15.3847 9.30169 14.9922 9.29997V9.30997Z" fill="#B02E2F"/>
</g>
</g>
<defs>
<filter id="filter0_d_1474_1288" x="0.632812" y="0" width="33.519" height="32" filterUnits="userSpaceOnUse" color-interpolation-filters="sRGB">
<feFlood flood-opacity="0" result="BackgroundImageFix"/>
<feColorMatrix in="SourceAlpha" type="matrix" values="0 0 0 0 0 0 0 0 0 0 0 0 0 0 0 0 0 0 127 0" result="hardAlpha"/>
<feOffset dy="2"/>
<feGaussianBlur stdDeviation="2"/>
<feComposite in2="hardAlpha" operator="out"/>
<feColorMatrix type="matrix" values="0 0 0 0 0 0 0 0 0 0 0 0 0 0 0 0 0 0 0.15 0"/>
<feBlend mode="normal" in2="BackgroundImageFix" result="effect1_dropShadow_1474_1288"/>
<feBlend mode="normal" in="SourceGraphic" in2="effect1_dropShadow_1474_1288" result="shape"/>
</filter>
<clipPath id="clip0_1474_1288">
<rect width="12.36" height="11.06" fill="white" transform="translate(11.2124 8.46997)"/>
</clipPath>
</defs>
</svg>
