<svg width="17" height="17" viewBox="0 0 17 17" fill="none" xmlns="http://www.w3.org/2000/svg">
<path fill-rule="evenodd" clip-rule="evenodd" d="M15.9808 5.56899C15.9808 5.55699 15.9678 5.54904 15.9638 5.53804C15.5548 4.34982 14.8784 3.27139 13.9867 2.38594C13.095 1.50049 12.0119 0.831685 10.8208 0.431048C10.8111 0.425218 10.8011 0.419825 10.7908 0.414996C9.10856 -0.151353 7.28712 -0.151353 5.60484 0.414996C5.59284 0.414996 5.58584 0.427048 5.57484 0.431048C4.38378 0.831685 3.30064 1.50049 2.40895 2.38594C1.51726 3.27139 0.840836 4.34982 0.431842 5.53804C0.42562 5.54806 0.419947 5.55835 0.414844 5.56899C-0.147396 7.23962 -0.147396 9.04838 0.414844 10.719C0.421032 10.7337 0.428043 10.7481 0.435844 10.762C0.804446 11.8481 1.3992 12.8437 2.18084 13.683C2.27368 13.7822 2.40198 13.8408 2.53778 13.8458C2.67359 13.8509 2.80588 13.8021 2.90584 13.71C2.95515 13.6648 2.995 13.6102 3.02307 13.5495C3.05115 13.4887 3.0669 13.423 3.06941 13.3562C3.07192 13.2893 3.06114 13.2226 3.0377 13.1599C3.01426 13.0973 2.97862 13.0399 2.93284 12.991C2.36381 12.3797 1.90684 11.6729 1.58284 10.903L4.55884 10.017C4.9509 10.7634 5.56286 11.3711 6.31184 11.758L5.41784 14.718C5.14318 14.6032 4.87599 14.4713 4.61784 14.323C4.50018 14.2552 4.36041 14.2368 4.22918 14.2718C4.09796 14.3069 3.986 14.3925 3.91784 14.51C3.88348 14.5681 3.86107 14.6325 3.85194 14.6994C3.8428 14.7663 3.84711 14.8344 3.86462 14.8996C3.88213 14.9648 3.91249 15.0258 3.95391 15.0791C3.99533 15.1324 4.04699 15.177 4.10584 15.21C5.10773 15.7832 6.21896 16.1392 7.36738 16.255C8.51579 16.3707 9.67572 16.2437 10.7718 15.882C10.7795 15.8825 10.7872 15.8825 10.7948 15.882C10.8068 15.882 10.8148 15.87 10.8258 15.866C12.0153 15.4655 13.097 14.7975 13.9877 13.9133C14.8785 13.0292 15.5545 11.9524 15.9638 10.766C15.9716 10.752 15.9786 10.7377 15.9848 10.723C16.5476 9.05091 16.5462 7.24024 15.9808 5.56899ZM12.1918 7.22902L15.1378 6.35201C15.4562 7.52581 15.4562 8.76323 15.1378 9.93703L12.1918 9.05904C12.3367 8.45628 12.3367 7.82775 12.1918 7.22499V7.22902ZM14.8168 5.38399L11.8378 6.27101C11.4455 5.5249 10.8336 4.91723 10.0848 4.53005L10.9778 1.571C12.7046 2.29454 14.0816 3.66221 14.8168 5.38399ZM10.0038 1.25203L9.12084 4.178C8.51462 4.03394 7.88307 4.03394 7.27684 4.178L6.39384 1.25203C7.57605 0.935743 8.82063 0.935743 10.0028 1.25203H10.0038ZM5.41884 1.571L6.31184 4.53005C5.56305 4.91723 4.95116 5.5249 4.55884 6.27101L1.57984 5.38399C2.31486 3.66239 3.69148 2.29475 5.41784 1.571H5.41884ZM1.25484 9.93703C0.938314 8.76299 0.938314 7.52605 1.25484 6.35201L4.20084 7.22902C4.05669 7.83051 4.05669 8.45756 4.20084 9.05904L1.25484 9.93703ZM5.12084 8.144C5.11668 7.53455 5.2936 6.93762 5.62917 6.42885C5.96474 5.92009 6.44383 5.52245 7.0057 5.28633C7.56757 5.05022 8.1869 4.98627 8.78516 5.10262C9.38342 5.21896 9.93365 5.51036 10.3661 5.93984C10.7985 6.36932 11.0937 6.91753 11.2141 7.51497C11.3345 8.11242 11.2748 8.73214 11.0426 9.29561C10.8103 9.85908 10.416 10.3409 9.9095 10.6799C9.40304 11.019 8.80731 11.2 8.19784 11.2C7.38545 11.2011 6.60577 10.88 6.02973 10.3071C5.45369 9.73429 5.12828 8.95639 5.12484 8.144H5.12084ZM6.39084 15.044L7.27584 12.111C7.88207 12.2551 8.51362 12.2551 9.11984 12.111L10.0028 15.037C8.81956 15.3509 7.57516 15.353 6.39084 15.043V15.044ZM10.9778 14.718L10.0848 11.759C10.8339 11.3721 11.4458 10.7644 11.8378 10.018L14.8168 10.905C14.0814 12.6265 12.7044 13.9937 10.9778 14.717V14.718Z" fill="black"/>
</svg>
