<?xml version="1.0" encoding="UTF-8"?><svg id="a" xmlns="http://www.w3.org/2000/svg" viewBox="0 0 16 16"><defs><style>.b{fill-rule:evenodd;}</style></defs><path class="b" d="M15.915,7.71578c-.9205-1.40012-2.19567-2.53123-3.69557-3.27808l.63524-.64321c.09359-.09589,.14592-.22459,.14592-.35858s-.05234-.26268-.14592-.35858c-.04644-.04651-.10158-.0834-.16221-.10857-.06063-.02518-.12575-.03813-.19137-.03813-.06572,0-.13074,.01296-.19147,.03813-.06063,.02518-.11576,.06207-.16211,.10857l-.9159,.92887c-1.88564-.68681-3.94101-.755-5.868-.19474-.12816,.03844-.23599,.12582-.30012,.24324s-.07938,.2554-.04246,.384c.01752,.06356,.04746,.12305,.08808,.17499,.04063,.05194,.09115,.09531,.14863,.12763,.05748,.03231,.12079,.05291,.18627,.06063,.06549,.00771,.13184,.0024,.19527-.01567,1.56712-.45441,3.23235-.44504,4.79429,.02698l-1.05778,1.07271c-.37838-.25079-.81796-.39371-1.27148-.41335-.45352-.01964-.90381,.08475-1.30245,.30189s-.73055,.53885-.96003,.93052c-.22948,.39167-.34784,.83848-.34237,1.2924-.00079,.49679,.14401,.98295,.4165,1.39834l-1.38134,1.39831c-1.3705-.61029-2.55295-1.57584-3.42491-2.79665,.7023-.9748,1.60126-1.79142,2.63883-2.39712,.11526-.06798,.19923-.17853,.23379-.30779,.03456-.12927,.01697-.26693-.04898-.38336-.03246-.05726-.07594-.10755-.1279-.14796-.05196-.0404-.11139-.07015-.17487-.0875-.06349-.01736-.12979-.02198-.19508-.01362-.06529,.00835-.12829,.02951-.18536,.0623C1.97941,5.46578,.89623,6.49089,.08398,7.71877,.02919,7.8025,0,7.90039,0,8.00045,0,8.1005,.02919,8.19837,.08398,8.28209c.91685,1.40302,2.1902,2.53711,3.68958,3.28607l-.62728,.63623c-.06978,.07089-.11721,.16068-.13646,.25827-.01925,.09758-.00945,.19868,.0282,.29075,.03763,.09208,.10146,.17103,.18355,.22727,.0821,.05613,.17885,.087,.2783,.08869,.06583-.0003,.13098-.01358,.19166-.03915,.06069-.02547,.1157-.06282,.16192-.10967l.91391-.9259c2.00442,.72844,4.19618,.75811,6.21957,.08419,2.02347-.67392,3.75969-2.01191,4.92709-3.79674,.05593-.0838,.0858-.18226,.086-.28302,.0002-.10075-.02936-.19929-.085-.28329Zm-8.55777,1.65003l1.9976-2.01958c.13727,.28035,.18392,.59646,.13347,.90452-.05044,.30806-.19548,.59279-.41499,.81472-.21953,.22193-.50264,.3701-.81013,.4239-.30749,.05381-.62411,.01063-.90595-.12357Zm1.28548-2.73674l-1.99163,2.02059c-.13639-.27978-.18262-.59501-.13232-.90218,.0503-.30717,.19468-.59116,.41317-.81283s.50036-.37012,.80677-.42484c.3064-.05473,.62227-.01306,.90401,.11927Zm-3.07133,4.54755l1.05276-1.06671c.37845,.25084,.81812,.39375,1.27172,.41335,.45362,.0196,.90399-.08487,1.30267-.30213,.39868-.21727,.73057-.5391,.95999-.93092,.22942-.39182,.34758-.83879,.34199-1.29279,.0005-.49675-.14433-.9828-.4165-1.39832l1.38434-1.40431c1.36766,.61349,2.54834,1.57848,3.42189,2.79665-1.02527,1.43859-2.47573,2.51958-4.14732,3.09093-1.67156,.57135-3.48023,.60432-5.17153,.09425Z"/></svg>