<svg width="16" height="11" viewBox="0 0 16 11" fill="none" xmlns="http://www.w3.org/2000/svg">
<path fill-rule="evenodd" clip-rule="evenodd" d="M15.9341 4.79089C15.0125 3.38909 13.7358 2.25662 12.2341 1.50888L12.8701 0.864899C12.9638 0.76889 13.0162 0.640043 13.0162 0.50589C13.0162 0.371736 12.9638 0.24289 12.8701 0.146881C12.8236 0.100318 12.7684 0.0633839 12.7077 0.0381775C12.647 0.012971 12.5818 0 12.5161 0C12.4503 0 12.3852 0.012971 12.3244 0.0381775C12.2637 0.0633839 12.2085 0.100318 12.1621 0.146881L11.2451 1.07687C9.3572 0.389239 7.29936 0.320959 5.37006 0.881897C5.24175 0.920382 5.13379 1.00787 5.06958 1.12543C5.00537 1.24299 4.9901 1.38114 5.02707 1.50989C5.04461 1.57353 5.07459 1.63309 5.11526 1.68509C5.15594 1.73709 5.20652 1.78051 5.26407 1.81287C5.32162 1.84522 5.385 1.86584 5.45056 1.87357C5.51613 1.88129 5.58256 1.87597 5.64606 1.85788C7.21506 1.40292 8.88229 1.41231 10.4461 1.88489L9.38705 2.95889C9.00822 2.7078 8.56811 2.56471 8.11404 2.54504C7.65998 2.52538 7.20915 2.62989 6.81003 2.84729C6.41091 3.06469 6.0786 3.38679 5.84885 3.77893C5.61909 4.17107 5.50059 4.61842 5.50607 5.07288C5.50528 5.57026 5.65025 6.05701 5.92307 6.4729L4.54007 7.87289C3.16793 7.26187 1.98406 6.29516 1.11105 5.07288C1.81419 4.09691 2.71423 3.27931 3.75305 2.67288C3.86845 2.60482 3.95252 2.49414 3.98712 2.36472C4.02172 2.23529 4.00411 2.09747 3.93808 1.9809C3.90558 1.92357 3.86205 1.87322 3.81003 1.83276C3.75801 1.79231 3.69851 1.76253 3.63495 1.74515C3.57138 1.72777 3.505 1.72314 3.43964 1.73151C3.37427 1.73987 3.3112 1.76106 3.25406 1.79388C1.98179 2.53819 0.897303 3.56453 0.0840759 4.79388C0.0292224 4.87771 0 4.97572 0 5.0759C0 5.17607 0.0292224 5.27406 0.0840759 5.35788C1.00203 6.76258 2.2769 7.89803 3.77808 8.64789L3.15005 9.28488C3.08019 9.35585 3.0327 9.44575 3.01343 9.54346C2.99416 9.64116 3.00397 9.74238 3.04166 9.83456C3.07934 9.92675 3.14324 10.0058 3.22543 10.0621C3.30763 10.1183 3.40449 10.1492 3.50406 10.1509C3.56997 10.1506 3.6352 10.1373 3.69595 10.1117C3.75671 10.0862 3.81179 10.0488 3.85806 10.0019L4.77307 9.07489C6.7799 9.8042 8.97429 9.83391 11.0001 9.15918C13.026 8.48445 14.7643 7.14486 15.9331 5.35788C15.9891 5.27398 16.019 5.1754 16.0192 5.07452C16.0194 4.97365 15.9898 4.87499 15.9341 4.79089ZM7.36606 6.4429L9.36606 4.4209C9.5035 4.70159 9.5502 5.01808 9.49969 5.32651C9.44919 5.63494 9.30398 5.92001 9.0842 6.14221C8.86441 6.36441 8.58096 6.51275 8.2731 6.56662C7.96524 6.62049 7.64824 6.57726 7.36606 6.4429ZM8.65308 3.70288L6.65906 5.72589C6.52251 5.44577 6.47622 5.13017 6.52658 4.82263C6.57694 4.51509 6.72149 4.23076 6.94025 4.00882C7.15901 3.78688 7.44121 3.63826 7.74799 3.58347C8.05476 3.52867 8.37101 3.57039 8.65308 3.70288ZM5.57806 8.25589L6.63208 7.1879C7.01098 7.43904 7.45118 7.58212 7.90533 7.60175C8.35949 7.62137 8.81041 7.51678 9.20956 7.29926C9.60872 7.08173 9.94101 6.75951 10.1707 6.36722C10.4004 5.97493 10.5187 5.52742 10.5131 5.07288C10.5136 4.57553 10.3686 4.0889 10.0961 3.67288L11.4821 2.26688C12.8514 2.88111 14.0335 3.84725 14.9081 5.06689C13.8816 6.50721 12.4294 7.58949 10.7558 8.16153C9.08223 8.73357 7.27139 8.76658 5.57806 8.25589Z" fill="black"/>
</svg>
