<svg width="14" height="14" viewBox="0 0 14 14" fill="none" xmlns="http://www.w3.org/2000/svg">
<path fill-rule="evenodd" clip-rule="evenodd" d="M13.5628 11.8155C13.6791 11.8139 13.7901 11.7662 13.8715 11.6829C13.953 11.5996 13.9983 11.4874 13.9976 11.3707V1.74397C13.9953 1.28034 13.8099 0.836513 13.4819 0.509653C13.154 0.182793 12.7103 -0.000466174 12.2479 8.94497e-07H1.75057C1.2881 -0.000467224 0.844282 0.182818 0.516211 0.509653C0.18814 0.836488 0.00252942 1.28026 0 1.74397V7.43807C0.000767587 7.50365 0.016283 7.56817 0.0453818 7.6269C0.0744805 7.68564 0.116419 7.73708 0.168072 7.77731C0.219725 7.81754 0.279755 7.84553 0.343707 7.85927C0.407659 7.87301 0.473888 7.87209 0.537442 7.85661C0.975122 7.65804 1.38335 7.39982 1.75057 7.08926L2.62543 7.67353V13.5594C2.62468 13.6345 2.64325 13.7085 2.67937 13.7742C2.71549 13.84 2.76793 13.8952 2.8316 13.9346C2.89527 13.9741 2.96802 13.9965 3.04281 13.9995C3.1176 14.0025 3.1919 13.986 3.25852 13.9518L4.81255 13.1758L6.36745 13.9518C6.42829 13.9819 6.49525 13.9977 6.56312 13.9977C6.63099 13.9977 6.69793 13.9819 6.75878 13.9518L8.31281 13.1758L9.86685 13.9518C9.92769 13.9819 9.99464 13.9977 10.0625 13.9977C10.1304 13.9977 10.1973 13.9819 10.2582 13.9518L11.8131 13.1758L13.3671 13.9518C13.4182 13.9781 13.4739 13.994 13.5311 13.9986C13.5883 14.0032 13.6459 13.9963 13.7005 13.9785C13.755 13.9607 13.8055 13.9321 13.8491 13.8946C13.8926 13.8571 13.9283 13.8114 13.9541 13.76C14.0058 13.6552 14.0142 13.5343 13.9775 13.4233C13.9409 13.3123 13.8622 13.2203 13.7584 13.1671L12.0087 12.2951C11.9479 12.265 11.8809 12.2492 11.8131 12.2492C11.7452 12.2492 11.6783 12.265 11.6174 12.2951L10.0625 13.0711L8.50848 12.2951C8.44764 12.265 8.38068 12.2492 8.31281 12.2492C8.24495 12.2492 8.17799 12.265 8.11714 12.2951L6.56312 13.0711L5.00821 12.2951C4.94736 12.265 4.88042 12.2492 4.81255 12.2492C4.74468 12.2492 4.67773 12.265 4.61688 12.2951L3.50027 12.8531V1.74397C3.49747 1.43683 3.41344 1.13593 3.25678 0.871988H12.2505C12.3651 0.871298 12.4788 0.893406 12.5849 0.936918C12.691 0.980431 12.7875 1.0445 12.8688 1.12554C12.9501 1.20658 13.0146 1.30297 13.0587 1.4091C13.1027 1.51524 13.1254 1.62902 13.1253 1.74397V11.3707C13.1247 11.4878 13.1703 11.6004 13.2523 11.6838C13.3343 11.7672 13.446 11.8145 13.5628 11.8155ZM2.62543 1.74397V6.61846L1.9932 6.19992C1.92256 6.14884 1.83766 6.12126 1.75057 6.12126C1.66347 6.12126 1.57859 6.14884 1.50795 6.19992L0.875722 6.61846V1.74397C0.875722 1.51132 0.967891 1.28824 1.13196 1.12373C1.29602 0.959216 1.51854 0.866772 1.75057 0.866772C1.98259 0.866772 2.20511 0.959216 2.36918 1.12373C2.53325 1.28824 2.62543 1.51132 2.62543 1.74397ZM11.3757 8.74605H5.24997C5.13465 8.74605 5.02406 8.70008 4.94251 8.61832C4.86097 8.53656 4.81515 8.42569 4.81515 8.31006C4.81515 8.19443 4.86097 8.08356 4.94251 8.0018C5.02406 7.92003 5.13465 7.87407 5.24997 7.87407H11.3757C11.491 7.87407 11.6016 7.92003 11.6831 8.0018C11.7647 8.08356 11.8105 8.19443 11.8105 8.31006C11.8105 8.42569 11.7647 8.53656 11.6831 8.61832C11.6016 8.70008 11.491 8.74605 11.3757 8.74605ZM10.5008 10.4988H6.12569C6.01037 10.4988 5.89978 10.4528 5.81823 10.371C5.73669 10.2893 5.69087 10.1784 5.69087 10.0628C5.69087 9.94713 5.73669 9.83626 5.81823 9.7545C5.89978 9.67274 6.01037 9.62677 6.12569 9.62677H10.5008C10.6161 9.62677 10.7267 9.67274 10.8083 9.7545C10.8898 9.83626 10.9356 9.94713 10.9356 10.0628C10.9356 10.1784 10.8898 10.2893 10.8083 10.371C10.7267 10.4528 10.6161 10.4988 10.5008 10.4988Z" fill="black"/>
</svg>
