<svg width="42" height="42" viewBox="0 0 42 42" fill="none" xmlns="http://www.w3.org/2000/svg">
<g clip-path="url(#clip0_6519_7390)">
<path fill-rule="evenodd" clip-rule="evenodd" d="M26.4256 33.598C31.3616 28.18 29.7526 18.832 28.5746 11.99C28.2002 10.1665 27.9579 8.3184 27.8496 6.46003C27.8495 6.3994 27.8374 6.3394 27.814 6.28345C27.7907 6.22751 27.7565 6.1767 27.7135 6.13398C27.6705 6.09125 27.6195 6.05742 27.5634 6.03443C27.5073 6.01144 27.4472 5.99974 27.3866 6H15.4096C15.349 5.99974 15.2889 6.01144 15.2328 6.03443C15.1767 6.05742 15.1257 6.09125 15.0827 6.13398C15.0397 6.1767 15.0055 6.22751 14.9822 6.28345C14.9588 6.3394 14.9467 6.3994 14.9466 6.46003C14.8382 8.33317 14.5946 10.196 14.2176 12.034C13.0436 18.861 11.4396 28.186 16.3706 33.598L15.5976 40.777C15.5966 40.7936 15.5966 40.8104 15.5976 40.827C15.5841 41.2259 15.729 41.6139 16.0007 41.9062C16.2724 42.1985 16.6488 42.3714 17.0476 42.387H25.7476C26.1465 42.3717 26.5232 42.1989 26.7951 41.9066C27.067 41.6142 27.2121 41.2261 27.1986 40.827C27.1996 40.8104 27.1996 40.7936 27.1986 40.777L26.4256 33.598ZM15.1306 12.189C15.4728 10.4474 15.7168 8.68798 15.8616 6.91901H26.9346C27.0281 8.22734 27.1951 9.52942 27.4346 10.819H18.8016C18.7412 10.819 18.6814 10.8309 18.6256 10.854C18.5698 10.8771 18.519 10.911 18.4763 10.9537C18.4336 10.9965 18.3997 11.0472 18.3766 11.103C18.3535 11.1588 18.3416 11.2186 18.3416 11.279C18.3416 11.3394 18.3535 11.3992 18.3766 11.455C18.3997 11.5108 18.4336 11.5615 18.4763 11.6043C18.519 11.647 18.5698 11.6809 18.6256 11.704C18.6814 11.7271 18.7412 11.739 18.8016 11.739H27.5916C27.6146 11.874 27.6376 12.007 27.6606 12.145C28.8176 18.863 30.4016 28.065 25.6056 33.124C25.5598 33.1721 25.525 33.2296 25.5036 33.2924C25.4822 33.3553 25.4747 33.422 25.4816 33.488L26.1146 39.367H16.6766L17.3096 33.488C17.3165 33.422 17.309 33.3553 17.2875 33.2924C17.2661 33.2296 17.2314 33.1721 17.1856 33.124C12.3946 28.071 13.9736 18.891 15.1266 12.189H15.1306ZM25.7466 41.467H17.0466C16.8966 41.4501 16.7587 41.3765 16.6613 41.2612C16.5639 41.1459 16.5142 40.9977 16.5226 40.847L16.5826 40.287H26.2156L26.2756 40.847C26.2839 40.9977 26.2343 41.1459 26.1369 41.2612C26.0394 41.3765 25.9016 41.4501 25.7516 41.467H25.7466ZM18.0516 36.877C18.0449 36.9375 18.0503 36.9987 18.0674 37.0571C18.0845 37.1156 18.1129 37.17 18.1511 37.2174C18.1893 37.2648 18.2365 37.3042 18.2899 37.3333C18.3434 37.3624 18.4021 37.3807 18.4626 37.387H18.5126C18.6265 37.3879 18.7366 37.3465 18.8216 37.2707C18.9066 37.1949 18.9604 37.0902 18.9726 36.977L19.4486 32.477C19.4558 32.4109 19.4485 32.344 19.4272 32.281C19.406 32.218 19.3713 32.1603 19.3256 32.112C14.5346 27.058 16.0116 18.889 17.1646 12.186C17.3646 11.018 17.5556 9.91402 17.6916 8.93702C17.7045 8.81723 17.6703 8.69712 17.5961 8.60218C17.5219 8.50723 17.4137 8.44493 17.2943 8.42853C17.1749 8.41213 17.0539 8.44293 16.9568 8.51435C16.8598 8.58576 16.7944 8.6922 16.7746 8.81104C16.6406 9.77304 16.4516 10.87 16.2526 12.031C15.0776 18.858 13.5756 27.174 18.5056 32.586L18.0516 36.877Z" fill="black"/>
</g>
<defs>
<clipPath id="clip0_6519_7390">
<rect width="42" height="42" fill="white"/>
</clipPath>
</defs>
</svg>
