<svg width="17" height="16" viewBox="0 0 17 16" fill="none" xmlns="http://www.w3.org/2000/svg">
<path d="M8.34473 12C8.5569 12 8.76038 11.9157 8.91041 11.7657C9.06044 11.6157 9.14473 11.4122 9.14473 11.2L9.14473 8C9.14473 7.78783 9.06044 7.58435 8.91041 7.43432C8.76038 7.28429 8.5569 7.2 8.34473 7.2C8.13255 7.2 7.92907 7.28429 7.77904 7.43432C7.62901 7.58435 7.54473 7.78783 7.54473 8L7.54473 11.2C7.54473 11.4122 7.62901 11.6157 7.77904 11.7657C7.92907 11.9157 8.13255 12 8.34473 12ZM7.60873 5.104C7.62624 5.15498 7.65045 5.20341 7.68073 5.248L7.77673 5.368C7.88922 5.47901 8.03208 5.55421 8.18727 5.5841C8.34247 5.614 8.50304 5.59727 8.64873 5.536C8.74567 5.49549 8.83497 5.43867 8.91273 5.368C8.98687 5.29325 9.04553 5.2046 9.08534 5.10713C9.12515 5.00966 9.14533 4.90529 9.14473 4.8C9.14346 4.69546 9.12172 4.59218 9.08073 4.496C9.0448 4.39673 8.98747 4.30657 8.91282 4.23191C8.83816 4.15726 8.748 4.09993 8.64873 4.064C8.55297 4.02168 8.44942 3.99982 8.34473 3.99982C8.24003 3.99982 8.13649 4.02168 8.04073 4.064C7.94145 4.09993 7.85129 4.15726 7.77663 4.23191C7.70198 4.30657 7.64466 4.39673 7.60873 4.496C7.56773 4.59218 7.54599 4.69546 7.54473 4.8C7.5408 4.85326 7.5408 4.90674 7.54473 4.96C7.5585 5.01102 7.58009 5.05959 7.60873 5.104ZM8.34472 16C9.92698 16 11.4737 15.5308 12.7893 14.6518C14.1049 13.7727 15.1303 12.5233 15.7358 11.0615C16.3413 9.59966 16.4997 7.99113 16.191 6.43928C15.8823 4.88743 15.1204 3.46197 14.0016 2.34315C12.8828 1.22433 11.4573 0.462403 9.90545 0.153721C8.3536 -0.154961 6.74507 0.00346577 5.28326 0.608967C3.82145 1.21447 2.57202 2.23985 1.69297 3.55544C0.813921 4.87103 0.344729 6.41775 0.344729 8C0.344729 9.05058 0.551653 10.0909 0.953691 11.0615C1.35573 12.0321 1.945 12.914 2.68787 13.6569C3.43074 14.3997 4.31265 14.989 5.28326 15.391C6.25386 15.7931 7.29415 16 8.34472 16ZM8.34473 1.6C9.61053 1.6 10.8479 1.97536 11.9004 2.6786C12.9528 3.38184 13.7732 4.38138 14.2576 5.55083C14.742 6.72028 14.8687 8.0071 14.6217 9.24858C14.3748 10.4901 13.7653 11.6304 12.8702 12.5255C11.9752 13.4205 10.8348 14.0301 9.5933 14.277C8.35182 14.524 7.065 14.3972 5.89555 13.9128C4.7261 13.4284 3.72656 12.6081 3.02332 11.5556C2.32008 10.5032 1.94473 9.2658 1.94473 8C1.94473 6.30262 2.61901 4.67475 3.81924 3.47452C5.01948 2.27429 6.64734 1.6 8.34473 1.6Z" fill="black"/>
</svg>
