<svg width="12" height="12" viewBox="0 0 12 12" fill="none" xmlns="http://www.w3.org/2000/svg">
<path fill-rule="evenodd" clip-rule="evenodd" d="M11.8011 4.80226H11.0012C10.975 4.80226 10.9489 4.80745 10.9247 4.81751C10.9004 4.82757 10.8783 4.8423 10.8597 4.86088C10.8412 4.87946 10.8264 4.90151 10.8164 4.92579C10.8063 4.95007 10.8011 4.97613 10.8011 5.00241V6.79989H9.5837C9.59449 6.53387 9.60108 6.26842 9.60108 6C9.60108 5.52606 9.5849 5.06352 9.55075 4.58598C9.5196 4.15519 9.47646 3.74713 9.42194 3.37146C9.32459 2.54213 9.11644 1.72962 8.80303 0.955647V0.200111C8.80303 0.147036 8.78195 0.0961149 8.74442 0.0585851C8.7069 0.0210553 8.656 0 8.60292 0H1.00055C0.947477 0 0.896578 0.0210553 0.85905 0.0585851C0.821522 0.0961149 0.80044 0.147036 0.80044 0.200111V0.956232C0.487027 1.72999 0.278868 2.54232 0.181536 3.37146C0.124619 3.74594 0.0814816 4.15516 0.0503268 4.58536C0.0167755 5.06469 0 5.52546 0 6C0 6.47454 0.0161763 6.93648 0.0503268 7.41401C0.0814816 7.84481 0.124619 8.25287 0.17914 8.62854C0.27649 9.45787 0.484647 10.2704 0.798042 11.0444V11.7999C0.798042 11.853 0.819126 11.9039 0.856654 11.9414C0.894182 11.9789 0.94508 12 0.998153 12H8.59933C8.6524 12 8.7033 11.9789 8.74083 11.9414C8.77836 11.9039 8.79944 11.853 8.79944 11.7999V11.0461C9.09249 10.3264 9.29223 9.57215 9.39378 8.8017H9.59928V9.40086C9.59981 9.52447 9.63856 9.64488 9.71021 9.74561C9.78186 9.84633 9.88291 9.92242 9.9995 9.96345V10.6004C9.9995 10.6534 10.0206 10.7044 10.0581 10.7419C10.0956 10.7794 10.1465 10.8005 10.1996 10.8005H10.9994C11.0525 10.8005 11.1034 10.7794 11.1409 10.7419C11.1785 10.7044 11.1996 10.6534 11.1996 10.6004V9.96404C11.3162 9.923 11.4172 9.84692 11.4889 9.74619C11.5605 9.64547 11.5992 9.52506 11.5998 9.40145V8.80228H11.7999C11.853 8.80228 11.9039 8.78119 11.9414 8.74366C11.9789 8.70613 12 8.65525 12 8.60217V5.00179C11.9998 4.94902 11.9789 4.89847 11.9416 4.8611C11.9043 4.82373 11.8538 4.80258 11.8011 4.80226ZM11.202 5.2019H11.601V6.80227H11.2014V5.20431L11.202 5.2019ZM9.00314 8.40203H0.555395C0.521843 8.14798 0.495481 7.88018 0.470318 7.60217H9.13855C9.11578 7.88317 9.08702 8.14798 9.05347 8.40203H9.00195H9.00314ZM2.97948 10.8029C2.96989 10.7214 2.95671 10.613 2.94233 10.4841V10.4631C2.93574 10.4032 2.92855 10.3379 2.92016 10.2696V10.2522L2.8974 10.0443L2.88841 9.95987C2.88302 9.90894 2.87703 9.85621 2.87164 9.80229C2.86804 9.77233 2.86564 9.74235 2.86205 9.71119C2.85366 9.6345 2.84587 9.55424 2.83748 9.47155C2.83389 9.4398 2.83149 9.40625 2.8279 9.37449C2.81891 9.31458 2.81112 9.25463 2.80453 9.19472L2.79435 9.09108C2.78596 9.0012 2.77697 8.91134 2.76859 8.81907V8.80349H4.60193V10.8041H2.97828L2.97948 10.8029ZM5.00454 8.80287H6.83669V8.81845C6.8283 8.91072 6.81991 8.99822 6.81092 9.09049L6.80074 9.19413C6.79475 9.25405 6.78876 9.31396 6.78277 9.37387C6.77917 9.40623 6.77617 9.43917 6.77318 9.47093C6.76479 9.55242 6.7564 9.63272 6.74861 9.71061C6.74502 9.74177 6.74262 9.77053 6.73903 9.80229C6.73364 9.85801 6.72764 9.90832 6.72225 9.95925L6.71327 10.0438L6.6905 10.2517V10.269C6.68271 10.3373 6.67552 10.402 6.66833 10.4626V10.4835C6.65395 10.6117 6.64077 10.7232 6.63118 10.8023H5.00155L5.00454 8.80287ZM6.62759 1.20312C6.63717 1.2846 6.65036 1.39304 6.66473 1.52186V1.54281C6.67192 1.60273 6.67852 1.66804 6.6869 1.73634V1.75375L6.70967 1.96165L6.71866 2.04613C6.72405 2.09706 6.73004 2.1498 6.73543 2.20312C6.73903 2.23368 6.74143 2.26301 6.74502 2.29477C6.75341 2.37146 6.76159 2.45136 6.76958 2.53445L6.77917 2.6303C6.78516 2.69021 6.79175 2.75016 6.79714 2.81007L6.80733 2.91371C6.81572 3.00299 6.8247 3.09345 6.83309 3.18572V3.2013H5.00095V1.20191L6.62759 1.20312ZM4.60253 3.20309H2.76619V3.18693C2.77458 3.09506 2.78316 3.00458 2.79195 2.9155L2.80214 2.81187C2.80813 2.75195 2.81472 2.692 2.82011 2.63209L2.8309 2.53565C2.83928 2.45337 2.84747 2.37346 2.85546 2.29597C2.85905 2.26482 2.86145 2.23605 2.86505 2.20429C2.87044 2.14857 2.87643 2.09826 2.88182 2.04733L2.89081 1.96286L2.91358 1.75492V1.73755C2.92136 1.66924 2.92855 1.60454 2.93574 1.54402V1.52307C2.95012 1.39425 2.9633 1.28338 2.97289 1.20429H4.60073V3.2043L4.60253 3.20309ZM9.05167 3.60276C9.08523 3.85681 9.11159 4.12461 9.13675 4.40262H0.466124C0.488891 4.12162 0.51705 3.85681 0.551201 3.60276H9.05048H9.05167ZM9.20265 5.99941C9.20265 6.40265 9.19007 6.7969 9.16551 7.19774H7.36093C7.36093 7.16359 7.36452 7.1312 7.36572 7.09765C7.36572 7.04552 7.37111 6.99342 7.37411 6.94369C7.3777 6.87119 7.3807 6.80226 7.38369 6.73396C7.38369 6.68842 7.38789 6.64289 7.38908 6.59975C7.38908 6.52605 7.39388 6.45597 7.39508 6.38647V6.28459C7.39508 6.18453 7.39867 6.08866 7.39867 5.99759C7.39867 5.90651 7.39867 5.81187 7.39508 5.71121V5.60936C7.39508 5.53926 7.39088 5.46914 7.38908 5.39605C7.38908 5.35231 7.38549 5.30737 7.38369 5.26183C7.38369 5.19353 7.3777 5.12401 7.37411 5.05211C7.37411 5.00178 7.36931 4.95027 7.36572 4.89815C7.36572 4.86459 7.36213 4.83224 7.36093 4.79809H9.16431C9.18828 5.20013 9.20086 5.59438 9.20086 5.99642L9.20265 5.99941ZM2.64576 7.19774C2.64576 7.15939 2.64097 7.11982 2.63917 7.08507C2.63917 7.03474 2.63378 6.98503 2.63138 6.9359C2.62779 6.8628 2.62479 6.79388 2.6218 6.72438C2.6218 6.68124 2.6176 6.6369 2.61641 6.59496C2.61641 6.52186 2.61161 6.45296 2.61041 6.38406V6.28221C2.61041 6.18335 2.60682 6.08866 2.60682 6.00058C2.60682 5.91251 2.60682 5.81724 2.61041 5.71958V5.62373C2.61041 5.55483 2.61461 5.48652 2.61641 5.41342C2.61641 5.37088 2.62 5.32715 2.6218 5.28341C2.6218 5.21391 2.62779 5.14501 2.63138 5.07251C2.63138 5.02338 2.63678 4.97245 2.63917 4.92272C2.63917 4.88497 2.64397 4.8454 2.64576 4.81005H4.60193V7.2067H2.64456L2.64576 7.19774ZM0.401418 5.99941C0.401418 5.59618 0.414 5.20193 0.438564 4.80109H2.24135C2.24135 4.83524 2.23776 4.86699 2.23656 4.90115C2.23656 4.95387 2.23116 5.00659 2.22817 5.05752C2.22457 5.12822 2.22158 5.19773 2.21858 5.26483C2.21858 5.31037 2.21499 5.35651 2.21319 5.40025C2.21319 5.47335 2.2084 5.54225 2.2072 5.61115V5.716C2.2072 5.81606 2.2036 5.91133 2.2036 6.00121C2.2036 6.09108 2.2036 6.18754 2.2072 6.287V6.39185C2.2072 6.46075 2.21079 6.52965 2.21319 6.60275C2.21319 6.64648 2.21679 6.69263 2.21858 6.73816C2.21858 6.80587 2.22398 6.87478 2.22817 6.94548C2.22817 6.99641 2.23296 7.04913 2.23656 7.10185C2.23656 7.13541 2.24015 7.16716 2.24135 7.20191H0.437366C0.412801 6.79927 0.400219 6.40262 0.400219 6.00238L0.401418 5.99941ZM5.00155 4.80109H6.96011C6.96011 4.83944 6.9649 4.87837 6.9667 4.91373C6.9667 4.96405 6.97209 5.01376 6.97449 5.06289C6.97808 5.13599 6.98108 5.20493 6.98407 5.27383C6.98407 5.31757 6.98827 5.36189 6.98946 5.40384C6.98946 5.47693 6.99426 5.54585 6.99546 5.61415V5.71658C6.99546 5.81544 6.99905 5.91013 6.99905 5.99821C6.99905 6.08628 6.99905 6.18155 6.99546 6.27921V6.38168C6.99546 6.45058 6.99126 6.51886 6.98946 6.59196C6.98946 6.6345 6.98587 6.67826 6.98407 6.722C6.98407 6.7915 6.97808 6.8604 6.97449 6.9329C6.97449 6.98203 6.96969 7.03296 6.9667 7.08269C6.9667 7.12044 6.9619 7.15998 6.96011 7.19533H5.00095V4.79868L5.00155 4.80109ZM7.2381 3.2013V3.18572C7.22852 3.08506 7.21953 2.985 7.20994 2.88614V2.86098C7.20156 2.7735 7.19317 2.68843 7.18478 2.60455C7.18377 2.58449 7.18177 2.56447 7.17879 2.54461C7.16022 2.35827 7.14164 2.18513 7.12247 2.01976V2.00477L7.09671 1.76871C7.07095 1.53384 7.04818 1.33973 7.032 1.20611H8.47591C8.72366 1.85098 8.89811 2.52165 8.99596 3.2055L7.2381 3.2013ZM1.20126 0.400807H8.40162V0.801065H1.20066L1.20126 0.400807ZM1.13116 1.2007H2.57507C2.55889 1.33731 2.53612 1.53146 2.51036 1.76333L2.4846 1.99939V2.01497C2.46702 2.17754 2.44825 2.35248 2.42828 2.53982C2.4273 2.55988 2.4253 2.5799 2.42229 2.59976C2.4139 2.68364 2.40551 2.76932 2.39712 2.8556V2.88076C2.38754 2.97843 2.37855 3.07789 2.36897 3.18034V3.19592H0.610514C0.709325 2.51401 0.883748 1.84522 1.13056 1.20191L1.13116 1.2007ZM2.36357 8.79929V8.81486C2.37316 8.91552 2.38214 9.01558 2.39173 9.11445V9.13902C2.40012 9.2265 2.40851 9.31215 2.41689 9.39603L2.42289 9.45597C2.44206 9.64231 2.46003 9.81845 2.4792 9.98082V9.99761L2.50497 10.2331C2.53073 10.468 2.5535 10.6621 2.56967 10.7957H1.13176C0.884009 10.1508 0.709564 9.48014 0.611713 8.79629L2.36357 8.79929ZM8.40042 11.5992H1.20066V11.2019H8.40162L8.40042 11.5992ZM8.46992 10.7993H7.02661C7.04279 10.6627 7.06555 10.4685 7.09132 10.2367L7.11708 10.0012V9.98445C7.13445 9.82147 7.15303 9.64709 7.1734 9.45956L7.17939 9.39965C7.18778 9.31577 7.19616 9.23068 7.20455 9.1426V9.11803C7.21414 9.02037 7.22313 8.9209 7.23271 8.81845V8.80287H8.98697C8.88942 9.48564 8.7162 10.1554 8.47052 10.7999L8.46992 10.7993ZM10.8005 10.399H10.4009V9.9994H10.8017L10.8005 10.399ZM11.2008 9.39903C11.2008 9.42531 11.1956 9.45137 11.1855 9.47565C11.1755 9.49993 11.1607 9.52198 11.1421 9.54056C11.1236 9.55914 11.1015 9.57387 11.0772 9.58393C11.0529 9.59399 11.0269 9.59918 11.0006 9.59918H10.2008C10.1477 9.59918 10.0968 9.57809 10.0593 9.54056C10.0218 9.50303 10.0007 9.45211 10.0007 9.39903V8.79987H11.199V9.39903H11.2008ZM11.601 8.39903H9.45189C9.49184 8.08786 9.52419 7.75935 9.54895 7.41343C9.55375 7.34153 9.55554 7.27083 9.56034 7.19953H11.5974L11.601 8.39903ZM4.60073 3.80225H5.00095V4.20193H4.60073V3.80225ZM2.20061 3.80225H2.60083V4.20193H2.20061V3.80225ZM7.00085 3.80225H7.40107V4.20193H7.00145L7.00085 3.80225ZM4.60013 7.80228H5.00035V8.20012H4.60073V7.80049L4.60013 7.80228ZM2.20001 7.80228H2.60023V8.20012H2.20061V7.80049L2.20001 7.80228ZM7.00025 7.80228H7.40107V8.20012H7.00145V7.80049L7.00025 7.80228Z" fill="black"/>
</svg>
