<svg width="21" height="21" viewBox="0 0 21 21" fill="none" xmlns="http://www.w3.org/2000/svg">
<path fill-rule="evenodd" clip-rule="evenodd" d="M19.7058 8.01697H18.3708C18.3269 8.01697 18.2835 8.02563 18.243 8.04242C18.2024 8.0592 18.1656 8.08379 18.1346 8.11481C18.1036 8.14582 18.079 8.18262 18.0622 8.22314C18.0454 8.26367 18.0368 8.30715 18.0368 8.35101V11.351H16.0048C16.0228 10.907 16.0338 10.464 16.0338 10.016C16.0338 9.22499 16.0068 8.45301 15.9498 7.65601C15.8978 6.93701 15.8258 6.25597 15.7348 5.62897C15.5723 4.24482 15.2249 2.88874 14.7018 1.59698V0.335999C14.7018 0.247416 14.6666 0.16243 14.604 0.0997925C14.5413 0.0371553 14.4564 0.00201416 14.3678 0.00201416H1.67879C1.59021 0.00201416 1.50525 0.0371553 1.44262 0.0997925C1.37998 0.16243 1.34479 0.247416 1.34479 0.335999V1.59796C0.821678 2.88937 0.474243 4.24514 0.311789 5.62897C0.216789 6.25397 0.144789 6.93697 0.0927887 7.65497C0.0367887 8.45497 0.00878906 9.22399 0.00878906 10.016C0.00878906 10.808 0.0357887 11.579 0.0927887 12.376C0.144789 13.095 0.216789 13.776 0.307789 14.403C0.470274 15.7872 0.817705 17.1432 1.34079 18.435V19.696C1.34079 19.7846 1.37598 19.8696 1.43862 19.9322C1.50125 19.9948 1.58621 20.03 1.67479 20.03H14.3618C14.4504 20.03 14.5353 19.9948 14.598 19.9322C14.6606 19.8696 14.6958 19.7846 14.6958 19.696V18.438C15.1849 17.2368 15.5183 15.9779 15.6878 14.692H16.0308V15.692C16.0317 15.8983 16.0963 16.0993 16.2159 16.2674C16.3355 16.4355 16.5042 16.5625 16.6988 16.631V17.694C16.6988 17.7826 16.734 17.8675 16.7966 17.9302C16.8593 17.9928 16.9442 18.028 17.0328 18.028H18.3678C18.4564 18.028 18.5413 17.9928 18.604 17.9302C18.6666 17.8675 18.7018 17.7826 18.7018 17.694V16.632C18.8964 16.5635 19.0651 16.4365 19.1846 16.2684C19.3042 16.1003 19.3689 15.8993 19.3698 15.693V14.693H19.7038C19.7924 14.693 19.8773 14.6578 19.94 14.5952C20.0026 14.5325 20.0378 14.4476 20.0378 14.359V8.34998C20.0375 8.26191 20.0025 8.17754 19.9403 8.11517C19.8781 8.05281 19.7939 8.0175 19.7058 8.01697ZM18.7058 8.68396H19.3718V11.355H18.7048V8.68799L18.7058 8.68396ZM15.0358 14.025H0.935789C0.879789 13.601 0.835789 13.154 0.793789 12.69H15.2618C15.2238 13.159 15.1758 13.601 15.1198 14.025H15.0338H15.0358ZM4.98179 18.032C4.96579 17.896 4.94379 17.715 4.91979 17.5V17.465C4.90879 17.365 4.89679 17.256 4.88279 17.142V17.113L4.84479 16.766L4.82979 16.625C4.82079 16.54 4.81079 16.452 4.80179 16.362C4.79579 16.312 4.79179 16.262 4.78579 16.21C4.77179 16.082 4.75879 15.948 4.74479 15.81C4.73879 15.757 4.73479 15.701 4.72879 15.648C4.71379 15.548 4.70079 15.448 4.68979 15.348L4.67279 15.175C4.65879 15.025 4.64379 14.875 4.62979 14.721V14.695H7.68979V18.034H4.97979L4.98179 18.032ZM8.36179 14.694H11.4198V14.72C11.4058 14.874 11.3918 15.02 11.3768 15.174L11.3598 15.347C11.3498 15.447 11.3398 15.547 11.3298 15.647C11.3238 15.701 11.3188 15.756 11.3138 15.809C11.2998 15.945 11.2858 16.079 11.2728 16.209C11.2668 16.261 11.2628 16.309 11.2568 16.362C11.2478 16.455 11.2378 16.539 11.2288 16.624L11.2138 16.765L11.1758 17.112V17.141C11.1628 17.255 11.1508 17.363 11.1388 17.464V17.499C11.1148 17.713 11.0928 17.899 11.0768 18.031H8.35679L8.36179 14.694ZM11.0708 2.01001C11.0868 2.14601 11.1088 2.32699 11.1328 2.54199V2.57697C11.1448 2.67697 11.1558 2.78596 11.1698 2.89996V2.92902L11.2078 3.276L11.2228 3.41699C11.2318 3.50199 11.2418 3.59002 11.2508 3.67902C11.2568 3.73002 11.2608 3.77897 11.2668 3.83197C11.2808 3.95997 11.2945 4.09333 11.3078 4.23199L11.3238 4.39197C11.3338 4.49197 11.3448 4.59202 11.3538 4.69202L11.3708 4.86499C11.3848 5.01399 11.3998 5.16497 11.4138 5.31897V5.34497H8.35579V2.008L11.0708 2.01001ZM7.69079 5.34796H4.62579V5.32098C4.63979 5.16765 4.65412 5.01665 4.66879 4.86798L4.68579 4.69501C4.69579 4.59501 4.70679 4.49496 4.71579 4.39496L4.73379 4.23401C4.74779 4.09668 4.76146 3.96332 4.77479 3.83398C4.78079 3.78198 4.78479 3.73397 4.79079 3.68097C4.79979 3.58797 4.80979 3.50401 4.81879 3.41901L4.83379 3.27802L4.87179 2.93097V2.90198C4.88479 2.78798 4.89679 2.67998 4.90879 2.57898V2.54401C4.93279 2.32901 4.95479 2.14396 4.97079 2.01196H7.68779V5.34998L7.69079 5.34796ZM15.1168 6.01501C15.1728 6.43901 15.2168 6.88598 15.2588 7.34998H0.786789C0.824789 6.88098 0.871789 6.43901 0.928789 6.01501H15.1148H15.1168ZM15.3688 10.015C15.3688 10.688 15.3478 11.346 15.3068 12.015H12.2948C12.2948 11.958 12.3008 11.904 12.3028 11.848C12.3028 11.761 12.3118 11.674 12.3168 11.591C12.3228 11.47 12.3278 11.355 12.3328 11.241C12.3328 11.165 12.3398 11.089 12.3418 11.017C12.3418 10.894 12.3498 10.777 12.3518 10.661V10.491C12.3518 10.324 12.3578 10.164 12.3578 10.012C12.3578 9.85996 12.3578 9.702 12.3518 9.534V9.36401C12.3518 9.24701 12.3448 9.13 12.3418 9.008C12.3418 8.935 12.3358 8.86 12.3328 8.784C12.3328 8.67 12.3228 8.55396 12.3168 8.43396C12.3168 8.34996 12.3088 8.264 12.3028 8.177C12.3028 8.121 12.2968 8.06701 12.2948 8.01001H15.3048C15.3448 8.68101 15.3658 9.33901 15.3658 10.01L15.3688 10.015ZM4.42479 12.015C4.42479 11.951 4.41679 11.885 4.41379 11.827C4.41379 11.743 4.40479 11.66 4.40079 11.578C4.39479 11.456 4.38979 11.341 4.38479 11.225C4.38479 11.153 4.37779 11.079 4.37579 11.009C4.37579 10.887 4.36779 10.772 4.36579 10.657V10.487C4.36579 10.322 4.35979 10.164 4.35979 10.017C4.35979 9.86997 4.35979 9.71097 4.36579 9.54797V9.388C4.36579 9.273 4.37279 9.15899 4.37579 9.03699C4.37579 8.96599 4.38179 8.89301 4.38479 8.82001C4.38479 8.70401 4.39479 8.58902 4.40079 8.46802C4.40079 8.38602 4.40979 8.30102 4.41379 8.21802C4.41379 8.15502 4.42179 8.08897 4.42479 8.02997H7.68979V12.03H4.42279L4.42479 12.015ZM0.678789 10.015C0.678789 9.34201 0.699789 8.68401 0.740789 8.01501H3.74979C3.74979 8.07201 3.74379 8.12501 3.74179 8.18201C3.74179 8.27001 3.73279 8.35799 3.72779 8.44299C3.72179 8.56099 3.71679 8.677 3.71179 8.789C3.71179 8.865 3.70579 8.94201 3.70279 9.01501C3.70279 9.13701 3.69479 9.252 3.69279 9.367V9.54199C3.69279 9.70899 3.68679 9.86801 3.68679 10.018C3.68679 10.168 3.68679 10.329 3.69279 10.495V10.67C3.69279 10.785 3.69879 10.9 3.70279 11.022C3.70279 11.095 3.70879 11.172 3.71179 11.248C3.71179 11.361 3.72079 11.476 3.72779 11.594C3.72779 11.679 3.73579 11.767 3.74179 11.855C3.74179 11.911 3.74779 11.964 3.74979 12.022H0.738789C0.697789 11.35 0.676788 10.688 0.676788 10.02L0.678789 10.015ZM8.35679 8.01501H11.6258C11.6258 8.07901 11.6338 8.144 11.6368 8.203C11.6368 8.287 11.6458 8.36997 11.6498 8.45197C11.6558 8.57397 11.6608 8.68902 11.6658 8.80402C11.6658 8.87702 11.6728 8.951 11.6748 9.021C11.6748 9.143 11.6828 9.25801 11.6848 9.37201V9.54297C11.6848 9.70797 11.6908 9.866 11.6908 10.013C11.6908 10.16 11.6908 10.319 11.6848 10.482V10.653C11.6848 10.768 11.6778 10.882 11.6748 11.004C11.6748 11.075 11.6688 11.148 11.6658 11.221C11.6658 11.337 11.6558 11.452 11.6498 11.573C11.6498 11.655 11.6418 11.74 11.6368 11.823C11.6368 11.886 11.6288 11.952 11.6258 12.011H8.35579V8.01099L8.35679 8.01501ZM12.0898 5.34497V5.31897C12.0738 5.15097 12.0588 4.98397 12.0428 4.81897V4.77698C12.0288 4.63098 12.0148 4.489 12.0008 4.349C11.9991 4.31552 11.9958 4.28211 11.9908 4.24896C11.9598 3.93796 11.9288 3.64899 11.8968 3.37299V3.34796L11.8538 2.95398C11.8108 2.56198 11.7728 2.23801 11.7458 2.01501H14.1558C14.5693 3.09129 14.8605 4.21063 15.0238 5.35199L12.0898 5.34497ZM2.01379 0.670959H14.0318V1.33899H2.01279V0.670959H2.01379ZM1.89679 2.00598H4.30679C4.27979 2.23398 4.24179 2.55801 4.19879 2.94501L4.15579 3.33899V3.36499C4.12646 3.63632 4.09512 3.9283 4.06179 4.24097C4.06015 4.27445 4.05682 4.30786 4.05179 4.341C4.03779 4.481 4.02379 4.62401 4.00979 4.76801V4.81C3.99379 4.973 3.97879 5.139 3.96279 5.31V5.336H1.02779C1.19271 4.19789 1.48384 3.08168 1.89579 2.008L1.89679 2.00598ZM3.95379 14.688V14.714C3.96979 14.882 3.98479 15.049 4.00079 15.214V15.255C4.01479 15.401 4.02879 15.544 4.04279 15.684L4.05279 15.784C4.08479 16.095 4.11479 16.389 4.14679 16.66V16.688L4.18979 17.081C4.23279 17.473 4.27079 17.797 4.29779 18.02H1.89779C1.48427 16.9437 1.19311 15.8243 1.02979 14.683L3.95379 14.688ZM14.0298 19.361H2.01279V18.698H14.0318L14.0298 19.361ZM14.1458 18.026H11.7368C11.7638 17.798 11.8018 17.474 11.8448 17.087L11.8878 16.694V16.666C11.9168 16.394 11.9478 16.103 11.9818 15.79L11.9918 15.69C12.0058 15.55 12.0198 15.408 12.0338 15.261V15.22C12.0498 15.057 12.0648 14.891 12.0808 14.72V14.694H15.0088C14.846 15.8335 14.5569 16.9514 14.1468 18.027L14.1458 18.026ZM18.0358 17.358H17.3688V16.691H18.0378L18.0358 17.358ZM18.7038 15.689C18.7038 15.7328 18.6952 15.7763 18.6784 15.8168C18.6616 15.8574 18.637 15.8942 18.606 15.9252C18.5749 15.9562 18.5381 15.9808 18.4976 15.9976C18.4571 16.0143 18.4136 16.023 18.3698 16.023H17.0348C16.9462 16.023 16.8613 15.9878 16.7986 15.9252C16.736 15.8625 16.7008 15.7775 16.7008 15.689V14.689H18.7008V15.689H18.7038ZM19.3718 14.02H15.7848C15.8515 13.5006 15.9055 12.9523 15.9468 12.375C15.9548 12.255 15.9578 12.137 15.9658 12.018H19.3658L19.3718 14.02ZM7.68779 6.34796H8.35579V7.01501H7.68779V6.34796ZM3.68179 6.34796H4.34979V7.01501H3.68179V6.34796ZM11.6938 6.34796H12.3618V7.01501H11.6948V6.34796H11.6938ZM7.68679 13.024H8.35479V13.688H7.68779V13.021L7.68679 13.024ZM3.68079 13.024H4.34879V13.688H3.68179V13.021L3.68079 13.024ZM11.6928 13.024H12.3618V13.688H11.6948V13.021L11.6928 13.024Z" fill="black"/>
</svg>
