<svg width="14" height="16" viewBox="0 0 14 16" fill="none" xmlns="http://www.w3.org/2000/svg">
<path fill-rule="evenodd" clip-rule="evenodd" d="M9.47557 2.27035H4.52443C4.23565 2.26859 3.95788 2.38108 3.75184 2.58323C3.54579 2.78538 3.42819 3.06076 3.42471 3.34925V6.60573C3.42766 6.85411 3.52909 7.09121 3.70674 7.26499C3.88439 7.43877 4.12375 7.53505 4.37237 7.53275H9.63264C9.75547 7.53375 9.87733 7.51057 9.99119 7.46452C10.105 7.41847 10.2087 7.35046 10.2962 7.26437C10.3838 7.17828 10.4535 7.07581 10.5014 6.9628C10.5492 6.84979 10.5744 6.72845 10.5753 6.60573V3.34925C10.5726 3.0605 10.4552 2.78466 10.249 2.58233C10.0428 2.38001 9.76459 2.26779 9.47557 2.27035ZM9.63264 6.89686H4.37237C4.33356 6.89753 4.29506 6.89051 4.25898 6.87621C4.2229 6.86192 4.18996 6.84061 4.16217 6.81355C4.13437 6.78648 4.1122 6.75419 4.09696 6.71852C4.08173 6.68286 4.07372 6.64451 4.07339 6.60573V3.34925C4.0746 3.23077 4.12274 3.1176 4.20726 3.03449C4.29179 2.95137 4.40583 2.90507 4.52443 2.90575H9.47557C9.53478 2.9051 9.59353 2.91628 9.64835 2.93863C9.70318 2.96097 9.75298 2.99403 9.79484 3.03588C9.83683 3.07653 9.87012 3.12525 9.89277 3.17911C9.91541 3.23297 9.92695 3.29083 9.92661 3.34925V6.60573C9.9262 6.68326 9.89498 6.75745 9.83988 6.81203C9.78477 6.86661 9.71024 6.89713 9.63264 6.89686ZM3.6781 9.7154H6.62246V10.3513H3.6781V9.7154ZM7.5296 9.68957H8.31505V10.4571H7.5296V9.68957ZM8.66475 9.68957H9.44514V10.4571H8.66475V9.68957ZM9.79991 9.68957H10.5803V10.4571H9.79991V9.68957ZM7.5296 10.8034H8.31505V11.5705H7.5296V10.8034ZM8.66475 10.8034H9.44514V11.5705H8.66475V10.8034ZM9.79991 10.8034H10.5803V11.5705H9.79991V10.8034ZM7.5296 11.9173H8.31505V12.6848H7.5296V11.9173ZM8.66475 11.9173H9.44514V12.6848H8.66475V11.9173ZM9.79991 11.9173H10.5803V12.6848H9.79991V11.9173ZM13.6818 15.3666H11.8675V3.14573C11.8624 2.57191 11.6295 2.02357 11.2199 1.62123C10.8104 1.21889 10.2577 0.995488 9.68337 1.00007H4.32171C3.74682 0.995348 3.19354 1.21857 2.78315 1.6208C2.37276 2.02302 2.13878 2.57141 2.13249 3.14573V15.3641H0.318216C0.276422 15.3641 0.235084 15.3723 0.196472 15.3883C0.15786 15.4043 0.122778 15.4277 0.0932253 15.4572C0.0636729 15.4868 0.0402433 15.5218 0.0242497 15.5604C0.00825608 15.599 0 15.6403 0 15.6821C0 15.7238 0.00825608 15.7652 0.0242497 15.8037C0.0402433 15.8423 0.0636729 15.8774 0.0932253 15.9069C0.122778 15.9364 0.15786 15.9598 0.196472 15.9758C0.235084 15.9918 0.276422 16 0.318216 16H13.6818C13.7236 16 13.7649 15.9918 13.8035 15.9758C13.8421 15.9598 13.8772 15.9364 13.9068 15.9069C13.9363 15.8774 13.9598 15.8423 13.9757 15.8037C13.9917 15.7652 14 15.7238 14 15.6821C14 15.6403 13.9917 15.599 13.9757 15.5604C13.9598 15.5218 13.9363 15.4868 13.9068 15.4572C13.8772 15.4277 13.8421 15.4043 13.8035 15.3883C13.7649 15.3723 13.7236 15.3641 13.6818 15.3641V15.3666ZM2.78117 3.14827C2.78532 2.74404 2.9499 2.35798 3.23876 2.0749C3.52762 1.79181 3.91709 1.63486 4.32171 1.6385H9.68337C10.0875 1.63646 10.4761 1.79395 10.7646 2.07669C11.0531 2.35943 11.2182 2.74454 11.2239 3.14827V8.16815H2.78117V3.14827ZM2.78117 15.3666V8.80102H11.2239V15.3641H2.78117V15.3666Z" fill="black"/>
</svg>
