<svg width="21" height="19" viewBox="0 0 21 19" fill="none" xmlns="http://www.w3.org/2000/svg">
<path fill-rule="evenodd" clip-rule="evenodd" d="M10.16 18.19C9.70658 18.1876 9.26946 18.0206 8.93 17.72C6.8 15.82 3 12.35 1.72 10.44C0.740201 9.24855 0.159522 7.77937 0.06 6.24C0.0599979 4.60269 0.70973 3.0323 1.86654 1.87361C3.02336 0.714923 4.5927 0.0626479 6.23 0.0599986C7.69415 0.0476029 9.1139 0.562265 10.23 1.51C11.0824 0.795643 12.112 0.324948 13.2099 0.147704C14.3078 -0.0295394 15.4332 0.0932594 16.467 0.50311C17.5009 0.912961 18.4047 1.59463 19.083 2.47599C19.7612 3.35736 20.1886 4.40566 20.32 5.51C20.5001 7.05947 20.0894 8.61987 19.17 9.88C17.66 11.99 13.27 16.06 11.44 17.71C11.0908 18.0284 10.6325 18.2003 10.16 18.19ZM6.23 1.31C4.92248 1.31 3.66852 1.82941 2.74396 2.75396C1.81941 3.67852 1.3 4.93248 1.3 6.24C1.41352 7.52462 1.91979 8.74314 2.75 9.73C4.04 11.6 8.08 15.29 9.75 16.79C9.86258 16.8871 10.0063 16.9406 10.155 16.9406C10.3037 16.9406 10.4474 16.8871 10.56 16.79C12.35 15.16 16.67 11.17 18.1 9.16C18.8259 8.14634 19.1469 6.89807 19 5.66C18.8512 4.50755 18.3056 3.44294 17.457 2.6491C16.6084 1.85526 15.5098 1.38177 14.35 1.31C13.6622 1.28105 12.9761 1.39796 12.3366 1.65303C11.6972 1.90811 11.119 2.29558 10.64 2.79L10.19 3.24L9.75 2.79C9.29395 2.31796 8.74683 1.9434 8.14178 1.68901C7.53673 1.43461 6.88634 1.30567 6.23 1.31ZM10.16 18.25C9.69014 18.252 9.23674 18.0771 8.89 17.76C6.76 15.86 2.99 12.39 1.67 10.47C0.686648 9.26818 0.102846 7.78944 0 6.24C0.00527377 4.58932 0.66334 3.00776 1.83055 1.84055C2.99776 0.673339 4.57932 0.0152723 6.23 0.00999857C7.6916 -0.00797986 9.11106 0.499478 10.23 1.44C11.1582 0.687463 12.2832 0.217725 13.4709 0.0867865C14.6586 -0.044152 15.8589 0.169234 16.9287 0.701503C17.9985 1.23377 18.8927 2.06247 19.5046 3.0888C20.1165 4.11512 20.4204 5.29578 20.38 6.49C20.3273 7.72672 19.9098 8.92019 19.18 9.92C17.66 12.04 13.26 16.1 11.44 17.75C11.0901 18.0697 10.6339 18.2479 10.16 18.25ZM6.23 0.129999C4.61034 0.132643 3.05777 0.777222 1.9125 1.9225C0.767224 3.06777 0.122644 4.62034 0.12 6.24C0.226816 7.76387 0.803255 9.2172 1.77 10.4C3.09 12.31 6.85 15.77 9 17.67C9.32938 17.9624 9.75455 18.1239 10.195 18.1239C10.6355 18.1239 11.0606 17.9624 11.39 17.67C13.21 16.02 17.6 11.96 19.11 9.85C20.0217 8.60555 20.429 7.06228 20.25 5.53C20.0696 4.08404 19.3832 2.74861 18.3125 1.76024C17.2417 0.771871 15.8557 0.194359 14.4 0.129999C12.8802 0.0691968 11.3927 0.579314 10.23 1.56C9.11566 0.611496 7.6931 0.102932 6.23 0.129999ZM10.16 17.01C9.9974 17.0095 9.84072 16.9489 9.72 16.84C8 15.33 4 11.64 2.69 9.77C1.85728 8.76916 1.35123 7.5372 1.24 6.24C1.24 4.91392 1.76678 3.64215 2.70447 2.70446C3.64215 1.76678 4.91392 1.24 6.24 1.24C6.9039 1.23689 7.56156 1.36819 8.17338 1.62598C8.7852 1.88377 9.33851 2.26271 9.8 2.74L10.2 3.15L10.6 2.74C11.3076 2.02969 12.2124 1.54852 13.1969 1.35895C14.1814 1.16938 15.2002 1.28018 16.121 1.67694C17.0417 2.07371 17.8219 2.73813 18.3603 3.58393C18.8987 4.42973 19.1703 5.41785 19.14 6.42C19.0903 7.41933 18.742 8.38078 18.14 9.18C16.7 11.18 12.38 15.18 10.59 16.82C10.4657 16.9296 10.3057 16.9901 10.14 16.99L10.16 17.01ZM6.23 1.37C4.9384 1.37 3.69969 1.88309 2.78639 2.79639C1.87309 3.70969 1.36 4.94839 1.36 6.24C1.47926 7.50936 1.98144 8.71252 2.8 9.69C4.08 11.56 8.12 15.24 9.8 16.74C9.89796 16.8307 10.0265 16.881 10.16 16.881C10.2935 16.881 10.422 16.8307 10.52 16.74C12.31 15.12 16.62 11.13 18.06 9.12C18.8099 8.13069 19.1527 6.89195 19.0183 5.65789C18.8838 4.42382 18.2822 3.28799 17.3369 2.48339C16.3916 1.67878 15.1742 1.26641 13.9345 1.33086C12.6948 1.39532 11.5268 1.93171 10.67 2.83L10.18 3.33L9.7 2.83C9.24811 2.36765 8.70835 2.00031 8.11244 1.74958C7.51653 1.49885 6.87651 1.3698 6.23 1.37Z" fill="#B02E2F"/>
</svg>
