<svg width="40" height="40" viewBox="0 0 40 40" fill="none" xmlns="http://www.w3.org/2000/svg">
<g filter="url(#filter0_d_793_3575)">
<circle cx="20" cy="16" r="16" fill="white"/>
</g>
<g clip-path="url(#clip0_793_3575)">
<path fill-rule="evenodd" clip-rule="evenodd" d="M19.4764 9.59904V8.51014C19.4776 8.43843 19.4931 8.3677 19.522 8.30206C19.5508 8.23643 19.5924 8.17723 19.6443 8.1279C19.6963 8.07858 19.7575 8.04013 19.8244 8.0148C19.8914 7.98948 19.9627 7.97778 20.0342 7.9804C20.1676 7.98527 20.2942 8.04058 20.3886 8.13521C20.483 8.22984 20.5382 8.35678 20.543 8.49052V9.59904C22.06 9.72018 23.4842 10.3792 24.5603 11.4579C25.6363 12.5366 26.2937 13.9643 26.4146 15.485H27.4813C27.6223 15.4926 27.7547 15.5555 27.8499 15.6601C27.9451 15.7647 27.9955 15.9027 27.9901 16.0442C27.9853 16.1779 27.9301 16.3048 27.8357 16.3995C27.7413 16.4941 27.6147 16.5494 27.4813 16.5543H26.3852C26.2663 18.0757 25.6095 19.5045 24.5331 20.5836C23.4567 21.6626 22.0313 22.321 20.5137 22.4402V23.4801C20.5112 23.5497 20.495 23.6181 20.4661 23.6814C20.4371 23.7447 20.3961 23.8017 20.3452 23.849C20.2943 23.8964 20.2345 23.9333 20.1694 23.9575C20.1043 23.9817 20.0351 23.9928 19.9657 23.9902C19.8313 23.9855 19.7035 23.9305 19.6075 23.8361C19.5115 23.7417 19.4543 23.6147 19.447 23.4801V22.3716C17.9294 22.2524 16.504 21.594 15.4276 20.5149C14.3511 19.4358 13.6944 18.007 13.5754 16.4856H12.5479C12.4168 16.4887 12.2893 16.4418 12.1913 16.3544C12.0932 16.2671 12.0318 16.1457 12.0195 16.0147C12.0139 15.8764 12.0616 15.7412 12.1527 15.6371C12.2437 15.533 12.3712 15.468 12.5088 15.4556H13.6439C13.7667 13.9356 14.4248 12.5089 15.5004 11.4306C16.5761 10.3523 17.9993 9.69269 19.5155 9.56961L19.4764 9.59904ZM25.3479 15.9853C25.3479 17.0404 25.0359 18.0718 24.4514 18.9491C23.8669 19.8265 23.036 20.5105 22.0639 20.9147C21.0917 21.3189 20.0218 21.4252 18.9894 21.2201C17.957 21.015 17.0084 20.5077 16.2635 19.7623C15.5186 19.017 15.0108 18.067 14.8043 17.0324C14.5978 15.9979 14.7018 14.9252 15.1033 13.9499C15.5047 12.9746 16.1855 12.1404 17.0597 11.5528C17.9338 10.9653 18.9621 10.6506 20.0146 10.6487C20.7141 10.6474 21.4069 10.7846 22.0533 11.0523C22.6998 11.32 23.2872 11.7131 23.7818 12.2089C24.2764 12.7047 24.6685 13.2935 24.9355 13.9415C25.2026 14.5896 25.3394 15.2841 25.3381 15.9853H25.3479ZM23.2244 15.9853C23.2244 16.6193 23.0369 17.2392 22.6858 17.7665C22.3346 18.2938 21.8354 18.7049 21.2512 18.948C20.6671 19.1911 20.0241 19.2552 19.4037 19.1322C18.7832 19.0092 18.213 18.7047 17.7651 18.257C17.3172 17.8094 17.0116 17.2387 16.8871 16.6171C16.7625 15.9955 16.8245 15.3508 17.0652 14.7645C17.3059 14.1782 17.7145 13.6765 18.2394 13.3228C18.7644 12.9692 19.3821 12.7794 20.0146 12.7775C20.8633 12.7775 21.6772 13.1154 22.2773 13.717C22.8774 14.3186 23.2146 15.1345 23.2146 15.9853H23.2244ZM22.1577 15.9853C22.1616 16.4087 22.04 16.8237 21.8084 17.1777C21.5768 17.5317 21.2455 17.8089 20.8567 17.974C20.4678 18.1392 20.0387 18.1849 19.6239 18.1054C19.2091 18.0259 18.8271 17.8248 18.5264 17.5275C18.2257 17.2302 18.0198 16.8501 17.9348 16.4354C17.8498 16.0207 17.8895 15.59 18.0489 15.1979C18.2082 14.8058 18.4801 14.47 18.83 14.2329C19.18 13.9959 19.5922 13.8683 20.0146 13.8664C20.5787 13.869 21.1188 14.0954 21.5168 14.4962C21.9147 14.897 22.1381 15.4394 22.1381 16.0049L22.1577 15.9853Z" fill="black"/>
</g>
<defs>
<filter id="filter0_d_793_3575" x="0" y="0" width="40" height="40" filterUnits="userSpaceOnUse" color-interpolation-filters="sRGB">
<feFlood flood-opacity="0" result="BackgroundImageFix"/>
<feColorMatrix in="SourceAlpha" type="matrix" values="0 0 0 0 0 0 0 0 0 0 0 0 0 0 0 0 0 0 127 0" result="hardAlpha"/>
<feOffset dy="4"/>
<feGaussianBlur stdDeviation="2"/>
<feComposite in2="hardAlpha" operator="out"/>
<feColorMatrix type="matrix" values="0 0 0 0 0 0 0 0 0 0 0 0 0 0 0 0 0 0 0.25 0"/>
<feBlend mode="normal" in2="BackgroundImageFix" result="effect1_dropShadow_793_3575"/>
<feBlend mode="normal" in="SourceGraphic" in2="effect1_dropShadow_793_3575" result="shape"/>
</filter>
<clipPath id="clip0_793_3575">
<rect width="16" height="16" fill="white" transform="translate(12 8)"/>
</clipPath>
</defs>
</svg>
