<svg width="16" height="16" viewBox="0 0 16 16" fill="none" xmlns="http://www.w3.org/2000/svg">
<path fill-rule="evenodd" clip-rule="evenodd" d="M7.47636 1.59904V0.510138C7.47762 0.438431 7.49312 0.367695 7.52196 0.302064C7.5508 0.236434 7.59241 0.177226 7.64435 0.127903C7.69628 0.0785795 7.75751 0.0401308 7.82444 0.0148044C7.89137 -0.0105219 7.96267 -0.0222175 8.03416 -0.0195986C8.16757 -0.0147306 8.2942 0.0405763 8.3886 0.135207C8.483 0.229838 8.53817 0.356778 8.54303 0.490518V1.59904C10.06 1.72018 11.4842 2.37921 12.5603 3.45789C13.6363 4.53658 14.2937 5.96433 14.4146 7.485H15.4813C15.6223 7.49262 15.7547 7.55552 15.8499 7.66013C15.9451 7.76474 15.9955 7.90267 15.9901 8.04417C15.9853 8.17791 15.9301 8.30485 15.8357 8.39948C15.7413 8.49411 15.6147 8.54942 15.4813 8.55428H14.3852C14.2663 10.0757 13.6095 11.5045 12.5331 12.5836C11.4567 13.6626 10.0313 14.321 8.51367 14.4402V15.4801C8.51115 15.5497 8.49497 15.6181 8.46605 15.6814C8.43714 15.7447 8.39606 15.8017 8.34516 15.849C8.29426 15.8964 8.23455 15.9333 8.16943 15.9575C8.10431 15.9817 8.03507 15.9928 7.96566 15.9902C7.83127 15.9855 7.7035 15.9305 7.60751 15.8361C7.51152 15.7417 7.45426 15.6147 7.44701 15.4801V14.3716C5.92935 14.2524 4.504 13.594 3.42757 12.5149C2.35114 11.4358 1.69435 10.007 1.57545 8.48561H0.547924C0.416764 8.48868 0.289319 8.4418 0.191263 8.35443C0.0932063 8.26705 0.0318247 8.14567 0.0194834 8.01474C0.0138996 7.8764 0.0615777 7.74121 0.152653 7.63713C0.243729 7.53304 0.371231 7.46804 0.50878 7.45557H1.64395C1.76672 5.9356 2.42476 4.50894 3.50042 3.43064C4.57608 2.35234 5.99925 1.69269 7.51551 1.56961V1.56961L7.47636 1.59904ZM13.3479 7.98531C13.3479 9.04037 13.0359 10.0718 12.4514 10.9491C11.8669 11.8265 11.036 12.5105 10.0639 12.9147C9.09168 13.3189 8.0218 13.4252 6.9894 13.2201C5.957 13.015 5.00842 12.5077 4.26352 11.7623C3.51862 11.017 3.01083 10.067 2.80432 9.03243C2.5978 7.99788 2.70183 6.92517 3.10326 5.94987C3.50468 4.97456 4.18549 4.14042 5.05966 3.55285C5.93382 2.96528 6.96211 2.65064 8.01459 2.6487V2.6487C8.71405 2.64741 9.40688 2.78456 10.0533 3.0523C10.6998 3.32003 11.2872 3.71307 11.7818 4.20888C12.2764 4.70468 12.6685 5.2935 12.9355 5.94155C13.2026 6.5896 13.3394 7.28413 13.3381 7.98531H13.3479ZM11.2244 7.98531C11.2244 8.61934 11.0369 9.23915 10.6858 9.76647C10.3346 10.2938 9.83537 10.7049 9.25121 10.948C8.66706 11.1911 8.02415 11.2552 7.40368 11.1322C6.78321 11.0092 6.21301 10.7047 5.76509 10.257C5.31718 9.8094 5.01164 9.23873 4.88706 8.61712C4.76249 7.99551 4.82446 7.35082 5.06516 6.7645C5.30586 6.17817 5.71449 5.6765 6.23944 5.32284C6.76439 4.96918 7.38211 4.7794 8.01459 4.77746C8.86328 4.77746 9.67721 5.11543 10.2773 5.71702C10.8774 6.3186 11.2146 7.13453 11.2146 7.98531H11.2244ZM10.1577 7.98531C10.1616 8.40867 10.04 8.82366 9.80839 9.1777C9.57678 9.53173 9.24554 9.80889 8.85666 9.97405C8.46777 10.1392 8.03873 10.1849 7.6239 10.1054C7.20907 10.0259 6.82711 9.82479 6.52641 9.52749C6.22571 9.23019 6.01982 8.8501 5.9348 8.43539C5.84978 8.02067 5.88948 7.58999 6.04885 7.19791C6.20822 6.80583 6.48011 6.46999 6.83005 6.23295C7.17999 5.99591 7.59225 5.86832 8.01459 5.86636V5.86636C8.57869 5.86896 9.1188 6.09541 9.51676 6.49619C9.91473 6.89697 10.1381 7.43944 10.1381 8.00493L10.1577 7.98531Z" fill="black"/>
</svg>
