<svg width="49" height="49" viewBox="0 0 49 49" fill="none" xmlns="http://www.w3.org/2000/svg">
<path d="M13.2959 43.0732C12.5414 42.7111 12.2246 41.8057 12.5716 41.0664C12.9338 40.3119 13.8391 39.995 14.5936 40.3421C20.8858 43.3297 28.2946 42.7564 34.0436 38.8332C34.7377 38.3654 35.6732 38.5465 36.141 39.2406C36.5937 39.9347 36.4126 40.8551 35.7336 41.3229C29.0943 45.8647 20.5538 46.5287 13.2959 43.0732Z" fill="black"/>
<path d="M45.4058 19.5944C45.4058 19.4887 45.4058 19.3982 45.4058 19.2926C43.5649 6.93449 32.0518 -1.59093 19.6937 0.249961C12.2547 1.35148 5.84182 6.08949 2.59763 12.8646C2.53728 12.9551 2.49201 13.0607 2.46183 13.1663C-1.58208 21.8427 0.28898 32.1486 7.15458 38.818C7.44128 39.0897 7.81851 39.2556 8.21083 39.2556C9.04074 39.2556 9.71975 38.5766 9.71975 37.7467C9.71975 37.3393 9.55377 36.9621 9.26708 36.6754C3.59352 31.1527 1.81299 22.7329 4.7403 15.3694L10.4591 16.32C10.9722 16.4105 11.4097 16.7576 11.6059 17.2555L13.2355 21.3296C13.9447 23.0498 15.6347 24.1513 17.4907 24.1211H19.6183C20.1917 24.1211 20.7198 24.438 20.9763 24.951C21.5648 26.128 21.4894 25.4943 20.3275 31.2885C20.0257 32.7673 20.4935 34.3064 21.5648 35.3777C22.44 36.2529 22.9077 36.5999 22.7719 37.4751L21.761 43.5108C21.6252 44.3407 22.1986 45.1253 23.0285 45.2612C23.8584 45.397 24.643 44.8236 24.7788 43.9937L25.7747 37.958C26.001 36.5245 25.5333 35.0608 24.5072 34.0348C23.6924 33.2199 23.1341 32.8276 23.3152 31.8921L24.311 26.9428C24.5072 25.962 24.3563 24.9359 23.9187 24.0306L23.7075 23.6081C22.9379 22.0539 21.3536 21.0882 19.6183 21.1033H17.4907C16.872 21.1033 16.3288 20.7261 16.1025 20.1527L14.4729 16.0786C13.8844 14.6149 12.5716 13.5587 11.0174 13.3021L6.21905 12.5024C9.49341 7.08538 15.1821 3.56959 21.4894 3.07165V6.67797C21.4894 8.76029 22.9077 10.571 24.9146 11.0689C25.6691 11.2651 26.1067 11.3104 26.4235 11.9592C26.6197 12.3213 26.665 12.7589 26.5292 13.1513C25.8049 15.309 26.1368 15.8371 26.8762 18.01C27.4949 19.866 29.2452 21.1184 31.2068 21.1033H42.6143C42.7652 22.9291 42.6595 24.7549 42.2974 26.5505C42.1465 27.3804 42.6897 28.1952 43.5196 28.3461C44.3495 28.497 45.1644 27.9538 45.3153 27.1239C45.783 24.6342 45.8132 22.0841 45.4058 19.5944ZM31.2068 18.0854C30.5278 18.1156 29.9091 17.7082 29.6979 17.0594C29.0189 14.9921 28.9736 15.2487 29.3659 14.0415C30.1506 11.6725 28.868 9.10734 26.499 8.30761C26.3934 8.27743 26.2726 8.23217 26.167 8.21708L25.5785 8.06618C24.8844 7.9002 24.4167 7.26646 24.4318 6.55726V3.07165C32.9572 3.7054 40.0944 9.77127 42.0711 18.0854H31.2068Z" fill="black"/>
<path d="M38.4195 47.6905C37.6198 46.7549 30.5429 37.7014 30.5429 33.1746C30.5429 28.1801 34.6019 24.1211 39.5964 24.1211C44.591 24.1211 48.65 28.1801 48.65 33.1746C48.65 37.7014 41.5731 46.7549 40.7734 47.6905C40.2453 48.3393 39.3098 48.4449 38.6458 47.9168C38.5553 47.8414 38.4798 47.7659 38.4195 47.6905ZM39.5964 27.1389C36.2617 27.1389 33.5608 29.8399 33.5608 33.1746C33.5608 35.4682 36.8955 40.7193 39.5964 44.2954C42.2974 40.674 45.6321 35.4682 45.6321 33.1746C45.6321 29.8399 42.9312 27.1389 39.5964 27.1389Z" fill="black"/>
<path d="M39.5964 34.6836C38.7665 34.6836 38.0875 34.0046 38.0875 33.1747C38.0875 32.3448 38.7665 31.6658 39.5964 31.6658C40.4264 31.6658 41.1054 32.3448 41.1054 33.1747C41.1054 34.0046 40.4264 34.6836 39.5964 34.6836Z" fill="black"/>
</svg>
