<svg width="34" height="48" viewBox="0 0 34 48" fill="none" xmlns="http://www.w3.org/2000/svg">
<path d="M24.08 33.69C28.205 26.805 32 19.29 32 15C32 11.0218 30.4196 7.20644 27.6066 4.3934C24.7936 1.58035 20.9782 0 17 0C13.0218 0 9.20644 1.58035 6.3934 4.3934C3.58035 7.20644 2 11.0218 2 15C2 20.445 8.105 31.065 13.22 39C13.6305 39.6188 14.1877 40.1264 14.842 40.4776C15.4964 40.8288 16.2274 41.0125 16.97 41.0125C17.7126 41.0125 18.4436 40.8288 19.098 40.4776C19.7523 40.1264 20.3095 39.6188 20.72 39L22.4 36.45C27.41 37.26 30.5 39.12 30.5 40.5C30.5 42.33 25.235 45 17 45C8.765 45 3.5 42.33 3.5 40.5C3.5 39.81 4.325 39 5.705 38.22C6.02715 38.0184 6.26077 37.7021 6.35867 37.3349C6.45656 36.9677 6.41144 36.577 6.2324 36.2418C6.05337 35.9066 5.75378 35.6518 5.39416 35.529C5.03454 35.4061 4.64169 35.4244 4.295 35.58C1.16 37.245 0.5 39.18 0.5 40.5C0.5 45.375 9.005 48 17 48C24.995 48 33.5 45.375 33.5 40.5C33.5 37.38 29.945 34.86 24.08 33.69ZM18.26 37.395C18.124 37.6055 17.9375 37.7786 17.7174 37.8985C17.4972 38.0183 17.2506 38.0811 17 38.0811C16.7494 38.0811 16.5028 38.0183 16.2826 37.8985C16.0625 37.7786 15.876 37.6055 15.74 37.395C8.915 26.775 5 18.615 5 15C5 11.8174 6.26428 8.76515 8.51472 6.51472C10.7652 4.26428 13.8174 3 17 3C20.1826 3 23.2348 4.26428 25.4853 6.51472C27.7357 8.76515 29 11.8174 29 15C29 20.265 21.125 33 18.26 37.395Z" fill="#BF1332"/>
<path d="M17 24C16.6022 24 16.2206 23.842 15.9393 23.5607C15.658 23.2794 15.5 22.8978 15.5 22.5V10.5C15.5 10.1022 15.658 9.72064 15.9393 9.43934C16.2206 9.15804 16.6022 9 17 9C17.3978 9 17.7794 9.15804 18.0607 9.43934C18.342 9.72064 18.5 10.1022 18.5 10.5V22.5C18.5 22.8978 18.342 23.2794 18.0607 23.5607C17.7794 23.842 17.3978 24 17 24Z" fill="#BF1332"/>
<path d="M17 30C16.7033 30 16.4133 29.912 16.1666 29.7472C15.92 29.5824 15.7277 29.3481 15.6142 29.074C15.5006 28.7999 15.4709 28.4983 15.5288 28.2074C15.5867 27.9164 15.7296 27.6491 15.9393 27.4393C16.1491 27.2296 16.4164 27.0867 16.7074 27.0288C16.9983 26.9709 17.2999 27.0006 17.574 27.1142C17.8481 27.2277 18.0824 27.42 18.2472 27.6666C18.412 27.9133 18.5 28.2033 18.5 28.5C18.5 28.8978 18.342 29.2794 18.0607 29.5607C17.7794 29.842 17.3978 30 17 30Z" fill="#BF1332"/>
</svg>
