<svg width="13" height="17" viewBox="0 0 13 17" fill="none" xmlns="http://www.w3.org/2000/svg">
<path fill-rule="evenodd" clip-rule="evenodd" d="M6.24208 -0.0109863C4.57938 -0.00119924 2.98839 0.667424 1.81793 1.84839C0.64746 3.02935 -0.00698257 4.62628 -0.00192402 6.289C-0.00192402 8.78 3.06608 13.102 4.89808 15.456C5.05685 15.6624 5.26093 15.8296 5.49457 15.9446C5.72821 16.0597 5.98515 16.1195 6.24558 16.1195C6.506 16.1195 6.76295 16.0597 6.99658 15.9446C7.23022 15.8296 7.4343 15.6624 7.59308 15.456C9.42208 13.102 12.4931 8.78 12.4931 6.289C12.4981 4.62507 11.8427 3.02711 10.6707 1.84595C9.49877 0.664782 7.90599 -0.00304652 6.24208 -0.0109863ZM6.24208 14.965C6.15608 14.965 6.07122 14.9453 5.99406 14.9073C5.9169 14.8694 5.8495 14.8141 5.79708 14.746C2.84108 10.939 1.14508 7.85797 1.14508 6.29297C1.1216 5.60891 1.23607 4.92716 1.48165 4.28827C1.72723 3.64938 2.0989 3.06644 2.57452 2.57422C3.05013 2.082 3.61996 1.69056 4.25006 1.42322C4.88015 1.15587 5.55761 1.01807 6.24208 1.01807C6.92654 1.01807 7.604 1.15587 8.2341 1.42322C8.86419 1.69056 9.43402 2.082 9.90964 2.57422C10.3853 3.06644 10.7569 3.64938 11.0025 4.28827C11.2481 4.92716 11.3626 5.60891 11.3391 6.29297C11.3391 7.85797 9.63908 10.94 6.68708 14.746C6.63501 14.8148 6.56778 14.8708 6.49061 14.9094C6.41344 14.9481 6.3284 14.9685 6.24208 14.969V14.965ZM6.24208 3.34601C5.74089 3.34125 5.2496 3.48552 4.83056 3.7605C4.41152 4.03548 4.08364 4.42877 3.88854 4.89044C3.69345 5.35212 3.63993 5.86137 3.73478 6.35352C3.82963 6.84566 4.06858 7.29851 4.4213 7.6546C4.77401 8.01069 5.22458 8.25397 5.7158 8.35352C6.20702 8.45306 6.71674 8.40437 7.18026 8.21368C7.64377 8.023 8.04017 7.69887 8.31914 7.28247C8.59811 6.86607 8.74705 6.37621 8.74708 5.875C8.74947 5.20769 8.48709 4.56664 8.01748 4.09253C7.54787 3.61842 6.90938 3.34998 6.24208 3.34601ZM6.24208 7.41602C5.93668 7.41899 5.63728 7.33115 5.3819 7.16364C5.12651 6.99613 4.92667 6.75646 4.80773 6.47516C4.68879 6.19385 4.65613 5.88359 4.71388 5.58368C4.77164 5.28377 4.91721 5.00779 5.13211 4.79077C5.34701 4.57376 5.62156 4.42549 5.92088 4.36481C6.22021 4.30412 6.53082 4.33371 6.81327 4.44989C7.09573 4.56607 7.33729 4.7636 7.50729 5.01733C7.67729 5.27106 7.76806 5.56958 7.76808 5.875C7.76941 6.28151 7.60954 6.67196 7.3235 6.96082C7.03746 7.24967 6.64858 7.41337 6.24208 7.41602Z" fill="black"/>
</svg>
