<svg width="14" height="14" viewBox="0 0 14 14" fill="none" xmlns="http://www.w3.org/2000/svg">
<path fill-rule="evenodd" clip-rule="evenodd" d="M7.96742 13.381C7.4175 14.2237 6.1764 14.2018 5.65659 13.3408L0.193585 4.29225C-0.10525 3.79691 -0.0718195 3.12349 0.390083 2.67727C1.22794 1.86944 3.51432 0 6.80223 0C10.0718 0 12.3506 1.84831 13.1993 2.66365C13.6783 3.12283 13.6974 3.82217 13.3706 4.32024L12.558 5.55929C12.3513 5.8745 11.9282 5.96252 11.6137 5.75578C11.2985 5.54905 11.2105 5.12603 11.4172 4.81151L12.2087 3.60385C11.4288 2.86836 9.49856 1.36464 6.80225 1.36464C4.08813 1.36464 2.15039 2.8882 1.38082 3.61818L6.82479 12.6353L7.25394 11.9769C7.45999 11.661 7.88301 11.5723 8.19822 11.7777C8.51412 11.9837 8.60281 12.4067 8.39744 12.7219L7.96742 13.381Z" fill="#BF1332"/>
<path d="M9.20912 6.62778C8.94235 6.36101 8.51046 6.36101 8.24369 6.62778C7.97761 6.89386 7.97761 7.32576 8.24369 7.59253L9.48478 8.83293L8.31534 10.0017C8.04925 10.2685 8.04925 10.7003 8.31534 10.9671C8.58211 11.2332 9.014 11.2332 9.28077 10.9671L10.4495 9.79768L11.5753 10.9234C11.8414 11.1902 12.274 11.1902 12.54 10.9234C12.8068 10.6574 12.8068 10.2255 12.54 9.9587L11.4143 8.83293L12.5837 7.66417C12.8498 7.39741 12.8498 6.96551 12.5837 6.69875C12.3169 6.43266 11.885 6.43266 11.6183 6.69875L10.4495 7.86818L9.20912 6.62778Z" fill="#BF1332"/>
</svg>
