<svg width="15" height="16" viewBox="0 0 15 16" fill="none" xmlns="http://www.w3.org/2000/svg">
<path fill-rule="evenodd" clip-rule="evenodd" d="M7.2279 15.78C8.89542 15.7707 10.5086 15.1859 11.7948 14.1245C13.0809 13.0632 13.9612 11.5903 14.2869 9.9549C14.6126 8.31946 14.3637 6.62175 13.5822 5.14865C12.8007 3.67556 11.5346 2.51743 9.9979 1.87C9.92972 1.83887 9.85595 1.82187 9.78103 1.81998C9.7061 1.81809 9.63157 1.83136 9.5619 1.85901C9.45649 1.90064 9.36603 1.973 9.30228 2.06671C9.23854 2.16043 9.20445 2.27115 9.20445 2.38449C9.20445 2.49783 9.23854 2.60856 9.30228 2.70227C9.36603 2.79598 9.45649 2.86837 9.5619 2.91C10.8577 3.45043 11.9263 4.42307 12.5859 5.66248C13.2455 6.90188 13.4553 8.33151 13.1798 9.70819C12.9042 11.0849 12.1602 12.3236 11.0744 13.2136C9.98853 14.1036 8.62789 14.59 7.2239 14.59C5.81991 14.59 4.45928 14.1036 3.37344 13.2136C2.28761 12.3236 1.54362 11.0849 1.26805 9.70819C0.99248 8.33151 1.20234 6.90188 1.86192 5.66248C2.52151 4.42307 3.59009 3.45043 4.8859 2.91C4.99132 2.86837 5.08178 2.79598 5.14553 2.70227C5.20927 2.60856 5.24336 2.49783 5.24336 2.38449C5.24336 2.27115 5.20927 2.16043 5.14553 2.06671C5.08178 1.973 4.99132 1.90064 4.8859 1.85901C4.81624 1.83136 4.7417 1.81809 4.66678 1.81998C4.59185 1.82187 4.51809 1.83887 4.4499 1.87C2.91118 2.51582 1.64292 3.67357 0.859876 5.14722C0.0768349 6.62086 -0.172868 8.31985 0.153046 9.95648C0.47896 11.5931 1.36046 13.0668 2.6483 14.1281C3.93613 15.1893 5.55115 15.7729 7.2199 15.78H7.2279ZM6.6659 0.562012V7.88901C6.6659 8.03793 6.72506 8.18074 6.83036 8.28604C6.93567 8.39134 7.07849 8.4505 7.2274 8.4505C7.37632 8.4505 7.51914 8.39134 7.62444 8.28604C7.72975 8.18074 7.7889 8.03793 7.7889 7.88901V0.562012C7.7889 0.413093 7.72975 0.270249 7.62444 0.164948C7.51914 0.0596458 7.37632 0.000488281 7.2274 0.000488281C7.07849 0.000488281 6.93567 0.0596458 6.83036 0.164948C6.72506 0.270249 6.6659 0.413093 6.6659 0.562012Z" fill="black"/>
</svg>
