<?xml version="1.0" encoding="UTF-8"?>
<svg width="28px" height="21px" viewBox="0 0 28 21" version="1.1" xmlns="http://www.w3.org/2000/svg" xmlns:xlink="http://www.w3.org/1999/xlink">
    <!-- Generator: Sketch 53.2 (72643) - https://sketchapp.com -->
    <title>mail</title>
    <desc>Created with Sketch.</desc>
    <g id="About-Us" stroke="none" stroke-width="1" fill="none" fill-rule="evenodd">
        <g id="TBS_Contact" transform="translate(-584.000000, -636.000000)" fill="#58595B">
            <g id="MAIN-CONTENT" transform="translate(555.000000, 440.000000)">
                <g id="CONTACT" transform="translate(0.000000, 169.000000)">
                    <g id="contact-details">
                        <g id="by-mail">
                            <path d="M54.9,27 L31.1,27 C29.940632,27 29,27.974226 29,29.175 L29,45.125 C29,46.325774 29.940632,47.3 31.1,47.3 L54.9,47.3 C56.059368,47.3 57,46.325774 57,45.125 L57,29.175 C57,27.974226 56.059368,27 54.9,27 Z M52.8,28.45 L43.29428,36.10542 C43.10178,36.2119051 42.871004,36.2119051 42.678504,36.10542 L33.199944,28.45 L52.8,28.45 Z M55.6,45.125 C55.6,45.3175774 55.5267184,45.502232 55.3954684,45.638155 C55.2642184,45.774078 55.0859284,45.8499913 54.9000084,45.8499913 L31.1000084,45.8499913 C30.7139164,45.8499913 30.4000084,45.5248723 30.4000084,45.1249913 L30.4000084,29.1749913 C30.3814147,28.8408243 30.5925084,28.5383543 30.9042324,28.4499913 L41.9499524,37.3097813 C42.2594924,37.5000938 42.6127684,37.5997813 42.9715044,37.5997813 C43.3827684,37.5941176 43.7841484,37.4740402 44.1341484,37.2520133 L55.0955884,28.4499333 C55.4073124,28.5382934 55.6184044,28.8407663 55.5998124,29.1749333 L55.6,45.125 Z" id="mail"></path>
                        </g>
                    </g>
                </g>
            </g>
        </g>
    </g>
</svg>