<svg width="49" height="48" viewBox="0 0 49 48" fill="none" xmlns="http://www.w3.org/2000/svg">
<path d="M26 48H23C21.8065 48 20.6619 47.5259 19.818 46.682C18.9741 45.8381 18.5 44.6935 18.5 43.5C18.4902 43.2056 18.394 42.9205 18.2233 42.6805C18.0525 42.4404 17.8149 42.2559 17.54 42.15C17.18 42.05 16.85 41.93 16.55 41.79C16.2797 41.6713 15.9803 41.6351 15.6895 41.6858C15.3987 41.7365 15.1292 41.8719 14.915 42.075C14.0745 42.895 12.9468 43.354 11.7725 43.354C10.5982 43.354 9.4705 42.895 8.63 42.075L6.5 39.87C5.67998 39.0295 5.22098 37.9018 5.22098 36.7275C5.22098 35.5532 5.67998 34.4255 6.5 33.585C6.70065 33.3691 6.83326 33.0989 6.88128 32.8082C6.9293 32.5174 6.89059 32.2189 6.77 31.95C6.59 31.65 6.435 31.32 6.305 30.96C6.2022 30.6918 6.02458 30.4588 5.79325 30.2887C5.56192 30.1185 5.2866 30.0183 5 30C3.80653 30 2.66193 29.5259 1.81802 28.682C0.974106 27.8381 0.5 26.6935 0.5 25.5L0.5 22.5C0.5 21.3065 0.974106 20.1619 1.81802 19.318C2.66193 18.4741 3.80653 18 5 18C5.29443 17.9902 5.57946 17.894 5.81954 17.7233C6.05962 17.5525 6.24411 17.3149 6.35 17.04C6.45 16.68 6.57 16.35 6.71 16.05C6.83847 15.7867 6.88704 15.4916 6.84973 15.2011C6.81241 14.9105 6.69083 14.6373 6.5 14.415C5.67998 13.5745 5.22098 12.4468 5.22098 11.2725C5.22098 10.0982 5.67998 8.9705 6.5 8.13L8.63 6C9.4705 5.17998 10.5982 4.72098 11.7725 4.72098C12.9468 4.72098 14.0745 5.17998 14.915 6C15.1309 6.20065 15.4011 6.33326 15.6918 6.38128C15.9826 6.4293 16.2811 6.39059 16.55 6.27L17.54 5.865C17.8172 5.75812 18.0564 5.57134 18.2273 5.32832C18.3983 5.08531 18.4932 4.79702 18.5 4.5C18.5 3.30653 18.9741 2.16193 19.818 1.31802C20.6619 0.474106 21.8065 0 23 0L26 0C27.1935 0 28.3381 0.474106 29.182 1.31802C30.0259 2.16193 30.5 3.30653 30.5 4.5C30.5098 4.79443 30.606 5.07946 30.7767 5.31954C30.9475 5.55962 31.1851 5.74411 31.46 5.85L32.45 6.255C32.7175 6.37754 33.0151 6.41869 33.3058 6.37335C33.5966 6.32801 33.8675 6.19817 34.085 6C34.9255 5.17998 36.0532 4.72098 37.2275 4.72098C38.4018 4.72098 39.5295 5.17998 40.37 6L42.5 8.13C43.32 8.9705 43.779 10.0982 43.779 11.2725C43.779 12.4468 43.32 13.5745 42.5 14.415C42.2994 14.6309 42.1667 14.9011 42.1187 15.1918C42.0707 15.4826 42.1094 15.7811 42.23 16.05C42.38 16.38 42.515 16.71 42.635 17.04C42.7419 17.3172 42.9287 17.5564 43.1717 17.7273C43.4147 17.8983 43.703 17.9932 44 18C45.1935 18 46.3381 18.4741 47.182 19.318C48.0259 20.1619 48.5 21.3065 48.5 22.5V25.5C48.5 26.6935 48.0259 27.8381 47.182 28.682C46.3381 29.5259 45.1935 30 44 30C43.7056 30.0098 43.4205 30.106 43.1805 30.2767C42.9404 30.4475 42.7559 30.6851 42.65 30.96C42.53 31.29 42.395 31.62 42.245 31.95C42.1225 32.2175 42.0813 32.5151 42.1266 32.8058C42.172 33.0966 42.3018 33.3675 42.5 33.585C43.32 34.4255 43.779 35.5532 43.779 36.7275C43.779 37.9018 43.32 39.0295 42.5 39.87L40.37 42C40.089 42.2794 39.7088 42.4362 39.3125 42.4362C38.9162 42.4362 38.536 42.2794 38.255 42C37.9756 41.719 37.8188 41.3388 37.8188 40.9425C37.8188 40.5462 37.9756 40.166 38.255 39.885L40.445 37.695C40.7066 37.4168 40.8522 37.0493 40.8522 36.6675C40.8522 36.2857 40.7066 35.9182 40.445 35.64C39.816 34.9971 39.394 34.1805 39.2336 33.2955C39.0732 32.4105 39.1817 31.4978 39.545 30.675C39.68 30.39 39.785 30.105 39.89 29.82C40.221 28.9973 40.7877 28.2907 41.5189 27.789C42.2501 27.2873 43.1133 27.0128 44 27C44.3978 27 44.7794 26.842 45.0607 26.5607C45.342 26.2794 45.5 25.8978 45.5 25.5V22.5C45.5 22.1022 45.342 21.7206 45.0607 21.4393C44.7794 21.158 44.3978 21 44 21C43.0986 20.9913 42.2207 20.7121 41.4798 20.1986C40.739 19.6851 40.1695 18.961 39.845 18.12C39.7456 17.8339 39.6304 17.5534 39.5 17.28C39.1334 16.4554 39.0231 15.5396 39.1836 14.6515C39.3441 13.7634 39.7679 12.9441 40.4 12.3C40.6616 12.0218 40.8072 11.6543 40.8072 11.2725C40.8072 10.8907 40.6616 10.5232 40.4 10.245L38.255 8.055C37.9768 7.79344 37.6093 7.64781 37.2275 7.64781C36.8457 7.64781 36.4782 7.79344 36.2 8.055C35.5559 8.68708 34.7366 9.11088 33.8485 9.27138C32.9604 9.43187 32.0446 9.32164 31.22 8.955C30.95 8.82 30.665 8.715 30.38 8.595C29.5402 8.28665 28.8146 7.72938 28.2999 6.99765C27.7853 6.26591 27.5062 5.39456 27.5 4.5C27.5 4.10218 27.342 3.72064 27.0607 3.43934C26.7794 3.15804 26.3978 3 26 3H23C22.6022 3 22.2206 3.15804 21.9393 3.43934C21.658 3.72064 21.5 4.10218 21.5 4.5C21.4913 5.40136 21.2121 6.27933 20.6986 7.02016C20.1851 7.76099 19.461 8.33054 18.62 8.655C18.3339 8.75443 18.0534 8.86961 17.78 9C16.9554 9.36664 16.0396 9.47687 15.1515 9.31638C14.2634 9.15588 13.4441 8.73208 12.8 8.1C12.5218 7.83844 12.1543 7.69281 11.7725 7.69281C11.3907 7.69281 11.0232 7.83844 10.745 8.1L8.555 10.245C8.29344 10.5232 8.14781 10.8907 8.14781 11.2725C8.14781 11.6543 8.29344 12.0218 8.555 12.3C9.19152 12.9378 9.62189 13.7521 9.79037 14.6373C9.95886 15.5225 9.8577 16.4379 9.5 17.265C9.365 17.55 9.26 17.835 9.155 18.12C8.83054 18.961 8.26099 19.6851 7.52016 20.1986C6.77933 20.7121 5.90136 20.9913 5 21C4.60218 21 4.22064 21.158 3.93934 21.4393C3.65804 21.7206 3.5 22.1022 3.5 22.5V25.5C3.5 25.8978 3.65804 26.2794 3.93934 26.5607C4.22064 26.842 4.60218 27 5 27C5.90136 27.0087 6.77933 27.2879 7.52016 27.8014C8.26099 28.3149 8.83054 29.039 9.155 29.88C9.25443 30.1661 9.36961 30.4466 9.5 30.72C9.86664 31.5446 9.97687 32.4604 9.81638 33.3485C9.65588 34.2366 9.23208 35.0559 8.6 35.7C8.33844 35.9782 8.19281 36.3457 8.19281 36.7275C8.19281 37.1093 8.33844 37.4768 8.6 37.755L10.79 39.945C11.0682 40.2066 11.4357 40.3522 11.8175 40.3522C12.1993 40.3522 12.5668 40.2066 12.845 39.945C13.4891 39.3129 14.3084 38.8891 15.1965 38.7286C16.0846 38.5681 17.0004 38.6784 17.825 39.045C18.095 39.18 18.38 39.285 18.665 39.405C19.4963 39.7206 20.2124 40.281 20.7186 41.0122C21.2247 41.7433 21.4972 42.6108 21.5 43.5C21.5 43.8978 21.658 44.2794 21.9393 44.5607C22.2206 44.842 22.6022 45 23 45H26C26.3978 45 26.7794 44.842 27.0607 44.5607C27.342 44.2794 27.5 43.8978 27.5 43.5C27.5087 42.5986 27.7879 41.7207 28.3014 40.9798C28.8149 40.239 29.539 39.6695 30.38 39.345C30.6661 39.2456 30.9466 39.1304 31.22 39C31.4002 38.9192 31.5946 38.8748 31.792 38.8691C31.9895 38.8635 32.1861 38.8968 32.3706 38.9671C32.5552 39.0375 32.7241 39.1435 32.8677 39.2791C33.0113 39.4147 33.1267 39.5773 33.2075 39.7575C33.2883 39.9377 33.3327 40.1321 33.3384 40.3295C33.344 40.527 33.3107 40.7236 33.2404 40.9081C33.17 41.0927 33.064 41.2616 32.9284 41.4052C32.7928 41.5488 32.6302 41.6642 32.45 41.745C32.12 41.895 31.79 42.03 31.46 42.15C31.1851 42.2559 30.9475 42.4404 30.7767 42.6805C30.606 42.9205 30.5098 43.2056 30.5 43.5C30.5 44.6935 30.0259 45.8381 29.182 46.682C28.3381 47.5259 27.1935 48 26 48Z" fill="black"/>
<path d="M24.5 37.5C21.83 37.5 19.2199 36.7082 16.9998 35.2248C14.7797 33.7414 13.0494 31.633 12.0276 29.1662C11.0058 26.6994 10.7385 23.985 11.2594 21.3663C11.7803 18.7475 13.0661 16.3421 14.9541 14.4541C16.8421 12.5661 19.2475 11.2803 21.8663 10.7594C24.485 10.2385 27.1994 10.5058 29.6662 11.5276C32.133 12.5494 34.2414 14.2797 35.7248 16.4998C37.2082 18.7199 38 21.33 38 24C38 27.5804 36.5777 31.0142 34.0459 33.5459C31.5142 36.0777 28.0804 37.5 24.5 37.5ZM24.5 13.5C22.4233 13.5 20.3932 14.1158 18.6665 15.2696C16.9398 16.4233 15.594 18.0632 14.7993 19.9818C14.0046 21.9005 13.7966 24.0117 14.2018 26.0485C14.6069 28.0853 15.6069 29.9562 17.0754 31.4246C18.5438 32.8931 20.4148 33.8931 22.4516 34.2983C24.4884 34.7034 26.5996 34.4955 28.5182 33.7007C30.4368 32.906 32.0767 31.5602 33.2304 29.8335C34.3842 28.1068 35 26.0767 35 24C35 21.2152 33.8938 18.5445 31.9246 16.5754C29.9555 14.6063 27.2848 13.5 24.5 13.5Z" fill="black"/>
<path d="M24.5 31.5C24.1022 31.5 23.7206 31.342 23.4393 31.0607C23.158 30.7794 23 30.3978 23 30V24C23 23.6022 23.158 23.2206 23.4393 22.9393C23.7206 22.658 24.1022 22.5 24.5 22.5C24.8978 22.5 25.2794 22.658 25.5607 22.9393C25.842 23.2206 26 23.6022 26 24V30C26 30.3978 25.842 30.7794 25.5607 31.0607C25.2794 31.342 24.8978 31.5 24.5 31.5Z" fill="black"/>
<path d="M24.5 19.5C24.2033 19.5 23.9133 19.412 23.6666 19.2472C23.42 19.0824 23.2277 18.8481 23.1142 18.574C23.0006 18.2999 22.9709 17.9983 23.0288 17.7074C23.0867 17.4164 23.2296 17.1491 23.4393 16.9393C23.6491 16.7296 23.9164 16.5867 24.2074 16.5288C24.4983 16.4709 24.7999 16.5006 25.074 16.6142C25.3481 16.7277 25.5824 16.92 25.7472 17.1666C25.912 17.4133 26 17.7033 26 18C26 18.3978 25.842 18.7794 25.5607 19.0607C25.2794 19.342 24.8978 19.5 24.5 19.5Z" fill="black"/>
</svg>
