<svg width="49" height="48" viewBox="0 0 49 48" fill="none" xmlns="http://www.w3.org/2000/svg">
<g clip-path="url(#clip0_5436_2748)">
<path d="M44 12H30.5C30.1022 12 29.7206 12.158 29.4393 12.4393C29.158 12.7206 29 13.1022 29 13.5C29 13.8978 29.158 14.2794 29.4393 14.5607C29.7206 14.842 30.1022 15 30.5 15H44C44.3978 15 44.7794 15.158 45.0607 15.4393C45.342 15.7206 45.5 16.1022 45.5 16.5V43.5C45.5 43.8978 45.342 44.2794 45.0607 44.5607C44.7794 44.842 44.3978 45 44 45H5C4.60218 45 4.22065 44.842 3.93934 44.5607C3.65804 44.2794 3.5 43.8978 3.5 43.5V16.5C3.5 16.1022 3.65804 15.7206 3.93934 15.4393C4.22065 15.158 4.60218 15 5 15H6.275C8.50409 19.1495 11.2291 23.0128 14.39 26.505C14.5306 26.6597 14.702 26.7833 14.8931 26.8678C15.0843 26.9524 15.291 26.9961 15.5 26.9961C15.709 26.9961 15.9157 26.9524 16.1069 26.8678C16.298 26.7833 16.4694 26.6597 16.61 26.505C17.57 25.5 26 15.885 26 10.5C26 7.71523 24.8938 5.04451 22.9246 3.07538C20.9555 1.10625 18.2848 0 15.5 0C8.735 0 3.95 6.39 5.195 12C4.58785 11.9737 3.98166 12.0706 3.41298 12.2849C2.84431 12.4992 2.32494 12.8265 1.8862 13.247C1.44746 13.6676 1.09845 14.1726 0.860204 14.7317C0.621962 15.2907 0.499431 15.8923 0.500002 16.5V43.5C0.500002 44.6935 0.974108 45.8381 1.81802 46.682C2.66194 47.5259 3.80653 48 5 48H44C45.1935 48 46.3381 47.5259 47.182 46.682C48.0259 45.8381 48.5 44.6935 48.5 43.5V16.5C48.5 15.3065 48.0259 14.1619 47.182 13.318C46.3381 12.4741 45.1935 12 44 12ZM15.5 3C17.4891 3 19.3968 3.79018 20.8033 5.1967C22.2098 6.60322 23 8.51088 23 10.5C23 13.365 18.77 19.32 15.5 23.22C12.23 19.335 8 13.365 8 10.5C8 8.51088 8.79018 6.60322 10.1967 5.1967C11.6032 3.79018 13.5109 3 15.5 3Z" fill="#BF1332"/>
<path d="M20 10.5C20 9.60999 19.7361 8.73996 19.2416 7.99994C18.7471 7.25991 18.0443 6.68314 17.2221 6.34254C16.3998 6.00195 15.495 5.91283 14.6221 6.08647C13.7492 6.2601 12.9474 6.68869 12.318 7.31802C11.6887 7.94736 11.2601 8.74918 11.0865 9.6221C10.9128 10.495 11.0019 11.3998 11.3425 12.2221C11.6831 13.0443 12.2599 13.7471 12.9999 14.2416C13.74 14.7361 14.61 15 15.5 15C16.6935 15 17.8381 14.5259 18.682 13.682C19.5259 12.8381 20 11.6935 20 10.5ZM14 10.5C14 10.2033 14.088 9.91332 14.2528 9.66665C14.4176 9.41997 14.6519 9.22771 14.926 9.11418C15.2001 9.00065 15.5017 8.97095 15.7926 9.02882C16.0836 9.0867 16.3509 9.22956 16.5607 9.43934C16.7704 9.64912 16.9133 9.9164 16.9712 10.2074C17.0291 10.4983 16.9994 10.7999 16.8858 11.074C16.7723 11.3481 16.58 11.5824 16.3334 11.7472C16.0867 11.912 15.7967 12 15.5 12C15.1022 12 14.7206 11.842 14.4393 11.5607C14.158 11.2794 14 10.8978 14 10.5Z" fill="#BF1332"/>
<path d="M37.5462 34.9981L36.4856 33.9374L37.5462 32.8768C37.8275 32.5955 37.9856 32.214 37.9856 31.8161C37.9856 31.4183 37.8275 31.0368 37.5462 30.7555C37.2649 30.4742 36.8834 30.3161 36.4856 30.3161C36.0878 30.3161 35.7062 30.4742 35.4249 30.7555L34.3643 31.8161L33.3036 30.7555C33.0223 30.4742 32.6408 30.3161 32.2429 30.3161C31.8451 30.3161 31.4636 30.4742 31.1823 30.7555C30.901 31.0368 30.7429 31.4183 30.7429 31.8161C30.7429 32.214 30.901 32.5955 31.1823 32.8768L32.2429 33.9374L31.1823 34.9981C30.901 35.2794 30.7429 35.6609 30.7429 36.0588C30.7429 36.4566 30.901 36.8381 31.1823 37.1194C31.4636 37.4007 31.8451 37.5588 32.2429 37.5588C32.6408 37.5588 33.0223 37.4007 33.3036 37.1194L34.3643 36.0588L35.4249 37.1194C35.7062 37.4007 36.0878 37.5588 36.4856 37.5588C36.8834 37.5588 37.2649 37.4007 37.5462 37.1194C37.8275 36.8381 37.9856 36.4566 37.9856 36.0588C37.9856 35.6609 37.8275 35.2794 37.5462 34.9981Z" fill="#BF1332"/>
</g>
<defs>
<clipPath id="clip0_5436_2748">
<rect width="48" height="48" fill="white" transform="translate(0.5)"/>
</clipPath>
</defs>
</svg>
