<svg width="40" height="29" viewBox="0 0 40 29" fill="none" xmlns="http://www.w3.org/2000/svg">
<path d="M24.1223 6.73175H15.855V21.5609H24.1223V6.73175Z" fill="#FF5F00"/>
<path d="M16.3802 14.1463C16.3788 12.7182 16.7031 11.3085 17.3283 10.0239C17.9535 8.73928 18.8633 7.61351 19.9889 6.73178C18.595 5.63823 16.9211 4.95816 15.1584 4.76932C13.3956 4.58047 11.6152 4.89046 10.0206 5.66385C8.42603 6.43725 7.08161 7.64286 6.14103 9.14286C5.20045 10.6429 4.70166 12.3767 4.70166 14.1463C4.70166 15.9159 5.20045 17.6498 6.14103 19.1498C7.08161 20.6498 8.42603 21.8554 10.0206 22.6288C11.6152 23.4022 13.3956 23.7122 15.1584 23.5233C16.9211 23.3345 18.595 22.6544 19.9889 21.5609C18.8633 20.6791 17.9535 19.5534 17.3283 18.2688C16.7031 16.9842 16.3789 15.5745 16.3802 14.1463Z" fill="#EB001B"/>
<path d="M35.2755 14.1463C35.2756 15.9159 34.7768 17.6498 33.8363 19.1498C32.8958 20.6498 31.5514 21.8554 29.9569 22.6288C28.3623 23.4022 26.5819 23.7122 24.8192 23.5233C23.0565 23.3345 21.3826 22.6544 19.9888 21.5609C21.1133 20.6783 22.0224 19.5523 22.6476 18.2679C23.2727 16.9835 23.5975 15.5743 23.5975 14.1463C23.5975 12.7184 23.2727 11.3091 22.6476 10.0247C22.0224 8.74035 21.1133 7.6144 19.9888 6.73178C21.3826 5.63822 23.0565 4.95816 24.8192 4.76931C26.5819 4.58047 28.3623 4.89047 29.9569 5.66388C31.5514 6.43728 32.8958 7.64289 33.8363 9.14289C34.7768 10.6429 35.2756 12.3768 35.2755 14.1463Z" fill="#F79E1B"/>
<path d="M34.3743 19.9903V19.6867H34.4969V19.6248H34.1846V19.6867H34.3073V19.9903H34.3743ZM34.9807 19.9903V19.6242H34.8849L34.7748 19.876L34.6647 19.6242H34.5689V19.9903H34.6365V19.7141L34.7397 19.9522H34.8098L34.9131 19.7135V19.9903H34.9807Z" fill="#F79E1B"/>
</svg>
