<?xml version="1.0" encoding="UTF-8"?>
<svg width="28px" height="31px" viewBox="0 0 28 31" version="1.1" xmlns="http://www.w3.org/2000/svg" xmlns:xlink="http://www.w3.org/1999/xlink">
    <!-- Generator: Sketch 53.2 (72643) - https://sketchapp.com -->
    <title>media contact</title>
    <desc>Created with Sketch.</desc>
    <g id="About-Us" stroke="none" stroke-width="1" fill="none" fill-rule="evenodd">
        <g id="TBS_Contact" transform="translate(-1422.000000, -634.000000)" fill="#58595B">
            <g id="MAIN-CONTENT" transform="translate(555.000000, 440.000000)">
                <g id="CONTACT" transform="translate(0.000000, 169.000000)">
                    <g id="contact-details">
                        <g id="media" transform="translate(839.000000, 0.000000)">
                            <path d="M43.8408,38.1204 L43.84068,38.12028 C41.67504,38.12028 39.92036,36.3656 39.92036,34.19996 C39.92036,32.614 40.87504,31.18432 42.34068,30.57808 C43.80488,29.97184 45.4908,30.3062 46.61268,31.42808 C47.732996,32.55008 48.06892,34.236 47.46112,35.70008 C46.85488,37.16572 45.42516,38.1204 43.8408,38.1204 Z M43.8408,31.8796 L43.84084,31.87956 C42.5596,31.87956 41.52052,32.91864 41.52052,34.19988 C41.52052,35.13896 42.08612,35.984264 42.95176,36.34364 C43.81896,36.703 44.81736,36.5046 45.48144,35.84052 C46.143936,35.17648 46.342376,34.1796 45.983,33.3124 C45.62516,32.44524 44.77832,31.8796 43.8408,31.8796 Z M50.7592,44.8796 L50.759016,50.1204 L36.919816,50.1204 L36.919816,44.8796 C36.895016,42.31728 38.660576,40.08448 41.159016,39.5204 L41.679336,39.400088 L41.999648,39.800088 C42.438728,40.371952 43.118408,40.706328 43.840288,40.706328 C44.560608,40.706328 45.240288,40.371968 45.679368,39.800088 L45.99968,39.400088 L46.52,39.5204 C49.00296,40.1124 50.756076,42.32804 50.7592,44.8796 Z M49.1592,48.52024 L49.159,44.8796 C49.14496,43.253 48.1262,41.8046 46.59964,41.24052 C45.86528,41.965528 44.87152,42.368656 43.84028,42.35928 C42.80748,42.36396 41.81688,41.9624 41.07936,41.24052 C39.53876,41.78428 38.510628,43.24524 38.52,44.8796 L38.5199365,48.52024 L49.1592,48.52024 Z M55.8,25.1592 L55.8,55.2408 L29.9592,55.2408 L29.9592,48.8 L28.19984,48.8 L28.19984,47.2 L29.9592,47.2 L29.9592,41 L28.19984,41 L28.19984,39.4 L29.9592,39.4 L29.9592,33.2 L28.19984,33.2 L28.19984,31.6 L29.9592,31.6 L29.9592,25.1592 L55.8,25.1592 Z M54.2,53.6796 L54.2,26.7592 L31.5592,26.7592 L31.5592,31.6 L33.07952,31.6 L33.07952,33.2 L31.5592,33.2 L31.5592,39.4 L33.47952,39.4 L33.47952,41 L31.5592,41 L31.5592,47.2 L33.47952,47.2 L33.47952,48.8 L31.5592,48.8 L31.5592,53.6796 L54.2,53.6796 Z" id="media-contact"></path>
                        </g>
                    </g>
                </g>
            </g>
        </g>
    </g>
</svg>