<svg width="20" height="16" viewBox="0 0 20 16" fill="none" xmlns="http://www.w3.org/2000/svg">
<path fill-rule="evenodd" clip-rule="evenodd" d="M0.5 1.39697C0.367392 1.39697 0.240214 1.34429 0.146446 1.25053C0.052678 1.15676 0 1.02958 0 0.896973C0 0.764364 0.052678 0.637187 0.146446 0.543419C0.240214 0.449651 0.367392 0.396973 0.5 0.396973H19.5C19.6326 0.396973 19.7598 0.449651 19.8536 0.543419C19.9473 0.637187 20 0.764364 20 0.896973C20 1.02958 19.9473 1.15676 19.8536 1.25053C19.7598 1.34429 19.6326 1.39697 19.5 1.39697H0.5ZM0.5 15.397C0.367392 15.397 0.240214 15.3443 0.146446 15.2505C0.052678 15.1568 0 15.0296 0 14.897C0 14.7644 0.052678 14.6372 0.146446 14.5434C0.240214 14.4497 0.367392 14.397 0.5 14.397H19.5C19.6326 14.397 19.7598 14.4497 19.8536 14.5434C19.9473 14.6372 20 14.7644 20 14.897C20 15.0296 19.9473 15.1568 19.8536 15.2505C19.7598 15.3443 19.6326 15.397 19.5 15.397H0.5ZM0.5 8.39697C0.367392 8.39697 0.240214 8.34429 0.146446 8.25053C0.052678 8.15676 0 8.02958 0 7.89697C0 7.76436 0.052678 7.63719 0.146446 7.54342C0.240214 7.44965 0.367392 7.39697 0.5 7.39697H19.5C19.6326 7.39697 19.7598 7.44965 19.8536 7.54342C19.9473 7.63719 20 7.76436 20 7.89697C20 8.02958 19.9473 8.15676 19.8536 8.25053C19.7598 8.34429 19.6326 8.39697 19.5 8.39697H0.5Z" fill="white"/>
</svg>
