<svg width="47" height="48" viewBox="0 0 47 48" fill="none" xmlns="http://www.w3.org/2000/svg">
<path d="M44.5 21.0001C43.75 21.0001 44.17 21.1951 37.525 15.4951C37.2226 15.2365 37.0354 14.8684 37.0044 14.4717C36.9735 14.0751 37.1014 13.6824 37.36 13.3801C37.6185 13.0777 37.9866 12.8905 38.3833 12.8595C38.7799 12.8286 39.1726 12.9565 39.475 13.2151L45.475 18.3601C45.708 18.5594 45.8744 18.8253 45.9517 19.122C46.0289 19.4188 46.0134 19.7321 45.9072 20.0197C45.8009 20.3074 45.6091 20.5556 45.3575 20.7308C45.1059 20.9061 44.8066 21.0001 44.5 21.0001Z" fill="black"/>
<path d="M2.49999 21.0001C2.19335 21.0001 1.89407 20.9061 1.64246 20.7308C1.39085 20.5556 1.19901 20.3074 1.09277 20.0197C0.986538 19.7321 0.971015 19.4188 1.04829 19.122C1.12557 18.8253 1.29195 18.5594 1.52499 18.3601L7.52499 13.2151C7.82734 12.9565 8.22003 12.8286 8.61667 12.8595C9.0133 12.8905 9.38141 13.0777 9.63999 13.3801C9.89858 13.6824 10.0265 14.0751 9.99552 14.4717C9.96458 14.8684 9.77734 15.2365 9.47499 15.4951C3.08499 21.0001 3.26499 21.0001 2.49999 21.0001Z" fill="black"/>
<path d="M38.5 25.5C38.1022 25.5 37.7206 25.342 37.4393 25.0607C37.158 24.7794 37 24.3978 37 24V4.5C37 4.10218 36.842 3.72064 36.5607 3.43934C36.2794 3.15804 35.8978 3 35.5 3H11.5C11.1022 3 10.7206 3.15804 10.4393 3.43934C10.158 3.72064 10 4.10218 10 4.5V24C10 24.3978 9.84196 24.7794 9.56066 25.0607C9.27936 25.342 8.89782 25.5 8.5 25.5C8.10218 25.5 7.72064 25.342 7.43934 25.0607C7.15804 24.7794 7 24.3978 7 24V4.5C7 3.30653 7.47411 2.16193 8.31802 1.31802C9.16193 0.474106 10.3065 0 11.5 0L35.5 0C36.6935 0 37.8381 0.474106 38.682 1.31802C39.5259 2.16193 40 3.30653 40 4.5V24C40 24.3978 39.842 24.7794 39.5607 25.0607C39.2794 25.342 38.8978 25.5 38.5 25.5Z" fill="black"/>
<path d="M46 19.5C46 19.2214 45.9224 18.9484 45.776 18.7114C45.6295 18.4744 45.42 18.2829 45.1708 18.1584C44.9216 18.0338 44.6427 17.981 44.3653 18.0061C44.0878 18.0311 43.8228 18.1329 43.6 18.3L28.6 29.61L26.5 27.795C25.6679 27.0233 24.5749 26.5945 23.44 26.5945C22.3051 26.5945 21.2121 27.0233 20.38 27.795L18.415 29.61L3.39998 18.3C3.17713 18.1329 2.91213 18.0311 2.63469 18.0061C2.35725 17.981 2.07832 18.0338 1.82916 18.1584C1.58 18.2829 1.37046 18.4744 1.224 18.7114C1.07755 18.9484 0.99998 19.2214 0.99998 19.5C0.99998 48.69 0.86498 46.71 1.28498 47.325C1.89998 48.24 1.88498 48 11.5 48C11.8978 48 12.2793 47.842 12.5606 47.5607C12.8419 47.2794 13 46.8978 13 46.5C13 46.1022 12.8419 45.7206 12.5606 45.4393C12.2793 45.158 11.8978 45 11.5 45H6.32498L22.48 30C22.7574 29.7428 23.1217 29.5998 23.5 29.5998C23.8783 29.5998 24.2426 29.7428 24.52 30L40.675 45H17.5C17.1022 45 16.7206 45.158 16.4393 45.4393C16.158 45.7206 16 46.1022 16 46.5C16 46.8978 16.158 47.2794 16.4393 47.5607C16.7206 47.842 17.1022 48 17.5 48C46.465 48 44.605 48 45.025 47.895C45.3734 47.7535 45.6604 47.4931 45.835 47.16C46.075 46.665 46 48.615 46 19.5ZM16.255 31.68L3.99998 43.065V22.5L16.255 31.68ZM30.745 31.68L43 22.5V43.065L30.745 31.68Z" fill="black"/>
<path d="M23.5 24C23.1022 24 22.7206 23.842 22.4393 23.5607C22.158 23.2794 22 22.8978 22 22.5V13.5C22 13.1022 22.158 12.7206 22.4393 12.4393C22.7206 12.158 23.1022 12 23.5 12C23.8978 12 24.2794 12.158 24.5607 12.4393C24.842 12.7206 25 13.1022 25 13.5V22.5C25 22.8978 24.842 23.2794 24.5607 23.5607C24.2794 23.842 23.8978 24 23.5 24Z" fill="black"/>
<path d="M23.5 9C23.2033 9 22.9133 8.91203 22.6666 8.74721C22.42 8.58238 22.2277 8.34812 22.1142 8.07403C22.0006 7.79994 21.9709 7.49834 22.0288 7.20737C22.0867 6.91639 22.2296 6.64912 22.4393 6.43934C22.6491 6.22956 22.9164 6.0867 23.2074 6.02882C23.4983 5.97094 23.7999 6.00065 24.074 6.11418C24.3481 6.22771 24.5824 6.41997 24.7472 6.66665C24.912 6.91332 25 7.20333 25 7.5C25 7.89783 24.842 8.27936 24.5607 8.56066C24.2794 8.84197 23.8978 9 23.5 9Z" fill="black"/>
</svg>
