<svg width="48" height="48" viewBox="0 0 48 48" fill="none" xmlns="http://www.w3.org/2000/svg">
<path d="M30.24 36.63C34.92 30.435 40.5 21.915 40.5 16.5C40.5 12.1239 38.7616 7.92709 35.6673 4.83274C32.5729 1.73839 28.3761 0 24 0C19.6239 0 15.4271 1.73839 12.3327 4.83274C9.23839 7.92709 7.5 12.1239 7.5 16.5C7.5 23.04 15.645 34.125 20.505 40.14C20.9269 40.6602 21.4596 41.0797 22.0642 41.3678C22.6689 41.6559 23.3302 41.8054 24 41.8054C24.6698 41.8054 25.3311 41.6559 25.9358 41.3678C26.5404 41.0797 27.0731 40.6602 27.495 40.14L28.155 39.315C32.655 39.96 34.5 41.445 34.5 42C34.5 42.87 30.825 45 24 45C17.175 45 13.5 42.87 13.5 42C13.5 41.865 13.68 41.505 14.34 41.055C14.5193 40.9523 14.6754 40.8137 14.7985 40.6478C14.9217 40.482 15.0093 40.2925 15.0558 40.0912C15.1023 39.8899 15.1067 39.6812 15.0688 39.4781C15.0309 39.275 14.9514 39.082 14.8354 38.911C14.7194 38.7401 14.5693 38.595 14.3946 38.4848C14.2198 38.3746 14.0242 38.3016 13.82 38.2706C13.6157 38.2395 13.4073 38.2509 13.2077 38.3042C13.0081 38.3574 12.8216 38.4513 12.66 38.58C12.0366 38.9166 11.5103 39.4081 11.132 40.0071C10.7537 40.6061 10.536 41.2924 10.5 42C10.5 49.965 37.5 49.995 37.5 42C37.5 39.54 34.77 37.575 30.24 36.63ZM22.845 38.25C15.105 28.68 10.5 20.55 10.5 16.5C10.5 12.9196 11.9223 9.4858 14.4541 6.95406C16.9858 4.42232 20.4196 3 24 3C27.5804 3 31.0142 4.42232 33.5459 6.95406C36.0777 9.4858 37.5 12.9196 37.5 16.5C37.5 20.55 32.895 28.68 25.155 38.25C25.0142 38.4199 24.8378 38.5566 24.6381 38.6504C24.4385 38.7443 24.2206 38.7929 24 38.7929C23.7794 38.7929 23.5615 38.7443 23.3619 38.6504C23.1622 38.5566 22.9858 38.4199 22.845 38.25Z" fill="black"/>
<path d="M32.43 15.33L24.93 9.33C24.6652 9.12074 24.3375 9.0069 24 9.0069C23.6625 9.0069 23.3348 9.12074 23.07 9.33L21 10.98V9C21 8.60218 20.8419 8.22064 20.5606 7.93934C20.2793 7.65804 19.8978 7.5 19.5 7.5C19.1021 7.5 18.7206 7.65804 18.4393 7.93934C18.158 8.22064 18 8.60218 18 9V13.38L15.57 15.33C15.2967 15.588 15.1302 15.9391 15.1034 16.3139C15.0766 16.6888 15.1915 17.06 15.4254 17.3542C15.6592 17.6483 15.9949 17.844 16.3662 17.9025C16.7374 17.961 17.117 17.878 17.43 17.67L18 17.22V22.5C18 22.8978 18.158 23.2794 18.4393 23.5607C18.7206 23.842 19.1021 24 19.5 24H28.5C28.8978 24 29.2793 23.842 29.5606 23.5607C29.8419 23.2794 30 22.8978 30 22.5V17.22L30.57 17.67C30.8339 17.8817 31.1616 17.998 31.5 18C31.8099 17.9982 32.1116 17.9005 32.3637 17.7202C32.6158 17.54 32.8059 17.2861 32.9079 16.9934C33.0098 16.7008 33.0186 16.3837 32.933 16.0858C32.8474 15.788 32.6717 15.5239 32.43 15.33ZM27 15V21H21V14.82L24 12.42C27.51 15.225 27 14.745 27 15Z" fill="black"/>
</svg>
