<svg width="49" height="49" viewBox="0 0 49 49" fill="none" xmlns="http://www.w3.org/2000/svg">
<g clip-path="url(#clip0_4481_6690)">
<path d="M25.42 16.07C25.05 16.38 24.81 16.81 24.75 17.31C24.66 18.31 25.39 19.21 26.39 19.31C30.67 19.71 34.75 21.57 37.88 24.56C38.21 24.84 38.68 25.01 39.15 25.03C39.17 25.03 39.2 25.03 39.22 25.03C39.66 25.03 40.07 24.82 40.31 24.48L40.39 24.38C40.73 24.06 40.91 23.61 40.9 23.12C40.89 22.64 40.69 22.2 40.34 21.88C36.63 18.38 31.8 16.17 26.75 15.65C26.27 15.61 25.78 15.75 25.41 16.06L25.42 16.07Z" fill="black"/>
<path d="M16.96 9.25995L17.23 9.18995C19.66 8.58995 22.13 8.29995 24.54 8.32995H24.65C32.5 8.32995 39.92 11.3499 45.57 16.8399C45.9 17.11 46.38 17.2899 46.86 17.3099H46.9C47.37 17.3099 47.84 17.12 48.18 16.78C48.84 16.07 48.8 14.9399 48.09 14.2699C39.64 6.13995 27.79 2.93995 16.42 5.71995C15.96 5.82995 15.56 6.11995 15.31 6.52995C15.06 6.93995 14.98 7.41995 15.1 7.88995C15.3 8.74995 16.08 9.31995 16.96 9.26995V9.25995Z" fill="black"/>
<path d="M24.63 35.88H24.54C23.36 35.92 22.34 36.76 22.07 37.91C21.8 39.05 22.33 40.25 23.36 40.83C23.75 41.05 24.19 41.16 24.62 41.16C25.31 41.16 26 40.88 26.51 40.36C27.33 39.5 27.48 38.19 26.88 37.17C26.4 36.36 25.55 35.88 24.62 35.88H24.63Z" fill="black"/>
<path d="M3.43 0.450003C2.73 -0.179997 1.66 -0.139997 1 0.530003C0.330002 1.19 0.300002 2.27 0.940002 3L7.26 9.35L6.52 9.8C4.53 11.02 2.63 12.51 0.900002 14.21C0.190002 14.9 0.160002 16.04 0.840002 16.75C1.16 17.08 1.64 17.26 2.15 17.26C2.62 17.29 3.05 17.12 3.33 16.81C5.24 15.03 7.31 13.49 9.5 12.25L9.95 11.99L15.3 17.37L14.43 17.79C12.28 18.82 10.31 20.18 8.58 21.84C8.01 22.34 7.82 23.16 8.11 23.86C8.39 24.56 9.07 25.01 9.82 24.99C10.28 25.03 10.66 24.88 10.89 24.59C12.87 22.71 15.14 21.27 17.65 20.33L18.06 20.18L23.29 25.43L22.05 25.67C19.67 26.14 17.46 27.26 15.68 28.9C14.97 29.56 14.91 30.7 15.56 31.44C15.88 31.8 16.32 32.01 16.87 32.04C17.36 32.04 17.82 31.89 18.22 31.59C20.23 29.84 22.92 28.98 25.6 29.24C25.7 29.24 26.04 29.24 26.35 29.11L26.77 28.95L45.52 47.81C45.85 48.15 46.27 48.33 46.73 48.33C46.74 48.33 46.76 48.33 46.77 48.33C47.29 48.31 47.72 48.13 48.03 47.81C48.39 47.46 48.58 47.02 48.58 46.54C48.58 46.06 48.39 45.62 48.05 45.29L3.43 0.450003Z" fill="black"/>
</g>
<defs>
<clipPath id="clip0_4481_6690">
<rect width="48.3" height="48.3" fill="white" transform="translate(0.349976)"/>
</clipPath>
</defs>
</svg>
