<svg width="14" height="17" viewBox="0 0 14 17" fill="none" xmlns="http://www.w3.org/2000/svg">
<path fill-rule="evenodd" clip-rule="evenodd" d="M12.5617 10.935C12.3412 10.7896 12.1602 10.5918 12.0347 10.3594C11.9092 10.127 11.8433 9.86712 11.8427 9.603V7.155C11.8386 6.15749 11.5429 5.18293 10.9922 4.35126C10.4414 3.51958 9.65949 2.86707 8.74268 2.474V2.04401C8.74268 1.49673 8.52528 0.971881 8.1383 0.5849C7.75131 0.197919 7.22646 -0.0195007 6.67918 -0.0195007C6.13191 -0.0195007 5.60705 0.197919 5.22007 0.5849C4.83308 0.971881 4.61568 1.49673 4.61568 2.04401V2.474C4.19283 2.65547 3.79629 2.89292 3.43668 3.17999C3.38404 3.22188 3.34025 3.27381 3.30784 3.33276C3.27543 3.39171 3.25505 3.45652 3.24789 3.52341C3.24073 3.5903 3.24692 3.65794 3.26611 3.72241C3.2853 3.78689 3.31711 3.8469 3.35968 3.89899C3.44646 4.00447 3.57126 4.07156 3.7071 4.08578C3.84295 4.10001 3.97894 4.06023 4.08568 3.97501C4.69085 3.49119 5.41973 3.18704 6.18931 3.0972C6.95888 3.00736 7.73821 3.13545 8.43856 3.46686C9.1389 3.79827 9.7321 4.31969 10.1506 4.97174C10.5691 5.62379 10.7961 6.38026 10.8057 7.155V9.60001C10.8058 10.0329 10.9135 10.4589 11.1191 10.8398C11.3248 11.2206 11.6218 11.5445 11.9837 11.782C12.1287 11.8806 12.2384 12.023 12.2966 12.1884C12.3548 12.3538 12.3585 12.5335 12.3072 12.7012C12.2559 12.8689 12.1523 13.0158 12.0114 13.1203C11.8706 13.2248 11.7 13.2815 11.5247 13.282H1.83868C1.66332 13.2815 1.49274 13.2248 1.35192 13.1203C1.2111 13.0158 1.10744 12.8689 1.05613 12.7012C1.00481 12.5335 1.00854 12.3538 1.06677 12.1884C1.12499 12.023 1.23465 11.8806 1.37968 11.782C1.74176 11.5446 2.0391 11.2209 2.24492 10.84C2.45073 10.4591 2.55856 10.033 2.55868 9.60001C2.55868 7.15101 2.44568 6.41699 2.98768 5.33499C3.01775 5.27484 3.0356 5.20933 3.0402 5.14224C3.04481 5.07515 3.03607 5.00782 3.0145 4.94412C2.99292 4.88043 2.95894 4.82166 2.91452 4.77118C2.8701 4.72069 2.81611 4.67949 2.75568 4.64999C2.63333 4.58949 2.49202 4.57983 2.36257 4.62311C2.23313 4.66638 2.12604 4.75909 2.06468 4.88101C1.39668 6.21401 1.52868 7.11201 1.52868 9.60001C1.52798 9.86422 1.46185 10.1241 1.33622 10.3566C1.21058 10.589 1.02934 10.7867 0.808681 10.932C0.478378 11.1516 0.227757 11.4718 0.0940907 11.8452C-0.039576 12.2187 -0.0491492 12.6252 0.0667937 13.0045C0.182737 13.3838 0.418002 13.7155 0.737605 13.9504C1.05721 14.1852 1.44408 14.3107 1.84068 14.308H4.15968C4.28325 14.8865 4.60159 15.4051 5.06151 15.7772C5.52144 16.1493 6.0951 16.3523 6.68668 16.3523C7.27826 16.3523 7.85192 16.1493 8.31185 15.7772C8.77178 15.4051 9.09011 14.8865 9.21368 14.308H11.5327C11.9282 14.309 12.3135 14.1827 12.6317 13.9478C12.9498 13.7129 13.1839 13.3818 13.2993 13.0035C13.4147 12.6252 13.4053 12.2198 13.2725 11.8473C13.1396 11.4748 12.8904 11.1549 12.5617 10.935ZM5.65268 2.15302V2.04401C5.65247 1.90387 5.68075 1.76516 5.73579 1.63629C5.79084 1.50742 5.8715 1.39108 5.97289 1.29434C6.07428 1.19761 6.19427 1.12249 6.32558 1.07355C6.45689 1.02461 6.59677 1.00289 6.73674 1.00967C6.87671 1.01646 7.01384 1.0516 7.1398 1.11301C7.26576 1.17442 7.37792 1.26079 7.46948 1.36688C7.56104 1.47297 7.63007 1.59658 7.67239 1.73016C7.71472 1.86375 7.72944 2.00456 7.71568 2.14401C7.03463 2.00591 6.3325 2.00897 5.65268 2.15302ZM6.68468 15.333C6.36694 15.3326 6.05703 15.2343 5.7972 15.0514C5.53737 14.8685 5.34024 14.61 5.23268 14.311H8.13268C8.0253 14.6095 7.82863 14.8677 7.56939 15.0506C7.31015 15.2334 7.00091 15.332 6.68368 15.333H6.68468Z" fill="black"/>
</svg>
