<svg width="42" height="42" viewBox="0 0 42 42" fill="none" xmlns="http://www.w3.org/2000/svg">
<g clip-path="url(#clip0_6519_7394)">
<path fill-rule="evenodd" clip-rule="evenodd" d="M27.2208 18.178C27.1944 18.1356 27.1605 18.0984 27.1208 18.0681L27.0008 17.975C26.9616 17.9449 26.9172 17.9223 26.8698 17.9081C26.614 17.8464 26.3501 17.8251 26.0878 17.845C26.2235 17.6928 26.3491 17.5318 26.4638 17.363C27.2787 16.3101 27.6518 14.9813 27.5038 13.6581V8.72205C27.5064 8.67271 27.4989 8.62338 27.4818 8.57703C27.4647 8.53067 27.4383 8.48829 27.4043 8.45245C27.3703 8.41661 27.3294 8.38803 27.284 8.36853C27.2386 8.34903 27.1897 8.33899 27.1403 8.33899C27.0909 8.33899 27.042 8.34903 26.9966 8.36853C26.9512 8.38803 26.9103 8.41661 26.8762 8.45245C26.8422 8.48829 26.8159 8.53067 26.7988 8.57703C26.7817 8.62338 26.7742 8.67271 26.7768 8.72205V12.4841C26.1794 12.4066 25.5722 12.4653 25.0007 12.6558C24.4292 12.8463 23.9082 13.1636 23.4768 13.584C23.6413 12.9958 23.7122 12.3854 23.6868 11.7751C23.6868 11.6981 23.6718 11.6301 23.6658 11.5551V4.10907C23.6658 4.01253 23.6274 3.91995 23.5592 3.85168C23.4909 3.78342 23.3983 3.74506 23.3018 3.74506C23.2052 3.74506 23.1127 3.78342 23.0444 3.85168C22.9761 3.91995 22.9378 4.01253 22.9378 4.10907V9.06409C22.6317 8.51523 22.1824 8.05965 21.6378 7.74603V0.383057C21.6404 0.333717 21.6329 0.284391 21.6158 0.238037C21.5987 0.191683 21.5723 0.149243 21.5383 0.113403C21.5043 0.0775636 21.4634 0.0490449 21.418 0.029541C21.3726 0.0100371 21.3237 0 21.2743 0C21.2249 0 21.176 0.0100371 21.1306 0.029541C21.0852 0.0490449 21.0442 0.0775636 21.0102 0.113403C20.9762 0.149243 20.9499 0.191683 20.9328 0.238037C20.9157 0.284391 20.9082 0.333717 20.9108 0.383057V7.74603C20.3629 8.06225 19.9114 8.52172 19.6048 9.07507V4.10907C19.6074 4.05973 19.5999 4.01034 19.5828 3.96399C19.5657 3.91764 19.5393 3.87526 19.5053 3.83942C19.4713 3.80358 19.4304 3.77506 19.385 3.75555C19.3396 3.73605 19.2907 3.72601 19.2413 3.72601C19.1919 3.72601 19.143 3.73605 19.0976 3.75555C19.0522 3.77506 19.0112 3.80358 18.9772 3.83942C18.9432 3.87526 18.9169 3.91764 18.8998 3.96399C18.8827 4.01034 18.8752 4.05973 18.8778 4.10907V11.6151C18.8778 11.6701 18.8668 11.7151 18.8628 11.7751C18.8375 12.3853 18.908 12.9957 19.0718 13.584C18.6378 13.1582 18.1113 12.8385 17.5332 12.6499C16.9552 12.4613 16.3414 12.409 15.7398 12.4971V8.72205C15.7398 8.62551 15.7014 8.53292 15.6332 8.46466C15.5649 8.3964 15.4723 8.35803 15.3758 8.35803C15.2793 8.35803 15.1867 8.3964 15.1184 8.46466C15.0501 8.53292 15.0118 8.62551 15.0118 8.72205V14.0121C14.984 15.2198 15.3638 16.4016 16.0898 17.3671C16.2051 17.5356 16.331 17.6966 16.4668 17.8491C16.2044 17.829 15.9405 17.8503 15.6848 17.912C15.6373 17.9261 15.5929 17.9488 15.5538 17.9791L15.4338 18.0721C15.3939 18.1022 15.3599 18.1395 15.3338 18.1821C15.2888 18.2581 14.2528 20.0591 16.0878 22.7731C16.2031 22.9419 16.329 23.1032 16.4648 23.256C16.2024 23.2354 15.9384 23.2567 15.6828 23.319C15.635 23.3322 15.5904 23.355 15.5518 23.386L15.4318 23.4781C15.3919 23.5082 15.358 23.5455 15.3318 23.5881C15.2868 23.6641 14.2508 25.4651 16.0858 28.1801C17.3518 30.0521 20.1558 31.041 20.8748 31.269V41.136C20.8662 41.193 20.8699 41.2511 20.8859 41.3065C20.9018 41.3618 20.9295 41.4131 20.967 41.4567C21.0046 41.5004 21.0511 41.5354 21.1035 41.5594C21.1558 41.5835 21.2127 41.5959 21.2703 41.5959C21.3279 41.5959 21.3848 41.5835 21.4371 41.5594C21.4894 41.5354 21.536 41.5004 21.5735 41.4567C21.6111 41.4131 21.6388 41.3618 21.6547 41.3065C21.6706 41.2511 21.6744 41.193 21.6658 41.136V31.269C22.3848 31.041 25.1888 30.0521 26.4538 28.1801C28.2898 25.4651 27.2538 23.6641 27.2088 23.5881C27.1824 23.5456 27.1485 23.5084 27.1088 23.4781L26.9888 23.386C26.95 23.3552 26.9055 23.3324 26.8578 23.319C26.6021 23.2567 26.3381 23.2355 26.0758 23.256C26.2115 23.1034 26.3371 22.9421 26.4518 22.7731C28.2878 20.0591 27.2518 18.2581 27.2068 18.1821L27.2208 18.178ZM23.2298 14.9301C23.5782 14.443 24.0292 14.0384 24.551 13.7446C25.0728 13.4509 25.6527 13.2752 26.2498 13.23C26.3543 13.2294 26.4586 13.2375 26.5618 13.254C26.7058 13.573 27.1568 14.91 25.7978 16.92C24.7091 18.1859 23.2846 19.1181 21.6888 19.6091C21.7658 18.6391 22.0688 16.2701 23.2298 14.9301ZM22.3148 20.23C22.0539 20.6163 21.8356 21.0298 21.6638 21.4631V20.4631C21.8068 20.4171 22.0338 20.3411 22.3148 20.2341V20.23ZM15.9738 13.2601C16.3078 13.2031 17.7158 13.1 19.3068 14.936C20.4678 16.276 20.7698 18.6451 20.8468 19.6151C19.2507 19.1252 17.8263 18.1928 16.7388 16.9261C15.3768 14.9111 15.8328 13.5731 15.9738 13.2601V13.2601ZM15.9738 18.6671C16.3178 18.6081 17.7188 18.51 19.3068 20.342C20.4678 21.682 20.7698 24.0511 20.8468 25.0211C19.2541 24.5266 17.8342 23.5908 16.7518 22.3221C15.3898 20.3081 15.8458 18.97 15.9868 18.657L15.9738 18.6671ZM16.7518 27.7281C15.3898 25.7141 15.8458 24.376 15.9868 24.063C16.3208 24.006 17.7288 23.9021 19.3198 25.7391C20.4808 27.0781 20.7828 29.4471 20.8598 30.4171C19.2634 29.928 17.8387 28.9955 16.7518 27.7281V27.7281ZM20.8858 26.8641C20.7138 26.4303 20.4952 26.0165 20.2338 25.6301C20.5158 25.7381 20.7418 25.8141 20.8858 25.8591V26.8591V26.8641ZM20.8858 21.457C20.7136 21.0237 20.495 20.6103 20.2338 20.2241C20.5158 20.3311 20.7418 20.4071 20.8858 20.4531V21.4531V21.457ZM21.2808 16.616L20.8858 15.816C20.1274 14.6161 19.704 13.2349 19.6598 11.816C19.8048 9.38504 20.9788 8.60503 21.2808 8.44403C21.5888 8.60803 22.7578 9.39004 22.9018 11.816C22.8578 13.2348 22.4348 14.616 21.6768 15.816L21.2808 16.616ZM21.6808 25.8591C21.8238 25.8141 22.0508 25.7381 22.3318 25.6301C22.0706 26.0166 21.8524 26.4303 21.6808 26.8641V25.8641V25.8591ZM26.2668 24.0391C26.3713 24.038 26.4757 24.046 26.5788 24.063C26.7228 24.382 27.1738 25.7181 25.8148 27.7281C24.7262 28.9966 23.3005 29.9306 21.7028 30.4221C21.7798 29.4521 22.0828 27.0831 23.2438 25.7441C23.5922 25.2571 24.0432 24.8524 24.565 24.5587C25.0868 24.2649 25.6667 24.0893 26.2638 24.0441L26.2668 24.0391ZM25.8118 22.3221C24.7234 23.5883 23.2988 24.5205 21.7028 25.011C21.7798 24.041 22.0828 21.672 23.2438 20.332C23.5925 19.8454 24.0436 19.441 24.5653 19.1473C25.0871 18.8536 25.6668 18.6778 26.2638 18.6321C26.3683 18.6315 26.4726 18.6395 26.5758 18.6561C26.7198 18.9761 27.1708 20.3121 25.8118 22.3221Z" fill="black"/>
</g>
<defs>
<clipPath id="clip0_6519_7394">
<rect width="42" height="42" fill="white"/>
</clipPath>
</defs>
</svg>
