<svg width="15" height="14" viewBox="0 0 15 14" fill="none" xmlns="http://www.w3.org/2000/svg">
<path d="M7.5 3.5C7.68565 3.5 7.8637 3.57375 7.99497 3.70502C8.12625 3.8363 8.2 4.01435 8.2 4.2L8.2 7C8.2 7.18565 8.12625 7.3637 7.99497 7.49497C7.8637 7.62625 7.68565 7.7 7.5 7.7C7.31435 7.7 7.1363 7.62625 7.00502 7.49497C6.87375 7.3637 6.8 7.18565 6.8 7L6.8 4.2C6.8 4.01435 6.87375 3.8363 7.00502 3.70502C7.1363 3.57375 7.31435 3.5 7.5 3.5ZM6.856 9.534C6.87132 9.48939 6.8925 9.44702 6.919 9.408L7.003 9.303C7.10143 9.20587 7.22643 9.14007 7.36223 9.11391C7.49802 9.08775 7.63852 9.10239 7.766 9.156C7.85083 9.19145 7.92896 9.24117 7.997 9.303C8.06187 9.36841 8.1132 9.44598 8.14804 9.53126C8.18287 9.61655 8.20053 9.70787 8.2 9.8C8.19889 9.89147 8.17987 9.98184 8.144 10.066C8.11256 10.1529 8.0624 10.2318 7.99708 10.2971C7.93175 10.3624 7.85286 10.4126 7.766 10.444C7.68221 10.481 7.59161 10.5002 7.5 10.5002C7.40839 10.5002 7.31779 10.481 7.234 10.444C7.14713 10.4126 7.06824 10.3624 7.00292 10.2971C6.93759 10.2318 6.88744 10.1529 6.856 10.066C6.82013 9.98184 6.8011 9.89147 6.8 9.8C6.79656 9.75339 6.79656 9.7066 6.8 9.66C6.81205 9.61536 6.83094 9.57286 6.856 9.534ZM7.5 -6.1196e-07C8.88447 -4.90926e-07 10.2378 0.410542 11.389 1.17971C12.5401 1.94888 13.4373 3.04213 13.9672 4.32122C14.497 5.6003 14.6356 7.00776 14.3655 8.36563C14.0954 9.7235 13.4287 10.9708 12.4497 11.9497C11.4708 12.9287 10.2235 13.5954 8.86563 13.8655C7.50776 14.1356 6.1003 13.997 4.82121 13.4672C3.54213 12.9373 2.44888 12.0401 1.67971 10.889C0.910542 9.73785 0.499999 8.38447 0.499999 7C0.499999 6.08074 0.681058 5.17049 1.03284 4.32121C1.38462 3.47194 1.90024 2.70026 2.55025 2.05025C3.20026 1.40024 3.97194 0.884625 4.82121 0.532842C5.67049 0.18106 6.58074 -6.92323e-07 7.5 -6.1196e-07ZM7.5 12.6C8.60757 12.6 9.69027 12.2716 10.6112 11.6562C11.5321 11.0409 12.2499 10.1663 12.6737 9.14303C13.0976 8.11976 13.2085 6.99379 12.9924 5.90749C12.7763 4.8212 12.243 3.82338 11.4598 3.0402C10.6766 2.25703 9.6788 1.72368 8.5925 1.5076C7.50621 1.29152 6.38024 1.40242 5.35697 1.82627C4.3337 2.25012 3.45911 2.96789 2.84377 3.88881C2.22843 4.80972 1.9 5.89242 1.9 7C1.9 8.48521 2.49 9.90959 3.5402 10.9598C4.5904 12.01 6.01478 12.6 7.5 12.6Z" fill="#D06F1A"/>
</svg>
