<svg width="7" height="4" viewBox="0 0 7 4" fill="none" xmlns="http://www.w3.org/2000/svg">
<path fill-rule="evenodd" clip-rule="evenodd" d="M0.0119704 0.575012C0.0112158 0.725491 0.067695 0.870634 0.169967 0.981018L2.74897 3.72699C2.79658 3.7794 2.85463 3.82126 2.91938 3.84991C2.98413 3.87857 3.05416 3.89343 3.12497 3.89343C3.19578 3.89343 3.26581 3.87857 3.33056 3.84991C3.39531 3.82126 3.45335 3.7794 3.50097 3.72699L6.07997 0.981018C6.18088 0.870469 6.23682 0.726155 6.23682 0.576477C6.23682 0.426799 6.18088 0.282546 6.07997 0.171997C6.03234 0.119261 5.97418 0.0771323 5.90924 0.0482788C5.8443 0.0194253 5.77403 0.0045166 5.70297 0.0045166C5.63191 0.0045166 5.56164 0.0194253 5.4967 0.0482788C5.43177 0.0771323 5.3736 0.119261 5.32597 0.171997L3.12597 2.51801L0.925972 0.171997C0.878336 0.119098 0.820114 0.0768039 0.755081 0.0478516C0.690048 0.0188992 0.619656 0.00396729 0.548469 0.00396729C0.477283 0.00396729 0.40689 0.0188992 0.341858 0.0478516C0.276825 0.0768039 0.21861 0.119098 0.170975 0.171997C0.0688738 0.281362 0.0120482 0.425396 0.0119704 0.575012Z" fill="black"/>
</svg>
