<svg width="16" height="14" viewBox="0 0 16 14" fill="none" xmlns="http://www.w3.org/2000/svg">
<path fill-rule="evenodd" clip-rule="evenodd" d="M2.70724 2.39041C2.66141 2.39114 2.61774 2.41003 2.58582 2.44293C2.5539 2.47582 2.53633 2.52003 2.53697 2.56586C2.54177 3.03564 2.36027 3.48821 2.0322 3.8245C1.70413 4.16079 1.2562 4.35342 0.786439 4.36025C0.740537 4.36099 0.696797 4.37985 0.664749 4.41272C0.6327 4.44559 0.614964 4.4898 0.615391 4.5357V11.1997C0.614965 11.2456 0.632714 11.2897 0.664773 11.3225C0.696832 11.3553 0.740573 11.3741 0.786439 11.3747C1.2562 11.3816 1.70413 11.5742 2.0322 11.9105C2.36027 12.2468 2.54177 12.6993 2.53697 13.1691C2.53644 13.2149 2.55406 13.259 2.58597 13.2918C2.61788 13.3246 2.66148 13.3435 2.70724 13.3442H13.1219C13.1677 13.3435 13.2113 13.3246 13.2433 13.2918C13.2753 13.259 13.293 13.2149 13.2926 13.1691C13.2876 12.6993 13.4689 12.2467 13.797 11.9104C14.125 11.5741 14.5729 11.3815 15.0427 11.3747C15.0885 11.374 15.1322 11.3552 15.1643 11.3224C15.1963 11.2896 15.2141 11.2455 15.2138 11.1997V4.53731C15.2141 4.49144 15.1963 4.44727 15.1643 4.41443C15.1323 4.38158 15.0886 4.3627 15.0427 4.36186C14.573 4.35503 14.1251 4.16236 13.7971 3.82606C13.4691 3.48975 13.2877 3.03721 13.2926 2.56747C13.293 2.52159 13.2753 2.47738 13.2434 2.44446C13.2114 2.41154 13.1678 2.39254 13.1219 2.3916H11.6653V1.63836H15.6628C15.6864 1.6386 15.7099 1.63368 15.7315 1.62398C15.7531 1.61427 15.7724 1.60001 15.788 1.58214C15.922 1.43617 15.9964 1.24521 15.9964 1.04702C15.9964 0.848833 15.922 0.657847 15.788 0.511877C15.7726 0.493703 15.7534 0.479204 15.7318 0.469407C15.7101 0.45961 15.6865 0.454776 15.6628 0.455267H11.6653V0.178933C11.6653 0.133775 11.6473 0.0904643 11.6154 0.0585329C11.5834 0.0266015 11.5401 0.00866433 11.495 0.00866433C11.4498 0.00866433 11.4065 0.0266015 11.3746 0.0585329C11.3427 0.0904643 11.3247 0.133775 11.3247 0.178933V0.455267H4.50602V0.178933C4.50713 0.155853 4.50357 0.132782 4.4955 0.111127C4.48744 0.0894731 4.47506 0.0696885 4.45912 0.0529595C4.44318 0.0362305 4.42401 0.0228995 4.40277 0.0137996C4.38154 0.00469977 4.35866 0 4.33555 0C4.31245 0 4.28957 0.00469977 4.26833 0.0137996C4.24709 0.0228995 4.22793 0.0362305 4.21199 0.0529595C4.19605 0.0696885 4.18367 0.0894731 4.1756 0.111127C4.16754 0.132782 4.16397 0.155853 4.16509 0.178933V0.455267H2.28656C2.24163 0.457413 2.19924 0.476765 2.1682 0.509321C2.13717 0.541878 2.11984 0.58513 2.11984 0.630111C2.11984 0.675092 2.13717 0.718344 2.1682 0.750901C2.19924 0.783457 2.24163 0.802833 2.28656 0.80498H4.16509V1.28865H0.337037V0.80498H1.18042C1.22535 0.802833 1.26772 0.783457 1.29875 0.750901C1.32979 0.718344 1.34711 0.675092 1.34711 0.630111C1.34711 0.58513 1.32979 0.541878 1.29875 0.509321C1.26772 0.476765 1.22535 0.457413 1.18042 0.455267H0.166379C0.143723 0.455527 0.121347 0.46024 0.100521 0.469164C0.079694 0.478087 0.0608219 0.491029 0.0450055 0.507253C0.0291892 0.523477 0.0167433 0.54267 0.0083525 0.563717C-3.82888e-05 0.584764 -0.0042057 0.607261 -0.00388952 0.629916V1.46371C-0.0042057 1.48637 -3.82888e-05 1.50886 0.0083525 1.52991C0.0167433 1.55096 0.0291892 1.57013 0.0450055 1.58635C0.0608219 1.60258 0.079694 1.61554 0.100521 1.62446C0.121347 1.63339 0.143723 1.6381 0.166379 1.63836H4.16348V2.3916H2.70724V2.39041ZM12.9576 12.9973H2.87152L2.86554 12.9403C2.82025 12.4592 2.61164 12.0081 2.27437 11.662C1.9371 11.316 1.49151 11.0958 1.01174 11.0382L0.956318 11.0318V4.70558L1.01174 4.6996C1.49151 4.64181 1.93707 4.42155 2.27432 4.07545C2.61157 3.72935 2.8202 3.27826 2.86554 2.79714L2.87152 2.74051H4.16348V3.12412C4.16237 3.1472 4.16596 3.17028 4.17402 3.19193C4.18208 3.21358 4.19447 3.23337 4.21041 3.2501C4.22635 3.26683 4.24551 3.28013 4.26675 3.28923C4.28799 3.29833 4.31086 3.30303 4.33397 3.30303C4.35708 3.30303 4.37993 3.29833 4.40117 3.28923C4.42241 3.28013 4.44157 3.26683 4.45751 3.2501C4.47345 3.23337 4.48583 3.21358 4.4939 3.19193C4.50196 3.17028 4.50555 3.1472 4.50443 3.12412V2.74051H11.3231V3.12412C11.3231 3.16928 11.3411 3.21259 11.373 3.24452C11.4049 3.27646 11.4482 3.29439 11.4934 3.29439C11.5385 3.29439 11.5819 3.27646 11.6138 3.24452C11.6457 3.21259 11.6637 3.16928 11.6637 3.12412V2.74051H12.956L12.962 2.79714C13.0073 3.27826 13.216 3.72935 13.5532 4.07545C13.8905 4.42155 14.336 4.64181 14.8158 4.6996L14.8712 4.70558V11.0326L14.8158 11.039C14.3359 11.0963 13.8901 11.3163 13.5528 11.6624C13.2154 12.0085 13.0069 12.4598 12.962 12.9411L12.9576 12.9973ZM11.3227 2.39041H4.50402V1.63717H11.3227V2.39041ZM15.5774 1.28746H11.6633V0.803763H15.5774L15.5954 0.834867C15.6326 0.898786 15.6522 0.971442 15.6522 1.04541C15.6522 1.11939 15.6326 1.19204 15.5954 1.25596L15.5774 1.28746ZM11.3227 1.28746H4.50402V0.803763H11.3227V1.28746ZM3.21605 8.5679L2.63267 8.69431L2.63506 7.08375L3.21844 6.95734L3.21605 8.5679ZM4.86649 8.21103L4.36846 8.31829L3.89233 7.62206V8.42197L3.47126 8.51329L3.47564 6.90231L3.97328 6.79466L4.44899 7.46057V6.69098L4.87009 6.59966L4.86649 8.21103ZM5.70827 7.53792L5.12131 7.66472L5.09497 7.33973L5.67677 7.21415L5.70827 7.53792ZM6.92288 6.70055C6.80516 6.60593 6.65602 6.55934 6.50538 6.57014C6.49396 6.57114 6.48286 6.57462 6.47289 6.58029C6.46292 6.58596 6.4543 6.59371 6.44761 6.60302C6.44091 6.61233 6.43628 6.62297 6.43407 6.63422C6.43186 6.64548 6.43212 6.6571 6.4348 6.66825C6.47468 6.84609 7.07758 6.74799 7.17368 7.19181C7.18326 7.27513 7.17578 7.35952 7.1517 7.43986C7.12762 7.5202 7.08745 7.59479 7.03362 7.6591C6.97979 7.72341 6.91344 7.77611 6.8386 7.81396C6.76375 7.85181 6.68199 7.87402 6.59828 7.87926C6.46511 7.90781 6.3272 7.90578 6.19493 7.87332C6.06266 7.84086 5.9395 7.77881 5.83468 7.69186L6.05997 7.37283C6.1189 7.42588 6.18776 7.46673 6.26256 7.49302C6.33737 7.5193 6.41663 7.5305 6.49579 7.52597C6.50938 7.52557 6.52271 7.52205 6.53471 7.51567C6.54671 7.5093 6.55707 7.50025 6.56501 7.48922C6.57295 7.47819 6.57827 7.46548 6.58051 7.45208C6.58276 7.43867 6.58186 7.42493 6.57794 7.41192C6.54284 7.24883 5.96945 7.31581 5.88372 6.91586C5.87424 6.834 5.88102 6.75108 5.9037 6.67185C5.92638 6.59263 5.96451 6.51869 6.01587 6.45424C6.06723 6.3898 6.13081 6.33614 6.20298 6.29636C6.27515 6.25658 6.35447 6.23147 6.43639 6.22245C6.55952 6.19642 6.68682 6.19719 6.80963 6.22471C6.93245 6.25223 7.04792 6.30585 7.14817 6.38194L6.92288 6.70055ZM8.59047 6.28305L8.20405 6.36638L8.20167 7.49087L7.61629 7.61729L7.6187 6.4928L7.23389 6.57654V6.09005L8.58967 5.79617V6.28305H8.59047ZM9.46294 7.2592C9.37609 7.27996 9.28585 7.28219 9.19809 7.26572C9.11033 7.24925 9.02703 7.21446 8.95362 7.16362C8.88021 7.11279 8.81832 7.04705 8.77203 6.9707C8.72574 6.89434 8.69609 6.80908 8.68497 6.72048C8.62233 6.4883 8.65338 6.2408 8.77145 6.0313C8.88951 5.82179 9.08512 5.66704 9.31618 5.60037C9.40288 5.57961 9.493 5.57735 9.58064 5.59373C9.66827 5.6101 9.75149 5.64476 9.82484 5.69543C9.8982 5.74611 9.96005 5.81166 10.0064 5.88783C10.0527 5.96399 10.0825 6.04907 10.0938 6.13751C10.1569 6.36986 10.1261 6.6177 10.0081 6.82757C9.89009 7.03743 9.69428 7.19246 9.46294 7.2592ZM9.39075 5.98318C9.24122 6.01548 9.22049 6.54981 9.26595 6.75915C9.28947 6.8704 9.32974 6.88757 9.38557 6.87561C9.53709 6.84291 9.55744 6.30818 9.51278 6.10122C9.48886 5.99037 9.44858 5.97044 9.39036 5.9816L9.39075 5.98318ZM11.3399 6.0127C11.3769 6.0068 11.4147 6.00868 11.4509 6.01823C11.4871 6.02778 11.521 6.04479 11.5503 6.06817C11.5795 6.09156 11.6036 6.12081 11.6209 6.15404C11.6383 6.18726 11.6485 6.22373 11.6509 6.26112C11.6661 6.3325 11.668 6.47406 11.6816 6.53707C11.6847 6.56101 11.695 6.58346 11.711 6.60147C11.7271 6.61947 11.7483 6.63219 11.7717 6.63795V6.69736C11.6778 6.76127 11.5701 6.80223 11.4575 6.81698C11.2426 6.86363 11.1329 6.83292 11.0962 6.66345C11.0847 6.60883 11.0799 6.42779 11.0683 6.37356C11.069 6.35815 11.0661 6.3428 11.0598 6.32871C11.0535 6.31462 11.0441 6.30219 11.0322 6.2924C11.0202 6.28261 11.0062 6.27572 10.9911 6.27229C10.9761 6.26887 10.9605 6.26901 10.9455 6.27268L10.8582 6.29223V6.91667L10.2748 7.04267L10.2792 5.43171L11.1668 5.23951C11.2149 5.22118 11.2665 5.21363 11.3178 5.21741C11.3692 5.22119 11.4191 5.23619 11.464 5.26137C11.5089 5.28654 11.5478 5.32129 11.5778 5.36312C11.6078 5.40496 11.6283 5.45287 11.6377 5.50348C11.6608 5.61023 11.6432 5.72173 11.5884 5.8162C11.5336 5.91067 11.4456 5.98131 11.3415 6.01429L11.3399 6.0127ZM10.9694 5.69529L10.8602 5.71882V6.0434L10.9714 6.01908C10.9958 6.01103 11.0184 5.99821 11.0378 5.98136C11.0572 5.9645 11.0731 5.94395 11.0845 5.9209C11.0959 5.89786 11.1026 5.87277 11.1042 5.84711C11.1058 5.82145 11.1023 5.79573 11.0938 5.77144C11.0927 5.75736 11.0882 5.74374 11.0808 5.7317C11.0734 5.71965 11.0633 5.70952 11.0513 5.7021C11.0393 5.69469 11.0256 5.69022 11.0116 5.68903C10.9975 5.68785 10.9833 5.68999 10.9702 5.69529H10.9694ZM13.1307 5.28697L12.4432 5.4357V5.59519L12.8862 5.4991V5.84959L12.4432 5.9457V6.10521L13.1303 5.95646V6.4274L11.8578 6.70254L11.8602 5.09197L13.1331 4.81644L13.1307 5.28697ZM3.29381 10.385L2.99076 10.4504L2.98638 11.1562L2.19125 11.3281L2.19485 9.13493L3.32292 8.89089C3.39669 8.8677 3.47458 8.86069 3.55131 8.8703C3.62803 8.87992 3.70179 8.90595 3.76755 8.94663C3.83331 8.9873 3.88953 9.04166 3.93239 9.10602C3.97526 9.17037 4.00375 9.2432 4.01595 9.31956C4.04088 9.43722 4.04185 9.55871 4.01877 9.67674C3.99569 9.79478 3.94903 9.90694 3.88162 10.0065C3.81422 10.1062 3.72744 10.1911 3.62644 10.2564C3.52544 10.3218 3.41231 10.366 3.29381 10.3866V10.385ZM3.13829 9.49501L2.98915 9.52692V9.96914L3.13829 9.93723C3.17187 9.92648 3.20296 9.9091 3.22973 9.88615C3.2565 9.86319 3.2784 9.83511 3.29415 9.80357C3.30991 9.77202 3.31919 9.73766 3.32146 9.70247C3.32373 9.66728 3.31894 9.632 3.30737 9.59869C3.30591 9.57951 3.29992 9.56095 3.28992 9.54451C3.27992 9.52808 3.26618 9.51425 3.24981 9.50414C3.23344 9.49403 3.21493 9.48793 3.19576 9.48635C3.17658 9.48476 3.15729 9.48773 3.13949 9.49501H3.13829ZM4.92551 10.7379L4.13038 10.9102L4.13399 8.71705L4.92869 8.54478L4.92551 10.7379ZM7.01259 8.99377L6.35663 9.13612C6.35975 9.08789 6.35626 9.03947 6.34626 8.99219C6.34733 8.96486 6.34257 8.93761 6.33229 8.91226C6.32201 8.88692 6.30644 8.86405 6.28663 8.84519C6.26683 8.82632 6.24326 8.8119 6.21744 8.80286C6.19163 8.79383 6.16418 8.79041 6.13693 8.79281C5.91084 8.84146 5.89448 9.52571 5.95549 9.81082C5.98819 9.96195 6.06316 9.98427 6.14012 9.96792C6.21828 9.92576 6.28265 9.86199 6.3255 9.78419C6.36836 9.70641 6.3879 9.6179 6.38177 9.5293L7.04369 9.42762C7.04957 9.6762 6.97058 9.91937 6.81973 10.117C6.66889 10.3147 6.45521 10.4551 6.21389 10.515C6.09548 10.5433 5.97244 10.5462 5.85281 10.5237C5.73318 10.5012 5.61964 10.4537 5.5196 10.3844C5.41955 10.315 5.33527 10.2254 5.2722 10.1213C5.20914 10.0171 5.16872 9.90092 5.1536 9.78013C5.06799 9.46378 5.11019 9.12645 5.27111 8.84095C5.43202 8.55545 5.69874 8.34466 6.01371 8.25409C6.11704 8.22425 6.22542 8.21604 6.33207 8.22997C6.43873 8.2439 6.54137 8.27968 6.63357 8.33506C6.72578 8.39044 6.80557 8.46426 6.86797 8.55186C6.93037 8.63947 6.97403 8.73899 6.99623 8.84424C7.0067 8.893 7.01219 8.94271 7.01259 8.99258V8.99377ZM8.71128 8.56233L9.25838 9.79846L8.43334 9.9771L8.16258 9.25058L7.9716 9.59669V10.0772L7.17648 10.2495L7.18006 8.05632L7.97518 7.88405L7.9728 8.79201L8.44532 7.78514L9.21571 7.61848L8.71128 8.56233ZM11.7342 8.32946C11.7621 8.59981 11.6879 8.87082 11.526 9.08918C11.3642 9.30753 11.1265 9.45743 10.8598 9.50937C10.7597 9.54751 10.6525 9.5632 10.5457 9.55534C10.4389 9.54749 10.3351 9.51628 10.2417 9.46391C10.1482 9.41153 10.0675 9.33926 10.0051 9.25224C9.94265 9.16522 9.9001 9.06555 9.88043 8.96028C9.86167 8.86841 9.85205 8.77491 9.85171 8.68115L9.85532 7.47693L10.6504 7.30505L10.6456 8.69711C10.6384 8.73141 10.6403 8.767 10.6512 8.80031C10.6622 8.83362 10.6817 8.86348 10.7078 8.88685C10.7339 8.91023 10.7657 8.92628 10.8 8.93344C10.8344 8.94059 10.87 8.93859 10.9032 8.9276C10.9798 8.91055 11.0477 8.86669 11.0948 8.80396C11.1419 8.74122 11.165 8.66373 11.16 8.58545L11.1624 7.19419L11.7362 7.07019L11.7342 8.32946ZM13.0685 8.27044L12.765 8.33623L12.761 9.04162L11.9659 9.21349L11.9691 7.02035L13.0976 6.77592C13.1714 6.7528 13.2493 6.74583 13.3261 6.75553C13.4028 6.76522 13.4766 6.79132 13.5424 6.83207C13.6081 6.87282 13.6643 6.92726 13.7071 6.99168C13.75 7.05609 13.7784 7.12897 13.7906 7.20536C13.8156 7.323 13.8166 7.44447 13.7935 7.5625C13.7705 7.68053 13.7238 7.79272 13.6564 7.8923C13.589 7.99189 13.5022 8.07684 13.4011 8.14209C13.3001 8.20733 13.187 8.25153 13.0685 8.27203V8.27044ZM12.9129 7.38043L12.7638 7.41272V7.85453L12.9129 7.82224C12.9465 7.81157 12.9777 7.79427 13.0045 7.77137C13.0313 7.74847 13.0532 7.72042 13.0689 7.68889C13.0847 7.65736 13.094 7.62299 13.0962 7.58781C13.0985 7.55263 13.0936 7.51738 13.082 7.48411C13.0805 7.46496 13.0745 7.44644 13.0644 7.43005C13.0544 7.41367 13.0407 7.39987 13.0243 7.38977C13.008 7.37968 12.9895 7.37358 12.9704 7.37196C12.9512 7.37033 12.932 7.37323 12.9141 7.38043H12.9129ZM1.62104 10.2479C1.60037 10.2476 1.57996 10.2433 1.56097 10.2351C1.54198 10.2269 1.52478 10.2151 1.51037 10.2003C1.49596 10.1855 1.48463 10.168 1.47701 10.1488C1.46938 10.1295 1.46562 10.109 1.46593 10.0883V6.34326C1.46578 6.30722 1.47782 6.27218 1.50013 6.24387C1.52243 6.21555 1.55367 6.19564 1.58874 6.18735L12.0126 3.89929C12.0327 3.89511 12.0535 3.89497 12.0737 3.89888C12.0939 3.90278 12.1131 3.91066 12.1302 3.92205C12.1474 3.93343 12.1621 3.94811 12.1735 3.96522C12.1849 3.98233 12.1928 4.00152 12.1968 4.02171C12.2056 4.06261 12.198 4.10534 12.1757 4.1407C12.1533 4.17605 12.1179 4.2012 12.0772 4.21072L1.77495 6.46926V10.086C1.77496 10.1276 1.75871 10.1676 1.72966 10.1974C1.7006 10.2272 1.66104 10.2444 1.61943 10.2455L1.62104 10.2479ZM3.39508 12.2843C3.3591 12.2839 3.32435 12.2711 3.29668 12.2481C3.26902 12.225 3.25012 12.1932 3.24317 12.1579C3.23433 12.117 3.24191 12.0742 3.26429 12.0389C3.28667 12.0035 3.32204 11.9784 3.36279 11.9689L14.3226 9.58752V6.2013C14.3215 6.18024 14.3247 6.15918 14.332 6.13941C14.3393 6.11964 14.3506 6.10156 14.3651 6.08628C14.3797 6.071 14.3971 6.05884 14.4165 6.05053C14.4359 6.04221 14.4568 6.03792 14.4779 6.03792C14.4989 6.03792 14.5198 6.04221 14.5392 6.05053C14.5586 6.05884 14.576 6.071 14.5906 6.08628C14.6051 6.10156 14.6164 6.11964 14.6237 6.13941C14.631 6.15918 14.6342 6.18024 14.6332 6.2013V9.71474C14.6333 9.75078 14.6213 9.78579 14.599 9.81411C14.5767 9.84242 14.5454 9.86235 14.5103 9.87064L3.42738 12.2791C3.41677 12.2814 3.40595 12.2827 3.39508 12.2827" fill="black"/>
</svg>
