<svg width="20" height="32" viewBox="0 0 20 32" fill="none" xmlns="http://www.w3.org/2000/svg">
<path fill-rule="evenodd" clip-rule="evenodd" d="M2 0C0.895431 0 0 0.89543 0 2V28C0 29.1046 0.895431 30 2 30H8.05662L9.5 32L10.9434 30H18C19.1046 30 20 29.1046 20 28V2C20 0.895431 19.1046 0 18 0H2Z" fill="black"/>
<path d="M8.39735 18.2444H11.8907C11.9685 18.2379 12.0469 18.2485 12.1203 18.2753C12.1937 18.3022 12.2603 18.3446 12.3157 18.3998C12.371 18.455 12.4137 18.5215 12.4408 18.5948C12.4679 18.6681 12.4787 18.7464 12.4725 18.8243V21.2385C12.4836 21.3174 12.4763 21.3978 12.4509 21.4734C12.4256 21.5489 12.383 21.6175 12.3265 21.6737C12.2701 21.7299 12.2013 21.7722 12.1256 21.7972C12.0499 21.8222 11.9695 21.8292 11.8907 21.8177H8.39735V18.2444ZM8.39735 12.1611H11.8907C11.9695 12.1495 12.05 12.1565 12.1257 12.1815C12.2013 12.2064 12.2702 12.2487 12.3266 12.3049C12.3831 12.3612 12.4257 12.4298 12.451 12.5054C12.4763 12.5809 12.4837 12.6614 12.4725 12.7403V14.9612C12.4725 15.3859 12.2785 15.5407 11.9097 15.5407H8.39735V12.1611ZM5.19543 9.26369C5.16923 9.26039 5.14262 9.26311 5.11763 9.27165C5.09264 9.28018 5.06992 9.29429 5.0512 9.31292C5.03248 9.33155 5.01825 9.35419 5.0096 9.37914C5.00094 9.40409 4.99809 9.43068 5.00125 9.4569V24.5216C4.99811 24.5478 5.00098 24.5744 5.00964 24.5994C5.01831 24.6243 5.03253 24.6469 5.05125 24.6656C5.06996 24.6842 5.09267 24.6983 5.11765 24.7068C5.14263 24.7154 5.16923 24.7181 5.19543 24.7148H12.3755C14.5299 24.7148 15.8681 23.7301 15.8681 21.2385V19.5967C15.8681 18.1479 15.5772 17.3757 14.2191 16.8928C15.5387 16.5063 15.8681 15.753 15.8681 14.2466V12.7403C15.8681 10.2484 14.5299 9.26368 12.3755 9.26368L5.19543 9.26369Z" fill="url(#paint0_linear_1160_1867)"/>
<path d="M5.18753 7.42758H15.1066C15.1317 7.42894 15.1568 7.4249 15.1802 7.41573C15.2036 7.40656 15.2247 7.39248 15.2422 7.37443C15.2597 7.35639 15.2731 7.3348 15.2815 7.31113C15.2899 7.28746 15.2932 7.26226 15.291 7.23723V5.83069C15.2906 5.61031 15.2027 5.39911 15.0468 5.24339C14.8908 5.08767 14.6795 5.00014 14.4591 5H5.8324C5.61221 4.99994 5.40098 5.08721 5.24503 5.24266C5.08909 5.39811 5.00115 5.60906 5.00051 5.82925V7.23723C4.99859 7.26243 5.00208 7.28775 5.01076 7.31149C5.01943 7.33523 5.03308 7.35684 5.05079 7.37487C5.06851 7.3929 5.08987 7.40694 5.11346 7.41603C5.13704 7.42512 5.1623 7.42906 5.18753 7.42758Z" fill="white"/>
<defs>
<linearGradient id="paint0_linear_1160_1867" x1="8.375" y1="9.59582" x2="17.0559" y2="41.2557" gradientUnits="userSpaceOnUse">
<stop stop-color="#E28D29"/>
<stop offset="0.472137" stop-color="#FFE68F"/>
</linearGradient>
</defs>
</svg>
