<svg width="16" height="16" viewBox="0 0 16 16" fill="none" xmlns="http://www.w3.org/2000/svg">
<path d="M15.685 5.03499C10.22 2.84999 10.63 2.99999 10.5 2.99999C10.3674 2.99999 10.2402 3.05267 10.1464 3.14644C10.0527 3.2402 10 3.36738 10 3.49999V13.16L6 14.76V5.88499C5.99932 5.78368 5.96787 5.68497 5.90983 5.60193C5.8518 5.51889 5.7699 5.45545 5.675 5.41999C5.68319 5.31516 5.65813 5.21042 5.60337 5.12066C5.54862 5.03089 5.46695 4.96068 5.37 4.91999L0.685 3.03499C0.60911 3.00476 0.52697 2.99359 0.445765 3.00245C0.364559 3.01132 0.286762 3.03994 0.219175 3.08582C0.151589 3.1317 0.0962733 3.19344 0.0580653 3.26564C0.0198573 3.33784 -7.88743e-05 3.4183 2.34516e-07 3.49999V9.49999C2.34516e-07 9.6326 0.0526787 9.75977 0.146447 9.85354C0.240215 9.94731 0.367392 9.99999 0.5 9.99999C0.632608 9.99999 0.759785 9.94731 0.853554 9.85354C0.947322 9.75977 1 9.6326 1 9.49999V4.23999L5 5.83999C5 5.98999 5 7.12499 5 14.76L1 13.16V11.5C1 11.3674 0.947322 11.2402 0.853554 11.1464C0.759785 11.0527 0.632608 11 0.5 11C0.367392 11 0.240215 11.0527 0.146447 11.1464C0.0526787 11.2402 2.34516e-07 11.3674 2.34516e-07 11.5V13.5C-9.67064e-05 13.6001 0.0298776 13.698 0.0860407 13.7809C0.142204 13.8638 0.221968 13.9279 0.315 13.965L5.315 15.965C5.575 16.055 5.25 16.125 10.485 14.035C15.78 16.15 15.36 16 15.5 16C15.6326 16 15.7598 15.9473 15.8536 15.8535C15.9473 15.7598 16 15.6326 16 15.5V5.49999C16.0001 5.39985 15.9701 5.30199 15.914 5.21908C15.8578 5.13617 15.778 5.07204 15.685 5.03499ZM15 14.76L11 13.16V4.23999L15 5.83999V14.76Z" fill="black"/>
<path d="M7.13 8.835C6.81 8.5 4 5.295 4 3.5C4 2.57174 4.36875 1.6815 5.02513 1.02513C5.6815 0.368749 6.57174 0 7.5 0C8.42826 0 9.3185 0.368749 9.97487 1.02513C10.6313 1.6815 11 2.57174 11 3.5C11 5.295 8.19 8.5 7.87 8.835C7.82314 8.88656 7.76601 8.92776 7.7023 8.95595C7.63858 8.98413 7.56967 8.9987 7.5 8.9987C7.43033 8.9987 7.36142 8.98413 7.2977 8.95595C7.23399 8.92776 7.17686 8.88656 7.13 8.835ZM7.5 1C6.83696 1 6.20107 1.26339 5.73223 1.73223C5.26339 2.20107 5 2.83696 5 3.5C5 4.455 6.41 6.44 7.5 7.735C8.59 6.44 10 4.455 10 3.5C10 2.83696 9.73661 2.20107 9.26777 1.73223C8.79893 1.26339 8.16304 1 7.5 1Z" fill="black"/>
<path d="M7.5 5C7.20333 5 6.91332 4.91203 6.66665 4.7472C6.41997 4.58238 6.22771 4.34811 6.11418 4.07403C6.00065 3.79994 5.97094 3.49834 6.02882 3.20737C6.0867 2.91639 6.22956 2.64912 6.43934 2.43934C6.64912 2.22956 6.91639 2.0867 7.20737 2.02882C7.49834 1.97094 7.79994 2.00065 8.07403 2.11418C8.34811 2.22771 8.58238 2.41997 8.74721 2.66665C8.91203 2.91332 9 3.20333 9 3.5C9 3.89783 8.84197 4.27936 8.56066 4.56066C8.27936 4.84197 7.89783 5 7.5 5ZM7.5 3C7.40111 3 7.30444 3.02933 7.22222 3.08427C7.13999 3.13921 7.0759 3.2173 7.03806 3.30866C7.00022 3.40002 6.99032 3.50056 7.00961 3.59755C7.0289 3.69454 7.07652 3.78363 7.14645 3.85355C7.21637 3.92348 7.30547 3.9711 7.40246 3.99039C7.49945 4.00969 7.59998 3.99978 7.69134 3.96194C7.78271 3.9241 7.86079 3.86001 7.91574 3.77779C7.97068 3.69556 8 3.59889 8 3.5C8 3.36739 7.94732 3.24022 7.85355 3.14645C7.75979 3.05268 7.63261 3 7.5 3Z" fill="black"/>
</svg>
