<svg width="42" height="42" viewBox="0 0 42 42" fill="none" xmlns="http://www.w3.org/2000/svg">
<path fill-rule="evenodd" clip-rule="evenodd" d="M27.2628 18.733L23.9518 11.022L23.4128 2.02197H23.4498C23.5853 2.02197 23.7153 1.96815 23.8111 1.87231C23.9069 1.77648 23.9608 1.64651 23.9608 1.51099C23.9608 1.37546 23.9069 1.24549 23.8111 1.14966C23.7153 1.05383 23.5853 1 23.4498 1H17.9098C17.7743 1 17.6443 1.05383 17.5484 1.14966C17.4526 1.24549 17.3988 1.37546 17.3988 1.51099C17.3988 1.64651 17.4526 1.77648 17.5484 1.87231C17.6443 1.96815 17.7743 2.02197 17.9098 2.02197H17.9458L17.4278 11.04L14.0678 18.726C14.0265 18.801 14.0051 18.8853 14.0058 18.9709V39.09C13.9812 39.4484 14.0353 39.8078 14.1644 40.1431C14.2935 40.4784 14.4944 40.7814 14.7531 41.0308C15.0117 41.2801 15.3218 41.4699 15.6615 41.5867C16.0013 41.7035 16.3625 41.7446 16.7198 41.707H24.6098C24.9677 41.7464 25.3299 41.7066 25.6707 41.5903C26.0115 41.4739 26.3225 41.284 26.5816 41.0339C26.8407 40.7838 27.0415 40.4797 27.1698 40.1432C27.298 39.8067 27.3506 39.4461 27.3238 39.087V18.978C27.3244 18.8923 27.3031 18.808 27.2618 18.733H27.2628ZM18.9848 2.01898H22.3708L22.5708 4.44196H18.7838L18.9848 2.01898ZM15.0398 19.119L18.3838 11.413C18.4183 11.3514 18.4395 11.2832 18.4458 11.213L18.7198 5.44598H22.6758L22.9498 11.213C22.9561 11.2832 22.9772 11.3514 23.0118 11.413L26.3118 19.113L26.2908 23.213H22.3208C22.1937 22.5018 21.8205 21.858 21.2666 21.3943C20.7126 20.9306 20.0132 20.6765 19.2908 20.6765C18.5683 20.6765 17.8689 20.9306 17.315 21.3943C16.761 21.858 16.3879 22.5018 16.2608 23.213H15.0418V19.123L15.0398 19.119ZM21.3278 23.719C21.3335 24.1239 21.2187 24.5214 20.9979 24.8609C20.777 25.2004 20.4602 25.4665 20.0877 25.6254C19.7152 25.7842 19.3038 25.8287 18.9059 25.7531C18.5081 25.6775 18.1417 25.4852 17.8534 25.2007C17.5652 24.9163 17.368 24.5525 17.2871 24.1557C17.2062 23.7589 17.2452 23.347 17.3991 22.9724C17.553 22.5977 17.8149 22.2774 18.1514 22.0521C18.4879 21.8267 18.8838 21.7066 19.2888 21.707C19.8265 21.7035 20.3435 21.9137 20.7263 22.2914C21.109 22.6691 21.3261 23.1833 21.3298 23.7209L21.3278 23.719ZM16.2588 24.232C16.3859 24.9432 16.759 25.5869 17.313 26.0507C17.8669 26.5144 18.5663 26.7685 19.2888 26.7685C20.0112 26.7685 20.7106 26.5144 21.2646 26.0507C21.8185 25.5869 22.1917 24.9432 22.3188 24.232H26.2888V34.896H15.0418V24.233H16.2588V24.232ZM24.6098 40.667H16.7198C16.4979 40.7039 16.2705 40.6887 16.0556 40.6226C15.8406 40.5564 15.644 40.4412 15.4812 40.286C15.3184 40.1308 15.194 39.9399 15.1177 39.7283C15.0415 39.5168 15.0155 39.2903 15.0418 39.067V35.817H26.2848V39.087C26.3105 39.3094 26.2839 39.5347 26.2071 39.745C26.1303 39.9553 26.0054 40.1447 25.8424 40.2982C25.6794 40.4516 25.4828 40.5649 25.2683 40.629C25.0537 40.693 24.8272 40.706 24.6068 40.667" fill="black"/>
</svg>
