<svg width="14" height="17" viewBox="0 0 14 17" fill="none" xmlns="http://www.w3.org/2000/svg">
<path fill-rule="evenodd" clip-rule="evenodd" d="M6.466 16.274C4.55166 15.4861 2.9148 14.1469 1.76346 12.4265C0.612124 10.706 -0.00170304 8.68213 3.54888e-06 6.612V3.54901C0.000268427 3.41339 0.0543279 3.28342 0.150318 3.18762C0.246308 3.09182 0.376385 3.03796 0.512003 3.03796H0.912004C1.96371 3.03979 2.99959 2.78191 3.92767 2.28717C4.85574 1.79243 5.64728 1.07615 6.232 0.201965C6.28165 0.135731 6.34604 0.0820121 6.42006 0.0449829C6.49409 0.00795377 6.57573 -0.0113525 6.6585 -0.0113525C6.74128 -0.0113525 6.82291 0.00795377 6.89694 0.0449829C6.97097 0.0820121 7.03536 0.135731 7.085 0.201965C7.66963 1.07601 8.46101 1.79219 9.3889 2.28693C10.3168 2.78166 11.3525 3.03963 12.404 3.03796H12.804C12.8729 3.03491 12.9418 3.04585 13.0064 3.07013C13.071 3.09441 13.13 3.13156 13.1799 3.17926C13.2297 3.22697 13.2694 3.28426 13.2965 3.34772C13.3236 3.41118 13.3376 3.47945 13.3376 3.54846C13.3376 3.61747 13.3236 3.68581 13.2965 3.74927C13.2694 3.81273 13.2297 3.87002 13.1799 3.91772C13.13 3.96543 13.071 4.00252 13.0064 4.02679C12.9418 4.05107 12.8729 4.06201 12.804 4.05896H12.404C11.3049 4.0607 10.2191 3.81802 9.22531 3.34845C8.23152 2.87888 7.35458 2.19422 6.658 1.34399C5.97302 2.18016 5.11343 2.85636 4.13948 3.3252C3.16554 3.79403 2.10083 4.04413 1.02 4.05798V6.612C1.01841 8.44363 1.55089 10.236 2.55225 11.7697C3.55362 13.3033 4.98043 14.5118 6.658 15.247C8.33558 14.5118 9.76239 13.3033 10.7638 11.7697C11.7651 10.236 12.2976 8.44363 12.296 6.612V5.591C12.3018 5.459 12.3584 5.33433 12.4539 5.24298C12.5493 5.15163 12.6764 5.10065 12.8085 5.10065C12.9406 5.10065 13.0677 5.15163 13.1632 5.24298C13.2586 5.33433 13.3152 5.459 13.321 5.591V6.612C13.3227 8.68213 12.7089 10.706 11.5575 12.4265C10.4062 14.1469 8.76934 15.4861 6.855 16.274C6.73036 16.3251 6.59064 16.3251 6.466 16.274Z" fill="black"/>
</svg>
