<svg width="16" height="16" viewBox="0 0 16 16" fill="none" xmlns="http://www.w3.org/2000/svg">
<path fill-rule="evenodd" clip-rule="evenodd" d="M15.3708 4.88698C14.597 2.91112 13.0701 1.32357 11.1258 0.473559C9.18149 -0.37645 6.97918 -0.41929 5.00332 0.354479C3.02745 1.12825 1.4399 2.65525 0.589887 4.59954C-0.260121 6.54382 -0.302953 8.74611 0.470816 10.722C0.516831 10.849 0.611428 10.9526 0.733796 11.0099C0.856163 11.0672 0.996279 11.0735 1.12332 11.0275C1.25036 10.9815 1.35391 10.8869 1.4112 10.7645C1.4685 10.6421 1.47483 10.502 1.42882 10.375C1.00964 9.21631 0.904471 7.96736 1.12398 6.7549C1.34349 5.54244 1.87987 4.40962 2.67867 3.47145C3.47747 2.53328 4.51026 1.82313 5.6722 1.4131C6.83415 1.00308 8.0839 0.907767 9.29459 1.13683C10.5053 1.36589 11.6338 1.91116 12.5657 2.71733C13.4975 3.5235 14.1995 4.56186 14.6003 5.72701C15.0012 6.89215 15.0867 8.14261 14.8481 9.35146C14.6095 10.5603 14.0553 11.6845 13.2418 12.61C13.1418 12.721 13.0418 12.832 12.9338 12.939C11.9504 13.9203 10.697 14.5866 9.33348 14.8526C7.96992 15.1187 6.558 14.9726 5.27782 14.433C5.17782 14.389 5.07182 14.343 4.97082 14.294L4.81182 14.214L4.67282 14.143C4.61982 14.115 4.56682 14.083 4.51482 14.052C4.46282 14.021 4.42582 14.002 4.38282 13.976C4.33982 13.95 4.28282 13.915 4.23982 13.884C4.19682 13.853 4.14682 13.826 4.10082 13.796C4.05482 13.766 4.01482 13.734 3.96982 13.703C3.92482 13.672 3.86982 13.636 3.82682 13.603C3.78382 13.57 3.74782 13.541 3.70782 13.51C3.66782 13.479 3.60782 13.435 3.56382 13.397C3.51982 13.359 3.48882 13.332 3.45082 13.297C3.41282 13.262 3.35082 13.216 3.30882 13.173C3.26682 13.13 3.23582 13.104 3.20082 13.073C3.16582 13.042 3.11182 12.99 3.06882 12.946C4.05146 11.9674 5.30313 11.3034 6.66441 11.0386C8.02569 10.7738 9.43498 10.9202 10.7128 11.459C10.929 11.55 11.1402 11.6522 11.3458 11.765C11.4644 11.8298 11.6038 11.8449 11.7335 11.807C11.8632 11.769 11.9725 11.681 12.0373 11.5625C12.1022 11.4439 12.1173 11.3045 12.0793 11.1748C12.0413 11.0451 11.9534 10.9358 11.8348 10.871C11.6008 10.743 11.3568 10.625 11.1098 10.52C9.64288 9.90019 8.02435 9.73233 6.46144 10.0379C4.89853 10.3434 3.46236 11.1084 2.33682 12.235C2.21682 12.356 2.09682 12.483 1.98482 12.61C1.90291 12.7029 1.85772 12.8226 1.85772 12.9465C1.85772 13.0704 1.90291 13.19 1.98482 13.283C2.09882 13.412 2.21782 13.538 2.33682 13.658C3.07971 14.401 3.9617 14.9905 4.93243 15.3926C5.90315 15.7948 6.94359 16.0018 7.99432 16.0018C9.04504 16.0018 10.0855 15.7948 11.0562 15.3926C12.0269 14.9905 12.9089 14.401 13.6518 13.658C13.7738 13.536 13.8918 13.41 14.0038 13.282C14.9968 12.1523 15.6512 10.7655 15.892 9.28078C16.1327 7.79607 15.95 6.27359 15.3648 4.88799L15.3708 4.88698ZM11.0188 5.56398C11.0188 4.96712 10.8418 4.38366 10.5103 3.88738C10.1787 3.39109 9.7074 3.00426 9.15599 2.7758C8.60458 2.54735 7.99781 2.48753 7.4124 2.6039C6.82699 2.72027 6.28924 3.00761 5.86712 3.42958C5.44501 3.85156 5.15749 4.38923 5.04093 4.9746C4.92437 5.55997 4.98399 6.16673 5.21226 6.71822C5.44053 7.2697 5.8272 7.74112 6.32338 8.07286C6.81955 8.4046 7.40296 8.58179 7.99982 8.58199C8.79992 8.58093 9.56694 8.26261 10.1327 7.69686C10.6985 7.1311 11.0168 6.36408 11.0178 5.56398H11.0188ZM6.00082 5.56398C6.00082 5.16842 6.11811 4.78174 6.33788 4.45284C6.55764 4.12394 6.87 3.86761 7.23545 3.71623C7.6009 3.56486 8.00303 3.52523 8.391 3.6024C8.77896 3.67957 9.13532 3.87006 9.41503 4.14977C9.69473 4.42947 9.88522 4.78585 9.96239 5.17382C10.0396 5.56178 9.99995 5.96391 9.84858 6.32936C9.6972 6.69482 9.44086 7.00715 9.11196 7.22692C8.78306 7.44668 8.39638 7.56398 8.00082 7.56398C7.73809 7.56411 7.47791 7.51249 7.23514 7.41204C6.99238 7.31158 6.77178 7.16429 6.58596 6.97856C6.40013 6.79283 6.25272 6.57229 6.15215 6.32958C6.05158 6.08686 5.99982 5.82671 5.99982 5.56398H6.00082Z" fill="black"/>
</svg>
