<svg width="14" height="16" viewBox="0 0 14 16" fill="none" xmlns="http://www.w3.org/2000/svg">
<path d="M13.6157 2.06542C13.4018 1.87108 13.104 1.75976 12.8013 1.75976H10.144V1.16943C10.1411 0.85742 10.0054 0.56445 9.76122 0.34375C9.51903 0.12451 9.19774 0.00244 8.85692 0H5.18749C4.84667 0.00244 4.52538 0.12451 4.28222 0.34375C4.03857 0.56445 3.90331 0.85742 3.90087 1.16992V1.75976H1.15478C0.85156 1.75976 0.55468 1.87109 0.33984 2.06542C0.12402 2.26122 0 2.53271 0 2.80956V4.47997C0 4.75683 0.12402 5.02831 0.33984 5.22411C0.54296 5.4077 0.81933 5.51757 1.10498 5.5288V5.5498H1.28174V13.98C1.28174 14.521 1.52344 15.0493 1.94531 15.4311C2.37256 15.8169 2.93896 16.0298 3.5415 16.0298H10.4146C11.0083 16.0298 11.5903 15.812 12.0103 15.4311C12.439 15.0444 12.6743 14.5288 12.6743 13.98V5.55956H12.8013C13.104 5.55956 13.4019 5.44823 13.6157 5.2539C13.8315 5.05859 13.9556 4.7871 13.9556 4.50976V2.80956C13.9556 2.53222 13.8315 2.26122 13.6157 2.06542ZM11.3784 14.8052C11.1362 15.0239 10.8013 15.1499 10.4585 15.1499H3.58593C3.24316 15.1499 2.9082 15.0239 2.6665 14.8052C2.42578 14.5874 2.28759 14.2866 2.28759 13.98V5.55956H11.7573V13.98C11.7573 14.2866 11.6186 14.5874 11.3784 14.8052H11.3784ZM4.86229 1.15087C4.86473 1.08593 4.89452 1.02441 4.94627 0.97753C4.99949 0.92919 5.07029 0.90185 5.14402 0.89941H8.77879C8.85594 0.89941 8.92918 0.92627 8.98484 0.97461C9.03855 1.02197 9.06882 1.08447 9.07175 1.1499V1.74023H4.86229V1.15087ZM0.97997 4.54638C0.97265 4.52685 0.9702 4.50634 0.97265 4.47997V2.8037C0.97021 2.78319 0.97265 2.76268 0.97949 2.74413C0.9873 2.7246 1 2.70604 1.01611 2.6914C1.03369 2.67578 1.05468 2.66406 1.07666 2.65722C1.09473 2.65136 1.11328 2.64892 1.13428 2.64892C1.14063 2.64892 1.14746 2.64892 1.15479 2.64941H12.895C12.9194 2.64843 12.9438 2.6499 12.9683 2.65722C12.9907 2.66406 13.0112 2.67626 13.0278 2.69091C13.0444 2.70653 13.0571 2.7246 13.064 2.74364C13.0718 2.76366 13.0747 2.78368 13.0718 2.80956V4.48681C13.0747 4.50585 13.0718 4.52587 13.064 4.54687C13.0571 4.56494 13.0444 4.583 13.0288 4.59814C13.0112 4.61328 12.9907 4.62548 12.9673 4.63281C12.9448 4.63965 12.9224 4.64111 12.8901 4.64013H1.14989C1.12499 4.64208 1.10009 4.64013 1.07665 4.63232C1.05468 4.62548 1.03368 4.61377 1.01659 4.59814C0.99999 4.58349 0.98729 4.56494 0.97997 4.54638Z" fill="black"/>
<path d="M9.85742 7.20996H8.85156V13.2798H9.85742V7.20996Z" fill="black"/>
<path d="M7.53662 7.20996H6.53125V13.2798H7.53662V7.20996Z" fill="black"/>
<path d="M5.20459 7.20996H4.19922V13.2798H5.20459V7.20996Z" fill="black"/>
</svg>
