<svg width="16" height="16" viewBox="0 0 16 16" fill="none" xmlns="http://www.w3.org/2000/svg">
<path fill-rule="evenodd" clip-rule="evenodd" d="M8 1.45455C4.38505 1.45455 1.45455 4.38505 1.45455 8C1.45455 11.615 4.38505 14.5455 8 14.5455C11.615 14.5455 14.5455 11.615 14.5455 8C14.5455 4.38505 11.615 1.45455 8 1.45455ZM0 8C0 3.58172 3.58172 0 8 0C12.4183 0 16 3.58172 16 8C16 12.4183 12.4183 16 8 16C3.58172 16 0 12.4183 0 8ZM7 11.6364C7 11.0841 7.44772 10.6364 8 10.6364H8.00727C8.55956 10.6364 9.00727 11.0841 9.00727 11.6364C9.00727 12.1886 8.55956 12.6364 8.00727 12.6364H8C7.44772 12.6364 7 12.1886 7 11.6364ZM7.20491 5.28817C7.50106 5.11413 7.84925 5.0505 8.18781 5.10857C8.52637 5.16665 8.83345 5.34267 9.05467 5.60546C9.27589 5.86825 9.39696 6.20085 9.39645 6.54435L9.39645 6.54543C9.39645 6.88662 9.13092 7.24232 8.62939 7.57667C8.40076 7.72909 8.16695 7.84651 7.98744 7.9263C7.89871 7.96573 7.82579 7.99485 7.77675 8.01353C7.75229 8.02285 7.73395 8.0295 7.72276 8.03348L7.71116 8.03755C7.3306 8.16487 7.12502 8.57644 7.25195 8.95724C7.37897 9.33829 7.79084 9.54422 8.17189 9.4172L7.9419 8.72725C8.17189 9.4172 8.17258 9.41697 8.1728 9.4169L8.17391 9.41653L8.17675 9.41557L8.18479 9.41282L8.21005 9.40398C8.23082 9.39659 8.25936 9.3862 8.29456 9.37279C8.36484 9.34602 8.46236 9.30696 8.57819 9.25548C8.80776 9.15345 9.11941 8.99814 9.43623 8.78693C10.0255 8.39408 10.8507 7.65908 10.851 6.5461C10.8519 5.85924 10.6098 5.1942 10.1674 4.66873C9.725 4.14315 9.11083 3.79111 8.43371 3.67497C7.75659 3.55882 7.06021 3.68607 6.46792 4.03416C5.87563 4.38226 5.42564 4.92874 5.19766 5.57682C5.06437 5.95572 5.26348 6.37093 5.64238 6.50422C6.02128 6.63751 6.43649 6.4384 6.56978 6.0595C6.68377 5.73546 6.90877 5.46222 7.20491 5.28817Z" fill="black"/>
</svg>
