<?xml version="1.0" encoding="UTF-8"?><svg id="Layer_2" fill="black" xmlns="http://www.w3.org/2000/svg" viewBox="0 0 14.00005 14"><defs><style>.cls-1{fill-rule:evenodd;}</style></defs><g id="Layer_1-2"><path class="cls-1" d="M6.99988,0c-1.61948,.00003-3.18886,.5616-4.44072,1.58901C1.3073,2.61642,.45041,4.04613,.13449,5.6345c-.31592,1.58837-.07132,3.23713,.69212,4.66542,.76344,1.42825,1.9985,2.54753,3.49471,3.16726,1.49623,.61973,3.16104,.70154,4.71077,.23135,1.54971-.47009,2.88855-1.46301,3.78827-2.80965,.89972-1.34654,1.30468-2.96339,1.14595-4.57507-.15883-1.61169-.87145-3.11846-2.01661-4.2636-.64999-.65004-1.42166-1.1657-2.271-1.51748C8.82942,.18095,7.91915-.00007,6.99988,0h0Zm-.09517,11.6046c-.15864,.0002-.31377-.04665-.44577-.13465-.132-.088-.23492-.21317-.29577-.35971-.06084-.14644-.07687-.30767-.04604-.4633,.03083-.15563,.10711-.29858,.21921-.41085,.1121-.11228,.25497-.1887,.41054-.21976,.15557-.03097,.31686-.01518,.46343,.04545,.14658,.06073,.27187,.16342,.36003,.29538,.08814,.13186,.1352,.28699,.1352,.44562,.00013,.10519-.02048,.20947-.06066,.30677-.04019,.09729-.09916,.1857-.17354,.26012-.07438,.07452-.1627,.13356-.25994,.17391-.09722,.04026-.20144,.06103-.3067,.06103Zm.87576-3.88982c-.01809,.00516-.03468,.01458-.04841,.02744-.01374,.01285-.02421,.02879-.03056,.0465v.6358c0,.21159-.08406,.4145-.23368,.56412-.14962,.14962-.35254,.23368-.56413,.23368s-.41452-.08406-.56413-.23368c-.14962-.14962-.23368-.35253-.23368-.56412v-.63785c.00355-.3529,.11771-.69578,.32641-.9804,.20868-.2846,.50139-.49658,.83688-.60608,.23198-.0771,.43273-.2273,.57217-.42807,.13945-.20077,.21009-.44131,.20134-.68561-.01562-.29467-.14254-.57243-.35511-.7771-.21256-.20468-.4949-.32101-.78995-.32548-.21217,.00155-.41962,.06278-.59866,.17664-.17903,.11387-.32242,.2758-.41378,.46729-.0434,.09762-.10597,.18553-.184,.25852-.07802,.07298-.16991,.12955-.27021,.16635s-.20698,.0531-.31369,.04789c-.10671-.0052-.21128-.03181-.30753-.0782-.09625-.0464-.18218-.11164-.25274-.19187-.07054-.08024-.12425-.17382-.15794-.2752-.03369-.10139-.04668-.20853-.03819-.31503,.0085-.1065,.0383-.21019,.08762-.30496,.2199-.46085,.56529-.85037,.99652-1.12382,.43122-.27346,.93082-.41978,1.44144-.42218h.01619c.70922,.00446,1.38935,.28246,1.89862,.77608s.80837,1.16474,.83496,1.87347c.01985,.58506-.14978,1.16088-.48363,1.64176-.33384,.48088-.81404,.8411-1.36913,1.02702l-.00304,.00707Z"/></g></svg>