<svg width="14" height="15" viewBox="0 0 14 15" fill="none" xmlns="http://www.w3.org/2000/svg">
<g clip-path="url(#clip0_33_1206)">
<path fill-rule="evenodd" clip-rule="evenodd" d="M6.91388 0.590515C5.31429 0.590545 3.7642 1.14521 2.52772 2.16C1.29124 3.17479 0.444877 4.58693 0.13284 6.15579C-0.179198 7.72465 0.0623921 9.35316 0.816456 10.7639C1.57052 12.1746 2.7904 13.2802 4.26824 13.8923C5.74608 14.5044 7.39043 14.5851 8.92114 14.1208C10.4518 13.6564 11.7742 12.6757 12.6628 11.3456C13.5515 10.0156 13.9515 8.41864 13.7947 6.82675C13.6379 5.23487 12.934 3.7466 11.8029 2.61554C11.1609 1.97347 10.3987 1.46415 9.55981 1.1167C8.72095 0.769246 7.82186 0.590444 6.91388 0.590515ZM6.81988 12.0525C6.6632 12.0527 6.50997 12.0064 6.3796 11.9195C6.24922 11.8326 6.14756 11.709 6.08746 11.5643C6.02736 11.4196 6.01153 11.2603 6.04198 11.1066C6.07243 10.9529 6.14778 10.8117 6.2585 10.7008C6.36923 10.59 6.51035 10.5145 6.66401 10.4838C6.81767 10.4532 6.97696 10.4688 7.12174 10.5287C7.26652 10.5886 7.39027 10.6901 7.47734 10.8204C7.56441 10.9507 7.61088 11.1038 7.61088 11.2605C7.61101 11.3645 7.59065 11.4675 7.55096 11.5635C7.51127 11.6596 7.45302 11.7469 7.37956 11.8205C7.30609 11.8941 7.21885 11.9524 7.12281 11.9922C7.02678 12.032 6.92384 12.0525 6.81988 12.0525ZM7.68488 8.21051C7.66702 8.21561 7.65063 8.22492 7.63707 8.23761C7.6235 8.2503 7.61316 8.26605 7.60688 8.28354V8.91153C7.60688 9.12052 7.52386 9.32094 7.37608 9.46872C7.2283 9.6165 7.02787 9.69952 6.81888 9.69952C6.60989 9.69952 6.40946 9.6165 6.26168 9.46872C6.11391 9.32094 6.03088 9.12052 6.03088 8.91153V8.28152C6.03439 7.93296 6.14715 7.59428 6.35328 7.31317C6.5594 7.03206 6.8485 6.82269 7.17988 6.71454C7.40901 6.63839 7.60729 6.49003 7.74502 6.29172C7.88276 6.09341 7.95253 5.85583 7.94388 5.61453C7.92846 5.32348 7.80309 5.04914 7.59314 4.84698C7.38318 4.64483 7.10431 4.52992 6.81289 4.52551C6.60332 4.52704 6.39842 4.58752 6.22158 4.69998C6.04475 4.81245 5.90312 4.97238 5.81289 5.16153C5.77002 5.25796 5.70821 5.34478 5.63115 5.41687C5.55408 5.48896 5.46332 5.54483 5.36425 5.58118C5.26519 5.61752 5.15982 5.63362 5.05442 5.62848C4.94902 5.62334 4.84573 5.59706 4.75068 5.55124C4.65562 5.50542 4.57073 5.44097 4.50105 5.36172C4.43137 5.28247 4.37832 5.19005 4.34504 5.0899C4.31177 4.98976 4.29894 4.88394 4.30733 4.77875C4.31572 4.67356 4.34515 4.57114 4.39388 4.47754C4.61107 4.02235 4.95222 3.63762 5.37815 3.36752C5.80408 3.09742 6.29754 2.9529 6.80188 2.95053H6.81788C7.51839 2.95493 8.19016 3.22952 8.69317 3.71707C9.19618 4.20462 9.49161 4.86751 9.51788 5.56754C9.53748 6.14541 9.36994 6.71415 9.0402 7.18912C8.71046 7.66409 8.23616 8.01988 7.68789 8.20352L7.68488 8.21051Z" fill="black"/>
</g>
<defs>
<clipPath id="clip0_33_1206">
<rect width="13.813" height="13.813" fill="white" transform="translate(0 0.593506)"/>
</clipPath>
</defs>
</svg>
