<svg width="5" height="8" viewBox="0 0 5 8" fill="none" xmlns="http://www.w3.org/2000/svg">
<path fill-rule="evenodd" clip-rule="evenodd" d="M0.712036 7.99551C0.90538 7.99734 1.09222 7.9259 1.23502 7.79553L4.77402 4.48251C4.84158 4.42139 4.8956 4.3468 4.93256 4.26352C4.96952 4.18024 4.98862 4.09014 4.98862 3.99902C4.98862 3.90791 4.96952 3.81781 4.93256 3.73453C4.8956 3.65125 4.84158 3.57666 4.77402 3.51553L1.23502 0.202515C1.09213 0.0731478 0.906279 0.00152588 0.713531 0.00152588C0.520784 0.00152588 0.334901 0.0731478 0.192017 0.202515C0.123986 0.263569 0.0695968 0.338276 0.0323486 0.421753C-0.00489958 0.50523 -0.0241699 0.595632 -0.0241699 0.687042C-0.0241699 0.778452 -0.00489958 0.868824 0.0323486 0.952301C0.0695968 1.03578 0.123986 1.11049 0.192017 1.17154L3.21503 4.00253L0.192017 6.83252C0.123986 6.89357 0.0695968 6.96828 0.0323486 7.05176C-0.00489958 7.13523 -0.0241699 7.22561 -0.0241699 7.31702C-0.0241699 7.40843 -0.00489958 7.49883 0.0323486 7.58231C0.0695968 7.66578 0.123986 7.74046 0.192017 7.80151C0.335207 7.92857 0.520613 7.99774 0.712036 7.99551Z" fill="white"/>
</svg>
