<svg width="48" height="20" viewBox="0 0 48 20" fill="none" xmlns="http://www.w3.org/2000/svg">
<path d="M0 10C0 4.47715 4.47715 0 10 0H38C43.5229 0 48 4.47715 48 10C48 15.5228 43.5228 20 38 20H10C4.47715 20 0 15.5228 0 10Z" fill="#B02E2F"/>
<path d="M13.33 13.1C14.84 13.1 15.9 12.32 15.9 10.93V10.91C15.9 9.69 15.1 9.18 13.68 8.81C12.47 8.5 12.17 8.35 12.17 7.89V7.87C12.17 7.53 12.48 7.26 13.07 7.26C13.66 7.26 14.27 7.52 14.89 7.95L15.69 6.79C14.98 6.22 14.11 5.9 13.09 5.9C11.66 5.9 10.64 6.74 10.64 8.01V8.03C10.64 9.42 11.55 9.81 12.96 10.17C14.13 10.47 14.37 10.67 14.37 11.06V11.08C14.37 11.49 13.99 11.74 13.36 11.74C12.56 11.74 11.9 11.41 11.27 10.89L10.36 11.98C11.2 12.73 12.27 13.1 13.33 13.1ZM16.49 13H18.06L18.7 11.43H21.66L22.3 13H23.91L20.91 5.95H19.49L16.49 13ZM19.25 10.07L20.18 7.8L21.11 10.07H19.25ZM24.9904 13H30.0204V11.6H26.5304V6H24.9904V13ZM31.1818 13H36.5118V11.63H32.7118V10.16H36.0118V8.79H32.7118V7.37H36.4618V6H31.1818V13Z" fill="white"/>
</svg>
