<svg width="14" height="14" viewBox="0 0 14 14" fill="none" xmlns="http://www.w3.org/2000/svg">
<path fill-rule="evenodd" clip-rule="evenodd" d="M10.2235 10.4871C9.14595 11.4448 7.73765 11.9448 6.29746 11.8812C4.85727 11.8176 3.49854 11.1953 2.50961 10.1464C1.52068 9.09749 0.979391 7.70451 1.0006 6.26307C1.02181 4.82164 1.60385 3.44519 2.62321 2.42583C3.64258 1.40647 5.01903 0.824423 6.46046 0.803213C7.9019 0.782003 9.29488 1.3233 10.3438 2.31222C11.3927 3.30115 12.015 4.65988 12.0786 6.10007C12.1422 7.54026 11.6421 8.94856 10.6845 10.0261L10.6905 10.0321L13.2985 12.6401C13.3598 12.7013 13.3942 12.7842 13.3943 12.8708C13.3944 12.9573 13.3601 13.0404 13.299 13.1016C13.2379 13.1629 13.1549 13.1974 13.0684 13.1974C12.9818 13.1975 12.8988 13.1632 12.8375 13.1021L10.2295 10.4931L10.2235 10.4871ZM10.0025 9.80311C10.6867 9.11915 11.1526 8.24766 11.3414 7.29886C11.5303 6.35007 11.4335 5.36658 11.0633 4.47279C10.6932 3.579 10.0663 2.81506 9.26193 2.27757C8.45758 1.74008 7.51191 1.4532 6.5445 1.4532C5.5771 1.4532 4.63142 1.74008 3.82707 2.27757C3.02272 2.81506 2.39583 3.579 2.02568 4.47279C1.65553 5.36658 1.55875 6.35007 1.74758 7.29886C1.9364 8.24766 2.40235 9.11915 3.0865 9.80311C4.00371 10.7201 5.24755 11.2352 6.5445 11.2352C7.84145 11.2352 9.0853 10.7201 10.0025 9.80311Z" fill="black" stroke="black"/>
</svg>
