<svg width="13" height="13" viewBox="0 0 13 13" fill="none" xmlns="http://www.w3.org/2000/svg">
<path d="M1.00791 1.00791C1.37295 0.642871 1.96428 0.642871 2.32932 1.00791L6.73413 5.41272L11.1389 1.00791C11.504 0.642871 12.0953 0.642871 12.4604 1.00791C12.8254 1.37295 12.8254 1.96428 12.4604 2.32932L8.05554 6.73413L12.4604 11.1389C12.8254 11.504 12.8254 12.0953 12.4604 12.4604C12.0953 12.8254 11.504 12.8254 11.1389 12.4604L6.73413 8.05554L2.32932 12.4604C1.96428 12.8254 1.37295 12.8254 1.00791 12.4604C0.642871 12.0953 0.642871 11.504 1.00791 11.1389L5.41272 6.73413L1.00791 2.32932C0.642871 1.96428 0.642871 1.37295 1.00791 1.00791Z" fill="black"/>
</svg>
