<svg width="16" height="9" viewBox="0 0 16 9" fill="none" xmlns="http://www.w3.org/2000/svg">
<path fill-rule="evenodd" clip-rule="evenodd" d="M15.933 4.1813C15.0517 2.89248 13.8694 1.83805 12.4885 1.10944C11.1076 0.38082 9.56978 0 8.00845 0C6.44713 0 4.90936 0.38082 3.52847 1.10944C2.14758 1.83805 0.965241 2.89248 0.0839539 4.1813C0.0292253 4.26276 0 4.35865 0 4.45679C0 4.55492 0.0292253 4.65084 0.0839539 4.7323C0.902814 5.93866 1.98725 6.94132 3.25397 7.6633C3.31087 7.69628 3.37373 7.71773 3.43893 7.72638C3.50414 7.73503 3.5704 7.73071 3.63394 7.71371C3.69748 7.69671 3.75703 7.66738 3.8092 7.62732C3.86137 7.58726 3.90513 7.53728 3.93796 7.48029C3.9707 7.4238 3.99189 7.36138 4.00031 7.29663C4.00872 7.23188 4.00421 7.1661 3.987 7.10312C3.96979 7.04014 3.94023 6.98122 3.90005 6.92975C3.85988 6.87828 3.80988 6.83527 3.75296 6.80328C2.71818 6.21386 1.81823 5.4144 1.11096 4.4563C1.91048 3.37948 2.95094 2.50473 4.14908 1.90204C5.34722 1.29935 6.66977 0.985474 8.01096 0.985474C9.35214 0.985474 10.6747 1.29935 11.8729 1.90204C13.071 2.50473 14.1115 3.37948 14.911 4.4563C13.8704 5.86058 12.4258 6.9137 10.7705 7.47482C9.11517 8.03594 7.32803 8.07833 5.64798 7.59631C5.52081 7.55949 5.38423 7.5746 5.26819 7.63834C5.15215 7.70207 5.0661 7.80923 5.02896 7.93631C4.99406 8.06306 5.01048 8.19844 5.07468 8.31317C5.13887 8.4279 5.2457 8.51272 5.37198 8.54929C7.31073 9.10572 9.37563 9.03623 11.2726 8.35071C13.1695 7.66518 14.8018 6.39858 15.937 4.73129C15.9914 4.64974 16.0201 4.55374 16.0194 4.45569C16.0187 4.35764 15.9886 4.26206 15.933 4.1813ZM8.00897 6.9353C8.4984 6.93116 8.97564 6.78221 9.38055 6.50726C9.78547 6.23231 10.0999 5.84367 10.2843 5.39029C10.4687 4.9369 10.5147 4.43908 10.4167 3.95956C10.3186 3.48005 10.0807 3.0403 9.73312 2.69574C9.38551 2.35118 8.94368 2.11723 8.46332 2.02338C7.98296 1.92953 7.48555 1.97998 7.03381 2.16837C6.58208 2.35675 6.19622 2.67464 5.92487 3.08197C5.65351 3.4893 5.50879 3.96786 5.50897 4.45731C5.51452 5.11615 5.78055 5.74603 6.24896 6.20938C6.71737 6.67273 7.35011 6.93191 8.00897 6.9303V6.9353ZM8.00897 2.97031C8.30251 2.97287 8.58872 3.06226 8.83154 3.2272C9.07436 3.39215 9.26292 3.62526 9.37347 3.89719C9.48403 4.16912 9.51163 4.46769 9.45279 4.75528C9.39395 5.04287 9.25132 5.30661 9.04285 5.51328C8.83438 5.71994 8.5694 5.86026 8.28131 5.9166C7.99322 5.97293 7.69491 5.94275 7.42395 5.82983C7.15299 5.71691 6.92152 5.52632 6.7587 5.28207C6.59587 5.03783 6.50898 4.75085 6.50897 4.45731C6.51109 4.06087 6.67004 3.68137 6.95111 3.40179C7.23219 3.12222 7.61253 2.9653 8.00897 2.9653V2.97031Z" fill="black"/>
</svg>
