<svg width="16" height="16" viewBox="0 0 16 16" fill="none" xmlns="http://www.w3.org/2000/svg">
<path fill-rule="evenodd" clip-rule="evenodd" d="M14.41 4.04999H9.94C9.80739 4.04999 9.68021 4.10266 9.58645 4.19643C9.49268 4.2902 9.44 4.41738 9.44 4.54999C9.44 4.68259 9.49268 4.80977 9.58645 4.90354C9.68021 4.99731 9.80739 5.04999 9.94 5.04999H12.34L1 13.05V5.51999C1 5.38738 1.05268 5.2602 1.14645 5.16643C1.24021 5.07266 1.36739 5.01999 1.5 5.01999H1.93C2.66734 6.3904 3.56351 7.66921 4.6 8.82999C4.69515 8.92223 4.82247 8.97382 4.955 8.97382C5.08753 8.97382 5.21485 8.92223 5.31 8.82999C5.63 8.46999 8.42 5.30999 8.42 3.52999C8.42014 2.61733 8.06174 1.74116 7.42204 1.09023C6.78233 0.439298 5.91252 0.0657212 5 0.0499858C4.54574 0.0433751 4.09467 0.12681 3.67283 0.295473C3.25099 0.464136 2.86674 0.714686 2.54226 1.03266C2.21778 1.35063 1.9595 1.72973 1.78232 2.14806C1.60515 2.5664 1.51259 3.01569 1.51 3.46999C1.5101 3.66439 1.52683 3.85843 1.56 4.04999C1.16608 4.03625 0.782406 4.17708 0.490922 4.44241C0.199438 4.70773 0.0232534 5.07651 0 5.46999L0 14.47C0.00264058 14.8634 0.160787 15.2398 0.439931 15.5171C0.719074 15.7944 1.09655 15.95 1.49 15.95H14.41C14.8052 15.95 15.1842 15.793 15.4636 15.5136C15.743 15.2341 15.9 14.8552 15.9 14.46V5.51999C15.8922 5.12911 15.7321 4.75673 15.4538 4.48215C15.1755 4.20758 14.8009 4.05251 14.41 4.04999ZM5 1.04999C5.6517 1.06045 6.27332 1.32604 6.7314 1.78972C7.18947 2.2534 7.44747 2.8782 7.45 3.52999C7.45 4.47999 6.05 6.44999 4.97 7.73999C3.88 6.44999 2.48 4.47999 2.48 3.52999C2.48791 2.86777 2.75722 2.23552 3.22924 1.77099C3.70126 1.30646 4.33774 1.0473 5 1.04999ZM14.94 11.28L13.57 9.92999L14.91 8.92999V11.23L14.94 11.28ZM9.26 13.05L11.26 15.05H6.53L9.26 13.05ZM14.41 15.05H12.63L9.63 12.05H9.58L9.5 11.99H9.41H9.32H9.22H9.13H9.04H8.99L4.77 14.99H1.49C1.35739 14.99 1.23021 14.9373 1.13645 14.8435C1.04268 14.7498 0.99 14.6226 0.99 14.49V14.24C1.89 13.64 4.7 11.64 14.07 5.04999H14.41C14.5426 5.04999 14.6698 5.10266 14.7636 5.19643C14.8573 5.2902 14.91 5.41738 14.91 5.54999V7.73999L12.51 9.44999L12.43 9.56999C12.4205 9.62625 12.4205 9.68372 12.43 9.73999C12.4205 9.79625 12.4205 9.85372 12.43 9.90999C12.4475 9.94706 12.4711 9.98088 12.5 10.01L14.96 12.47V14.45C14.9604 14.5201 14.946 14.5895 14.9178 14.6536C14.8896 14.7178 14.8482 14.7753 14.7963 14.8225C14.7445 14.8696 14.6833 14.9053 14.6167 14.9273C14.5502 14.9493 14.4797 14.957 14.41 14.95V15.05ZM6.46 3.51999C6.45204 3.22586 6.35718 2.94068 6.18738 2.70039C6.01758 2.4601 5.78043 2.27546 5.50584 2.16975C5.23125 2.06405 4.93151 2.04201 4.64441 2.10641C4.35732 2.17081 4.09571 2.31877 3.89259 2.53164C3.68946 2.7445 3.5539 3.01274 3.50301 3.30254C3.45211 3.59234 3.48815 3.89072 3.60659 4.16006C3.72503 4.4294 3.92057 4.65765 4.16854 4.81602C4.41651 4.97439 4.70582 5.0558 5 5.04999C5.19568 5.04609 5.38868 5.00367 5.56796 4.92517C5.74725 4.84666 5.90931 4.7336 6.04489 4.59245C6.18047 4.45129 6.28692 4.28481 6.35814 4.10251C6.42937 3.92021 6.46398 3.72567 6.46 3.52999V3.51999ZM4.46 3.51999C4.47025 3.38643 4.53264 3.26226 4.63368 3.17432C4.73472 3.08637 4.8663 3.04171 5 3.04999C5.13261 3.04999 5.25979 3.10266 5.35355 3.19643C5.44732 3.2902 5.5 3.41738 5.5 3.54999C5.5 3.68259 5.44732 3.80977 5.35355 3.90354C5.25979 3.99731 5.13261 4.04999 5 4.04999C4.86739 4.04999 4.74021 3.99731 4.64645 3.90354C4.55268 3.80977 4.5 3.68259 4.5 3.54999L4.46 3.51999Z" fill="black"/>
</svg>
