<svg width="11" height="26" viewBox="0 0 11 26" fill="none" xmlns="http://www.w3.org/2000/svg">
<path fill-rule="evenodd" clip-rule="evenodd" d="M9.99 10.86L8.07 6.19L7.76 0.86C7.87132 0.827311 7.96571 0.75289 8.02347 0.652272C8.08123 0.551654 8.0979 0.432614 8.07 0.32C8.04454 0.230012 7.99107 0.150478 7.91734 0.0929376C7.84362 0.0353971 7.75348 0.00284342 7.66 0L4.41 0C4.35353 0.00129805 4.29786 0.0137104 4.24619 0.036528C4.19451 0.0593455 4.14784 0.092121 4.10884 0.132982C4.06983 0.173843 4.03926 0.221988 4.01887 0.274668C3.99848 0.327347 3.98867 0.383528 3.99 0.44C3.98571 0.535266 4.01559 0.628931 4.07427 0.704108C4.13294 0.779284 4.21654 0.831024 4.31 0.85L3.99 6.2L2.08 10.78H1.34C1.2674 10.7824 1.19674 10.804 1.13524 10.8427C1.07375 10.8813 1.02362 10.9356 0.99 11L0.07 12.54C0.0336927 12.5978 0.00985038 12.6625 0 12.73V23.06C0.0100311 23.1244 0.0339144 23.1858 0.07 23.24L0.99 24.79C1.02243 24.8503 1.0698 24.9013 1.12758 24.9381C1.18536 24.9749 1.25162 24.9962 1.32 25H8.32C8.52633 25.0192 8.73443 24.9974 8.93229 24.9358C9.13015 24.8742 9.31386 24.7741 9.47283 24.6411C9.63179 24.5082 9.76287 24.3451 9.8585 24.1613C9.95413 23.9774 10.0124 23.7765 10.03 23.57C10.04 23.4736 10.04 23.3764 10.03 23.28V11.06C10.0362 10.9909 10.0223 10.9214 9.99 10.86ZM1.99 23.46C2.00257 23.6955 2.06029 23.9263 2.16 24.14H1.56L1.16 23.46H1.99ZM1.18 12.34L1.58 11.65H1.99V12.34H1.18ZM2 13.21V22.58H0.85V13.21H2ZM9.2 21.43V23.28C9.22866 23.4762 9.17848 23.6757 9.06042 23.835C8.94236 23.9943 8.76604 24.1004 8.57 24.13C8.49029 24.1396 8.40971 24.1396 8.33 24.13H3.71C3.51787 24.162 3.32088 24.1169 3.16175 24.0046C3.00263 23.8923 2.89421 23.7217 2.86 23.53C2.85502 23.4634 2.85502 23.3966 2.86 23.33V21.42H9.2V21.43ZM5.05 2.1L5.15 0.87H6.91L6.99 2.1H5.05ZM2.85 13.52V11.18L4.79 6.52C4.8044 6.46425 4.8044 6.40575 4.79 6.35L4.99 3H7.08L7.24 6.38C7.2256 6.43575 7.2256 6.49425 7.24 6.55L9.16 11.21V13.56L2.85 13.52ZM9.19 14.38V20.61H2.85V14.38H9.19Z" fill="black"/>
</svg>
