<svg width="17" height="17" viewBox="0 0 17 17" fill="none" xmlns="http://www.w3.org/2000/svg">
<path fill-rule="evenodd" clip-rule="evenodd" d="M15.92 10.92L12.27 9.51C12.1811 9.47546 12.0844 9.46653 11.9907 9.4842C11.897 9.50188 11.8102 9.54546 11.74 9.61C11.1463 10.1892 10.6559 10.8656 10.29 11.61C9.00005 11.228 7.8519 10.473 6.99 9.44C5.9548 8.54298 5.20118 7.36566 4.82 6.05C5.56826 5.6777 6.24523 5.17674 6.82 4.57C6.88172 4.50023 6.92356 4.41516 6.94115 4.32368C6.95874 4.23221 6.95144 4.13768 6.92 4.05L5.49 0.329998C5.45087 0.230145 5.38181 0.144836 5.2923 0.0857591C5.20279 0.026682 5.0972 -0.00327315 4.99 -2.13244e-06C3.58792 0.0556675 2.26037 0.646088 1.28 1.65C0.763041 2.19538 0.385011 2.85723 0.177879 3.57958C-0.0292522 4.30193 -0.0593939 5.06354 0.0900033 5.8C0.400003 7.86 1.73 10.08 3.99 12.41C7.31 15.77 9.86 16.48 11.4 16.48H11.49C12.6575 16.4734 13.7751 16.0062 14.6 15.18C15.6022 14.1686 16.1815 12.8133 16.22 11.39C16.221 11.291 16.1932 11.1938 16.1399 11.1104C16.0866 11.0269 16.0102 10.9608 15.92 10.92ZM4.67 1.06L5.81 4.06C5.30437 4.55377 4.71962 4.95938 4.08 5.26C3.99166 5.29885 3.91588 5.36152 3.86113 5.441C3.80638 5.52047 3.77483 5.61361 3.77 5.71C3.77 6.03 3.85 7.76 6.22 10.17C8.59 12.58 10.3 12.68 10.62 12.65C10.7139 12.645 10.8043 12.6131 10.8805 12.5582C10.9568 12.5032 11.0156 12.4275 11.05 12.34C11.3334 11.6968 11.722 11.1053 12.2 10.59L15.2 11.75C15.0721 12.7684 14.6198 13.7186 13.91 14.46C12.36 16 9.13 16.13 4.75 11.67C2.6 9.51 1.38 7.47 1.1 5.67C0.96594 5.09073 0.977033 4.48731 1.1323 3.91335C1.28756 3.3394 1.58219 2.81268 1.99 2.38C2.7125 1.65534 3.65514 1.19106 4.67 1.06Z" fill="black"/>
</svg>
