<svg width="13" height="14" viewBox="0 0 13 14" fill="none" xmlns="http://www.w3.org/2000/svg">
<path fill-rule="evenodd" clip-rule="evenodd" d="M3.702 5.29501C3.80504 5.29523 3.90654 5.27001 3.99749 5.22159C4.08844 5.17316 4.16604 5.10303 4.22338 5.01743C4.28073 4.93182 4.31606 4.83337 4.32624 4.73083C4.33641 4.6283 4.32112 4.52483 4.28172 4.42963C4.24232 4.33442 4.18002 4.25038 4.10036 4.18503C4.0207 4.11967 3.92614 4.07501 3.82507 4.05496C3.724 4.03492 3.61954 4.04012 3.52096 4.07013C3.42239 4.10014 3.33275 4.15402 3.26 4.22699C3.14294 4.3445 3.07721 4.50362 3.07721 4.66949C3.07721 4.83537 3.14294 4.99445 3.26 5.11197C3.31788 5.17022 3.38676 5.21642 3.46264 5.24783C3.53851 5.27925 3.61988 5.2953 3.702 5.29501ZM12.002 6.35202L7.084 1.42099C6.79199 1.12962 6.39651 0.96568 5.984 0.964996H1.561C1.14707 0.96579 0.750331 1.13064 0.45773 1.42343C0.165129 1.71622 0.000529204 2.11308 6.38695e-07 2.52701V6.94699C-0.000184962 7.15217 0.0400821 7.35541 0.118498 7.54501C0.196915 7.73462 0.311941 7.90686 0.456999 8.05197L5.382 12.982C5.67472 13.2746 6.07164 13.4389 6.4855 13.4389C6.89936 13.4389 7.29628 13.2746 7.589 12.982L12.004 8.56198C12.2962 8.26849 12.4602 7.87129 12.4604 7.45718C12.4606 7.04308 12.2969 6.64577 12.005 6.35202H12.002ZM0.656001 2.526C0.657573 2.28779 0.752899 2.05977 0.921342 1.89133C1.08978 1.72288 1.31779 1.62758 1.556 1.62601H5.974C6.21241 1.62675 6.44079 1.72204 6.609 1.89099L11.534 6.82101C11.7024 6.99087 11.7968 7.22034 11.7968 7.4595C11.7968 7.69866 11.7024 7.92813 11.534 8.09799L7.119 12.517C6.94735 12.6815 6.71877 12.7734 6.481 12.7734C6.24323 12.7734 6.01465 12.6815 5.843 12.517L0.918 7.58597C0.834165 7.50224 0.767688 7.40279 0.722384 7.2933C0.67708 7.18382 0.653841 7.06645 0.654 6.94797V2.52798L0.656001 2.526Z" fill="black"/>
</svg>
