<svg width="100" height="71" viewBox="0 0 100 71" fill="none" xmlns="http://www.w3.org/2000/svg">
<g clip-path="url(#clip0_8755_8207)">
<path d="M27.4633 40.5883H47.4965C47.7766 40.5883 47.8969 40.468 47.8969 40.1894V34.8064C47.8969 34.5673 47.817 34.407 47.4965 34.407H34.0742V27.4293H44.6921C44.9722 27.4293 45.0925 27.309 45.0925 27.0299V21.8462C45.0925 21.6065 45.0126 21.4477 44.6921 21.4477H34.0742V14.6693H47.4965C47.7766 14.6693 47.8979 14.5494 47.8979 14.2698V9.08613C47.8979 8.84697 47.817 8.68719 47.4965 8.68719H27.4638C27.2237 8.68719 27.0629 8.80653 27.0629 9.08613L27.0624 40.1894C27.0624 40.4285 27.1828 40.5883 27.4633 40.5883" fill="white"/>
<path d="M52.4682 40.5883H72.4994C72.7805 40.5883 72.9008 40.468 72.9008 40.1894V34.8064C72.9008 34.5673 72.8209 34.407 72.4994 34.407H59.0785V27.4293H69.696C69.9761 27.4293 70.0959 27.309 70.0959 27.0299V21.8462C70.0959 21.6065 70.0155 21.4477 69.696 21.4477H59.0785V14.6693H72.4994C72.7805 14.6693 72.9008 14.5494 72.9008 14.2698V9.08613C72.9008 8.84697 72.8209 8.68719 72.4994 8.68719H52.4682C52.2266 8.68719 52.0668 8.80653 52.0668 9.08613V40.1894C52.0668 40.4285 52.1862 40.5883 52.4682 40.5883" fill="white"/>
<path d="M92.3472 22.2453C92.3472 23.1221 91.9069 23.4411 91.1455 23.4411H83.9336V14.669H91.1455C91.9069 14.669 92.3472 14.988 92.3472 15.8653V22.2453ZM99.9596 39.9898L95.5126 28.4665C98.277 27.3092 99.3595 25.7149 99.3595 21.4479V15.4658C99.1987 10.6012 96.5151 8.68689 92.147 8.68689H77.3233C77.0831 8.68689 76.9219 8.80671 76.9219 9.08632V40.1891C76.9219 40.4287 77.0422 40.5885 77.3233 40.5885H83.5332C83.7738 40.5885 83.9336 40.4682 83.9336 40.1891V29.4222H88.9403L92.5879 39.9898C92.7871 40.5885 92.9888 40.5885 93.5904 40.5885H99.5592C99.7594 40.5885 100 40.5081 100 40.2295C100 40.1891 100 40.1092 99.9596 39.9898" fill="white"/>
<path d="M37.1352 45.194H20.155C19.9085 45.194 19.7605 45.3409 19.7605 45.587V49.7401C19.7605 49.9856 19.9085 50.1331 20.155 50.1331H25.8368V69.7732C25.8368 70.0188 25.9837 70.1667 26.2308 70.1667H31.059C31.307 70.1667 31.4544 70.0188 31.4544 69.7732V50.1331H37.1352C37.3852 50.1331 37.5297 49.9891 37.5297 49.7401V45.587C37.5297 45.3409 37.3818 45.194 37.1352 45.194" fill="white"/>
<path d="M50.0004 65.783H47.3518C46.0638 65.783 45.4104 65.1315 45.4104 63.8499V51.4789C45.4104 50.1958 46.0638 49.5464 47.3518 49.5464H50.0004C50.8865 49.5464 51.9413 49.8817 51.9413 51.4789V63.8499C51.9413 65.1315 51.2884 65.783 50.0004 65.783ZM55.4361 46.3963C54.1333 45.2898 52.1992 44.7291 49.6892 44.7291H47.6635C45.1698 44.7291 43.2278 45.3356 41.8915 46.529C40.4979 47.7751 39.7923 49.6376 39.7923 52.0672V63.8499C39.7923 66.1612 40.5231 67.9073 41.9655 69.0395C43.2846 70.0746 45.2018 70.5988 47.6635 70.5988H49.6892C52.1514 70.5988 54.0672 70.0746 55.3868 69.0395C56.8292 67.9073 57.5595 66.1612 57.5595 63.8499V51.9439C57.5595 49.4591 56.8459 47.5921 55.4361 46.3963" fill="white"/>
<path d="M73.6276 50.8588V55.8211C73.6276 56.4129 73.3732 56.6668 72.777 56.6668H67.2516V50.0112H72.777C73.3732 50.0112 73.6276 50.2646 73.6276 50.8588M76.2787 60.7021C77.3986 60.2223 78.0988 59.6571 78.5451 58.8755C79.0293 58.0298 79.2458 56.8952 79.2458 55.1983V50.5452C79.126 46.9444 77.2664 45.1938 73.5552 45.1938H62.0274C61.7809 45.1938 61.6324 45.3408 61.6324 45.5869V69.7731C61.6324 70.0191 61.7809 70.1666 62.0274 70.1666H66.8566C67.1036 70.1666 67.2516 70.0191 67.2516 69.7731V61.4842H71.0032L73.8185 69.6434C73.994 70.1666 74.2071 70.1666 74.6765 70.1666H79.3183C79.5811 70.1666 79.7439 70.0275 79.7439 69.8031C79.7439 69.7691 79.7439 69.6971 79.7069 69.5872L76.2787 60.7021H76.2787Z" fill="white"/>
<path d="M98.9696 45.1986H83.3914C83.1473 45.1986 83.0008 45.3431 83.0008 45.5872V69.7729C83.0008 70.0165 83.1473 70.162 83.3914 70.162H98.9696C99.2325 70.162 99.3597 70.0347 99.3597 69.7729V65.5873C99.3597 65.3249 99.2325 65.1967 98.9696 65.1967H88.6116V59.9297H96.789C97.0514 59.9297 97.1781 59.8024 97.1781 59.5406V55.5083C97.1781 55.2475 97.0514 55.1197 96.789 55.1197H88.6116V50.0071H98.9696C99.2325 50.0071 99.3597 49.8803 99.3597 49.6185V45.5872C99.3597 45.3244 99.2325 45.1986 98.9696 45.1986" fill="white"/>
<path d="M0.855127 5.01209H21.3345C21.5599 5.01209 21.7152 4.86416 21.7152 4.61907V1.71508C21.7152 0.770247 20.945 0 19.9977 0H2.18656C1.23779 0 0.469009 0.770249 0.469009 1.71212V4.61907C0.469009 4.87747 0.642095 5.01209 0.855127 5.01209" fill="white"/>
<path d="M11.7743 55.5688L7.7297 54.1747C6.31543 53.7072 5.7651 52.9912 5.7651 51.6218V51.4689C5.7651 50.1878 6.4175 49.5389 7.70357 49.5389H10.5035C11.7901 49.5389 12.4425 50.1878 12.4425 51.4689V52.3965C12.4425 52.6426 12.5894 52.7895 12.836 52.7895H17.5024C17.749 52.7895 17.8959 52.6426 17.8959 52.3965V51.9014C17.8959 47.1423 15.2523 44.7294 10.0365 44.7294H8.01473C5.51805 44.7294 3.57465 45.3379 2.24026 46.5382C0.857051 47.7828 0.155334 49.6385 0.155334 52.0577C0.250508 56.2937 2.08246 57.6571 6.4323 59.2859L10.4759 60.6765C11.8912 61.1795 12.4425 61.8955 12.4425 63.2314V63.8503C12.4425 65.1309 11.7901 65.7799 10.5035 65.7799H7.39339C6.10634 65.7799 5.45394 65.1309 5.45394 63.8503V62.4572C5.45394 62.2116 5.30699 62.0647 5.05993 62.0647H0.394008C0.14794 62.0647 0 62.2116 0 62.4572V63.2625C0 65.7942 0.706155 67.6892 2.09775 68.8979C3.40945 70.0365 5.29368 70.5893 7.8594 70.5893H10.1919C12.7112 70.5893 14.6453 70.0207 15.9422 68.8979C17.3421 67.6868 18.0518 65.7907 18.0518 63.2625C18.0518 58.6749 16.4072 57.2587 11.7743 55.5688" fill="white"/>
<path d="M7.47639 27.2292H14.6888C15.4093 27.2292 15.8901 27.668 15.8901 28.4265V33.411C15.8901 34.2872 15.4093 34.6068 14.6888 34.6068H7.47639V27.2292ZM7.47639 14.6693H14.6888C15.4093 14.6693 15.8901 14.9879 15.8901 15.8652V20.4507C15.8901 21.3275 15.4896 21.647 14.7283 21.647H7.47639V14.6693ZM0.865586 8.68726C0.625436 8.68726 0.464676 8.80658 0.464676 9.08619V40.1894C0.464676 40.4281 0.584999 40.5884 0.865586 40.5884H15.6898C20.1378 40.5884 22.9008 38.5552 22.9008 33.411V30.0212C22.9008 27.0299 22.3002 25.4357 19.4963 24.4386C22.2208 23.6407 22.9008 22.0854 22.9008 18.9753V15.8652C22.9008 10.7204 20.1378 8.68726 15.6898 8.68726H0.865586V8.68726Z" fill="url(#paint0_linear_8755_8207)"/>
</g>
<defs>
<linearGradient id="paint0_linear_8755_8207" x1="-2.64562" y1="12.0026" x2="22.6247" y2="37.2724" gradientUnits="userSpaceOnUse">
<stop stop-color="#E08727"/>
<stop offset="0.52021" stop-color="#F9C048"/>
<stop offset="1" stop-color="#FFF0A5"/>
</linearGradient>
<clipPath id="clip0_8755_8207">
<rect width="100" height="70.5988" fill="white"/>
</clipPath>
</defs>
</svg>
