<svg width="6" height="4" viewBox="0 0 6 4" fill="none" xmlns="http://www.w3.org/2000/svg">
<path fill-rule="evenodd" clip-rule="evenodd" d="M2.52188 3.86293C2.47783 3.90504 2.42479 3.93869 2.36594 3.96185C2.3071 3.98502 2.24366 3.99722 2.17945 3.99773C2.11524 3.99823 2.05158 3.98704 1.99229 3.96481C1.933 3.94258 1.87931 3.90977 1.83445 3.86837V3.86837L0.152034 2.29228C0.103899 2.24977 0.0656586 2.19904 0.0395526 2.14305C0.0134467 2.08705 0 2.02693 0 1.96619C0 1.90546 0.0134467 1.84533 0.0395526 1.78934C0.0656586 1.73335 0.103899 1.68261 0.152034 1.64011C0.24119 1.56078 0.361427 1.5163 0.486707 1.5163C0.611987 1.5163 0.732225 1.56078 0.82138 1.64011L2.17213 2.92271L5.18721 0.123801C5.27637 0.0444779 5.3966 0 5.52188 0C5.64716 0 5.7674 0.0444779 5.85656 0.123801V0.123801C5.94611 0.207817 5.99612 0.3198 5.99612 0.436301C5.99612 0.552802 5.94611 0.664786 5.85656 0.748801L2.52188 3.86293Z" fill="white"/>
</svg>
