<svg width="49" height="48" viewBox="0 0 49 48" fill="none" xmlns="http://www.w3.org/2000/svg">
<path d="M18.5462 15.9246L17.4856 14.864L18.5462 13.8033C18.8275 13.522 18.9856 13.1405 18.9856 12.7426C18.9856 12.3448 18.8275 11.9633 18.5462 11.682C18.2649 11.4007 17.8834 11.2426 17.4856 11.2426C17.0878 11.2426 16.7062 11.4007 16.4249 11.682L15.3643 12.7426L14.3036 11.682C14.0223 11.4007 13.6408 11.2426 13.2429 11.2426C12.8451 11.2426 12.4636 11.4007 12.1823 11.682C11.901 11.9633 11.7429 12.3448 11.7429 12.7426C11.7429 13.1405 11.901 13.522 12.1823 13.8033L13.2429 14.864L12.1823 15.9246C11.901 16.2059 11.7429 16.5875 11.7429 16.9853C11.7429 17.3831 11.901 17.7646 12.1823 18.0459C12.4636 18.3272 12.8451 18.4853 13.2429 18.4853C13.6408 18.4853 14.0223 18.3272 14.3036 18.0459L15.3643 16.9853L16.4249 18.0459C16.7062 18.3272 17.0878 18.4853 17.4856 18.4853C17.8834 18.4853 18.2649 18.3272 18.5462 18.0459C18.8275 17.7646 18.9856 17.3831 18.9856 16.9853C18.9856 16.5875 18.8275 16.2059 18.5462 15.9246Z" fill="#BF1332"/>
<path d="M30.0952 18.4049C30.8377 15.2297 30.5254 11.899 29.2055 8.91727C27.8855 5.9355 25.6299 3.46506 22.7801 1.88011C19.9303 0.29515 16.6417 -0.317995 13.4123 0.13353C10.1828 0.585054 7.18845 2.07665 4.88268 4.38243C2.5769 6.68821 1.0853 9.68256 0.633774 12.912C0.182249 16.1415 0.795395 19.4301 2.38035 22.2799C3.96531 25.1296 6.43574 27.3853 9.41751 28.7052C12.3993 30.0252 15.73 30.3375 18.9052 29.5949C18.3941 31.8223 18.3987 34.1369 18.9186 36.3622C19.4386 38.5875 20.4601 40.6646 21.9052 42.4349C22.03 42.5879 22.1839 42.7147 22.3578 42.8081C22.5318 42.9015 22.7225 42.9596 22.919 42.9791C23.1156 42.9986 23.314 42.9792 23.5029 42.9218C23.6919 42.8645 23.8677 42.7704 24.0202 42.6449C24.327 42.3953 24.5228 42.0345 24.5649 41.6412C24.607 41.2479 24.4921 40.8539 24.2452 40.5449C22.3881 38.2404 21.4482 35.3309 21.606 32.3754C21.7639 29.42 23.0083 26.6271 25.1003 24.5335C27.1922 22.4399 29.9841 21.1932 32.9394 21.033C35.8947 20.8728 38.805 21.8104 41.111 23.6656C43.417 25.5208 44.9561 28.1628 45.4325 31.0838C45.9089 34.0049 45.289 36.999 43.692 39.4907C42.0949 41.9825 39.6334 43.7962 36.7803 44.5833C33.9272 45.3704 30.8839 45.0754 28.2352 43.7549C27.8791 43.5781 27.4674 43.5498 27.0905 43.6764C26.7136 43.803 26.4023 44.074 26.2252 44.4299C26.1259 44.6054 26.0631 44.799 26.0404 44.9993C26.0176 45.1995 26.0355 45.4023 26.0929 45.5956C26.1503 45.7888 26.2461 45.9684 26.3745 46.1238C26.5028 46.2792 26.6612 46.4071 26.8402 46.4999C28.9957 47.5718 31.3776 48.1092 33.7846 48.0666C36.1916 48.0239 38.553 47.4026 40.6693 46.2551C42.7855 45.1075 44.5945 43.4675 45.9434 41.4735C47.2922 39.4795 48.1414 37.1902 48.419 34.7989C48.6966 32.4076 48.3946 29.9846 47.5385 27.7346C46.6824 25.4846 45.2973 23.4737 43.5003 21.8718C41.7032 20.2699 39.547 19.124 37.2138 18.5311C34.8806 17.9381 32.439 17.9154 30.0952 18.4649V18.4049ZM20.2402 26.0099C17.6771 27.1146 14.8092 27.2915 12.1299 26.5099C9.45061 25.7284 7.12752 24.0373 5.56043 21.7279C3.99334 19.4184 3.28026 16.6349 3.54391 13.8564C3.80757 11.0779 5.03146 8.47823 7.00497 6.50472C8.97848 4.53122 11.5782 3.30732 14.3567 3.04367C17.1351 2.78002 19.9186 3.49309 22.2281 5.06018C24.5376 6.62728 26.2286 8.95037 27.0102 11.6297C27.7917 14.309 27.6149 17.1769 26.5102 19.7399C23.8361 21.1503 21.6505 23.3358 20.2402 26.0099Z" fill="#BF1332"/>
<path d="M38 39C37.8026 39.0011 37.6069 38.9633 37.4242 38.8887C37.2414 38.814 37.0752 38.704 36.935 38.565L32.435 34.065C32.296 33.9248 32.186 33.7586 32.1114 33.5759C32.0367 33.3931 31.9989 33.1974 32 33V27C32 26.6022 32.1581 26.2206 32.4394 25.9393C32.7207 25.658 33.1022 25.5 33.5 25.5C33.8979 25.5 34.2794 25.658 34.5607 25.9393C34.842 26.2206 35 26.6022 35 27V32.385L39.065 36.435C39.2766 36.6448 39.4208 36.9129 39.4794 37.205C39.5381 37.4971 39.5083 37.8001 39.3941 38.0752C39.2798 38.3504 39.0862 38.5853 38.8379 38.75C38.5897 38.9147 38.298 39.0017 38 39Z" fill="#BF1332"/>
</svg>
