<svg width="17" height="16" viewBox="0 0 17 16" fill="none" xmlns="http://www.w3.org/2000/svg">
<path fill-rule="evenodd" clip-rule="evenodd" d="M8.2765 15.113C7.92052 15.1112 7.57735 14.98 7.31084 14.744C5.63862 13.2524 2.6553 10.5281 1.65039 9.02863C0.881168 8.09324 0.425287 6.93981 0.347154 5.73128C0.347152 4.44585 0.857246 3.21296 1.76544 2.3033C2.67364 1.39363 3.9057 0.88154 5.19112 0.87946C6.34059 0.869729 7.45522 1.27378 8.33145 2.01783C9.00063 1.457 9.80894 1.08747 10.6709 0.948317C11.5328 0.809166 12.4164 0.905573 13.228 1.22734C14.0397 1.54911 14.7493 2.08427 15.2818 2.77622C15.8143 3.46816 16.1498 4.29117 16.2529 5.15817C16.3943 6.37463 16.0719 7.59967 15.3501 8.58898C14.1646 10.2455 10.7181 13.4408 9.2814 14.7362C9.00726 14.9862 8.64743 15.1211 8.2765 15.113ZM5.19112 1.86081C4.16461 1.86081 3.18014 2.26859 2.45429 2.99445C1.72844 3.7203 1.32066 4.70477 1.32066 5.73128C1.40978 6.73981 1.80724 7.69645 2.45903 8.47122C3.47179 9.93932 6.64352 12.8363 7.95461 14.0139C8.043 14.0902 8.15584 14.1321 8.27257 14.1321C8.3893 14.1321 8.50215 14.0902 8.59053 14.0139C9.99583 12.7342 13.3874 9.60174 14.5101 8.02372C15.0799 7.22791 15.3319 6.24792 15.2166 5.27593C15.0998 4.37116 14.6714 3.53535 14.0052 2.91212C13.339 2.28889 12.4765 1.91716 11.566 1.86081C11.026 1.83809 10.4873 1.92987 9.98534 2.13013C9.48335 2.33038 9.02941 2.63458 8.65334 3.02274L8.30005 3.37603L7.95461 3.02274C7.59657 2.65215 7.16704 2.35809 6.69203 2.15837C6.21701 1.95865 5.7064 1.85742 5.19112 1.86081ZM8.2765 15.1601C7.90762 15.1617 7.55166 15.0244 7.27944 14.7754C5.60721 13.2838 2.64745 10.5595 1.61114 9.05218C0.839125 8.10865 0.380791 6.94772 0.300049 5.73128C0.304189 4.43536 0.820826 3.1937 1.73718 2.27734C2.65354 1.36098 3.8952 0.844347 5.19112 0.840206C6.3386 0.826092 7.45299 1.22449 8.33145 1.96288C9.06014 1.37207 9.94336 1.00329 10.8758 0.900491C11.8083 0.797694 12.7506 0.965219 13.5905 1.3831C14.4304 1.80097 15.1324 2.45157 15.6128 3.25732C16.0932 4.06307 16.3318 4.98998 16.3 5.92755C16.2587 6.89848 15.9309 7.83545 15.3579 8.62038C14.1646 10.2848 10.7103 13.4722 9.2814 14.7676C9.00673 15.0186 8.64857 15.1585 8.2765 15.1601ZM5.19112 0.934416C3.91955 0.936492 2.70066 1.44254 1.80152 2.34168C0.902384 3.24081 0.396335 4.45971 0.394259 5.73128C0.478118 6.92765 0.930671 8.06863 1.68965 8.99722C2.72596 10.4967 5.67787 13.2131 7.3658 14.7048C7.62439 14.9343 7.95818 15.0611 8.30397 15.0611C8.64977 15.0611 8.98356 14.9343 9.24215 14.7048C10.671 13.4094 14.1175 10.222 15.303 8.56543C16.0188 7.58843 16.3385 6.37683 16.198 5.17387C16.0563 4.03867 15.5175 2.99024 14.6769 2.21429C13.8363 1.43834 12.7481 0.984945 11.6052 0.934416C10.4121 0.886682 9.24423 1.28717 8.33145 2.05709C7.4566 1.31243 6.33978 0.913166 5.19112 0.934416ZM8.2765 14.1866C8.14884 14.1862 8.02583 14.1387 7.93106 14.0532C6.58072 12.8677 3.44038 9.97073 2.41192 8.50262C1.75817 7.71688 1.36088 6.74969 1.27355 5.73128C1.27355 4.69019 1.68712 3.69175 2.42328 2.95559C3.15944 2.21943 4.15788 1.80586 5.19897 1.80586C5.72019 1.80342 6.23651 1.9065 6.71683 2.10889C7.19716 2.31127 7.63156 2.60878 7.99387 2.98348L8.3079 3.30537L8.62193 2.98348C9.17745 2.42584 9.88779 2.04808 10.6607 1.89925C11.4337 1.75042 12.2335 1.8374 12.9564 2.1489C13.6792 2.46039 14.2918 2.98201 14.7144 3.64604C15.1371 4.31006 15.3504 5.08582 15.3265 5.87259C15.2876 6.65715 15.0141 7.41197 14.5415 8.03942C13.4109 9.60959 10.0194 12.7499 8.61408 14.0375C8.51651 14.1235 8.39089 14.171 8.2608 14.1709L8.2765 14.1866ZM5.19112 1.90792C4.1771 1.90792 3.20462 2.31074 2.4876 3.02776C1.77058 3.74477 1.36776 4.71726 1.36776 5.73128C1.46139 6.72783 1.85565 7.67241 2.49828 8.43981C3.50319 9.90792 6.67493 12.797 7.99387 13.9747C8.07077 14.0458 8.17171 14.0854 8.2765 14.0854C8.38129 14.0854 8.48222 14.0458 8.55913 13.9747C9.96443 12.7028 13.3481 9.57033 14.4787 7.99232C15.0674 7.21563 15.3365 6.24312 15.231 5.27427C15.1254 4.30543 14.6531 3.4137 13.911 2.78202C13.1688 2.15034 12.2131 1.8266 11.2398 1.8772C10.2665 1.9278 9.34953 2.34891 8.67689 3.05414L8.2922 3.44668L7.91536 3.05414C7.56059 2.69116 7.13683 2.40277 6.66899 2.20592C6.20115 2.00908 5.69868 1.90776 5.19112 1.90792Z" fill="black"/>
<path fill-rule="evenodd" clip-rule="evenodd" d="M9.2421 14.7047C9.23883 14.7076 9.23555 14.7105 9.23226 14.7134C9.23219 14.7134 9.23233 14.7133 9.23226 14.7134C8.9751 14.9374 8.64525 15.0611 8.30393 15.0611C8.29514 15.0611 8.28636 15.061 8.27759 15.0608C8.2773 15.0608 8.27787 15.0608 8.27759 15.0608C8.27735 15.0608 8.27625 15.0608 8.27602 15.0608C8.27602 15.0608 8.27602 15.0608 8.27602 15.0608C7.94022 15.0542 7.61738 14.9281 7.36575 14.7047C7.36204 14.7015 7.35832 14.6982 7.3546 14.6949C7.35454 14.6948 7.35466 14.6949 7.3546 14.6949C7.35437 14.6947 7.35396 14.6943 7.35373 14.6941C7.35339 14.6938 7.35305 14.6935 7.35271 14.6932C5.66397 13.2003 2.7278 10.497 1.69201 9.00066C1.69136 8.99972 1.69071 8.99878 1.69006 8.99784C1.6899 8.99762 1.69021 8.99806 1.69006 8.99784C1.68991 8.99766 1.68931 8.99682 1.68917 8.99665C1.6878 8.99497 1.68643 8.99329 1.68506 8.99161C0.92888 8.0641 0.477978 6.9254 0.394231 5.73153C0.394224 5.73143 0.394238 5.73163 0.394231 5.73153C0.394233 5.73051 0.394214 5.7292 0.394216 5.72818C0.394218 5.72711 0.394221 5.72604 0.394224 5.72497C0.397947 4.45566 0.903809 3.23929 1.80147 2.34163C1.80186 2.34123 1.80226 2.34084 1.80265 2.34045C2.70167 1.44205 3.92006 0.936443 5.19107 0.934368C5.1911 0.934367 5.19104 0.934368 5.19107 0.934368C5.1913 0.934363 5.192 0.93435 5.19223 0.934346C6.32026 0.913755 7.41753 1.29871 8.28499 2.01804C8.29402 2.02553 8.30303 2.03306 8.31201 2.04062C8.31849 2.04607 8.32495 2.05155 8.3314 2.05704C8.33783 2.05162 8.34427 2.04621 8.35072 2.04083C8.35946 2.03354 8.36821 2.02628 8.377 2.01906C9.04168 1.47236 9.83719 1.1187 10.6772 0.987658C10.7453 0.977033 10.8137 0.967873 10.8824 0.960191C11.121 0.933489 11.3626 0.92466 11.6052 0.934368C12.159 0.958852 12.7 1.07793 13.2061 1.28247C13.3264 1.33108 13.4447 1.38452 13.5608 1.44266C13.9642 1.64474 14.3403 1.90365 14.6768 2.21424C14.8785 2.4004 15.0628 2.60224 15.2284 2.8172C15.3459 2.96965 15.4539 3.1287 15.5521 3.29343C15.891 3.862 16.1123 4.49827 16.1968 5.16464C16.1968 5.16469 16.1968 5.16459 16.1968 5.16464C16.1972 5.16765 16.1976 5.17081 16.1979 5.17382C16.2272 5.42436 16.2365 5.67527 16.2264 5.92437C16.2264 5.92458 16.2264 5.92415 16.2264 5.92437C16.1881 6.86819 15.8715 7.78644 15.3081 8.55832C15.308 8.55845 15.3082 8.5582 15.3081 8.55832C15.3065 8.56055 15.3046 8.56316 15.3029 8.56538C15.3006 8.56862 15.2983 8.57187 15.296 8.57512C15.2958 8.5753 15.2961 8.57494 15.296 8.57512C14.1053 10.2322 10.6776 13.4031 9.24812 14.6993C9.24805 14.6993 9.24819 14.6992 9.24812 14.6993C9.24618 14.701 9.24403 14.703 9.2421 14.7047ZM15.3452 8.59564C15.3454 8.59549 15.3451 8.5958 15.3452 8.59564C15.3429 8.59886 15.3403 8.60255 15.338 8.60577C15.338 8.60572 15.3379 8.60583 15.338 8.60577C14.1412 10.2671 10.7132 13.4452 9.28135 14.7361C9.27939 14.7379 9.27741 14.7397 9.27544 14.7415C9.27557 14.7414 9.27531 14.7416 9.27544 14.7415C9.27232 14.7443 9.26881 14.7475 9.26567 14.7502C9.26569 14.7502 9.26564 14.7503 9.26567 14.7502C9.00042 14.9851 8.65806 15.1143 8.30393 15.1133C8.29477 15.1133 8.28561 15.1132 8.27645 15.113C8.27652 15.113 8.27638 15.113 8.27645 15.113C7.92561 15.1111 7.58702 14.9836 7.32222 14.754C7.32225 14.754 7.32218 14.754 7.32222 14.754C7.31843 14.7507 7.31455 14.7473 7.3108 14.744C7.3103 14.7435 7.30981 14.7431 7.30932 14.7427C7.30945 14.7428 7.30918 14.7425 7.30932 14.7427C5.6369 13.2508 2.65546 10.5281 1.65064 9.02902C1.65074 9.02916 1.65054 9.02887 1.65064 9.02902C1.65004 9.02829 1.64914 9.02711 1.64854 9.02638C1.64868 9.02656 1.64839 9.02621 1.64854 9.02638C1.64788 9.02558 1.64679 9.02425 1.64614 9.02345C0.880153 8.08983 0.425921 6.93964 0.347318 5.73451C0.34725 5.73347 0.347182 5.73242 0.347115 5.73138C0.347115 5.73036 0.347105 5.72912 0.347106 5.7281C0.34793 4.44435 0.857503 3.21322 1.76424 2.3044C1.76463 2.30402 1.76501 2.30363 1.76539 2.30325C2.67335 1.39382 3.905 0.881762 5.19005 0.879413C5.18974 0.879414 5.19036 0.879413 5.19005 0.879413C5.19008 0.879413 5.19104 0.879412 5.19107 0.879412C6.29339 0.87019 7.36412 1.24149 8.22278 1.92826C8.25019 1.95018 8.27739 1.97243 8.30436 1.99499C8.3134 2.00255 8.32242 2.01015 8.3314 2.01778C8.34025 2.01037 8.34912 2.00299 8.35801 1.99564C8.38516 1.97322 8.41253 1.95111 8.44012 1.92932C9.08732 1.41803 9.85506 1.07997 10.6708 0.948268C10.7397 0.937148 10.8087 0.927532 10.8779 0.919415C11.1205 0.89092 11.3642 0.880902 11.607 0.889136C11.6069 0.889133 11.6071 0.889138 11.607 0.889136C12.1604 0.907924 12.709 1.02154 13.228 1.22729C13.3505 1.27586 13.4707 1.32929 13.5883 1.38738C14.0019 1.59173 14.3836 1.85381 14.7221 2.16516C14.925 2.35174 15.1123 2.55602 15.2817 2.77617C15.4009 2.93101 15.5102 3.0924 15.6092 3.25939C15.9527 3.83864 16.1728 4.48513 16.2529 5.15812C16.2532 5.16102 16.2536 5.16393 16.2539 5.16684C16.2539 5.16669 16.2539 5.16698 16.2539 5.16684C16.2829 5.42037 16.2918 5.67468 16.2811 5.92669C16.2811 5.92664 16.281 5.92675 16.2811 5.92669C16.2405 6.8808 15.9196 7.80833 15.35 8.58893C15.3484 8.59117 15.3468 8.5934 15.3452 8.59564ZM15.3702 8.60337C15.3703 8.60331 15.3702 8.60343 15.3702 8.60337C15.3687 8.60554 15.367 8.60789 15.3654 8.61006C15.3655 8.60983 15.3652 8.61029 15.3654 8.61006C15.3631 8.61326 15.3602 8.61714 15.3579 8.62033C14.1689 10.2787 10.7353 13.449 9.29703 14.7533C9.29706 14.7533 9.297 14.7534 9.29703 14.7533C9.29507 14.7551 9.29301 14.757 9.29106 14.7587C9.29125 14.7586 9.29087 14.7589 9.29106 14.7587C9.288 14.7615 9.28439 14.7648 9.28135 14.7675C9.01345 15.0123 8.66612 15.1515 8.30393 15.1597C8.29478 15.1599 8.28562 15.16 8.27645 15.1601C8.27653 15.1601 8.27637 15.1601 8.27645 15.1601C8.27619 15.1601 8.27568 15.1601 8.27542 15.1601C7.91288 15.1614 7.5629 15.0285 7.29269 14.7874C7.29275 14.7875 7.29263 14.7873 7.29269 14.7874C7.28897 14.7841 7.28507 14.7806 7.28138 14.7772C7.28142 14.7772 7.28134 14.7772 7.28138 14.7772C7.28076 14.7766 7.28001 14.776 7.27939 14.7754C5.60934 13.2857 2.65511 10.5666 1.61515 9.05803C1.61522 9.05813 1.61507 9.05792 1.61515 9.05803C1.6143 9.0568 1.61323 9.05524 1.61239 9.05402C1.61195 9.05339 1.61152 9.05276 1.61109 9.05213C1.61121 9.05228 1.61097 9.05198 1.61109 9.05213C0.840687 8.11038 0.382382 6.95166 0.30044 5.7378C0.30036 5.73662 0.300281 5.73544 0.300202 5.73426C0.300134 5.73325 0.300067 5.73224 0.3 5.73123C0.3 5.73128 0.3 5.73118 0.3 5.73123C0.304181 4.43536 0.820814 3.19361 1.73714 2.27729C1.73751 2.27692 1.73789 2.27654 1.73826 2.27616C2.6541 1.36092 3.89457 0.844759 5.18933 0.840163C5.1898 0.840162 5.19027 0.84016 5.19074 0.840159C5.19068 0.840159 5.1908 0.840158 5.19074 0.840159C6.26059 0.826999 7.30201 1.17242 8.14994 1.81766C8.16287 1.8275 8.17576 1.83741 8.18859 1.84739C8.23685 1.88489 8.28446 1.92337 8.3314 1.96283C8.37704 1.92583 8.42327 1.8897 8.47009 1.85446C8.48535 1.84297 8.50068 1.83157 8.51606 1.82027C9.15078 1.35399 9.88892 1.04779 10.6676 0.92793C10.7367 0.917294 10.8061 0.908125 10.8758 0.900442C11.1197 0.87355 11.3643 0.865158 11.6076 0.874908C11.6075 0.874905 11.6077 0.874911 11.6076 0.874908C12.1633 0.89721 12.7124 1.01421 13.2302 1.22162C13.3521 1.27044 13.4723 1.32426 13.5904 1.38305C14.0053 1.58944 14.3865 1.8526 14.7239 2.16319C14.9273 2.35035 15.1148 2.55473 15.2842 2.77429C15.4028 2.92807 15.5126 3.0893 15.6128 3.25727C15.9607 3.84084 16.1818 4.48796 16.2652 5.15665C16.2652 5.15664 16.2652 5.15667 16.2652 5.15665C16.2655 5.15952 16.2659 5.16242 16.2663 5.16529C16.2662 5.16511 16.2663 5.16547 16.2663 5.16529C16.2972 5.4169 16.3086 5.67207 16.3 5.9275C16.259 6.89144 15.9356 7.82191 15.3702 8.60337ZM15.601 8.79618C16.2084 7.96361 16.5559 6.96994 16.5997 5.94026L16.5998 5.93765C16.6335 4.94257 16.3803 3.95881 15.8704 3.10364C15.3605 2.24846 14.6155 1.55796 13.7241 1.11445C12.8327 0.670947 11.8325 0.493146 10.8429 0.602249C9.93387 0.702464 9.06893 1.04086 8.33469 1.58126C7.43345 0.894374 6.32643 0.526475 5.18875 0.540164C3.81409 0.544916 2.49706 1.0931 1.525 2.06516C0.552619 3.03754 0.00439502 4.35512 1.52788e-06 5.73027C-2.0645e-05 5.73722 0.000198521 5.74416 0.000658699 5.7511C0.0852608 7.02569 0.564214 8.2423 1.37099 9.23241C1.90951 10.0122 2.92407 11.0836 3.99689 12.134C5.07956 13.194 6.24077 14.2509 7.07837 14.9981C7.40603 15.2971 7.83413 15.462 8.27774 15.4601C8.72385 15.4581 9.15335 15.2905 9.48285 14.9898C10.1985 14.341 11.4225 13.2174 12.6179 12.0466C13.8071 10.8819 14.9868 9.65248 15.601 8.79618ZM5.19104 1.80582C4.15292 1.80799 3.15745 2.22132 2.42323 2.95554C2.42192 2.95685 2.42062 2.95816 2.41931 2.95947C1.6856 3.69525 1.2735 4.69199 1.2735 5.73123C1.27362 5.7326 1.27374 5.73398 1.27386 5.73536C1.27399 5.73691 1.27413 5.73846 1.27426 5.74001C1.36302 6.75418 1.7592 7.71716 2.40992 8.50022C2.41057 8.501 2.41122 8.50179 2.41187 8.50257C2.41205 8.50282 2.4117 8.50233 2.41187 8.50257C2.41291 8.50405 2.41446 8.50626 2.4155 8.50774C2.41569 8.50802 2.41589 8.50829 2.41608 8.50856C3.4472 9.97617 6.57239 12.8599 7.92447 14.0474C7.92469 14.0476 7.92424 14.0472 7.92447 14.0474C7.92461 14.0475 7.92543 14.0482 7.92557 14.0483C7.92602 14.0487 7.92648 14.0491 7.92692 14.0495C7.92829 14.0507 7.92965 14.0519 7.93101 14.0531C7.94437 14.0652 7.95829 14.0765 7.97271 14.087C8.05241 14.1451 8.14724 14.1795 8.24604 14.1856C8.25093 14.1859 8.25583 14.1861 8.26074 14.1863C8.26466 14.1864 8.26859 14.1865 8.27252 14.1865C8.27383 14.1866 8.27514 14.1866 8.27645 14.1866L8.26075 14.1709C8.26468 14.1709 8.2686 14.1708 8.27252 14.1707C8.27383 14.1707 8.27514 14.1707 8.27645 14.1706C8.27646 14.1706 8.27643 14.1706 8.27645 14.1706C8.282 14.1705 8.28759 14.1702 8.29312 14.1699C8.38771 14.1642 8.47885 14.1334 8.55728 14.0811C8.57638 14.0683 8.59473 14.0543 8.61219 14.039C8.61242 14.0388 8.61197 14.0392 8.61219 14.039C8.61258 14.0387 8.61364 14.0378 8.61403 14.0374C8.61438 14.0371 8.61472 14.0368 8.61506 14.0365C8.61529 14.0363 8.61484 14.0367 8.61506 14.0365C10.0201 12.7492 13.4049 9.61486 14.5382 8.04385C14.5382 8.04382 14.5382 8.04388 14.5382 8.04385C14.5392 8.04249 14.5402 8.04105 14.5412 8.0397C14.5413 8.03959 14.5411 8.0398 14.5412 8.0397C14.5415 8.03924 14.5421 8.03846 14.5424 8.038C15.0144 7.41082 15.2875 6.65653 15.3265 5.87254C15.3326 5.66935 15.323 5.4669 15.298 5.26691C15.298 5.26669 15.298 5.26714 15.298 5.26691C15.2979 5.26663 15.2978 5.26567 15.2978 5.26539C15.2258 4.69156 15.0276 4.13809 14.7144 3.64599C14.5288 3.35441 14.3066 3.09029 14.0545 2.85936C14.0153 2.82344 13.9753 2.78831 13.9347 2.75402C13.6417 2.50671 13.3124 2.30228 12.9563 2.14885C12.5143 1.95838 12.0435 1.85186 11.5677 1.83186C11.5675 1.83185 11.5679 1.83187 11.5677 1.83186C11.458 1.82726 11.3474 1.82724 11.2374 1.83188C11.0446 1.84002 10.8518 1.8624 10.6607 1.8992C10.4246 1.94466 10.1944 2.01147 9.97259 2.09824C9.46827 2.29557 9.00773 2.59611 8.62188 2.98344L8.30785 3.30532L7.99449 2.98412C7.9937 2.9833 7.99224 2.98181 7.99145 2.98099C7.99124 2.98077 7.99167 2.98122 7.99145 2.98099C7.62975 2.60775 7.19578 2.31066 6.71678 2.10884C6.71565 2.10836 6.71452 2.10788 6.71338 2.10741C6.71253 2.10705 6.71168 2.10669 6.71082 2.10633C6.23219 1.9056 5.71798 1.80338 5.19892 1.80581C5.1963 1.80581 5.19365 1.80581 5.19104 1.80582ZM7.95456 3.02269C7.95373 3.02183 7.95225 3.02029 7.95141 3.01943C7.95152 3.01954 7.95131 3.01933 7.95141 3.01943C7.59491 2.6514 7.16749 2.35878 6.69534 2.15973C6.69422 2.15926 6.6931 2.15879 6.69198 2.15832C6.69112 2.15796 6.69026 2.1576 6.6894 2.15724C6.21761 1.95928 5.71078 1.85844 5.19918 1.86072C5.19926 1.86072 5.19909 1.86072 5.19918 1.86072C5.19656 1.86073 5.19369 1.86075 5.19107 1.86077C5.19107 1.86077 5.19107 1.86077 5.19107 1.86077C4.16642 1.86077 3.18364 2.26708 2.45817 2.99047C2.45686 2.99178 2.45555 2.99309 2.45424 2.9944C1.72934 3.7193 1.32168 4.70214 1.32061 5.72719C1.32061 5.72853 1.32061 5.72988 1.32061 5.73123C1.32074 5.73269 1.32087 5.73415 1.321 5.73562C1.41071 6.74055 1.80657 7.69376 2.45513 8.46658C2.4556 8.46715 2.45608 8.46772 2.45656 8.46829C2.45708 8.46891 2.45761 8.46954 2.45813 8.47016C2.45842 8.4705 2.4587 8.47083 2.45898 8.47117C2.45919 8.47148 2.45941 8.47179 2.45962 8.4721C3.47308 9.9405 6.64375 12.8365 7.95456 14.0139C7.95511 14.0143 7.95565 14.0148 7.95619 14.0153C7.95594 14.015 7.95644 14.0155 7.95619 14.0153C7.95748 14.0164 7.95952 14.0181 7.96082 14.0192C7.96066 14.019 7.96097 14.0193 7.96082 14.0192C7.97013 14.0269 7.98018 14.0347 7.98999 14.0417C8.06899 14.098 8.16327 14.1296 8.26076 14.1319C8.26468 14.132 8.2686 14.1321 8.27252 14.1321C8.27383 14.1321 8.27514 14.1321 8.27645 14.132C8.27639 14.132 8.27651 14.132 8.27645 14.132C8.28438 14.132 8.29247 14.1317 8.30036 14.1313C8.31196 14.1306 8.32352 14.1295 8.33499 14.128C8.40956 14.1184 8.48093 14.0916 8.54342 14.0497C8.55975 14.0388 8.57547 14.0268 8.59048 14.0139C8.59084 14.0135 8.5912 14.0132 8.59156 14.0129C8.5914 14.013 8.59171 14.0127 8.59156 14.0129C8.5918 14.0127 8.5925 14.012 8.59274 14.0118C8.5926 14.0119 8.59288 14.0117 8.59274 14.0118C9.99967 12.7306 13.3881 9.60069 14.51 8.02367C14.5111 8.02215 14.5122 8.02063 14.5133 8.01911C14.5134 8.01887 14.514 8.01802 14.5142 8.01778C14.8764 7.51004 15.1094 6.92768 15.2005 6.32046C15.2255 6.17181 15.2417 6.02147 15.249 5.8702C15.249 5.8697 15.249 5.8692 15.2491 5.86869C15.2584 5.67153 15.2526 5.4728 15.2309 5.27422C15.1683 4.69976 14.9767 4.15223 14.6764 3.67014C14.4977 3.3832 14.2804 3.11937 14.0289 2.8867C13.9904 2.85105 13.951 2.81613 13.9109 2.78197C13.6174 2.53218 13.2905 2.33053 12.9424 2.18115C12.661 2.06044 12.3658 1.97386 12.0631 1.92356C11.8996 1.89221 11.7336 1.87114 11.5659 1.86077C11.4568 1.85617 11.3477 1.85626 11.2389 1.86097C11.0465 1.86932 10.8551 1.89215 10.6665 1.92921C10.4343 1.97481 10.2062 2.04193 9.98529 2.13008C9.48521 2.32957 9.03281 2.63222 8.65758 3.01826C8.6577 3.01814 8.65746 3.01839 8.65758 3.01826C8.65627 3.01961 8.6546 3.02134 8.65329 3.02269L8.64909 3.02689L8.3 3.37598L7.95456 3.02269ZM7.91877 3.05769L7.91531 3.05409C7.56203 2.69264 7.14035 2.40515 6.67485 2.20837C6.67374 2.2079 6.67263 2.20743 6.67152 2.20696C6.67066 2.2066 6.6698 2.20624 6.66894 2.20588C6.20366 2.01011 5.70413 1.90882 5.1994 1.90788C5.19956 1.90788 5.19924 1.90788 5.1994 1.90788C5.19688 1.90787 5.19389 1.90787 5.19138 1.90787C5.19148 1.90787 5.19128 1.90787 5.19138 1.90787C4.17921 1.90787 3.20812 2.30922 2.49148 3.02378C2.49017 3.02509 2.48886 3.0264 2.48755 3.02771C1.77243 3.74282 1.36986 4.71205 1.36772 5.72315C1.36772 5.72445 1.36772 5.72576 1.36772 5.72706C1.36771 5.72845 1.36771 5.72984 1.36771 5.73123C1.46112 6.72548 1.85377 7.66798 2.49377 8.43443C2.49499 8.43589 2.49622 8.43735 2.49744 8.43881C2.4977 8.43913 2.49797 8.43945 2.49823 8.43976C2.49859 8.44028 2.49895 8.44081 2.4993 8.44133C2.49962 8.44178 2.49993 8.44224 2.50025 8.4427C3.50659 9.91059 6.67089 12.7933 7.99077 13.9719C7.99105 13.9721 7.99133 13.9724 7.9916 13.9726C7.99234 13.9733 7.99308 13.9739 7.99382 13.9746C7.99494 13.9756 7.99607 13.9767 7.99721 13.9777C7.99755 13.978 7.99789 13.9783 7.99823 13.9786C8.00455 13.9843 8.01103 13.9898 8.01765 13.995C8.08693 14.0501 8.17209 14.0817 8.26077 14.085C8.26468 14.0852 8.2686 14.0853 8.27252 14.0853C8.27383 14.0853 8.27514 14.0853 8.27645 14.0853C8.27634 14.0853 8.27656 14.0853 8.27645 14.0853C8.30236 14.0853 8.32837 14.0829 8.3535 14.0781C8.3675 14.0755 8.38133 14.0721 8.39493 14.0681C8.43873 14.0551 8.48024 14.0349 8.5177 14.0082C8.53126 13.9986 8.54429 13.9881 8.55671 13.9768C8.55703 13.9765 8.55735 13.9762 8.55767 13.9759C8.55766 13.9759 8.55768 13.9759 8.55767 13.9759C8.55805 13.9755 8.55846 13.9752 8.55884 13.9748C8.55876 13.9749 8.55892 13.9748 8.55884 13.9748C9.96236 12.7046 13.3395 9.57821 14.4743 7.99827C14.4743 7.9983 14.4743 7.99823 14.4743 7.99827C14.4754 7.99672 14.4766 7.99506 14.4777 7.99351C14.478 7.9931 14.4783 7.99268 14.4786 7.99227C14.4786 7.99231 14.4786 7.99222 14.4786 7.99227C14.8537 7.49734 15.0992 6.92278 15.2005 6.32046C15.2228 6.17155 15.2366 6.02114 15.2417 5.86998C15.2417 5.86943 15.2417 5.86888 15.2418 5.86833C15.2483 5.67159 15.24 5.47357 15.2166 5.27588C15.2166 5.27591 15.2166 5.27585 15.2166 5.27588C15.1432 4.708 14.9471 4.16718 14.6466 3.68915C14.4683 3.4056 14.2532 3.1441 14.0052 2.91207C13.9671 2.87644 13.9284 2.84164 13.889 2.80767C13.6003 2.55834 13.2785 2.35392 12.9346 2.19914C12.6566 2.07402 12.3642 1.98133 12.0631 1.92356C11.899 1.89631 11.7328 1.87972 11.5654 1.87412C11.5655 1.87413 11.5653 1.87412 11.5654 1.87412C11.4573 1.87052 11.3485 1.87149 11.2398 1.87715C11.0473 1.88715 10.857 1.91165 10.6704 1.94996C10.4388 1.99751 10.2129 2.06635 9.99532 2.1552C9.50541 2.35528 9.05814 2.65683 8.68527 3.04528C8.68549 3.04506 8.68506 3.0455 8.68527 3.04528C8.6841 3.04651 8.68228 3.0484 8.6811 3.04963C8.68124 3.04949 8.68096 3.04978 8.6811 3.04963C8.67982 3.05097 8.67812 3.05275 8.67684 3.05409L8.29215 3.44663L7.91877 3.05769ZM5.19107 2.10582C5.19105 2.10582 5.19109 2.10582 5.19107 2.10582L5.19116 2.20787C5.65874 2.20773 6.12162 2.30106 6.55259 2.4824C6.98316 2.66356 7.3732 2.92889 7.69983 3.26283L8.07573 3.65439C8.13193 3.71294 8.20945 3.74621 8.2906 3.74663C8.37175 3.74705 8.44961 3.71457 8.50641 3.65661L8.8911 3.26407L8.89393 3.26115C9.51368 2.61136 10.3586 2.22336 11.2553 2.17674C11.5096 2.16352 11.7626 2.17804 12.0102 2.2189C12.6778 2.34769 13.2991 2.66239 13.8002 3.13115C14.4152 3.7064 14.8107 4.47776 14.9189 5.31279C14.9569 5.63477 14.9513 5.95768 14.9042 6.27334C14.8106 6.82739 14.5846 7.35574 14.2395 7.81105L14.2347 7.81755C13.6869 8.58223 12.5768 9.74269 11.4119 10.884C10.2529 12.0195 9.05889 13.1176 8.35777 13.7522L8.3553 13.7544C8.33385 13.7743 8.30569 13.7853 8.27645 13.7853C8.24721 13.7853 8.21905 13.7743 8.19759 13.7544L8.19362 13.7508C7.53548 13.1632 6.41638 12.1497 5.33735 11.101C4.25138 10.0455 3.22877 8.97592 2.74579 8.27031C2.74032 8.26231 2.73446 8.25459 2.72824 8.24716C2.12767 7.52998 1.75805 6.64807 1.66774 5.71723C1.67143 4.78783 2.04222 3.8973 2.69968 3.23984C3.36044 2.57908 4.25671 2.20787 5.19116 2.20787L5.19107 2.10582Z" fill="black"/>
</svg>
