<svg width="48" height="48" viewBox="0 0 48 48" fill="none" xmlns="http://www.w3.org/2000/svg">
<path d="M23.9996 -4.76775e-06C20.5912 -0.00920475 17.2206 0.713157 14.1153 2.11829C11.01 3.52342 8.24248 5.57859 5.99957 8.14499V7.5C5.99957 7.10217 5.84154 6.72064 5.56023 6.43933C5.27893 6.15803 4.8974 6 4.49957 6C4.10175 6 3.72022 6.15803 3.43891 6.43933C3.15761 6.72064 2.99957 7.10217 2.99957 7.5V12C2.99957 12.3978 3.15761 12.7794 3.43891 13.0607C3.72022 13.342 4.10175 13.5 4.49957 13.5H8.99957C9.3974 13.5 9.77893 13.342 10.0602 13.0607C10.3415 12.7794 10.4996 12.3978 10.4996 12C10.4996 11.6022 10.3415 11.2206 10.0602 10.9393C9.77893 10.658 9.3974 10.5 8.99957 10.5H7.91957C11.2563 6.53727 15.9401 3.94775 21.0704 3.22918C26.2008 2.51062 31.4157 3.71374 35.7128 6.60727C40.0098 9.5008 43.0857 13.8805 44.3491 18.9045C45.6126 23.9286 44.9744 29.2423 42.5574 33.8243C40.1403 38.4063 36.1149 41.9332 31.2549 43.727C26.395 45.5209 21.0434 45.455 16.2291 43.5421C11.4147 41.6293 7.47732 38.0044 5.17371 33.3643C2.8701 28.7242 2.36289 23.3964 3.74957 18.405C3.81137 18.212 3.83344 18.0086 3.81446 17.8069C3.79547 17.6052 3.73581 17.4094 3.63909 17.2314C3.54237 17.0533 3.41058 16.8968 3.25169 16.7711C3.09279 16.6454 2.91008 16.5531 2.71457 16.5C2.33269 16.3937 1.92427 16.4429 1.57855 16.6369C1.23284 16.8308 0.977945 17.1537 0.869574 17.535C-0.484067 22.3744 -0.284541 27.5166 1.44002 32.2365C3.16458 36.9564 6.32717 41.016 10.4818 43.8427C14.6365 46.6695 19.5737 48.1208 24.5972 47.9921C29.6206 47.8634 34.477 46.1611 38.4815 43.1253C42.4859 40.0895 45.4365 35.8733 46.9171 31.0713C48.3976 26.2692 48.3336 21.1235 46.7339 16.3598C45.1342 11.5961 42.0796 7.45473 38.0007 4.51957C33.9219 1.58441 29.0247 0.00358602 23.9996 -4.76775e-06Z" fill="black"/>
<path d="M34.7249 19.125C34.6306 17.9977 34.1152 16.9472 33.2813 16.1828C32.4474 15.4184 31.3562 14.9961 30.2249 15H28.4999V13.5C28.4999 12.3065 28.0258 11.1619 27.1819 10.318C26.338 9.47411 25.1934 9 23.9999 9C22.8064 9 21.6618 9.47411 20.8179 10.318C19.974 11.1619 19.4999 12.3065 19.4999 13.5V15H17.7599C16.6287 14.9961 15.5374 15.4184 14.7035 16.1828C13.8696 16.9472 13.3542 17.9977 13.2599 19.125L12.2549 31.125C12.2029 31.7467 12.2808 32.3724 12.4835 32.9624C12.6863 33.5525 13.0095 34.0939 13.4326 34.5523C13.8558 35.0107 14.3697 35.3761 14.9416 35.6254C15.5135 35.8746 16.131 36.0022 16.7549 36H31.2449C31.8688 36.0022 32.4863 35.8746 33.0582 35.6254C33.6302 35.3761 34.144 35.0107 34.5672 34.5523C34.9903 34.0939 35.3136 33.5525 35.5163 32.9624C35.7191 32.3724 35.7969 31.7467 35.7449 31.125L34.7249 19.125ZM22.4999 13.5C22.4999 13.1022 22.6579 12.7206 22.9393 12.4393C23.2206 12.158 23.6021 12 23.9999 12C24.3977 12 24.7793 12.158 25.0606 12.4393C25.3419 12.7206 25.4999 13.1022 25.4999 13.5V15H22.4999V13.5ZM31.2449 33H16.7549C16.5474 33.0007 16.342 32.9583 16.1518 32.8755C15.9615 32.7927 15.7904 32.6714 15.6495 32.5191C15.5085 32.3669 15.4006 32.187 15.3327 31.9909C15.2648 31.7949 15.2383 31.5868 15.2549 31.38L16.2449 19.38C16.2751 19.0033 16.4464 18.6519 16.7245 18.3961C17.0026 18.1402 17.367 17.9988 17.7449 18H19.4999V19.5C19.4999 19.8978 19.6579 20.2794 19.9393 20.5607C20.2206 20.842 20.6021 21 20.9999 21C21.3977 21 21.7793 20.842 22.0606 20.5607C22.3419 20.2794 22.4999 19.8978 22.4999 19.5V18H25.4999V19.5C25.4999 19.8978 25.6579 20.2794 25.9393 20.5607C26.2206 20.842 26.6021 21 26.9999 21C27.3977 21 27.7793 20.842 28.0606 20.5607C28.3419 20.2794 28.4999 19.8978 28.4999 19.5V18H30.2399C30.6178 17.9988 30.9822 18.1402 31.2603 18.3961C31.5384 18.6519 31.7097 19.0033 31.7399 19.38L32.7299 31.38C32.7464 31.5856 32.7204 31.7924 32.6533 31.9874C32.5863 32.1825 32.4798 32.3616 32.3405 32.5136C32.2011 32.6657 32.0319 32.7873 31.8434 32.871C31.6549 32.9547 31.4511 32.9986 31.2449 33Z" fill="black"/>
</svg>
