<svg width="16" height="16" viewBox="0 0 16 16" fill="none" xmlns="http://www.w3.org/2000/svg">
<path fill-rule="evenodd" clip-rule="evenodd" d="M15.2491 11.106C15.6831 10.1112 15.9072 9.03744 15.9072 7.95203C15.9072 6.86661 15.6831 5.79282 15.2491 4.79797C15.2421 4.78084 15.2341 4.76416 15.2251 4.74799C14.6003 3.34046 13.5809 2.14429 12.2902 1.30426C10.9995 0.46423 9.49301 0.0163963 7.95305 0.0150146C6.4131 0.0163963 4.90658 0.46423 3.61591 1.30426C2.32525 2.14429 1.30582 3.34046 0.681055 4.74799C0.671867 4.76406 0.663846 4.78075 0.657055 4.79797C0.224975 5.78807 0.00195313 6.85674 0.00195313 7.93701C0.00195312 9.01728 0.224975 10.0859 0.657055 11.076C0.664698 11.0983 0.674059 11.1201 0.685055 11.141C1.23344 12.3872 2.09462 13.4706 3.18505 14.286C3.23603 14.3346 3.29669 14.3719 3.36308 14.3954C3.42946 14.4189 3.50006 14.4281 3.57025 14.4224C3.64044 14.4168 3.70865 14.3963 3.7704 14.3625C3.83215 14.3286 3.88605 14.2821 3.92858 14.226C3.9711 14.1699 4.00129 14.1054 4.01717 14.0368C4.03304 13.9682 4.03424 13.897 4.02069 13.8279C4.00714 13.7588 3.97915 13.6933 3.93854 13.6357C3.89793 13.5782 3.84563 13.5299 3.78506 13.494C3.03623 12.9312 2.40871 12.2231 1.94006 11.412H5.00006C5.37872 12.6326 5.97498 13.7746 6.76006 14.783C6.31174 14.704 5.87205 14.5821 5.44706 14.419C5.3846 14.3845 5.3155 14.3638 5.24438 14.3583C5.17326 14.3527 5.10177 14.3624 5.03472 14.3868C4.96767 14.4111 4.9066 14.4495 4.85563 14.4995C4.80465 14.5494 4.76494 14.6096 4.73917 14.6761C4.7134 14.7426 4.70216 14.8138 4.70621 14.8851C4.71025 14.9563 4.72949 15.0258 4.76263 15.089C4.79578 15.1522 4.84205 15.2075 4.89835 15.2513C4.95465 15.2952 5.01968 15.3264 5.08906 15.343C7.00094 16.0751 9.12106 16.0442 11.0109 15.2569C12.9006 14.4696 14.4155 12.986 15.2421 11.113L15.2491 11.106ZM11.1641 5.466H14.4471C15.066 7.05905 15.0695 8.82549 14.4571 10.421H11.1651C11.5249 8.78896 11.5249 7.09807 11.1651 5.466H11.1641ZM13.9721 4.47498H10.9001C10.523 3.25968 9.93021 2.12223 9.15005 1.117C10.15 1.29169 11.0998 1.68273 11.9328 2.26276C12.7659 2.84278 13.4622 3.59777 13.9731 4.47498H13.9721ZM9.85806 4.47498H6.05005C6.46003 3.27714 7.10611 2.17372 7.95006 1.22998C8.79713 2.173 9.44629 3.27646 9.85905 4.47498H9.85806ZM4.74306 10.421H1.45305C0.838485 8.82601 0.841339 7.05903 1.46106 5.466H4.74405C4.38419 7.09807 4.38419 8.78896 4.74405 10.421H4.74306ZM1.93606 4.47498C2.44637 3.59834 3.14189 2.84373 3.97406 2.26373C4.80623 1.68374 5.75498 1.29237 6.75406 1.117C5.97248 2.12193 5.37833 3.2594 5.00006 4.47498H1.93606ZM5.76306 5.466H10.1461C10.5387 7.09434 10.5387 8.79269 10.1461 10.421H5.76306C5.37038 8.79269 5.37038 7.09433 5.76306 5.466V5.466ZM9.86306 11.412C9.453 12.6101 8.80694 13.7139 7.96305 14.658C7.11911 13.7139 6.47304 12.6101 6.06306 11.412H9.87206H9.86306ZM9.15206 14.78C9.93586 13.7724 10.5311 12.6313 10.9091 11.412H13.9851C13.4698 12.2894 12.7707 13.0448 11.9357 13.6262C11.1007 14.2076 10.1497 14.6012 9.14806 14.78H9.15206Z" fill="black"/>
</svg>
