<svg width="16" height="16" viewBox="0 0 16 16" fill="none" xmlns="http://www.w3.org/2000/svg">
<path fill-rule="evenodd" clip-rule="evenodd" d="M14.1111 12.8377C15.3446 11.2856 15.9505 9.32698 15.8091 7.34946C15.6677 5.37194 14.7891 3.51952 13.3474 2.1587C11.9056 0.797869 10.0056 0.0277716 8.02318 0.000736615C6.04079 -0.0262984 4.12046 0.691697 2.6421 2.0127C2.59347 2.05604 2.55385 2.10857 2.52556 2.16724C2.49726 2.22591 2.48082 2.28958 2.47719 2.35462C2.47355 2.41965 2.48277 2.48475 2.50435 2.54621C2.52592 2.60767 2.55943 2.66428 2.60292 2.71277C2.64641 2.76126 2.69903 2.80069 2.75779 2.8288C2.81655 2.85691 2.88028 2.87316 2.94532 2.87659C3.01037 2.88002 3.07546 2.87056 3.13685 2.84879C3.19824 2.82702 3.25473 2.79334 3.30308 2.7497C4.30208 1.86418 5.53508 1.28528 6.8545 1.08222C8.17393 0.879156 9.52391 1.06055 10.7429 1.60471C11.962 2.14887 12.9984 3.03273 13.7282 4.15055C14.458 5.26836 14.8503 6.57278 14.8581 7.90772C14.8581 9.21935 14.4819 10.5034 13.7741 11.6077C12.8967 10.2186 11.5507 9.18983 9.98008 8.70771C10.5682 8.27473 11.0046 7.66711 11.2269 6.9715C11.4493 6.27589 11.4464 5.52785 11.2185 4.83402C10.9907 4.14019 10.5495 3.53602 9.95802 3.1077C9.36653 2.67938 8.65489 2.44877 7.9246 2.44877C7.19431 2.44877 6.48265 2.67938 5.89116 3.1077C5.29966 3.53602 4.85855 4.14019 4.63069 4.83402C4.40283 5.52785 4.39985 6.27589 4.62224 6.9715C4.84462 7.66711 5.28099 8.27473 5.86909 8.70771C4.29997 9.18892 2.95464 10.2154 2.07609 11.6017C1.36952 10.5001 0.992526 9.21943 0.989514 7.91068C0.986502 6.60193 1.3576 5.3196 2.05909 4.21473C2.10875 4.10474 2.11693 3.98049 2.08217 3.86493C2.0474 3.74937 1.97202 3.65027 1.86992 3.58594C1.76781 3.52161 1.6459 3.49638 1.52665 3.5149C1.40741 3.53342 1.29886 3.59444 1.22108 3.68671C0.350195 5.06136 -0.0728375 6.67231 0.0102662 8.29749C0.09337 9.92267 0.678537 11.4821 1.6851 12.7607C1.71236 12.8143 1.7497 12.8622 1.79509 12.9017C2.53095 13.8182 3.46464 14.5563 4.52623 15.0608C5.58781 15.5653 6.74977 15.823 7.92509 15.8147C9.10298 15.8147 10.266 15.5518 11.3294 15.0453C12.3928 14.5387 13.3298 13.8013 14.0721 12.8867C14.0871 12.8767 14.0971 12.8547 14.1111 12.8377ZM5.4481 5.9307C5.44711 5.44058 5.59154 4.96119 5.86311 4.5532C6.13468 4.1452 6.52118 3.82695 6.97371 3.63871C7.42623 3.45046 7.92444 3.40069 8.40526 3.4957C8.88608 3.59071 9.3279 3.82621 9.67482 4.17243C10.0217 4.51864 10.2582 4.96002 10.3541 5.44065C10.4501 5.92127 10.4014 6.41957 10.214 6.87247C10.0267 7.32538 9.70922 7.71253 9.30177 7.98493C8.89432 8.25733 8.41521 8.40271 7.92509 8.40271C7.26971 8.40166 6.64145 8.14092 6.17793 7.67759C5.71441 7.21425 5.45342 6.58608 5.4521 5.9307H5.4481ZM7.92509 14.8307C6.93922 14.8381 5.96353 14.6311 5.06563 14.2239C4.16773 13.8167 3.36908 13.2192 2.72508 12.4727C3.23904 11.5439 3.99244 10.7697 4.9069 10.2305C5.82137 9.69141 6.86354 9.40708 7.92509 9.40708C8.98665 9.40708 10.0288 9.69141 10.9433 10.2305C11.8577 10.7697 12.6111 11.5439 13.1251 12.4727C12.476 13.213 11.6764 13.8061 10.7796 14.2124C9.88282 14.6187 8.90961 14.8288 7.92509 14.8287V14.8307Z" fill="black"/>
</svg>
