<svg width="42" height="40" viewBox="0 0 42 40" fill="none" xmlns="http://www.w3.org/2000/svg">
<path fill-rule="evenodd" clip-rule="evenodd" d="M20.9815 39.0848C21.5854 39.1237 22.1807 39.2483 22.7495 39.4547C23.4018 39.6806 24.0823 39.8152 24.7715 39.8547C24.9925 39.8572 25.213 39.8337 25.4285 39.7847C26.3229 39.5025 27.1265 38.9884 27.7575 38.2947C28.1649 37.8802 28.6272 37.5235 29.1315 37.2347C29.6827 37.0159 30.2615 36.8745 30.8515 36.8147C31.7757 36.7543 32.6682 36.4545 33.4415 35.9447C34.1143 35.3106 34.6082 34.5104 34.8735 33.6247C35.0602 33.0663 35.3266 32.5378 35.6645 32.0557C36.0607 31.6258 36.5155 31.2538 37.0155 30.9507C37.8292 30.4971 38.5093 29.8373 38.9875 29.0378C39.3139 28.1805 39.4084 27.2522 39.2615 26.3467C39.1884 25.7572 39.1992 25.1602 39.2935 24.5737C39.4596 24.0255 39.7027 23.5036 40.0155 23.0237C40.6275 22.294 40.963 21.3721 40.963 20.4197C40.963 19.4673 40.6275 18.5454 40.0155 17.8157C39.7025 17.3359 39.4594 16.814 39.2935 16.2657C39.1994 15.6805 39.1886 15.085 39.2615 14.4967C39.4101 13.5884 39.3159 12.6569 38.9885 11.7967C38.5107 10.9975 37.8309 10.3381 37.0175 9.88474C36.4938 9.61403 36.0326 9.23668 35.6635 8.77701C35.2945 8.31734 35.0257 7.78552 34.8745 7.21573C34.6845 6.29602 34.1779 5.47208 33.443 4.88736C32.7081 4.30265 31.7914 3.99419 30.8525 4.01572C30.2621 3.95673 29.683 3.81434 29.1325 3.59275C28.6279 3.30767 28.166 2.95283 27.7605 2.53873C27.1284 1.84504 26.3243 1.33066 25.4295 1.0477C24.5226 0.925916 23.5997 1.04103 22.7505 1.38175C22.1814 1.5867 21.5862 1.71026 20.9825 1.74875C20.3792 1.71031 19.7843 1.58675 19.2155 1.38175C18.3665 1.04009 17.4434 0.924949 16.5365 1.0477C15.6422 1.33058 14.8384 1.84462 14.2065 2.53775C13.8009 2.95241 13.3386 3.30759 12.8335 3.59275C12.2829 3.81386 11.7039 3.95624 11.1135 4.01572C10.1892 4.07562 9.29652 4.37548 8.52351 4.88572C7.85067 5.52144 7.35683 6.32293 7.0915 7.20975C6.90356 7.76985 6.63653 8.30017 6.2985 8.7847C5.90229 9.21532 5.44711 9.5877 4.94651 9.89072C4.1327 10.3434 3.45254 11.0025 2.97451 11.8017C2.64828 12.6594 2.55377 13.5879 2.7005 14.4937C2.77408 15.0832 2.76365 15.6801 2.66951 16.2667C2.5036 16.815 2.26049 17.337 1.94751 17.8167C1.33546 18.5464 1 19.4684 1 20.4207C1 21.3731 1.33546 22.2951 1.94751 23.0248C2.26015 23.5051 2.50323 24.0272 2.66951 24.5757C2.76365 25.1623 2.77408 25.7592 2.7005 26.3487C2.55367 27.2542 2.64818 28.1824 2.97451 29.0397C3.45266 29.8391 4.13277 30.4985 4.94651 30.9518C5.44684 31.2552 5.90197 31.6274 6.2985 32.0577C6.63702 32.5395 6.90349 33.0681 7.0895 33.6267C7.35532 34.5124 7.84953 35.3126 8.5225 35.9468C9.29543 36.4564 10.1877 36.7562 11.1115 36.8167C11.7015 36.8766 12.2803 37.018 12.8315 37.2367C13.3357 37.5252 13.7978 37.8819 14.2045 38.2967C14.8359 38.9905 15.6399 39.5046 16.5345 39.7867C17.4407 39.9065 18.3625 39.7929 19.2125 39.4567C19.7814 39.2504 20.3766 39.1258 20.9805 39.0867L20.9815 39.0848ZM17.1905 38.7667C17.0514 38.7655 16.9129 38.7487 16.7775 38.7167C16.0757 38.4689 15.4469 38.0495 14.9485 37.4967C14.468 37.002 13.9146 36.5839 13.3075 36.2567C12.6603 35.988 11.9781 35.8129 11.2815 35.7367C10.5476 35.6979 9.83476 35.478 9.2065 35.0967C8.69089 34.57 8.31308 33.9243 8.10651 33.2167C7.88066 32.5598 7.5592 31.9399 7.1525 31.3767C6.69106 30.8598 6.15599 30.4137 5.56451 30.0527C4.91495 29.6971 4.36354 29.1863 3.9595 28.5657C3.72769 27.8772 3.66997 27.142 3.7915 26.4258C3.87566 25.7295 3.85679 25.0245 3.7355 24.3337C3.54831 23.6787 3.26525 23.0549 2.8955 22.4827C2.37963 21.9203 2.09343 21.1849 2.09343 20.4217C2.09343 19.6586 2.37963 18.9232 2.8955 18.3608C3.26539 17.7881 3.54877 17.164 3.7365 16.5087C3.85754 15.8189 3.87641 15.115 3.7925 14.4197C3.67048 13.7025 3.72785 12.9663 3.9595 12.2767C4.36217 11.6573 4.91184 11.1472 5.55951 10.7917C6.17335 10.4596 6.71468 10.0081 7.15171 9.46396C7.58874 8.91978 7.91267 8.29379 8.1045 7.62271C8.31072 6.91647 8.68864 6.2723 9.20451 5.74771C9.8326 5.3671 10.5443 5.14602 11.2775 5.10373C11.9753 5.0301 12.6588 4.85561 13.3065 4.58573C13.9105 4.25549 14.463 3.83876 14.9465 3.34873C15.445 2.79418 16.0735 2.37217 16.7755 2.1207C17.4958 2.05324 18.2218 2.161 18.8915 2.43473C19.5633 2.67378 20.2664 2.81356 20.9785 2.8497C21.6897 2.81416 22.3918 2.67468 23.0625 2.4357C23.733 2.16088 24.4601 2.05279 25.1815 2.1207C25.8833 2.37206 26.5115 2.79409 27.0095 3.34873C27.4934 3.83872 28.0462 4.25544 28.6505 4.58573C29.2979 4.85559 29.981 5.03009 30.6785 5.10373C31.412 5.14586 32.1241 5.36695 32.7525 5.74771C33.268 6.27181 33.6459 6.91522 33.8525 7.6207C34.0446 8.29114 34.3688 8.9164 34.8061 9.45975C35.2433 10.0031 35.7847 10.4536 36.3985 10.7847C37.0465 11.1406 37.5962 11.6515 37.9985 12.2717C38.2302 12.9603 38.2876 13.6955 38.1655 14.4117C38.0818 15.1077 38.101 15.8123 38.2225 16.5027C38.4099 17.1582 38.6934 17.7822 39.0635 18.3547C39.579 18.9167 39.8649 19.6516 39.8649 20.4142C39.8649 21.1768 39.579 21.9117 39.0635 22.4737V22.4737C38.6934 23.0462 38.41 23.6703 38.2225 24.3257C38.1016 25.0149 38.0827 25.7181 38.1665 26.4128C38.2894 27.1326 38.2317 27.8717 37.9985 28.5638C37.5957 29.1833 37.0461 29.6937 36.3985 30.0497C35.7852 30.3814 35.2442 30.8322 34.8074 31.3757C34.3705 31.9192 34.0466 32.5445 33.8545 33.2148C33.6476 33.9222 33.2699 34.5678 32.7545 35.0947C32.1272 35.4757 31.4154 35.6956 30.6825 35.7347C29.9845 35.8106 29.301 35.9857 28.6525 36.2547C28.0458 36.5821 27.4928 37.0002 27.0125 37.4947C26.5141 38.0471 25.8858 38.4665 25.1845 38.7148C24.4648 38.7836 23.7392 38.6771 23.0695 38.4047C22.3967 38.1689 21.6935 38.0308 20.9815 37.9947C20.2698 38.0308 19.5669 38.1688 18.8945 38.4047C18.3468 38.6013 17.7749 38.7225 17.1945 38.7647L17.1905 38.7667ZM5.8345 26.3517C6.20615 27.2891 6.66588 28.1891 7.2075 29.0397L7.2205 29.0607C7.86666 30.0738 8.6222 31.0128 9.4735 31.8608C12.5368 34.894 16.6736 36.5955 20.9845 36.5955C25.2955 36.5955 29.4322 34.894 32.4955 31.8608C34.8133 29.5707 36.3781 26.6287 36.9815 23.4267L36.9915 23.3707C37.0375 23.1207 37.0745 22.9008 37.1025 22.6968C37.1025 22.6728 37.1085 22.6497 37.1115 22.6267L37.1185 22.5687C37.1435 22.3857 37.1705 22.1687 37.1915 21.9487C37.1915 21.8967 37.1995 21.8487 37.2035 21.7927C37.2035 21.7567 37.2035 21.7217 37.2105 21.6857L37.2175 21.5967C37.2285 21.4617 37.2395 21.3278 37.2455 21.1968C37.2585 20.9368 37.2645 20.6768 37.2645 20.4258C37.2645 20.2058 37.2595 19.9757 37.2475 19.7007C37.2475 19.6467 37.2445 19.5927 37.2385 19.5387V19.4657C37.2285 19.3027 37.2165 19.1387 37.2025 18.9747C37.1945 18.8857 37.1865 18.7967 37.1775 18.7077C37.1605 18.5457 37.1395 18.3837 37.1175 18.2217C37.1025 18.1097 37.0865 17.9978 37.0695 17.8868C37.0385 17.6868 37.0085 17.5167 36.9775 17.3547C36.9555 17.2437 36.9315 17.1327 36.9075 17.0217L36.8975 16.9757C36.8765 16.8827 36.8565 16.7887 36.8335 16.6947C36.8005 16.5537 36.7655 16.4137 36.7275 16.2727C36.7165 16.2297 36.7045 16.1867 36.6925 16.1437L36.6775 16.0898C36.5286 15.5524 36.3514 15.0233 36.1465 14.5047L36.1895 14.4728L36.1405 14.4917C35.7684 13.5546 35.3087 12.6546 34.7675 11.8037L34.7535 11.7837C33.44 9.72945 31.6834 7.99516 29.6126 6.70798C27.5417 5.4208 25.209 4.61337 22.7855 4.34488C20.362 4.0764 17.9092 4.35366 15.6068 5.15635C13.3044 5.95903 11.2108 7.26678 9.4795 8.98374C7.16177 11.2738 5.59693 14.2158 4.9935 17.4177L4.98351 17.4737C4.93751 17.7237 4.90151 17.9437 4.87251 18.1477C4.87251 18.1707 4.86651 18.1947 4.86351 18.2187L4.8555 18.2777C4.8315 18.4627 4.8035 18.6777 4.7835 18.8957C4.7785 18.9467 4.7755 18.9958 4.7715 19.0508C4.7675 19.1058 4.7715 19.1247 4.7635 19.1607L4.7565 19.2527C4.7465 19.3857 4.7365 19.5187 4.7295 19.6527C4.7165 19.9127 4.71051 20.1727 4.71051 20.4247C4.71051 20.6457 4.7165 20.8827 4.7275 21.1487C4.7275 21.2027 4.7335 21.2567 4.7365 21.3097V21.3827C4.7465 21.5467 4.7585 21.7108 4.7725 21.8738C4.7805 21.9628 4.7885 22.0527 4.7975 22.1407C4.8145 22.3037 4.83551 22.4657 4.85751 22.6277C4.87251 22.7397 4.88851 22.8517 4.90551 22.9627C4.93651 23.1577 4.9665 23.3317 4.9985 23.4947C5.0205 23.6077 5.0445 23.7218 5.0695 23.8348L5.0775 23.8727C5.0975 23.9667 5.1185 24.0607 5.1405 24.1547C5.1735 24.2957 5.20851 24.4368 5.24651 24.5768C5.25751 24.6168 5.26951 24.6577 5.28051 24.6987L5.2985 24.7547C5.44766 25.292 5.62491 25.8211 5.82951 26.3398L5.7855 26.3717L5.8345 26.3517ZM20.9845 35.5047C18.6762 35.5118 16.3968 34.9903 14.3213 33.9801C12.2457 32.9699 10.429 31.4978 9.01051 29.6767L8.9595 29.6117L9.0415 29.5937L35.7245 24.0297L35.7045 24.1108C34.869 27.3771 32.9676 30.2714 30.3015 32.3352C27.6354 34.399 24.357 35.5144 20.9855 35.5047H20.9845ZM8.26651 28.6397L8.24651 28.6108C7.22251 27.0498 6.50099 25.3102 6.1195 23.4827L6.10651 23.4137C6.06351 23.2077 6.02451 22.9897 5.98951 22.7667L5.97651 22.6888C5.94151 22.4558 5.91051 22.2197 5.88651 21.9887L5.87751 21.8887C5.85951 21.7027 5.8445 21.5048 5.8325 21.3008V21.2707C5.8325 21.2207 5.8265 21.1707 5.8245 21.1197C5.8125 20.8567 5.8075 20.6358 5.8075 20.4258C5.8075 20.2158 5.8135 19.9917 5.8245 19.7257C5.8245 19.6707 5.8305 19.6147 5.8345 19.5597V19.4858C5.8445 19.3328 5.8555 19.1807 5.8695 19.0287C5.8775 18.9397 5.8865 18.8497 5.8965 18.7597C5.9135 18.6047 5.9345 18.4507 5.9565 18.2967L5.96751 18.2117C5.97351 18.1657 5.9805 18.1207 5.9875 18.0757L6.00451 17.9757L6.03951 17.9687L33.6985 12.1977L33.7175 12.2278C34.7419 13.7887 35.4637 15.5282 35.8455 17.3557L35.8585 17.4227C35.9015 17.6347 35.9415 17.8528 35.9755 18.0718L35.9875 18.1498C36.0225 18.3768 36.0525 18.6137 36.0775 18.8497L36.0865 18.9497C36.1045 19.1377 36.1195 19.3297 36.1325 19.5367C36.1325 19.5977 36.1395 19.6587 36.1425 19.7187C36.1545 19.9867 36.1595 20.2077 36.1595 20.4187C36.1595 20.6297 36.1535 20.8577 36.1425 21.1187C36.1425 21.1757 36.1355 21.2327 36.1325 21.2897V21.3577C36.1225 21.5107 36.1115 21.6647 36.0975 21.8157C36.0895 21.9057 36.0805 21.9948 36.0705 22.0848C36.0535 22.2398 36.0335 22.3937 36.0105 22.5477L36.0005 22.6207C35.9935 22.6707 35.9875 22.7207 35.9795 22.7697C35.9795 22.7807 35.9795 22.7917 35.9735 22.8037L35.9635 22.8658L35.9285 22.8727L8.26651 28.6397ZM6.24551 16.8088L6.2655 16.7278C6.97641 13.982 8.44107 11.4896 10.494 9.53251C12.5469 7.57538 15.1063 6.23142 17.8829 5.65244C20.6595 5.07346 23.5427 5.28259 26.2068 6.25614C28.8708 7.22969 31.2094 8.92886 32.9585 11.1617L33.0095 11.2267L32.9275 11.2437L6.24551 16.8088ZM11.2835 25.3868L9.4575 25.7697L7.4385 20.2098L9.71951 19.7317L10.7115 22.8447L11.7345 19.3088L13.4415 18.9507L11.2835 25.3868ZM16.1335 24.3707L15.8265 23.5477L14.2865 23.8697L14.0275 24.8117L12.3685 25.1587L14.3455 18.7587L16.1225 18.3868L18.3225 23.9077L16.1335 24.3707ZM14.9905 21.2847L14.6305 22.5978L15.4145 22.4327L14.9905 21.2847ZM22.8835 22.9518L18.3765 23.8967L18.3865 17.9107L20.6325 17.4397L20.6195 21.5697L22.8865 21.0947L22.8835 22.9518ZM28.3405 19.2597C28.4097 20.0076 28.1947 20.7542 27.7383 21.3507C27.2818 21.9472 26.6175 22.35 25.8775 22.4787C24.4705 22.7737 23.4055 22.2637 23.1205 20.9787C23.0666 20.7273 23.0391 20.4709 23.0385 20.2137L23.0485 16.9317L25.2875 16.4627L25.2745 20.2627C25.2576 20.3581 25.2657 20.4562 25.298 20.5475C25.3303 20.6388 25.3857 20.7201 25.4588 20.7836C25.532 20.8471 25.6203 20.8905 25.7153 20.9096C25.8102 20.9288 25.9085 20.9229 26.0005 20.8927C26.2126 20.849 26.4021 20.7308 26.5345 20.5595C26.667 20.3881 26.7337 20.175 26.7225 19.9587L26.7285 16.1647L28.3455 15.8257L28.3405 19.2597ZM33.7405 16.4497L31.1025 17.0027V17.5898L32.8025 17.2337V18.5337L31.1025 18.8907V19.4847L33.7405 18.9317V20.6847L28.8565 21.7087L28.8665 15.7228L33.7505 14.6987L33.7405 16.4497Z" fill="black"/>
</svg>
