<svg width="16" height="16" viewBox="0 0 16 16" fill="none" xmlns="http://www.w3.org/2000/svg">
<path fill-rule="evenodd" clip-rule="evenodd" d="M8.00977 0C6.42752 0 4.8808 0.469192 3.56521 1.34824C2.24961 2.22729 1.22423 3.47672 0.618733 4.93853C0.0132319 6.40034 -0.145195 8.00887 0.163487 9.56072C0.472169 11.1126 1.23409 12.538 2.35292 13.6569C3.47174 14.7757 4.8972 15.5376 6.44905 15.8463C8.0009 16.155 9.60943 15.9965 11.0712 15.391C12.533 14.7855 13.7825 13.7602 14.6615 12.4446C15.5406 11.129 16.0098 9.58225 16.0098 8C16.0098 5.87827 15.1669 3.84344 13.6666 2.34315C12.1663 0.842855 10.1315 0 8.00977 0V0ZM8.00977 14.65C6.69128 14.654 5.40128 14.2665 4.3032 13.5366C3.20512 12.8068 2.34839 11.7674 1.84153 10.5502C1.33468 9.33306 1.20052 7.99282 1.45604 6.69932C1.71157 5.40582 2.34529 4.21726 3.2769 3.28424C4.20852 2.35122 5.39612 1.71572 6.68923 1.45825C7.98235 1.20077 9.32279 1.33292 10.5407 1.83794C11.7587 2.34296 12.7993 3.19813 13.5308 4.29511C14.2623 5.39209 14.6517 6.6815 14.6498 8C14.6419 9.75954 13.9401 11.4449 12.6969 12.69C11.4536 13.9352 9.76929 14.6395 8.00977 14.65ZM8.77977 2.75C7.92329 2.5484 7.02183 2.69397 6.27234 3.1549C5.52284 3.61584 4.98624 4.35468 4.77977 5.21C4.64969 5.73878 4.64969 6.29122 4.77977 6.82C4.82025 6.99199 4.92702 7.14102 5.07685 7.23467C5.22668 7.32831 5.40744 7.35898 5.57977 7.32C5.66521 7.30233 5.74621 7.26765 5.81796 7.21801C5.88971 7.16838 5.95073 7.1048 5.99738 7.03108C6.04404 6.95737 6.07538 6.87501 6.08953 6.78892C6.10369 6.70283 6.10037 6.61478 6.07977 6.53C5.9841 6.15843 5.99734 5.76718 6.11789 5.40293C6.23845 5.03867 6.46124 4.71678 6.75969 4.47565C7.05813 4.23451 7.41965 4.08432 7.8011 4.04297C8.18255 4.00163 8.56785 4.07089 8.91103 4.24248C9.25421 4.41407 9.54079 4.68075 9.73659 5.01072C9.93239 5.34069 10.0291 5.72002 10.0153 6.10345C10.0015 6.48689 9.87763 6.85826 9.65856 7.17326C9.43948 7.48826 9.13443 7.73359 8.77977 7.88C8.3543 8.04976 7.9886 8.34167 7.72878 8.71894C7.46896 9.09622 7.32664 9.54197 7.31977 10C7.3082 10.0942 7.31676 10.1897 7.3449 10.2803C7.37303 10.371 7.42008 10.4546 7.48295 10.5256C7.54582 10.5967 7.62307 10.6536 7.70958 10.6926C7.79609 10.7315 7.88989 10.7517 7.98477 10.7517C8.07965 10.7517 8.17345 10.7315 8.25996 10.6926C8.34647 10.6536 8.42372 10.5967 8.48659 10.5256C8.54945 10.4546 8.59651 10.371 8.62464 10.2803C8.65277 10.1897 8.66134 10.0942 8.64977 10C8.64993 9.80371 8.70786 9.6118 8.81633 9.44821C8.9248 9.28461 9.07902 9.15655 9.25977 9.08C9.90256 8.80587 10.4432 8.33703 10.8055 7.7395C11.1678 7.14197 11.3336 6.44584 11.2795 5.74913C11.2254 5.05243 10.9542 4.39024 10.5039 3.8558C10.0537 3.32137 9.44717 2.94161 8.76977 2.77L8.77977 2.75ZM8.00977 12C7.87726 12 7.74772 12.0393 7.63754 12.1129C7.52736 12.1865 7.44148 12.2912 7.39077 12.4136C7.34006 12.536 7.32679 12.6707 7.35264 12.8007C7.3785 12.9307 7.44231 13.0501 7.53601 13.1438C7.62971 13.2375 7.74909 13.3013 7.87906 13.3271C8.00903 13.353 8.14374 13.3397 8.26617 13.289C8.38859 13.2383 8.49323 13.1524 8.56685 13.0422C8.64048 12.9321 8.67977 12.8025 8.67977 12.67C8.67719 12.4931 8.60577 12.3242 8.48067 12.1991C8.35558 12.074 8.18666 12.0026 8.00977 12Z" fill="black"/>
</svg>
