<svg width="14" height="17" viewBox="0 0 14 17" fill="none" xmlns="http://www.w3.org/2000/svg">
<path fill-rule="evenodd" clip-rule="evenodd" d="M12.9497 15.7101H0.549743V13.7901H12.9497V15.7101ZM6.33774 6.88002H7.16374V7.26002H6.33774V6.88002ZM8.30274 6.34999H5.20274V5.08009H8.30274V6.34999ZM9.55174 12.47H8.86574C9.07965 12.3038 9.25357 12.0918 9.37471 11.8495C9.49585 11.6072 9.56113 11.3409 9.56574 11.0701V8.4601C9.56365 8.39007 9.53422 8.32364 9.48376 8.27504C9.43329 8.22644 9.3658 8.19953 9.29574 8.20009H4.43074C4.36068 8.19953 4.29319 8.22644 4.24273 8.27504C4.19226 8.32364 4.16283 8.39007 4.16074 8.4601V8.91005H3.98074C3.65667 8.91717 3.34783 9.04897 3.11853 9.27809C2.88923 9.50721 2.75713 9.81596 2.74974 10.14V10.75C2.76325 11.0657 2.89949 11.3637 3.12943 11.5803C3.35938 11.797 3.66484 11.9153 3.98074 11.91H4.35674C4.46435 12.1241 4.6136 12.3144 4.79574 12.47H3.94974C3.87968 12.4694 3.81219 12.4963 3.76173 12.5449C3.71126 12.5935 3.68183 12.66 3.67974 12.73V13.27H0.552743V4.81007C0.790825 4.98639 1.07949 5.08111 1.37574 5.08009H4.65874V6.61C4.65874 6.68161 4.68719 6.75028 4.73782 6.80092C4.78846 6.85155 4.85713 6.88002 4.92874 6.88002H5.79774V7.52003C5.79983 7.59006 5.82926 7.6565 5.87973 7.70509C5.93019 7.75369 5.99768 7.7806 6.06774 7.78004H7.43074C7.5008 7.7806 7.56829 7.75369 7.61876 7.70509C7.66922 7.6565 7.69865 7.59006 7.70074 7.52003V6.88002H8.56974C8.64135 6.88002 8.71003 6.85155 8.76066 6.80092C8.8113 6.75028 8.83974 6.68161 8.83974 6.61V6.15004H11.5307C11.5657 6.15125 11.6005 6.14546 11.6332 6.13295C11.6658 6.12044 11.6956 6.10141 11.7208 6.07716C11.746 6.05291 11.766 6.02386 11.7798 5.99171C11.7935 5.95956 11.8006 5.92499 11.8007 5.89003C11.7987 5.82 11.7692 5.75357 11.7188 5.70497C11.6683 5.65637 11.6008 5.62947 11.5307 5.63002H8.84074V5.08009H12.1307C12.427 5.08125 12.7157 4.98651 12.9537 4.81007V13.27H9.82274V12.73C9.82065 12.66 9.79122 12.5935 9.74076 12.5449C9.69029 12.4963 9.6228 12.4694 9.55274 12.47H9.55174ZM9.28174 13V13.23H4.21974V13H9.28274H9.28174ZM4.82974 11.5601C4.77411 11.4027 4.7457 11.237 4.74574 11.0701V9.17006C4.74527 9.11976 4.7292 9.07082 4.69974 9.03004V8.73H9.02474V11.0701C9.00838 11.4307 8.85163 11.7707 8.58798 12.0173C8.32434 12.264 7.97469 12.3977 7.61374 12.39H6.00374C5.76335 12.3907 5.52748 12.3247 5.32234 12.1994C5.11721 12.074 4.95085 11.8943 4.84174 11.6801C4.84655 11.6397 4.8428 11.5989 4.83074 11.5601H4.82974ZM4.18674 11.38H3.97974C3.80639 11.3874 3.63702 11.3267 3.50788 11.2108C3.37874 11.095 3.30008 10.9332 3.28874 10.76V10.14C3.29641 9.95837 3.37142 9.78603 3.49915 9.65663C3.62688 9.52724 3.7982 9.4501 3.97974 9.44008H4.15974V11.0701C4.15995 11.174 4.16898 11.2776 4.18674 11.38ZM0.551743 1.32008C0.555166 1.10498 0.643706 0.899964 0.797966 0.750015C0.952226 0.600066 1.15963 0.517361 1.37474 0.520034H12.1307C12.3459 0.517361 12.5533 0.600066 12.7075 0.750015C12.8618 0.899964 12.9503 1.10498 12.9537 1.32008V3.76002C12.9501 3.97504 12.8614 4.17983 12.7072 4.32973C12.553 4.47962 12.3458 4.56248 12.1307 4.56007H1.37474C1.15963 4.56275 0.952226 4.48004 0.797966 4.33009C0.643706 4.18014 0.555166 3.97513 0.551743 3.76002V1.32008ZM12.1267 1.48036e-05H1.37474C1.01889 -0.00560174 0.675349 0.130321 0.419598 0.377822C0.163846 0.625324 0.016793 0.964233 0.0107422 1.32008V15.97C0.0108553 16.0049 0.0179915 16.0396 0.0317268 16.0718C0.0454622 16.1039 0.0655176 16.133 0.0907011 16.1572C0.115885 16.1815 0.145684 16.2004 0.178329 16.2129C0.210975 16.2254 0.245802 16.2312 0.280743 16.23H13.2207C13.2557 16.2312 13.2905 16.2254 13.3232 16.2129C13.3558 16.2004 13.3856 16.1815 13.4108 16.1572C13.436 16.133 13.456 16.1039 13.4698 16.0718C13.4835 16.0396 13.4906 16.0049 13.4907 15.97V1.32008C13.485 0.964323 13.3381 0.625352 13.0825 0.377822C12.8269 0.130293 12.4835 -0.00560006 12.1277 1.48036e-05H12.1267ZM2.33574 2.29005C2.39649 2.29241 2.4552 2.31258 2.50458 2.34804C2.55395 2.3835 2.59182 2.43271 2.61345 2.48952C2.63508 2.54633 2.63954 2.60817 2.62625 2.6675C2.61297 2.72682 2.58254 2.78097 2.53874 2.82313C2.49495 2.8653 2.43973 2.89366 2.37994 2.90468C2.32016 2.9157 2.25845 2.90892 2.20251 2.88515C2.14656 2.86137 2.09883 2.8217 2.06527 2.77101C2.03171 2.72032 2.01379 2.66078 2.01374 2.59999C2.01558 2.51626 2.05048 2.43676 2.11081 2.37868C2.17114 2.32059 2.25201 2.28871 2.33574 2.29005ZM2.33574 3.43007C2.44685 3.43219 2.55728 3.41241 2.66073 3.37184C2.76419 3.33127 2.85864 3.27069 2.93868 3.19362C3.01873 3.11654 3.08281 3.02447 3.12726 2.92262C3.17171 2.82078 3.19566 2.71109 3.19774 2.59999C3.19013 2.37632 3.09592 2.16446 2.935 2.00893C2.77408 1.85339 2.55904 1.76637 2.33524 1.76637C2.11145 1.76637 1.8964 1.85339 1.73549 2.00893C1.57457 2.16446 1.48036 2.37632 1.47274 2.59999C1.47469 2.71122 1.49859 2.82102 1.54305 2.92299C1.58752 3.02496 1.65168 3.11711 1.73186 3.19423C1.81205 3.27134 1.90667 3.33187 2.0103 3.37233C2.11392 3.41279 2.22452 3.43246 2.33574 3.43007ZM4.55674 2.29005C4.61749 2.29241 4.6762 2.31258 4.72558 2.34804C4.77495 2.3835 4.81281 2.43271 4.83445 2.48952C4.85608 2.54633 4.86053 2.60817 4.84725 2.6675C4.83397 2.72682 4.80354 2.78097 4.75974 2.82313C4.71595 2.8653 4.66073 2.89366 4.60094 2.90468C4.54116 2.9157 4.47945 2.90892 4.4235 2.88515C4.36755 2.86137 4.31983 2.8217 4.28627 2.77101C4.25271 2.72032 4.23479 2.66078 4.23474 2.59999C4.23658 2.51626 4.27148 2.43676 4.33181 2.37868C4.39214 2.32059 4.47301 2.28871 4.55674 2.29005ZM4.55674 3.43007C4.66785 3.43219 4.77828 3.41241 4.88173 3.37184C4.98519 3.33127 5.07964 3.27069 5.15969 3.19362C5.23973 3.11654 5.30381 3.02447 5.34826 2.92262C5.39271 2.82078 5.41666 2.71109 5.41874 2.59999C5.41113 2.37632 5.31692 2.16446 5.156 2.00893C4.99508 1.85339 4.78004 1.76637 4.55624 1.76637C4.33245 1.76637 4.1174 1.85339 3.95648 2.00893C3.79557 2.16446 3.70136 2.37632 3.69374 2.59999C3.69569 2.71122 3.71958 2.82102 3.76405 2.92299C3.80852 3.02496 3.87268 3.11711 3.95287 3.19423C4.03305 3.27134 4.12767 3.33187 4.23129 3.37233C4.33492 3.41279 4.44552 3.43246 4.55674 3.43007Z" fill="black"/>
</svg>
