<svg width="16" height="16" viewBox="0 0 16 16" fill="none" xmlns="http://www.w3.org/2000/svg">
<path fill-rule="evenodd" clip-rule="evenodd" d="M7.76375 5.65802C7.67581 5.66752 7.59465 5.70964 7.53632 5.77612C7.47798 5.8426 7.44673 5.92861 7.44875 6.01703V11.327C7.44875 11.4209 7.48604 11.5109 7.55243 11.5773C7.61882 11.6437 7.70886 11.681 7.80275 11.681C7.89663 11.681 7.98667 11.6437 8.05306 11.5773C8.11945 11.5109 8.15674 11.4209 8.15674 11.327V6.01703C8.15793 5.9666 8.14829 5.9165 8.12849 5.87012C8.10868 5.82373 8.07916 5.78213 8.04192 5.74811C8.00468 5.71409 7.96059 5.68845 7.9126 5.67291C7.86462 5.65737 7.81386 5.65229 7.76375 5.65802ZM7.80275 3.89398C7.73273 3.89398 7.66429 3.91478 7.60607 3.95367C7.54786 3.99257 7.50249 4.04786 7.47569 4.11255C7.4489 4.17723 7.44189 4.24841 7.45555 4.31708C7.46921 4.38575 7.50292 4.44884 7.55243 4.49835C7.60194 4.54786 7.66501 4.58156 7.73368 4.59521C7.80235 4.60887 7.87353 4.60187 7.93822 4.57507C8.0029 4.54828 8.05819 4.50292 8.09708 4.4447C8.13598 4.38649 8.15674 4.318 8.15674 4.24799C8.15674 4.20141 8.14756 4.15532 8.1297 4.1123C8.11185 4.06929 8.08569 4.0302 8.05271 3.99731C8.01973 3.96443 7.98059 3.93839 7.93752 3.92065C7.89446 3.90292 7.84832 3.89385 7.80175 3.89398H7.80275ZM7.80275 0.708008C9.20215 0.708997 10.5698 1.12487 11.7329 1.90302C12.8961 2.68116 13.8024 3.78665 14.3373 5.07977C14.8722 6.3729 15.0118 7.79555 14.7383 9.16797C14.4648 10.5404 13.7906 11.801 12.8009 12.7903C11.8111 13.7796 10.5503 14.4532 9.17779 14.7261C7.80525 14.999 6.38262 14.8589 5.08973 14.3234C3.79683 13.7879 2.69171 12.8811 1.91406 11.7177C1.13641 10.5543 0.721142 9.18639 0.720746 7.78699C0.719957 6.85688 0.902573 5.93576 1.25815 5.07629C1.61372 4.21683 2.13527 3.43589 2.79296 2.7782C3.45065 2.12051 4.23157 1.59898 5.09103 1.24341C5.95049 0.887834 6.87163 0.705205 7.80175 0.705994L7.80275 0.708008ZM7.80275 -0.00598138C6.26187 -0.00617911 4.75554 0.450519 3.47423 1.3064C2.19292 2.16227 1.19417 3.37888 0.604279 4.80237C0.0143844 6.22585 -0.140163 7.79227 0.160179 9.30359C0.460522 10.8149 1.20226 12.2033 2.29162 13.293C3.38097 14.3828 4.769 15.125 6.2802 15.426C7.79141 15.7269 9.3579 15.573 10.7816 14.9836C12.2053 14.3943 13.4223 13.396 14.2787 12.115C15.1351 10.834 15.5924 9.32786 15.5927 7.78699C15.5909 5.72107 14.7695 3.74031 13.3089 2.2793C11.8483 0.818285 9.86766 -0.00359846 7.80175 -0.00598138H7.80275Z" fill="black"/>
</svg>
