<svg width="13" height="16" viewBox="0 0 13 16" fill="none" xmlns="http://www.w3.org/2000/svg">
<path fill-rule="evenodd" clip-rule="evenodd" d="M1.51007 16.3H12.4431C12.5763 16.2988 12.7039 16.246 12.7992 16.1528C12.8944 16.0596 12.9499 15.9332 12.9541 15.8V9.53999C12.9511 9.4416 12.9199 9.34614 12.8642 9.26495C12.8086 9.18376 12.7308 9.12026 12.6401 9.082L12.6041 9.067V6.453C12.4314 5.76778 12.099 5.13315 11.6341 4.601L11.6231 4.58701L11.4001 1.832L11.4321 1.813C11.5094 1.76812 11.5737 1.70382 11.6186 1.62648C11.6635 1.54914 11.6875 1.46142 11.6881 1.37199V1.283C11.6924 1.21931 11.684 1.15538 11.6634 1.09496C11.6428 1.03453 11.6104 0.978802 11.5681 0.931C11.5266 0.883426 11.476 0.844603 11.4194 0.816788C11.3627 0.788972 11.3011 0.77272 11.2381 0.768997H9.62107C9.49338 0.773942 9.37288 0.829397 9.28606 0.923157C9.19924 1.01692 9.1532 1.14131 9.15807 1.269V1.38699C9.15729 1.47777 9.18056 1.56714 9.22553 1.64601C9.2705 1.72488 9.33555 1.79043 9.41407 1.836L9.44607 1.855L9.34607 3.082V3.10001L9.22507 4.58701L9.21407 4.601C8.75389 5.13638 8.42211 5.76984 8.24407 6.453V7.116L7.87507 6.94901V0.5C7.87226 0.368272 7.81868 0.242718 7.72552 0.149551C7.63235 0.0563846 7.5068 0.00280638 7.37507 0H6.52407C6.39234 0.00280638 6.26679 0.0563846 6.17362 0.149551C6.08046 0.242718 6.02688 0.368272 6.02407 0.5V6.94501L5.71107 7.086V6.452C5.53836 5.76679 5.20597 5.13218 4.74107 4.60001L4.73007 4.586L4.63007 3.07001L4.53007 1.85699L4.56207 1.838C4.64059 1.79243 4.70564 1.72688 4.75061 1.64801C4.79558 1.56914 4.81885 1.47979 4.81807 1.38901V1.282C4.82228 1.21875 4.81397 1.15529 4.79362 1.09526C4.77327 1.03523 4.74128 0.979811 4.69948 0.932159C4.65768 0.884508 4.60689 0.845563 4.55003 0.817566C4.49316 0.789569 4.43133 0.773066 4.36807 0.768997H2.76807C2.70476 0.771317 2.64253 0.786093 2.58493 0.812485C2.52734 0.838876 2.47551 0.876367 2.43242 0.922806C2.38932 0.969244 2.3558 1.02373 2.33378 1.08313C2.31176 1.14253 2.30166 1.20569 2.30407 1.269V1.38699C2.30479 1.4764 2.32877 1.56408 2.37366 1.6414C2.41855 1.71873 2.48279 1.78304 2.56007 1.828L2.59207 1.84599L2.37107 4.593L2.36007 4.606C1.90002 5.14186 1.56826 5.7756 1.39007 6.459V9.05299L1.35007 9.06599C1.24906 9.09944 1.16089 9.16335 1.09768 9.24895C1.03447 9.33454 0.999321 9.43763 0.99707 9.54401V15.8C1.0012 15.9332 1.0567 16.0596 1.15195 16.1528C1.2472 16.246 1.37481 16.2988 1.50807 16.3H1.51007ZM1.44907 15.859V13.582H12.5001V15.844L1.44907 15.859ZM12.4861 13.126H1.45007V11.267H12.4871V13.126H12.4861ZM12.4981 10.812H1.43807V9.496H1.49607C1.52813 9.49592 1.55981 9.4891 1.58907 9.476L6.05207 7.435V7.66901C6.05512 7.80066 6.10878 7.92607 6.20189 8.01918C6.29501 8.1123 6.42042 8.16596 6.55207 8.16901H7.40007C7.53172 8.16596 7.65713 8.1123 7.75025 8.01918C7.84336 7.92607 7.89702 7.80066 7.90007 7.66901V7.436L12.3641 9.47701C12.3856 9.48078 12.4076 9.48078 12.4291 9.47701L12.5011 9.459V10.817L12.4981 10.812ZM12.1511 8.884L8.70907 7.32899V6.46201C8.90097 5.85726 9.21667 5.29908 9.63607 4.823C9.66344 4.78748 9.67978 4.74471 9.68307 4.7L9.79307 3.325H11.0641L11.1791 4.71201C11.1825 4.75687 11.1992 4.7997 11.2271 4.83501C11.6439 5.30768 11.9582 5.86168 12.1501 6.46201V8.884H12.1511ZM1.84307 8.858V6.453C2.0348 5.84848 2.35053 5.2906 2.77007 4.815C2.79744 4.77949 2.81378 4.73672 2.81707 4.692L2.93007 3.313H4.20007L4.31307 4.689C4.31618 4.73375 4.33254 4.77657 4.36007 4.812C4.77883 5.28863 5.09324 5.84761 5.28307 6.453V7.3L1.84307 8.858ZM7.43407 7.72701H6.50007V0.427002L7.43307 0.440002V7.72501L7.43407 7.72701ZM11.0171 2.869H9.83207L9.91307 1.894H10.9521L11.0171 2.869ZM4.16607 2.849H2.96607L3.04707 1.87399H4.08807L4.16607 2.849ZM11.2351 1.41299H9.60907L9.61707 1.22501H11.2341V1.41299H11.2351ZM4.38307 1.41299H2.75707L2.76507 1.22501H4.38207V1.41299H4.38307Z" fill="black"/>
</svg>
