<svg width="7" height="21" viewBox="0 0 7 21" fill="none" xmlns="http://www.w3.org/2000/svg">
<path fill-rule="evenodd" clip-rule="evenodd" d="M6.60711 8.83801L4.95611 4.99298L4.68711 0.505005H4.70511C4.77274 0.505005 4.8376 0.47812 4.88542 0.430298C4.93325 0.382476 4.96011 0.31763 4.96011 0.25C4.96011 0.18237 4.93325 0.117524 4.88542 0.0697021C4.8376 0.0218804 4.77274 -0.00500488 4.70511 -0.00500488H1.94411C1.87648 -0.00500488 1.81162 0.0218804 1.7638 0.0697021C1.71598 0.117524 1.68911 0.18237 1.68911 0.25C1.68911 0.31763 1.71598 0.382476 1.7638 0.430298C1.81162 0.47812 1.87648 0.505005 1.94411 0.505005H1.96211L1.70411 5.005L0.0291107 8.83698C0.00845707 8.8743 -0.00222034 8.91633 -0.0018894 8.95898V18.988C-0.0143999 19.1668 0.0124042 19.3463 0.07664 19.5137C0.140876 19.6811 0.240986 19.8323 0.369935 19.9569C0.498884 20.0815 0.653545 20.1763 0.823052 20.2347C0.992559 20.2931 1.1728 20.3137 1.35111 20.295H5.28511C5.46361 20.3146 5.64422 20.2947 5.81414 20.2366C5.98405 20.1785 6.13908 20.0837 6.26823 19.9589C6.39738 19.8342 6.49747 19.6825 6.5614 19.5147C6.62533 19.3469 6.65152 19.167 6.63811 18.988V8.96002C6.63858 8.91735 6.62789 8.87529 6.60711 8.83801ZM2.48111 0.505005H4.16911L4.26911 1.71301H2.38011L2.48111 0.505005ZM0.514111 9.03101L2.18111 5.19C2.19817 5.15914 2.20872 5.12513 2.21211 5.09003L2.34911 2.21399H4.32111L4.45811 5.09003C4.46159 5.12511 4.47213 5.1591 4.48911 5.19L6.13211 9.026L6.12211 11.07H4.14211C4.0781 10.716 3.89179 10.3957 3.61572 10.1651C3.33964 9.93447 2.99134 9.80817 2.63161 9.80817C2.27188 9.80817 1.92358 9.93447 1.64751 10.1651C1.37143 10.3957 1.18513 10.716 1.12111 11.07H0.514111V9.03101ZM3.64911 11.325C3.65268 11.5271 3.59603 11.7256 3.48637 11.8954C3.3767 12.0651 3.21899 12.1984 3.03332 12.2783C2.84764 12.3581 2.64242 12.3808 2.44377 12.3436C2.24513 12.3063 2.06206 12.2108 1.91789 12.0692C1.77371 11.9276 1.67495 11.7463 1.63419 11.5483C1.59343 11.3504 1.61251 11.1448 1.689 10.9577C1.7655 10.7706 1.89594 10.6105 2.06372 10.4979C2.23149 10.3852 2.42901 10.325 2.63111 10.325C2.89856 10.3231 3.15585 10.4273 3.34665 10.6147C3.53745 10.8022 3.64621 11.0576 3.64911 11.325ZM1.12111 11.58C1.18513 11.934 1.37143 12.2542 1.64751 12.4849C1.92358 12.7155 2.27188 12.8419 2.63161 12.8419C2.99134 12.8419 3.33964 12.7155 3.61572 12.4849C3.89179 12.2542 4.0781 11.934 4.14211 11.58H6.12111V16.897H0.514111V11.58H1.12111ZM5.28211 19.774H1.35111C1.2403 19.7923 1.12674 19.7846 1.01943 19.7515C0.912107 19.7183 0.81397 19.6607 0.732776 19.5831C0.651581 19.5055 0.589555 19.41 0.551604 19.3043C0.513653 19.1986 0.500817 19.0855 0.514111 18.974V17.35H6.12011V18.98C6.13321 19.091 6.12014 19.2037 6.08196 19.3088C6.04377 19.4139 5.98152 19.5086 5.90019 19.5854C5.81886 19.6622 5.72069 19.7189 5.61355 19.7509C5.5064 19.783 5.39324 19.7895 5.28311 19.77" fill="black"/>
</svg>
