<svg width="15" height="17" viewBox="0 0 15 17" fill="none" xmlns="http://www.w3.org/2000/svg">
<path fill-rule="evenodd" clip-rule="evenodd" d="M12.1493 5.06006H11.4263V13.02H13.1493C13.3379 13.0218 13.5198 12.9501 13.6563 12.8201C13.7227 12.7567 13.7758 12.6807 13.8123 12.5966C13.8489 12.5124 13.8683 12.4218 13.8693 12.3301V6.68005C13.8524 6.2384 13.6626 5.82109 13.3408 5.51806C13.0191 5.21503 12.5912 5.05055 12.1493 5.06006ZM13.4223 12.3301C13.4201 12.3978 13.3922 12.4621 13.3443 12.51C13.2894 12.5586 13.2176 12.5838 13.1443 12.5801H11.8743V5.5H12.1523C12.4774 5.49366 12.792 5.6145 13.0293 5.83679C13.2665 6.05908 13.4075 6.3653 13.4223 6.69006V12.3301ZM6.65432 6.31006C6.62581 6.30885 6.59734 6.3134 6.57059 6.32336C6.54384 6.33332 6.51936 6.34847 6.49858 6.36804C6.4778 6.38761 6.46114 6.41115 6.44959 6.43725C6.43804 6.46335 6.43183 6.49148 6.43132 6.52002L6.44932 13.27C6.44996 13.2986 6.4563 13.3268 6.46796 13.3529C6.47961 13.379 6.49636 13.4026 6.51722 13.4221C6.53808 13.4417 6.56263 13.4568 6.58943 13.4668C6.61624 13.4767 6.64476 13.4812 6.67332 13.48C6.73203 13.4802 6.78845 13.4572 6.83024 13.416C6.87204 13.3748 6.89579 13.3187 6.89632 13.26L6.87832 6.52002C6.87768 6.49143 6.87135 6.46324 6.85969 6.43713C6.84803 6.41102 6.83128 6.38759 6.81042 6.36804C6.78957 6.34848 6.76502 6.33319 6.73821 6.32324C6.71141 6.31329 6.68289 6.30885 6.65432 6.31006ZM3.93632 6.31006C3.90781 6.30885 3.87934 6.3134 3.85259 6.32336C3.82584 6.33332 3.80136 6.34847 3.78058 6.36804C3.7598 6.38761 3.74314 6.41115 3.73159 6.43725C3.72004 6.46335 3.71383 6.49148 3.71332 6.52002L3.73132 13.27C3.73196 13.2986 3.7383 13.3268 3.74996 13.3529C3.76162 13.379 3.77836 13.4026 3.79922 13.4221C3.82008 13.4417 3.84463 13.4568 3.87143 13.4668C3.89824 13.4767 3.92676 13.4812 3.95532 13.48C4.01403 13.4802 4.07045 13.4572 4.11224 13.416C4.15403 13.3748 4.17779 13.3187 4.17832 13.26L4.16032 6.52002C4.15968 6.49143 4.15335 6.46324 4.14169 6.43713C4.13003 6.41102 4.11328 6.38759 4.09243 6.36804C4.07157 6.34848 4.04702 6.33319 4.02021 6.32324C3.99341 6.31329 3.96489 6.30885 3.93632 6.31006ZM14.0693 4.86999C13.6923 4.51608 13.2223 4.27682 12.7143 4.18005C12.8404 4.06219 12.9409 3.91971 13.0097 3.76147C13.0785 3.60323 13.1141 3.43255 13.1143 3.26001C13.1097 3.08406 13.0678 2.91114 12.9915 2.75256C12.9151 2.59398 12.806 2.45341 12.6713 2.34008C12.5306 2.21838 12.3667 2.12629 12.1896 2.06958C12.0124 2.01286 11.8255 1.99262 11.6403 2.01001H11.5903C11.5737 1.93888 11.553 1.86881 11.5283 1.80005C11.4048 1.52146 11.2245 1.27168 10.9989 1.06677C10.7733 0.86186 10.5075 0.706273 10.2183 0.609982C9.85711 0.51028 9.47889 0.488165 9.10851 0.54504C8.73813 0.601916 8.38398 0.736572 8.06932 0.94006C7.70237 0.572166 7.25242 0.297753 6.75732 0.140011C6.21409 0.000166446 5.64637 -0.0157871 5.09613 0.0932582C4.54588 0.202303 4.02717 0.433565 3.57832 0.770016C3.37587 0.690584 3.15707 0.661876 2.94096 0.686276C2.72485 0.710675 2.51797 0.787457 2.33832 0.910031C2.17127 1.02643 2.03551 1.18224 1.94306 1.36364C1.85061 1.54505 1.80433 1.7465 1.80832 1.95007C1.67602 1.978 1.54573 2.01473 1.41832 2.06006C1.12865 2.13629 0.856809 2.26882 0.618323 2.45007C0.261591 2.80455 0.0479845 3.278 0.0183237 3.78003C6.00833e-05 3.90582 -0.00496773 4.03319 0.00332339 4.16003C0.00332339 4.31003 0.0143234 4.53 0.00332339 5C-0.00467661 5.31 -0.00267661 5.37999 0.00332339 5.48999C0.0088498 5.82674 0.14781 6.14758 0.389683 6.38195C0.631555 6.61633 0.956564 6.74507 1.29332 6.73999C1.34732 6.73999 1.39832 6.72998 1.45032 6.72998V12.8C1.45654 13.4577 1.72169 14.0865 2.18832 14.55C2.21406 15.0387 2.42732 15.4985 2.78368 15.8339C3.14004 16.1692 3.61203 16.354 4.10132 16.35H9.20132C9.68684 16.3535 10.1553 16.1711 10.5105 15.8401C10.8657 15.5091 11.0807 15.0546 11.1113 14.5701C11.2982 14.3922 11.4564 14.1864 11.5803 13.9601H13.1433C13.5874 13.9698 14.0175 13.8041 14.3404 13.499C14.6632 13.1939 14.8529 12.774 14.8683 12.3301V6.69006C14.8658 6.34833 14.7936 6.01067 14.6562 5.69775C14.5189 5.38483 14.3192 5.10316 14.0693 4.86999ZM0.453323 5.48999C0.453323 5.47999 0.453323 5.43005 0.453323 5.43005C0.453323 5.38005 0.453323 5.31001 0.458323 5.01001C0.470323 4.53001 0.463323 4.30002 0.458323 4.15002C0.451114 4.04659 0.4548 3.94275 0.469323 3.84008C0.485447 3.44359 0.645829 3.06659 0.920323 2.78003C1.11685 2.63174 1.34033 2.52311 1.57832 2.46008C1.74325 2.40794 1.91263 2.37101 2.08432 2.34997C2.11436 2.34578 2.14326 2.33576 2.16935 2.32031C2.19544 2.30486 2.21821 2.28432 2.23632 2.26001C2.25394 2.23579 2.26625 2.20812 2.27245 2.17883C2.27865 2.14954 2.27861 2.11936 2.27232 2.09008C2.25059 1.97085 2.2552 1.84822 2.28583 1.73095C2.31646 1.61369 2.37237 1.50462 2.44964 1.41125C2.52691 1.31788 2.62367 1.24245 2.73314 1.19043C2.84261 1.1384 2.96213 1.11093 3.08332 1.10998C3.22736 1.11177 3.36865 1.1497 3.49432 1.22009C3.53373 1.2416 3.57855 1.25111 3.6233 1.24756C3.66806 1.244 3.71081 1.22753 3.74632 1.20007C4.14558 0.882256 4.61192 0.659464 5.11003 0.54858C5.60814 0.437697 6.12496 0.441615 6.62132 0.560055C7.10141 0.711802 7.53089 0.991833 7.86332 1.36999C7.90208 1.40903 7.9532 1.43337 8.00794 1.43884C8.06267 1.44431 8.11761 1.43061 8.16332 1.40002C8.43577 1.20178 8.74804 1.06512 9.07853 0.999508C9.40901 0.933895 9.74981 0.940885 10.0773 1.02002C10.3031 1.09811 10.5109 1.22064 10.6884 1.38037C10.866 1.5401 11.0098 1.73385 11.1113 1.95007C11.146 2.04719 11.1702 2.1477 11.1833 2.25C11.1904 2.30344 11.217 2.35239 11.258 2.38745C11.299 2.42251 11.3514 2.44127 11.4053 2.44006H11.6753C11.8008 2.42792 11.9274 2.44108 12.0477 2.47888C12.1679 2.51667 12.2794 2.5783 12.3753 2.66003C12.4662 2.73437 12.5396 2.82783 12.5903 2.93371C12.641 3.03959 12.6677 3.15531 12.6687 3.2727C12.6697 3.39009 12.6448 3.50622 12.5958 3.61291C12.5468 3.7196 12.475 3.8142 12.3853 3.89001C12.2863 3.97767 12.17 4.04349 12.0439 4.08313C11.9177 4.12276 11.7846 4.13529 11.6533 4.11999H10.4533C10.3945 4.11972 10.338 4.14275 10.296 4.18396C10.2541 4.22516 10.2301 4.28129 10.2293 4.34008V5.75C10.2293 5.88924 10.174 6.02276 10.0756 6.12121C9.9771 6.21967 9.84356 6.27502 9.70432 6.27502C9.56509 6.27502 9.43155 6.21967 9.33309 6.12121C9.23464 6.02276 9.17932 5.88924 9.17932 5.75V4.34008C9.17853 4.28129 9.15455 4.22516 9.1126 4.18396C9.07065 4.14275 9.01412 4.11972 8.95532 4.11999H8.78632C8.73971 4.11957 8.69415 4.13384 8.6561 4.16076C8.61805 4.18769 8.58944 4.22592 8.57432 4.27002C8.50893 4.44885 8.39017 4.6033 8.23411 4.7124C8.07805 4.8215 7.89224 4.88 7.70182 4.88C7.51141 4.88 7.3256 4.8215 7.16954 4.7124C7.01348 4.6033 6.89472 4.44885 6.82932 4.27002C6.81408 4.22601 6.78543 4.18791 6.74741 4.16101C6.70939 4.13411 6.6639 4.11972 6.61732 4.11999H6.28432C6.2522 4.12038 6.22054 4.12779 6.19154 4.1416C6.16253 4.15541 6.13687 4.17537 6.11632 4.20007C6.00832 4.31387 5.87828 4.4045 5.73413 4.46643C5.58997 4.52836 5.43472 4.5603 5.27782 4.5603C5.12093 4.5603 4.96568 4.52836 4.82152 4.46643C4.67737 4.4045 4.54733 4.31387 4.43932 4.20007C4.41878 4.17537 4.39312 4.15541 4.36411 4.1416C4.3351 4.12779 4.30345 4.12038 4.27132 4.11999H3.66232C3.62375 4.11988 3.58585 4.13009 3.55247 4.14941C3.51909 4.16874 3.49143 4.19647 3.47232 4.22998C3.39305 4.3581 3.28533 4.46624 3.15752 4.54602C3.02971 4.62579 2.88524 4.67513 2.73532 4.69006C2.62673 4.69957 2.51731 4.68938 2.41232 4.66003C2.37924 4.65549 2.34558 4.65755 2.3133 4.66613C2.28103 4.67472 2.25078 4.6897 2.22432 4.71008C2.19804 4.72984 2.17681 4.75548 2.16238 4.78503C2.14795 4.81458 2.14073 4.84712 2.14132 4.88V5.48999C2.13845 5.58942 2.11814 5.68761 2.08132 5.78003C2.07132 5.80003 2.05632 5.82997 2.04332 5.84997C2.0116 5.91132 1.97229 5.96848 1.92632 6.02002C1.90532 6.04002 1.88432 6.07008 1.85932 6.09008C1.80723 6.13239 1.75093 6.16923 1.69132 6.20007C1.66148 6.21343 1.6333 6.23014 1.60732 6.25C1.50832 6.28558 1.40445 6.30587 1.29932 6.31006C1.18993 6.31178 1.08127 6.29186 0.979544 6.25158C0.87782 6.2113 0.785028 6.15146 0.706466 6.07531C0.627905 5.99917 0.565114 5.90828 0.52168 5.80786C0.478245 5.70744 0.455017 5.59938 0.453323 5.48999ZM9.20232 15.91H4.10232C3.80525 15.9132 3.51423 15.826 3.26792 15.6599C3.02161 15.4938 2.83167 15.2566 2.72332 14.98C2.84516 15.0497 2.97221 15.1099 3.10332 15.16C3.13532 15.18 3.16832 15.1801 3.20332 15.2001C3.31832 15.2401 3.43632 15.27 3.55832 15.3L3.69532 15.3301C3.83832 15.3501 3.98332 15.36 4.13332 15.37H9.16232C9.39856 15.3703 9.63385 15.3401 9.86232 15.28C9.87557 15.2721 9.89097 15.2686 9.90632 15.27C10.1216 15.2083 10.3288 15.121 10.5233 15.01C10.5393 15 10.5573 15 10.5733 14.99C10.4629 15.263 10.2731 15.4966 10.0285 15.6606C9.78396 15.8246 9.4958 15.9115 9.20132 15.91H9.20232ZM14.4223 12.3201C14.4175 12.4825 14.3808 12.6424 14.3141 12.7906C14.2475 12.9389 14.1523 13.0726 14.034 13.1841C13.9157 13.2955 13.7766 13.3825 13.6246 13.4402C13.4726 13.4978 13.3108 13.5249 13.1483 13.52H11.4413C11.399 13.5203 11.3577 13.5327 11.3223 13.5558C11.2868 13.5788 11.2587 13.6115 11.2413 13.65C11.0615 14.0351 10.7721 14.3587 10.4093 14.5801C10.0332 14.8062 9.60319 14.927 9.16432 14.93H4.16432C3.57181 14.9329 3.00018 14.7114 2.56432 14.3101C2.35684 14.1168 2.19108 13.8831 2.07724 13.6234C1.96339 13.3637 1.90387 13.0836 1.90232 12.8V6.59008C1.91348 6.58697 1.9231 6.57983 1.92932 6.57007C2.01047 6.52996 2.08609 6.47952 2.15432 6.42004L2.19432 6.39001C2.2642 6.3198 2.32685 6.24277 2.38132 6.16003C2.39832 6.13003 2.41132 6.11007 2.42632 6.08007C2.46229 6.01653 2.49177 5.94945 2.51432 5.88C2.52432 5.85 2.53532 5.82004 2.54332 5.79004C2.56996 5.69219 2.5844 5.59138 2.58632 5.48999V5.11999C2.81497 5.1264 3.04193 5.07907 3.24895 4.98181C3.45598 4.88455 3.63729 4.74014 3.77832 4.56006H4.17832C4.47793 4.83969 4.87249 4.99524 5.28232 4.99524C5.69215 4.99524 6.08672 4.83969 6.38632 4.56006H6.47232C6.57376 4.7609 6.72267 4.93394 6.90614 5.06421C7.0896 5.19447 7.30208 5.27806 7.52514 5.30761C7.7482 5.33717 7.97511 5.31187 8.18617 5.23388C8.39723 5.15589 8.58608 5.02748 8.73632 4.85998V5.75C8.73924 5.90231 8.77997 6.05154 8.85485 6.1842C8.92974 6.31686 9.03643 6.42881 9.16532 6.51001L9.18032 13.27C9.18096 13.2986 9.1873 13.3268 9.19896 13.3529C9.21062 13.379 9.22736 13.4026 9.24822 13.4221C9.26908 13.4417 9.29363 13.4568 9.32043 13.4668C9.34724 13.4767 9.37576 13.4812 9.40432 13.48C9.46303 13.4802 9.51945 13.4572 9.56124 13.416C9.60304 13.3748 9.6268 13.3187 9.62732 13.26L9.61232 6.68005C9.64532 6.68005 9.67432 6.70007 9.71232 6.70007C9.96706 6.70221 10.2123 6.6035 10.3946 6.42553C10.5769 6.24757 10.6814 6.00471 10.6853 5.75V4.56006H12.1523C12.7472 4.55702 13.3214 4.77841 13.7603 5.18005V5.19006C13.9675 5.38141 14.1332 5.61331 14.2471 5.87133C14.3609 6.12936 14.4206 6.40803 14.4223 6.69006V12.3201Z" fill="black"/>
</svg>
