<svg width="17" height="17" viewBox="0 0 17 17" fill="none" xmlns="http://www.w3.org/2000/svg">
<path fill-rule="evenodd" clip-rule="evenodd" d="M8.05396 -0.0120239C6.46142 -0.0120239 4.90465 0.460267 3.58051 1.34503C2.25636 2.2298 1.22431 3.48731 0.614878 4.95862C0.00544131 6.42993 -0.154014 8.0489 0.156674 9.61084C0.467362 11.1728 1.23424 12.6075 2.36033 13.7336C3.48643 14.8597 4.92115 15.6266 6.48309 15.9373C8.04502 16.2479 9.66401 16.0885 11.1353 15.4791C12.6066 14.8696 13.8642 13.8376 14.7489 12.5134C15.6337 11.1893 16.106 9.63251 16.106 8.03998C16.1036 5.90519 15.2545 3.85853 13.7449 2.349C12.2354 0.839472 10.1887 -0.00964179 8.05396 -0.0120239ZM15.586 7.78802H12.322C12.272 4.60703 11.289 1.94898 9.85596 0.721985C11.4495 1.11633 12.871 2.01936 13.9052 3.29425C14.9394 4.56914 15.5298 6.14639 15.587 7.78699L15.586 7.78802ZM7.79996 0.520996V7.78699H4.29296C4.35796 3.91399 5.88396 0.777996 7.79996 0.520996ZM7.79996 8.29303V15.559C5.88296 15.302 4.35696 12.166 4.29196 8.29303H7.79996ZM8.30696 15.559V8.29303H11.815C11.751 12.166 10.225 15.3 8.30696 15.559ZM8.30696 7.78699V0.52002C10.225 0.77802 11.751 3.91399 11.815 7.78699H8.30696ZM6.25196 0.721008C4.81896 1.94801 3.83596 4.60599 3.78596 7.78699H0.521957C0.578866 6.14635 1.16903 4.56902 2.20302 3.29395C3.23701 2.01887 4.65846 1.11559 6.25196 0.721008ZM0.521957 8.29303H3.78696C3.83696 11.474 4.81996 14.132 6.25296 15.359C4.65935 14.9645 3.23777 14.0612 2.20361 12.7862C1.16946 11.5111 0.579088 9.93376 0.521957 8.29303ZM9.85696 15.358C11.29 14.132 12.273 11.474 12.323 8.29303H15.587C15.5299 9.93367 14.9396 11.511 13.9054 12.7859C12.8712 14.0608 11.4496 14.9638 9.85596 15.358H9.85696Z" fill="black"/>
</svg>
