<svg width="17" height="17" viewBox="0 0 17 17" fill="none" xmlns="http://www.w3.org/2000/svg">
<path fill-rule="evenodd" clip-rule="evenodd" d="M8.24605 12.385C7.42787 12.3848 6.62812 12.142 5.94792 11.6873C5.26773 11.2326 4.73764 10.5864 4.42467 9.83047C4.1117 9.07452 4.02992 8.24274 4.18966 7.44031C4.3494 6.63787 4.74349 5.90083 5.3221 5.32236C5.90071 4.74389 6.63785 4.34998 7.44033 4.19043C8.2428 4.03088 9.07456 4.11288 9.83044 4.42603C10.5863 4.73917 11.2324 5.2694 11.6869 5.94971C12.1414 6.63001 12.384 7.42984 12.384 8.24802C12.3827 9.34498 11.9463 10.3966 11.1705 11.1722C10.3948 11.9478 9.34301 12.384 8.24605 12.385ZM8.24605 3.27701C7.26283 3.27681 6.30164 3.56819 5.48403 4.11429C4.66643 4.66039 4.02912 5.43669 3.65273 6.345C3.27633 7.25332 3.17775 8.25285 3.36944 9.21719C3.56114 10.1815 4.0345 11.0674 4.72966 11.7627C5.42483 12.458 6.31058 12.9315 7.27488 13.1234C8.23919 13.3153 9.23875 13.2169 10.1471 12.8407C11.0555 12.4645 11.8319 11.8274 12.3782 11.0099C12.9245 10.1924 13.216 9.23123 13.216 8.24802C13.2147 6.9302 12.6907 5.66673 11.759 4.7348C10.8272 3.80287 9.56386 3.2786 8.24605 3.27701ZM8.24605 2.211C8.35638 2.211 8.46219 2.16719 8.5402 2.08917C8.61822 2.01116 8.66205 1.90534 8.66205 1.79501V0.420013C8.66205 0.309551 8.61817 0.203597 8.54006 0.125488C8.46195 0.0473794 8.35601 0.00350952 8.24555 0.00350952C8.13508 0.00350952 8.02915 0.0473794 7.95104 0.125488C7.87293 0.203597 7.82905 0.309551 7.82905 0.420013V1.79501C7.82905 1.84973 7.83984 1.9039 7.86081 1.95444C7.88178 2.00497 7.91251 2.05087 7.95124 2.08951C7.98998 2.12815 8.03596 2.15878 8.08654 2.17963C8.13713 2.20047 8.19133 2.21113 8.24605 2.211ZM8.24605 14.284C8.13572 14.284 8.02991 14.3278 7.95189 14.4059C7.87387 14.4839 7.83005 14.5897 7.83005 14.7V16.075C7.83005 16.1855 7.87393 16.2914 7.95204 16.3695C8.03015 16.4476 8.13608 16.4915 8.24655 16.4915C8.35701 16.4915 8.46295 16.4476 8.54106 16.3695C8.61917 16.2914 8.66305 16.1855 8.66305 16.075V14.7C8.66305 14.6453 8.65225 14.5911 8.63129 14.5406C8.61032 14.4901 8.57959 14.4441 8.54085 14.4055C8.50212 14.3668 8.45614 14.3362 8.40555 14.3154C8.35496 14.2946 8.30076 14.2839 8.24605 14.284ZM16.073 7.83102H14.699C14.5921 7.83627 14.4913 7.88243 14.4175 7.95996C14.3436 8.0375 14.3025 8.14044 14.3025 8.2475C14.3025 8.35456 14.3436 8.45753 14.4175 8.53506C14.4913 8.6126 14.5921 8.65876 14.699 8.664H16.074C16.181 8.65876 16.2818 8.6126 16.3556 8.53506C16.4295 8.45753 16.4706 8.35456 16.4706 8.2475C16.4706 8.14044 16.4295 8.0375 16.3556 7.95996C16.2818 7.88243 16.181 7.83627 16.074 7.83102H16.073ZM1.79305 7.83102H0.419046C0.312114 7.83627 0.211294 7.88243 0.137466 7.95996C0.0636391 8.0375 0.0224609 8.14044 0.0224609 8.2475C0.0224609 8.35456 0.0636391 8.45753 0.137466 8.53506C0.211294 8.6126 0.312114 8.65876 0.419046 8.664H1.79405C1.90098 8.65876 2.0018 8.6126 2.07563 8.53506C2.14945 8.45753 2.19063 8.35456 2.19063 8.2475C2.19063 8.14044 2.14945 8.0375 2.07563 7.95996C2.0018 7.88243 1.90098 7.83627 1.79405 7.83102H1.79305ZM3.39305 3.979C3.43165 4.01768 3.4775 4.04838 3.52797 4.06934C3.57844 4.09029 3.63255 4.10109 3.68719 4.10114C3.74184 4.10118 3.79596 4.09048 3.84647 4.06961C3.89697 4.04874 3.94287 4.01813 3.98155 3.97952C4.02022 3.94091 4.05091 3.89504 4.07187 3.84457C4.09282 3.7941 4.10363 3.74001 4.10368 3.68536C4.10372 3.63072 4.09301 3.5766 4.07214 3.52609C4.05127 3.47559 4.02066 3.4297 3.98205 3.39102L3.00905 2.41901C2.97044 2.38033 2.92459 2.34966 2.87412 2.3287C2.82365 2.30775 2.76955 2.29692 2.7149 2.29688C2.66025 2.29683 2.60613 2.30756 2.55563 2.32843C2.50512 2.3493 2.45922 2.37991 2.42055 2.41852C2.38187 2.45713 2.35118 2.50297 2.33023 2.55344C2.30927 2.60391 2.29846 2.658 2.29842 2.71265C2.29837 2.76729 2.30909 2.82141 2.32996 2.87192C2.35082 2.92242 2.38144 2.96834 2.42005 3.00702L3.39305 3.979ZM13.107 12.516C13.0684 12.4773 13.0225 12.4467 12.9719 12.4257C12.9214 12.4048 12.8672 12.394 12.8125 12.394C12.7579 12.394 12.7037 12.4048 12.6532 12.4257C12.6026 12.4467 12.5567 12.4773 12.518 12.516C12.4794 12.5547 12.4487 12.6006 12.4278 12.6511C12.4068 12.7017 12.3961 12.7558 12.3961 12.8105C12.3961 12.8652 12.4068 12.9193 12.4278 12.9699C12.4487 13.0204 12.4794 13.0663 12.518 13.105L13.491 14.077C13.529 14.1189 13.575 14.1527 13.6264 14.1762C13.6777 14.1998 13.7333 14.2126 13.7898 14.214C13.8463 14.2154 13.9025 14.2053 13.955 14.1844C14.0074 14.1634 14.0551 14.132 14.095 14.092C14.135 14.0521 14.1664 14.0044 14.1874 13.9519C14.2084 13.8995 14.2185 13.8433 14.2171 13.7868C14.2157 13.7303 14.2028 13.6747 14.1792 13.6233C14.1557 13.572 14.1219 13.5259 14.08 13.488L13.107 12.516ZM13.491 2.41602L12.518 3.388C12.4462 3.46733 12.4077 3.57124 12.4103 3.67822C12.413 3.7852 12.4567 3.88707 12.5323 3.96274C12.608 4.03841 12.7099 4.08209 12.8168 4.08475C12.9238 4.0874 13.0277 4.04884 13.107 3.97702L14.08 3.005C14.1219 2.96708 14.1557 2.92105 14.1792 2.86969C14.2028 2.81833 14.2157 2.76272 14.2171 2.70624C14.2185 2.64975 14.2084 2.59354 14.1874 2.54108C14.1664 2.48861 14.135 2.44096 14.095 2.401C14.0551 2.36105 14.0074 2.32963 13.955 2.30865C13.9025 2.28768 13.8463 2.27759 13.7898 2.27899C13.7333 2.28039 13.6777 2.29328 13.6264 2.31683C13.575 2.34039 13.529 2.37413 13.491 2.41602ZM3.39105 12.516L2.41905 13.488C2.34723 13.5673 2.30866 13.6713 2.31131 13.7782C2.31397 13.8852 2.35765 13.9871 2.43332 14.0627C2.50899 14.1384 2.61085 14.1821 2.71783 14.1848C2.82481 14.1874 2.92871 14.1488 3.00805 14.077L3.98005 13.105C4.05187 13.0257 4.09044 12.9218 4.08778 12.8148C4.08512 12.7078 4.04144 12.6059 3.96577 12.5303C3.89011 12.4546 3.78824 12.4109 3.68126 12.4083C3.57428 12.4056 3.47038 12.4442 3.39105 12.516Z" fill="black"/>
</svg>
