<svg width="16" height="16" viewBox="0 0 16 16" fill="none" xmlns="http://www.w3.org/2000/svg">
<path fill-rule="evenodd" clip-rule="evenodd" d="M15.6059 3.81601L15.5999 3.806C15.5917 3.78387 15.5799 3.76325 15.5649 3.745L15.5559 3.73199C15.54 3.71459 15.5219 3.69947 15.5019 3.68701H15.4939L7.91688 -0.0039978C7.88375 -0.0203183 7.84732 -0.0288086 7.81038 -0.0288086C7.77345 -0.0288086 7.73702 -0.0203183 7.70389 -0.0039978L0.142885 3.67801L0.116885 3.69202C0.0981286 3.70374 0.080984 3.71785 0.065885 3.73401L0.0548853 3.74701C0.0390235 3.76701 0.0262172 3.78926 0.0168852 3.81302V3.82501C0.00907245 3.84856 0.00502262 3.8732 0.00488513 3.89801V11.46C0.00468907 11.5047 0.0169306 11.5486 0.0402417 11.5867C0.0635527 11.6249 0.0970143 11.6558 0.136885 11.676L7.69888 15.552L7.71389 15.558C7.74521 15.5727 7.7793 15.5805 7.81388 15.581C7.84679 15.5808 7.87924 15.5733 7.90889 15.559L15.4899 11.676C15.53 11.656 15.5637 11.6252 15.5873 11.587C15.6108 11.5488 15.6231 11.5048 15.6229 11.46V3.89801C15.622 3.8699 15.6162 3.84216 15.6059 3.81601ZM15.1329 4.28702V11.306L8.05188 14.935V7.91602L15.1329 4.28702ZM14.8329 3.896L7.80889 7.496L5.67589 6.40601L12.6899 2.85699L14.8329 3.896ZM3.46789 5.271L10.4249 1.75L12.1419 2.586L5.14189 6.129L3.46789 5.271ZM2.82088 8.88699L5.07489 10.063C5.11198 10.0818 5.1532 10.091 5.19478 10.0898C5.23635 10.0886 5.27696 10.077 5.31288 10.056C5.34863 10.0343 5.37818 10.0038 5.39868 9.96735C5.41917 9.93091 5.42992 9.8898 5.42989 9.84799V6.82199L7.56589 7.91602V14.934L0.484885 11.306V4.28799L2.69188 5.41901V8.673C2.69209 8.71711 2.7043 8.76033 2.7272 8.79803C2.7501 8.83573 2.78283 8.86648 2.82189 8.88699H2.82088ZM3.17589 8.52402V5.66699L4.94488 6.573V9.448L3.17589 8.52402ZM2.93389 4.99802L0.782885 3.89801L7.80789 0.479004L9.87788 1.487L2.93389 4.99802Z" fill="black"/>
</svg>
