<svg width="17" height="17" viewBox="0 0 17 17" fill="none" xmlns="http://www.w3.org/2000/svg">
<path fill-rule="evenodd" clip-rule="evenodd" d="M0.24445 7.57999H0.228451C0.170217 7.57441 0.116541 7.54608 0.0790902 7.50114C0.0416392 7.4562 0.0234399 7.39829 0.0284501 7.34V7.28101C0.0284501 7.22601 0.0374509 7.171 0.0444509 7.115C0.296366 4.9972 1.379 3.06613 3.05433 1.74635C4.72965 0.426562 6.86053 -0.173895 8.97845 0.0770039C10.2427 0.226928 11.4535 0.673595 12.5122 1.38056C13.5709 2.08753 14.4475 3.03476 15.0704 4.145C15.095 4.19596 15.0992 4.25439 15.0821 4.30833C15.0651 4.36226 15.028 4.40765 14.9786 4.43522C14.9293 4.46279 14.8712 4.47046 14.8163 4.45667C14.7615 4.44288 14.7139 4.40865 14.6835 4.361C14.146 3.40024 13.4067 2.56745 12.5163 1.92002C11.626 1.27259 10.6058 0.825926 9.5262 0.610817C8.44657 0.395709 7.33314 0.417274 6.26264 0.674019C5.19215 0.930764 4.19006 1.41659 3.32545 2.098C2.54002 2.71279 1.88451 3.47747 1.39698 4.34763C0.909457 5.2178 0.599619 6.17612 0.485451 7.167C0.479451 7.218 0.475451 7.267 0.471451 7.318L0.46645 7.37901C0.460991 7.43382 0.435348 7.48465 0.394505 7.52161C0.353661 7.55858 0.300534 7.57901 0.245449 7.57899L0.24445 7.57999ZM8.05645 16.079C6.63534 16.08 5.23914 15.7059 4.00884 14.9946C2.77854 14.2834 1.75772 13.26 1.04945 12.028C1.02041 11.9769 1.01284 11.9164 1.0284 11.8598C1.04397 11.8032 1.0814 11.755 1.13245 11.726C1.1835 11.6969 1.244 11.6894 1.30064 11.705C1.35728 11.7205 1.40541 11.7579 1.43445 11.809C1.97886 12.7581 2.72136 13.5787 3.6114 14.2151C4.50144 14.8515 5.51814 15.2887 6.5923 15.4969C7.66646 15.7051 8.77286 15.6794 9.8362 15.4216C10.8996 15.1638 11.8949 14.68 12.7544 14.003C13.5398 13.3879 14.1953 12.6231 14.6828 11.7528C15.1703 10.8824 15.4802 9.92399 15.5944 8.93299C15.5944 8.90799 15.5944 8.88301 15.6014 8.85801L15.6064 8.8C15.6122 8.74138 15.6409 8.68745 15.6864 8.65003C15.7319 8.61262 15.7903 8.5948 15.849 8.6005C15.9076 8.6062 15.9615 8.63495 15.9989 8.68043C16.0363 8.72591 16.0542 8.78438 16.0484 8.84299V8.895C16.0484 8.924 16.0434 8.95402 16.0404 8.98402C15.8093 10.9386 14.8695 12.7407 13.3991 14.0491C11.9287 15.3575 10.0297 16.0815 8.06145 16.084L8.05645 16.079ZM2.66145 7.07002C2.64548 7.07145 2.62942 7.07145 2.61345 7.07002C2.58507 7.06374 2.5582 7.05193 2.53439 7.03526C2.51058 7.01859 2.49029 6.99737 2.47468 6.97285C2.45907 6.94832 2.44846 6.92097 2.44344 6.89234C2.43843 6.86371 2.43911 6.83438 2.44545 6.80601C2.68871 5.7367 3.23299 4.75936 4.01397 3.98951C4.79495 3.21966 5.77998 2.68948 6.85266 2.46159C7.92535 2.23369 9.04086 2.31762 10.0674 2.70347C11.0939 3.08932 11.9885 3.76097 12.6455 4.63902C12.6805 4.68609 12.6953 4.74513 12.6868 4.80317C12.6783 4.86121 12.647 4.91349 12.6 4.94849C12.5529 4.9835 12.4938 4.99838 12.4358 4.98985C12.3777 4.98131 12.3255 4.95007 12.2904 4.90299C11.6845 4.09177 10.8588 3.47111 9.91114 3.11445C8.96347 2.75779 7.93347 2.68005 6.943 2.89045C5.95254 3.10085 5.04308 3.59057 4.32223 4.30167C3.60138 5.01277 3.09932 5.91549 2.87545 6.90299C2.86435 6.95203 2.83694 6.99586 2.7977 7.02729C2.75847 7.05872 2.70972 7.07588 2.65945 7.076L2.66145 7.07002ZM8.04845 13.785C7.82322 13.7849 7.59819 13.7719 7.37445 13.746C6.61321 13.6588 5.87736 13.4191 5.21087 13.0411C4.54439 12.6631 3.96096 12.1546 3.49545 11.546C3.47726 11.5231 3.46376 11.4968 3.45573 11.4687C3.4477 11.4405 3.44528 11.4111 3.44863 11.3821C3.45197 11.353 3.461 11.3249 3.47521 11.2993C3.48942 11.2737 3.50853 11.2512 3.53145 11.233C3.55437 11.2148 3.58064 11.2013 3.60877 11.1933C3.6369 11.1852 3.66634 11.1828 3.69541 11.1862C3.72447 11.1895 3.75259 11.1986 3.77817 11.2128C3.80374 11.227 3.82626 11.2461 3.84445 11.269C4.45432 12.0595 5.27508 12.6617 6.21221 13.0062C7.14933 13.3506 8.1647 13.4234 9.14137 13.2161C10.118 13.0087 11.0163 12.5297 11.7326 11.8343C12.449 11.1388 12.9543 10.2551 13.1905 9.28501C13.2075 9.23202 13.2439 9.18737 13.2923 9.15992C13.3407 9.13247 13.3977 9.12424 13.4519 9.13682C13.5062 9.1494 13.5537 9.18188 13.5851 9.22785C13.6165 9.27382 13.6295 9.3299 13.6215 9.38499C13.3187 10.6354 12.6043 11.7476 11.5932 12.5431C10.5821 13.3386 9.33295 13.771 8.04645 13.771L8.04845 13.785ZM5.16045 6.53001C5.11989 6.53025 5.08006 6.51915 5.04545 6.49799C4.9962 6.46773 4.96076 6.41937 4.94674 6.36329C4.93272 6.30721 4.94123 6.24789 4.97045 6.19801C5.2248 5.77834 5.56244 5.41524 5.96254 5.13111C6.36264 4.84698 6.81671 4.64785 7.29675 4.546C7.77678 4.44414 8.2726 4.44174 8.7536 4.53892C9.23461 4.63609 9.6906 4.83078 10.0935 5.111C10.1374 5.14627 10.1663 5.19694 10.1743 5.25272C10.1822 5.30851 10.1687 5.36524 10.1364 5.41142C10.1041 5.45759 10.0554 5.48976 10.0003 5.50138C9.94514 5.513 9.88765 5.50321 9.83945 5.47401C9.48632 5.22855 9.08665 5.05802 8.66509 4.97294C8.24353 4.88786 7.80901 4.89003 7.38832 4.97932C6.96763 5.06861 6.56969 5.24312 6.21903 5.4921C5.86837 5.74109 5.57243 6.05927 5.34945 6.42701C5.32973 6.45975 5.30187 6.48681 5.26857 6.50556C5.23526 6.52432 5.19767 6.53412 5.15945 6.534L5.16045 6.53001ZM8.04745 11.634C7.90509 11.6336 7.76287 11.6253 7.62145 11.609C7.07415 11.5448 6.54913 11.3548 6.08745 11.054C6.06309 11.0381 6.0421 11.0176 6.02567 10.9936C6.00925 10.9696 5.99771 10.9426 5.99172 10.9141C5.98573 10.8856 5.98541 10.8563 5.99077 10.8277C5.99612 10.7991 6.00706 10.7719 6.02295 10.7475C6.03884 10.7231 6.05937 10.7022 6.08338 10.6857C6.10738 10.6693 6.13438 10.6578 6.16284 10.6518C6.1913 10.6458 6.22067 10.6455 6.24925 10.6508C6.27784 10.6562 6.30509 10.6671 6.32945 10.683C6.67549 10.9079 7.06247 11.0625 7.46827 11.1378C7.87407 11.2131 8.29073 11.2077 8.69444 11.1219C9.09815 11.0361 9.48099 10.8716 9.82108 10.6377C10.1612 10.4039 10.4518 10.1053 10.6765 9.75901C10.6919 9.7336 10.7123 9.71154 10.7364 9.69416C10.7605 9.67678 10.7879 9.66442 10.8169 9.65781C10.8458 9.65121 10.8759 9.65049 10.9051 9.65571C10.9344 9.66092 10.9623 9.67197 10.9872 9.68818C11.0122 9.70439 11.0336 9.72542 11.0502 9.75007C11.0668 9.77471 11.0784 9.80246 11.0841 9.83164C11.0898 9.86082 11.0896 9.89083 11.0834 9.91993C11.0773 9.94902 11.0654 9.97661 11.0485 10.001C10.7247 10.5022 10.2805 10.9143 9.75642 11.1996C9.23235 11.4848 8.64513 11.6342 8.04845 11.634H8.04745ZM1.26645 10.592C1.11911 10.6445 0.961077 10.6597 0.806418 10.6364C0.651758 10.6131 0.505263 10.5519 0.379969 10.4582C0.254674 10.3646 0.154464 10.2415 0.0882512 10.0998C0.0220385 9.95807 -0.00812301 9.80218 0.000450252 9.646C-0.00889643 9.30066 0.107707 8.9637 0.328508 8.69801C0.54931 8.43231 0.859231 8.25602 1.20045 8.202C1.34788 8.14948 1.506 8.13424 1.66075 8.15763C1.81549 8.18102 1.96205 8.24229 2.08737 8.33604C2.21269 8.42978 2.31288 8.55308 2.37902 8.69492C2.44516 8.83676 2.4752 8.99274 2.46645 9.14899C2.47552 9.49405 2.35877 9.83063 2.13797 10.096C1.91718 10.3613 1.60741 10.5372 1.26645 10.591V10.592ZM1.44645 9.06199C1.43845 8.87099 1.37345 8.738 1.21845 8.762C1.1437 8.78987 1.08191 8.84442 1.04498 8.91514C1.00805 8.98585 0.998604 9.06773 1.01845 9.145L1.03245 9.731C1.03245 9.923 1.09945 10.056 1.25745 10.025C1.33267 9.99755 1.39529 9.94359 1.43358 9.87327C1.47187 9.80295 1.4832 9.72109 1.46545 9.64301L1.44645 9.06199ZM4.32845 9.91999L3.49245 9.03599L3.51845 10.083L2.80445 10.227L2.74445 7.94999L3.58845 7.78001L4.42345 8.62L4.39845 7.62L5.11645 7.469L5.17245 9.745L4.32845 9.91999ZM7.32845 9.37101C7.12582 9.42101 6.91522 9.42985 6.7091 9.39704C6.50299 9.36423 6.30554 9.29044 6.12845 9.18L6.60345 8.65202C6.7096 8.72798 6.82968 8.78226 6.95683 8.81178C7.08398 8.84129 7.21569 8.84545 7.34445 8.82401C7.53945 8.78401 7.58745 8.724 7.58545 8.654C7.57845 8.384 6.25345 8.798 6.23145 7.943C6.28648 7.68716 6.4211 7.45532 6.61601 7.28071C6.81093 7.1061 7.05612 6.99769 7.31645 6.97102C7.51821 6.90843 7.73181 6.8939 7.94018 6.92863C8.14854 6.96336 8.3459 7.04636 8.51645 7.171L8.04345 7.633C7.85493 7.49502 7.62175 7.43228 7.38945 7.45701C7.34945 7.45448 7.31002 7.46753 7.27944 7.49345C7.24886 7.51936 7.22951 7.55614 7.22545 7.59602C7.23345 7.91802 8.52545 7.48299 8.54845 8.31599C8.48897 8.60059 8.33766 8.8578 8.11779 9.04804C7.89792 9.23829 7.62165 9.35104 7.33145 9.369L7.32845 9.37101ZM10.2474 8.727L10.1154 8.41502L9.43545 8.55201L9.32045 8.91401L8.58445 9.06199L9.47745 6.59501L10.2624 6.43699L11.2155 8.53699L10.2474 8.727ZM9.75545 7.55701L9.59045 8.063L9.93645 7.99299L9.75545 7.55701ZM11.3654 8.50199L11.3095 6.22599L12.3015 6.02601L12.3405 7.59602L13.3794 7.387L13.3965 8.09299L11.3654 8.50199ZM13.6894 8.034L13.6334 5.758L15.7915 5.32401L15.8074 5.99L14.6425 6.22401L14.6485 6.44999L15.3995 6.29899L15.4114 6.79899L14.6604 6.951L14.6665 7.17399L15.8314 6.939L15.8485 7.60499L13.6894 8.034Z" fill="black"/>
</svg>
