<svg width="16" height="17" viewBox="0 0 16 17" fill="none" xmlns="http://www.w3.org/2000/svg">
<path fill-rule="evenodd" clip-rule="evenodd" d="M5.077 8.78603L3.959 9.02101L2.889 7.50402V9.24703L1.943 9.44701L1.953 5.93602L3.071 5.70201L4.139 7.15303L4.144 5.47603L5.09 5.27602L5.077 8.78603ZM8.35 5.62203L6.805 5.94603V6.29003L7.805 6.08101V6.84502L6.805 7.054V7.40001L8.349 7.07601V8.10002L5.489 8.70003L5.495 5.19103L8.355 4.59102L8.35 5.62203ZM12.497 7.22902L11.317 7.47701L10.934 5.84801L10.452 7.65801L9.3 7.90001L8.4 4.58101L9.793 4.28801L10.093 6.235L10.552 4.12801L11.695 3.88903L12.052 5.82302L12.452 3.72902L13.485 3.51302L12.497 7.22902ZM15.141 1.76041e-05H0.257C0.223298 -0.000114047 0.189901 0.00640691 0.158726 0.0192132C0.127551 0.0320194 0.0992114 0.0508482 0.0753336 0.0746331C0.0514558 0.098418 0.0325095 0.126699 0.0195818 0.157824C0.0066541 0.188949 -2.57125e-07 0.222327 0 0.25603V16.17C0.000452574 16.2088 0.00968733 16.2469 0.027009 16.2815C0.0443307 16.3162 0.0692881 16.3464 0.1 16.37C0.145679 16.4067 0.202432 16.4268 0.261 16.427C0.279496 16.427 0.297939 16.425 0.316 16.421L15.2 13.184C15.2567 13.1711 15.3074 13.1394 15.3437 13.094C15.38 13.0485 15.3999 12.9922 15.4 12.934V0.255022C15.3999 0.221234 15.3931 0.187805 15.3799 0.156664C15.3668 0.125524 15.3477 0.0972703 15.3236 0.073565C15.2995 0.0498597 15.271 0.0311669 15.2397 0.0185418C15.2083 0.00591664 15.1748 -0.000378602 15.141 1.76041e-05ZM14.884 8.70003L0.515 11.82V4.20003L14.884 1.07802V8.70003ZM5.068 11.358V14.864L3.142 15.283V11.776L5.068 11.358ZM5.582 11.246L7.508 10.827V14.334L5.582 14.752V11.246ZM8.022 10.716L9.948 10.297V13.8L8.022 14.219V10.713V10.716ZM10.463 10.185L12.389 9.76702V13.273L10.463 13.692V10.185ZM14.884 0.514025V0.55202L0.515 3.67501V0.514025H14.884ZM0.515 12.344L2.628 11.885V15.392L0.515 15.851V12.344ZM12.9 13.158V9.65203L14.881 9.22103V12.728L12.9 13.158Z" fill="black"/>
</svg>
