<svg width="10" height="10" viewBox="0 0 10 10" fill="none" xmlns="http://www.w3.org/2000/svg">
<path fill-rule="evenodd" clip-rule="evenodd" d="M4.98528 9.97192C3.83175 9.97175 2.71397 9.57164 1.82238 8.83972C0.930794 8.10781 0.320568 7.0894 0.0956798 5.95801C-0.129209 4.82661 0.0451553 3.6522 0.589058 2.63495C1.13296 1.6177 2.01277 0.820514 3.07854 0.379211C4.14432 -0.0620909 5.33013 -0.120201 6.43395 0.214783C7.53777 0.549767 8.49129 1.25711 9.13204 2.21631C9.7728 3.17551 10.0612 4.3272 9.94796 5.47516C9.83477 6.62312 9.32704 7.69632 8.51128 8.5119C7.57583 9.44654 6.30764 9.97168 4.98528 9.97192ZM4.98528 0.963928C4.05473 0.963704 3.15288 1.28616 2.43343 1.87634C1.71398 2.46653 1.22143 3.28792 1.03973 4.20056C0.858021 5.1132 0.998404 6.06061 1.43694 6.88135C1.87548 7.70209 2.58505 8.34539 3.44472 8.7016C4.3044 9.05781 5.261 9.10489 6.15151 8.83484C7.04202 8.56479 7.81133 7.99434 8.32836 7.22064C8.84539 6.44694 9.07815 5.51787 8.98696 4.5918C8.89577 3.66572 8.48627 2.7999 7.82827 2.14191C7.45497 1.76846 7.01179 1.4722 6.52398 1.27008C6.03617 1.06796 5.51331 0.963946 4.98528 0.963928ZM4.98528 7.5639C5.11312 7.5639 5.23571 7.51312 5.3261 7.42273C5.4165 7.33234 5.46728 7.20974 5.46728 7.08191V4.98993C5.46728 4.86209 5.4165 4.7395 5.3261 4.64911C5.23571 4.55872 5.11312 4.50793 4.98528 4.50793C4.9219 4.5078 4.85912 4.52015 4.80053 4.54431C4.74193 4.56848 4.68868 4.60397 4.64382 4.64874C4.59896 4.69351 4.56334 4.74669 4.53905 4.80524C4.51477 4.86378 4.50228 4.92655 4.50228 4.98993V7.0719C4.50162 7.1357 4.51363 7.19899 4.53762 7.25812C4.56161 7.31724 4.59709 7.37102 4.64202 7.41632C4.68695 7.46162 4.74045 7.49756 4.79937 7.52203C4.85829 7.54651 4.92148 7.55903 4.98528 7.5589V7.5639ZM5.46728 3.0639C5.47025 2.99869 5.45997 2.93356 5.43706 2.87244C5.41416 2.81131 5.3791 2.75545 5.33401 2.70825C5.28891 2.66106 5.2347 2.6235 5.17467 2.59784C5.11465 2.57217 5.05007 2.55896 4.98479 2.55896C4.91952 2.55896 4.8549 2.57217 4.79488 2.59784C4.73486 2.6235 4.68068 2.66106 4.63558 2.70825C4.59048 2.75545 4.5554 2.81131 4.53249 2.87244C4.50958 2.93356 4.49931 2.99869 4.50228 3.0639C4.50794 3.18807 4.56125 3.30531 4.65111 3.39117C4.74098 3.47704 4.8605 3.52496 4.98479 3.52496C5.10909 3.52496 5.22858 3.47704 5.31844 3.39117C5.40831 3.30531 5.46162 3.18807 5.46728 3.0639Z" fill="#B02E2F"/>
</svg>
