<svg width="10" height="10" viewBox="0 0 10 10" fill="none" xmlns="http://www.w3.org/2000/svg">
<path fill-rule="evenodd" clip-rule="evenodd" d="M4.98528 9.97198C3.83175 9.97182 2.71397 9.5717 1.82238 8.83978C0.930794 8.10787 0.320568 7.08946 0.0956798 5.95807C-0.129209 4.82667 0.0451553 3.65226 0.589058 2.63501C1.13296 1.61776 2.01277 0.820575 3.07854 0.379272C4.14432 -0.0620298 5.33013 -0.12014 6.43395 0.214844C7.53777 0.549828 8.49129 1.25717 9.13204 2.21637C9.7728 3.17557 10.0612 4.32726 9.94796 5.47522C9.83477 6.62318 9.32704 7.69638 8.51128 8.51196C7.57583 9.4466 6.30764 9.97174 4.98528 9.97198ZM4.98528 0.963989C4.05473 0.963765 3.15288 1.28622 2.43343 1.8764C1.71398 2.46659 1.22143 3.28798 1.03973 4.20062C0.858021 5.11326 0.998404 6.06067 1.43694 6.88141C1.87548 7.70215 2.58505 8.34545 3.44472 8.70166C4.3044 9.05787 5.261 9.10495 6.15151 8.8349C7.04202 8.56485 7.81133 7.9944 8.32836 7.2207C8.84539 6.44701 9.07815 5.51793 8.98696 4.59186C8.89577 3.66578 8.48627 2.79996 7.82827 2.14197C7.45497 1.76852 7.01179 1.47227 6.52398 1.27014C6.03617 1.06802 5.51331 0.964007 4.98528 0.963989ZM4.98528 7.56396C5.11312 7.56396 5.23571 7.51318 5.3261 7.42279C5.4165 7.3324 5.46728 7.2098 5.46728 7.08197V4.98999C5.46728 4.86216 5.4165 4.73956 5.3261 4.64917C5.23571 4.55878 5.11312 4.508 4.98528 4.508C4.9219 4.50786 4.85912 4.52021 4.80053 4.54437C4.74193 4.56854 4.68868 4.60403 4.64382 4.6488C4.59896 4.69357 4.56334 4.74675 4.53905 4.8053C4.51477 4.86384 4.50228 4.92661 4.50228 4.98999V7.07196C4.50162 7.13576 4.51363 7.19906 4.53762 7.25818C4.56161 7.3173 4.59709 7.37108 4.64202 7.41638C4.68695 7.46168 4.74045 7.49762 4.79937 7.52209C4.85829 7.54657 4.92148 7.5591 4.98528 7.55896V7.56396ZM5.46728 3.06396C5.47025 2.99875 5.45997 2.93362 5.43706 2.8725C5.41416 2.81137 5.3791 2.75551 5.33401 2.70831C5.28891 2.66112 5.2347 2.62357 5.17467 2.5979C5.11465 2.57224 5.05007 2.55902 4.98479 2.55902C4.91952 2.55902 4.8549 2.57224 4.79488 2.5979C4.73486 2.62357 4.68068 2.66112 4.63558 2.70831C4.59048 2.75551 4.5554 2.81137 4.53249 2.8725C4.50958 2.93362 4.49931 2.99875 4.50228 3.06396C4.50794 3.18813 4.56125 3.30537 4.65111 3.39124C4.74098 3.4771 4.8605 3.52502 4.98479 3.52502C5.10909 3.52502 5.22858 3.4771 5.31844 3.39124C5.40831 3.30537 5.46162 3.18813 5.46728 3.06396Z" fill="black"/>
</svg>
