<svg width="10" height="10" viewBox="0 0 10 10" fill="none" xmlns="http://www.w3.org/2000/svg">
<path fill-rule="evenodd" clip-rule="evenodd" d="M4.98528 0C3.83175 0.000169157 2.71397 0.400286 1.82238 1.1322C0.930794 1.86412 0.320568 2.88252 0.0956798 4.01392C-0.129209 5.14531 0.0451553 6.31973 0.589058 7.33698C1.13296 8.35423 2.01277 9.15141 3.07854 9.59271C4.14432 10.034 5.33013 10.0921 6.43395 9.75714C7.53777 9.42216 8.49129 8.71481 9.13204 7.75562C9.7728 6.79642 10.0612 5.64473 9.94796 4.49677C9.83477 3.3488 9.32704 2.2756 8.51128 1.46002C7.57583 0.525382 6.30764 0.000245151 4.98528 0ZM4.98528 9.008C4.05473 9.00822 3.15288 8.68577 2.43343 8.09558C1.71398 7.50539 1.22143 6.684 1.03973 5.77136C0.858021 4.85872 0.998404 3.91132 1.43694 3.09058C1.87548 2.26984 2.58505 1.62653 3.44472 1.27032C4.3044 0.914116 5.261 0.867037 6.15151 1.13708C7.04202 1.40713 7.81133 1.97758 8.32836 2.75128C8.84539 3.52498 9.07815 4.45405 8.98696 5.38013C8.89577 6.3062 8.48627 7.17202 7.82827 7.83002C7.45497 8.20346 7.01179 8.49972 6.52398 8.70184C6.03617 8.90397 5.51331 9.00798 4.98528 9.008ZM4.98528 2.40802C5.11312 2.40802 5.23571 2.4588 5.3261 2.54919C5.4165 2.63959 5.46728 2.76218 5.46728 2.89001V4.98199C5.46728 5.10983 5.4165 5.23242 5.3261 5.32281C5.23571 5.41321 5.11312 5.46399 4.98528 5.46399C4.9219 5.46412 4.85912 5.45178 4.80053 5.42761C4.74193 5.40345 4.68868 5.36795 4.64382 5.32318C4.59896 5.27841 4.56334 5.22523 4.53905 5.16669C4.51477 5.10814 4.50228 5.04538 4.50228 4.98199V2.90002C4.50162 2.83622 4.51363 2.77293 4.53762 2.71381C4.56161 2.65468 4.59709 2.60091 4.64202 2.5556C4.68695 2.5103 4.74045 2.47437 4.79937 2.44989C4.85829 2.42541 4.92148 2.41289 4.98528 2.41302V2.40802ZM5.46728 6.90802C5.47025 6.97323 5.45997 7.03836 5.43706 7.09949C5.41416 7.16061 5.3791 7.21648 5.33401 7.26367C5.28891 7.31087 5.2347 7.34842 5.17467 7.37408C5.11465 7.39975 5.05007 7.41296 4.98479 7.41296C4.91952 7.41296 4.8549 7.39975 4.79488 7.37408C4.73486 7.34842 4.68068 7.31087 4.63558 7.26367C4.59048 7.21648 4.5554 7.16061 4.53249 7.09949C4.50958 7.03836 4.49931 6.97323 4.50228 6.90802C4.50794 6.78385 4.56125 6.66662 4.65111 6.58075C4.74098 6.49488 4.8605 6.44696 4.98479 6.44696C5.10909 6.44696 5.22858 6.49488 5.31844 6.58075C5.40831 6.66662 5.46162 6.78385 5.46728 6.90802Z" fill="#BF1332"/>
</svg>
