<svg width="15" height="14" viewBox="0 0 15 14" fill="none" xmlns="http://www.w3.org/2000/svg">
<path d="M7.60254 3.5C7.78819 3.5 7.96624 3.57375 8.09751 3.70502C8.22879 3.8363 8.30254 4.01435 8.30254 4.2L8.30254 7C8.30254 7.18565 8.22879 7.3637 8.09751 7.49497C7.96624 7.62625 7.78819 7.7 7.60254 7.7C7.41689 7.7 7.23884 7.62625 7.10756 7.49497C6.97629 7.3637 6.90254 7.18565 6.90254 7L6.90254 4.2C6.90254 4.01435 6.97629 3.8363 7.10756 3.70502C7.23884 3.57375 7.41689 3.5 7.60254 3.5ZM6.95854 9.534C6.97386 9.48939 6.99505 9.44702 7.02154 9.408L7.10554 9.303C7.20398 9.20587 7.32898 9.14007 7.46477 9.11391C7.60056 9.08775 7.74106 9.10239 7.86854 9.156C7.95337 9.19145 8.0315 9.24117 8.09954 9.303C8.16442 9.36841 8.21574 9.44598 8.25058 9.53126C8.28541 9.61655 8.30307 9.70787 8.30254 9.8C8.30143 9.89147 8.28241 9.98184 8.24654 10.066C8.2151 10.1529 8.16494 10.2318 8.09962 10.2971C8.0343 10.3624 7.95541 10.4126 7.86854 10.444C7.78475 10.481 7.69415 10.5002 7.60254 10.5002C7.51093 10.5002 7.42033 10.481 7.33654 10.444C7.24967 10.4126 7.17078 10.3624 7.10546 10.2971C7.04013 10.2318 6.98998 10.1529 6.95854 10.066C6.92267 9.98184 6.90364 9.89147 6.90254 9.8C6.8991 9.75339 6.8991 9.7066 6.90254 9.66C6.91459 9.61536 6.93348 9.57286 6.95854 9.534ZM7.60254 6.1196e-07C8.98701 4.90925e-07 10.3404 0.410543 11.4915 1.17971C12.6427 1.94888 13.5399 3.04213 14.0697 4.32121C14.5995 5.6003 14.7381 7.00776 14.468 8.36563C14.1979 9.7235 13.5313 10.9708 12.5523 11.9497C11.5733 12.9287 10.326 13.5954 8.96817 13.8655C7.6103 14.1356 6.20284 13.997 4.92376 13.4672C3.64467 12.9373 2.55142 12.0401 1.78225 10.889C1.01308 9.73785 0.602542 8.38447 0.602542 7C0.602542 6.08075 0.7836 5.17049 1.13538 4.32122C1.48717 3.47194 2.00278 2.70026 2.65279 2.05025C3.3028 1.40024 4.07448 0.884627 4.92375 0.532844C5.77303 0.181061 6.68328 6.92323e-07 7.60254 6.1196e-07ZM7.60254 12.6C8.71011 12.6 9.79282 12.2716 10.7137 11.6562C11.6346 11.0409 12.3524 10.1663 12.7763 9.14302C13.2001 8.11976 13.311 6.99379 13.0949 5.90749C12.8789 4.8212 12.3455 3.82338 11.5623 3.0402C10.7792 2.25703 9.78134 1.72368 8.69504 1.5076C7.60875 1.29153 6.48278 1.40242 5.45951 1.82628C4.43625 2.25013 3.56165 2.96789 2.94631 3.88881C2.33097 4.80972 2.00254 5.89242 2.00254 7C2.00254 8.48521 2.59254 9.90959 3.64274 10.9598C4.69294 12.01 6.11733 12.6 7.60254 12.6Z" fill="#D06F1A"/>
</svg>
