<svg width="32" height="32" viewBox="0 0 32 32" fill="none" xmlns="http://www.w3.org/2000/svg">
<g filter="url(#filter0_d_652_474)">
<path d="M4 14C4 7.37258 9.37258 2 16 2C22.6274 2 28 7.37258 28 14C28 20.6274 22.6274 26 16 26C9.37258 26 4 20.6274 4 14Z" fill="white"/>
<g clip-path="url(#clip0_652_474)">
<path fill-rule="evenodd" clip-rule="evenodd" d="M21.8401 11.77C21.7334 10.9676 21.3488 10.228 20.7532 9.67983C20.1575 9.1317 19.3886 8.80975 18.5801 8.77001C18.1073 8.74997 17.6356 8.82852 17.1949 9.00068C16.7541 9.17284 16.354 9.43484 16.0201 9.77001C15.5434 9.28472 14.9329 8.95257 14.2666 8.81602C13.6002 8.67947 12.9083 8.74473 12.2792 9.00344C11.6502 9.26216 11.1125 9.70258 10.735 10.2684C10.3575 10.8343 10.1574 11.4998 10.1601 12.18C10.2339 13.059 10.584 13.8921 11.1601 14.56C12.4965 16.1632 13.9614 17.6548 15.5401 19.02C15.6776 19.143 15.8556 19.211 16.0401 19.211C16.2245 19.211 16.4026 19.143 16.5401 19.02C18.2241 17.5361 19.7983 15.9319 21.2501 14.22C21.7432 13.5045 21.9534 12.6316 21.8401 11.77Z" fill="#B02E2F"/>
<path fill-rule="evenodd" clip-rule="evenodd" d="M16.0201 19.5C15.7456 19.5009 15.481 19.3972 15.2801 19.21C13.6854 17.8593 12.21 16.3738 10.8701 14.77C10.2746 14.0477 9.92434 13.1546 9.87012 12.22C9.87801 11.235 10.2742 10.2929 10.9725 9.59831C11.6709 8.90368 12.6151 8.51261 13.6001 8.51C14.4861 8.50412 15.3448 8.81638 16.0201 9.39C16.5329 8.96159 17.1515 8.67882 17.811 8.57124C18.4705 8.46366 19.1468 8.53522 19.7692 8.77846C20.3916 9.02169 20.9372 9.42766 21.349 9.95391C21.7608 10.4802 22.0237 11.1074 22.1101 11.77C22.2257 12.7104 21.975 13.6593 21.4101 14.42C19.9707 16.1178 18.4063 17.7055 16.7301 19.17C16.5403 19.3611 16.2885 19.4781 16.0201 19.5ZM13.6001 9.27C12.8045 9.27 12.0414 9.58607 11.4788 10.1487C10.9162 10.7113 10.6001 11.4744 10.6001 12.27C10.6711 13.0497 10.978 13.7893 11.4801 14.39C12.7791 15.9289 14.2004 17.3603 15.7301 18.67C15.7987 18.7278 15.8854 18.7595 15.9751 18.7595C16.0648 18.7595 16.1516 18.7278 16.2201 18.67C17.8569 17.2466 19.3846 15.7022 20.7901 14.05C21.2382 13.4355 21.4414 12.6762 21.3601 11.92C21.2779 11.2133 20.9471 10.5587 20.4269 10.0733C19.9067 9.5879 19.2309 9.30318 18.5201 9.27C18.1027 9.25151 17.6861 9.32221 17.2981 9.4774C16.9101 9.63259 16.5597 9.86871 16.2701 10.17L16.0201 10.45L15.7501 10.17C15.4728 9.8804 15.1387 9.65103 14.7688 9.49619C14.3989 9.34134 14.0011 9.26435 13.6001 9.27ZM16.0201 19.53C15.7365 19.5316 15.4622 19.4283 15.2501 19.24C13.6704 17.8936 12.2084 16.4149 10.8801 14.82C10.2866 14.0888 9.93694 13.1901 9.88012 12.25C9.88257 11.2586 10.2734 10.3076 10.9688 9.60095C11.6642 8.89432 12.6089 8.48831 13.6001 8.47C14.4843 8.46484 15.3416 8.77307 16.0201 9.34C16.734 8.74687 17.6429 8.44034 18.5701 8.48C19.5711 8.51904 20.5157 8.95382 21.1963 9.68883C21.8769 10.4238 22.238 11.399 22.2001 12.4C22.1725 13.1512 21.918 13.8763 21.4701 14.48C20.0298 16.1803 18.4619 17.7682 16.7801 19.23C16.5758 19.4257 16.303 19.5334 16.0201 19.53ZM13.6401 8.53C12.6588 8.53 11.7177 8.91982 11.0238 9.61371C10.3299 10.3076 9.94012 11.2487 9.94012 12.23C9.99985 13.1573 10.3497 14.0424 10.9401 14.76C12.2679 16.346 13.7264 17.8178 15.3001 19.16C15.4998 19.3378 15.7578 19.4361 16.0251 19.4361C16.2925 19.4361 16.5505 19.3378 16.7501 19.16C18.4262 17.699 19.9905 16.1145 21.4301 14.42C21.9881 13.6878 22.253 12.7738 22.1732 11.8567C22.0933 10.9396 21.6745 10.0851 20.9984 9.46031C20.3223 8.83547 19.4376 8.48511 18.5171 8.47766C17.5965 8.47021 16.7062 8.8062 16.0201 9.42C15.3535 8.85966 14.511 8.55169 13.6401 8.55V8.53ZM16.0201 18.77C15.9207 18.7723 15.8241 18.7366 15.7501 18.67C14.2204 17.3603 12.7991 15.9289 11.5001 14.39C10.9897 13.7865 10.6819 13.0379 10.6201 12.25C10.6081 11.6445 10.7796 11.0494 11.1121 10.5432C11.4447 10.037 11.9227 9.64329 12.4832 9.41388C13.0438 9.18446 13.6606 9.13009 14.2526 9.25791C14.8447 9.38574 15.3842 9.68976 15.8001 10.13L16.0401 10.38L16.2801 10.13C16.7061 9.69482 17.2545 9.39959 17.8523 9.28355C18.4501 9.16751 19.0691 9.23615 19.627 9.48035C20.1848 9.72456 20.6552 10.1328 20.9755 10.6507C21.2958 11.1686 21.4509 11.7718 21.4201 12.38C21.396 12.9834 21.1904 13.5654 20.8301 14.05C19.4212 15.7055 17.8903 17.2532 16.2501 18.68C16.1856 18.7348 16.1047 18.7665 16.0201 18.77ZM13.6001 9.31C12.8132 9.32312 12.0629 9.64497 11.511 10.2062C10.9592 10.7674 10.65 11.5229 10.6501 12.31C10.7197 13.0822 11.0232 13.8148 11.5201 14.41C12.8209 15.9408 14.2385 17.3684 15.7601 18.68C15.8206 18.7341 15.8989 18.764 15.9801 18.764C16.0613 18.764 16.1396 18.7341 16.2001 18.68C17.8345 17.254 19.362 15.7098 20.7701 14.06C21.0012 13.7497 21.1688 13.3968 21.2633 13.0215C21.3577 12.6463 21.3771 12.2561 21.3205 11.8734C21.2638 11.4906 21.1321 11.1228 20.933 10.791C20.7339 10.4593 20.4712 10.1701 20.1601 9.94C19.6886 9.57105 19.1174 9.35164 18.5201 9.31C18.1084 9.29451 17.698 9.36573 17.3155 9.51905C16.9331 9.67237 16.5871 9.90437 16.3001 10.2L16.0001 10.5L15.7001 10.2C15.4282 9.91699 15.1022 9.69148 14.7415 9.53688C14.3807 9.38228 13.9926 9.30172 13.6001 9.3V9.31Z" fill="#B02E2F"/>
</g>
</g>
<defs>
<filter id="filter0_d_652_474" x="0" y="0" width="32" height="32" filterUnits="userSpaceOnUse" color-interpolation-filters="sRGB">
<feFlood flood-opacity="0" result="BackgroundImageFix"/>
<feColorMatrix in="SourceAlpha" type="matrix" values="0 0 0 0 0 0 0 0 0 0 0 0 0 0 0 0 0 0 127 0" result="hardAlpha"/>
<feOffset dy="2"/>
<feGaussianBlur stdDeviation="2"/>
<feComposite in2="hardAlpha" operator="out"/>
<feColorMatrix type="matrix" values="0 0 0 0 0 0 0 0 0 0 0 0 0 0 0 0 0 0 0.15 0"/>
<feBlend mode="normal" in2="BackgroundImageFix" result="effect1_dropShadow_652_474"/>
<feBlend mode="normal" in="SourceGraphic" in2="effect1_dropShadow_652_474" result="shape"/>
</filter>
<clipPath id="clip0_652_474">
<rect width="12.36" height="11.06" fill="white" transform="translate(9.82007 8.47)"/>
</clipPath>
</defs>
</svg>
