<svg width="56" height="56" viewBox="0 0 56 56" fill="none" xmlns="http://www.w3.org/2000/svg">
<g filter="url(#filter0_d_2468_3858)">
<rect x="4.5" y="1.5" width="47" height="47" rx="9.5" fill="white" stroke="#E8E8E8"/>
<path fill-rule="evenodd" clip-rule="evenodd" d="M28.2765 32.5732C27.9205 32.5713 27.5773 32.4402 27.3108 32.2042C25.6386 30.7125 22.6553 27.9883 21.6504 26.4888C20.8812 25.5534 20.4253 24.4 20.3472 23.1914C20.3472 21.906 20.8572 20.6731 21.7654 19.7634C22.6736 18.8538 23.9057 18.3417 25.1911 18.3396C26.3406 18.3299 27.4552 18.7339 28.3315 19.478C29.0006 18.9171 29.8089 18.5476 30.6709 18.4085C31.5328 18.2693 32.4164 18.3657 33.228 18.6875C34.0397 19.0093 34.7493 19.5444 35.2818 20.2364C35.8143 20.9283 36.1498 21.7513 36.2529 22.6183C36.3943 23.8348 36.0719 25.0598 35.3501 26.0491C34.1646 27.7056 30.7181 30.9009 29.2814 32.1963C29.0073 32.4463 28.6474 32.5813 28.2765 32.5732ZM25.1911 19.321C24.1646 19.321 23.1801 19.7287 22.4543 20.4546C21.7284 21.1804 21.3207 22.1649 21.3207 23.1914C21.4098 24.2 21.8072 25.1566 22.459 25.9314C23.4718 27.3995 26.6435 30.2964 27.9546 31.4741C28.043 31.5503 28.1558 31.5923 28.2726 31.5923C28.3893 31.5923 28.5021 31.5503 28.5905 31.4741C29.9958 30.1944 33.3874 27.0619 34.5101 25.4839C35.0799 24.6881 35.3319 23.7081 35.2166 22.7361C35.0998 21.8313 34.6714 20.9955 34.0052 20.3723C33.339 19.749 32.4765 19.3773 31.566 19.321C31.026 19.2982 30.4873 19.39 29.9853 19.5903C29.4834 19.7905 29.0294 20.0947 28.6533 20.4829L28.3 20.8362L27.9546 20.4829C27.5966 20.1123 27.167 19.8182 26.692 19.6185C26.217 19.4188 25.7064 19.3176 25.1911 19.321ZM28.2765 32.6203C27.9076 32.6219 27.5517 32.4845 27.2794 32.2356C25.6072 30.7439 22.6474 28.0197 21.6111 26.5123C20.8391 25.5688 20.3808 24.4079 20.3 23.1914C20.3042 21.8955 20.8208 20.6538 21.7372 19.7375C22.6535 18.8211 23.8952 18.3045 25.1911 18.3004C26.3386 18.2862 27.453 18.6846 28.3315 19.423C29.0601 18.8322 29.9434 18.4634 30.8758 18.3606C31.8083 18.2578 32.7506 18.4254 33.5905 18.8432C34.4304 19.2611 35.1324 19.9117 35.6128 20.7175C36.0932 21.5232 36.3318 22.4501 36.3 23.3877C36.2587 24.3586 35.9309 25.2956 35.3579 26.0805C34.1646 27.7449 30.7103 30.9323 29.2814 32.2277C29.0067 32.4787 28.6486 32.6186 28.2765 32.6203ZM25.1911 18.3946C23.9195 18.3966 22.7007 18.9027 21.8015 19.8018C20.9024 20.701 20.3963 21.9199 20.3943 23.1914C20.4781 24.3878 20.9307 25.5288 21.6896 26.4574C22.726 27.9569 25.6779 30.6733 27.3658 32.1649C27.6244 32.3945 27.9582 32.5213 28.304 32.5213C28.6498 32.5213 28.9836 32.3945 29.2421 32.1649C30.671 30.8695 34.1175 27.6821 35.303 26.0256C36.0188 25.0486 36.3385 23.837 36.198 22.634C36.0563 21.4988 35.5175 20.4504 34.6769 19.6744C33.8363 18.8985 32.7481 18.4451 31.6052 18.3946C30.4121 18.3468 29.2442 18.7473 28.3315 19.5172C27.4566 18.7726 26.3398 18.3733 25.1911 18.3946ZM28.2765 31.6468C28.1488 31.6464 28.0258 31.5988 27.9311 31.5133C26.5807 30.3278 23.4404 27.4309 22.4119 25.9628C21.7582 25.177 21.3609 24.2098 21.2736 23.1914C21.2736 22.1503 21.6871 21.1519 22.4233 20.4157C23.1594 19.6796 24.1579 19.266 25.199 19.266C25.7202 19.2636 26.2365 19.3666 26.7168 19.569C27.1972 19.7714 27.6316 20.0689 27.9939 20.4436L28.3079 20.7655L28.6219 20.4436C29.1775 19.886 29.8878 19.5082 30.6607 19.3594C31.4337 19.2106 32.2335 19.2975 32.9564 19.609C33.6792 19.9205 34.2918 20.4422 34.7144 21.1062C35.1371 21.7702 35.3504 22.546 35.3265 23.3327C35.2876 24.1173 35.0141 24.8721 34.5415 25.4996C33.4109 27.0697 30.0194 30.2101 28.6141 31.4976C28.5165 31.5836 28.3909 31.6311 28.2608 31.6311L28.2765 31.6468ZM25.1911 19.3681C24.1771 19.3681 23.2046 19.7709 22.4876 20.4879C21.7706 21.2049 21.3678 22.1774 21.3678 23.1914C21.4614 24.188 21.8556 25.1326 22.4983 25.9C23.5032 27.3681 26.6749 30.2572 27.9939 31.4348C28.0708 31.506 28.1717 31.5455 28.2765 31.5455C28.3813 31.5455 28.4822 31.506 28.5591 31.4348C29.9644 30.163 33.3481 27.0305 34.4787 25.4525C35.0674 24.6758 35.3365 23.7033 35.231 22.7344C35.1254 21.7656 34.6531 20.8738 33.911 20.2422C33.1688 19.6105 32.2131 19.2867 31.2398 19.3373C30.2665 19.3879 29.3495 19.8091 28.6769 20.5143L28.2922 20.9068L27.9154 20.5143C27.5606 20.1513 27.1368 19.8629 26.669 19.6661C26.2012 19.4692 25.6987 19.3679 25.1911 19.3681Z" fill="black"/>
<path fill-rule="evenodd" clip-rule="evenodd" d="M29.2421 32.1649C29.2388 32.1678 29.2356 32.1707 29.2323 32.1736C29.2322 32.1737 29.2323 32.1735 29.2323 32.1736C28.9751 32.3976 28.6453 32.5213 28.3039 32.5213C28.2951 32.5213 28.2864 32.5212 28.2776 32.521C28.2773 32.521 28.2779 32.521 28.2776 32.521C28.2774 32.521 28.2763 32.521 28.276 32.521C28.276 32.521 28.276 32.521 28.276 32.521C27.9402 32.5144 27.6174 32.3883 27.3658 32.1649C27.362 32.1617 27.3583 32.1584 27.3546 32.1551C27.3545 32.155 27.3547 32.1551 27.3546 32.1551C27.3544 32.1549 27.354 32.1545 27.3537 32.1543C27.3534 32.154 27.353 32.1537 27.3527 32.1534C25.664 30.6605 22.7278 27.9572 21.692 26.4609C21.6914 26.4599 21.6907 26.459 21.6901 26.458C21.6899 26.4578 21.6902 26.4583 21.6901 26.458C21.6899 26.4579 21.6893 26.457 21.6892 26.4569C21.6878 26.4552 21.6864 26.4535 21.6851 26.4518C20.9289 25.5243 20.478 24.3856 20.3942 23.1917C20.3942 23.1916 20.3942 23.1918 20.3942 23.1917C20.3942 23.1907 20.3942 23.1894 20.3942 23.1884C20.3942 23.1873 20.3942 23.1862 20.3942 23.1852C20.3979 21.9159 20.9038 20.6995 21.8015 19.8018C21.8019 19.8014 21.8023 19.801 21.8027 19.8007C22.7017 18.9023 23.9201 18.3966 25.1911 18.3946C25.1911 18.3946 25.191 18.3946 25.1911 18.3946C25.1913 18.3946 25.192 18.3946 25.1922 18.3946C26.3203 18.374 27.4175 18.7589 28.285 19.4782C28.294 19.4857 28.303 19.4933 28.312 19.5008C28.3185 19.5063 28.325 19.5118 28.3314 19.5172C28.3378 19.5118 28.3443 19.5064 28.3507 19.501C28.3595 19.4937 28.3682 19.4865 28.377 19.4793C29.0417 18.9326 29.8372 18.5789 30.6772 18.4479C30.7453 18.4372 30.8137 18.4281 30.8824 18.4204C31.121 18.3937 31.3626 18.3849 31.6052 18.3946C32.159 18.4191 32.7 18.5381 33.2061 18.7427C33.3264 18.7913 33.4447 18.8447 33.5608 18.9029C33.9642 19.1049 34.3403 19.3639 34.6768 19.6744C34.8785 19.8606 35.0628 20.0624 35.2284 20.2774C35.3459 20.4299 35.4539 20.5889 35.5521 20.7536C35.891 21.3222 36.1123 21.9585 36.1968 22.6248C36.1968 22.6249 36.1968 22.6248 36.1968 22.6248C36.1972 22.6279 36.1976 22.631 36.1979 22.634C36.2272 22.8846 36.2365 23.1355 36.2264 23.3846C36.2264 23.3848 36.2264 23.3844 36.2264 23.3846C36.1881 24.3284 35.8715 25.2466 35.3081 26.0185C35.308 26.0187 35.3082 26.0184 35.3081 26.0185C35.3065 26.0208 35.3046 26.0234 35.3029 26.0256C35.3006 26.0288 35.2983 26.0321 35.296 26.0353C35.2958 26.0355 35.2961 26.0351 35.296 26.0353C34.1053 27.6924 30.6776 30.8633 29.2481 32.1595C29.248 32.1595 29.2482 32.1594 29.2481 32.1595C29.2462 32.1612 29.244 32.1632 29.2421 32.1649ZM35.3452 26.0559C35.3454 26.0557 35.3451 26.056 35.3452 26.0559C35.3429 26.0591 35.3403 26.0628 35.338 26.066C35.338 26.0659 35.3379 26.066 35.338 26.066C34.1412 27.7273 30.7132 30.9054 29.2814 32.1963C29.2794 32.1981 29.2774 32.1999 29.2754 32.2017C29.2756 32.2016 29.2753 32.2018 29.2754 32.2017C29.2723 32.2045 29.2688 32.2077 29.2657 32.2104C29.2657 32.2104 29.2656 32.2105 29.2657 32.2104C29.0004 32.4453 28.6581 32.5745 28.3039 32.5735C28.2948 32.5735 28.2856 32.5734 28.2764 32.5732C28.2765 32.5732 28.2764 32.5732 28.2764 32.5732C27.9256 32.5713 27.587 32.4439 27.3222 32.2142C27.3223 32.2142 27.3222 32.2142 27.3222 32.2142C27.3184 32.2109 27.3145 32.2075 27.3108 32.2042C27.3103 32.2037 27.3098 32.2033 27.3093 32.2029C27.3095 32.203 27.3092 32.2027 27.3093 32.2029C25.6369 30.711 22.6555 27.9883 21.6506 26.4892C21.6507 26.4894 21.6505 26.4891 21.6506 26.4892C21.65 26.4885 21.6491 26.4873 21.6485 26.4866C21.6487 26.4868 21.6484 26.4864 21.6485 26.4866C21.6479 26.4858 21.6468 26.4845 21.6461 26.4837C20.8802 25.55 20.4259 24.3998 20.3473 23.1947C20.3473 23.1937 20.3472 23.1926 20.3471 23.1916C20.3471 23.1906 20.3471 23.1893 20.3471 23.1883C20.3479 21.9046 20.8575 20.6734 21.7642 19.7646C21.7646 19.7642 21.765 19.7638 21.7654 19.7635C22.6733 18.854 23.905 18.342 25.1901 18.3396C25.1897 18.3396 25.1904 18.3396 25.1901 18.3396C25.1901 18.3396 25.191 18.3396 25.1911 18.3396C26.2934 18.3304 27.3641 18.7017 28.2228 19.3885C28.2502 19.4104 28.2774 19.4326 28.3044 19.4552C28.3134 19.4628 28.3224 19.4704 28.3314 19.478C28.3402 19.4706 28.3491 19.4632 28.358 19.4558C28.3852 19.4334 28.4125 19.4113 28.4401 19.3895C29.0873 18.8782 29.8551 18.5402 30.6708 18.4085C30.7397 18.3974 30.8087 18.3877 30.8779 18.3796C31.1205 18.3511 31.3642 18.3411 31.607 18.3493C31.6069 18.3493 31.6071 18.3493 31.607 18.3493C32.1604 18.3681 32.709 18.4817 33.228 18.6875C33.3505 18.7361 33.4707 18.7895 33.5883 18.8476C34.0019 19.0519 34.3836 19.314 34.7221 19.6254C34.925 19.8119 35.1123 20.0162 35.2817 20.2364C35.4009 20.3912 35.5102 20.5526 35.6092 20.7196C35.9527 21.2988 36.1728 21.9453 36.2529 22.6183C36.2532 22.6212 36.2536 22.6241 36.2539 22.627C36.2539 22.6269 36.2539 22.6272 36.2539 22.627C36.2829 22.8806 36.2918 23.1349 36.2811 23.3869C36.2811 23.3868 36.281 23.387 36.2811 23.3869C36.2405 24.341 35.9196 25.2685 35.35 26.0491C35.3484 26.0514 35.3468 26.0536 35.3452 26.0559ZM35.3702 26.0636C35.3703 26.0635 35.3702 26.0636 35.3702 26.0636C35.3687 26.0657 35.367 26.0681 35.3654 26.0703C35.3655 26.07 35.3652 26.0705 35.3654 26.0703C35.3631 26.0735 35.3602 26.0773 35.3579 26.0805C34.1689 27.7389 30.7353 30.9092 29.297 32.2135C29.2971 32.2135 29.297 32.2136 29.297 32.2135C29.2951 32.2153 29.293 32.2172 29.2911 32.2189C29.2912 32.2188 29.2909 32.2191 29.2911 32.2189C29.288 32.2217 29.2844 32.225 29.2814 32.2277C29.0135 32.4725 28.6661 32.6117 28.3039 32.6199C28.2948 32.6201 28.2856 32.6202 28.2764 32.6203C28.2765 32.6203 28.2764 32.6203 28.2764 32.6203C28.2762 32.6203 28.2757 32.6203 28.2754 32.6203C27.9129 32.6216 27.5629 32.4887 27.2927 32.2476C27.2928 32.2477 27.2926 32.2476 27.2927 32.2476C27.289 32.2443 27.2851 32.2408 27.2814 32.2374C27.2814 32.2374 27.2813 32.2374 27.2814 32.2374C27.2808 32.2368 27.28 32.2362 27.2794 32.2356C25.6093 30.7459 22.6551 28.0268 21.6151 26.5182C21.6152 26.5183 21.6151 26.5181 21.6151 26.5182C21.6143 26.517 21.6132 26.5154 21.6124 26.5142C21.612 26.5136 21.6115 26.513 21.6111 26.5123C21.6112 26.5125 21.611 26.5122 21.6111 26.5123C20.8407 25.5706 20.3824 24.4119 20.3004 23.198C20.3004 23.1968 20.3003 23.1956 20.3002 23.1945C20.3001 23.1935 20.3001 23.1924 20.3 23.1914C20.3 23.1915 20.3 23.1914 20.3 23.1914C20.3042 21.8956 20.8208 20.6538 21.7371 19.7375C21.7375 19.7371 21.7379 19.7367 21.7383 19.7364C22.6541 18.8211 23.8946 18.305 25.1893 18.3004C25.1898 18.3004 25.1903 18.3004 25.1907 18.3004C25.1907 18.3004 25.1908 18.3004 25.1907 18.3004C26.2606 18.2872 27.302 18.6326 28.1499 19.2779C28.1629 19.2877 28.1758 19.2976 28.1886 19.3076C28.2369 19.3451 28.2845 19.3836 28.3314 19.423C28.377 19.386 28.4233 19.3499 28.4701 19.3147C28.4854 19.3032 28.5007 19.2918 28.5161 19.2805C29.1508 18.8142 29.8889 18.508 30.6676 18.3881C30.7367 18.3775 30.8061 18.3683 30.8758 18.3606C31.1197 18.3338 31.3643 18.3254 31.6076 18.3351C31.6075 18.3351 31.6077 18.3351 31.6076 18.3351C32.1633 18.3574 32.7124 18.4744 33.2302 18.6818C33.3521 18.7306 33.4723 18.7845 33.5904 18.8433C34.0053 19.0496 34.3865 19.3128 34.7239 19.6234C34.9273 19.8106 35.1148 20.0149 35.2842 20.2345C35.4028 20.3883 35.5126 20.5495 35.6128 20.7175C35.9607 21.301 36.1818 21.9482 36.2652 22.6169C36.2652 22.6168 36.2652 22.6169 36.2652 22.6169C36.2655 22.6197 36.2659 22.6226 36.2663 22.6255C36.2662 22.6253 36.2663 22.6257 36.2663 22.6255C36.2972 22.8771 36.3086 23.1323 36.3 23.3877C36.259 24.3516 35.9356 25.2821 35.3702 26.0636ZM35.601 26.2564C36.2084 25.4238 36.5559 24.4301 36.5997 23.4005L36.5998 23.3979C36.6335 22.4028 36.3803 21.419 35.8704 20.5638C35.3605 19.7087 34.6155 19.0182 33.7241 18.5747C32.8327 18.1312 31.8325 17.9534 30.8429 18.0625C29.9339 18.1627 29.0689 18.5011 28.3347 19.0415C27.4334 18.3546 26.3264 17.9867 25.1887 18.0004C23.8141 18.0051 22.4971 18.5533 21.525 19.5254C20.5526 20.4977 20.0044 21.8153 20 23.1905C20 23.1974 20.0002 23.2044 20.0007 23.2113C20.0853 24.4859 20.5642 25.7025 21.371 26.6926C21.9095 27.4724 22.9241 28.5438 23.9969 29.5942C25.0796 30.6542 26.2408 31.7111 27.0784 32.4583C27.406 32.7573 27.8341 32.9222 28.2777 32.9203C28.7239 32.9183 29.1533 32.7507 29.4829 32.45C30.1985 31.8012 31.4225 30.6776 32.6179 29.5068C33.8071 28.3421 34.9868 27.1127 35.601 26.2564ZM25.191 19.266C24.1529 19.2682 23.1575 19.6815 22.4232 20.4157C22.4219 20.4171 22.4206 20.4184 22.4193 20.4197C21.6856 21.1555 21.2735 22.1522 21.2735 23.1914C21.2736 23.1928 21.2737 23.1942 21.2739 23.1956C21.274 23.1971 21.2741 23.1987 21.2743 23.2002C21.363 24.2144 21.7592 25.1774 22.4099 25.9604C22.4106 25.9612 22.4112 25.962 22.4119 25.9628C22.412 25.963 22.4117 25.9625 22.4119 25.9628C22.4129 25.9643 22.4145 25.9665 22.4155 25.9679C22.4157 25.9682 22.4159 25.9685 22.4161 25.9688C23.4472 27.4364 26.5724 30.3201 27.9245 31.5076C27.9247 31.5078 27.9242 31.5074 27.9245 31.5076C27.9246 31.5077 27.9254 31.5084 27.9256 31.5085C27.926 31.5089 27.9265 31.5093 27.9269 31.5097C27.9283 31.5109 27.9297 31.5121 27.931 31.5133C27.9444 31.5254 27.9583 31.5367 27.9727 31.5472C28.0524 31.6054 28.1472 31.6397 28.246 31.6458C28.2509 31.6461 28.2558 31.6463 28.2607 31.6465C28.2647 31.6466 28.2686 31.6467 28.2725 31.6468C28.2738 31.6468 28.2751 31.6468 28.2764 31.6468L28.2607 31.6311C28.2647 31.6311 28.2686 31.631 28.2725 31.631C28.2738 31.6309 28.2751 31.6309 28.2764 31.6309C28.2765 31.6309 28.2764 31.6309 28.2764 31.6309C28.282 31.6307 28.2876 31.6304 28.2931 31.6301C28.3877 31.6244 28.4788 31.5936 28.5573 31.5413C28.5764 31.5285 28.5947 31.5145 28.6122 31.4992C28.6124 31.499 28.612 31.4994 28.6122 31.4992C28.6126 31.4989 28.6136 31.498 28.614 31.4976C28.6144 31.4973 28.6147 31.497 28.6151 31.4967C28.6153 31.4965 28.6148 31.4969 28.6151 31.4967C30.0201 30.2094 33.4049 27.0751 34.5382 25.5041C34.5382 25.504 34.5382 25.5041 34.5382 25.5041C34.5392 25.5027 34.5402 25.5013 34.5412 25.4999C34.5413 25.4998 34.5411 25.5 34.5412 25.4999C34.5415 25.4994 34.5421 25.4987 34.5424 25.4982C35.0144 24.871 35.2875 24.1167 35.3265 23.3327C35.3326 23.1296 35.323 22.9271 35.298 22.7271C35.298 22.7269 35.298 22.7273 35.298 22.7271C35.2979 22.7268 35.2978 22.7259 35.2978 22.7256C35.2258 22.1518 35.0276 21.5983 34.7144 21.1062C34.5288 20.8146 34.3066 20.5505 34.0545 20.3196C34.0153 20.2836 33.9753 20.2485 33.9347 20.2142C33.6417 19.9669 33.3124 19.7625 32.9563 19.6091C32.5143 19.4186 32.0435 19.3121 31.5677 19.2921C31.5675 19.2921 31.5679 19.2921 31.5677 19.2921C31.458 19.2875 31.3474 19.2874 31.2374 19.2921C31.0446 19.3002 30.8518 19.3226 30.6607 19.3594C30.4246 19.4049 30.1944 19.4717 29.9726 19.5584C29.4683 19.7558 29.0077 20.0563 28.6219 20.4436L28.3079 20.7655L27.9945 20.4443C27.9937 20.4435 27.9922 20.442 27.9915 20.4412C27.9912 20.441 27.9917 20.4414 27.9915 20.4412C27.6298 20.068 27.1958 19.7709 26.7168 19.569C26.7157 19.5686 26.7145 19.5681 26.7134 19.5676C26.7125 19.5673 26.7117 19.5669 26.7108 19.5665C26.2322 19.3658 25.718 19.2636 25.1989 19.266C25.1963 19.266 25.1937 19.266 25.191 19.266ZM27.9546 20.4829C27.9537 20.482 27.9522 20.4805 27.9514 20.4796C27.9515 20.4797 27.9513 20.4795 27.9514 20.4796C27.5949 20.1116 27.1675 19.819 26.6953 19.6199C26.6942 19.6195 26.6931 19.619 26.692 19.6185C26.6911 19.6182 26.6903 19.6178 26.6894 19.6174C26.2176 19.4195 25.7108 19.3186 25.1992 19.3209C25.1993 19.3209 25.1991 19.3209 25.1992 19.3209C25.1966 19.3209 25.1937 19.321 25.1911 19.321C25.1911 19.321 25.1911 19.321 25.1911 19.321C24.1664 19.321 23.1836 19.7273 22.4582 20.4507C22.4569 20.452 22.4555 20.4533 22.4542 20.4546C21.7293 21.1795 21.3217 22.1623 21.3206 23.1874C21.3206 23.1887 21.3206 23.1901 21.3206 23.1914C21.3207 23.1929 21.3209 23.1944 21.321 23.1958C21.4107 24.2008 21.8066 25.154 22.4551 25.9268C22.4556 25.9274 22.4561 25.9279 22.4566 25.9285C22.4571 25.9291 22.4576 25.9297 22.4581 25.9304C22.4584 25.9307 22.4587 25.931 22.459 25.9314C22.4592 25.9317 22.4594 25.932 22.4596 25.9323C23.4731 27.4007 26.6438 30.2967 27.9546 31.4741C27.9551 31.4745 27.9556 31.475 27.9562 31.4755C27.9559 31.4752 27.9564 31.4757 27.9562 31.4755C27.9575 31.4766 27.9595 31.4783 27.9608 31.4794C27.9607 31.4792 27.961 31.4795 27.9608 31.4794C27.9701 31.4871 27.9802 31.4949 27.99 31.5019C28.069 31.5582 28.1633 31.5898 28.2608 31.5921C28.2647 31.5922 28.2686 31.5923 28.2725 31.5923C28.2738 31.5923 28.2751 31.5923 28.2764 31.5922C28.2764 31.5922 28.2765 31.5922 28.2764 31.5922C28.2844 31.5922 28.2925 31.5919 28.3004 31.5915C28.312 31.5908 28.3235 31.5897 28.335 31.5882C28.4096 31.5786 28.4809 31.5518 28.5434 31.5099C28.5597 31.499 28.5755 31.487 28.5905 31.4741C28.5908 31.4737 28.5912 31.4734 28.5916 31.4731C28.5914 31.4732 28.5917 31.4729 28.5916 31.4731C28.5918 31.4729 28.5925 31.4722 28.5927 31.472C28.5926 31.4721 28.5929 31.4719 28.5927 31.472C29.9997 30.1908 33.3881 27.0609 34.51 25.4839C34.5111 25.4824 34.5122 25.4808 34.5133 25.4793C34.5134 25.4791 34.514 25.4782 34.5142 25.478C34.8764 24.9702 35.1094 24.3879 35.2005 23.7807C35.2255 23.632 35.2417 23.4817 35.249 23.3304C35.249 23.3299 35.249 23.3294 35.2491 23.3289C35.2584 23.1317 35.2526 22.933 35.2309 22.7344C35.1683 22.16 34.9767 21.6124 34.6764 21.1303C34.4977 20.8434 34.2804 20.5796 34.0289 20.3469C33.9904 20.3113 33.951 20.2763 33.9109 20.2422C33.6174 19.9924 33.2905 19.7907 32.9424 19.6414C32.661 19.5206 32.3658 19.4341 32.0631 19.3838C31.8996 19.3524 31.7336 19.3313 31.5659 19.321C31.4568 19.3164 31.3477 19.3165 31.2389 19.3212C31.0465 19.3295 30.8551 19.3524 30.6665 19.3894C30.4343 19.435 30.2062 19.5021 29.9853 19.5903C29.4852 19.7898 29.0328 20.0924 28.6576 20.4785C28.6577 20.4783 28.6575 20.4786 28.6576 20.4785C28.6563 20.4798 28.6546 20.4815 28.6533 20.4829L28.6491 20.4871L28.3 20.8362L27.9546 20.4829ZM27.9188 20.5179L27.9153 20.5143C27.562 20.1528 27.1403 19.8654 26.6748 19.6686C26.6737 19.6681 26.6726 19.6676 26.6715 19.6672C26.6707 19.6668 26.6698 19.6664 26.6689 19.6661C26.2037 19.4703 25.7041 19.369 25.1994 19.3681C25.1996 19.3681 25.1992 19.3681 25.1994 19.3681C25.1969 19.3681 25.1939 19.3681 25.1914 19.3681C25.1915 19.3681 25.1913 19.3681 25.1914 19.3681C24.1792 19.3681 23.2081 19.7694 22.4915 20.484C22.4902 20.4853 22.4889 20.4866 22.4875 20.4879C21.7724 21.203 21.3699 22.1723 21.3677 23.1834C21.3677 23.1847 21.3677 23.186 21.3677 23.1873C21.3677 23.1887 21.3677 23.19 21.3677 23.1914C21.4611 24.1857 21.8538 25.1282 22.4938 25.8946C22.495 25.8961 22.4962 25.8976 22.4974 25.899C22.4977 25.8993 22.498 25.8997 22.4982 25.9C22.4986 25.9005 22.4989 25.901 22.4993 25.9015C22.4996 25.902 22.4999 25.9024 22.5002 25.9029C23.5066 27.3708 26.6709 30.2535 27.9908 31.4321C27.9911 31.4323 27.9913 31.4326 27.9916 31.4328C27.9923 31.4335 27.9931 31.4341 27.9938 31.4348C27.9949 31.4358 27.9961 31.4369 27.9972 31.4379C27.9975 31.4382 27.9979 31.4385 27.9982 31.4388C28.0045 31.4445 28.011 31.45 28.0177 31.4553C28.0869 31.5103 28.1721 31.5419 28.2608 31.5452C28.2647 31.5454 28.2686 31.5455 28.2725 31.5455C28.2738 31.5455 28.2751 31.5455 28.2764 31.5455C28.2763 31.5455 28.2766 31.5455 28.2764 31.5455C28.3024 31.5455 28.3284 31.5431 28.3535 31.5383C28.3675 31.5357 28.3813 31.5323 28.3949 31.5283C28.4387 31.5153 28.4802 31.4951 28.5177 31.4684C28.5313 31.4588 28.5443 31.4483 28.5567 31.437C28.557 31.4367 28.5574 31.4364 28.5577 31.4361C28.5577 31.4361 28.5577 31.4361 28.5577 31.4361C28.5581 31.4358 28.5585 31.4354 28.5588 31.435C28.5588 31.4351 28.5589 31.435 28.5588 31.435C29.9624 30.1648 33.3395 27.0384 34.4743 25.4585C34.4743 25.4585 34.4743 25.4584 34.4743 25.4585C34.4754 25.4569 34.4766 25.4553 34.4777 25.4537C34.478 25.4533 34.4783 25.4529 34.4786 25.4525C34.4786 25.4525 34.4786 25.4524 34.4786 25.4525C34.8537 24.9575 35.0992 24.383 35.2005 23.7807C35.2228 23.6318 35.2366 23.4813 35.2417 23.3302C35.2417 23.3296 35.2417 23.3291 35.2418 23.3285C35.2483 23.1318 35.24 22.9338 35.2166 22.7361C35.2166 22.7361 35.2166 22.7361 35.2166 22.7361C35.1432 22.1682 34.9471 21.6274 34.6466 21.1494C34.4683 20.8658 34.2532 20.6043 34.0052 20.3723C33.9671 20.3366 33.9284 20.3018 33.889 20.2679C33.6003 20.0185 33.2785 19.8141 32.9346 19.6593C32.6566 19.5342 32.3642 19.4415 32.0631 19.3838C31.899 19.3565 31.7328 19.3399 31.5654 19.3343C31.5655 19.3343 31.5653 19.3343 31.5654 19.3343C31.4573 19.3307 31.3485 19.3317 31.2398 19.3374C31.0473 19.3474 30.857 19.3719 30.6704 19.4102C30.4388 19.4577 30.2129 19.5266 29.9953 19.6154C29.5054 19.8155 29.0581 20.117 28.6853 20.5055C28.6855 20.5053 28.6851 20.5057 28.6853 20.5055C28.6841 20.5067 28.6823 20.5086 28.6811 20.5098C28.6812 20.5097 28.681 20.51 28.6811 20.5098C28.6798 20.5112 28.6781 20.513 28.6768 20.5143L28.2921 20.9068L27.9188 20.5179ZM25.1911 19.566C25.191 19.566 25.1911 19.566 25.1911 19.566L25.1912 19.6681C25.6587 19.6679 26.1216 19.7613 26.5526 19.9426C26.9832 20.1238 27.3732 20.3891 27.6998 20.723L28.0757 21.1146C28.1319 21.1731 28.2095 21.2064 28.2906 21.2068C28.3718 21.2073 28.4496 21.1748 28.5064 21.1168L28.8911 20.7243L28.8939 20.7214C29.5137 20.0716 30.3586 19.6836 31.2553 19.6369C31.5096 19.6237 31.7626 19.6382 32.0102 19.6791C32.6778 19.8079 33.2991 20.1226 33.8002 20.5914C34.4152 21.1666 34.8107 21.938 34.9189 22.773C34.9569 23.095 34.9513 23.4179 34.9042 23.7335C34.8106 24.2876 34.5846 24.8159 34.2395 25.2713L34.2347 25.2778C33.6869 26.0424 32.5768 27.2029 31.4119 28.3442C30.2529 29.4797 29.0589 30.5778 28.3578 31.2124L28.3553 31.2146C28.3338 31.2345 28.3057 31.2455 28.2764 31.2455C28.2472 31.2455 28.219 31.2345 28.1976 31.2146L28.1936 31.211C27.5355 30.6234 26.4164 29.6099 25.3374 28.5612C24.2514 27.5057 23.2288 26.4361 22.7458 25.7305C22.7403 25.7225 22.7345 25.7148 22.7282 25.7074C22.1277 24.9902 21.7581 24.1083 21.6677 23.1774C21.6714 22.248 22.0422 21.3575 22.6997 20.7C23.3604 20.0393 24.2567 19.6681 25.1912 19.6681L25.1911 19.566Z" fill="black"/>
</g>
<defs>
<filter id="filter0_d_2468_3858" x="0" y="0" width="56" height="56" filterUnits="userSpaceOnUse" color-interpolation-filters="sRGB">
<feFlood flood-opacity="0" result="BackgroundImageFix"/>
<feColorMatrix in="SourceAlpha" type="matrix" values="0 0 0 0 0 0 0 0 0 0 0 0 0 0 0 0 0 0 127 0" result="hardAlpha"/>
<feOffset dy="3"/>
<feGaussianBlur stdDeviation="2"/>
<feComposite in2="hardAlpha" operator="out"/>
<feColorMatrix type="matrix" values="0 0 0 0 0 0 0 0 0 0 0 0 0 0 0 0 0 0 0.05 0"/>
<feBlend mode="normal" in2="BackgroundImageFix" result="effect1_dropShadow_2468_3858"/>
<feBlend mode="normal" in="SourceGraphic" in2="effect1_dropShadow_2468_3858" result="shape"/>
</filter>
</defs>
</svg>
