<?xml version="1.0" encoding="utf-8"?>
<!-- Generator: Adobe Illustrator 26.0.3, SVG Export Plug-In . SVG Version: 6.00 Build 0)  -->
<svg version="1.1" id="Layer_1" xmlns="http://www.w3.org/2000/svg" xmlns:xlink="http://www.w3.org/1999/xlink" x="0px" y="0px"
	 viewBox="0 0 16 21" style="enable-background:new 0 0 16 21;" xml:space="preserve">
<style type="text/css">
	.st0{fill-rule:evenodd;clip-rule:evenodd;fill:#ffffff;}
</style>
<path class="st0" d="M15.36929,9.61011c-0.61153-1.44964-1.63681-2.68677-2.94776-3.55663
	c-1.31085-0.86984-2.84919-1.33381-4.42241-1.33381c-1.57323,0-3.11152,0.46396-4.42244,1.33381
	C2.26576,6.92334,1.24043,8.16047,0.62896,9.61011C0.21098,10.59348-0.00298,11.65144,0.00003,12.72
	c-0.0008,0.92726,0.15993,1.84763,0.47495,2.71979c0.04508,0.1271,0.13877,0.23099,0.26047,0.28899
	c0.1217,0.0579,0.26142,0.0652,0.38844,0.0201c0.12703-0.0451,0.23093-0.13879,0.28888-0.26049
	c0.05794-0.12169,0.06519-0.26149,0.02011-0.38848c-0.59624-1.65663-0.54845-3.47676,0.13395-5.0998
	C2.27364,8.3262,3.6067,6.99478,5.28144,6.29018C6.14153,5.9272,7.06558,5.74027,7.99912,5.74027
	c0.93352,0,1.85759,0.18693,2.71771,0.54991c1.01898,0.43002,1.92108,1.0961,2.6322,1.94328
	c0.71102,0.84718,1.21056,1.85125,1.45743,2.9294c0.24687,1.07816,0.23397,2.19951-0.03759,3.27177
	c-0.27157,1.07216-0.79401,2.06452-1.52433,2.89518c-0.09999,0.11-0.19998,0.21989-0.30797,0.32989
	c-0.63653,0.63568-1.39044,1.14176-2.21974,1.49004c-0.86012,0.36299-1.78419,0.54998-2.71771,0.54998
	c-0.93353,0-1.85759-0.18699-2.71768-0.54998c-0.09999-0.04-0.20599-0.09-0.30697-0.13999
	c-0.05501-0.0224-0.10818-0.0493-0.15897-0.0801c-0.04834-0.0191-0.09487-0.0424-0.13899-0.0699l-0.15797-0.09
	c-0.04399-0.02-0.088-0.05-0.131-0.07c-0.04299-0.02-0.1-0.07-0.14399-0.1c-0.044-0.03-0.093-0.05-0.13799-0.08
	c-0.04499-0.03-0.08697-0.0701-0.13096-0.10009c-0.05025-0.0294-0.09808-0.0628-0.14298-0.1
	c-0.041-0.03-0.07998-0.0599-0.11898-0.0899c-0.04605-0.0396-0.09449-0.0763-0.145-0.10999
	c-0.03502-0.0358-0.07243-0.0692-0.11199-0.1c-0.05022-0.04-0.09766-0.0835-0.14198-0.13
	c-0.03888-0.0301-0.07502-0.0636-0.10799-0.1001l-0.13197-0.12c0.63323-0.63537,1.38411-1.14145,2.21075-1.48994
	c0.85957-0.36289,1.78314-0.54988,2.71618-0.54988c0.93304,0,1.85662,0.18699,2.71622,0.54988
	c0.21498,0.09,0.42895,0.19009,0.63293,0.30009c0.05819,0.0334,0.12249,0.0547,0.18918,0.0627
	c0.06669,0.008,0.13418,0.0026,0.19868-0.0161c0.06449-0.0187,0.12459-0.0501,0.17658-0.0925
	c0.05209-0.0424,0.09509-0.0947,0.12649-0.15409c0.06469-0.11799,0.07999-0.25699,0.0425-0.38628
	c-0.0375-0.1293-0.12469-0.23859-0.24247-0.30369c-0.23447-0.13109-0.47654-0.24799-0.72492-0.34999
	c-1.46652-0.61917-3.0843-0.78727-4.64674-0.48268c-1.56243,0.30459-2.99866,1.06796-4.12529,2.19261
	c-0.11999,0.12-0.23996,0.24999-0.35195,0.37998c-0.08291,0.0918-0.1288,0.21119-0.1288,0.33489
	c0,0.1238,0.04588,0.24319,0.1288,0.33509c0.11399,0.13,0.23296,0.25999,0.35195,0.37998
	c0.72948,0.72847,1.59288,1.30915,2.54271,1.70993c0.9856,0.41568,2.04446,0.62997,3.11414,0.62997s2.12858-0.21429,3.11417-0.62997
	c0.94979-0.40079,1.81319-0.98146,2.54271-1.70993c0.12099-0.11999,0.23997-0.24999,0.35196-0.37998
	c0.99229-1.12915,1.64631-2.5151,1.88718-3.99894c0.24087-1.48394,0.05879-3.00558-0.52534-4.39073H15.36929z M11.01679,10.2801
	c-0.0004-0.59677-0.17778-1.18015-0.50954-1.67617c-0.33186-0.49602-0.80327-0.88244-1.3547-1.11056
	c-0.55144-0.2281-1.15813-0.28756-1.74336-0.17088C6.82395,7.43915,6.28642,7.72673,5.86459,8.14886
	C5.44277,8.57101,5.15558,9.10873,5.03931,9.69409c-0.11628,0.58531-0.05641,1.19198,0.17204,1.74336
	c0.22846,0.55128,0.61524,1.02256,1.11144,1.35405c0.49621,0.33149,1.07958,0.50838,1.67633,0.50838
	c0.39648,0.0002,0.7891-0.0778,1.15542-0.22959c0.36631-0.15169,0.69911-0.37418,0.97936-0.65467
	c0.28027-0.28039,0.50254-0.61348,0.65402-0.97986C10.9394,11.06927,11.01719,10.67668,11.01679,10.2801z M5.99935,10.2801
	c0-0.39551,0.11729-0.78225,0.33702-1.11113c0.21974-0.32889,0.53204-0.58517,0.89746-0.73654
	c0.36541-0.15136,0.76749-0.19105,1.15541-0.11389C8.77716,8.3957,9.1335,8.58619,9.41316,8.86587
	c0.27968,0.2797,0.47014,0.63607,0.54731,1.02401c0.07713,0.38791,0.03753,0.79-0.11383,1.15548
	c-0.15135,0.36539-0.40765,0.67777-0.73652,0.89756c-0.32886,0.21969-0.7155,0.33709-1.11101,0.33709
	c-0.53038,0-1.03903-0.21069-1.41406-0.58578C6.21003,11.31916,5.99935,10.81058,5.99935,10.2801z"/>
</svg>
