<?xml version="1.0" encoding="utf-8"?>
<!-- Generator: Adobe Illustrator 26.0.3, SVG Export Plug-In . SVG Version: 6.00 Build 0)  -->
<svg version="1.1" id="Layer_1" xmlns="http://www.w3.org/2000/svg" xmlns:xlink="http://www.w3.org/1999/xlink" x="0px" y="0px"
	 viewBox="0 0 17 21" style="enable-background:new 0 0 17 21;" xml:space="preserve">
<style type="text/css">
	.st0{fill-rule:evenodd;clip-rule:evenodd;fill:#F3B232;}
</style>
<path class="st0" d="M6.10535,3.11144V0.375C6.10531,0.32585,6.09549,0.27723,6.07648,0.23198
	c-0.01901-0.04526-0.04683-0.08625-0.08181-0.1205C5.92392,0.04027,5.82805,0.0002,5.72804,0H2.95608
	c-0.0992-0.00001-0.19441,0.03931-0.26503,0.10949C2.62044,0.17968,2.5801,0.27508,2.57878,0.375v2.73644L0.51516,10.3987
	C0.50448,10.4314,0.49938,10.4656,0.50007,10.5v9.4256c0.00159,0.285,0.11489,0.5578,0.31521,0.759
	C1.0156,20.8859,1.28672,20.9992,1.56962,21h5.5449c0.2829-0.0008,0.55402-0.1141,0.75434-0.3154
	c0.20032-0.2012,0.3136-0.474,0.31519-0.759V10.5c0.0007-0.0344-0.0044-0.0686-0.01509-0.1013L6.10535,3.11144z M5.36582,3.27363
	l0.06138,0.2128H3.25793l0.05937-0.2128c0.00993-0.03285,0.01502-0.06698,0.01509-0.10132V2.14865h2.01834v1.02366
	C5.35132,3.20661,5.35639,3.24067,5.36582,3.27363z M3.33239,1.39866V0.76014h2.01834v0.63852H3.33239z M7.43045,10.5506v9.375
	c-0.00129,0.0836-0.03443,0.1635-0.09256,0.2231c-0.02923,0.0295-0.06408,0.0529-0.10246,0.0685
	c-0.03838,0.0157-0.0795,0.0234-0.12091,0.0227h-5.5449c-0.08318,0.0002-0.16309-0.0326-0.22228-0.0915
	c-0.05919-0.0588-0.09287-0.139-0.09367-0.2228v-9.375l1.78794-6.30403h2.6009L7.43045,10.5506z M16.46167,7.88518l-0.6922-1.39866
	c-0.0329-0.06118-0.0816-0.1123-0.1409-0.14797c-0.0593-0.03567-0.1271-0.05465-0.1962-0.05481h-3.3112l-1.2758-1.28718
	c-0.0716-0.06714-0.1662-0.10368-0.2639-0.10195c-0.0978,0.00174-0.191,0.04172-0.2602,0.11135
	c-0.0691,0.06964-0.1087,0.16358-0.1104,0.26204c-0.0017,0.09847,0.0346,0.1937,0.1012,0.26575l0.7425,0.74999h-1.1681
	c-0.0694,0.00012-0.1374,0.01903-0.1971,0.05469c-0.0596,0.03565-0.1086,0.08682-0.142,0.14809L8.85415,7.88518
	C8.8276,7.93859,8.81447,7.99768,8.81592,8.05739V19.9256c0.00004,0.0492,0.00986,0.0979,0.02886,0.1432
	c0.01901,0.0452,0.04683,0.0861,0.08182,0.1203l0.69327,0.6994c0.0703,0.0712,0.1659,0.1113,0.2656,0.1115h5.5449
	c0.1-0.0004,0.1958-0.0405,0.2666-0.1115l0.6923-0.6994c0.035-0.0342,0.0628-0.0751,0.0818-0.1203
	c0.019-0.0453,0.0288-0.094,0.0288-0.1432V8.05739C16.50138,7.99768,16.48827,7.93859,16.46167,7.88518z M15.74627,19.2568v0.5067
	l-0.4729,0.4764h-5.232l-0.4728-0.4764v-0.5067h6.1767H15.74627z M9.56957,8.72635V8.14858l0.5493-1.1047h5.0781l0.5493,1.1047
	v0.57777H9.56957z M15.74627,9.48649v9.01011h-6.1767V9.48649H15.74627z"/>
</svg>
