<?xml version="1.0" encoding="utf-8"?>
<!-- Generator: Adobe Illustrator 26.0.3, SVG Export Plug-In . SVG Version: 6.00 Build 0)  -->
<svg version="1.1" id="Layer_1" xmlns="http://www.w3.org/2000/svg" xmlns:xlink="http://www.w3.org/1999/xlink" x="0px" y="0px"
	 viewBox="0 0 16 21" style="enable-background:new 0 0 16 21;" xml:space="preserve">
<style type="text/css">
	.st0{fill-rule:evenodd;clip-rule:evenodd;fill:#F3B232;}
</style>
<path class="st0" d="M15.50037,18.0835c0.1329-0.0019,0.2597-0.0563,0.3528-0.1515c0.0931-0.0952,0.1449-0.2235,0.1441-0.3568
	V6.57319c-0.0027-0.52986-0.2145-1.0371-0.5893-1.41065c-0.3748-0.37356-0.8819-0.58299-1.4104-0.58246H2.00066
	C1.47213,4.57954,0.9649,4.78901,0.58996,5.16254C0.21502,5.53606,0.00289,6.04323,0,6.57319v6.50751
	c0.00088,0.075,0.01861,0.1487,0.05186,0.2158c0.03326,0.0672,0.08119,0.126,0.14022,0.1719
	c0.05903,0.046,0.12764,0.078,0.20073,0.0937c0.07309,0.0157,0.14878,0.0147,0.22141-0.003
	c0.5002-0.227,0.96675-0.5221,1.38643-0.877l0.99984,0.6677v6.7268c-0.00086,0.0857,0.02037,0.1703,0.06164,0.2455
	c0.04128,0.0751,0.10121,0.1382,0.17398,0.1833c0.07277,0.0451,0.15591,0.0706,0.24138,0.0741
	c0.08548,0.0034,0.1704-0.0154,0.24653-0.0545l1.77604-0.8868l1.77702,0.8868c0.06954,0.0344,0.14606,0.0524,0.22363,0.0524
	c0.07756,0,0.15407-0.018,0.22361-0.0524l1.77604-0.8868l1.776,0.8868c0.0696,0.0344,0.1461,0.0524,0.2236,0.0524
	c0.0776,0,0.1541-0.018,0.2237-0.0524l1.777-0.8868l1.776,0.8868c0.0584,0.03,0.1221,0.0483,0.1875,0.0535
	c0.0654,0.0052,0.1311-0.0026,0.1935-0.023c0.0624-0.0204,0.1201-0.053,0.1698-0.0958c0.0498-0.0429,0.0906-0.0952,0.1201-0.1539
	c0.059-0.1198,0.0686-0.258,0.0268-0.3848c-0.0419-0.1268-0.1318-0.232-0.2504-0.2928l-1.9997-0.9966
	c-0.0695-0.0344-0.146-0.0524-0.2236-0.0524c-0.0776,0-0.1541,0.018-0.2236,0.0524l-1.7771,0.8868l-1.77598-0.8868
	c-0.06954-0.0344-0.14606-0.0524-0.22362-0.0524c-0.07757,0-0.15409,0.018-0.22363,0.0524l-1.77602,0.8868l-1.77704-0.8868
	c-0.06954-0.0344-0.14605-0.0524-0.22361-0.0524s-0.15409,0.018-0.22363,0.0524l-1.27612,0.6377V6.57319
	c-0.00321-0.35102-0.09923-0.6949-0.27828-0.99655h10.27853c0.131-0.00079,0.2609,0.02447,0.3822,0.0742
	c0.1212,0.04973,0.2315,0.12295,0.3244,0.21557c0.093,0.09261,0.1667,0.20277,0.217,0.32407
	c0.0503,0.1213,0.0762,0.25134,0.0762,0.38271V17.5752c-0.0008,0.1338,0.0514,0.2625,0.1452,0.3578
	C15.23926,18.0283,15.36687,18.0824,15.50037,18.0835z M3.0005,6.57319V12.144l-0.72255-0.4783
	c-0.08073-0.0584-0.17775-0.0899-0.27729-0.0899c-0.09954,0-0.19655,0.0315-0.27728,0.0899L1.00083,12.144V6.57319
	c0-0.26589,0.10534-0.52084,0.29284-0.70885c0.18751-0.18801,0.44182-0.29367,0.70699-0.29367s0.51948,0.10566,0.70698,0.29367
	C2.89515,6.05235,3.0005,6.3073,3.0005,6.57319z M13.00076,14.5756h-7.0008c-0.13179,0-0.25818-0.0526-0.35138-0.146
	c-0.09319-0.0935-0.14555-0.2202-0.14555-0.3523c0-0.1322,0.05236-0.2589,0.14555-0.3523c0.0932-0.0935,0.21959-0.146,0.35138-0.146
	h7.0008c0.1318,0,0.2582,0.0525,0.3514,0.146c0.0932,0.0934,0.1455,0.2201,0.1455,0.3523c0,0.1321-0.0523,0.2588-0.1455,0.3523
	C13.25896,14.523,13.13256,14.5756,13.00076,14.5756z M12.00097,16.5787H7.00079c-0.1318,0-0.25819-0.0526-0.35138-0.146
	c-0.09319-0.0935-0.14556-0.2202-0.14556-0.3523c0-0.1322,0.05237-0.2589,0.14556-0.3523
	c0.09319-0.0935,0.21958-0.146,0.35138-0.146h5.00017c0.1318,0,0.2581,0.0525,0.3513,0.146
	c0.0932,0.0934,0.1456,0.2201,0.1456,0.3523c0,0.1321-0.0524,0.2588-0.1456,0.3523
	C12.25906,16.5261,12.13276,16.5787,12.00097,16.5787z"/>
</svg>
