<?xml version="1.0" encoding="utf-8"?>
<!-- Generator: Adobe Illustrator 26.0.3, SVG Export Plug-In . SVG Version: 6.00 Build 0)  -->
<svg version="1.1" id="Layer_1" xmlns="http://www.w3.org/2000/svg" xmlns:xlink="http://www.w3.org/1999/xlink" x="0px" y="0px"
	 viewBox="0 0 16 21" style="enable-background:new 0 0 16 21;" xml:space="preserve">
<style type="text/css">
	.st0{fill-rule:evenodd;clip-rule:evenodd;fill:#F3B232;}
</style>
<path class="st0" d="M7.998,5.92993C8.18623,5.92838,8.36769,6.00018,8.504,6.13l4.725,4.6899
	c0.1268,0.1284,0.2007,0.2997,0.207,0.48V11.36l0.007,0.0599c0,0.04,0.007,0.0701,0.007,0.0901v7.21
	c0.0003,0.0938-0.0181,0.1868-0.0541,0.2734c-0.0359,0.0867-0.0888,0.1653-0.1554,0.2313
	c-0.0666,0.0661-0.1457,0.1182-0.2326,0.1535c-0.087,0.0352-0.1801,0.0528-0.2739,0.0517H3.259
	c-0.09348,0.0006-0.18614-0.0174-0.27263-0.0528c-0.0865-0.0355-0.16511-0.0878-0.2313-0.1538s-0.11866-0.1445-0.15438-0.2309
	C2.56498,18.906,2.54673,18.8135,2.547,18.72v-7.21c0-0.02,0-0.0501,0.007-0.0901L2.561,11.36v-0.0601
	c0.00643-0.1803,0.0803-0.3515,0.207-0.48L7.494,6.13C7.63031,6.00018,7.81176,5.92838,8,5.92993H7.998z M8,4.64001
	C7.46633,4.64089,6.95472,4.85298,6.577,5.22998L1.851,9.90991C1.47379,10.3589,1.262,10.9237,1.251,11.51v7.21
	c-0.00001,0.2636,0.05212,0.5247,0.15338,0.7682c0.10126,0.2434,0.24965,0.4644,0.43664,0.6502
	c0.18699,0.1859,0.40889,0.333,0.65293,0.4328C2.73798,20.671,2.99935,20.7216,3.263,20.72h9.474
	c0.2637,0.0016,0.525-0.049,0.7691-0.1488c0.244-0.0998,0.4659-0.2469,0.6529-0.4328c0.187-0.1858,0.3354-0.4068,0.4366-0.6502
	c0.1013-0.2435,0.1534-0.5046,0.1534-0.7682v-7.21c-0.011-0.5863-0.2228-1.1511-0.6-1.60009L9.424,5.22998
	c-0.37772-0.377-0.88933-0.58909-1.423-0.58997H8z"/>
</svg>
