<?xml version="1.0" encoding="utf-8"?>
<!-- Generator: Adobe Illustrator 26.0.3, SVG Export Plug-In . SVG Version: 6.00 Build 0)  -->
<svg version="1.1" id="Layer_1" xmlns="http://www.w3.org/2000/svg" xmlns:xlink="http://www.w3.org/1999/xlink" x="0px" y="0px"
	 viewBox="0 0 16 21" style="enable-background:new 0 0 16 21;" xml:space="preserve">
<style type="text/css">
	.st0{fill-rule:evenodd;clip-rule:evenodd;fill:#F3B232;}
</style>
<path class="st0" d="M14.99495,10.15c0.1299,0.0234,0.2637-0.0056,0.3724-0.0805c0.1086-0.07497,0.1832-0.18977,0.2076-0.3195
	l0.373-1.98999c0.0131-0.07185,0.0104-0.14576-0.0081-0.21643s-0.0522-0.13639-0.0988-0.19263
	c-0.0466-0.05624-0.105-0.10167-0.171-0.13293s-0.1381-0.04768-0.2111-0.0481H3.4169L3.17391,5.89001
	C3.11025,5.54776,2.929,5.23852,2.66149,5.01575C2.39398,4.79297,2.05703,4.67058,1.7089,4.66992H0.54391
	c-0.13261,0-0.25979,0.05272-0.35355,0.14649c-0.09377,0.09376-0.14645,0.2209-0.14645,0.35351s0.05268,0.25987,0.14645,0.35364
	C0.28412,5.61733,0.4113,5.66992,0.54391,5.66992H1.7089c0.11651,0.00066,0.22914,0.04209,0.31842,0.11695
	C2.1166,5.86172,2.17694,5.96535,2.19791,6.07996l1.721,9.06004h-0.144c-0.46281,0-0.90665,0.1839-1.23391,0.5111
	c-0.32725,0.3273-0.51109,0.7711-0.51109,1.2339c0,0.4628,0.18384,0.9066,0.51109,1.2339
	C2.86826,18.4461,3.3121,18.63,3.77491,18.63h0.34c-0.082,0.2251-0.10851,0.4666-0.07729,0.7041
	c0.03122,0.2375,0.11925,0.464,0.25663,0.6603c0.13739,0.1962,0.32007,0.3565,0.53256,0.4671
	C5.0393,20.5722,5.27534,20.63,5.5149,20.63c0.23957,0,0.47561-0.0578,0.68811-0.1685c0.21249-0.1106,0.39517-0.2709,0.53255-0.4671
	c0.13738-0.1963,0.22542-0.4228,0.25664-0.6603c0.03122-0.2375,0.00471-0.479-0.07729-0.7041h3.66204
	c-0.082,0.2251-0.1086,0.4666-0.0773,0.7041c0.0312,0.2375,0.1192,0.464,0.2566,0.6603c0.1374,0.1962,0.3201,0.3565,0.5326,0.4671
	c0.2124,0.1107,0.4485,0.1685,0.6881,0.1685c0.2395,0,0.4756-0.0578,0.6881-0.1685c0.2124-0.1106,0.3951-0.2709,0.5325-0.4671
	c0.1374-0.1963,0.2254-0.4228,0.2567-0.6603c0.0312-0.2375,0.0047-0.479-0.0773-0.7041h1.582
	c0.0709,0.0101,0.1431,0.0049,0.2118-0.0154c0.0687-0.0202,0.1323-0.055,0.1864-0.1019c0.0541-0.0469,0.0974-0.105,0.1272-0.1702
	c0.0297-0.0651,0.0451-0.1359,0.0451-0.2075s-0.0154-0.1425-0.0451-0.2076c-0.0298-0.0652-0.0731-0.1231-0.1272-0.1701
	c-0.0541-0.0469-0.1177-0.0817-0.1864-0.1019c-0.0687-0.0202-0.1409-0.0255-0.2118-0.0154H3.77491
	c-0.19892,0-0.38968-0.0791-0.53033-0.2197c-0.14065-0.1407-0.21967-0.3314-0.21967-0.5303s0.07902-0.3897,0.21967-0.5304
	C3.38523,16.219,3.57599,16.14,3.77491,16.14h9.36404c0.3483,0.0001,0.6856-0.1219,0.9533-0.3448s0.4487-0.5327,0.5117-0.8753
	l0.594-3.1799c0.0206-0.0674,0.0267-0.1384,0.0179-0.2084c-0.0087-0.0699-0.0322-0.1373-0.0688-0.1975
	c-0.0366-0.0602-0.0855-0.112-0.1435-0.152c-0.058-0.04-0.1239-0.0673-0.1932-0.08c-0.0693-0.0128-0.1405-0.0108-0.209,0.0059
	c-0.0685,0.0167-0.1327,0.0476-0.1883,0.0909c-0.0557,0.0432-0.1016,0.0978-0.1347,0.16c-0.0331,0.0622-0.0527,0.1307-0.0574,0.201
	l-0.594,3.1801c-0.023,0.1126-0.0841,0.2138-0.173,0.2866c-0.0889,0.0729-0.2001,0.113-0.315,0.1134H4.9319L3.60591,8.15991
	h11.25004l-0.262,1.41004c-0.0234,0.13004,0.0057,0.26412,0.0808,0.3728C14.74995,10.0514,14.86495,10.1259,14.99495,10.15z
	 M11.97995,18.63c0.1326,0,0.2597,0.0526,0.3535,0.1464c0.0938,0.0937,0.1465,0.221,0.1465,0.3536
	c0.0076,0.0699,0.0005,0.1405-0.021,0.2074c-0.0214,0.0669-0.0568,0.1286-0.1037,0.1809c-0.0468,0.0524-0.1043,0.0943-0.1684,0.1229
	c-0.0642,0.0287-0.1337,0.0435-0.2039,0.0435c-0.0703,0-0.1398-0.0148-0.204-0.0435c-0.0641-0.0286-0.1215-0.0705-0.1684-0.1229
	c-0.0469-0.0523-0.0823-0.114-0.1037-0.1809c-0.0215-0.0669-0.0286-0.1375-0.0209-0.2074
	c-0.0001-0.1309,0.0512-0.2566,0.1429-0.3501c0.0916-0.0935,0.2162-0.1473,0.3471-0.1499H11.97995z M5.51791,18.63
	c0.13261,0,0.25979,0.0526,0.35355,0.1464c0.09377,0.0937,0.14645,0.221,0.14645,0.3536
	c0.00769,0.0699,0.00056,0.1405-0.02091,0.2074c-0.02147,0.0669-0.05681,0.1286-0.10371,0.1809
	C5.8464,19.5707,5.789,19.6126,5.72483,19.6412c-0.06416,0.0287-0.13365,0.0435-0.20392,0.0435
	c-0.07028,0-0.13976-0.0148-0.20393-0.0435c-0.06416-0.0286-0.12157-0.0705-0.16846-0.1229
	c-0.0469-0.0523-0.08223-0.114-0.1037-0.1809s-0.0286-0.1375-0.02091-0.2074c-0.00003-0.1309,0.05127-0.2566,0.14289-0.3501
	c0.09161-0.0935,0.21624-0.1473,0.3471-0.1499H5.51791z M6.51191,10.1599V13.15c-0.00769,0.0699-0.00056,0.1405,0.02091,0.2074
	c0.02147,0.0669,0.0568,0.1286,0.1037,0.1809c0.04689,0.0524,0.1043,0.0942,0.16846,0.1228
	c0.06417,0.0287,0.13365,0.0436,0.20393,0.0436c0.07027,0,0.13976-0.0149,0.20392-0.0436
	C7.277,13.6325,7.3344,13.5907,7.3813,13.5383c0.04689-0.0523,0.08223-0.114,0.1037-0.1809
	c0.02147-0.0669,0.0286-0.1375,0.02091-0.2074v-2.9901c0.00432-0.0682-0.00539-0.1365-0.02851-0.20079
	c-0.02313-0.0643-0.05918-0.12316-0.10594-0.17298C7.3247,9.73632,7.26823,9.6967,7.20553,9.66956
	c-0.0627-0.02715-0.1303-0.04114-0.19862-0.04114c-0.06832,0-0.13592,0.01399-0.19863,0.04114
	C6.74558,9.6967,6.68911,9.73632,6.64235,9.78613C6.59559,9.83595,6.55953,9.89481,6.53641,9.95911
	c-0.02312,0.06429-0.03282,0.13259-0.0285,0.20079H6.51191z M8.99791,10.1599V13.15c-0.00769,0.0699-0.00056,0.1405,0.02091,0.2074
	s0.0568,0.1286,0.1037,0.1809c0.04689,0.0524,0.1043,0.0942,0.16846,0.1228c0.06417,0.0287,0.13365,0.0436,0.20393,0.0436
	c0.07027,0,0.13976-0.0149,0.20392-0.0436C9.763,13.6325,9.8204,13.5907,9.8673,13.5383c0.04689-0.0523,0.08223-0.114,0.1037-0.1809
	s0.0286-0.1375,0.02091-0.2074v-2.9901c0.00533-0.0687-0.0036-0.1378-0.02623-0.20287
	C9.94305,9.89193,9.9072,9.8322,9.86039,9.78162C9.81357,9.73103,9.75681,9.69069,9.69366,9.66309
	C9.63051,9.63548,9.56233,9.62122,9.4934,9.62122c-0.06892,0-0.13709,0.01426-0.20024,0.04187
	C9.23,9.69069,9.17323,9.73103,9.12642,9.78162C9.07961,9.8322,9.04377,9.89193,9.02114,9.95703
	C8.9985,10.0221,8.98957,10.0912,8.99491,10.1599H8.99791z M11.48295,10.1599V13.15c-0.0077,0.0699-0.0006,0.1405,0.0209,0.2074
	c0.0214,0.0669,0.0568,0.1286,0.1037,0.1809c0.0469,0.0524,0.1043,0.0942,0.1684,0.1228c0.0642,0.0287,0.1337,0.0436,0.204,0.0436
	c0.0702,0,0.1397-0.0149,0.2039-0.0436c0.0641-0.0286,0.1216-0.0704,0.1684-0.1228c0.0469-0.0523,0.0823-0.114,0.1037-0.1809
	c0.0215-0.0669,0.0286-0.1375,0.021-0.2074v-2.9901c0.0043-0.0682-0.0054-0.1365-0.0286-0.20079
	c-0.0231-0.0643-0.0591-0.12316-0.1059-0.17298c-0.0467-0.04981-0.1032-0.08943-0.1659-0.11657
	c-0.0627-0.02715-0.1303-0.04114-0.1986-0.04114c-0.0684,0-0.136,0.01399-0.1987,0.04114
	c-0.0627,0.02714-0.1191,0.06676-0.1659,0.11657c-0.0468,0.04982-0.0828,0.10868-0.1059,0.17298
	c-0.0232,0.06429-0.0329,0.13259-0.0285,0.20079H11.48295z"/>
</svg>
